  0
SECTION
  2
HEADER
  9
$ACADVER
  1
AC1027
  9
$ACADMAINTVER
 70
   105
  9
$DWGCODEPAGE
  3
ANSI_1252
  9
$LASTSAVEDBY
  1
jacob
  9
$REQUIREDVERSIONS
160
                 0
  9
$INSBASE
 10
0.0
 20
0.0
 30
0.0
  9
$EXTMIN
 10
0.0
 20
-0.0000000000000007
 30
-0.77
  9
$EXTMAX
 10
12.12500000000002
 20
10.25
 30
2.0
  9
$LIMMIN
 10
0.0
 20
0.0
  9
$LIMMAX
 10
12.0
 20
9.0
  9
$ORTHOMODE
 70
     0
  9
$REGENMODE
 70
     1
  9
$FILLMODE
 70
     1
  9
$QTEXTMODE
 70
     0
  9
$MIRRTEXT
 70
     1
  9
$LTSCALE
 40
1.0
  9
$ATTMODE
 70
     1
  9
$TEXTSIZE
 40
0.2
  9
$TRACEWID
 40
0.05
  9
$TEXTSTYLE
  7
Standard
  9
$CLAYER
  8
Cutout
  9
$CELTYPE
  6
ByLayer
  9
$CECOLOR
 62
   256
  9
$CELTSCALE
 40
1.0
  9
$DISPSILH
 70
     0
  9
$DIMSCALE
 40
1.0
  9
$DIMASZ
 40
0.18
  9
$DIMEXO
 40
0.0625
  9
$DIMDLI
 40
0.38
  9
$DIMRND
 40
0.0
  9
$DIMDLE
 40
0.0
  9
$DIMEXE
 40
0.18
  9
$DIMTP
 40
0.0
  9
$DIMTM
 40
0.0
  9
$DIMTXT
 40
0.18
  9
$DIMCEN
 40
0.09
  9
$DIMTSZ
 40
0.0
  9
$DIMTOL
 70
     0
  9
$DIMLIM
 70
     0
  9
$DIMTIH
 70
     1
  9
$DIMTOH
 70
     1
  9
$DIMSE1
 70
     0
  9
$DIMSE2
 70
     0
  9
$DIMTAD
 70
     0
  9
$DIMZIN
 70
     0
  9
$DIMBLK
  1

  9
$DIMASO
 70
     1
  9
$DIMSHO
 70
     1
  9
$DIMPOST
  1

  9
$DIMAPOST
  1

  9
$DIMALT
 70
     0
  9
$DIMALTD
 70
     2
  9
$DIMALTF
 40
25.4
  9
$DIMLFAC
 40
1.0
  9
$DIMTOFL
 70
     0
  9
$DIMTVP
 40
0.0
  9
$DIMTIX
 70
     0
  9
$DIMSOXD
 70
     0
  9
$DIMSAH
 70
     0
  9
$DIMBLK1
  1

  9
$DIMBLK2
  1

  9
$DIMSTYLE
  2
Standard
  9
$DIMCLRD
 70
     0
  9
$DIMCLRE
 70
     0
  9
$DIMCLRT
 70
     0
  9
$DIMTFAC
 40
1.0
  9
$DIMGAP
 40
0.09
  9
$DIMJUST
 70
     0
  9
$DIMSD1
 70
     0
  9
$DIMSD2
 70
     0
  9
$DIMTOLJ
 70
     1
  9
$DIMTZIN
 70
     0
  9
$DIMALTZ
 70
     0
  9
$DIMALTTZ
 70
     0
  9
$DIMUPT
 70
     0
  9
$DIMDEC
 70
     4
  9
$DIMTDEC
 70
     4
  9
$DIMALTU
 70
     2
  9
$DIMALTTD
 70
     2
  9
$DIMTXSTY
  7
Standard
  9
$DIMAUNIT
 70
     0
  9
$DIMADEC
 70
     0
  9
$DIMALTRND
 40
0.0
  9
$DIMAZIN
 70
     0
  9
$DIMDSEP
 70
    46
  9
$DIMATFIT
 70
     3
  9
$DIMFRAC
 70
     0
  9
$DIMLDRBLK
  1

  9
$DIMLUNIT
 70
     2
  9
$DIMLWD
 70
    -2
  9
$DIMLWE
 70
    -2
  9
$DIMTMOVE
 70
     0
  9
$DIMFXL
 40
1.0
  9
$DIMFXLON
 70
     0
  9
$DIMJOGANG
 40
0.7853981633974483
  9
$DIMTFILL
 70
     0
  9
$DIMTFILLCLR
 70
     0
  9
$DIMARCSYM
 70
     0
  9
$DIMLTYPE
  6

  9
$DIMLTEX1
  6

  9
$DIMLTEX2
  6

  9
$DIMTXTDIRECTION
 70
     0
  9
$LUNITS
 70
     2
  9
$LUPREC
 70
     4
  9
$SKETCHINC
 40
0.1
  9
$FILLETRAD
 40
0.5
  9
$AUNITS
 70
     0
  9
$AUPREC
 70
     0
  9
$MENU
  1
.
  9
$ELEVATION
 40
0.0
  9
$PELEVATION
 40
0.0
  9
$THICKNESS
 40
0.0
  9
$LIMCHECK
 70
     0
  9
$CHAMFERA
 40
0.0
  9
$CHAMFERB
 40
0.0
  9
$CHAMFERC
 40
0.0
  9
$CHAMFERD
 40
0.0
  9
$SKPOLY
 70
     0
  9
$TDCREATE
 40
2460368.677731829
  9
$TDUCREATE
 40
2460369.011065162
  9
$TDUPDATE
 40
2460368.677732373
  9
$TDUUPDATE
 40
2460369.011065706
  9
$TDINDWG
 40
0.0000000116
  9
$TDUSRTIMER
 40
0.0000000116
  9
$USRTIMER
 70
     1
  9
$ANGBASE
 50
0.0
  9
$ANGDIR
 70
     0
  9
$PDMODE
 70
     0
  9
$PDSIZE
 40
0.0
  9
$PLINEWID
 40
0.0
  9
$SPLFRAME
 70
     0
  9
$SPLINETYPE
 70
     6
  9
$SPLINESEGS
 70
     8
  9
$HANDSEED
  5
6CF
  9
$SURFTAB1
 70
     6
  9
$SURFTAB2
 70
     6
  9
$SURFTYPE
 70
     6
  9
$SURFU
 70
     6
  9
$SURFV
 70
     6
  9
$UCSBASE
  2

  9
$UCSNAME
  2

  9
$UCSORG
 10
0.0
 20
0.0
 30
0.0
  9
$UCSXDIR
 10
1.0
 20
0.0
 30
0.0
  9
$UCSYDIR
 10
0.0
 20
1.0
 30
0.0
  9
$UCSORTHOREF
  2

  9
$UCSORTHOVIEW
 70
     0
  9
$UCSORGTOP
 10
0.0
 20
0.0
 30
0.0
  9
$UCSORGBOTTOM
 10
0.0
 20
0.0
 30
0.0
  9
$UCSORGLEFT
 10
0.0
 20
0.0
 30
0.0
  9
$UCSORGRIGHT
 10
0.0
 20
0.0
 30
0.0
  9
$UCSORGFRONT
 10
0.0
 20
0.0
 30
0.0
  9
$UCSORGBACK
 10
0.0
 20
0.0
 30
0.0
  9
$PUCSBASE
  2

  9
$PUCSNAME
  2

  9
$PUCSORG
 10
0.0
 20
0.0
 30
0.0
  9
$PUCSXDIR
 10
1.0
 20
0.0
 30
0.0
  9
$PUCSYDIR
 10
0.0
 20
1.0
 30
0.0
  9
$PUCSORTHOREF
  2

  9
$PUCSORTHOVIEW
 70
     0
  9
$PUCSORGTOP
 10
0.0
 20
0.0
 30
0.0
  9
$PUCSORGBOTTOM
 10
0.0
 20
0.0
 30
0.0
  9
$PUCSORGLEFT
 10
0.0
 20
0.0
 30
0.0
  9
$PUCSORGRIGHT
 10
0.0
 20
0.0
 30
0.0
  9
$PUCSORGFRONT
 10
0.0
 20
0.0
 30
0.0
  9
$PUCSORGBACK
 10
0.0
 20
0.0
 30
0.0
  9
$USERI1
 70
     0
  9
$USERI2
 70
     0
  9
$USERI3
 70
     0
  9
$USERI4
 70
     0
  9
$USERI5
 70
     0
  9
$USERR1
 40
0.0
  9
$USERR2
 40
0.0
  9
$USERR3
 40
0.0
  9
$USERR4
 40
0.0
  9
$USERR5
 40
0.0
  9
$WORLDVIEW
 70
     1
  9
$SHADEDGE
 70
     3
  9
$SHADEDIF
 70
    70
  9
$TILEMODE
 70
     1
  9
$MAXACTVP
 70
    64
  9
$PINSBASE
 10
0.0
 20
0.0
 30
0.0
  9
$PLIMCHECK
 70
     0
  9
$PEXTMIN
 10
1.000000000000000E+20
 20
1.000000000000000E+20
 30
1.000000000000000E+20
  9
$PEXTMAX
 10
-1.000000000000000E+20
 20
-1.000000000000000E+20
 30
-1.000000000000000E+20
  9
$PLIMMIN
 10
-0.25
 20
-0.25
  9
$PLIMMAX
 10
10.75
 20
8.25
  9
$UNITMODE
 70
     0
  9
$VISRETAIN
 70
     1
  9
$PLINEGEN
 70
     0
  9
$PSLTSCALE
 70
     1
  9
$TREEDEPTH
 70
  3020
  9
$CMLSTYLE
  2
Standard
  9
$CMLJUST
 70
     0
  9
$CMLSCALE
 40
1.0
  9
$PROXYGRAPHICS
 70
     1
  9
$MEASUREMENT
 70
     0
  9
$CELWEIGHT
370
    -1
  9
$ENDCAPS
280
     0
  9
$JOINSTYLE
280
     0
  9
$LWDISPLAY
290
     0
  9
$INSUNITS
 70
     1
  9
$HYPERLINKBASE
  1

  9
$STYLESHEET
  1

  9
$XEDIT
290
     1
  9
$CEPSNTYPE
380
     0
  9
$PSTYLEMODE
290
     1
  9
$FINGERPRINTGUID
  2
{5deae34c-f0e2-426b-9067-e07f9ca2f25c}
  9
$VERSIONGUID
  2
{FAEB1C32-E019-11D5-929B-00C0DF256EC4}
  9
$EXTNAMES
290
     1
  9
$PSVPSCALE
 40
0.0
  9
$OLESTARTUP
290
     0
  9
$SORTENTS
280
   127
  9
$INDEXCTL
280
     0
  9
$HIDETEXT
280
     1
  9
$XCLIPFRAME
280
     2
  9
$HALOGAP
280
     0
  9
$OBSCOLOR
 70
   257
  9
$OBSLTYPE
280
     0
  9
$INTERSECTIONDISPLAY
280
     0
  9
$INTERSECTIONCOLOR
 70
   257
  9
$DIMASSOC
280
     2
  9
$PROJECTNAME
  1

  9
$CAMERADISPLAY
290
     0
  9
$LENSLENGTH
 40
50.0
  9
$CAMERAHEIGHT
 40
0.0
  9
$STEPSPERSEC
 40
2.0
  9
$STEPSIZE
 40
6.0
  9
$3DDWFPREC
 40
2.0
  9
$PSOLWIDTH
 40
0.25
  9
$PSOLHEIGHT
 40
4.0
  9
$LOFTANG1
 40
1.570796326794897
  9
$LOFTANG2
 40
1.570796326794897
  9
$LOFTMAG1
 40
0.0
  9
$LOFTMAG2
 40
0.0
  9
$LOFTPARAM
 70
     7
  9
$LOFTNORMALS
280
     1
  9
$LATITUDE
 40
37.795
  9
$LONGITUDE
 40
-122.394
  9
$NORTHDIRECTION
 40
0.0
  9
$TIMEZONE
 70
 -8000
  9
$LIGHTGLYPHDISPLAY
280
     1
  9
$TILEMODELIGHTSYNCH
280
     1
  9
$CMATERIAL
347
60E
  9
$SOLIDHIST
280
     0
  9
$SHOWHIST
280
     1
  9
$DWFFRAME
280
     2
  9
$DGNFRAME
280
     2
  9
$REALWORLDSCALE
290
     1
  9
$INTERFERECOLOR
 62
   256
  9
$CSHADOW
280
     0
  9
$SHADOWPLANELOCATION
 40
0.0
  0
ENDSEC
  0
SECTION
  2
CLASSES
  0
CLASS
  1
ACDBDICTIONARYWDFLT
  2
AcDbDictionaryWithDefault
  3
ObjectDBX Classes
 90
        0
 91
        3
280
     0
281
     0
  0
CLASS
  1
VISUALSTYLE
  2
AcDbVisualStyle
  3
ObjectDBX Classes
 90
     4095
 91
        3
280
     0
281
     0
  0
CLASS
  1
MATERIAL
  2
AcDbMaterial
  3
ObjectDBX Classes
 90
     1153
 91
        3
280
     0
281
     0
  0
CLASS
  1
SCALE
  2
AcDbScale
  3
ObjectDBX Classes
 90
     1153
 91
        3
280
     0
281
     0
  0
CLASS
  1
TABLESTYLE
  2
AcDbTableStyle
  3
ObjectDBX Classes
 90
     4095
 91
        3
280
     0
281
     0
  0
CLASS
  1
MLEADERSTYLE
  2
AcDbMLeaderStyle
  3
ACDB_MLEADERSTYLE_CLASS
 90
     4095
 91
        3
280
     0
281
     0
  0
CLASS
  1
SUN
  2
AcDbSun
  3
SCENEOE
 90
     1153
 91
        3
280
     0
281
     0
  0
CLASS
  1
DICTIONARYVAR
  2
AcDbDictionaryVar
  3
ObjectDBX Classes
 90
        0
 91
        3
280
     0
281
     0
  0
CLASS
  1
CELLSTYLEMAP
  2
AcDbCellStyleMap
  3
ObjectDBX Classes
 90
     1152
 91
        3
280
     0
281
     0
  0
ENDSEC
  0
SECTION
  2
TABLES
  0
TABLE
  2
VPORT
  5
5D3
330
0
100
AcDbSymbolTable
 70
     1
  0
VPORT
  5
5F3
330
5D3
100
AcDbSymbolTableRecord
100
AcDbViewportTableRecord
  2
*Active
 70
     0
 10
0.0
 20
0.0
 11
1.0
 21
1.0
 12
13.65421442874277
 22
6.855140282630233
 13
0.0
 23
0.0
 14
0.5
 24
0.5
 15
0.5
 25
0.5
 16
0.0
 26
0.0
 36
1.0
 17
0.0
 27
0.0
 37
0.0
 40
23.97848022109819
 41
1.39490861618799
 42
50.0
 43
0.0
 44
0.0
 50
0.0
 51
0.0
 71
     0
 72
   100
 73
     1
 74
     3
 75
     0
 76
     0
 77
     0
 78
     0
281
     0
 65
     1
110
0.0
120
0.0
130
0.0
111
1.0
121
0.0
131
0.0
112
0.0
122
1.0
132
0.0
 79
     0
146
0.0
348
5F9
 60
     3
 61
     5
292
     1
282
     1
141
0.0
142
0.0
 63
   250
361
627
  0
ENDTAB
  0
TABLE
  2
LTYPE
  5
5D0
330
0
100
AcDbSymbolTable
 70
    49
  0
LTYPE
  5
5DE
330
5D0
100
AcDbSymbolTableRecord
100
AcDbLinetypeTableRecord
  2
ByBlock
 70
     0
  3

 72
    65
 73
     0
 40
0.0
  0
LTYPE
  5
5DF
330
5D0
100
AcDbSymbolTableRecord
100
AcDbLinetypeTableRecord
  2
ByLayer
 70
     0
  3

 72
    65
 73
     0
 40
0.0
  0
LTYPE
  5
5E0
330
5D0
100
AcDbSymbolTableRecord
100
AcDbLinetypeTableRecord
  2
Continuous
 70
     0
  3
Solid line
 72
    65
 73
     0
 40
0.0
  0
LTYPE
  5
67C
330
5D0
100
AcDbSymbolTableRecord
100
AcDbLinetypeTableRecord
  2
HIDDEN2
 70
     0
  3
Hidden (.5x) _ _ _ _ _ _ _ _ _ _ _ _ _ _ _ _ _ 
 72
    65
 73
     2
 40
0.1875
 49
0.125
 74
     0
 49
-0.0625
 74
     0
  0
LTYPE
  5
67E
330
5D0
100
AcDbSymbolTableRecord
100
AcDbLinetypeTableRecord
  2
FENCELINE2
 70
     0
  3
Fenceline square ----[]-----[]----[]-----[]----[]---
 72
    65
 73
     4
 40
1.45
 49
0.25
 74
     0
 49
-0.1
 74
     2
 75
     0
340
67D
 46
0.1
 50
0.0
 44
-0.1
 45
0.0
  9
BOX
 49
-0.1
 74
     0
 49
1.0
 74
     0
  0
LTYPE
  5
680
330
5D0
100
AcDbSymbolTableRecord
100
AcDbLinetypeTableRecord
  2
GAS_LINE
 70
     0
  3
Gas line ----GAS----GAS----GAS----GAS----GAS----GAS--
 72
    65
 73
     3
 40
0.95
 49
0.5
 74
     0
 49
-0.2
 74
     2
 75
     0
340
67F
 46
0.1
 50
0.0
 44
-0.1
 45
-0.05
  9
GAS
 49
-0.25
 74
     0
  0
LTYPE
  5
682
330
5D0
100
AcDbSymbolTableRecord
100
AcDbLinetypeTableRecord
  2
DRAINAGE2
 70
     0
  3
Drainage reversed ----<----<----<----
 72
    65
 73
     2
 40
0.4
 49
0.2
 74
     2
 75
     0
340
681
 46
0.2
 50
0.0
 44
0.0
 45
0.0
  9
RIGHT_ARROW
 49
0.2
 74
     0
  0
LTYPE
  5
683
330
5D0
100
AcDbSymbolTableRecord
100
AcDbLinetypeTableRecord
  2
FENCELINE1
 70
     0
  3
Fenceline circle ----0-----0----0-----0----0-----0--
 72
    65
 73
     4
 40
1.45
 49
0.25
 74
     0
 49
-0.1
 74
     2
 75
     0
340
67D
 46
0.1
 50
0.0
 44
-0.1
 45
0.0
  9
CIRC1
 49
-0.1
 74
     0
 49
1.0
 74
     0
  0
LTYPE
  5
684
330
5D0
100
AcDbSymbolTableRecord
100
AcDbLinetypeTableRecord
  2
DOTX2
 70
     0
  3
Dot (2x) .  .  .  .  .  .  .  .  .  .  .  .  .  .
 72
    65
 73
     2
 40
0.5
 49
0.0
 74
     0
 49
-0.5
 74
     0
  0
LTYPE
  5
685
330
5D0
100
AcDbSymbolTableRecord
100
AcDbLinetypeTableRecord
  2
DRAINAGE
 70
     0
  3
Drainage ---->---->---->----
 72
    65
 73
     2
 40
0.4
 49
0.2
 74
     2
 75
     0
340
681
 46
0.2
 50
180.0
 44
0.0
 45
0.0
  9
RIGHT_ARROW
 49
0.2
 74
     0
  0
LTYPE
  5
686
330
5D0
100
AcDbSymbolTableRecord
100
AcDbLinetypeTableRecord
  2
BATTING
 70
     0
  3
Batting SSSSSSSSSSSSSSSSSSSSSSSSSSSSSSSSSSSSSSSSSSSSSSS
 72
    65
 73
     4
 40
0.4001
 49
0.0001
 74
     0
 49
-0.1
 74
     2
 75
     0
340
67D
 46
0.1
 50
0.0
 44
-0.1
 45
0.0
  9
BAT
 49
-0.2
 74
     2
 75
     0
340
67D
 46
0.1
 50
180.0
 44
0.1
 45
0.0
  9
BAT
 49
-0.1
 74
     0
  0
LTYPE
  5
687
330
5D0
100
AcDbSymbolTableRecord
100
AcDbLinetypeTableRecord
  2
BORDER
 70
     0
  3
Border __ __ . __ __ . __ __ . __ __ . __ __ .
 72
    65
 73
     6
 40
1.75
 49
0.5
 74
     0
 49
-0.25
 74
     0
 49
0.5
 74
     0
 49
-0.25
 74
     0
 49
0.0
 74
     0
 49
-0.25
 74
     0
  0
LTYPE
  5
688
330
5D0
100
AcDbSymbolTableRecord
100
AcDbLinetypeTableRecord
  2
ACAD_ISO14W100
 70
     0
  3
ISO dash triple-dot __ . . . __ . . . __ . . . _
 72
    65
 73
     8
 40
24.0
 49
12.0
 74
     0
 49
-3.0
 74
     0
 49
0.0
 74
     0
 49
-3.0
 74
     0
 49
0.0
 74
     0
 49
-3.0
 74
     0
 49
0.0
 74
     0
 49
-3.0
 74
     0
  0
LTYPE
  5
689
330
5D0
100
AcDbSymbolTableRecord
100
AcDbLinetypeTableRecord
  2
ACAD_ISO15W100
 70
     0
  3
ISO double-dash triple-dot __ __ . . . __ __ . .
 72
    65
 73
    10
 40
39.0
 49
12.0
 74
     0
 49
-3.0
 74
     0
 49
12.0
 74
     0
 49
-3.0
 74
     0
 49
0.0
 74
     0
 49
-3.0
 74
     0
 49
0.0
 74
     0
 49
-3.0
 74
     0
 49
0.0
 74
     0
 49
-3.0
 74
     0
  0
LTYPE
  5
68A
330
5D0
100
AcDbSymbolTableRecord
100
AcDbLinetypeTableRecord
  2
ACAD_ISO12W100
 70
     0
  3
ISO dash double-dot __ . . __ . . __ . . __ . . 
 72
    65
 73
     6
 40
21.0
 49
12.0
 74
     0
 49
-3.0
 74
     0
 49
0.0
 74
     0
 49
-3.0
 74
     0
 49
0.0
 74
     0
 49
-3.0
 74
     0
  0
LTYPE
  5
68B
330
5D0
100
AcDbSymbolTableRecord
100
AcDbLinetypeTableRecord
  2
ACAD_ISO13W100
 70
     0
  3
ISO double-dash double-dot __ __ . . __ __ . . _
 72
    65
 73
     8
 40
36.0
 49
12.0
 74
     0
 49
-3.0
 74
     0
 49
12.0
 74
     0
 49
-3.0
 74
     0
 49
0.0
 74
     0
 49
-3.0
 74
     0
 49
0.0
 74
     0
 49
-3.0
 74
     0
  0
LTYPE
  5
68C
330
5D0
100
AcDbSymbolTableRecord
100
AcDbLinetypeTableRecord
  2
ACAD_ISO10W100
 70
     0
  3
ISO dash dot __ . __ . __ . __ . __ . __ . __ . 
 72
    65
 73
     4
 40
18.0
 49
12.0
 74
     0
 49
-3.0
 74
     0
 49
0.0
 74
     0
 49
-3.0
 74
     0
  0
LTYPE
  5
68D
330
5D0
100
AcDbSymbolTableRecord
100
AcDbLinetypeTableRecord
  2
ACAD_ISO11W100
 70
     0
  3
ISO double-dash dot __ __ . __ __ . __ __ . __ _
 72
    65
 73
     6
 40
33.0
 49
12.0
 74
     0
 49
-3.0
 74
     0
 49
12.0
 74
     0
 49
-3.0
 74
     0
 49
0.0
 74
     0
 49
-3.0
 74
     0
  0
LTYPE
  5
68E
330
5D0
100
AcDbSymbolTableRecord
100
AcDbLinetypeTableRecord
  2
DASHDOT2
 70
     0
  3
Dash dot (.5x) _._._._._._._._._._._._._._._.
 72
    65
 73
     4
 40
0.5
 49
0.25
 74
     0
 49
-0.125
 74
     0
 49
0.0
 74
     0
 49
-0.125
 74
     0
  0
LTYPE
  5
68F
330
5D0
100
AcDbSymbolTableRecord
100
AcDbLinetypeTableRecord
  2
DASHDOTX2
 70
     0
  3
Dash dot (2x) ____  .  ____  .  ____  .  ___
 72
    65
 73
     4
 40
2.0
 49
1.0
 74
     0
 49
-0.5
 74
     0
 49
0.0
 74
     0
 49
-0.5
 74
     0
  0
LTYPE
  5
690
330
5D0
100
AcDbSymbolTableRecord
100
AcDbLinetypeTableRecord
  2
CENTERX2
 70
     0
  3
Center (2x) ________  __  ________  __  _____
 72
    65
 73
     4
 40
4.0
 49
2.5
 74
     0
 49
-0.5
 74
     0
 49
0.5
 74
     0
 49
-0.5
 74
     0
  0
LTYPE
  5
691
330
5D0
100
AcDbSymbolTableRecord
100
AcDbLinetypeTableRecord
  2
DASHDOT
 70
     0
  3
Dash dot __ . __ . __ . __ . __ . __ . __ . __
 72
    65
 73
     4
 40
1.0
 49
0.5
 74
     0
 49
-0.25
 74
     0
 49
0.0
 74
     0
 49
-0.25
 74
     0
  0
LTYPE
  5
692
330
5D0
100
AcDbSymbolTableRecord
100
AcDbLinetypeTableRecord
  2
CENTER
 70
     0
  3
Center ____ _ ____ _ ____ _ ____ _ ____ _ ____
 72
    65
 73
     4
 40
2.0
 49
1.25
 74
     0
 49
-0.25
 74
     0
 49
0.25
 74
     0
 49
-0.25
 74
     0
  0
LTYPE
  5
693
330
5D0
100
AcDbSymbolTableRecord
100
AcDbLinetypeTableRecord
  2
CENTER2
 70
     0
  3
Center (.5x) ___ _ ___ _ ___ _ ___ _ ___ _ ___
 72
    65
 73
     4
 40
1.125
 49
0.75
 74
     0
 49
-0.125
 74
     0
 49
0.125
 74
     0
 49
-0.125
 74
     0
  0
LTYPE
  5
694
330
5D0
100
AcDbSymbolTableRecord
100
AcDbLinetypeTableRecord
  2
BORDER2
 70
     0
  3
Border (.5x) __.__.__.__.__.__.__.__.__.__.__.
 72
    65
 73
     6
 40
0.875
 49
0.25
 74
     0
 49
-0.125
 74
     0
 49
0.25
 74
     0
 49
-0.125
 74
     0
 49
0.0
 74
     0
 49
-0.125
 74
     0
  0
LTYPE
  5
695
330
5D0
100
AcDbSymbolTableRecord
100
AcDbLinetypeTableRecord
  2
BORDERX2
 70
     0
  3
Border (2x) ____  ____  .  ____  ____  .  ___
 72
    65
 73
     6
 40
3.5
 49
1.0
 74
     0
 49
-0.5
 74
     0
 49
1.0
 74
     0
 49
-0.5
 74
     0
 49
0.0
 74
     0
 49
-0.5
 74
     0
  0
LTYPE
  5
696
330
5D0
100
AcDbSymbolTableRecord
100
AcDbLinetypeTableRecord
  2
ACAD_ISO08W100
 70
     0
  3
ISO long-dash short-dash ____ __ ____ __ ____ _
 72
    65
 73
     4
 40
36.0
 49
24.0
 74
     0
 49
-3.0
 74
     0
 49
6.0
 74
     0
 49
-3.0
 74
     0
  0
LTYPE
  5
697
330
5D0
100
AcDbSymbolTableRecord
100
AcDbLinetypeTableRecord
  2
ACAD_ISO09W100
 70
     0
  3
ISO long-dash double-short-dash ____ __ __ ____
 72
    65
 73
     6
 40
45.0
 49
24.0
 74
     0
 49
-3.0
 74
     0
 49
6.0
 74
     0
 49
-3.0
 74
     0
 49
6.0
 74
     0
 49
-3.0
 74
     0
  0
LTYPE
  5
698
330
5D0
100
AcDbSymbolTableRecord
100
AcDbLinetypeTableRecord
  2
ACAD_ISO06W100
 70
     0
  3
ISO long-dash triple-dot ____ ... ____ ... ____
 72
    65
 73
     8
 40
36.0
 49
24.0
 74
     0
 49
-3.0
 74
     0
 49
0.0
 74
     0
 49
-3.0
 74
     0
 49
0.0
 74
     0
 49
-3.0
 74
     0
 49
0.0
 74
     0
 49
-3.0
 74
     0
  0
LTYPE
  5
699
330
5D0
100
AcDbSymbolTableRecord
100
AcDbLinetypeTableRecord
  2
ACAD_ISO07W100
 70
     0
  3
ISO dot . . . . . . . . . . . . . . . . . . . . 
 72
    65
 73
     2
 40
3.0
 49
0.0
 74
     0
 49
-3.0
 74
     0
  0
LTYPE
  5
69A
330
5D0
100
AcDbSymbolTableRecord
100
AcDbLinetypeTableRecord
  2
ACAD_ISO04W100
 70
     0
  3
ISO long-dash dot ____ . ____ . ____ . ____ . _
 72
    65
 73
     4
 40
30.0
 49
24.0
 74
     0
 49
-3.0
 74
     0
 49
0.0
 74
     0
 49
-3.0
 74
     0
  0
LTYPE
  5
69B
330
5D0
100
AcDbSymbolTableRecord
100
AcDbLinetypeTableRecord
  2
ACAD_ISO05W100
 70
     0
  3
ISO long-dash double-dot ____ .. ____ .. ____ . 
 72
    65
 73
     6
 40
33.0
 49
24.0
 74
     0
 49
-3.0
 74
     0
 49
0.0
 74
     0
 49
-3.0
 74
     0
 49
0.0
 74
     0
 49
-3.0
 74
     0
  0
LTYPE
  5
69C
330
5D0
100
AcDbSymbolTableRecord
100
AcDbLinetypeTableRecord
  2
ACAD_ISO02W100
 70
     0
  3
ISO dash __ __ __ __ __ __ __ __ __ __ __ __ __
 72
    65
 73
     2
 40
15.0
 49
12.0
 74
     0
 49
-3.0
 74
     0
  0
LTYPE
  5
69D
330
5D0
100
AcDbSymbolTableRecord
100
AcDbLinetypeTableRecord
  2
ACAD_ISO03W100
 70
     0
  3
ISO dash space __    __    __    __    __    __
 72
    65
 73
     2
 40
30.0
 49
12.0
 74
     0
 49
-18.0
 74
     0
  0
LTYPE
  5
69E
330
5D0
100
AcDbSymbolTableRecord
100
AcDbLinetypeTableRecord
  2
ZIGZAG
 70
     0
  3
Zig zag /\/\/\/\/\/\/\/\/\/\/\/\/\/\/\/\/\/\/\/\/\/\/\/
 72
    65
 73
     4
 40
0.8001
 49
0.0001
 74
     0
 49
-0.2
 74
     2
 75
     0
340
67D
 46
0.2
 50
0.0
 44
-0.2
 45
0.0
  9
ZIG
 49
-0.4
 74
     2
 75
     0
340
67D
 46
0.2
 50
180.0
 44
0.2
 45
0.0
  9
ZIG
 49
-0.2
 74
     0
  0
LTYPE
  5
69F
330
5D0
100
AcDbSymbolTableRecord
100
AcDbLinetypeTableRecord
  2
PHANTOMX2
 70
     0
  3
Phantom (2x) ____________    ____    ____   _
 72
    65
 73
     6
 40
5.0
 49
2.5
 74
     0
 49
-0.5
 74
     0
 49
0.5
 74
     0
 49
-0.5
 74
     0
 49
0.5
 74
     0
 49
-0.5
 74
     0
  0
LTYPE
  5
6A0
330
5D0
100
AcDbSymbolTableRecord
100
AcDbLinetypeTableRecord
  2
TRACKS
 70
     0
  3
Tracks -|-|-|-|-|-|-|-|-|-|-|-|-|-|-|-|-|-|-|-|-|-|-|-|-
 72
    65
 73
     2
 40
0.3
 49
0.15
 74
     2
 75
     0
340
67D
 46
0.25
 50
0.0
 44
0.0
 45
0.0
  9
TRACK1
 49
0.15
 74
     0
  0
LTYPE
  5
6A1
330
5D0
100
AcDbSymbolTableRecord
100
AcDbLinetypeTableRecord
  2
PHANTOM
 70
     0
  3
Phantom ______  __  __  ______  __  __  ______ 
 72
    65
 73
     6
 40
2.5
 49
1.25
 74
     0
 49
-0.25
 74
     0
 49
0.25
 74
     0
 49
-0.25
 74
     0
 49
0.25
 74
     0
 49
-0.25
 74
     0
  0
LTYPE
  5
6A2
330
5D0
100
AcDbSymbolTableRecord
100
AcDbLinetypeTableRecord
  2
PHANTOM2
 70
     0
  3
Phantom (.5x) ___ _ _ ___ _ _ ___ _ _ ___ _ _
 72
    65
 73
     6
 40
1.25
 49
0.625
 74
     0
 49
-0.125
 74
     0
 49
0.125
 74
     0
 49
-0.125
 74
     0
 49
0.125
 74
     0
 49
-0.125
 74
     0
  0
LTYPE
  5
6A3
330
5D0
100
AcDbSymbolTableRecord
100
AcDbLinetypeTableRecord
  2
HIDDENX2
 70
     0
  3
Hidden (2x) ____ ____ ____ ____ ____ ____ ____ 
 72
    65
 73
     2
 40
0.75
 49
0.5
 74
     0
 49
-0.25
 74
     0
  0
LTYPE
  5
6A4
330
5D0
100
AcDbSymbolTableRecord
100
AcDbLinetypeTableRecord
  2
HOT_WATER_SUPPLY
 70
     0
  3
Hot water supply ---- HW ---- HW ---- HW ----
 72
    65
 73
     3
 40
0.8999999999999999
 49
0.5
 74
     0
 49
-0.2
 74
     2
 75
     0
340
67F
 46
0.1
 50
0.0
 44
-0.1
 45
-0.05
  9
HW
 49
-0.2
 74
     0
  0
LTYPE
  5
6A5
330
5D0
100
AcDbSymbolTableRecord
100
AcDbLinetypeTableRecord
  2
CONTINUOUS2
 70
     0
  3
Solid line
 72
    65
 73
     0
 40
0.0
  0
LTYPE
  5
6A6
330
5D0
100
AcDbSymbolTableRecord
100
AcDbLinetypeTableRecord
  2
DOT
 70
     0
  3
Dot . . . . . . . . . . . . . . . . . . . . . . . .
 72
    65
 73
     2
 40
0.25
 49
0.0
 74
     0
 49
-0.25
 74
     0
  0
LTYPE
  5
6A7
330
5D0
100
AcDbSymbolTableRecord
100
AcDbLinetypeTableRecord
  2
DOT2
 70
     0
  3
Dot (.5x) ........................................
 72
    65
 73
     2
 40
0.125
 49
0.0
 74
     0
 49
-0.125
 74
     0
  0
LTYPE
  5
6A8
330
5D0
100
AcDbSymbolTableRecord
100
AcDbLinetypeTableRecord
  2
DIVIDE2
 70
     0
  3
Divide (.5x) __..__..__..__..__..__..__..__.._
 72
    65
 73
     6
 40
0.625
 49
0.25
 74
     0
 49
-0.125
 74
     0
 49
0.0
 74
     0
 49
-0.125
 74
     0
 49
0.0
 74
     0
 49
-0.125
 74
     0
  0
LTYPE
  5
6A9
330
5D0
100
AcDbSymbolTableRecord
100
AcDbLinetypeTableRecord
  2
DIVIDEX2
 70
     0
  3
Divide (2x) ________  .  .  ________  .  .  _
 72
    65
 73
     6
 40
2.5
 49
1.0
 74
     0
 49
-0.5
 74
     0
 49
0.0
 74
     0
 49
-0.5
 74
     0
 49
0.0
 74
     0
 49
-0.5
 74
     0
  0
LTYPE
  5
6AA
330
5D0
100
AcDbSymbolTableRecord
100
AcDbLinetypeTableRecord
  2
DASHEDX2
 70
     0
  3
Dashed (2x) ____  ____  ____  ____  ____  ___
 72
    65
 73
     2
 40
1.5
 49
1.0
 74
     0
 49
-0.5
 74
     0
  0
LTYPE
  5
6AB
330
5D0
100
AcDbSymbolTableRecord
100
AcDbLinetypeTableRecord
  2
DIVIDE
 70
     0
  3
Divide ____ . . ____ . . ____ . . ____ . . ____
 72
    65
 73
     6
 40
1.25
 49
0.5
 74
     0
 49
-0.25
 74
     0
 49
0.0
 74
     0
 49
-0.25
 74
     0
 49
0.0
 74
     0
 49
-0.25
 74
     0
  0
LTYPE
  5
6AC
330
5D0
100
AcDbSymbolTableRecord
100
AcDbLinetypeTableRecord
  2
DASHED
 70
     0
  3
Dashed __ __ __ __ __ __ __ __ __ __ __ __ __ _
 72
    65
 73
     2
 40
0.75
 49
0.5
 74
     0
 49
-0.25
 74
     0
  0
LTYPE
  5
6AD
330
5D0
100
AcDbSymbolTableRecord
100
AcDbLinetypeTableRecord
  2
DASHED2
 70
     0
  3
Dashed (.5x) _ _ _ _ _ _ _ _ _ _ _ _ _ _ _ _ _ 
 72
    65
 73
     2
 40
0.375
 49
0.25
 74
     0
 49
-0.125
 74
     0
  0
LTYPE
  5
6AE
330
5D0
100
AcDbSymbolTableRecord
100
AcDbLinetypeTableRecord
  2
HIDDEN
 70
     0
  3
Hidden __ __ __ __ __ __ __ __ __ __ __ __ __ __
 72
    65
 73
     2
 40
0.375
 49
0.25
 74
     0
 49
-0.125
 74
     0
  0
ENDTAB
  0
TABLE
  2
LAYER
  5
5CE
330
0
100
AcDbSymbolTable
 70
    13
  0
LAYER
  5
5DB
330
5CE
100
AcDbSymbolTableRecord
100
AcDbLayerTableRecord
  2
0
 70
     0
 62
     7
  6
Continuous
370
    -3
390
5DA
347
610
348
0
  0
LAYER
  5
6AF
330
5CE
100
AcDbSymbolTableRecord
100
AcDbLayerTableRecord
  2
CAM
 70
     4
 62
     7
  6
Continuous
370
    20
390
5DA
347
610
348
0
1001
QCAD
1000
ScreenBasedLinetypes:1
1000
snappable:0
  0
LAYER
  5
6B0
330
5CE
100
AcDbSymbolTableRecord
100
AcDbLayerTableRecord
  2
CAM ... GCodeOffsetIN
 70
     0
 62
     7
  6
Continuous
370
    20
390
5DA
347
610
348
0
1001
QCAD
1000
CamLastUpdate:20240227161554516
1000
ScreenBasedLinetypes:1
  0
LAYER
  5
6B1
330
5CE
100
AcDbSymbolTableRecord
100
AcDbLayerTableRecord
  2
CAM ... GCodeOffsetIN ... normal
 70
     0
 62
     8
  6
Continuous
370
    20
390
5DA
347
610
348
0
1001
QCAD
1000
ScreenBasedLinetypes:1
  0
LAYER
  5
6B2
330
5CE
100
AcDbSymbolTableRecord
100
AcDbLayerTableRecord
  2
CAM ... GCodeOffsetIN ... offset
 70
     0
 62
     7
  6
DASHED2
370
    20
390
5DA
347
610
348
0
1001
QCAD
1000
ScreenBasedLinetypes:1
  0
LAYER
  5
6B3
330
5CE
100
AcDbSymbolTableRecord
100
AcDbLayerTableRecord
  2
CAM ... GCodeOffsetIN ... rapid
 70
     0
 62
   150
420
    35071
  6
DASHDOT2
370
    20
390
5DA
347
610
348
0
1001
QCAD
1000
ScreenBasedLinetypes:1
  0
LAYER
  5
6B4
330
5CE
100
AcDbSymbolTableRecord
100
AcDbLayerTableRecord
  2
CAM ... GCodeOffsetIN ... source
 70
     1
 62
    -7
  6
Continuous
370
    20
390
5DA
347
610
348
0
1001
QCAD
1000
ScreenBasedLinetypes:1
  0
LAYER
  5
6B5
330
5CE
100
AcDbSymbolTableRecord
100
AcDbLayerTableRecord
  2
CAM ... GCodeOffsetMM
 70
     1
 62
    -7
  6
Continuous
370
    20
390
5DA
347
610
348
0
1001
QCAD
1000
CamLastUpdate:20240227152908635
1000
ScreenBasedLinetypes:1
  0
LAYER
  5
6B6
330
5CE
100
AcDbSymbolTableRecord
100
AcDbLayerTableRecord
  2
CAM ... GCodeOffsetMM ... normal
 70
     0
 62
     8
  6
Continuous
370
    20
390
5DA
347
610
348
0
1001
QCAD
1000
ScreenBasedLinetypes:1
  0
LAYER
  5
6B7
330
5CE
100
AcDbSymbolTableRecord
100
AcDbLayerTableRecord
  2
CAM ... GCodeOffsetMM ... offset
 70
     0
 62
     7
  6
DASHED2
370
    20
390
5DA
347
610
348
0
1001
QCAD
1000
ScreenBasedLinetypes:1
  0
LAYER
  5
6B8
330
5CE
100
AcDbSymbolTableRecord
100
AcDbLayerTableRecord
  2
CAM ... GCodeOffsetMM ... rapid
 70
     0
 62
   150
420
    35071
  6
DASHDOT2
370
    20
390
5DA
347
610
348
0
1001
QCAD
1000
ScreenBasedLinetypes:1
  0
LAYER
  5
6B9
330
5CE
100
AcDbSymbolTableRecord
100
AcDbLayerTableRecord
  2
CAM ... GCodeOffsetMM ... source
 70
     1
 62
    -7
  6
Continuous
370
    20
390
5DA
347
610
348
0
1001
QCAD
1000
ScreenBasedLinetypes:1
  0
LAYER
  5
6BA
330
5CE
100
AcDbSymbolTableRecord
100
AcDbLayerTableRecord
  2
Cutout
 70
     0
 62
     7
  6
Continuous
370
    -3
390
5DA
347
610
348
0
  0
ENDTAB
  0
TABLE
  2
STYLE
  5
5CF
330
0
100
AcDbSymbolTable
 70
     4
  0
STYLE
  5
5DC
330
5CF
100
AcDbSymbolTableRecord
100
AcDbTextStyleTableRecord
  2
Standard
 70
     0
 40
0.0
 41
1.0
 50
0.0
 71
     0
 42
0.2
  3
txt
  4

  0
STYLE
  5
67D
330
5CF
100
AcDbSymbolTableRecord
100
AcDbTextStyleTableRecord
  2
textstyle0
 70
     0
 40
0.0
 41
1.0
 50
0.0
 71
     0
 42
0.2
  3
ltypeshp.shx
  4

  0
STYLE
  5
67F
330
5CF
100
AcDbSymbolTableRecord
100
AcDbTextStyleTableRecord
  2
textstyle1
 70
     0
 40
0.0
 41
1.0
 50
0.0
 71
     0
 42
0.2
  3
STANDARD
  4

  0
STYLE
  5
681
330
5CF
100
AcDbSymbolTableRecord
100
AcDbTextStyleTableRecord
  2
textstyle2
 70
     0
 40
0.0
 41
1.0
 50
0.0
 71
     0
 42
0.2
  3
qcadshp.shx
  4

  0
ENDTAB
  0
TABLE
  2
VIEW
  5
5D1
330
0
100
AcDbSymbolTable
 70
     0
  0
ENDTAB
  0
TABLE
  2
UCS
  5
5D2
330
0
100
AcDbSymbolTable
 70
     0
  0
ENDTAB
  0
TABLE
  2
APPID
  5
5D4
330
0
100
AcDbSymbolTable
 70
     2
  0
APPID
  5
5DD
330
5D4
100
AcDbSymbolTableRecord
100
AcDbRegAppTableRecord
  2
ACAD
 70
     0
  0
APPID
  5
628
330
5D4
100
AcDbSymbolTableRecord
100
AcDbRegAppTableRecord
  2
QCAD
 70
     0
  0
ENDTAB
  0
TABLE
  2
DIMSTYLE
  5
5D5
330
0
100
AcDbSymbolTable
 70
     2
100
AcDbDimStyleTable
  0
DIMSTYLE
105
5F1
330
5D5
100
AcDbSymbolTableRecord
100
AcDbDimStyleTableRecord
  2
Standard
 70
     0
178
     0
340
5DC
  0
DIMSTYLE
105
67B
330
5D5
100
AcDbSymbolTableRecord
100
AcDbDimStyleTableRecord
  2
QCADDimStyle
 70
     0
178
     0
279
     2
340
5DC
  0
ENDTAB
  0
TABLE
  2
BLOCK_RECORD
  5
5CD
330
0
100
AcDbSymbolTable
 70
     3
  0
BLOCK_RECORD
  5
5E9
330
5CD
100
AcDbSymbolTableRecord
100
AcDbBlockTableRecord
  2
*Model_Space
340
5EC
 70
     0
280
     1
281
     0
  0
BLOCK_RECORD
  5
5E5
330
5CD
100
AcDbSymbolTableRecord
100
AcDbBlockTableRecord
  2
*Paper_Space
340
5E8
 70
     0
280
     1
281
     0
  0
BLOCK_RECORD
  5
6BD
330
5CD
100
AcDbSymbolTableRecord
100
AcDbBlockTableRecord
  2
CAMTOOL$$GCodeOffsetIN$$yyy
340
0
 70
     0
280
     1
281
     0
1001
QCAD
1000
CamDescription:Mill (0.125in)
1000
CamDiameter:0.125
1000
CamFeedRate:10
1000
CamPlungeRate:5
1000
CamSpindleSpeed:12000
1000
CamToolFlag:1
1000
CamToolType:1
1000
ResourceFlag:1
  0
BLOCK_RECORD
  5
6C0
330
5CD
100
AcDbSymbolTableRecord
100
AcDbBlockTableRecord
  2
CAMTOOL$$GCodeOffsetMM$$ttt
340
0
 70
     0
280
     1
281
     0
1001
QCAD
1000
CamDescription:Mill (0.25in)
1000
CamDiameter:0.25
1000
CamFeedRate:50
1000
CamPlungeRate:20
1000
CamSpindleSpeed:20000
1000
CamToolFlag:1
1000
CamToolType:1
1000
ResourceFlag:1
  0
BLOCK_RECORD
  5
6C3
330
5CD
100
AcDbSymbolTableRecord
100
AcDbBlockTableRecord
  2
CAMTOOLPATH$$GCodeOffsetIN$$Profile 1
340
0
102
{BLKREFS
331
535
102
}
 70
     0
280
     1
281
     0
1001
QCAD
1000
CamAllowanceOffset:0
1000
CamContourCount:1
1000
CamDirection:1
1000
CamFeedRate:10
1000
CamLeadInSize:0.25
1000
CamLeadInType:4
1000
CamLeadOutSize:0.25
1000
CamLeadOutType:4
1000
CamLockLeadSize:1
1000
CamLockLeadType:1
1000
CamOvercut:1
1000
CamPlungeRate:5
1000
CamProfileToolpathFlag:1
1000
CamSide:1
1000
CamSpindleSpeed:12000
1000
CamTool:yyy
1000
CamToolpathIndex:0
1000
CamToolpathOrder:0
1000
CamUseStartOfPolyline:0
1000
CamZClearance:0.75
1000
CamZCuttingDepth:0.77
1000
CamZPasses:4
1000
CamZStartDepth:0
1000
ResourceFlag:1
  0
ENDTAB
  0
ENDSEC
  0
SECTION
  2
BLOCKS
  0
BLOCK
  5
5EA
330
5E9
100
AcDbEntity
  8
0
100
AcDbBlockBegin
  2
*Model_Space
 70
     0
 10
0.0
 20
0.0
 30
0.0
  3
*Model_Space
  1

  0
ENDBLK
  5
5EB
330
5E9
100
AcDbEntity
  8
0
100
AcDbBlockEnd
  0
BLOCK
  5
5E6
330
5E5
100
AcDbEntity
 67
     1
  8
0
100
AcDbBlockBegin
  2
*Paper_Space
 70
     0
 10
0.0
 20
0.0
 30
0.0
  3
*Paper_Space
  1

  0
ENDBLK
  5
5E7
330
5E5
100
AcDbEntity
 67
     1
  8
0
100
AcDbBlockEnd
  0
BLOCK
  5
6BE
330
6BD
100
AcDbEntity
  8
0
100
AcDbBlockBegin
  2
CAMTOOL$$GCodeOffsetIN$$yyy
 70
     0
 10
0.0
 20
0.0
 30
0.0
  3
CAMTOOL$$GCodeOffsetIN$$yyy
  1

  0
ENDBLK
  5
6BF
330
6BD
100
AcDbEntity
  8
0
100
AcDbBlockEnd
  0
BLOCK
  5
6C1
330
6C0
100
AcDbEntity
  8
0
100
AcDbBlockBegin
  2
CAMTOOL$$GCodeOffsetMM$$ttt
 70
     0
 10
0.0
 20
0.0
 30
0.0
  3
CAMTOOL$$GCodeOffsetMM$$ttt
  1

  0
ENDBLK
  5
6C2
330
6C0
100
AcDbEntity
  8
0
100
AcDbBlockEnd
  0
BLOCK
  5
6C4
330
6C3
100
AcDbEntity
  8
0
100
AcDbBlockBegin
  2
CAMTOOLPATH$$GCodeOffsetIN$$Profile 1
 70
     0
 10
0.0
 20
0.0
 30
0.0
  3
CAMTOOLPATH$$GCodeOffsetIN$$Profile 1
  1

  0
LWPOLYLINE
  5
536
330
6C3
100
AcDbEntity
  8
CAM ... GCodeOffsetIN ... source
  6
Continuous
100
AcDbPolyline
 90
       11
 70
   129
 43
0.0
 10
0.0
 20
5.125
 10
0.0
 20
1.25
 10
0.2499999999999999
 20
0.8100000000000002
 42
0.4142135623730948
 10
1.059999999999999
 20
-0.0000000000000004
 10
11.31500000000002
 20
-0.0000000000000001
 42
0.414213562373095
 10
12.12500000000002
 20
0.8099999999999987
 10
12.12500000000002
 20
9.44
 42
0.4142135623730938
 10
11.31500000000002
 20
10.25
 10
1.06
 20
10.25
 42
0.414213562373095
 10
0.2499999999999996
 20
9.439999999999998
 10
0.0
 20
9.0
1001
QCAD
1000
CamIgnore:1
1000
CamSourceHandle:49d
  0
ARC
  5
537
330
6C3
100
AcDbEntity
  8
CAM ... GCodeOffsetIN ... normal
100
AcDbCircle
 10
0.25
 20
6.125
 30
-0.1925
 40
0.25
100
AcDbArc
 50
0.0
 51
180.0
1001
QCAD
1000
CamClosedContour:1
1000
CamCompensationOn:1
1000
CamContourIndex:0
1000
CamCuttingContour:1
1000
CamDirection:1
1000
CamFeedRate:10
1000
CamIgnore:1
1000
CamLastContour:1
1000
CamLeadIn:1
1000
CamNotOffset:1
1000
CamTool:yyy
1000
CamZClearancePass:0.75
1000
CamZPass:1
1000
CamZPassIndex:0
1000
CamZPasses:4
  0
LINE
  5
538
330
6C3
100
AcDbEntity
  8
CAM ... GCodeOffsetIN ... normal
100
AcDbLine
 10
0.0
 20
6.125
 30
-0.1925
 11
0.0
 21
5.125
 31
-0.1925
1001
QCAD
1000
CamClosedContour:1
1000
CamContourIndex:0
1000
CamCuttingContour:1
1000
CamDirection:1
1000
CamFeedRate:10
1000
CamIgnore:1
1000
CamLastContour:1
1000
CamNotOffset:1
1000
CamOvercutIn:1
1000
CamTool:yyy
1000
CamZClearancePass:0.75
1000
CamZPass:1
1000
CamZPassIndex:0
1000
CamZPasses:4
  0
LINE
  5
539
330
6C3
100
AcDbEntity
  8
CAM ... GCodeOffsetIN ... normal
100
AcDbLine
 10
0.0
 20
5.125
 30
-0.1925
 11
0.0
 21
1.25
 31
-0.1925
1001
QCAD
1000
CamClosedContour:1
1000
CamContourIndex:0
1000
CamCuttingContour:1
1000
CamDirection:1
1000
CamFeedRate:10
1000
CamFirst:1
1000
CamFirstSegment:1
1000
CamIgnore:1
1000
CamLastContour:1
1000
CamNotOffset:1
1000
CamTool:yyy
1000
CamZClearancePass:0.75
1000
CamZPass:1
1000
CamZPassIndex:0
1000
CamZPasses:4
  0
LINE
  5
53A
330
6C3
100
AcDbEntity
  8
CAM ... GCodeOffsetIN ... normal
100
AcDbLine
 10
0.0
 20
1.25
 30
-0.1925
 11
0.2499999999999999
 21
0.8100000000000002
 31
-0.1925
1001
QCAD
1000
CamClosedContour:1
1000
CamContourIndex:0
1000
CamCuttingContour:1
1000
CamDirection:1
1000
CamFeedRate:10
1000
CamIgnore:1
1000
CamLastContour:1
1000
CamNotOffset:1
1000
CamTool:yyy
1000
CamZClearancePass:0.75
1000
CamZPass:1
1000
CamZPassIndex:0
1000
CamZPasses:4
  0
ARC
  5
53B
330
6C3
100
AcDbEntity
  8
CAM ... GCodeOffsetIN ... normal
100
AcDbCircle
 10
1.06
 20
0.8099999999999997
 30
-0.1925
 40
0.8100000000000004
100
AcDbArc
 50
180.0
 51
269.9999999999999
1001
QCAD
1000
CamClosedContour:1
1000
CamContourIndex:0
1000
CamCuttingContour:1
1000
CamDirection:1
1000
CamFeedRate:10
1000
CamIgnore:1
1000
CamLastContour:1
1000
CamNotOffset:1
1000
CamTool:yyy
1000
CamZClearancePass:0.75
1000
CamZPass:1
1000
CamZPassIndex:0
1000
CamZPasses:4
  0
LINE
  5
53C
330
6C3
100
AcDbEntity
  8
CAM ... GCodeOffsetIN ... normal
100
AcDbLine
 10
1.059999999999999
 20
-0.0000000000000004
 30
-0.1925
 11
11.31500000000002
 21
-0.0000000000000001
 31
-0.1925
1001
QCAD
1000
CamClosedContour:1
1000
CamContourIndex:0
1000
CamCuttingContour:1
1000
CamDirection:1
1000
CamFeedRate:10
1000
CamIgnore:1
1000
CamLastContour:1
1000
CamNotOffset:1
1000
CamTool:yyy
1000
CamZClearancePass:0.75
1000
CamZPass:1
1000
CamZPassIndex:0
1000
CamZPasses:4
  0
ARC
  5
53D
330
6C3
100
AcDbEntity
  8
CAM ... GCodeOffsetIN ... normal
100
AcDbCircle
 10
11.31500000000002
 20
0.8099999999999987
 30
-0.1925
 40
0.8099999999999987
100
AcDbArc
 50
270.0
 51
0.0
1001
QCAD
1000
CamClosedContour:1
1000
CamContourIndex:0
1000
CamCuttingContour:1
1000
CamDirection:1
1000
CamFeedRate:10
1000
CamIgnore:1
1000
CamLastContour:1
1000
CamNotOffset:1
1000
CamTool:yyy
1000
CamZClearancePass:0.75
1000
CamZPass:1
1000
CamZPassIndex:0
1000
CamZPasses:4
  0
LINE
  5
53E
330
6C3
100
AcDbEntity
  8
CAM ... GCodeOffsetIN ... normal
100
AcDbLine
 10
12.12500000000002
 20
0.8099999999999987
 30
-0.1925
 11
12.12500000000002
 21
9.44
 31
-0.1925
1001
QCAD
1000
CamClosedContour:1
1000
CamContourIndex:0
1000
CamCuttingContour:1
1000
CamDirection:1
1000
CamFeedRate:10
1000
CamIgnore:1
1000
CamLastContour:1
1000
CamNotOffset:1
1000
CamTool:yyy
1000
CamZClearancePass:0.75
1000
CamZPass:1
1000
CamZPassIndex:0
1000
CamZPasses:4
  0
ARC
  5
53F
330
6C3
100
AcDbEntity
  8
CAM ... GCodeOffsetIN ... normal
100
AcDbCircle
 10
11.31500000000002
 20
9.439999999999998
 30
-0.1925
 40
0.8100000000000023
100
AcDbArc
 50
0.0
 51
89.99999999999976
1001
QCAD
1000
CamClosedContour:1
1000
CamContourIndex:0
1000
CamCuttingContour:1
1000
CamDirection:1
1000
CamFeedRate:10
1000
CamIgnore:1
1000
CamLastContour:1
1000
CamNotOffset:1
1000
CamTool:yyy
1000
CamZClearancePass:0.75
1000
CamZPass:1
1000
CamZPassIndex:0
1000
CamZPasses:4
  0
LINE
  5
540
330
6C3
100
AcDbEntity
  8
CAM ... GCodeOffsetIN ... normal
100
AcDbLine
 10
11.31500000000002
 20
10.25
 30
-0.1925
 11
1.06
 21
10.25
 31
-0.1925
1001
QCAD
1000
CamClosedContour:1
1000
CamContourIndex:0
1000
CamCuttingContour:1
1000
CamDirection:1
1000
CamFeedRate:10
1000
CamIgnore:1
1000
CamLastContour:1
1000
CamNotOffset:1
1000
CamTool:yyy
1000
CamZClearancePass:0.75
1000
CamZPass:1
1000
CamZPassIndex:0
1000
CamZPasses:4
  0
ARC
  5
541
330
6C3
100
AcDbEntity
  8
CAM ... GCodeOffsetIN ... normal
100
AcDbCircle
 10
1.060000000000001
 20
9.439999999999998
 30
-0.1925
 40
0.8100000000000014
100
AcDbArc
 50
90.00000000000006
 51
180.0
1001
QCAD
1000
CamClosedContour:1
1000
CamContourIndex:0
1000
CamCuttingContour:1
1000
CamDirection:1
1000
CamFeedRate:10
1000
CamIgnore:1
1000
CamLastContour:1
1000
CamNotOffset:1
1000
CamTool:yyy
1000
CamZClearancePass:0.75
1000
CamZPass:1
1000
CamZPassIndex:0
1000
CamZPasses:4
  0
LINE
  5
542
330
6C3
100
AcDbEntity
  8
CAM ... GCodeOffsetIN ... normal
100
AcDbLine
 10
0.2499999999999996
 20
9.439999999999998
 30
-0.1925
 11
0.0
 21
9.0
 31
-0.1925
1001
QCAD
1000
CamClosedContour:1
1000
CamContourIndex:0
1000
CamCuttingContour:1
1000
CamDirection:1
1000
CamFeedRate:10
1000
CamIgnore:1
1000
CamLastContour:1
1000
CamNotOffset:1
1000
CamTool:yyy
1000
CamZClearancePass:0.75
1000
CamZPass:1
1000
CamZPassIndex:0
1000
CamZPasses:4
  0
LINE
  5
543
330
6C3
100
AcDbEntity
  8
CAM ... GCodeOffsetIN ... normal
100
AcDbLine
 10
0.0
 20
9.0
 30
-0.1925
 11
0.0
 21
5.125
 31
-0.1925
1001
QCAD
1000
CamClosedContour:1
1000
CamContourIndex:0
1000
CamCuttingContour:1
1000
CamDirection:1
1000
CamFeedRate:10
1000
CamIgnore:1
1000
CamLast:1
1000
CamLastContour:1
1000
CamLastSegment:1
1000
CamNotOffset:1
1000
CamTool:yyy
1000
CamZClearancePass:0.75
1000
CamZPass:1
1000
CamZPassIndex:0
1000
CamZPasses:4
  0
LINE
  5
544
330
6C3
100
AcDbEntity
  8
CAM ... GCodeOffsetIN ... normal
100
AcDbLine
 10
0.0
 20
5.125
 30
-0.1925
 11
0.0
 21
4.125
 31
-0.1925
1001
QCAD
1000
CamClosedContour:1
1000
CamContourIndex:0
1000
CamCuttingContour:1
1000
CamDirection:1
1000
CamFeedRate:10
1000
CamIgnore:1
1000
CamLastContour:1
1000
CamNotOffset:1
1000
CamOvercutOut:1
1000
CamTool:yyy
1000
CamZClearancePass:0.75
1000
CamZPass:1
1000
CamZPassIndex:0
1000
CamZPasses:4
  0
ARC
  5
545
330
6C3
100
AcDbEntity
  8
CAM ... GCodeOffsetIN ... normal
100
AcDbCircle
 10
0.25
 20
4.125
 30
-0.1925
 40
0.25
100
AcDbArc
 50
180.0
 51
0.0
1001
QCAD
1000
CamClosedContour:1
1000
CamCompensationOff:1
1000
CamContourIndex:0
1000
CamCuttingContour:1
1000
CamDirection:1
1000
CamFeedRate:10
1000
CamIgnore:1
1000
CamLastContour:1
1000
CamLeadOut:1
1000
CamNotOffset:1
1000
CamTool:yyy
1000
CamZClearancePass:0.75
1000
CamZPass:1
1000
CamZPassIndex:0
1000
CamZPasses:4
  0
LINE
  5
546
330
6C3
100
AcDbEntity
  8
CAM ... GCodeOffsetIN ... rapid
100
AcDbLine
 10
0.0
 20
0.0
 30
2.0
 11
0.5
 21
6.125
 31
2.0
1001
QCAD
1000
CamContourIndex:0
1000
CamLastContour:1
1000
CamOffset:1
1000
CamRapidMove:1
1000
CamTool:yyy
1000
CamUnknownPosition:1
1000
CamZClearancePass:0.75
1000
CamZPass:1
1000
CamZPassIndex:0
1000
CamZPasses:4
  0
LINE
  5
547
330
6C3
100
AcDbEntity
  8
CAM ... GCodeOffsetIN ... rapid
100
AcDbLine
 10
0.5
 20
6.125
 30
2.0
 11
0.5
 21
6.125
 31
0.75
1001
QCAD
1000
CamContourIndex:0
1000
CamLastContour:1
1000
CamOffset:1
1000
CamRapidMove:1
1000
CamTool:yyy
1000
CamToolDownClearance:1
1000
CamZClearancePass:0.75
1000
CamZMove:1
1000
CamZPass:1
1000
CamZPassIndex:0
1000
CamZPasses:4
  0
LINE
  5
548
330
6C3
100
AcDbEntity
  8
CAM ... GCodeOffsetIN ... rapid
100
AcDbLine
 10
0.5
 20
6.125
 30
0.75
 11
0.5
 21
6.125
 31
0.75
1001
QCAD
1000
CamContourIndex:0
1000
CamLastContour:1
1000
CamOffset:1
1000
CamRapidMove:1
1000
CamTool:yyy
1000
CamToolDownClearancePass:1
1000
CamZClearancePass:0.75
1000
CamZMove:1
1000
CamZPass:1
1000
CamZPassIndex:0
1000
CamZPasses:4
  0
LINE
  5
549
330
6C3
100
AcDbEntity
  8
CAM ... GCodeOffsetIN ... offset
100
AcDbLine
 10
0.5
 20
6.125
 30
0.75
 11
0.5
 21
6.125
 31
-0.1925
1001
QCAD
1000
CamContourIndex:0
1000
CamDirection:1
1000
CamFeedRate:5
1000
CamLastContour:1
1000
CamOffset:1
1000
CamTool:yyy
1000
CamToolDown:1
1000
CamZClearancePass:0.75
1000
CamZMove:1
1000
CamZPass:1
1000
CamZPassIndex:0
1000
CamZPasses:4
  0
ARC
  5
54A
330
6C3
100
AcDbEntity
  8
CAM ... GCodeOffsetIN ... offset
100
AcDbCircle
 10
0.28125
 20
6.125
 30
-0.1925
 40
0.21875
100
AcDbArc
 50
0.0
 51
180.0
1001
QCAD
1000
CamContourIndex:0
1000
CamCuttingContour:1
1000
CamDirection:1
1000
CamFeedRate:10
1000
CamLastContour:1
1000
CamLeadIn:1
1000
CamOffset:1
1000
CamTool:yyy
1000
CamZClearancePass:0.75
1000
CamZPass:1
1000
CamZPassIndex:0
1000
CamZPasses:4
  0
LINE
  5
54B
330
6C3
100
AcDbEntity
  8
CAM ... GCodeOffsetIN ... offset
100
AcDbLine
 10
0.0625
 20
6.125
 30
-0.1925
 11
0.0625
 21
5.125
 31
-0.1925
1001
QCAD
1000
CamContourIndex:0
1000
CamCuttingContour:1
1000
CamDirection:1
1000
CamFeedRate:10
1000
CamLastContour:1
1000
CamOffset:1
1000
CamOvercutIn:1
1000
CamTool:yyy
1000
CamZClearancePass:0.75
1000
CamZPass:1
1000
CamZPassIndex:0
1000
CamZPasses:4
  0
LINE
  5
54C
330
6C3
100
AcDbEntity
  8
CAM ... GCodeOffsetIN ... offset
100
AcDbLine
 10
0.0625
 20
5.125
 30
-0.1925
 11
0.0625
 21
1.2665158092888
 31
-0.1925
1001
QCAD
1000
CamContourIndex:0
1000
CamCuttingContour:1
1000
CamDirection:1
1000
CamFeedRate:10
1000
CamLastContour:1
1000
CamOffset:1
1000
CamTool:yyy
1000
CamZClearancePass:0.75
1000
CamZPass:1
1000
CamZPassIndex:0
1000
CamZPasses:4
  0
LINE
  5
54D
330
6C3
100
AcDbEntity
  8
CAM ... GCodeOffsetIN ... offset
100
AcDbLine
 10
0.0625
 20
1.2665158092888
 30
-0.1925
 11
0.3043410348370479
 21
0.8408755879755956
 31
-0.1925
1001
QCAD
1000
CamContourIndex:0
1000
CamCuttingContour:1
1000
CamDirection:1
1000
CamFeedRate:10
1000
CamLastContour:1
1000
CamOffset:1
1000
CamTool:yyy
1000
CamZClearancePass:0.75
1000
CamZPass:1
1000
CamZPassIndex:0
1000
CamZPasses:4
  0
ARC
  5
54E
330
6C3
100
AcDbEntity
  8
CAM ... GCodeOffsetIN ... offset
100
AcDbCircle
 10
0.2499999999999999
 20
0.8100000000000003
 30
-0.1925
 40
0.0625
100
AcDbArc
 50
0.0
 51
29.60445074600478
1001
QCAD
1000
CamContourIndex:0
1000
CamCuttingContour:1
1000
CamDirection:1
1000
CamFeedRate:10
1000
CamLastContour:1
1000
CamOffset:1
1000
CamTool:yyy
1000
CamZClearancePass:0.75
1000
CamZPass:1
1000
CamZPassIndex:0
1000
CamZPasses:4
1000
reversed:1
  0
ARC
  5
54F
330
6C3
100
AcDbEntity
  8
CAM ... GCodeOffsetIN ... offset
100
AcDbCircle
 10
1.060000000000001
 20
0.8099999999999999
 30
-0.1925
 40
0.7475000000000006
100
AcDbArc
 50
180.0
 51
269.9999999999999
1001
QCAD
1000
CamContourIndex:0
1000
CamCuttingContour:1
1000
CamDirection:1
1000
CamFeedRate:10
1000
CamLastContour:1
1000
CamOffset:1
1000
CamTool:yyy
1000
CamZClearancePass:0.75
1000
CamZPass:1
1000
CamZPassIndex:0
1000
CamZPasses:4
  0
LINE
  5
550
330
6C3
100
AcDbEntity
  8
CAM ... GCodeOffsetIN ... offset
100
AcDbLine
 10
1.059999999999999
 20
0.0624999999999993
 30
-0.1925
 11
11.31500000000002
 21
0.0624999999999999
 31
-0.1925
1001
QCAD
1000
CamContourIndex:0
1000
CamCuttingContour:1
1000
CamDirection:1
1000
CamFeedRate:10
1000
CamLastContour:1
1000
CamOffset:1
1000
CamTool:yyy
1000
CamZClearancePass:0.75
1000
CamZPass:1
1000
CamZPassIndex:0
1000
CamZPasses:4
  0
ARC
  5
551
330
6C3
100
AcDbEntity
  8
CAM ... GCodeOffsetIN ... offset
100
AcDbCircle
 10
11.31500000000002
 20
0.8099999999999987
 30
-0.1925
 40
0.7474999999999988
100
AcDbArc
 50
270.0
 51
0.0
1001
QCAD
1000
CamContourIndex:0
1000
CamCuttingContour:1
1000
CamDirection:1
1000
CamFeedRate:10
1000
CamLastContour:1
1000
CamOffset:1
1000
CamTool:yyy
1000
CamZClearancePass:0.75
1000
CamZPass:1
1000
CamZPassIndex:0
1000
CamZPasses:4
  0
LINE
  5
552
330
6C3
100
AcDbEntity
  8
CAM ... GCodeOffsetIN ... offset
100
AcDbLine
 10
12.06250000000002
 20
0.809999999999999
 30
-0.1925
 11
12.06250000000002
 21
9.44
 31
-0.1925
1001
QCAD
1000
CamContourIndex:0
1000
CamCuttingContour:1
1000
CamDirection:1
1000
CamFeedRate:10
1000
CamLastContour:1
1000
CamOffset:1
1000
CamTool:yyy
1000
CamZClearancePass:0.75
1000
CamZPass:1
1000
CamZPassIndex:0
1000
CamZPasses:4
  0
ARC
  5
553
330
6C3
100
AcDbEntity
  8
CAM ... GCodeOffsetIN ... offset
100
AcDbCircle
 10
11.31500000000002
 20
9.44
 30
-0.1925
 40
0.7475000000000004
100
AcDbArc
 50
0.0
 51
89.99999999999987
1001
QCAD
1000
CamContourIndex:0
1000
CamCuttingContour:1
1000
CamDirection:1
1000
CamFeedRate:10
1000
CamLastContour:1
1000
CamOffset:1
1000
CamTool:yyy
1000
CamZClearancePass:0.75
1000
CamZPass:1
1000
CamZPassIndex:0
1000
CamZPasses:4
  0
LINE
  5
554
330
6C3
100
AcDbEntity
  8
CAM ... GCodeOffsetIN ... offset
100
AcDbLine
 10
11.31500000000002
 20
10.1875
 30
-0.1925
 11
1.06
 21
10.1875
 31
-0.1925
1001
QCAD
1000
CamContourIndex:0
1000
CamCuttingContour:1
1000
CamDirection:1
1000
CamFeedRate:10
1000
CamLastContour:1
1000
CamOffset:1
1000
CamTool:yyy
1000
CamZClearancePass:0.75
1000
CamZPass:1
1000
CamZPassIndex:0
1000
CamZPasses:4
  0
ARC
  5
555
330
6C3
100
AcDbEntity
  8
CAM ... GCodeOffsetIN ... offset
100
AcDbCircle
 10
1.06
 20
9.439999999999998
 30
-0.1925
 40
0.7475000000000012
100
AcDbArc
 50
90.00000000000004
 51
180.0
1001
QCAD
1000
CamContourIndex:0
1000
CamCuttingContour:1
1000
CamDirection:1
1000
CamFeedRate:10
1000
CamLastContour:1
1000
CamOffset:1
1000
CamTool:yyy
1000
CamZClearancePass:0.75
1000
CamZPass:1
1000
CamZPassIndex:0
1000
CamZPasses:4
  0
ARC
  5
556
330
6C3
100
AcDbEntity
  8
CAM ... GCodeOffsetIN ... offset
100
AcDbCircle
 10
0.2499999999999997
 20
9.44
 30
-0.1925
 40
0.0624999999999996
100
AcDbArc
 50
330.395549253995
 51
0.0
1001
QCAD
1000
CamContourIndex:0
1000
CamCuttingContour:1
1000
CamDirection:1
1000
CamFeedRate:10
1000
CamLastContour:1
1000
CamOffset:1
1000
CamTool:yyy
1000
CamZClearancePass:0.75
1000
CamZPass:1
1000
CamZPassIndex:0
1000
CamZPasses:4
1000
reversed:1
  0
LINE
  5
557
330
6C3
100
AcDbEntity
  8
CAM ... GCodeOffsetIN ... offset
100
AcDbLine
 10
0.3043410348370473
 20
9.409124412024404
 30
-0.1925
 11
0.0625000000000001
 21
8.9834841907112
 31
-0.1925
1001
QCAD
1000
CamContourIndex:0
1000
CamCuttingContour:1
1000
CamDirection:1
1000
CamFeedRate:10
1000
CamLastContour:1
1000
CamOffset:1
1000
CamTool:yyy
1000
CamZClearancePass:0.75
1000
CamZPass:1
1000
CamZPassIndex:0
1000
CamZPasses:4
  0
LINE
  5
558
330
6C3
100
AcDbEntity
  8
CAM ... GCodeOffsetIN ... offset
100
AcDbLine
 10
0.0625000000000001
 20
8.9834841907112
 30
-0.1925
 11
0.0625
 21
5.125
 31
-0.1925
1001
QCAD
1000
CamContourIndex:0
1000
CamCuttingContour:1
1000
CamDirection:1
1000
CamFeedRate:10
1000
CamLastContour:1
1000
CamOffset:1
1000
CamTool:yyy
1000
CamZClearancePass:0.75
1000
CamZPass:1
1000
CamZPassIndex:0
1000
CamZPasses:4
  0
LINE
  5
559
330
6C3
100
AcDbEntity
  8
CAM ... GCodeOffsetIN ... offset
100
AcDbLine
 10
0.0625
 20
5.125
 30
-0.1925
 11
0.0625
 21
4.125
 31
-0.1925
1001
QCAD
1000
CamContourIndex:0
1000
CamCuttingContour:1
1000
CamDirection:1
1000
CamFeedRate:10
1000
CamLastContour:1
1000
CamOffset:1
1000
CamOvercutOut:1
1000
CamTool:yyy
1000
CamZClearancePass:0.75
1000
CamZPass:1
1000
CamZPassIndex:0
1000
CamZPasses:4
  0
ARC
  5
55A
330
6C3
100
AcDbEntity
  8
CAM ... GCodeOffsetIN ... offset
100
AcDbCircle
 10
0.28125
 20
4.125
 30
-0.1925
 40
0.21875
100
AcDbArc
 50
180.0
 51
0.0
1001
QCAD
1000
CamContourIndex:0
1000
CamCuttingContour:1
1000
CamDirection:1
1000
CamFeedRate:10
1000
CamLastContour:1
1000
CamLeadOut:1
1000
CamOffset:1
1000
CamTool:yyy
1000
CamZClearancePass:0.75
1000
CamZPass:1
1000
CamZPassIndex:0
1000
CamZPasses:4
  0
ARC
  5
55B
330
6C3
100
AcDbEntity
  8
CAM ... GCodeOffsetIN ... normal
100
AcDbCircle
 10
0.25
 20
6.125
 30
-0.385
 40
0.25
100
AcDbArc
 50
0.0
 51
180.0
1001
QCAD
1000
CamClosedContour:1
1000
CamCompensationOn:1
1000
CamContourIndex:0
1000
CamCuttingContour:1
1000
CamDirection:1
1000
CamFeedRate:10
1000
CamIgnore:1
1000
CamLastContour:1
1000
CamLeadIn:1
1000
CamNotOffset:1
1000
CamTool:yyy
1000
CamZClearancePass:0.75
1000
CamZPass:2
1000
CamZPassIndex:1
1000
CamZPasses:4
  0
LINE
  5
55C
330
6C3
100
AcDbEntity
  8
CAM ... GCodeOffsetIN ... normal
100
AcDbLine
 10
0.0
 20
6.125
 30
-0.385
 11
0.0
 21
5.125
 31
-0.385
1001
QCAD
1000
CamClosedContour:1
1000
CamContourIndex:0
1000
CamCuttingContour:1
1000
CamDirection:1
1000
CamFeedRate:10
1000
CamIgnore:1
1000
CamLastContour:1
1000
CamNotOffset:1
1000
CamOvercutIn:1
1000
CamTool:yyy
1000
CamZClearancePass:0.75
1000
CamZPass:2
1000
CamZPassIndex:1
1000
CamZPasses:4
  0
LINE
  5
55D
330
6C3
100
AcDbEntity
  8
CAM ... GCodeOffsetIN ... normal
100
AcDbLine
 10
0.0
 20
5.125
 30
-0.385
 11
0.0
 21
1.25
 31
-0.385
1001
QCAD
1000
CamClosedContour:1
1000
CamContourIndex:0
1000
CamCuttingContour:1
1000
CamDirection:1
1000
CamFeedRate:10
1000
CamFirst:1
1000
CamFirstSegment:1
1000
CamIgnore:1
1000
CamLastContour:1
1000
CamNotOffset:1
1000
CamTool:yyy
1000
CamZClearancePass:0.75
1000
CamZPass:2
1000
CamZPassIndex:1
1000
CamZPasses:4
  0
LINE
  5
55E
330
6C3
100
AcDbEntity
  8
CAM ... GCodeOffsetIN ... normal
100
AcDbLine
 10
0.0
 20
1.25
 30
-0.385
 11
0.2499999999999999
 21
0.8100000000000002
 31
-0.385
1001
QCAD
1000
CamClosedContour:1
1000
CamContourIndex:0
1000
CamCuttingContour:1
1000
CamDirection:1
1000
CamFeedRate:10
1000
CamIgnore:1
1000
CamLastContour:1
1000
CamNotOffset:1
1000
CamTool:yyy
1000
CamZClearancePass:0.75
1000
CamZPass:2
1000
CamZPassIndex:1
1000
CamZPasses:4
  0
ARC
  5
55F
330
6C3
100
AcDbEntity
  8
CAM ... GCodeOffsetIN ... normal
100
AcDbCircle
 10
1.06
 20
0.8099999999999997
 30
-0.385
 40
0.8100000000000004
100
AcDbArc
 50
180.0
 51
269.9999999999999
1001
QCAD
1000
CamClosedContour:1
1000
CamContourIndex:0
1000
CamCuttingContour:1
1000
CamDirection:1
1000
CamFeedRate:10
1000
CamIgnore:1
1000
CamLastContour:1
1000
CamNotOffset:1
1000
CamTool:yyy
1000
CamZClearancePass:0.75
1000
CamZPass:2
1000
CamZPassIndex:1
1000
CamZPasses:4
  0
LINE
  5
560
330
6C3
100
AcDbEntity
  8
CAM ... GCodeOffsetIN ... normal
100
AcDbLine
 10
1.059999999999999
 20
-0.0000000000000004
 30
-0.385
 11
11.31500000000002
 21
-0.0000000000000001
 31
-0.385
1001
QCAD
1000
CamClosedContour:1
1000
CamContourIndex:0
1000
CamCuttingContour:1
1000
CamDirection:1
1000
CamFeedRate:10
1000
CamIgnore:1
1000
CamLastContour:1
1000
CamNotOffset:1
1000
CamTool:yyy
1000
CamZClearancePass:0.75
1000
CamZPass:2
1000
CamZPassIndex:1
1000
CamZPasses:4
  0
ARC
  5
561
330
6C3
100
AcDbEntity
  8
CAM ... GCodeOffsetIN ... normal
100
AcDbCircle
 10
11.31500000000002
 20
0.8099999999999987
 30
-0.385
 40
0.8099999999999987
100
AcDbArc
 50
270.0
 51
0.0
1001
QCAD
1000
CamClosedContour:1
1000
CamContourIndex:0
1000
CamCuttingContour:1
1000
CamDirection:1
1000
CamFeedRate:10
1000
CamIgnore:1
1000
CamLastContour:1
1000
CamNotOffset:1
1000
CamTool:yyy
1000
CamZClearancePass:0.75
1000
CamZPass:2
1000
CamZPassIndex:1
1000
CamZPasses:4
  0
LINE
  5
562
330
6C3
100
AcDbEntity
  8
CAM ... GCodeOffsetIN ... normal
100
AcDbLine
 10
12.12500000000002
 20
0.8099999999999987
 30
-0.385
 11
12.12500000000002
 21
9.44
 31
-0.385
1001
QCAD
1000
CamClosedContour:1
1000
CamContourIndex:0
1000
CamCuttingContour:1
1000
CamDirection:1
1000
CamFeedRate:10
1000
CamIgnore:1
1000
CamLastContour:1
1000
CamNotOffset:1
1000
CamTool:yyy
1000
CamZClearancePass:0.75
1000
CamZPass:2
1000
CamZPassIndex:1
1000
CamZPasses:4
  0
ARC
  5
563
330
6C3
100
AcDbEntity
  8
CAM ... GCodeOffsetIN ... normal
100
AcDbCircle
 10
11.31500000000002
 20
9.439999999999998
 30
-0.385
 40
0.8100000000000023
100
AcDbArc
 50
0.0
 51
89.99999999999976
1001
QCAD
1000
CamClosedContour:1
1000
CamContourIndex:0
1000
CamCuttingContour:1
1000
CamDirection:1
1000
CamFeedRate:10
1000
CamIgnore:1
1000
CamLastContour:1
1000
CamNotOffset:1
1000
CamTool:yyy
1000
CamZClearancePass:0.75
1000
CamZPass:2
1000
CamZPassIndex:1
1000
CamZPasses:4
  0
LINE
  5
564
330
6C3
100
AcDbEntity
  8
CAM ... GCodeOffsetIN ... normal
100
AcDbLine
 10
11.31500000000002
 20
10.25
 30
-0.385
 11
1.06
 21
10.25
 31
-0.385
1001
QCAD
1000
CamClosedContour:1
1000
CamContourIndex:0
1000
CamCuttingContour:1
1000
CamDirection:1
1000
CamFeedRate:10
1000
CamIgnore:1
1000
CamLastContour:1
1000
CamNotOffset:1
1000
CamTool:yyy
1000
CamZClearancePass:0.75
1000
CamZPass:2
1000
CamZPassIndex:1
1000
CamZPasses:4
  0
ARC
  5
565
330
6C3
100
AcDbEntity
  8
CAM ... GCodeOffsetIN ... normal
100
AcDbCircle
 10
1.060000000000001
 20
9.439999999999998
 30
-0.385
 40
0.8100000000000014
100
AcDbArc
 50
90.00000000000006
 51
180.0
1001
QCAD
1000
CamClosedContour:1
1000
CamContourIndex:0
1000
CamCuttingContour:1
1000
CamDirection:1
1000
CamFeedRate:10
1000
CamIgnore:1
1000
CamLastContour:1
1000
CamNotOffset:1
1000
CamTool:yyy
1000
CamZClearancePass:0.75
1000
CamZPass:2
1000
CamZPassIndex:1
1000
CamZPasses:4
  0
LINE
  5
566
330
6C3
100
AcDbEntity
  8
CAM ... GCodeOffsetIN ... normal
100
AcDbLine
 10
0.2499999999999996
 20
9.439999999999998
 30
-0.385
 11
0.0
 21
9.0
 31
-0.385
1001
QCAD
1000
CamClosedContour:1
1000
CamContourIndex:0
1000
CamCuttingContour:1
1000
CamDirection:1
1000
CamFeedRate:10
1000
CamIgnore:1
1000
CamLastContour:1
1000
CamNotOffset:1
1000
CamTool:yyy
1000
CamZClearancePass:0.75
1000
CamZPass:2
1000
CamZPassIndex:1
1000
CamZPasses:4
  0
LINE
  5
567
330
6C3
100
AcDbEntity
  8
CAM ... GCodeOffsetIN ... normal
100
AcDbLine
 10
0.0
 20
9.0
 30
-0.385
 11
0.0
 21
5.125
 31
-0.385
1001
QCAD
1000
CamClosedContour:1
1000
CamContourIndex:0
1000
CamCuttingContour:1
1000
CamDirection:1
1000
CamFeedRate:10
1000
CamIgnore:1
1000
CamLast:1
1000
CamLastContour:1
1000
CamLastSegment:1
1000
CamNotOffset:1
1000
CamTool:yyy
1000
CamZClearancePass:0.75
1000
CamZPass:2
1000
CamZPassIndex:1
1000
CamZPasses:4
  0
LINE
  5
568
330
6C3
100
AcDbEntity
  8
CAM ... GCodeOffsetIN ... normal
100
AcDbLine
 10
0.0
 20
5.125
 30
-0.385
 11
0.0
 21
4.125
 31
-0.385
1001
QCAD
1000
CamClosedContour:1
1000
CamContourIndex:0
1000
CamCuttingContour:1
1000
CamDirection:1
1000
CamFeedRate:10
1000
CamIgnore:1
1000
CamLastContour:1
1000
CamNotOffset:1
1000
CamOvercutOut:1
1000
CamTool:yyy
1000
CamZClearancePass:0.75
1000
CamZPass:2
1000
CamZPassIndex:1
1000
CamZPasses:4
  0
ARC
  5
569
330
6C3
100
AcDbEntity
  8
CAM ... GCodeOffsetIN ... normal
100
AcDbCircle
 10
0.25
 20
4.125
 30
-0.385
 40
0.25
100
AcDbArc
 50
180.0
 51
0.0
1001
QCAD
1000
CamClosedContour:1
1000
CamCompensationOff:1
1000
CamContourIndex:0
1000
CamCuttingContour:1
1000
CamDirection:1
1000
CamFeedRate:10
1000
CamIgnore:1
1000
CamLastContour:1
1000
CamLeadOut:1
1000
CamNotOffset:1
1000
CamTool:yyy
1000
CamZClearancePass:0.75
1000
CamZPass:2
1000
CamZPassIndex:1
1000
CamZPasses:4
  0
LINE
  5
56A
330
6C3
100
AcDbEntity
  8
CAM ... GCodeOffsetIN ... offset
100
AcDbLine
 10
0.5
 20
4.125
 30
-0.1925
 11
0.5
 21
4.125
 31
0.75
1001
QCAD
1000
CamContourIndex:0
1000
CamDirection:1
1000
CamFeedRate:10
1000
CamLastContour:1
1000
CamOffset:1
1000
CamTool:yyy
1000
CamToolUp:1
1000
CamZClearancePass:0.75
1000
CamZMove:1
1000
CamZPass:2
1000
CamZPassIndex:1
1000
CamZPasses:4
  0
LINE
  5
56B
330
6C3
100
AcDbEntity
  8
CAM ... GCodeOffsetIN ... rapid
100
AcDbLine
 10
0.5
 20
4.125
 30
0.75
 11
0.5
 21
6.125
 31
0.75
1001
QCAD
1000
CamContourIndex:0
1000
CamLastContour:1
1000
CamOffset:1
1000
CamRapidMove:1
1000
CamTool:yyy
1000
CamZClearancePass:0.75
1000
CamZPass:2
1000
CamZPassIndex:1
1000
CamZPasses:4
  0
LINE
  5
56C
330
6C3
100
AcDbEntity
  8
CAM ... GCodeOffsetIN ... rapid
100
AcDbLine
 10
0.5
 20
6.125
 30
0.75
 11
0.5
 21
6.125
 31
0.75
1001
QCAD
1000
CamContourIndex:0
1000
CamLastContour:1
1000
CamOffset:1
1000
CamRapidMove:1
1000
CamTool:yyy
1000
CamToolDownClearance:1
1000
CamZClearancePass:0.75
1000
CamZMove:1
1000
CamZPass:2
1000
CamZPassIndex:1
1000
CamZPasses:4
  0
LINE
  5
56D
330
6C3
100
AcDbEntity
  8
CAM ... GCodeOffsetIN ... rapid
100
AcDbLine
 10
0.5
 20
6.125
 30
0.75
 11
0.5
 21
6.125
 31
0.75
1001
QCAD
1000
CamContourIndex:0
1000
CamLastContour:1
1000
CamOffset:1
1000
CamRapidMove:1
1000
CamTool:yyy
1000
CamToolDownClearancePass:1
1000
CamZClearancePass:0.75
1000
CamZMove:1
1000
CamZPass:2
1000
CamZPassIndex:1
1000
CamZPasses:4
  0
LINE
  5
56E
330
6C3
100
AcDbEntity
  8
CAM ... GCodeOffsetIN ... offset
100
AcDbLine
 10
0.5
 20
6.125
 30
0.75
 11
0.5
 21
6.125
 31
-0.385
1001
QCAD
1000
CamContourIndex:0
1000
CamDirection:1
1000
CamFeedRate:5
1000
CamLastContour:1
1000
CamOffset:1
1000
CamTool:yyy
1000
CamToolDown:1
1000
CamZClearancePass:0.75
1000
CamZMove:1
1000
CamZPass:2
1000
CamZPassIndex:1
1000
CamZPasses:4
  0
ARC
  5
56F
330
6C3
100
AcDbEntity
  8
CAM ... GCodeOffsetIN ... offset
100
AcDbCircle
 10
0.28125
 20
6.125
 30
-0.385
 40
0.21875
100
AcDbArc
 50
0.0
 51
180.0
1001
QCAD
1000
CamContourIndex:0
1000
CamCuttingContour:1
1000
CamDirection:1
1000
CamFeedRate:10
1000
CamLastContour:1
1000
CamLeadIn:1
1000
CamOffset:1
1000
CamTool:yyy
1000
CamZClearancePass:0.75
1000
CamZPass:2
1000
CamZPassIndex:1
1000
CamZPasses:4
  0
LINE
  5
570
330
6C3
100
AcDbEntity
  8
CAM ... GCodeOffsetIN ... offset
100
AcDbLine
 10
0.0625
 20
6.125
 30
-0.385
 11
0.0625
 21
5.125
 31
-0.385
1001
QCAD
1000
CamContourIndex:0
1000
CamCuttingContour:1
1000
CamDirection:1
1000
CamFeedRate:10
1000
CamLastContour:1
1000
CamOffset:1
1000
CamOvercutIn:1
1000
CamTool:yyy
1000
CamZClearancePass:0.75
1000
CamZPass:2
1000
CamZPassIndex:1
1000
CamZPasses:4
  0
LINE
  5
571
330
6C3
100
AcDbEntity
  8
CAM ... GCodeOffsetIN ... offset
100
AcDbLine
 10
0.0625
 20
5.125
 30
-0.385
 11
0.0625
 21
1.2665158092888
 31
-0.385
1001
QCAD
1000
CamContourIndex:0
1000
CamCuttingContour:1
1000
CamDirection:1
1000
CamFeedRate:10
1000
CamLastContour:1
1000
CamOffset:1
1000
CamTool:yyy
1000
CamZClearancePass:0.75
1000
CamZPass:2
1000
CamZPassIndex:1
1000
CamZPasses:4
  0
LINE
  5
572
330
6C3
100
AcDbEntity
  8
CAM ... GCodeOffsetIN ... offset
100
AcDbLine
 10
0.0625
 20
1.2665158092888
 30
-0.385
 11
0.3043410348370479
 21
0.8408755879755956
 31
-0.385
1001
QCAD
1000
CamContourIndex:0
1000
CamCuttingContour:1
1000
CamDirection:1
1000
CamFeedRate:10
1000
CamLastContour:1
1000
CamOffset:1
1000
CamTool:yyy
1000
CamZClearancePass:0.75
1000
CamZPass:2
1000
CamZPassIndex:1
1000
CamZPasses:4
  0
ARC
  5
573
330
6C3
100
AcDbEntity
  8
CAM ... GCodeOffsetIN ... offset
100
AcDbCircle
 10
0.2499999999999999
 20
0.8100000000000003
 30
-0.385
 40
0.0625
100
AcDbArc
 50
0.0
 51
29.60445074600478
1001
QCAD
1000
CamContourIndex:0
1000
CamCuttingContour:1
1000
CamDirection:1
1000
CamFeedRate:10
1000
CamLastContour:1
1000
CamOffset:1
1000
CamTool:yyy
1000
CamZClearancePass:0.75
1000
CamZPass:2
1000
CamZPassIndex:1
1000
CamZPasses:4
1000
reversed:1
  0
ARC
  5
574
330
6C3
100
AcDbEntity
  8
CAM ... GCodeOffsetIN ... offset
100
AcDbCircle
 10
1.060000000000001
 20
0.8099999999999999
 30
-0.385
 40
0.7475000000000006
100
AcDbArc
 50
180.0
 51
269.9999999999999
1001
QCAD
1000
CamContourIndex:0
1000
CamCuttingContour:1
1000
CamDirection:1
1000
CamFeedRate:10
1000
CamLastContour:1
1000
CamOffset:1
1000
CamTool:yyy
1000
CamZClearancePass:0.75
1000
CamZPass:2
1000
CamZPassIndex:1
1000
CamZPasses:4
  0
LINE
  5
575
330
6C3
100
AcDbEntity
  8
CAM ... GCodeOffsetIN ... offset
100
AcDbLine
 10
1.059999999999999
 20
0.0624999999999993
 30
-0.385
 11
11.31500000000002
 21
0.0624999999999999
 31
-0.385
1001
QCAD
1000
CamContourIndex:0
1000
CamCuttingContour:1
1000
CamDirection:1
1000
CamFeedRate:10
1000
CamLastContour:1
1000
CamOffset:1
1000
CamTool:yyy
1000
CamZClearancePass:0.75
1000
CamZPass:2
1000
CamZPassIndex:1
1000
CamZPasses:4
  0
ARC
  5
576
330
6C3
100
AcDbEntity
  8
CAM ... GCodeOffsetIN ... offset
100
AcDbCircle
 10
11.31500000000002
 20
0.8099999999999987
 30
-0.385
 40
0.7474999999999988
100
AcDbArc
 50
270.0
 51
0.0
1001
QCAD
1000
CamContourIndex:0
1000
CamCuttingContour:1
1000
CamDirection:1
1000
CamFeedRate:10
1000
CamLastContour:1
1000
CamOffset:1
1000
CamTool:yyy
1000
CamZClearancePass:0.75
1000
CamZPass:2
1000
CamZPassIndex:1
1000
CamZPasses:4
  0
LINE
  5
577
330
6C3
100
AcDbEntity
  8
CAM ... GCodeOffsetIN ... offset
100
AcDbLine
 10
12.06250000000002
 20
0.809999999999999
 30
-0.385
 11
12.06250000000002
 21
9.44
 31
-0.385
1001
QCAD
1000
CamContourIndex:0
1000
CamCuttingContour:1
1000
CamDirection:1
1000
CamFeedRate:10
1000
CamLastContour:1
1000
CamOffset:1
1000
CamTool:yyy
1000
CamZClearancePass:0.75
1000
CamZPass:2
1000
CamZPassIndex:1
1000
CamZPasses:4
  0
ARC
  5
578
330
6C3
100
AcDbEntity
  8
CAM ... GCodeOffsetIN ... offset
100
AcDbCircle
 10
11.31500000000002
 20
9.44
 30
-0.385
 40
0.7475000000000004
100
AcDbArc
 50
0.0
 51
89.99999999999987
1001
QCAD
1000
CamContourIndex:0
1000
CamCuttingContour:1
1000
CamDirection:1
1000
CamFeedRate:10
1000
CamLastContour:1
1000
CamOffset:1
1000
CamTool:yyy
1000
CamZClearancePass:0.75
1000
CamZPass:2
1000
CamZPassIndex:1
1000
CamZPasses:4
  0
LINE
  5
579
330
6C3
100
AcDbEntity
  8
CAM ... GCodeOffsetIN ... offset
100
AcDbLine
 10
11.31500000000002
 20
10.1875
 30
-0.385
 11
1.06
 21
10.1875
 31
-0.385
1001
QCAD
1000
CamContourIndex:0
1000
CamCuttingContour:1
1000
CamDirection:1
1000
CamFeedRate:10
1000
CamLastContour:1
1000
CamOffset:1
1000
CamTool:yyy
1000
CamZClearancePass:0.75
1000
CamZPass:2
1000
CamZPassIndex:1
1000
CamZPasses:4
  0
ARC
  5
57A
330
6C3
100
AcDbEntity
  8
CAM ... GCodeOffsetIN ... offset
100
AcDbCircle
 10
1.06
 20
9.439999999999998
 30
-0.385
 40
0.7475000000000012
100
AcDbArc
 50
90.00000000000004
 51
180.0
1001
QCAD
1000
CamContourIndex:0
1000
CamCuttingContour:1
1000
CamDirection:1
1000
CamFeedRate:10
1000
CamLastContour:1
1000
CamOffset:1
1000
CamTool:yyy
1000
CamZClearancePass:0.75
1000
CamZPass:2
1000
CamZPassIndex:1
1000
CamZPasses:4
  0
ARC
  5
57B
330
6C3
100
AcDbEntity
  8
CAM ... GCodeOffsetIN ... offset
100
AcDbCircle
 10
0.2499999999999997
 20
9.44
 30
-0.385
 40
0.0624999999999996
100
AcDbArc
 50
330.395549253995
 51
0.0
1001
QCAD
1000
CamContourIndex:0
1000
CamCuttingContour:1
1000
CamDirection:1
1000
CamFeedRate:10
1000
CamLastContour:1
1000
CamOffset:1
1000
CamTool:yyy
1000
CamZClearancePass:0.75
1000
CamZPass:2
1000
CamZPassIndex:1
1000
CamZPasses:4
1000
reversed:1
  0
LINE
  5
57C
330
6C3
100
AcDbEntity
  8
CAM ... GCodeOffsetIN ... offset
100
AcDbLine
 10
0.3043410348370473
 20
9.409124412024404
 30
-0.385
 11
0.0625000000000001
 21
8.9834841907112
 31
-0.385
1001
QCAD
1000
CamContourIndex:0
1000
CamCuttingContour:1
1000
CamDirection:1
1000
CamFeedRate:10
1000
CamLastContour:1
1000
CamOffset:1
1000
CamTool:yyy
1000
CamZClearancePass:0.75
1000
CamZPass:2
1000
CamZPassIndex:1
1000
CamZPasses:4
  0
LINE
  5
57D
330
6C3
100
AcDbEntity
  8
CAM ... GCodeOffsetIN ... offset
100
AcDbLine
 10
0.0625000000000001
 20
8.9834841907112
 30
-0.385
 11
0.0625
 21
5.125
 31
-0.385
1001
QCAD
1000
CamContourIndex:0
1000
CamCuttingContour:1
1000
CamDirection:1
1000
CamFeedRate:10
1000
CamLastContour:1
1000
CamOffset:1
1000
CamTool:yyy
1000
CamZClearancePass:0.75
1000
CamZPass:2
1000
CamZPassIndex:1
1000
CamZPasses:4
  0
LINE
  5
57E
330
6C3
100
AcDbEntity
  8
CAM ... GCodeOffsetIN ... offset
100
AcDbLine
 10
0.0625
 20
5.125
 30
-0.385
 11
0.0625
 21
4.125
 31
-0.385
1001
QCAD
1000
CamContourIndex:0
1000
CamCuttingContour:1
1000
CamDirection:1
1000
CamFeedRate:10
1000
CamLastContour:1
1000
CamOffset:1
1000
CamOvercutOut:1
1000
CamTool:yyy
1000
CamZClearancePass:0.75
1000
CamZPass:2
1000
CamZPassIndex:1
1000
CamZPasses:4
  0
ARC
  5
57F
330
6C3
100
AcDbEntity
  8
CAM ... GCodeOffsetIN ... offset
100
AcDbCircle
 10
0.28125
 20
4.125
 30
-0.385
 40
0.21875
100
AcDbArc
 50
180.0
 51
0.0
1001
QCAD
1000
CamContourIndex:0
1000
CamCuttingContour:1
1000
CamDirection:1
1000
CamFeedRate:10
1000
CamLastContour:1
1000
CamLeadOut:1
1000
CamOffset:1
1000
CamTool:yyy
1000
CamZClearancePass:0.75
1000
CamZPass:2
1000
CamZPassIndex:1
1000
CamZPasses:4
  0
ARC
  5
580
330
6C3
100
AcDbEntity
  8
CAM ... GCodeOffsetIN ... normal
100
AcDbCircle
 10
0.25
 20
6.125
 30
-0.5775
 40
0.25
100
AcDbArc
 50
0.0
 51
180.0
1001
QCAD
1000
CamClosedContour:1
1000
CamCompensationOn:1
1000
CamContourIndex:0
1000
CamCuttingContour:1
1000
CamDirection:1
1000
CamFeedRate:10
1000
CamIgnore:1
1000
CamLastContour:1
1000
CamLeadIn:1
1000
CamNotOffset:1
1000
CamTool:yyy
1000
CamZClearancePass:0.75
1000
CamZPass:3
1000
CamZPassIndex:2
1000
CamZPasses:4
  0
LINE
  5
581
330
6C3
100
AcDbEntity
  8
CAM ... GCodeOffsetIN ... normal
100
AcDbLine
 10
0.0
 20
6.125
 30
-0.5775
 11
0.0
 21
5.125
 31
-0.5775
1001
QCAD
1000
CamClosedContour:1
1000
CamContourIndex:0
1000
CamCuttingContour:1
1000
CamDirection:1
1000
CamFeedRate:10
1000
CamIgnore:1
1000
CamLastContour:1
1000
CamNotOffset:1
1000
CamOvercutIn:1
1000
CamTool:yyy
1000
CamZClearancePass:0.75
1000
CamZPass:3
1000
CamZPassIndex:2
1000
CamZPasses:4
  0
LINE
  5
582
330
6C3
100
AcDbEntity
  8
CAM ... GCodeOffsetIN ... normal
100
AcDbLine
 10
0.0
 20
5.125
 30
-0.5775
 11
0.0
 21
1.25
 31
-0.5775
1001
QCAD
1000
CamClosedContour:1
1000
CamContourIndex:0
1000
CamCuttingContour:1
1000
CamDirection:1
1000
CamFeedRate:10
1000
CamFirst:1
1000
CamFirstSegment:1
1000
CamIgnore:1
1000
CamLastContour:1
1000
CamNotOffset:1
1000
CamTool:yyy
1000
CamZClearancePass:0.75
1000
CamZPass:3
1000
CamZPassIndex:2
1000
CamZPasses:4
  0
LINE
  5
583
330
6C3
100
AcDbEntity
  8
CAM ... GCodeOffsetIN ... normal
100
AcDbLine
 10
0.0
 20
1.25
 30
-0.5775
 11
0.2499999999999999
 21
0.8100000000000002
 31
-0.5775
1001
QCAD
1000
CamClosedContour:1
1000
CamContourIndex:0
1000
CamCuttingContour:1
1000
CamDirection:1
1000
CamFeedRate:10
1000
CamIgnore:1
1000
CamLastContour:1
1000
CamNotOffset:1
1000
CamTool:yyy
1000
CamZClearancePass:0.75
1000
CamZPass:3
1000
CamZPassIndex:2
1000
CamZPasses:4
  0
ARC
  5
584
330
6C3
100
AcDbEntity
  8
CAM ... GCodeOffsetIN ... normal
100
AcDbCircle
 10
1.06
 20
0.8099999999999997
 30
-0.5775
 40
0.8100000000000004
100
AcDbArc
 50
180.0
 51
269.9999999999999
1001
QCAD
1000
CamClosedContour:1
1000
CamContourIndex:0
1000
CamCuttingContour:1
1000
CamDirection:1
1000
CamFeedRate:10
1000
CamIgnore:1
1000
CamLastContour:1
1000
CamNotOffset:1
1000
CamTool:yyy
1000
CamZClearancePass:0.75
1000
CamZPass:3
1000
CamZPassIndex:2
1000
CamZPasses:4
  0
LINE
  5
585
330
6C3
100
AcDbEntity
  8
CAM ... GCodeOffsetIN ... normal
100
AcDbLine
 10
1.059999999999999
 20
-0.0000000000000004
 30
-0.5775
 11
11.31500000000002
 21
-0.0000000000000001
 31
-0.5775
1001
QCAD
1000
CamClosedContour:1
1000
CamContourIndex:0
1000
CamCuttingContour:1
1000
CamDirection:1
1000
CamFeedRate:10
1000
CamIgnore:1
1000
CamLastContour:1
1000
CamNotOffset:1
1000
CamTool:yyy
1000
CamZClearancePass:0.75
1000
CamZPass:3
1000
CamZPassIndex:2
1000
CamZPasses:4
  0
ARC
  5
586
330
6C3
100
AcDbEntity
  8
CAM ... GCodeOffsetIN ... normal
100
AcDbCircle
 10
11.31500000000002
 20
0.8099999999999987
 30
-0.5775
 40
0.8099999999999987
100
AcDbArc
 50
270.0
 51
0.0
1001
QCAD
1000
CamClosedContour:1
1000
CamContourIndex:0
1000
CamCuttingContour:1
1000
CamDirection:1
1000
CamFeedRate:10
1000
CamIgnore:1
1000
CamLastContour:1
1000
CamNotOffset:1
1000
CamTool:yyy
1000
CamZClearancePass:0.75
1000
CamZPass:3
1000
CamZPassIndex:2
1000
CamZPasses:4
  0
LINE
  5
587
330
6C3
100
AcDbEntity
  8
CAM ... GCodeOffsetIN ... normal
100
AcDbLine
 10
12.12500000000002
 20
0.8099999999999987
 30
-0.5775
 11
12.12500000000002
 21
9.44
 31
-0.5775
1001
QCAD
1000
CamClosedContour:1
1000
CamContourIndex:0
1000
CamCuttingContour:1
1000
CamDirection:1
1000
CamFeedRate:10
1000
CamIgnore:1
1000
CamLastContour:1
1000
CamNotOffset:1
1000
CamTool:yyy
1000
CamZClearancePass:0.75
1000
CamZPass:3
1000
CamZPassIndex:2
1000
CamZPasses:4
  0
ARC
  5
588
330
6C3
100
AcDbEntity
  8
CAM ... GCodeOffsetIN ... normal
100
AcDbCircle
 10
11.31500000000002
 20
9.439999999999998
 30
-0.5775
 40
0.8100000000000023
100
AcDbArc
 50
0.0
 51
89.99999999999976
1001
QCAD
1000
CamClosedContour:1
1000
CamContourIndex:0
1000
CamCuttingContour:1
1000
CamDirection:1
1000
CamFeedRate:10
1000
CamIgnore:1
1000
CamLastContour:1
1000
CamNotOffset:1
1000
CamTool:yyy
1000
CamZClearancePass:0.75
1000
CamZPass:3
1000
CamZPassIndex:2
1000
CamZPasses:4
  0
LINE
  5
589
330
6C3
100
AcDbEntity
  8
CAM ... GCodeOffsetIN ... normal
100
AcDbLine
 10
11.31500000000002
 20
10.25
 30
-0.5775
 11
1.06
 21
10.25
 31
-0.5775
1001
QCAD
1000
CamClosedContour:1
1000
CamContourIndex:0
1000
CamCuttingContour:1
1000
CamDirection:1
1000
CamFeedRate:10
1000
CamIgnore:1
1000
CamLastContour:1
1000
CamNotOffset:1
1000
CamTool:yyy
1000
CamZClearancePass:0.75
1000
CamZPass:3
1000
CamZPassIndex:2
1000
CamZPasses:4
  0
ARC
  5
58A
330
6C3
100
AcDbEntity
  8
CAM ... GCodeOffsetIN ... normal
100
AcDbCircle
 10
1.060000000000001
 20
9.439999999999998
 30
-0.5775
 40
0.8100000000000014
100
AcDbArc
 50
90.00000000000006
 51
180.0
1001
QCAD
1000
CamClosedContour:1
1000
CamContourIndex:0
1000
CamCuttingContour:1
1000
CamDirection:1
1000
CamFeedRate:10
1000
CamIgnore:1
1000
CamLastContour:1
1000
CamNotOffset:1
1000
CamTool:yyy
1000
CamZClearancePass:0.75
1000
CamZPass:3
1000
CamZPassIndex:2
1000
CamZPasses:4
  0
LINE
  5
58B
330
6C3
100
AcDbEntity
  8
CAM ... GCodeOffsetIN ... normal
100
AcDbLine
 10
0.2499999999999996
 20
9.439999999999998
 30
-0.5775
 11
0.0
 21
9.0
 31
-0.5775
1001
QCAD
1000
CamClosedContour:1
1000
CamContourIndex:0
1000
CamCuttingContour:1
1000
CamDirection:1
1000
CamFeedRate:10
1000
CamIgnore:1
1000
CamLastContour:1
1000
CamNotOffset:1
1000
CamTool:yyy
1000
CamZClearancePass:0.75
1000
CamZPass:3
1000
CamZPassIndex:2
1000
CamZPasses:4
  0
LINE
  5
58C
330
6C3
100
AcDbEntity
  8
CAM ... GCodeOffsetIN ... normal
100
AcDbLine
 10
0.0
 20
9.0
 30
-0.5775
 11
0.0
 21
5.125
 31
-0.5775
1001
QCAD
1000
CamClosedContour:1
1000
CamContourIndex:0
1000
CamCuttingContour:1
1000
CamDirection:1
1000
CamFeedRate:10
1000
CamIgnore:1
1000
CamLast:1
1000
CamLastContour:1
1000
CamLastSegment:1
1000
CamNotOffset:1
1000
CamTool:yyy
1000
CamZClearancePass:0.75
1000
CamZPass:3
1000
CamZPassIndex:2
1000
CamZPasses:4
  0
LINE
  5
58D
330
6C3
100
AcDbEntity
  8
CAM ... GCodeOffsetIN ... normal
100
AcDbLine
 10
0.0
 20
5.125
 30
-0.5775
 11
0.0
 21
4.125
 31
-0.5775
1001
QCAD
1000
CamClosedContour:1
1000
CamContourIndex:0
1000
CamCuttingContour:1
1000
CamDirection:1
1000
CamFeedRate:10
1000
CamIgnore:1
1000
CamLastContour:1
1000
CamNotOffset:1
1000
CamOvercutOut:1
1000
CamTool:yyy
1000
CamZClearancePass:0.75
1000
CamZPass:3
1000
CamZPassIndex:2
1000
CamZPasses:4
  0
ARC
  5
58E
330
6C3
100
AcDbEntity
  8
CAM ... GCodeOffsetIN ... normal
100
AcDbCircle
 10
0.25
 20
4.125
 30
-0.5775
 40
0.25
100
AcDbArc
 50
180.0
 51
0.0
1001
QCAD
1000
CamClosedContour:1
1000
CamCompensationOff:1
1000
CamContourIndex:0
1000
CamCuttingContour:1
1000
CamDirection:1
1000
CamFeedRate:10
1000
CamIgnore:1
1000
CamLastContour:1
1000
CamLeadOut:1
1000
CamNotOffset:1
1000
CamTool:yyy
1000
CamZClearancePass:0.75
1000
CamZPass:3
1000
CamZPassIndex:2
1000
CamZPasses:4
  0
LINE
  5
58F
330
6C3
100
AcDbEntity
  8
CAM ... GCodeOffsetIN ... offset
100
AcDbLine
 10
0.5
 20
4.125
 30
-0.385
 11
0.5
 21
4.125
 31
0.75
1001
QCAD
1000
CamContourIndex:0
1000
CamDirection:1
1000
CamFeedRate:10
1000
CamLastContour:1
1000
CamOffset:1
1000
CamTool:yyy
1000
CamToolUp:1
1000
CamZClearancePass:0.75
1000
CamZMove:1
1000
CamZPass:3
1000
CamZPassIndex:2
1000
CamZPasses:4
  0
LINE
  5
590
330
6C3
100
AcDbEntity
  8
CAM ... GCodeOffsetIN ... rapid
100
AcDbLine
 10
0.5
 20
4.125
 30
0.75
 11
0.5
 21
6.125
 31
0.75
1001
QCAD
1000
CamContourIndex:0
1000
CamLastContour:1
1000
CamOffset:1
1000
CamRapidMove:1
1000
CamTool:yyy
1000
CamZClearancePass:0.75
1000
CamZPass:3
1000
CamZPassIndex:2
1000
CamZPasses:4
  0
LINE
  5
591
330
6C3
100
AcDbEntity
  8
CAM ... GCodeOffsetIN ... rapid
100
AcDbLine
 10
0.5
 20
6.125
 30
0.75
 11
0.5
 21
6.125
 31
0.75
1001
QCAD
1000
CamContourIndex:0
1000
CamLastContour:1
1000
CamOffset:1
1000
CamRapidMove:1
1000
CamTool:yyy
1000
CamToolDownClearance:1
1000
CamZClearancePass:0.75
1000
CamZMove:1
1000
CamZPass:3
1000
CamZPassIndex:2
1000
CamZPasses:4
  0
LINE
  5
592
330
6C3
100
AcDbEntity
  8
CAM ... GCodeOffsetIN ... rapid
100
AcDbLine
 10
0.5
 20
6.125
 30
0.75
 11
0.5
 21
6.125
 31
0.75
1001
QCAD
1000
CamContourIndex:0
1000
CamLastContour:1
1000
CamOffset:1
1000
CamRapidMove:1
1000
CamTool:yyy
1000
CamToolDownClearancePass:1
1000
CamZClearancePass:0.75
1000
CamZMove:1
1000
CamZPass:3
1000
CamZPassIndex:2
1000
CamZPasses:4
  0
LINE
  5
593
330
6C3
100
AcDbEntity
  8
CAM ... GCodeOffsetIN ... offset
100
AcDbLine
 10
0.5
 20
6.125
 30
0.75
 11
0.5
 21
6.125
 31
-0.5775
1001
QCAD
1000
CamContourIndex:0
1000
CamDirection:1
1000
CamFeedRate:5
1000
CamLastContour:1
1000
CamOffset:1
1000
CamTool:yyy
1000
CamToolDown:1
1000
CamZClearancePass:0.75
1000
CamZMove:1
1000
CamZPass:3
1000
CamZPassIndex:2
1000
CamZPasses:4
  0
ARC
  5
594
330
6C3
100
AcDbEntity
  8
CAM ... GCodeOffsetIN ... offset
100
AcDbCircle
 10
0.28125
 20
6.125
 30
-0.5775
 40
0.21875
100
AcDbArc
 50
0.0
 51
180.0
1001
QCAD
1000
CamContourIndex:0
1000
CamCuttingContour:1
1000
CamDirection:1
1000
CamFeedRate:10
1000
CamLastContour:1
1000
CamLeadIn:1
1000
CamOffset:1
1000
CamTool:yyy
1000
CamZClearancePass:0.75
1000
CamZPass:3
1000
CamZPassIndex:2
1000
CamZPasses:4
  0
LINE
  5
595
330
6C3
100
AcDbEntity
  8
CAM ... GCodeOffsetIN ... offset
100
AcDbLine
 10
0.0625
 20
6.125
 30
-0.5775
 11
0.0625
 21
5.125
 31
-0.5775
1001
QCAD
1000
CamContourIndex:0
1000
CamCuttingContour:1
1000
CamDirection:1
1000
CamFeedRate:10
1000
CamLastContour:1
1000
CamOffset:1
1000
CamOvercutIn:1
1000
CamTool:yyy
1000
CamZClearancePass:0.75
1000
CamZPass:3
1000
CamZPassIndex:2
1000
CamZPasses:4
  0
LINE
  5
596
330
6C3
100
AcDbEntity
  8
CAM ... GCodeOffsetIN ... offset
100
AcDbLine
 10
0.0625
 20
5.125
 30
-0.5775
 11
0.0625
 21
1.2665158092888
 31
-0.5775
1001
QCAD
1000
CamContourIndex:0
1000
CamCuttingContour:1
1000
CamDirection:1
1000
CamFeedRate:10
1000
CamLastContour:1
1000
CamOffset:1
1000
CamTool:yyy
1000
CamZClearancePass:0.75
1000
CamZPass:3
1000
CamZPassIndex:2
1000
CamZPasses:4
  0
LINE
  5
597
330
6C3
100
AcDbEntity
  8
CAM ... GCodeOffsetIN ... offset
100
AcDbLine
 10
0.0625
 20
1.2665158092888
 30
-0.5775
 11
0.3043410348370479
 21
0.8408755879755956
 31
-0.5775
1001
QCAD
1000
CamContourIndex:0
1000
CamCuttingContour:1
1000
CamDirection:1
1000
CamFeedRate:10
1000
CamLastContour:1
1000
CamOffset:1
1000
CamTool:yyy
1000
CamZClearancePass:0.75
1000
CamZPass:3
1000
CamZPassIndex:2
1000
CamZPasses:4
  0
ARC
  5
598
330
6C3
100
AcDbEntity
  8
CAM ... GCodeOffsetIN ... offset
100
AcDbCircle
 10
0.2499999999999999
 20
0.8100000000000003
 30
-0.5775
 40
0.0625
100
AcDbArc
 50
0.0
 51
29.60445074600478
1001
QCAD
1000
CamContourIndex:0
1000
CamCuttingContour:1
1000
CamDirection:1
1000
CamFeedRate:10
1000
CamLastContour:1
1000
CamOffset:1
1000
CamTool:yyy
1000
CamZClearancePass:0.75
1000
CamZPass:3
1000
CamZPassIndex:2
1000
CamZPasses:4
1000
reversed:1
  0
ARC
  5
599
330
6C3
100
AcDbEntity
  8
CAM ... GCodeOffsetIN ... offset
100
AcDbCircle
 10
1.060000000000001
 20
0.8099999999999999
 30
-0.5775
 40
0.7475000000000006
100
AcDbArc
 50
180.0
 51
269.9999999999999
1001
QCAD
1000
CamContourIndex:0
1000
CamCuttingContour:1
1000
CamDirection:1
1000
CamFeedRate:10
1000
CamLastContour:1
1000
CamOffset:1
1000
CamTool:yyy
1000
CamZClearancePass:0.75
1000
CamZPass:3
1000
CamZPassIndex:2
1000
CamZPasses:4
  0
LINE
  5
59A
330
6C3
100
AcDbEntity
  8
CAM ... GCodeOffsetIN ... offset
100
AcDbLine
 10
1.059999999999999
 20
0.0624999999999993
 30
-0.5775
 11
11.31500000000002
 21
0.0624999999999999
 31
-0.5775
1001
QCAD
1000
CamContourIndex:0
1000
CamCuttingContour:1
1000
CamDirection:1
1000
CamFeedRate:10
1000
CamLastContour:1
1000
CamOffset:1
1000
CamTool:yyy
1000
CamZClearancePass:0.75
1000
CamZPass:3
1000
CamZPassIndex:2
1000
CamZPasses:4
  0
ARC
  5
59B
330
6C3
100
AcDbEntity
  8
CAM ... GCodeOffsetIN ... offset
100
AcDbCircle
 10
11.31500000000002
 20
0.8099999999999987
 30
-0.5775
 40
0.7474999999999988
100
AcDbArc
 50
270.0
 51
0.0
1001
QCAD
1000
CamContourIndex:0
1000
CamCuttingContour:1
1000
CamDirection:1
1000
CamFeedRate:10
1000
CamLastContour:1
1000
CamOffset:1
1000
CamTool:yyy
1000
CamZClearancePass:0.75
1000
CamZPass:3
1000
CamZPassIndex:2
1000
CamZPasses:4
  0
LINE
  5
59C
330
6C3
100
AcDbEntity
  8
CAM ... GCodeOffsetIN ... offset
100
AcDbLine
 10
12.06250000000002
 20
0.809999999999999
 30
-0.5775
 11
12.06250000000002
 21
9.44
 31
-0.5775
1001
QCAD
1000
CamContourIndex:0
1000
CamCuttingContour:1
1000
CamDirection:1
1000
CamFeedRate:10
1000
CamLastContour:1
1000
CamOffset:1
1000
CamTool:yyy
1000
CamZClearancePass:0.75
1000
CamZPass:3
1000
CamZPassIndex:2
1000
CamZPasses:4
  0
ARC
  5
59D
330
6C3
100
AcDbEntity
  8
CAM ... GCodeOffsetIN ... offset
100
AcDbCircle
 10
11.31500000000002
 20
9.44
 30
-0.5775
 40
0.7475000000000004
100
AcDbArc
 50
0.0
 51
89.99999999999987
1001
QCAD
1000
CamContourIndex:0
1000
CamCuttingContour:1
1000
CamDirection:1
1000
CamFeedRate:10
1000
CamLastContour:1
1000
CamOffset:1
1000
CamTool:yyy
1000
CamZClearancePass:0.75
1000
CamZPass:3
1000
CamZPassIndex:2
1000
CamZPasses:4
  0
LINE
  5
59E
330
6C3
100
AcDbEntity
  8
CAM ... GCodeOffsetIN ... offset
100
AcDbLine
 10
11.31500000000002
 20
10.1875
 30
-0.5775
 11
1.06
 21
10.1875
 31
-0.5775
1001
QCAD
1000
CamContourIndex:0
1000
CamCuttingContour:1
1000
CamDirection:1
1000
CamFeedRate:10
1000
CamLastContour:1
1000
CamOffset:1
1000
CamTool:yyy
1000
CamZClearancePass:0.75
1000
CamZPass:3
1000
CamZPassIndex:2
1000
CamZPasses:4
  0
ARC
  5
59F
330
6C3
100
AcDbEntity
  8
CAM ... GCodeOffsetIN ... offset
100
AcDbCircle
 10
1.06
 20
9.439999999999998
 30
-0.5775
 40
0.7475000000000012
100
AcDbArc
 50
90.00000000000004
 51
180.0
1001
QCAD
1000
CamContourIndex:0
1000
CamCuttingContour:1
1000
CamDirection:1
1000
CamFeedRate:10
1000
CamLastContour:1
1000
CamOffset:1
1000
CamTool:yyy
1000
CamZClearancePass:0.75
1000
CamZPass:3
1000
CamZPassIndex:2
1000
CamZPasses:4
  0
ARC
  5
5A0
330
6C3
100
AcDbEntity
  8
CAM ... GCodeOffsetIN ... offset
100
AcDbCircle
 10
0.2499999999999997
 20
9.44
 30
-0.5775
 40
0.0624999999999996
100
AcDbArc
 50
330.395549253995
 51
0.0
1001
QCAD
1000
CamContourIndex:0
1000
CamCuttingContour:1
1000
CamDirection:1
1000
CamFeedRate:10
1000
CamLastContour:1
1000
CamOffset:1
1000
CamTool:yyy
1000
CamZClearancePass:0.75
1000
CamZPass:3
1000
CamZPassIndex:2
1000
CamZPasses:4
1000
reversed:1
  0
LINE
  5
5A1
330
6C3
100
AcDbEntity
  8
CAM ... GCodeOffsetIN ... offset
100
AcDbLine
 10
0.3043410348370473
 20
9.409124412024404
 30
-0.5775
 11
0.0625000000000001
 21
8.9834841907112
 31
-0.5775
1001
QCAD
1000
CamContourIndex:0
1000
CamCuttingContour:1
1000
CamDirection:1
1000
CamFeedRate:10
1000
CamLastContour:1
1000
CamOffset:1
1000
CamTool:yyy
1000
CamZClearancePass:0.75
1000
CamZPass:3
1000
CamZPassIndex:2
1000
CamZPasses:4
  0
LINE
  5
5A2
330
6C3
100
AcDbEntity
  8
CAM ... GCodeOffsetIN ... offset
100
AcDbLine
 10
0.0625000000000001
 20
8.9834841907112
 30
-0.5775
 11
0.0625
 21
5.125
 31
-0.5775
1001
QCAD
1000
CamContourIndex:0
1000
CamCuttingContour:1
1000
CamDirection:1
1000
CamFeedRate:10
1000
CamLastContour:1
1000
CamOffset:1
1000
CamTool:yyy
1000
CamZClearancePass:0.75
1000
CamZPass:3
1000
CamZPassIndex:2
1000
CamZPasses:4
  0
LINE
  5
5A3
330
6C3
100
AcDbEntity
  8
CAM ... GCodeOffsetIN ... offset
100
AcDbLine
 10
0.0625
 20
5.125
 30
-0.5775
 11
0.0625
 21
4.125
 31
-0.5775
1001
QCAD
1000
CamContourIndex:0
1000
CamCuttingContour:1
1000
CamDirection:1
1000
CamFeedRate:10
1000
CamLastContour:1
1000
CamOffset:1
1000
CamOvercutOut:1
1000
CamTool:yyy
1000
CamZClearancePass:0.75
1000
CamZPass:3
1000
CamZPassIndex:2
1000
CamZPasses:4
  0
ARC
  5
5A4
330
6C3
100
AcDbEntity
  8
CAM ... GCodeOffsetIN ... offset
100
AcDbCircle
 10
0.28125
 20
4.125
 30
-0.5775
 40
0.21875
100
AcDbArc
 50
180.0
 51
0.0
1001
QCAD
1000
CamContourIndex:0
1000
CamCuttingContour:1
1000
CamDirection:1
1000
CamFeedRate:10
1000
CamLastContour:1
1000
CamLeadOut:1
1000
CamOffset:1
1000
CamTool:yyy
1000
CamZClearancePass:0.75
1000
CamZPass:3
1000
CamZPassIndex:2
1000
CamZPasses:4
  0
ARC
  5
5A5
330
6C3
100
AcDbEntity
  8
CAM ... GCodeOffsetIN ... normal
100
AcDbCircle
 10
0.25
 20
6.125
 30
-0.77
 40
0.25
100
AcDbArc
 50
0.0
 51
180.0
1001
QCAD
1000
CamClosedContour:1
1000
CamCompensationOn:1
1000
CamContourIndex:0
1000
CamCuttingContour:1
1000
CamDirection:1
1000
CamFeedRate:10
1000
CamIgnore:1
1000
CamLastContour:1
1000
CamLeadIn:1
1000
CamNotOffset:1
1000
CamTool:yyy
1000
CamZClearancePass:0.75
1000
CamZPass:4
1000
CamZPassIndex:3
1000
CamZPasses:4
  0
LINE
  5
5A6
330
6C3
100
AcDbEntity
  8
CAM ... GCodeOffsetIN ... normal
100
AcDbLine
 10
0.0
 20
6.125
 30
-0.77
 11
0.0
 21
5.125
 31
-0.77
1001
QCAD
1000
CamClosedContour:1
1000
CamContourIndex:0
1000
CamCuttingContour:1
1000
CamDirection:1
1000
CamFeedRate:10
1000
CamIgnore:1
1000
CamLastContour:1
1000
CamNotOffset:1
1000
CamOvercutIn:1
1000
CamTool:yyy
1000
CamZClearancePass:0.75
1000
CamZPass:4
1000
CamZPassIndex:3
1000
CamZPasses:4
  0
LINE
  5
5A7
330
6C3
100
AcDbEntity
  8
CAM ... GCodeOffsetIN ... normal
100
AcDbLine
 10
0.0
 20
5.125
 30
-0.77
 11
0.0
 21
1.25
 31
-0.77
1001
QCAD
1000
CamClosedContour:1
1000
CamContourIndex:0
1000
CamCuttingContour:1
1000
CamDirection:1
1000
CamFeedRate:10
1000
CamFirst:1
1000
CamFirstSegment:1
1000
CamIgnore:1
1000
CamLastContour:1
1000
CamNotOffset:1
1000
CamTool:yyy
1000
CamZClearancePass:0.75
1000
CamZPass:4
1000
CamZPassIndex:3
1000
CamZPasses:4
  0
LINE
  5
5A8
330
6C3
100
AcDbEntity
  8
CAM ... GCodeOffsetIN ... normal
100
AcDbLine
 10
0.0
 20
1.25
 30
-0.77
 11
0.2499999999999999
 21
0.8100000000000002
 31
-0.77
1001
QCAD
1000
CamClosedContour:1
1000
CamContourIndex:0
1000
CamCuttingContour:1
1000
CamDirection:1
1000
CamFeedRate:10
1000
CamIgnore:1
1000
CamLastContour:1
1000
CamNotOffset:1
1000
CamTool:yyy
1000
CamZClearancePass:0.75
1000
CamZPass:4
1000
CamZPassIndex:3
1000
CamZPasses:4
  0
ARC
  5
5A9
330
6C3
100
AcDbEntity
  8
CAM ... GCodeOffsetIN ... normal
100
AcDbCircle
 10
1.06
 20
0.8099999999999997
 30
-0.77
 40
0.8100000000000004
100
AcDbArc
 50
180.0
 51
269.9999999999999
1001
QCAD
1000
CamClosedContour:1
1000
CamContourIndex:0
1000
CamCuttingContour:1
1000
CamDirection:1
1000
CamFeedRate:10
1000
CamIgnore:1
1000
CamLastContour:1
1000
CamNotOffset:1
1000
CamTool:yyy
1000
CamZClearancePass:0.75
1000
CamZPass:4
1000
CamZPassIndex:3
1000
CamZPasses:4
  0
LINE
  5
5AA
330
6C3
100
AcDbEntity
  8
CAM ... GCodeOffsetIN ... normal
100
AcDbLine
 10
1.059999999999999
 20
-0.0000000000000004
 30
-0.77
 11
11.31500000000002
 21
-0.0000000000000001
 31
-0.77
1001
QCAD
1000
CamClosedContour:1
1000
CamContourIndex:0
1000
CamCuttingContour:1
1000
CamDirection:1
1000
CamFeedRate:10
1000
CamIgnore:1
1000
CamLastContour:1
1000
CamNotOffset:1
1000
CamTool:yyy
1000
CamZClearancePass:0.75
1000
CamZPass:4
1000
CamZPassIndex:3
1000
CamZPasses:4
  0
ARC
  5
5AB
330
6C3
100
AcDbEntity
  8
CAM ... GCodeOffsetIN ... normal
100
AcDbCircle
 10
11.31500000000002
 20
0.8099999999999987
 30
-0.77
 40
0.8099999999999987
100
AcDbArc
 50
270.0
 51
0.0
1001
QCAD
1000
CamClosedContour:1
1000
CamContourIndex:0
1000
CamCuttingContour:1
1000
CamDirection:1
1000
CamFeedRate:10
1000
CamIgnore:1
1000
CamLastContour:1
1000
CamNotOffset:1
1000
CamTool:yyy
1000
CamZClearancePass:0.75
1000
CamZPass:4
1000
CamZPassIndex:3
1000
CamZPasses:4
  0
LINE
  5
5AC
330
6C3
100
AcDbEntity
  8
CAM ... GCodeOffsetIN ... normal
100
AcDbLine
 10
12.12500000000002
 20
0.8099999999999987
 30
-0.77
 11
12.12500000000002
 21
9.44
 31
-0.77
1001
QCAD
1000
CamClosedContour:1
1000
CamContourIndex:0
1000
CamCuttingContour:1
1000
CamDirection:1
1000
CamFeedRate:10
1000
CamIgnore:1
1000
CamLastContour:1
1000
CamNotOffset:1
1000
CamTool:yyy
1000
CamZClearancePass:0.75
1000
CamZPass:4
1000
CamZPassIndex:3
1000
CamZPasses:4
  0
ARC
  5
5AD
330
6C3
100
AcDbEntity
  8
CAM ... GCodeOffsetIN ... normal
100
AcDbCircle
 10
11.31500000000002
 20
9.439999999999998
 30
-0.77
 40
0.8100000000000023
100
AcDbArc
 50
0.0
 51
89.99999999999976
1001
QCAD
1000
CamClosedContour:1
1000
CamContourIndex:0
1000
CamCuttingContour:1
1000
CamDirection:1
1000
CamFeedRate:10
1000
CamIgnore:1
1000
CamLastContour:1
1000
CamNotOffset:1
1000
CamTool:yyy
1000
CamZClearancePass:0.75
1000
CamZPass:4
1000
CamZPassIndex:3
1000
CamZPasses:4
  0
LINE
  5
5AE
330
6C3
100
AcDbEntity
  8
CAM ... GCodeOffsetIN ... normal
100
AcDbLine
 10
11.31500000000002
 20
10.25
 30
-0.77
 11
1.06
 21
10.25
 31
-0.77
1001
QCAD
1000
CamClosedContour:1
1000
CamContourIndex:0
1000
CamCuttingContour:1
1000
CamDirection:1
1000
CamFeedRate:10
1000
CamIgnore:1
1000
CamLastContour:1
1000
CamNotOffset:1
1000
CamTool:yyy
1000
CamZClearancePass:0.75
1000
CamZPass:4
1000
CamZPassIndex:3
1000
CamZPasses:4
  0
ARC
  5
5AF
330
6C3
100
AcDbEntity
  8
CAM ... GCodeOffsetIN ... normal
100
AcDbCircle
 10
1.060000000000001
 20
9.439999999999998
 30
-0.77
 40
0.8100000000000014
100
AcDbArc
 50
90.00000000000006
 51
180.0
1001
QCAD
1000
CamClosedContour:1
1000
CamContourIndex:0
1000
CamCuttingContour:1
1000
CamDirection:1
1000
CamFeedRate:10
1000
CamIgnore:1
1000
CamLastContour:1
1000
CamNotOffset:1
1000
CamTool:yyy
1000
CamZClearancePass:0.75
1000
CamZPass:4
1000
CamZPassIndex:3
1000
CamZPasses:4
  0
LINE
  5
5B0
330
6C3
100
AcDbEntity
  8
CAM ... GCodeOffsetIN ... normal
100
AcDbLine
 10
0.2499999999999996
 20
9.439999999999998
 30
-0.77
 11
0.0
 21
9.0
 31
-0.77
1001
QCAD
1000
CamClosedContour:1
1000
CamContourIndex:0
1000
CamCuttingContour:1
1000
CamDirection:1
1000
CamFeedRate:10
1000
CamIgnore:1
1000
CamLastContour:1
1000
CamNotOffset:1
1000
CamTool:yyy
1000
CamZClearancePass:0.75
1000
CamZPass:4
1000
CamZPassIndex:3
1000
CamZPasses:4
  0
LINE
  5
5B1
330
6C3
100
AcDbEntity
  8
CAM ... GCodeOffsetIN ... normal
100
AcDbLine
 10
0.0
 20
9.0
 30
-0.77
 11
0.0
 21
5.125
 31
-0.77
1001
QCAD
1000
CamClosedContour:1
1000
CamContourIndex:0
1000
CamCuttingContour:1
1000
CamDirection:1
1000
CamFeedRate:10
1000
CamIgnore:1
1000
CamLast:1
1000
CamLastContour:1
1000
CamLastSegment:1
1000
CamNotOffset:1
1000
CamTool:yyy
1000
CamZClearancePass:0.75
1000
CamZPass:4
1000
CamZPassIndex:3
1000
CamZPasses:4
  0
LINE
  5
5B2
330
6C3
100
AcDbEntity
  8
CAM ... GCodeOffsetIN ... normal
100
AcDbLine
 10
0.0
 20
5.125
 30
-0.77
 11
0.0
 21
4.125
 31
-0.77
1001
QCAD
1000
CamClosedContour:1
1000
CamContourIndex:0
1000
CamCuttingContour:1
1000
CamDirection:1
1000
CamFeedRate:10
1000
CamIgnore:1
1000
CamLastContour:1
1000
CamNotOffset:1
1000
CamOvercutOut:1
1000
CamTool:yyy
1000
CamZClearancePass:0.75
1000
CamZPass:4
1000
CamZPassIndex:3
1000
CamZPasses:4
  0
ARC
  5
5B3
330
6C3
100
AcDbEntity
  8
CAM ... GCodeOffsetIN ... normal
100
AcDbCircle
 10
0.25
 20
4.125
 30
-0.77
 40
0.25
100
AcDbArc
 50
180.0
 51
0.0
1001
QCAD
1000
CamClosedContour:1
1000
CamCompensationOff:1
1000
CamContourIndex:0
1000
CamCuttingContour:1
1000
CamDirection:1
1000
CamFeedRate:10
1000
CamIgnore:1
1000
CamLastContour:1
1000
CamLeadOut:1
1000
CamNotOffset:1
1000
CamTool:yyy
1000
CamZClearancePass:0.75
1000
CamZPass:4
1000
CamZPassIndex:3
1000
CamZPasses:4
  0
LINE
  5
5B4
330
6C3
100
AcDbEntity
  8
CAM ... GCodeOffsetIN ... offset
100
AcDbLine
 10
0.5
 20
4.125
 30
-0.5775
 11
0.5
 21
4.125
 31
0.75
1001
QCAD
1000
CamContourIndex:0
1000
CamDirection:1
1000
CamFeedRate:10
1000
CamLastContour:1
1000
CamOffset:1
1000
CamTool:yyy
1000
CamToolUp:1
1000
CamZClearancePass:0.75
1000
CamZMove:1
1000
CamZPass:4
1000
CamZPassIndex:3
1000
CamZPasses:4
  0
LINE
  5
5B5
330
6C3
100
AcDbEntity
  8
CAM ... GCodeOffsetIN ... rapid
100
AcDbLine
 10
0.5
 20
4.125
 30
0.75
 11
0.5
 21
6.125
 31
0.75
1001
QCAD
1000
CamContourIndex:0
1000
CamLastContour:1
1000
CamOffset:1
1000
CamRapidMove:1
1000
CamTool:yyy
1000
CamZClearancePass:0.75
1000
CamZPass:4
1000
CamZPassIndex:3
1000
CamZPasses:4
  0
LINE
  5
5B6
330
6C3
100
AcDbEntity
  8
CAM ... GCodeOffsetIN ... rapid
100
AcDbLine
 10
0.5
 20
6.125
 30
0.75
 11
0.5
 21
6.125
 31
0.75
1001
QCAD
1000
CamContourIndex:0
1000
CamLastContour:1
1000
CamOffset:1
1000
CamRapidMove:1
1000
CamTool:yyy
1000
CamToolDownClearance:1
1000
CamZClearancePass:0.75
1000
CamZMove:1
1000
CamZPass:4
1000
CamZPassIndex:3
1000
CamZPasses:4
  0
LINE
  5
5B7
330
6C3
100
AcDbEntity
  8
CAM ... GCodeOffsetIN ... rapid
100
AcDbLine
 10
0.5
 20
6.125
 30
0.75
 11
0.5
 21
6.125
 31
0.75
1001
QCAD
1000
CamContourIndex:0
1000
CamLastContour:1
1000
CamOffset:1
1000
CamRapidMove:1
1000
CamTool:yyy
1000
CamToolDownClearancePass:1
1000
CamZClearancePass:0.75
1000
CamZMove:1
1000
CamZPass:4
1000
CamZPassIndex:3
1000
CamZPasses:4
  0
LINE
  5
5B8
330
6C3
100
AcDbEntity
  8
CAM ... GCodeOffsetIN ... offset
100
AcDbLine
 10
0.5
 20
6.125
 30
0.75
 11
0.5
 21
6.125
 31
-0.77
1001
QCAD
1000
CamContourIndex:0
1000
CamDirection:1
1000
CamFeedRate:5
1000
CamLastContour:1
1000
CamOffset:1
1000
CamTool:yyy
1000
CamToolDown:1
1000
CamZClearancePass:0.75
1000
CamZMove:1
1000
CamZPass:4
1000
CamZPassIndex:3
1000
CamZPasses:4
  0
ARC
  5
5B9
330
6C3
100
AcDbEntity
  8
CAM ... GCodeOffsetIN ... offset
100
AcDbCircle
 10
0.28125
 20
6.125
 30
-0.77
 40
0.21875
100
AcDbArc
 50
0.0
 51
180.0
1001
QCAD
1000
CamContourIndex:0
1000
CamCuttingContour:1
1000
CamDirection:1
1000
CamFeedRate:10
1000
CamLastContour:1
1000
CamLeadIn:1
1000
CamOffset:1
1000
CamTool:yyy
1000
CamZClearancePass:0.75
1000
CamZPass:4
1000
CamZPassIndex:3
1000
CamZPasses:4
  0
LINE
  5
5BA
330
6C3
100
AcDbEntity
  8
CAM ... GCodeOffsetIN ... offset
100
AcDbLine
 10
0.0625
 20
6.125
 30
-0.77
 11
0.0625
 21
5.125
 31
-0.77
1001
QCAD
1000
CamContourIndex:0
1000
CamCuttingContour:1
1000
CamDirection:1
1000
CamFeedRate:10
1000
CamLastContour:1
1000
CamOffset:1
1000
CamOvercutIn:1
1000
CamTool:yyy
1000
CamZClearancePass:0.75
1000
CamZPass:4
1000
CamZPassIndex:3
1000
CamZPasses:4
  0
LINE
  5
5BB
330
6C3
100
AcDbEntity
  8
CAM ... GCodeOffsetIN ... offset
100
AcDbLine
 10
0.0625
 20
5.125
 30
-0.77
 11
0.0625
 21
1.2665158092888
 31
-0.77
1001
QCAD
1000
CamContourIndex:0
1000
CamCuttingContour:1
1000
CamDirection:1
1000
CamFeedRate:10
1000
CamLastContour:1
1000
CamOffset:1
1000
CamTool:yyy
1000
CamZClearancePass:0.75
1000
CamZPass:4
1000
CamZPassIndex:3
1000
CamZPasses:4
  0
LINE
  5
5BC
330
6C3
100
AcDbEntity
  8
CAM ... GCodeOffsetIN ... offset
100
AcDbLine
 10
0.0625
 20
1.2665158092888
 30
-0.77
 11
0.3043410348370479
 21
0.8408755879755956
 31
-0.77
1001
QCAD
1000
CamContourIndex:0
1000
CamCuttingContour:1
1000
CamDirection:1
1000
CamFeedRate:10
1000
CamLastContour:1
1000
CamOffset:1
1000
CamTool:yyy
1000
CamZClearancePass:0.75
1000
CamZPass:4
1000
CamZPassIndex:3
1000
CamZPasses:4
  0
ARC
  5
5BD
330
6C3
100
AcDbEntity
  8
CAM ... GCodeOffsetIN ... offset
100
AcDbCircle
 10
0.2499999999999999
 20
0.8100000000000003
 30
-0.77
 40
0.0625
100
AcDbArc
 50
0.0
 51
29.60445074600478
1001
QCAD
1000
CamContourIndex:0
1000
CamCuttingContour:1
1000
CamDirection:1
1000
CamFeedRate:10
1000
CamLastContour:1
1000
CamOffset:1
1000
CamTool:yyy
1000
CamZClearancePass:0.75
1000
CamZPass:4
1000
CamZPassIndex:3
1000
CamZPasses:4
1000
reversed:1
  0
ARC
  5
5BE
330
6C3
100
AcDbEntity
  8
CAM ... GCodeOffsetIN ... offset
100
AcDbCircle
 10
1.060000000000001
 20
0.8099999999999999
 30
-0.77
 40
0.7475000000000006
100
AcDbArc
 50
180.0
 51
269.9999999999999
1001
QCAD
1000
CamContourIndex:0
1000
CamCuttingContour:1
1000
CamDirection:1
1000
CamFeedRate:10
1000
CamLastContour:1
1000
CamOffset:1
1000
CamTool:yyy
1000
CamZClearancePass:0.75
1000
CamZPass:4
1000
CamZPassIndex:3
1000
CamZPasses:4
  0
LINE
  5
5BF
330
6C3
100
AcDbEntity
  8
CAM ... GCodeOffsetIN ... offset
100
AcDbLine
 10
1.059999999999999
 20
0.0624999999999993
 30
-0.77
 11
11.31500000000002
 21
0.0624999999999999
 31
-0.77
1001
QCAD
1000
CamContourIndex:0
1000
CamCuttingContour:1
1000
CamDirection:1
1000
CamFeedRate:10
1000
CamLastContour:1
1000
CamOffset:1
1000
CamTool:yyy
1000
CamZClearancePass:0.75
1000
CamZPass:4
1000
CamZPassIndex:3
1000
CamZPasses:4
  0
ARC
  5
5C0
330
6C3
100
AcDbEntity
  8
CAM ... GCodeOffsetIN ... offset
100
AcDbCircle
 10
11.31500000000002
 20
0.8099999999999987
 30
-0.77
 40
0.7474999999999988
100
AcDbArc
 50
270.0
 51
0.0
1001
QCAD
1000
CamContourIndex:0
1000
CamCuttingContour:1
1000
CamDirection:1
1000
CamFeedRate:10
1000
CamLastContour:1
1000
CamOffset:1
1000
CamTool:yyy
1000
CamZClearancePass:0.75
1000
CamZPass:4
1000
CamZPassIndex:3
1000
CamZPasses:4
  0
LINE
  5
5C1
330
6C3
100
AcDbEntity
  8
CAM ... GCodeOffsetIN ... offset
100
AcDbLine
 10
12.06250000000002
 20
0.809999999999999
 30
-0.77
 11
12.06250000000002
 21
9.44
 31
-0.77
1001
QCAD
1000
CamContourIndex:0
1000
CamCuttingContour:1
1000
CamDirection:1
1000
CamFeedRate:10
1000
CamLastContour:1
1000
CamOffset:1
1000
CamTool:yyy
1000
CamZClearancePass:0.75
1000
CamZPass:4
1000
CamZPassIndex:3
1000
CamZPasses:4
  0
ARC
  5
5C2
330
6C3
100
AcDbEntity
  8
CAM ... GCodeOffsetIN ... offset
100
AcDbCircle
 10
11.31500000000002
 20
9.44
 30
-0.77
 40
0.7475000000000004
100
AcDbArc
 50
0.0
 51
89.99999999999987
1001
QCAD
1000
CamContourIndex:0
1000
CamCuttingContour:1
1000
CamDirection:1
1000
CamFeedRate:10
1000
CamLastContour:1
1000
CamOffset:1
1000
CamTool:yyy
1000
CamZClearancePass:0.75
1000
CamZPass:4
1000
CamZPassIndex:3
1000
CamZPasses:4
  0
LINE
  5
5C3
330
6C3
100
AcDbEntity
  8
CAM ... GCodeOffsetIN ... offset
100
AcDbLine
 10
11.31500000000002
 20
10.1875
 30
-0.77
 11
1.06
 21
10.1875
 31
-0.77
1001
QCAD
1000
CamContourIndex:0
1000
CamCuttingContour:1
1000
CamDirection:1
1000
CamFeedRate:10
1000
CamLastContour:1
1000
CamOffset:1
1000
CamTool:yyy
1000
CamZClearancePass:0.75
1000
CamZPass:4
1000
CamZPassIndex:3
1000
CamZPasses:4
  0
ARC
  5
5C4
330
6C3
100
AcDbEntity
  8
CAM ... GCodeOffsetIN ... offset
100
AcDbCircle
 10
1.06
 20
9.439999999999998
 30
-0.77
 40
0.7475000000000012
100
AcDbArc
 50
90.00000000000004
 51
180.0
1001
QCAD
1000
CamContourIndex:0
1000
CamCuttingContour:1
1000
CamDirection:1
1000
CamFeedRate:10
1000
CamLastContour:1
1000
CamOffset:1
1000
CamTool:yyy
1000
CamZClearancePass:0.75
1000
CamZPass:4
1000
CamZPassIndex:3
1000
CamZPasses:4
  0
ARC
  5
5C5
330
6C3
100
AcDbEntity
  8
CAM ... GCodeOffsetIN ... offset
100
AcDbCircle
 10
0.2499999999999997
 20
9.44
 30
-0.77
 40
0.0624999999999996
100
AcDbArc
 50
330.395549253995
 51
0.0
1001
QCAD
1000
CamContourIndex:0
1000
CamCuttingContour:1
1000
CamDirection:1
1000
CamFeedRate:10
1000
CamLastContour:1
1000
CamOffset:1
1000
CamTool:yyy
1000
CamZClearancePass:0.75
1000
CamZPass:4
1000
CamZPassIndex:3
1000
CamZPasses:4
1000
reversed:1
  0
LINE
  5
5C6
330
6C3
100
AcDbEntity
  8
CAM ... GCodeOffsetIN ... offset
100
AcDbLine
 10
0.3043410348370473
 20
9.409124412024404
 30
-0.77
 11
0.0625000000000001
 21
8.9834841907112
 31
-0.77
1001
QCAD
1000
CamContourIndex:0
1000
CamCuttingContour:1
1000
CamDirection:1
1000
CamFeedRate:10
1000
CamLastContour:1
1000
CamOffset:1
1000
CamTool:yyy
1000
CamZClearancePass:0.75
1000
CamZPass:4
1000
CamZPassIndex:3
1000
CamZPasses:4
  0
LINE
  5
5C7
330
6C3
100
AcDbEntity
  8
CAM ... GCodeOffsetIN ... offset
100
AcDbLine
 10
0.0625000000000001
 20
8.9834841907112
 30
-0.77
 11
0.0625
 21
5.125
 31
-0.77
1001
QCAD
1000
CamContourIndex:0
1000
CamCuttingContour:1
1000
CamDirection:1
1000
CamFeedRate:10
1000
CamLastContour:1
1000
CamOffset:1
1000
CamTool:yyy
1000
CamZClearancePass:0.75
1000
CamZPass:4
1000
CamZPassIndex:3
1000
CamZPasses:4
  0
LINE
  5
5C8
330
6C3
100
AcDbEntity
  8
CAM ... GCodeOffsetIN ... offset
100
AcDbLine
 10
0.0625
 20
5.125
 30
-0.77
 11
0.0625
 21
4.125
 31
-0.77
1001
QCAD
1000
CamContourIndex:0
1000
CamCuttingContour:1
1000
CamDirection:1
1000
CamFeedRate:10
1000
CamLastContour:1
1000
CamOffset:1
1000
CamOvercutOut:1
1000
CamTool:yyy
1000
CamZClearancePass:0.75
1000
CamZPass:4
1000
CamZPassIndex:3
1000
CamZPasses:4
  0
ARC
  5
5C9
330
6C3
100
AcDbEntity
  8
CAM ... GCodeOffsetIN ... offset
100
AcDbCircle
 10
0.28125
 20
4.125
 30
-0.77
 40
0.21875
100
AcDbArc
 50
180.0
 51
0.0
1001
QCAD
1000
CamContourIndex:0
1000
CamCuttingContour:1
1000
CamDirection:1
1000
CamFeedRate:10
1000
CamLastContour:1
1000
CamLeadOut:1
1000
CamOffset:1
1000
CamTool:yyy
1000
CamZClearancePass:0.75
1000
CamZPass:4
1000
CamZPassIndex:3
1000
CamZPasses:4
  0
LINE
  5
5CA
330
6C3
100
AcDbEntity
  8
CAM ... GCodeOffsetIN ... normal
100
AcDbLine
 10
0.5
 20
4.125
 30
-0.77
 11
0.5
 21
4.125
 31
0.75
1001
QCAD
1000
CamContourIndex:0
1000
CamDirection:1
1000
CamFeedRate:10
1000
CamLastContour:1
1000
CamTool:yyy
1000
CamToolUp:1
1000
CamZMove:1
1000
CamZPasses:4
  0
LINE
  5
5CB
330
6C3
100
AcDbEntity
  8
CAM ... GCodeOffsetIN ... rapid
100
AcDbLine
 10
0.5
 20
4.125
 30
0.75
 11
0.5
 21
4.125
 31
2.0
1001
QCAD
1000
CamRapidMove:1
1000
CamRapidMoveToSafety:1
1000
CamZMove:1
  0
ENDBLK
  5
6C5
330
6C3
100
AcDbEntity
  8
0
100
AcDbBlockEnd
  0
ENDSEC
  0
SECTION
  2
ENTITIES
  0
LWPOLYLINE
  5
49D
330
5E9
100
AcDbEntity
  8
Cutout
  6
Continuous
100
AcDbPolyline
 90
       11
 70
   129
 43
0.0
 10
0.0
 20
5.125
 10
0.0
 20
1.25
 10
0.2499999999999999
 20
0.8100000000000002
 42
0.4142135623730948
 10
1.059999999999999
 20
-0.0000000000000004
 10
11.31500000000002
 20
-0.0000000000000001
 42
0.414213562373095
 10
12.12500000000002
 20
0.8099999999999987
 10
12.12500000000002
 20
9.44
 42
0.4142135623730938
 10
11.31500000000002
 20
10.25
 10
1.06
 20
10.25
 42
0.414213562373095
 10
0.2499999999999996
 20
9.439999999999998
 10
0.0
 20
9.0
  0
INSERT
  5
535
330
5E9
100
AcDbEntity
  8
CAM ... GCodeOffsetIN
100
AcDbBlockReference
  2
CAMTOOLPATH$$GCodeOffsetIN$$Profile 1
 10
0.0
 20
0.0
 30
0.0
  0
VIEWPORT
  5
6BB
330
5E5
100
AcDbEntity
 67
     1
  8
0
100
AcDbViewport
 10
5.25
 20
4.0
 30
0.0
 40
11.638
 41
8.993
 68
     1
 69
     1
 12
5.25
 22
4.0
 13
0.0
 23
0.0
 14
0.5
 24
0.5
 15
0.5
 25
0.5
 16
0.0
 26
0.0
 36
1.0
 17
0.0
 27
0.0
 37
0.0
 42
50.0
 43
0.0
 44
0.0
 45
8.993
 50
0.0
 51
0.0
 72
   100
 90
   557152
  1

281
     0
 71
     1
 74
     0
110
0.0
120
0.0
130
0.0
111
1.0
121
0.0
131
0.0
112
0.0
122
1.0
132
0.0
 79
     0
146
0.0
170
     0
 61
     5
348
5F9
292
     1
282
     1
141
0.0
142
0.0
 63
   256
361
6BC
  0
ENDSEC
  0
SECTION
  2
OBJECTS
  0
DICTIONARY
  5
5D7
330
0
100
AcDbDictionary
281
     1
  3
ACAD_DETAILVIEWSTYLE
350
6CD
  3
ACAD_GROUP
350
5D8
  3
ACAD_LAYOUT
350
5E4
  3
ACAD_MATERIAL
350
60D
  3
ACAD_MLEADERSTYLE
350
625
  3
ACAD_MLINESTYLE
350
5E1
  3
ACAD_PLOTSETTINGS
350
5E3
  3
ACAD_PLOTSTYLENAME
350
5D9
  3
ACAD_SCALELIST
350
611
  3
ACAD_SECTIONVIEWSTYLE
350
6CE
  3
ACAD_TABLESTYLE
350
623
  3
ACAD_VISUALSTYLE
350
5F4
  3
ACDB_RECOMPOSE_DATA
350
6CA
  3
AcDbVariableDictionary
350
6C6
  3
QCAD_OBJECTS
350
629
  0
SUN
  5
627
330
5F3
100
AcDbSun
 90
        1
290
     0
 63
     7
421
 16777215
 40
1.0
291
     1
 91
  2455826
 92
 54000000
292
     0
 70
     2
 71
   256
280
     1
  0
SUN
  5
6BC
330
6BB
100
AcDbSun
 90
        1
290
     0
 63
     7
421
 16777215
 40
1.0
291
     1
 91
  2455826
 92
 54000000
292
     0
 70
     2
 71
   256
280
     1
  0
DICTIONARY
  5
6CD
102
{ACAD_REACTORS
330
5D7
102
}
330
5D7
100
AcDbDictionary
281
     1
  0
DICTIONARY
  5
5D8
102
{ACAD_REACTORS
330
5D7
102
}
330
5D7
100
AcDbDictionary
281
     1
  0
DICTIONARY
  5
5E4
102
{ACAD_REACTORS
330
5D7
102
}
330
5D7
100
AcDbDictionary
281
     1
  3
Layout1
350
5E8
  3
Model
350
5EC
  0
DICTIONARY
  5
60D
102
{ACAD_REACTORS
330
5D7
102
}
330
5D7
100
AcDbDictionary
281
     1
  3
ByBlock
350
60F
  3
ByLayer
350
60E
  3
Global
350
610
  0
DICTIONARY
  5
625
102
{ACAD_REACTORS
330
5D7
102
}
330
5D7
100
AcDbDictionary
281
     1
  3
Standard
350
626
  0
DICTIONARY
  5
5E1
102
{ACAD_REACTORS
330
5D7
102
}
330
5D7
100
AcDbDictionary
281
     1
  3
Standard
350
5E2
  0
DICTIONARY
  5
5E3
102
{ACAD_REACTORS
330
5D7
102
}
330
5D7
100
AcDbDictionary
281
     1
  0
ACDBDICTIONARYWDFLT
  5
5D9
102
{ACAD_REACTORS
330
5D7
102
}
330
5D7
100
AcDbDictionary
281
     1
  3
Normal
350
5DA
100
AcDbDictionaryWithDefault
340
5DA
  0
DICTIONARY
  5
611
102
{ACAD_REACTORS
330
5D7
102
}
330
5D7
100
AcDbDictionary
281
     1
  3
A0
350
612
  3
A1
350
613
  3
A2
350
614
  3
A3
350
615
  3
A4
350
616
  3
A5
350
617
  3
A6
350
618
  3
A7
350
619
  3
A8
350
61A
  3
A9
350
61B
  3
B1
350
61C
  3
B2
350
61D
  3
B3
350
61E
  3
B4
350
61F
  3
B5
350
620
  3
B6
350
621
  3
B7
350
622
  0
DICTIONARY
  5
6CE
102
{ACAD_REACTORS
330
5D7
102
}
330
5D7
100
AcDbDictionary
281
     1
  0
DICTIONARY
  5
623
102
{ACAD_REACTORS
330
5D7
102
}
330
5D7
100
AcDbDictionary
281
     1
  3
Standard
350
624
  0
DICTIONARY
  5
5F4
102
{ACAD_REACTORS
330
5D7
102
}
330
5D7
100
AcDbDictionary
281
     1
  3
2dWireframe
350
5F9
  3
Basic
350
5FC
  3
Brighten
350
600
  3
ColorChange
350
604
  3
Conceptual
350
5FE
  3
Dim
350
5FF
  3
EdgeColorOff
350
607
  3
Facepattern
350
603
  3
Flat
350
5F5
  3
FlatWithEdges
350
5F6
  3
Gouraud
350
5F7
  3
GouraudWithEdges
350
5F8
  3
Hidden
350
5FB
  3
JitterOff
350
605
  3
Linepattern
350
602
  3
OverhangOff
350
606
  3
Realistic
350
5FD
  3
Shaded
350
60C
  3
Shaded with edges
350
60B
  3
Shades of Gray
350
608
  3
Sketchy
350
609
  3
Thicken
350
601
  3
Wireframe
350
5FA
  3
X-Ray
350
60A
  0
XRECORD
  5
6CA
102
{ACAD_REACTORS
330
5D7
102
}
330
5D7
100
AcDbXrecord
280
     1
 90
        1
330
624
  0
DICTIONARY
  5
6C6
102
{ACAD_REACTORS
330
5D7
102
}
330
5D7
100
AcDbDictionary
281
     1
  3
CANNOSCALE
350
6C7
  3
CMLEADERSTYLE
350
6CC
  3
CTABLESTYLE
350
6CB
  0
DICTIONARY
  5
629
102
{ACAD_REACTORS
330
5D7
102
}
330
5D7
100
AcDbDictionary
281
     1
  3
Cam/GCodeOffsetIN/AlwaysWriteG1
350
62B
  3
Cam/GCodeOffsetIN/CamArcInterpolation
350
62C
  3
Cam/GCodeOffsetIN/CamArcSegmentLength
350
62D
  3
Cam/GCodeOffsetIN/CamAutoRegenerateToolpaths
350
62E
  3
Cam/GCodeOffsetIN/CamEllipseSegments
350
62F
  3
Cam/GCodeOffsetIN/CamHomeX
350
630
  3
Cam/GCodeOffsetIN/CamHomeY
350
631
  3
Cam/GCodeOffsetIN/CamProgramName
350
632
  3
Cam/GCodeOffsetIN/CamSplineMaxRadius
350
633
  3
Cam/GCodeOffsetIN/CamSplineTolerance
350
634
  3
Cam/GCodeOffsetIN/CamTolerance
350
635
  3
Cam/GCodeOffsetIN/CamZSafety
350
636
  3
Cam/GCodeOffsetMM/AlwaysWriteG1
350
637
  3
Cam/GCodeOffsetMM/CamArcInterpolation
350
638
  3
Cam/GCodeOffsetMM/CamArcSegmentLength
350
639
  3
Cam/GCodeOffsetMM/CamAutoRegenerateToolpaths
350
63A
  3
Cam/GCodeOffsetMM/CamEllipseSegments
350
63B
  3
Cam/GCodeOffsetMM/CamHomeX
350
63C
  3
Cam/GCodeOffsetMM/CamHomeY
350
63D
  3
Cam/GCodeOffsetMM/CamProgramName
350
63E
  3
Cam/GCodeOffsetMM/CamSplineMaxRadius
350
63F
  3
Cam/GCodeOffsetMM/CamSplineTolerance
350
640
  3
Cam/GCodeOffsetMM/CamTolerance
350
641
  3
Cam/GCodeOffsetMM/CamZSafety
350
642
  3
CamExport/ConfigV2
350
643
  3
CamExport/GCodeOffsetIN/Output
350
644
  3
CamExport/GCodeOffsetMM/Output
350
645
  3
ColorSettings/BackgroundColor
350
646
  3
ColorSettings/ColorMode
350
647
  3
Grid/DisplayGrid00
350
648
  3
Grid/DisplayGrid01
350
649
  3
Grid/DisplayGrid02
350
64A
  3
Grid/DisplayGrid03
350
64B
  3
Grid/GridSpacingX00
350
64C
  3
Grid/GridSpacingX01
350
64D
  3
Grid/GridSpacingX02
350
64E
  3
Grid/GridSpacingX03
350
64F
  3
Grid/GridSpacingY00
350
650
  3
Grid/GridSpacingY01
350
651
  3
Grid/GridSpacingY02
350
652
  3
Grid/GridSpacingY03
350
653
  3
Grid/IsometricGrid00
350
654
  3
Grid/IsometricGrid01
350
655
  3
Grid/IsometricGrid02
350
656
  3
Grid/IsometricGrid03
350
657
  3
Grid/IsometricProjection00
350
658
  3
Grid/IsometricProjection01
350
659
  3
Grid/IsometricProjection02
350
65A
  3
Grid/IsometricProjection03
350
65B
  3
Grid/MetaGridSpacingX00
350
65C
  3
Grid/MetaGridSpacingX01
350
65D
  3
Grid/MetaGridSpacingX02
350
65E
  3
Grid/MetaGridSpacingX03
350
65F
  3
Grid/MetaGridSpacingY00
350
660
  3
Grid/MetaGridSpacingY01
350
661
  3
Grid/MetaGridSpacingY02
350
662
  3
Grid/MetaGridSpacingY03
350
663
  3
MultiPageSettings/Columns
350
664
  3
MultiPageSettings/GlueMarginsBottom
350
665
  3
MultiPageSettings/GlueMarginsLeft
350
666
  3
MultiPageSettings/GlueMarginsRight
350
667
  3
MultiPageSettings/GlueMarginsTop
350
668
  3
MultiPageSettings/PrintCropMarks
350
669
  3
MultiPageSettings/Rows
350
66A
  3
PageSettings/OffsetX
350
66B
  3
PageSettings/OffsetY
350
66C
  3
PageSettings/PageOrientation
350
66D
  3
PageSettings/PaperHeight
350
66E
  3
PageSettings/PaperWidth
350
66F
  3
PageSettings/Scale
350
670
  3
PageSettings/ShowPaperBorders
350
671
  3
PageTagSettings/EnablePageTags
350
672
  3
PageTagSettings/TagAlignment
350
673
  3
PageTagSettings/TagFont
350
674
  3
PageTagSettings/TagPosition
350
675
  3
QCADVersion
350
676
  3
UnitSettings/PaperUnit
350
677
  3
ViewportCenter
350
678
  3
ViewportHeight
350
679
  3
ViewportWidth
350
67A
  0
LAYOUT
  5
5E8
102
{ACAD_REACTORS
330
5E4
102
}
330
5E4
100
AcDbPlotSettings
  1

  2
none_device
  4
Letter_(8.50_x_11.00_Inches)
  6

 40
6.35
 41
6.35
 42
6.35001
 43
6.35001
 44
215.9
 45
279.4
 46
0.0
 47
0.0
 48
0.0
 49
0.0
140
0.0
141
0.0
142
1.0
143
1.0
 70
   688
 72
     0
 73
     1
 74
     5
  7

 75
    16
 76
     0
 77
     2
 78
   300
147
1.0
148
0.0
149
0.0
100
AcDbLayout
  1
Layout1
 70
     1
 71
     1
 10
-0.25
 20
-0.25
 11
10.75
 21
8.25
 12
0.0
 22
0.0
 32
0.0
 14
1.000000000000000E+20
 24
1.000000000000000E+20
 34
1.000000000000000E+20
 15
-1.000000000000000E+20
 25
-1.000000000000000E+20
 35
-1.000000000000000E+20
146
0.0
 13
0.0
 23
0.0
 33
0.0
 16
1.0
 26
0.0
 36
0.0
 17
0.0
 27
1.0
 37
0.0
 76
     0
330
5E5
331
6BB
  0
LAYOUT
  5
5EC
102
{ACAD_REACTORS
330
5E4
102
}
330
5E4
100
AcDbPlotSettings
  1

  2
none_device
  4
Letter_(8.50_x_11.00_Inches)
  6

 40
6.35
 41
6.35
 42
6.35000508
 43
6.35000508
 44
215.9
 45
279.4
 46
0.0
 47
0.0
 48
0.0
 49
0.0
140
0.0
141
0.0
142
1.0
143
1.0
 70
  1712
 72
     0
 73
     0
 74
     0
  7

 75
     0
 76
     0
 77
     2
 78
   300
147
1.0
148
0.0
149
0.0
100
AcDbLayout
  1
Model
 70
     1
 71
     0
 10
0.0
 20
0.0
 11
12.0
 21
9.0
 12
0.0
 22
0.0
 32
0.0
 14
0.0
 24
-0.0000000000000007
 34
-0.77
 15
12.12500000000002
 25
10.25
 35
2.0
146
0.0
 13
0.0
 23
0.0
 33
0.0
 16
1.0
 26
0.0
 36
0.0
 17
0.0
 27
1.0
 37
0.0
 76
     0
330
5E9
331
5F3
  0
MATERIAL
  5
60F
102
{ACAD_REACTORS
330
60D
102
}
330
60D
100
AcDbMaterial
  1
ByBlock
 72
     1
 94
      127
  0
MATERIAL
  5
60E
102
{ACAD_REACTORS
330
60D
102
}
330
60D
100
AcDbMaterial
  1
ByLayer
 72
     1
 94
      127
  0
MATERIAL
  5
610
102
{ACAD_REACTORS
330
60D
102
}
330
60D
100
AcDbMaterial
  1
Global
 72
     1
 94
      127
  0
MLEADERSTYLE
  5
626
102
{ACAD_REACTORS
330
625
102
}
330
625
100
AcDbMLeaderStyle
179
     2
170
     2
171
     1
172
     0
 90
        2
 40
0.0
 41
0.0
173
     1
 91
-1056964608
340
5DE
 92
       -2
290
     1
 42
0.09
291
     1
 43
0.36
  3
Standard
341
0
 44
0.18
300

342
5DC
174
     1
178
     6
175
     1
176
     0
 93
-1056964608
 45
0.18
292
     0
297
     0
 46
0.18
343
0
 94
-1056964608
 47
1.0
 49
1.0
140
1.0
293
     1
141
0.0
294
     1
177
     0
142
1.0
295
     0
296
     0
143
0.125
271
     0
272
     9
273
     9
298
     0
  0
MLINESTYLE
  5
5E2
102
{ACAD_REACTORS
330
5E1
102
}
330
5E1
100
AcDbMlineStyle
  2
Standard
 70
     0
  3

 62
   256
 51
90.0
 52
90.0
 71
     2
 49
0.5
 62
   256
  6
BYLAYER
 49
-0.5
 62
   256
  6
BYLAYER
  0
ACDBPLACEHOLDER
  5
5DA
102
{ACAD_REACTORS
330
5D9
102
}
330
5D9
  0
SCALE
  5
612
102
{ACAD_REACTORS
330
611
102
}
330
611
100
AcDbScale
 70
     0
300
1:1
140
1.0
141
1.0
290
     1
  0
SCALE
  5
613
102
{ACAD_REACTORS
330
611
102
}
330
611
100
AcDbScale
 70
     0
300
1/128" = 1'-0"
140
0.0078125
141
12.0
290
     0
  0
SCALE
  5
614
102
{ACAD_REACTORS
330
611
102
}
330
611
100
AcDbScale
 70
     0
300
1/64" = 1'-0"
140
0.015625
141
12.0
290
     0
  0
SCALE
  5
615
102
{ACAD_REACTORS
330
611
102
}
330
611
100
AcDbScale
 70
     0
300
1/32" = 1'-0"
140
0.03125
141
12.0
290
     0
  0
SCALE
  5
616
102
{ACAD_REACTORS
330
611
102
}
330
611
100
AcDbScale
 70
     0
300
1/16" = 1'-0"
140
0.0625
141
12.0
290
     0
  0
SCALE
  5
617
102
{ACAD_REACTORS
330
611
102
}
330
611
100
AcDbScale
 70
     0
300
3/32" = 1'-0"
140
0.09375
141
12.0
290
     0
  0
SCALE
  5
618
102
{ACAD_REACTORS
330
611
102
}
330
611
100
AcDbScale
 70
     0
300
1/8" = 1'-0"
140
0.125
141
12.0
290
     0
  0
SCALE
  5
619
102
{ACAD_REACTORS
330
611
102
}
330
611
100
AcDbScale
 70
     0
300
3/16" = 1'-0"
140
0.1875
141
12.0
290
     0
  0
SCALE
  5
61A
102
{ACAD_REACTORS
330
611
102
}
330
611
100
AcDbScale
 70
     0
300
1/4" = 1'-0"
140
0.25
141
12.0
290
     0
  0
SCALE
  5
61B
102
{ACAD_REACTORS
330
611
102
}
330
611
100
AcDbScale
 70
     0
300
3/8" = 1'-0"
140
0.375
141
12.0
290
     0
  0
SCALE
  5
61C
102
{ACAD_REACTORS
330
611
102
}
330
611
100
AcDbScale
 70
     0
300
1/2" = 1'-0"
140
0.5
141
12.0
290
     0
  0
SCALE
  5
61D
102
{ACAD_REACTORS
330
611
102
}
330
611
100
AcDbScale
 70
     0
300
3/4" = 1'-0"
140
0.75
141
12.0
290
     0
  0
SCALE
  5
61E
102
{ACAD_REACTORS
330
611
102
}
330
611
100
AcDbScale
 70
     0
300
1" = 1'-0"
140
1.0
141
12.0
290
     0
  0
SCALE
  5
61F
102
{ACAD_REACTORS
330
611
102
}
330
611
100
AcDbScale
 70
     0
300
1-1/2" = 1'-0"
140
1.5
141
12.0
290
     0
  0
SCALE
  5
620
102
{ACAD_REACTORS
330
611
102
}
330
611
100
AcDbScale
 70
     0
300
3" = 1'-0"
140
3.0
141
12.0
290
     0
  0
SCALE
  5
621
102
{ACAD_REACTORS
330
611
102
}
330
611
100
AcDbScale
 70
     0
300
6" = 1'-0"
140
6.0
141
12.0
290
     0
  0
SCALE
  5
622
102
{ACAD_REACTORS
330
611
102
}
330
611
100
AcDbScale
 70
     0
300
1'-0" = 1'-0"
140
12.0
141
12.0
290
     0
  0
TABLESTYLE
  5
624
102
{ACAD_REACTORS
330
623
102
}
102
{ACAD_XDICTIONARY
360
6C8
102
}
330
623
100
AcDbTableStyle
  3
Standard
 70
     0
 71
     0
 40
0.06
 41
0.06
280
     0
281
     0
  7
Standard
140
0.18
170
     2
 62
     0
 63
   257
283
     0
 90
        4
 91
        0
  1

274
    -2
284
     1
 64
     0
275
    -2
285
     1
 65
     0
276
    -2
286
     1
 66
     0
277
    -2
287
     1
 67
     0
278
    -2
288
     1
 68
     0
279
    -2
289
     1
 69
     0
  7
Standard
140
0.25
170
     5
 62
     0
 63
   257
283
     0
 90
        4
 91
        0
  1

274
    -2
284
     1
 64
     0
275
    -2
285
     1
 65
     0
276
    -2
286
     1
 66
     0
277
    -2
287
     1
 67
     0
278
    -2
288
     1
 68
     0
279
    -2
289
     1
 69
     0
  7
Standard
140
0.18
170
     5
 62
     0
 63
   257
283
     0
 90
        4
 91
        0
  1

274
    -2
284
     1
 64
     0
275
    -2
285
     1
 65
     0
276
    -2
286
     1
 66
     0
277
    -2
287
     1
 67
     0
278
    -2
288
     1
 68
     0
279
    -2
289
     1
 69
     0
  0
VISUALSTYLE
  5
5F9
102
{ACAD_REACTORS
330
5F4
102
}
330
5F4
100
AcDbVisualStyle
  2
2dWireframe
 70
     4
177
     3
291
     0
 70
    58
 90
        0
176
     1
 90
        2
176
     1
 90
        0
176
     1
 90
        0
176
     1
 40
0.6
176
     1
 40
30.0
176
     1
 62
     7
420
 16777215
176
     1
 90
        1
176
     1
 90
        4
176
     1
 62
     7
176
     1
 62
   257
176
     1
 90
        1
176
     1
 90
        1
176
     1
 40
1.0
176
     1
 90
        0
176
     1
 62
   257
176
     1
 40
1.0
176
     1
 90
        1
176
     1
 90
        6
176
     1
 90
        2
176
     1
 62
     7
176
     1
 90
        5
176
     1
 90
        0
176
     1
 90
        0
176
     1
290
     0
176
     1
 90
        1
176
     1
 40
0.0
176
     1
 90
        0
176
     1
290
     1
176
     1
290
     1
176
     1
290
     0
176
     1
290
     0
176
     1
290
     0
176
     1
290
     0
176
     1
290
     0
176
     1
290
     0
176
     1
290
     0
176
     1
 90
       50
176
     1
 40
0.0
176
     1
 40
1.0
176
     1
 90
        0
176
     1
 62
    18
420
        0
176
     1
 90
       50
176
     1
 90
        3
176
     1
 62
     5
420
      255
176
     1
290
     0
176
     1
 90
       50
176
     1
 90
       50
176
     1
 90
       50
176
     1
290
     0
176
     1
 90
       50
176
     1
 62
   256
176
     0
 40
1.0
176
     0
 90
        2
176
     1
  1
strokes_ogs.tif
176
     1
290
     0
176
     1
 40
1.0
176
     1
 40
1.0
176
     1
  0
VISUALSTYLE
  5
5FC
102
{ACAD_REACTORS
330
5F4
102
}
330
5F4
100
AcDbVisualStyle
  2
Basic
 70
     7
177
     3
291
     1
 70
    58
 90
        1
176
     1
 90
        0
176
     1
 90
        1
176
     1
 90
        0
176
     1
 40
0.6
176
     1
 40
30.0
176
     1
 62
     7
420
 16777215
176
     1
 90
        0
176
     1
 90
        4
176
     1
 62
     7
176
     1
 62
   257
176
     1
 90
        1
176
     1
 90
        1
176
     1
 40
1.0
176
     1
 90
        8
176
     1
 62
     7
176
     1
 40
1.0
176
     1
 90
        1
176
     1
 90
        6
176
     1
 90
        2
176
     1
 62
     7
176
     1
 90
        5
176
     1
 90
        0
176
     1
 90
        0
176
     1
290
     0
176
     1
 90
        1
176
     1
 40
0.0
176
     1
 90
        0
176
     1
290
     0
176
     1
290
     1
176
     1
290
     1
176
     1
290
     0
176
     1
290
     0
176
     1
290
     0
176
     1
290
     0
176
     1
290
     0
176
     1
290
     0
176
     1
 90
       50
176
     1
 40
0.0
176
     1
 40
1.0
176
     1
 90
        0
176
     1
 62
    18
420
        0
176
     1
 90
       50
176
     1
 90
        3
176
     1
 62
     5
420
      255
176
     1
290
     0
176
     1
 90
       50
176
     1
 90
       50
176
     1
 90
       50
176
     1
290
     0
176
     1
 90
       50
176
     1
 62
   256
176
     0
 40
1.0
176
     0
 90
        2
176
     1
  1
strokes_ogs.tif
176
     1
290
     0
176
     1
 40
1.0
176
     1
 40
1.0
176
     1
  0
VISUALSTYLE
  5
600
102
{ACAD_REACTORS
330
5F4
102
}
330
5F4
100
AcDbVisualStyle
  2
Brighten
 70
    12
177
     3
291
     1
 70
    58
 90
        2
176
     1
 90
        2
176
     1
 90
        0
176
     1
 90
        0
176
     1
 40
0.6
176
     1
 40
30.0
176
     1
 62
     7
420
 16777215
176
     1
 90
        1
176
     1
 90
        4
176
     1
 62
     7
176
     1
 62
   257
176
     1
 90
        1
176
     1
 90
        1
176
     1
 40
1.0
176
     1
 90
        8
176
     1
 62
     7
176
     1
 40
1.0
176
     1
 90
        1
176
     1
 90
        6
176
     1
 90
        2
176
     1
 62
     7
176
     1
 90
        5
176
     1
 90
        0
176
     1
 90
        0
176
     1
290
     0
176
     1
 90
        1
176
     1
 40
50.0
176
     1
 90
        0
176
     1
290
     0
176
     1
290
     1
176
     1
290
     1
176
     1
290
     0
176
     1
290
     0
176
     1
290
     0
176
     1
290
     0
176
     1
290
     0
176
     1
290
     0
176
     1
 90
       50
176
     1
 40
0.0
176
     1
 40
1.0
176
     1
 90
        0
176
     1
 62
    18
420
        0
176
     1
 90
       50
176
     1
 90
        3
176
     1
 62
     5
420
      255
176
     1
290
     0
176
     1
 90
       50
176
     1
 90
       50
176
     1
 90
       50
176
     1
290
     0
176
     1
 90
       50
176
     1
 62
   256
176
     0
 40
1.0
176
     0
 90
        2
176
     1
  1
strokes_ogs.tif
176
     1
290
     0
176
     1
 40
1.0
176
     1
 40
1.0
176
     1
  0
VISUALSTYLE
  5
604
102
{ACAD_REACTORS
330
5F4
102
}
330
5F4
100
AcDbVisualStyle
  2
ColorChange
 70
    16
177
     3
291
     1
 70
    58
 90
        2
176
     1
 90
        2
176
     1
 90
        3
176
     1
 90
        0
176
     1
 40
0.6
176
     1
 40
30.0
176
     1
 62
     8
420
  8421504
176
     1
 90
        1
176
     1
 90
        4
176
     1
 62
     7
176
     1
 62
   257
176
     1
 90
        1
176
     1
 90
        1
176
     1
 40
1.0
176
     1
 90
        8
176
     1
 62
     8
420
  8421504
176
     1
 40
1.0
176
     1
 90
        1
176
     1
 90
        6
176
     1
 90
        2
176
     1
 62
     7
176
     1
 90
        5
176
     1
 90
        0
176
     1
 90
        0
176
     1
290
     0
176
     1
 90
        1
176
     1
 40
0.0
176
     1
 90
        0
176
     1
290
     0
176
     1
290
     1
176
     1
290
     1
176
     1
290
     0
176
     1
290
     0
176
     1
290
     0
176
     1
290
     0
176
     1
290
     0
176
     1
290
     0
176
     1
 90
       50
176
     1
 40
0.0
176
     1
 40
1.0
176
     1
 90
        0
176
     1
 62
    18
420
        0
176
     1
 90
       50
176
     1
 90
        3
176
     1
 62
     5
420
      255
176
     1
290
     0
176
     1
 90
       50
176
     1
 90
       50
176
     1
 90
       50
176
     1
290
     0
176
     1
 90
       50
176
     1
 62
   256
176
     0
 40
1.0
176
     0
 90
        2
176
     1
  1
strokes_ogs.tif
176
     1
290
     0
176
     1
 40
1.0
176
     1
 40
1.0
176
     1
  0
VISUALSTYLE
  5
5FE
102
{ACAD_REACTORS
330
5F4
102
}
330
5F4
100
AcDbVisualStyle
  2
Conceptual
 70
     9
177
     3
291
     0
 70
    58
 90
        3
176
     1
 90
        2
176
     1
 90
        0
176
     1
 90
        0
176
     1
 40
0.6
176
     1
 40
30.0
176
     1
 62
     7
420
 16777215
176
     1
 90
        2
176
     1
 90
        2
176
     1
 62
     7
176
     1
 62
   257
176
     1
 90
        1
176
     1
 90
        1
176
     1
 40
179.0
176
     1
 90
        8
176
     1
 62
     7
176
     1
 40
1.0
176
     1
 90
        1
176
     1
 90
        6
176
     1
 90
        2
176
     1
 62
     7
176
     1
 90
        3
176
     1
 90
        0
176
     1
 90
        0
176
     1
290
     0
176
     1
 90
        1
176
     1
 40
0.0
176
     1
 90
        0
176
     1
290
     0
176
     1
290
     1
176
     1
290
     1
176
     1
290
     0
176
     1
290
     0
176
     1
290
     0
176
     1
290
     0
176
     1
290
     0
176
     1
290
     0
176
     1
 90
       50
176
     1
 40
0.0
176
     1
 40
1.0
176
     1
 90
        0
176
     1
 62
    18
420
        0
176
     1
 90
       50
176
     1
 90
        3
176
     1
 62
     5
420
      255
176
     1
290
     0
176
     1
 90
       50
176
     1
 90
       50
176
     1
 90
       50
176
     1
290
     0
176
     1
 90
       50
176
     1
 62
   256
176
     0
 40
1.0
176
     0
 90
        2
176
     1
  1
strokes_ogs.tif
176
     1
290
     0
176
     1
 40
1.0
176
     1
 40
1.0
176
     1
  0
VISUALSTYLE
  5
5FF
102
{ACAD_REACTORS
330
5F4
102
}
330
5F4
100
AcDbVisualStyle
  2
Dim
 70
    11
177
     3
291
     1
 70
    58
 90
        2
176
     1
 90
        2
176
     1
 90
        0
176
     1
 90
        0
176
     1
 40
0.6
176
     1
 40
30.0
176
     1
 62
     7
420
 16777215
176
     1
 90
        1
176
     1
 90
        4
176
     1
 62
     7
176
     1
 62
   257
176
     1
 90
        1
176
     1
 90
        1
176
     1
 40
1.0
176
     1
 90
        8
176
     1
 62
     7
176
     1
 40
1.0
176
     1
 90
        1
176
     1
 90
        6
176
     1
 90
        2
176
     1
 62
     7
176
     1
 90
        5
176
     1
 90
        0
176
     1
 90
        0
176
     1
290
     0
176
     1
 90
        1
176
     1
 40
-50.0
176
     1
 90
        0
176
     1
290
     0
176
     1
290
     1
176
     1
290
     1
176
     1
290
     0
176
     1
290
     0
176
     1
290
     0
176
     1
290
     0
176
     1
290
     0
176
     1
290
     0
176
     1
 90
       50
176
     1
 40
0.0
176
     1
 40
1.0
176
     1
 90
        0
176
     1
 62
    18
420
        0
176
     1
 90
       50
176
     1
 90
        3
176
     1
 62
     5
420
      255
176
     1
290
     0
176
     1
 90
       50
176
     1
 90
       50
176
     1
 90
       50
176
     1
290
     0
176
     1
 90
       50
176
     1
 62
   256
176
     0
 40
1.0
176
     0
 90
        2
176
     1
  1
strokes_ogs.tif
176
     1
290
     0
176
     1
 40
1.0
176
     1
 40
1.0
176
     1
  0
VISUALSTYLE
  5
607
102
{ACAD_REACTORS
330
5F4
102
}
330
5F4
100
AcDbVisualStyle
  2
EdgeColorOff
 70
    22
177
     3
291
     1
 70
    58
 90
        2
176
     0
 90
        2
176
     0
 90
        0
176
     0
 90
        0
176
     0
 40
0.6
176
     0
 40
30.0
176
     0
 62
     7
420
 16777215
176
     0
 90
        1
176
     0
 90
        4
176
     0
 62
     7
176
     0
 62
   257
176
     0
 90
        1
176
     0
 90
        1
176
     0
 40
1.0
176
     0
 90
        8
176
     2
 62
     7
176
     0
 40
1.0
176
     0
 90
        1
176
     0
 90
        6
176
     0
 90
        2
176
     0
 62
     7
176
     0
 90
        5
176
     0
 90
        0
176
     0
 90
        0
176
     0
290
     0
176
     0
 90
        1
176
     0
 40
0.0
176
     0
 90
        0
176
     0
290
     0
176
     0
290
     1
176
     0
290
     1
176
     0
290
     0
176
     0
290
     0
176
     0
290
     0
176
     0
290
     0
176
     0
290
     0
176
     0
290
     0
176
     0
 90
       50
176
     0
 40
0.0
176
     0
 40
1.0
176
     0
 90
        0
176
     0
 62
    18
420
        0
176
     0
 90
       50
176
     0
 90
        3
176
     0
 62
     5
420
      255
176
     0
290
     0
176
     0
 90
       50
176
     0
 90
       50
176
     0
 90
       50
176
     0
290
     0
176
     0
 90
       50
176
     0
 62
   256
176
     0
 40
1.0
176
     0
 90
        2
176
     0
  1
strokes_ogs.tif
176
     0
290
     0
176
     0
 40
1.0
176
     0
 40
1.0
176
     0
  0
VISUALSTYLE
  5
603
102
{ACAD_REACTORS
330
5F4
102
}
330
5F4
100
AcDbVisualStyle
  2
Facepattern
 70
    15
177
     3
291
     1
 70
    58
 90
        2
176
     1
 90
        2
176
     1
 90
        0
176
     1
 90
        0
176
     1
 40
0.6
176
     1
 40
30.0
176
     1
 62
     7
420
 16777215
176
     1
 90
        1
176
     1
 90
        4
176
     1
 62
     7
176
     1
 62
   257
176
     1
 90
        1
176
     1
 90
        1
176
     1
 40
1.0
176
     1
 90
        8
176
     1
 62
     7
176
     1
 40
1.0
176
     1
 90
        1
176
     1
 90
        6
176
     1
 90
        2
176
     1
 62
     7
176
     1
 90
        5
176
     1
 90
        0
176
     1
 90
        0
176
     1
290
     0
176
     1
 90
        1
176
     1
 40
0.0
176
     1
 90
        0
176
     1
290
     0
176
     1
290
     1
176
     1
290
     1
176
     1
290
     0
176
     1
290
     0
176
     1
290
     0
176
     1
290
     0
176
     1
290
     0
176
     1
290
     0
176
     1
 90
       50
176
     1
 40
0.0
176
     1
 40
1.0
176
     1
 90
        0
176
     1
 62
    18
420
        0
176
     1
 90
       50
176
     1
 90
        3
176
     1
 62
     5
420
      255
176
     1
290
     0
176
     1
 90
       50
176
     1
 90
       50
176
     1
 90
       50
176
     1
290
     0
176
     1
 90
       50
176
     1
 62
   256
176
     0
 40
1.0
176
     0
 90
        2
176
     1
  1
strokes_ogs.tif
176
     1
290
     0
176
     1
 40
1.0
176
     1
 40
1.0
176
     1
  0
VISUALSTYLE
  5
5F5
102
{ACAD_REACTORS
330
5F4
102
}
330
5F4
100
AcDbVisualStyle
  2
Flat
 70
     0
177
     3
291
     1
 70
    58
 90
        2
176
     1
 90
        1
176
     1
 90
        1
176
     1
 90
        2
176
     1
 40
0.6
176
     1
 40
30.0
176
     1
 62
     7
420
 16777215
176
     1
 90
        0
176
     1
 90
        0
176
     1
 62
     7
176
     1
 62
   257
176
     1
 90
        1
176
     1
 90
        1
176
     1
 40
1.0
176
     1
 90
        8
176
     1
 62
     7
176
     1
 40
1.0
176
     1
 90
        1
176
     1
 90
        6
176
     1
 90
        2
176
     1
 62
     7
176
     1
 90
        5
176
     1
 90
        0
176
     1
 90
        0
176
     1
290
     0
176
     1
 90
       13
176
     1
 40
0.0
176
     1
 90
        0
176
     1
290
     0
176
     1
290
     1
176
     1
290
     1
176
     1
290
     0
176
     1
290
     0
176
     1
290
     0
176
     1
290
     0
176
     1
290
     0
176
     1
290
     0
176
     1
 90
       50
176
     1
 40
0.0
176
     1
 40
1.0
176
     1
 90
        0
176
     1
 62
    18
420
        0
176
     1
 90
       50
176
     1
 90
        3
176
     1
 62
     5
420
      255
176
     1
290
     0
176
     1
 90
       50
176
     1
 90
       50
176
     1
 90
       50
176
     1
290
     0
176
     1
 90
       50
176
     1
 62
   256
176
     0
 40
1.0
176
     0
 90
        2
176
     1
  1
strokes_ogs.tif
176
     1
290
     0
176
     1
 40
1.0
176
     1
 40
1.0
176
     1
  0
VISUALSTYLE
  5
5F6
102
{ACAD_REACTORS
330
5F4
102
}
330
5F4
100
AcDbVisualStyle
  2
FlatWithEdges
 70
     1
177
     3
291
     1
 70
    58
 90
        2
176
     1
 90
        1
176
     1
 90
        1
176
     1
 90
        2
176
     1
 40
0.6
176
     1
 40
30.0
176
     1
 62
     7
420
 16777215
176
     1
 90
        1
176
     1
 90
        0
176
     1
 62
     7
176
     1
 62
   257
176
     1
 90
        1
176
     1
 90
        1
176
     1
 40
1.0
176
     1
 90
        0
176
     1
 62
   257
176
     1
 40
1.0
176
     1
 90
        1
176
     1
 90
        6
176
     1
 90
        2
176
     1
 62
     7
176
     1
 90
        5
176
     1
 90
        0
176
     1
 90
        0
176
     1
290
     0
176
     1
 90
       13
176
     1
 40
0.0
176
     1
 90
        0
176
     1
290
     0
176
     1
290
     1
176
     1
290
     1
176
     1
290
     0
176
     1
290
     0
176
     1
290
     0
176
     1
290
     0
176
     1
290
     0
176
     1
290
     0
176
     1
 90
       50
176
     1
 40
0.0
176
     1
 40
1.0
176
     1
 90
        0
176
     1
 62
    18
420
        0
176
     1
 90
       50
176
     1
 90
        3
176
     1
 62
     5
420
      255
176
     1
290
     0
176
     1
 90
       50
176
     1
 90
       50
176
     1
 90
       50
176
     1
290
     0
176
     1
 90
       50
176
     1
 62
   256
176
     0
 40
1.0
176
     0
 90
        2
176
     1
  1
strokes_ogs.tif
176
     1
290
     0
176
     1
 40
1.0
176
     1
 40
1.0
176
     1
  0
VISUALSTYLE
  5
5F7
102
{ACAD_REACTORS
330
5F4
102
}
330
5F4
100
AcDbVisualStyle
  2
Gouraud
 70
     2
177
     3
291
     1
 70
    58
 90
        2
176
     1
 90
        2
176
     1
 90
        1
176
     1
 90
        2
176
     1
 40
0.6
176
     1
 40
30.0
176
     1
 62
     7
420
 16777215
176
     1
 90
        0
176
     1
 90
        0
176
     1
 62
     7
176
     1
 62
   257
176
     1
 90
        1
176
     1
 90
        1
176
     1
 40
1.0
176
     1
 90
        0
176
     1
 62
     7
176
     1
 40
1.0
176
     1
 90
        1
176
     1
 90
        6
176
     1
 90
        2
176
     1
 62
     7
176
     1
 90
        5
176
     1
 90
        0
176
     1
 90
        0
176
     1
290
     0
176
     1
 90
       13
176
     1
 40
0.0
176
     1
 90
        0
176
     1
290
     0
176
     1
290
     1
176
     1
290
     1
176
     1
290
     0
176
     1
290
     0
176
     1
290
     0
176
     1
290
     0
176
     1
290
     0
176
     1
290
     0
176
     1
 90
       50
176
     1
 40
0.0
176
     1
 40
1.0
176
     1
 90
        0
176
     1
 62
    18
420
        0
176
     1
 90
       50
176
     1
 90
        3
176
     1
 62
     5
420
      255
176
     1
290
     0
176
     1
 90
       50
176
     1
 90
       50
176
     1
 90
       50
176
     1
290
     0
176
     1
 90
       50
176
     1
 62
   256
176
     0
 40
1.0
176
     0
 90
        2
176
     1
  1
strokes_ogs.tif
176
     1
290
     0
176
     1
 40
1.0
176
     1
 40
1.0
176
     1
  0
VISUALSTYLE
  5
5F8
102
{ACAD_REACTORS
330
5F4
102
}
330
5F4
100
AcDbVisualStyle
  2
GouraudWithEdges
 70
     3
177
     3
291
     1
 70
    58
 90
        2
176
     1
 90
        2
176
     1
 90
        1
176
     1
 90
        2
176
     1
 40
0.6
176
     1
 40
30.0
176
     1
 62
     7
420
 16777215
176
     1
 90
        1
176
     1
 90
        0
176
     1
 62
     7
176
     1
 62
   257
176
     1
 90
        1
176
     1
 90
        1
176
     1
 40
1.0
176
     1
 90
        0
176
     1
 62
   257
176
     1
 40
1.0
176
     1
 90
        1
176
     1
 90
        6
176
     1
 90
        2
176
     1
 62
     7
176
     1
 90
        5
176
     1
 90
        0
176
     1
 90
        0
176
     1
290
     0
176
     1
 90
       13
176
     1
 40
0.0
176
     1
 90
        0
176
     1
290
     0
176
     1
290
     1
176
     1
290
     1
176
     1
290
     0
176
     1
290
     0
176
     1
290
     0
176
     1
290
     0
176
     1
290
     0
176
     1
290
     0
176
     1
 90
       50
176
     1
 40
0.0
176
     1
 40
1.0
176
     1
 90
        0
176
     1
 62
    18
420
        0
176
     1
 90
       50
176
     1
 90
        3
176
     1
 62
     5
420
      255
176
     1
290
     0
176
     1
 90
       50
176
     1
 90
       50
176
     1
 90
       50
176
     1
290
     0
176
     1
 90
       50
176
     1
 62
   256
176
     0
 40
1.0
176
     0
 90
        2
176
     1
  1
strokes_ogs.tif
176
     1
290
     0
176
     1
 40
1.0
176
     1
 40
1.0
176
     1
  0
VISUALSTYLE
  5
5FB
102
{ACAD_REACTORS
330
5F4
102
}
330
5F4
100
AcDbVisualStyle
  2
Hidden
 70
     6
177
     3
291
     0
 70
    58
 90
        1
176
     1
 90
        2
176
     1
 90
        2
176
     1
 90
        0
176
     1
 40
0.6
176
     1
 40
30.0
176
     1
 62
     7
420
 16777215
176
     1
 90
        2
176
     1
 90
        2
176
     1
 62
     7
176
     1
 62
   257
176
     1
 90
        2
176
     1
 90
        1
176
     1
 40
40.0
176
     1
 90
        0
176
     1
 62
   257
176
     1
 40
1.0
176
     1
 90
        1
176
     1
 90
        6
176
     1
 90
        2
176
     1
 62
     7
176
     1
 90
        3
176
     1
 90
        0
176
     1
 90
        0
176
     1
290
     0
176
     1
 90
        1
176
     1
 40
0.0
176
     1
 90
        0
176
     1
290
     0
176
     1
290
     1
176
     1
290
     1
176
     1
290
     0
176
     1
290
     0
176
     1
290
     0
176
     1
290
     0
176
     1
290
     0
176
     1
290
     0
176
     1
 90
       50
176
     1
 40
0.0
176
     1
 40
1.0
176
     1
 90
        0
176
     1
 62
    18
420
        0
176
     1
 90
       50
176
     1
 90
        3
176
     1
 62
     5
420
      255
176
     1
290
     0
176
     1
 90
       50
176
     1
 90
       50
176
     1
 90
       50
176
     1
290
     0
176
     1
 90
       50
176
     1
 62
   256
176
     0
 40
1.0
176
     0
 90
        2
176
     1
  1
strokes_ogs.tif
176
     1
290
     0
176
     1
 40
1.0
176
     1
 40
1.0
176
     1
  0
VISUALSTYLE
  5
605
102
{ACAD_REACTORS
330
5F4
102
}
330
5F4
100
AcDbVisualStyle
  2
JitterOff
 70
    20
177
     3
291
     1
 70
    58
 90
        2
176
     0
 90
        2
176
     0
 90
        0
176
     0
 90
        0
176
     0
 40
0.6
176
     0
 40
30.0
176
     0
 62
     7
420
 16777215
176
     0
 90
        1
176
     0
 90
        4
176
     0
 62
     7
176
     0
 62
   257
176
     0
 90
        1
176
     0
 90
        1
176
     0
 40
1.0
176
     0
 90
       10
176
     2
 62
     7
176
     0
 40
1.0
176
     0
 90
        1
176
     0
 90
        6
176
     0
 90
        2
176
     0
 62
     7
176
     0
 90
        5
176
     0
 90
        0
176
     0
 90
        0
176
     0
290
     0
176
     0
 90
        1
176
     0
 40
0.0
176
     0
 90
        0
176
     0
290
     0
176
     0
290
     1
176
     0
290
     1
176
     0
290
     0
176
     0
290
     0
176
     0
290
     0
176
     0
290
     0
176
     0
290
     0
176
     0
290
     0
176
     0
 90
       50
176
     0
 40
0.0
176
     0
 40
1.0
176
     0
 90
        0
176
     0
 62
    18
420
        0
176
     0
 90
       50
176
     0
 90
        3
176
     0
 62
     5
420
      255
176
     0
290
     0
176
     0
 90
       50
176
     0
 90
       50
176
     0
 90
       50
176
     0
290
     0
176
     0
 90
       50
176
     0
 62
   256
176
     0
 40
1.0
176
     0
 90
        2
176
     0
  1
strokes_ogs.tif
176
     0
290
     0
176
     0
 40
1.0
176
     0
 40
1.0
176
     0
  0
VISUALSTYLE
  5
602
102
{ACAD_REACTORS
330
5F4
102
}
330
5F4
100
AcDbVisualStyle
  2
Linepattern
 70
    14
177
     3
291
     1
 70
    58
 90
        2
176
     1
 90
        2
176
     1
 90
        0
176
     1
 90
        0
176
     1
 40
0.6
176
     1
 40
30.0
176
     1
 62
     7
420
 16777215
176
     1
 90
        1
176
     1
 90
        4
176
     1
 62
     7
176
     1
 62
   257
176
     1
 90
        7
176
     1
 90
        7
176
     1
 40
1.0
176
     1
 90
        8
176
     1
 62
     7
176
     1
 40
1.0
176
     1
 90
        1
176
     1
 90
        6
176
     1
 90
        2
176
     1
 62
     7
176
     1
 90
        5
176
     1
 90
        0
176
     1
 90
        0
176
     1
290
     0
176
     1
 90
        1
176
     1
 40
0.0
176
     1
 90
        0
176
     1
290
     0
176
     1
290
     1
176
     1
290
     1
176
     1
290
     0
176
     1
290
     0
176
     1
290
     0
176
     1
290
     0
176
     1
290
     0
176
     1
290
     0
176
     1
 90
       50
176
     1
 40
0.0
176
     1
 40
1.0
176
     1
 90
        0
176
     1
 62
    18
420
        0
176
     1
 90
       50
176
     1
 90
        3
176
     1
 62
     5
420
      255
176
     1
290
     0
176
     1
 90
       50
176
     1
 90
       50
176
     1
 90
       50
176
     1
290
     0
176
     1
 90
       50
176
     1
 62
   256
176
     0
 40
1.0
176
     0
 90
        2
176
     1
  1
strokes_ogs.tif
176
     1
290
     0
176
     1
 40
1.0
176
     1
 40
1.0
176
     1
  0
VISUALSTYLE
  5
606
102
{ACAD_REACTORS
330
5F4
102
}
330
5F4
100
AcDbVisualStyle
  2
OverhangOff
 70
    21
177
     3
291
     1
 70
    58
 90
        2
176
     0
 90
        2
176
     0
 90
        0
176
     0
 90
        0
176
     0
 40
0.6
176
     0
 40
30.0
176
     0
 62
     7
420
 16777215
176
     0
 90
        1
176
     0
 90
        4
176
     0
 62
     7
176
     0
 62
   257
176
     0
 90
        1
176
     0
 90
        1
176
     0
 40
1.0
176
     0
 90
        9
176
     2
 62
     7
176
     0
 40
1.0
176
     0
 90
        1
176
     0
 90
        6
176
     0
 90
        2
176
     0
 62
     7
176
     0
 90
        5
176
     0
 90
        0
176
     0
 90
        0
176
     0
290
     0
176
     0
 90
        1
176
     0
 40
0.0
176
     0
 90
        0
176
     0
290
     0
176
     0
290
     1
176
     0
290
     1
176
     0
290
     0
176
     0
290
     0
176
     0
290
     0
176
     0
290
     0
176
     0
290
     0
176
     0
290
     0
176
     0
 90
       50
176
     0
 40
0.0
176
     0
 40
1.0
176
     0
 90
        0
176
     0
 62
    18
420
        0
176
     0
 90
       50
176
     0
 90
        3
176
     0
 62
     5
420
      255
176
     0
290
     0
176
     0
 90
       50
176
     0
 90
       50
176
     0
 90
       50
176
     0
290
     0
176
     0
 90
       50
176
     0
 62
   256
176
     0
 40
1.0
176
     0
 90
        2
176
     0
  1
strokes_ogs.tif
176
     0
290
     0
176
     0
 40
1.0
176
     0
 40
1.0
176
     0
  0
VISUALSTYLE
  5
5FD
102
{ACAD_REACTORS
330
5F4
102
}
330
5F4
100
AcDbVisualStyle
  2
Realistic
 70
     8
177
     3
291
     0
 70
    58
 90
        2
176
     1
 90
        3
176
     1
 90
        0
176
     1
 90
        2
176
     1
 40
0.6
176
     1
 40
30.0
176
     1
 62
     7
420
 16777215
176
     1
 90
        0
176
     1
 90
        0
176
     1
 62
     7
176
     1
 62
   257
176
     1
 90
        1
176
     1
 90
        1
176
     1
 40
1.0
176
     1
 90
        8
176
     1
 62
   257
176
     1
 40
1.0
176
     1
 90
        1
176
     1
 90
        6
176
     1
 90
        2
176
     1
 62
     7
176
     1
 90
        3
176
     1
 90
        0
176
     1
 90
        0
176
     1
290
     0
176
     1
 90
       13
176
     1
 40
0.0
176
     1
 90
        0
176
     1
290
     0
176
     1
290
     1
176
     1
290
     1
176
     1
290
     0
176
     1
290
     0
176
     1
290
     0
176
     1
290
     0
176
     1
290
     0
176
     1
290
     0
176
     1
 90
       50
176
     1
 40
0.0
176
     1
 40
1.0
176
     1
 90
        0
176
     1
 62
    18
420
        0
176
     1
 90
       50
176
     1
 90
        3
176
     1
 62
     5
420
      255
176
     1
290
     0
176
     1
 90
       50
176
     1
 90
       50
176
     1
 90
       50
176
     1
290
     0
176
     1
 90
       50
176
     1
 62
   256
176
     0
 40
1.0
176
     0
 90
        2
176
     1
  1
strokes_ogs.tif
176
     1
290
     0
176
     1
 40
1.0
176
     1
 40
1.0
176
     1
  0
VISUALSTYLE
  5
60C
102
{ACAD_REACTORS
330
5F4
102
}
330
5F4
100
AcDbVisualStyle
  2
Shaded
 70
    27
177
     3
291
     0
 70
    58
 90
        2
176
     1
 90
        2
176
     1
 90
        1
176
     1
 90
        2
176
     1
 40
0.6
176
     1
 40
30.0
176
     1
 62
     7
420
 16777215
176
     1
 90
        0
176
     1
 90
        4
176
     1
 62
     7
176
     1
 62
   257
176
     1
 90
        1
176
     1
 90
        1
176
     1
 40
1.0
176
     1
 90
        8
176
     1
 62
   257
176
     1
 40
1.0
176
     1
 90
        1
176
     1
 90
        6
176
     1
 90
        2
176
     1
 62
     8
420
  7895160
176
     1
 90
        3
176
     1
 90
        0
176
     1
 90
        0
176
     1
290
     0
176
     1
 90
        5
176
     1
 40
0.0
176
     1
 90
        0
176
     1
290
     0
176
     1
290
     1
176
     1
290
     1
176
     1
290
     0
176
     1
290
     0
176
     1
290
     0
176
     1
290
     0
176
     1
290
     0
176
     1
290
     0
176
     1
 90
       50
176
     1
 40
0.0
176
     1
 40
1.0
176
     1
 90
        0
176
     1
 62
    18
420
        0
176
     1
 90
       50
176
     1
 90
        3
176
     1
 62
     5
420
      255
176
     1
290
     0
176
     1
 90
       50
176
     1
 90
       50
176
     1
 90
       50
176
     1
290
     0
176
     1
 90
       50
176
     1
 62
   256
176
     0
 40
1.0
176
     0
 90
        2
176
     1
  1
strokes_ogs.tif
176
     1
290
     0
176
     1
 40
1.0
176
     1
 40
1.0
176
     1
  0
VISUALSTYLE
  5
60B
102
{ACAD_REACTORS
330
5F4
102
}
330
5F4
100
AcDbVisualStyle
  2
Shaded with edges
 70
    26
177
     3
291
     0
 70
    58
 90
        2
176
     1
 90
        2
176
     1
 90
        1
176
     1
 90
        2
176
     1
 40
0.6
176
     1
 40
30.0
176
     1
 62
     7
420
 16777215
176
     1
 90
        1
176
     1
 90
       10
176
     1
 62
     7
176
     1
 62
   257
176
     1
 90
        2
176
     1
 90
        1
176
     1
 40
1.0
176
     1
 90
        8
176
     1
 62
   257
176
     1
 40
1.0
176
     1
 90
        1
176
     1
 90
        6
176
     1
 90
        2
176
     1
 62
     7
176
     1
 90
        3
176
     1
 90
        0
176
     1
 90
        0
176
     1
290
     0
176
     1
 90
        5
176
     1
 40
0.0
176
     1
 90
        0
176
     1
290
     0
176
     1
290
     1
176
     1
290
     1
176
     1
290
     0
176
     1
290
     0
176
     1
290
     0
176
     1
290
     0
176
     1
290
     0
176
     1
290
     0
176
     1
 90
       50
176
     1
 40
0.0
176
     1
 40
1.0
176
     1
 90
        0
176
     1
 62
    18
420
        0
176
     1
 90
       50
176
     1
 90
        3
176
     1
 62
     5
420
      255
176
     1
290
     0
176
     1
 90
       50
176
     1
 90
       50
176
     1
 90
       50
176
     1
290
     0
176
     1
 90
       50
176
     1
 62
   256
176
     0
 40
1.0
176
     0
 90
        2
176
     1
  1
strokes_ogs.tif
176
     1
290
     0
176
     1
 40
1.0
176
     1
 40
1.0
176
     1
  0
VISUALSTYLE
  5
608
102
{ACAD_REACTORS
330
5F4
102
}
330
5F4
100
AcDbVisualStyle
  2
Shades of Gray
 70
    23
177
     3
291
     0
 70
    58
 90
        2
176
     1
 90
        2
176
     1
 90
        3
176
     1
 90
        0
176
     1
 40
0.6
176
     1
 40
30.0
176
     1
 62
     7
420
 16777215
176
     1
 90
        2
176
     1
 90
        2
176
     1
 62
     7
176
     1
 62
     7
176
     1
 90
        1
176
     1
 90
        1
176
     1
 40
40.0
176
     1
 90
        8
176
     1
 62
     7
176
     1
 40
1.0
176
     1
 90
        1
176
     1
 90
        6
176
     1
 90
        2
176
     1
 62
     7
176
     1
 90
        3
176
     1
 90
        0
176
     1
 90
        0
176
     1
290
     0
176
     1
 90
        1
176
     1
 40
0.0
176
     1
 90
        0
176
     1
290
     0
176
     1
290
     1
176
     1
290
     1
176
     1
290
     0
176
     1
290
     0
176
     1
290
     0
176
     1
290
     0
176
     1
290
     0
176
     1
290
     0
176
     1
 90
       50
176
     1
 40
0.0
176
     1
 40
1.0
176
     1
 90
        0
176
     1
 62
    18
420
        0
176
     1
 90
       50
176
     1
 90
        3
176
     1
 62
     5
420
      255
176
     1
290
     0
176
     1
 90
       50
176
     1
 90
       50
176
     1
 90
       50
176
     1
290
     0
176
     1
 90
       50
176
     1
 62
   256
176
     0
 40
1.0
176
     0
 90
        2
176
     1
  1
strokes_ogs.tif
176
     1
290
     0
176
     1
 40
1.0
176
     1
 40
1.0
176
     1
  0
VISUALSTYLE
  5
609
102
{ACAD_REACTORS
330
5F4
102
}
330
5F4
100
AcDbVisualStyle
  2
Sketchy
 70
    24
177
     3
291
     0
 70
    58
 90
        1
176
     1
 90
        2
176
     1
 90
        2
176
     1
 90
        0
176
     1
 40
0.6
176
     1
 40
30.0
176
     1
 62
     7
420
 16777215
176
     1
 90
        2
176
     1
 90
        2
176
     1
 62
     7
176
     1
 62
     7
176
     1
 90
        1
176
     1
 90
        1
176
     1
 40
40.0
176
     1
 90
       11
176
     1
 62
     7
176
     1
 40
1.0
176
     1
 90
        1
176
     1
 90
        6
176
     1
 90
        2
176
     1
 62
     7
176
     1
 90
        6
176
     1
 90
        0
176
     1
 90
        0
176
     1
290
     0
176
     1
 90
        1
176
     1
 40
0.0
176
     1
 90
        0
176
     1
290
     0
176
     1
290
     1
176
     1
290
     1
176
     1
290
     0
176
     1
290
     0
176
     1
290
     0
176
     1
290
     0
176
     1
290
     0
176
     1
290
     0
176
     1
 90
       50
176
     1
 40
0.0
176
     1
 40
1.0
176
     1
 90
        0
176
     1
 62
    18
420
        0
176
     1
 90
       50
176
     1
 90
        3
176
     1
 62
     5
420
      255
176
     1
290
     0
176
     1
 90
       50
176
     1
 90
       50
176
     1
 90
       50
176
     1
290
     0
176
     1
 90
       50
176
     1
 62
   256
176
     0
 40
1.0
176
     0
 90
        2
176
     1
  1
strokes_ogs.tif
176
     1
290
     0
176
     1
 40
1.0
176
     1
 40
1.0
176
     1
  0
VISUALSTYLE
  5
601
102
{ACAD_REACTORS
330
5F4
102
}
330
5F4
100
AcDbVisualStyle
  2
Thicken
 70
    13
177
     3
291
     1
 70
    58
 90
        2
176
     1
 90
        2
176
     1
 90
        0
176
     1
 90
        0
176
     1
 40
0.6
176
     1
 40
30.0
176
     1
 62
     7
420
 16777215
176
     1
 90
        1
176
     1
 90
        4
176
     1
 62
     7
176
     1
 62
   257
176
     1
 90
        1
176
     1
 90
        1
176
     1
 40
1.0
176
     1
 90
       12
176
     1
 62
     7
176
     1
 40
1.0
176
     1
 90
        1
176
     1
 90
        6
176
     1
 90
        2
176
     1
 62
     7
176
     1
 90
        5
176
     1
 90
        0
176
     1
 90
        0
176
     1
290
     0
176
     1
 90
        1
176
     1
 40
0.0
176
     1
 90
        0
176
     1
290
     0
176
     1
290
     1
176
     1
290
     1
176
     1
290
     0
176
     1
290
     0
176
     1
290
     0
176
     1
290
     0
176
     1
290
     0
176
     1
290
     0
176
     1
 90
       50
176
     1
 40
0.0
176
     1
 40
1.0
176
     1
 90
        0
176
     1
 62
    18
420
        0
176
     1
 90
       50
176
     1
 90
        3
176
     1
 62
     5
420
      255
176
     1
290
     0
176
     1
 90
       50
176
     1
 90
       50
176
     1
 90
       50
176
     1
290
     0
176
     1
 90
       50
176
     1
 62
   256
176
     0
 40
1.0
176
     0
 90
        2
176
     1
  1
strokes_ogs.tif
176
     1
290
     0
176
     1
 40
1.0
176
     1
 40
1.0
176
     1
  0
VISUALSTYLE
  5
5FA
102
{ACAD_REACTORS
330
5F4
102
}
330
5F4
100
AcDbVisualStyle
  2
Wireframe
 70
     5
177
     3
291
     0
 70
    58
 90
        0
176
     1
 90
        2
176
     1
 90
        0
176
     1
 90
        0
176
     1
 40
0.6
176
     1
 40
30.0
176
     1
 62
     7
420
 16777215
176
     1
 90
        1
176
     1
 90
        4
176
     1
 62
     7
176
     1
 62
   257
176
     1
 90
        1
176
     1
 90
        1
176
     1
 40
1.0
176
     1
 90
        0
176
     1
 62
   257
176
     1
 40
1.0
176
     1
 90
        1
176
     1
 90
        6
176
     1
 90
        2
176
     1
 62
     7
176
     1
 90
        3
176
     1
 90
        0
176
     1
 90
        0
176
     1
290
     0
176
     1
 90
        1
176
     1
 40
0.0
176
     1
 90
        0
176
     1
290
     0
176
     1
290
     1
176
     1
290
     1
176
     1
290
     0
176
     1
290
     0
176
     1
290
     0
176
     1
290
     0
176
     1
290
     0
176
     1
290
     0
176
     1
 90
       50
176
     1
 40
0.0
176
     1
 40
1.0
176
     1
 90
        0
176
     1
 62
    18
420
        0
176
     1
 90
       50
176
     1
 90
        3
176
     1
 62
     5
420
      255
176
     1
290
     0
176
     1
 90
       50
176
     1
 90
       50
176
     1
 90
       50
176
     1
290
     0
176
     1
 90
       50
176
     1
 62
   256
176
     0
 40
1.0
176
     0
 90
        2
176
     1
  1
strokes_ogs.tif
176
     1
290
     0
176
     1
 40
1.0
176
     1
 40
1.0
176
     1
  0
VISUALSTYLE
  5
60A
102
{ACAD_REACTORS
330
5F4
102
}
330
5F4
100
AcDbVisualStyle
  2
X-Ray
 70
    25
177
     3
291
     0
 70
    58
 90
        2
176
     1
 90
        2
176
     1
 90
        1
176
     1
 90
        1
176
     1
 40
0.5
176
     1
 40
30.0
176
     1
 62
     7
420
 16777215
176
     1
 90
        1
176
     1
 90
        0
176
     1
 62
     7
176
     1
 62
   257
176
     1
 90
        1
176
     1
 90
        1
176
     1
 40
1.0
176
     1
 90
        8
176
     1
 62
     7
176
     1
 40
1.0
176
     1
 90
        1
176
     1
 90
        6
176
     1
 90
        2
176
     1
 62
     7
176
     1
 90
        3
176
     1
 90
        0
176
     1
 90
        0
176
     1
290
     0
176
     1
 90
       13
176
     1
 40
0.0
176
     1
 90
        0
176
     1
290
     0
176
     1
290
     1
176
     1
290
     1
176
     1
290
     0
176
     1
290
     0
176
     1
290
     0
176
     1
290
     0
176
     1
290
     0
176
     1
290
     0
176
     1
 90
       50
176
     1
 40
0.0
176
     1
 40
1.0
176
     1
 90
        0
176
     1
 62
    18
420
        0
176
     1
 90
       50
176
     1
 90
        3
176
     1
 62
     5
420
      255
176
     1
290
     0
176
     1
 90
       50
176
     1
 90
       50
176
     1
 90
       50
176
     1
290
     0
176
     1
 90
       50
176
     1
 62
   256
176
     0
 40
1.0
176
     0
 90
        2
176
     1
  1
strokes_ogs.tif
176
     1
290
     0
176
     1
 40
1.0
176
     1
 40
1.0
176
     1
  0
DICTIONARYVAR
  5
6C7
102
{ACAD_REACTORS
330
6C6
102
}
330
6C6
100
DictionaryVariables
280
     0
  1
1:1
  0
DICTIONARYVAR
  5
6CC
102
{ACAD_REACTORS
330
6C6
102
}
330
6C6
100
DictionaryVariables
280
     0
  1
Standard
  0
DICTIONARYVAR
  5
6CB
102
{ACAD_REACTORS
330
6C6
102
}
330
6C6
100
DictionaryVariables
280
     0
  1
Standard
  0
XRECORD
  5
62B
102
{ACAD_REACTORS
330
629
102
}
330
629
100
AcDbXrecord
280
     1
290
     0
  0
XRECORD
  5
62C
102
{ACAD_REACTORS
330
629
102
}
330
629
100
AcDbXrecord
280
     1
290
     0
  0
XRECORD
  5
62D
102
{ACAD_REACTORS
330
629
102
}
330
629
100
AcDbXrecord
280
     1
1000
0.1
  0
XRECORD
  5
62E
102
{ACAD_REACTORS
330
629
102
}
330
629
100
AcDbXrecord
280
     1
290
     1
  0
XRECORD
  5
62F
102
{ACAD_REACTORS
330
629
102
}
330
629
100
AcDbXrecord
280
     1
1000
64
  0
XRECORD
  5
630
102
{ACAD_REACTORS
330
629
102
}
330
629
100
AcDbXrecord
280
     1
1000
0
  0
XRECORD
  5
631
102
{ACAD_REACTORS
330
629
102
}
330
629
100
AcDbXrecord
280
     1
1000
0
  0
XRECORD
  5
632
102
{ACAD_REACTORS
330
629
102
}
330
629
100
AcDbXrecord
280
     1
1000
001
  0
XRECORD
  5
633
102
{ACAD_REACTORS
330
629
102
}
330
629
100
AcDbXrecord
280
     1
1000
2000
  0
XRECORD
  5
634
102
{ACAD_REACTORS
330
629
102
}
330
629
100
AcDbXrecord
280
     1
1000
0.01
  0
XRECORD
  5
635
102
{ACAD_REACTORS
330
629
102
}
330
629
100
AcDbXrecord
280
     1
1000
0.0005
  0
XRECORD
  5
636
102
{ACAD_REACTORS
330
629
102
}
330
629
100
AcDbXrecord
280
     1
1000
2
  0
XRECORD
  5
637
102
{ACAD_REACTORS
330
629
102
}
330
629
100
AcDbXrecord
280
     1
290
     0
  0
XRECORD
  5
638
102
{ACAD_REACTORS
330
629
102
}
330
629
100
AcDbXrecord
280
     1
290
     0
  0
XRECORD
  5
639
102
{ACAD_REACTORS
330
629
102
}
330
629
100
AcDbXrecord
280
     1
1000
0.1
  0
XRECORD
  5
63A
102
{ACAD_REACTORS
330
629
102
}
330
629
100
AcDbXrecord
280
     1
290
     1
  0
XRECORD
  5
63B
102
{ACAD_REACTORS
330
629
102
}
330
629
100
AcDbXrecord
280
     1
1000
64
  0
XRECORD
  5
63C
102
{ACAD_REACTORS
330
629
102
}
330
629
100
AcDbXrecord
280
     1
1000
0
  0
XRECORD
  5
63D
102
{ACAD_REACTORS
330
629
102
}
330
629
100
AcDbXrecord
280
     1
1000
0
  0
XRECORD
  5
63E
102
{ACAD_REACTORS
330
629
102
}
330
629
100
AcDbXrecord
280
     1
1000
coindoor-01
  0
XRECORD
  5
63F
102
{ACAD_REACTORS
330
629
102
}
330
629
100
AcDbXrecord
280
     1
1000
2000
  0
XRECORD
  5
640
102
{ACAD_REACTORS
330
629
102
}
330
629
100
AcDbXrecord
280
     1
1000
0.01
  0
XRECORD
  5
641
102
{ACAD_REACTORS
330
629
102
}
330
629
100
AcDbXrecord
280
     1
1000
0.0005
  0
XRECORD
  5
642
102
{ACAD_REACTORS
330
629
102
}
330
629
100
AcDbXrecord
280
     1
1000
3
  0
XRECORD
  5
643
102
{ACAD_REACTORS
330
629
102
}
330
629
100
AcDbXrecord
280
     1
1000
GCodeOffsetIN
  0
XRECORD
  5
644
102
{ACAD_REACTORS
330
629
102
}
330
629
100
AcDbXrecord
280
     1
1000
coindoor.nc
  0
XRECORD
  5
645
102
{ACAD_REACTORS
330
629
102
}
330
629
100
AcDbXrecord
280
     1
1000
coindoor.nc
  0
XRECORD
  5
646
102
{ACAD_REACTORS
330
629
102
}
330
629
100
AcDbXrecord
280
     1
1000
#ffffff
  0
XRECORD
  5
647
102
{ACAD_REACTORS
330
629
102
}
330
629
100
AcDbXrecord
280
     1
1000
FullColor
  0
XRECORD
  5
648
102
{ACAD_REACTORS
330
629
102
}
330
629
100
AcDbXrecord
280
     1
290
     1
  0
XRECORD
  5
649
102
{ACAD_REACTORS
330
629
102
}
330
629
100
AcDbXrecord
280
     1
290
     1
  0
XRECORD
  5
64A
102
{ACAD_REACTORS
330
629
102
}
330
629
100
AcDbXrecord
280
     1
290
     1
  0
XRECORD
  5
64B
102
{ACAD_REACTORS
330
629
102
}
330
629
100
AcDbXrecord
280
     1
290
     1
  0
XRECORD
  5
64C
102
{ACAD_REACTORS
330
629
102
}
330
629
100
AcDbXrecord
280
     1
1000
auto
  0
XRECORD
  5
64D
102
{ACAD_REACTORS
330
629
102
}
330
629
100
AcDbXrecord
280
     1
1000
auto
  0
XRECORD
  5
64E
102
{ACAD_REACTORS
330
629
102
}
330
629
100
AcDbXrecord
280
     1
1000
auto
  0
XRECORD
  5
64F
102
{ACAD_REACTORS
330
629
102
}
330
629
100
AcDbXrecord
280
     1
1000
auto
  0
XRECORD
  5
650
102
{ACAD_REACTORS
330
629
102
}
330
629
100
AcDbXrecord
280
     1
1000
auto
  0
XRECORD
  5
651
102
{ACAD_REACTORS
330
629
102
}
330
629
100
AcDbXrecord
280
     1
1000
auto
  0
XRECORD
  5
652
102
{ACAD_REACTORS
330
629
102
}
330
629
100
AcDbXrecord
280
     1
1000
auto
  0
XRECORD
  5
653
102
{ACAD_REACTORS
330
629
102
}
330
629
100
AcDbXrecord
280
     1
1000
auto
  0
XRECORD
  5
654
102
{ACAD_REACTORS
330
629
102
}
330
629
100
AcDbXrecord
280
     1
290
     0
  0
XRECORD
  5
655
102
{ACAD_REACTORS
330
629
102
}
330
629
100
AcDbXrecord
280
     1
290
     0
  0
XRECORD
  5
656
102
{ACAD_REACTORS
330
629
102
}
330
629
100
AcDbXrecord
280
     1
290
     0
  0
XRECORD
  5
657
102
{ACAD_REACTORS
330
629
102
}
330
629
100
AcDbXrecord
280
     1
290
     0
  0
XRECORD
  5
658
102
{ACAD_REACTORS
330
629
102
}
330
629
100
AcDbXrecord
280
     1
 90
    65537
  0
XRECORD
  5
659
102
{ACAD_REACTORS
330
629
102
}
330
629
100
AcDbXrecord
280
     1
 90
    65537
  0
XRECORD
  5
65A
102
{ACAD_REACTORS
330
629
102
}
330
629
100
AcDbXrecord
280
     1
 90
    65537
  0
XRECORD
  5
65B
102
{ACAD_REACTORS
330
629
102
}
330
629
100
AcDbXrecord
280
     1
 90
    65537
  0
XRECORD
  5
65C
102
{ACAD_REACTORS
330
629
102
}
330
629
100
AcDbXrecord
280
     1
1000
auto
  0
XRECORD
  5
65D
102
{ACAD_REACTORS
330
629
102
}
330
629
100
AcDbXrecord
280
     1
1000
auto
  0
XRECORD
  5
65E
102
{ACAD_REACTORS
330
629
102
}
330
629
100
AcDbXrecord
280
     1
1000
auto
  0
XRECORD
  5
65F
102
{ACAD_REACTORS
330
629
102
}
330
629
100
AcDbXrecord
280
     1
1000
auto
  0
XRECORD
  5
660
102
{ACAD_REACTORS
330
629
102
}
330
629
100
AcDbXrecord
280
     1
1000
auto
  0
XRECORD
  5
661
102
{ACAD_REACTORS
330
629
102
}
330
629
100
AcDbXrecord
280
     1
1000
auto
  0
XRECORD
  5
662
102
{ACAD_REACTORS
330
629
102
}
330
629
100
AcDbXrecord
280
     1
1000
auto
  0
XRECORD
  5
663
102
{ACAD_REACTORS
330
629
102
}
330
629
100
AcDbXrecord
280
     1
1000
auto
  0
XRECORD
  5
664
102
{ACAD_REACTORS
330
629
102
}
330
629
100
AcDbXrecord
280
     1
 90
        1
  0
XRECORD
  5
665
102
{ACAD_REACTORS
330
629
102
}
330
629
100
AcDbXrecord
280
     1
 40
0.5
  0
XRECORD
  5
666
102
{ACAD_REACTORS
330
629
102
}
330
629
100
AcDbXrecord
280
     1
 40
0.5
  0
XRECORD
  5
667
102
{ACAD_REACTORS
330
629
102
}
330
629
100
AcDbXrecord
280
     1
 40
0.5
  0
XRECORD
  5
668
102
{ACAD_REACTORS
330
629
102
}
330
629
100
AcDbXrecord
280
     1
 40
0.5
  0
XRECORD
  5
669
102
{ACAD_REACTORS
330
629
102
}
330
629
100
AcDbXrecord
280
     1
290
     0
  0
XRECORD
  5
66A
102
{ACAD_REACTORS
330
629
102
}
330
629
100
AcDbXrecord
280
     1
 90
        1
  0
XRECORD
  5
66B
102
{ACAD_REACTORS
330
629
102
}
330
629
100
AcDbXrecord
280
     1
 40
0.0
  0
XRECORD
  5
66C
102
{ACAD_REACTORS
330
629
102
}
330
629
100
AcDbXrecord
280
     1
 40
0.0
  0
XRECORD
  5
66D
102
{ACAD_REACTORS
330
629
102
}
330
629
100
AcDbXrecord
280
     1
1000
Portrait
  0
XRECORD
  5
66E
102
{ACAD_REACTORS
330
629
102
}
330
629
100
AcDbXrecord
280
     1
 40
11.0
  0
XRECORD
  5
66F
102
{ACAD_REACTORS
330
629
102
}
330
629
100
AcDbXrecord
280
     1
 40
8.5
  0
XRECORD
  5
670
102
{ACAD_REACTORS
330
629
102
}
330
629
100
AcDbXrecord
280
     1
1000
1:1
  0
XRECORD
  5
671
102
{ACAD_REACTORS
330
629
102
}
330
629
100
AcDbXrecord
280
     1
290
     1
  0
XRECORD
  5
672
102
{ACAD_REACTORS
330
629
102
}
330
629
100
AcDbXrecord
280
     1
290
     0
  0
XRECORD
  5
673
102
{ACAD_REACTORS
330
629
102
}
330
629
100
AcDbXrecord
280
     1
1000
Inside
  0
XRECORD
  5
674
102
{ACAD_REACTORS
330
629
102
}
330
629
100
AcDbXrecord
280
     1
1000
Arial,10,-1,5,50,0,0,0,0,0
  0
XRECORD
  5
675
102
{ACAD_REACTORS
330
629
102
}
330
629
100
AcDbXrecord
280
     1
1000
TopLeft
  0
XRECORD
  5
676
102
{ACAD_REACTORS
330
629
102
}
330
629
100
AcDbXrecord
280
     1
1000
3.29.4
  0
XRECORD
  5
677
102
{ACAD_REACTORS
330
629
102
}
330
629
100
AcDbXrecord
280
     1
 90
        1
  0
XRECORD
  5
678
102
{ACAD_REACTORS
330
629
102
}
330
629
100
AcDbXrecord
280
     1
  0
XRECORD
  5
679
102
{ACAD_REACTORS
330
629
102
}
330
629
100
AcDbXrecord
280
     1
 40
23.97848022109819
  0
XRECORD
  5
67A
102
{ACAD_REACTORS
330
629
102
}
330
629
100
AcDbXrecord
280
     1
 40
33.44778866350315
  0
DICTIONARY
  5
6C8
330
624
100
AcDbDictionary
280
     1
281
     1
  3
ACAD_ROUNDTRIP_2008_TABLESTYLE_CELLSTYLEMAP
360
6C9
  0
CELLSTYLEMAP
  5
6C9
102
{ACAD_REACTORS
330
6C8
102
}
330
6C8
100
AcDbCellStyleMap
 90
        3
300
CELLSTYLE
  1
TABLEFORMAT_BEGIN
 90
        5
170
     1
 91
        0
 92
    32768
 62
   257
 93
        1
300
CONTENTFORMAT
  1
CONTENTFORMAT_BEGIN
 90
        0
 91
        0
 92
        4
 93
        0
300

 40
0.0
140
1.0
 94
        5
 62
     0
340
5DC
144
0.25
309
CONTENTFORMAT_END
171
     1
301
MARGIN
  1
CELLMARGIN_BEGIN
 40
0.06
 40
0.06
 40
0.06
 40
0.06
 40
0.06
 40
0.06
309
CELLMARGIN_END
 94
        6
 95
        1
302
GRIDFORMAT
  1
GRIDFORMAT_BEGIN
 90
        0
 91
        1
 62
     0
 92
       -2
340
5DE
 93
        0
 40
0.045
309
GRIDFORMAT_END
 95
        2
302
GRIDFORMAT
  1
GRIDFORMAT_BEGIN
 90
        0
 91
        1
 62
     0
 92
       -2
340
5DE
 93
        0
 40
0.045
309
GRIDFORMAT_END
 95
        4
302
GRIDFORMAT
  1
GRIDFORMAT_BEGIN
 90
        0
 91
        1
 62
     0
 92
       -2
340
5DE
 93
        0
 40
0.045
309
GRIDFORMAT_END
 95
        8
302
GRIDFORMAT
  1
GRIDFORMAT_BEGIN
 90
        0
 91
        1
 62
     0
 92
       -2
340
5DE
 93
        0
 40
0.045
309
GRIDFORMAT_END
 95
       16
302
GRIDFORMAT
  1
GRIDFORMAT_BEGIN
 90
        0
 91
        1
 62
     0
 92
       -2
340
5DE
 93
        0
 40
0.045
309
GRIDFORMAT_END
 95
       32
302
GRIDFORMAT
  1
GRIDFORMAT_BEGIN
 90
        0
 91
        1
 62
     0
 92
       -2
340
5DE
 93
        0
 40
0.045
309
GRIDFORMAT_END
309
TABLEFORMAT_END
  1
CELLSTYLE_BEGIN
 90
        1
 91
        1
300
_TITLE
309
CELLSTYLE_END
300
CELLSTYLE
  1
TABLEFORMAT_BEGIN
 90
        5
170
     1
 91
        0
 92
        0
 62
   257
 93
        1
300
CONTENTFORMAT
  1
CONTENTFORMAT_BEGIN
 90
        0
 91
        0
 92
        4
 93
        0
300

 40
0.0
140
1.0
 94
        5
 62
     0
340
5DC
144
0.18
309
CONTENTFORMAT_END
171
     1
301
MARGIN
  1
CELLMARGIN_BEGIN
 40
0.06
 40
0.06
 40
0.06
 40
0.06
 40
0.06
 40
0.06
309
CELLMARGIN_END
 94
        6
 95
        1
302
GRIDFORMAT
  1
GRIDFORMAT_BEGIN
 90
        0
 91
        1
 62
     0
 92
       -2
340
5DE
 93
        0
 40
0.045
309
GRIDFORMAT_END
 95
        2
302
GRIDFORMAT
  1
GRIDFORMAT_BEGIN
 90
        0
 91
        1
 62
     0
 92
       -2
340
5DE
 93
        0
 40
0.045
309
GRIDFORMAT_END
 95
        4
302
GRIDFORMAT
  1
GRIDFORMAT_BEGIN
 90
        0
 91
        1
 62
     0
 92
       -2
340
5DE
 93
        0
 40
0.045
309
GRIDFORMAT_END
 95
        8
302
GRIDFORMAT
  1
GRIDFORMAT_BEGIN
 90
        0
 91
        1
 62
     0
 92
       -2
340
5DE
 93
        0
 40
0.045
309
GRIDFORMAT_END
 95
       16
302
GRIDFORMAT
  1
GRIDFORMAT_BEGIN
 90
        0
 91
        1
 62
     0
 92
       -2
340
5DE
 93
        0
 40
0.045
309
GRIDFORMAT_END
 95
       32
302
GRIDFORMAT
  1
GRIDFORMAT_BEGIN
 90
        0
 91
        1
 62
     0
 92
       -2
340
5DE
 93
        0
 40
0.045
309
GRIDFORMAT_END
309
TABLEFORMAT_END
  1
CELLSTYLE_BEGIN
 90
        2
 91
        1
300
_HEADER
309
CELLSTYLE_END
300
CELLSTYLE
  1
TABLEFORMAT_BEGIN
 90
        5
170
     1
 91
        0
 92
        0
 62
   257
 93
        1
300
CONTENTFORMAT
  1
CONTENTFORMAT_BEGIN
 90
        0
 91
        0
 92
        4
 93
        0
300

 40
0.0
140
1.0
 94
        2
 62
     0
340
5DC
144
0.18
309
CONTENTFORMAT_END
171
     1
301
MARGIN
  1
CELLMARGIN_BEGIN
 40
0.06
 40
0.06
 40
0.06
 40
0.06
 40
0.06
 40
0.06
309
CELLMARGIN_END
 94
        6
 95
        1
302
GRIDFORMAT
  1
GRIDFORMAT_BEGIN
 90
        0
 91
        1
 62
     0
 92
       -2
340
5DE
 93
        0
 40
0.045
309
GRIDFORMAT_END
 95
        2
302
GRIDFORMAT
  1
GRIDFORMAT_BEGIN
 90
        0
 91
        1
 62
     0
 92
       -2
340
5DE
 93
        0
 40
0.045
309
GRIDFORMAT_END
 95
        4
302
GRIDFORMAT
  1
GRIDFORMAT_BEGIN
 90
        0
 91
        1
 62
     0
 92
       -2
340
5DE
 93
        0
 40
0.045
309
GRIDFORMAT_END
 95
        8
302
GRIDFORMAT
  1
GRIDFORMAT_BEGIN
 90
        0
 91
        1
 62
     0
 92
       -2
340
5DE
 93
        0
 40
0.045
309
GRIDFORMAT_END
 95
       16
302
GRIDFORMAT
  1
GRIDFORMAT_BEGIN
 90
        0
 91
        1
 62
     0
 92
       -2
340
5DE
 93
        0
 40
0.045
309
GRIDFORMAT_END
 95
       32
302
GRIDFORMAT
  1
GRIDFORMAT_BEGIN
 90
        0
 91
        1
 62
     0
 92
       -2
340
5DE
 93
        0
 40
0.045
309
GRIDFORMAT_END
309
TABLEFORMAT_END
  1
CELLSTYLE_BEGIN
 90
        3
 91
        2
300
_DATA
309
CELLSTYLE_END
  0
ENDSEC
  0
EOF
