  0
SECTION
  2
HEADER
  9
$ACADVER
  1
AC1027
  9
$ACADMAINTVER
 70
   105
  9
$DWGCODEPAGE
  3
ANSI_1252
  9
$LASTSAVEDBY
  1
Jacob
  9
$REQUIREDVERSIONS
160
                 0
  9
$INSBASE
 10
0.0
 20
0.0
 30
0.0
  9
$EXTMIN
 10
0.0
 20
28.7084042958
 30
0.0
  9
$EXTMAX
 10
20.25
 20
43.7768983268
 30
0.0
  9
$LIMMIN
 10
0.0
 20
0.0
  9
$LIMMAX
 10
0.0
 20
0.0
  9
$ORTHOMODE
 70
     0
  9
$REGENMODE
 70
     1
  9
$FILLMODE
 70
     1
  9
$QTEXTMODE
 70
     0
  9
$MIRRTEXT
 70
     1
  9
$LTSCALE
 40
5.24286
  9
$ATTMODE
 70
     1
  9
$TEXTSIZE
 40
1.0
  9
$TRACEWID
 40
0.05
  9
$TEXTSTYLE
  7
Standard
  9
$CLAYER
  8
0
  9
$CELTYPE
  6
ByLayer
  9
$CECOLOR
 62
   256
  9
$CELTSCALE
 40
1.0
  9
$DISPSILH
 70
     0
  9
$DIMSCALE
 40
1.0
  9
$DIMASZ
 40
0.18
  9
$DIMEXO
 40
0.0625
  9
$DIMDLI
 40
0.38
  9
$DIMRND
 40
0.0
  9
$DIMDLE
 40
0.0
  9
$DIMEXE
 40
0.18
  9
$DIMTP
 40
0.0
  9
$DIMTM
 40
0.0
  9
$DIMTXT
 40
0.18
  9
$DIMCEN
 40
0.09
  9
$DIMTSZ
 40
0.0
  9
$DIMTOL
 70
     0
  9
$DIMLIM
 70
     0
  9
$DIMTIH
 70
     1
  9
$DIMTOH
 70
     1
  9
$DIMSE1
 70
     0
  9
$DIMSE2
 70
     0
  9
$DIMTAD
 70
     0
  9
$DIMZIN
 70
     0
  9
$DIMBLK
  1

  9
$DIMASO
 70
     1
  9
$DIMSHO
 70
     1
  9
$DIMPOST
  1

  9
$DIMAPOST
  1

  9
$DIMALT
 70
     0
  9
$DIMALTD
 70
     2
  9
$DIMALTF
 40
25.4
  9
$DIMLFAC
 40
1.0
  9
$DIMTOFL
 70
     0
  9
$DIMTVP
 40
0.0
  9
$DIMTIX
 70
     0
  9
$DIMSOXD
 70
     0
  9
$DIMSAH
 70
     0
  9
$DIMBLK1
  1

  9
$DIMBLK2
  1

  9
$DIMSTYLE
  2
Standard
  9
$DIMCLRD
 70
     0
  9
$DIMCLRE
 70
     0
  9
$DIMCLRT
 70
     0
  9
$DIMTFAC
 40
1.0
  9
$DIMGAP
 40
0.09
  9
$DIMJUST
 70
     0
  9
$DIMSD1
 70
     0
  9
$DIMSD2
 70
     0
  9
$DIMTOLJ
 70
     1
  9
$DIMTZIN
 70
     0
  9
$DIMALTZ
 70
     0
  9
$DIMALTTZ
 70
     0
  9
$DIMUPT
 70
     0
  9
$DIMDEC
 70
     4
  9
$DIMTDEC
 70
     4
  9
$DIMALTU
 70
     2
  9
$DIMALTTD
 70
     2
  9
$DIMTXSTY
  7
Standard
  9
$DIMAUNIT
 70
     0
  9
$DIMADEC
 70
     0
  9
$DIMALTRND
 40
0.0
  9
$DIMAZIN
 70
     0
  9
$DIMDSEP
 70
    46
  9
$DIMATFIT
 70
     3
  9
$DIMFRAC
 70
     0
  9
$DIMLDRBLK
  1

  9
$DIMLUNIT
 70
     2
  9
$DIMLWD
 70
    -2
  9
$DIMLWE
 70
    -2
  9
$DIMTMOVE
 70
     0
  9
$DIMFXL
 40
1.0
  9
$DIMFXLON
 70
     0
  9
$DIMJOGANG
 40
0.7853981633974483
  9
$DIMTFILL
 70
     0
  9
$DIMTFILLCLR
 70
     0
  9
$DIMARCSYM
 70
     0
  9
$DIMLTYPE
  6

  9
$DIMLTEX1
  6

  9
$DIMLTEX2
  6

  9
$DIMTXTDIRECTION
 70
     0
  9
$LUNITS
 70
     2
  9
$LUPREC
 70
     4
  9
$SKETCHINC
 40
0.1
  9
$FILLETRAD
 40
0.0
  9
$AUNITS
 70
     0
  9
$AUPREC
 70
     0
  9
$MENU
  1
.
  9
$ELEVATION
 40
0.0
  9
$PELEVATION
 40
0.0
  9
$THICKNESS
 40
0.0
  9
$LIMCHECK
 70
     0
  9
$CHAMFERA
 40
0.0
  9
$CHAMFERB
 40
0.0
  9
$CHAMFERC
 40
0.0
  9
$CHAMFERD
 40
0.0
  9
$SKPOLY
 70
     0
  9
$TDCREATE
 40
2459644.498849931
  9
$TDUCREATE
 40
2459644.832183264
  9
$TDUPDATE
 40
2459644.498850428
  9
$TDUUPDATE
 40
2459644.832183762
  9
$TDINDWG
 40
0.0000000116
  9
$TDUSRTIMER
 40
0.0000000116
  9
$USRTIMER
 70
     1
  9
$ANGBASE
 50
0.0
  9
$ANGDIR
 70
     0
  9
$PDMODE
 70
     0
  9
$PDSIZE
 40
0.0
  9
$PLINEWID
 40
0.0
  9
$SPLFRAME
 70
     0
  9
$SPLINETYPE
 70
     6
  9
$SPLINESEGS
 70
     8
  9
$HANDSEED
  5
78E9221C
  9
$SURFTAB1
 70
     6
  9
$SURFTAB2
 70
     6
  9
$SURFTYPE
 70
     6
  9
$SURFU
 70
     6
  9
$SURFV
 70
     6
  9
$UCSBASE
  2

  9
$UCSNAME
  2

  9
$UCSORG
 10
0.0
 20
0.0
 30
0.0
  9
$UCSXDIR
 10
1.0
 20
0.0
 30
0.0
  9
$UCSYDIR
 10
0.0
 20
1.0
 30
0.0
  9
$UCSORTHOREF
  2

  9
$UCSORTHOVIEW
 70
     0
  9
$UCSORGTOP
 10
0.0
 20
0.0
 30
0.0
  9
$UCSORGBOTTOM
 10
0.0
 20
0.0
 30
0.0
  9
$UCSORGLEFT
 10
0.0
 20
0.0
 30
0.0
  9
$UCSORGRIGHT
 10
0.0
 20
0.0
 30
0.0
  9
$UCSORGFRONT
 10
0.0
 20
0.0
 30
0.0
  9
$UCSORGBACK
 10
0.0
 20
0.0
 30
0.0
  9
$PUCSBASE
  2

  9
$PUCSNAME
  2

  9
$PUCSORG
 10
0.0
 20
0.0
 30
0.0
  9
$PUCSXDIR
 10
1.0
 20
0.0
 30
0.0
  9
$PUCSYDIR
 10
0.0
 20
1.0
 30
0.0
  9
$PUCSORTHOREF
  2

  9
$PUCSORTHOVIEW
 70
     0
  9
$PUCSORGTOP
 10
0.0
 20
0.0
 30
0.0
  9
$PUCSORGBOTTOM
 10
0.0
 20
0.0
 30
0.0
  9
$PUCSORGLEFT
 10
0.0
 20
0.0
 30
0.0
  9
$PUCSORGRIGHT
 10
0.0
 20
0.0
 30
0.0
  9
$PUCSORGFRONT
 10
0.0
 20
0.0
 30
0.0
  9
$PUCSORGBACK
 10
0.0
 20
0.0
 30
0.0
  9
$USERI1
 70
     0
  9
$USERI2
 70
     0
  9
$USERI3
 70
     0
  9
$USERI4
 70
     0
  9
$USERI5
 70
     0
  9
$USERR1
 40
0.0
  9
$USERR2
 40
0.0
  9
$USERR3
 40
0.0
  9
$USERR4
 40
0.0
  9
$USERR5
 40
0.0
  9
$WORLDVIEW
 70
     1
  9
$SHADEDGE
 70
     3
  9
$SHADEDIF
 70
    70
  9
$TILEMODE
 70
     1
  9
$MAXACTVP
 70
    64
  9
$PINSBASE
 10
0.0
 20
0.0
 30
0.0
  9
$PLIMCHECK
 70
     0
  9
$PEXTMIN
 10
1.000000000000000E+20
 20
1.000000000000000E+20
 30
1.000000000000000E+20
  9
$PEXTMAX
 10
-1.000000000000000E+20
 20
-1.000000000000000E+20
 30
-1.000000000000000E+20
  9
$PLIMMIN
 10
-0.25
 20
-0.25
  9
$PLIMMAX
 10
10.75
 20
8.25
  9
$UNITMODE
 70
     0
  9
$VISRETAIN
 70
     0
  9
$PLINEGEN
 70
     1
  9
$PSLTSCALE
 70
     0
  9
$TREEDEPTH
 70
  3020
  9
$CMLSTYLE
  2
Standard
  9
$CMLJUST
 70
     0
  9
$CMLSCALE
 40
1.0
  9
$PROXYGRAPHICS
 70
     0
  9
$MEASUREMENT
 70
     0
  9
$CELWEIGHT
370
    -1
  9
$ENDCAPS
280
     0
  9
$JOINSTYLE
280
     0
  9
$LWDISPLAY
290
     0
  9
$INSUNITS
 70
     0
  9
$HYPERLINKBASE
  1

  9
$STYLESHEET
  1

  9
$XEDIT
290
     1
  9
$CEPSNTYPE
380
     0
  9
$PSTYLEMODE
290
     1
  9
$FINGERPRINTGUID
  2
{f96cc680-7c8b-4105-9160-5685e053afd7}
  9
$VERSIONGUID
  2
{FAEB1C32-E019-11D5-929B-00C0DF256EC4}
  9
$EXTNAMES
290
     1
  9
$PSVPSCALE
 40
0.0
  9
$OLESTARTUP
290
     0
  9
$SORTENTS
280
   127
  9
$INDEXCTL
280
     0
  9
$HIDETEXT
280
     1
  9
$XCLIPFRAME
280
     2
  9
$HALOGAP
280
     0
  9
$OBSCOLOR
 70
   257
  9
$OBSLTYPE
280
     0
  9
$INTERSECTIONDISPLAY
280
     0
  9
$INTERSECTIONCOLOR
 70
   257
  9
$DIMASSOC
280
     2
  9
$PROJECTNAME
  1

  9
$CAMERADISPLAY
290
     0
  9
$LENSLENGTH
 40
50.0
  9
$CAMERAHEIGHT
 40
0.0
  9
$STEPSPERSEC
 40
2.0
  9
$STEPSIZE
 40
6.0
  9
$3DDWFPREC
 40
2.0
  9
$PSOLWIDTH
 40
0.25
  9
$PSOLHEIGHT
 40
4.0
  9
$LOFTANG1
 40
1.570796326794897
  9
$LOFTANG2
 40
1.570796326794897
  9
$LOFTMAG1
 40
0.0
  9
$LOFTMAG2
 40
0.0
  9
$LOFTPARAM
 70
     7
  9
$LOFTNORMALS
280
     1
  9
$LATITUDE
 40
37.795
  9
$LONGITUDE
 40
-122.394
  9
$NORTHDIRECTION
 40
0.0
  9
$TIMEZONE
 70
 -8000
  9
$LIGHTGLYPHDISPLAY
280
     1
  9
$TILEMODELIGHTSYNCH
280
     1
  9
$CMATERIAL
347
78E92176
  9
$SOLIDHIST
280
     0
  9
$SHOWHIST
280
     1
  9
$DWFFRAME
280
     2
  9
$DGNFRAME
280
     2
  9
$REALWORLDSCALE
290
     1
  9
$INTERFERECOLOR
 62
   256
  9
$CSHADOW
280
     0
  9
$SHADOWPLANELOCATION
 40
0.0
  0
ENDSEC
  0
SECTION
  2
CLASSES
  0
CLASS
  1
ACDBDICTIONARYWDFLT
  2
AcDbDictionaryWithDefault
  3
ObjectDBX Classes
 90
        0
 91
        3
280
     0
281
     0
  0
CLASS
  1
VISUALSTYLE
  2
AcDbVisualStyle
  3
ObjectDBX Classes
 90
     4095
 91
        3
280
     0
281
     0
  0
CLASS
  1
MATERIAL
  2
AcDbMaterial
  3
ObjectDBX Classes
 90
     1153
 91
        3
280
     0
281
     0
  0
CLASS
  1
SCALE
  2
AcDbScale
  3
ObjectDBX Classes
 90
     1153
 91
        3
280
     0
281
     0
  0
CLASS
  1
TABLESTYLE
  2
AcDbTableStyle
  3
ObjectDBX Classes
 90
     4095
 91
        3
280
     0
281
     0
  0
CLASS
  1
MLEADERSTYLE
  2
AcDbMLeaderStyle
  3
ACDB_MLEADERSTYLE_CLASS
 90
     4095
 91
        3
280
     0
281
     0
  0
CLASS
  1
SUN
  2
AcDbSun
  3
SCENEOE
 90
     1153
 91
        3
280
     0
281
     0
  0
CLASS
  1
DICTIONARYVAR
  2
AcDbDictionaryVar
  3
ObjectDBX Classes
 90
        0
 91
        3
280
     0
281
     0
  0
CLASS
  1
CELLSTYLEMAP
  2
AcDbCellStyleMap
  3
ObjectDBX Classes
 90
     1152
 91
        3
280
     0
281
     0
  0
ENDSEC
  0
SECTION
  2
TABLES
  0
TABLE
  2
VPORT
  5
78E9213B
330
0
100
AcDbSymbolTable
 70
     1
  0
VPORT
  5
78E9215B
330
78E9213B
100
AcDbSymbolTableRecord
100
AcDbViewportTableRecord
  2
*Active
 70
     0
 10
0.0
 20
0.0
 11
1.0
 21
1.0
 12
11.37173849423155
 22
35.87777849154936
 13
0.0
 23
0.0
 14
0.5
 24
0.5
 15
0.5
 25
0.5
 16
0.0
 26
0.0
 36
1.0
 17
0.0
 27
0.0
 37
0.0
 40
19.42759408996786
 41
1.335180055401662
 42
50.0
 43
0.0
 44
0.0
 50
0.0
 51
0.0
 71
     0
 72
   100
 73
     1
 74
     3
 75
     0
 76
     0
 77
     0
 78
     0
281
     0
 65
     1
110
0.0
120
0.0
130
0.0
111
1.0
121
0.0
131
0.0
112
0.0
122
1.0
132
0.0
 79
     0
146
0.0
348
78E92161
 60
     3
 61
     5
292
     1
282
     1
141
0.0
142
0.0
 63
   250
361
78E9218F
  0
ENDTAB
  0
TABLE
  2
LTYPE
  5
78E92138
330
0
100
AcDbSymbolTable
 70
    51
  0
LTYPE
  5
78E92146
330
78E92138
100
AcDbSymbolTableRecord
100
AcDbLinetypeTableRecord
  2
ByBlock
 70
     0
  3

 72
    65
 73
     0
 40
0.0
  0
LTYPE
  5
78E92147
330
78E92138
100
AcDbSymbolTableRecord
100
AcDbLinetypeTableRecord
  2
ByLayer
 70
     0
  3

 72
    65
 73
     0
 40
0.0
  0
LTYPE
  5
78E92148
330
78E92138
100
AcDbSymbolTableRecord
100
AcDbLinetypeTableRecord
  2
Continuous
 70
     0
  3
Solid line
 72
    65
 73
     0
 40
0.0
  0
LTYPE
  5
78E921CA
330
78E92138
100
AcDbSymbolTableRecord
100
AcDbLinetypeTableRecord
  2
CENTERX2
 70
     0
  3
Center (2x) ________  __  ________  __  _____
 72
    65
 73
     4
 40
4.0
 49
2.5
 74
     0
 49
-0.5
 74
     0
 49
0.5
 74
     0
 49
-0.5
 74
     0
  0
LTYPE
  5
78E921CB
330
78E92138
100
AcDbSymbolTableRecord
100
AcDbLinetypeTableRecord
  2
DASHDOT
 70
     0
  3
Dashdot
 72
    65
 73
     4
 40
0.6762499958000001
 49
0.5
 74
     0
 49
-0.0724999979
 74
     0
 49
0.03125
 74
     0
 49
-0.0724999979
 74
     0
  0
LTYPE
  5
78E921CC
330
78E92138
100
AcDbSymbolTableRecord
100
AcDbLinetypeTableRecord
  2
DASHDOT2
 70
     0
  3
Dash dot (.5x) _._._._._._._._._._._._._._._.
 72
    65
 73
     4
 40
0.5
 49
0.25
 74
     0
 49
-0.125
 74
     0
 49
0.0
 74
     0
 49
-0.125
 74
     0
  0
LTYPE
  5
78E921CD
330
78E92138
100
AcDbSymbolTableRecord
100
AcDbLinetypeTableRecord
  2
DASHDOTX2
 70
     0
  3
Dash dot (2x) ____  .  ____  .  ____  .  ___
 72
    65
 73
     4
 40
2.0
 49
1.0
 74
     0
 49
-0.5
 74
     0
 49
0.0
 74
     0
 49
-0.5
 74
     0
  0
LTYPE
  5
78E921CE
330
78E92138
100
AcDbSymbolTableRecord
100
AcDbLinetypeTableRecord
  2
DASHED
 70
     0
  3
Dashed
 72
    65
 73
     2
 40
0.375
 49
0.25
 74
     0
 49
-0.125
 74
     0
  0
LTYPE
  5
78E921CF
330
78E92138
100
AcDbSymbolTableRecord
100
AcDbLinetypeTableRecord
  2
DASHED2
 70
     0
  3
Dashed (.5x) _ _ _ _ _ _ _ _ _ _ _ _ _ _ _ _ _ 
 72
    65
 73
     2
 40
0.375
 49
0.25
 74
     0
 49
-0.125
 74
     0
  0
LTYPE
  5
78E921D0
330
78E92138
100
AcDbSymbolTableRecord
100
AcDbLinetypeTableRecord
  2
DASHEDX2
 70
     0
  3
Dashed (2x) ____  ____  ____  ____  ____  ___
 72
    65
 73
     2
 40
1.5
 49
1.0
 74
     0
 49
-0.5
 74
     0
  0
LTYPE
  5
78E921D1
330
78E92138
100
AcDbSymbolTableRecord
100
AcDbLinetypeTableRecord
  2
DIVIDE
 70
     0
  3
Divide
 72
    65
 73
     6
 40
0.7799999937000002
 49
0.5
 74
     0
 49
-0.0724999979
 74
     0
 49
0.03125
 74
     0
 49
-0.0724999979
 74
     0
 49
0.03125
 74
     0
 49
-0.0724999979
 74
     0
  0
LTYPE
  5
78E921D2
330
78E92138
100
AcDbSymbolTableRecord
100
AcDbLinetypeTableRecord
  2
DIVIDE2
 70
     0
  3
Divide (.5x) __..__..__..__..__..__..__..__.._
 72
    65
 73
     6
 40
0.625
 49
0.25
 74
     0
 49
-0.125
 74
     0
 49
0.0
 74
     0
 49
-0.125
 74
     0
 49
0.0
 74
     0
 49
-0.125
 74
     0
  0
LTYPE
  5
78E921D3
330
78E92138
100
AcDbSymbolTableRecord
100
AcDbLinetypeTableRecord
  2
DIVIDEX2
 70
     0
  3
Divide (2x) ________  .  .  ________  .  .  _
 72
    65
 73
     6
 40
2.5
 49
1.0
 74
     0
 49
-0.5
 74
     0
 49
0.0
 74
     0
 49
-0.5
 74
     0
 49
0.0
 74
     0
 49
-0.5
 74
     0
  0
LTYPE
  5
78E921D4
330
78E92138
100
AcDbSymbolTableRecord
100
AcDbLinetypeTableRecord
  2
DOT
 70
     0
  3
Dot . . . . . . . . . . . . . . . . . . . . . . . .
 72
    65
 73
     2
 40
0.25
 49
0.0
 74
     0
 49
-0.25
 74
     0
  0
LTYPE
  5
78E921D5
330
78E92138
100
AcDbSymbolTableRecord
100
AcDbLinetypeTableRecord
  2
DOT2
 70
     0
  3
Dot (.5x) ........................................
 72
    65
 73
     2
 40
0.125
 49
0.0
 74
     0
 49
-0.125
 74
     0
  0
LTYPE
  5
78E921D6
330
78E92138
100
AcDbSymbolTableRecord
100
AcDbLinetypeTableRecord
  2
DOTX2
 70
     0
  3
Dot (2x) .  .  .  .  .  .  .  .  .  .  .  .  .  .
 72
    65
 73
     2
 40
0.5
 49
0.0
 74
     0
 49
-0.5
 74
     0
  0
LTYPE
  5
78E921D8
330
78E92138
100
AcDbSymbolTableRecord
100
AcDbLinetypeTableRecord
  2
DRAINAGE
 70
     0
  3
Drainage ---->---->---->----
 72
    65
 73
     2
 40
0.4
 49
0.2
 74
     2
 75
     0
340
78E921D7
 46
0.2
 50
180.0
 44
0.0
 45
0.0
  9
RIGHT_ARROW
 49
0.2
 74
     0
  0
LTYPE
  5
78E921DA
330
78E92138
100
AcDbSymbolTableRecord
100
AcDbLinetypeTableRecord
  2
DRAINAGE2
 70
     0
  3
Drainage reversed ----<----<----<----
 72
    65
 73
     2
 40
0.4
 49
0.2
 74
     2
 75
     0
340
78E921D9
 46
0.2
 50
0.0
 44
0.0
 45
0.0
  9
RIGHT_ARROW
 49
0.2
 74
     0
  0
LTYPE
  5
78E921DC
330
78E92138
100
AcDbSymbolTableRecord
100
AcDbLinetypeTableRecord
  2
FENCELINE1
 70
     0
  3
Fenceline circle ----0-----0----0-----0----0-----0--
 72
    65
 73
     4
 40
1.45
 49
0.25
 74
     0
 49
-0.1
 74
     2
 75
     0
340
78E921DB
 46
0.1
 50
0.0
 44
-0.1
 45
0.0
  9
CIRC1
 49
-0.1
 74
     0
 49
1.0
 74
     0
  0
LTYPE
  5
78E921DE
330
78E92138
100
AcDbSymbolTableRecord
100
AcDbLinetypeTableRecord
  2
FENCELINE2
 70
     0
  3
Fenceline square ----[]-----[]----[]-----[]----[]---
 72
    65
 73
     4
 40
1.45
 49
0.25
 74
     0
 49
-0.1
 74
     2
 75
     0
340
78E921DD
 46
0.1
 50
0.0
 44
-0.1
 45
0.0
  9
BOX
 49
-0.1
 74
     0
 49
1.0
 74
     0
  0
LTYPE
  5
78E921E0
330
78E92138
100
AcDbSymbolTableRecord
100
AcDbLinetypeTableRecord
  2
GAS_LINE
 70
     0
  3
Gas line ----GAS----GAS----GAS----GAS----GAS----GAS--
 72
    65
 73
     3
 40
0.95
 49
0.5
 74
     0
 49
-0.2
 74
     2
 75
     0
340
78E921DF
 46
0.1
 50
0.0
 44
-0.1
 45
-0.05
  9
GAS
 49
-0.25
 74
     0
  0
LTYPE
  5
78E921E1
330
78E92138
100
AcDbSymbolTableRecord
100
AcDbLinetypeTableRecord
  2
HIDDEN
 70
     0
  3
Hidden
 72
    65
 73
     2
 40
0.1974999979
 49
0.125
 74
     0
 49
-0.0724999979
 74
     0
  0
LTYPE
  5
78E921E2
330
78E92138
100
AcDbSymbolTableRecord
100
AcDbLinetypeTableRecord
  2
HIDDEN2
 70
     0
  3
Hidden (.5x) _ _ _ _ _ _ _ _ _ _ _ _ _ _ _ _ _ 
 72
    65
 73
     2
 40
0.1875
 49
0.125
 74
     0
 49
-0.0625
 74
     0
  0
LTYPE
  5
78E921E3
330
78E92138
100
AcDbSymbolTableRecord
100
AcDbLinetypeTableRecord
  2
HIDDENX2
 70
     0
  3
Hidden (2x) ____ ____ ____ ____ ____ ____ ____ 
 72
    65
 73
     2
 40
0.75
 49
0.5
 74
     0
 49
-0.25
 74
     0
  0
LTYPE
  5
78E921E5
330
78E92138
100
AcDbSymbolTableRecord
100
AcDbLinetypeTableRecord
  2
HOT_WATER_SUPPLY
 70
     0
  3
Hot water supply ---- HW ---- HW ---- HW ----
 72
    65
 73
     3
 40
0.8999999999999999
 49
0.5
 74
     0
 49
-0.2
 74
     2
 75
     0
340
78E921E4
 46
0.1
 50
0.0
 44
-0.1
 45
-0.05
  9
HW
 49
-0.2
 74
     0
  0
LTYPE
  5
78E921E6
330
78E92138
100
AcDbSymbolTableRecord
100
AcDbLinetypeTableRecord
  2
PHANTOM
 70
     0
  3
Phantom
 72
    65
 73
     6
 40
0.9674999937000002
 49
0.5
 74
     0
 49
-0.0724999979
 74
     0
 49
0.125
 74
     0
 49
-0.0724999979
 74
     0
 49
0.125
 74
     0
 49
-0.0724999979
 74
     0
  0
LTYPE
  5
78E921E7
330
78E92138
100
AcDbSymbolTableRecord
100
AcDbLinetypeTableRecord
  2
PHANTOM2
 70
     0
  3
Phantom (.5x) ___ _ _ ___ _ _ ___ _ _ ___ _ _
 72
    65
 73
     6
 40
1.25
 49
0.625
 74
     0
 49
-0.125
 74
     0
 49
0.125
 74
     0
 49
-0.125
 74
     0
 49
0.125
 74
     0
 49
-0.125
 74
     0
  0
LTYPE
  5
78E921E8
330
78E92138
100
AcDbSymbolTableRecord
100
AcDbLinetypeTableRecord
  2
PHANTOMX2
 70
     0
  3
Phantom (2x) ____________    ____    ____   _
 72
    65
 73
     6
 40
5.0
 49
2.5
 74
     0
 49
-0.5
 74
     0
 49
0.5
 74
     0
 49
-0.5
 74
     0
 49
0.5
 74
     0
 49
-0.5
 74
     0
  0
LTYPE
  5
78E921EA
330
78E92138
100
AcDbSymbolTableRecord
100
AcDbLinetypeTableRecord
  2
TRACKS
 70
     0
  3
Tracks -|-|-|-|-|-|-|-|-|-|-|-|-|-|-|-|-|-|-|-|-|-|-|-|-
 72
    65
 73
     2
 40
0.3
 49
0.15
 74
     2
 75
     0
340
78E921E9
 46
0.25
 50
0.0
 44
0.0
 45
0.0
  9
TRACK1
 49
0.15
 74
     0
  0
LTYPE
  5
78E921ED
330
78E92138
100
AcDbSymbolTableRecord
100
AcDbLinetypeTableRecord
  2
ZIGZAG
 70
     0
  3
Zig zag /\/\/\/\/\/\/\/\/\/\/\/\/\/\/\/\/\/\/\/\/\/\/\/
 72
    65
 73
     4
 40
0.8001
 49
0.0001
 74
     0
 49
-0.2
 74
     2
 75
     0
340
78E921EB
 46
0.2
 50
0.0
 44
-0.2
 45
0.0
  9
ZIG
 49
-0.4
 74
     2
 75
     0
340
78E921EC
 46
0.2
 50
180.0
 44
0.2
 45
0.0
  9
ZIG
 49
-0.2
 74
     0
  0
LTYPE
  5
78E921EE
330
78E92138
100
AcDbSymbolTableRecord
100
AcDbLinetypeTableRecord
  2
DOTTED
 70
     0
  3
Dotted
 72
    65
 73
     2
 40
0.125
 49
0.0
 74
     0
 49
-0.125
 74
     0
  0
LTYPE
  5
78E921EF
330
78E92138
100
AcDbSymbolTableRecord
100
AcDbLinetypeTableRecord
  2
CUTTING
 70
     0
  3
Cutting
 72
    65
 73
     6
 40
1.4674999937
 49
1.0
 74
     0
 49
-0.0724999979
 74
     0
 49
0.125
 74
     0
 49
-0.0724999979
 74
     0
 49
0.125
 74
     0
 49
-0.0724999979
 74
     0
  0
LTYPE
  5
78E921F0
330
78E92138
100
AcDbSymbolTableRecord
100
AcDbLinetypeTableRecord
  2
STITCH
 70
     0
  3
Stitch
 72
    65
 73
     2
 40
0.1449999958
 49
0.0724999979
 74
     0
 49
-0.0724999979
 74
     0
  0
LTYPE
  5
78E921F1
330
78E92138
100
AcDbSymbolTableRecord
100
AcDbLinetypeTableRecord
  2
ACAD_ISO02W100
 70
     0
  3
ISO dash __ __ __ __ __ __ __ __ __ __ __ __ __
 72
    65
 73
     2
 40
15.0
 49
12.0
 74
     0
 49
-3.0
 74
     0
  0
LTYPE
  5
78E921F2
330
78E92138
100
AcDbSymbolTableRecord
100
AcDbLinetypeTableRecord
  2
ACAD_ISO03W100
 70
     0
  3
ISO dash space __    __    __    __    __    __
 72
    65
 73
     2
 40
30.0
 49
12.0
 74
     0
 49
-18.0
 74
     0
  0
LTYPE
  5
78E921F3
330
78E92138
100
AcDbSymbolTableRecord
100
AcDbLinetypeTableRecord
  2
ACAD_ISO04W100
 70
     0
  3
ISO long-dash dot ____ . ____ . ____ . ____ . _
 72
    65
 73
     4
 40
30.0
 49
24.0
 74
     0
 49
-3.0
 74
     0
 49
0.0
 74
     0
 49
-3.0
 74
     0
  0
LTYPE
  5
78E921F4
330
78E92138
100
AcDbSymbolTableRecord
100
AcDbLinetypeTableRecord
  2
ACAD_ISO05W100
 70
     0
  3
ISO long-dash double-dot ____ .. ____ .. ____ . 
 72
    65
 73
     6
 40
33.0
 49
24.0
 74
     0
 49
-3.0
 74
     0
 49
0.0
 74
     0
 49
-3.0
 74
     0
 49
0.0
 74
     0
 49
-3.0
 74
     0
  0
LTYPE
  5
78E921F5
330
78E92138
100
AcDbSymbolTableRecord
100
AcDbLinetypeTableRecord
  2
ACAD_ISO06W100
 70
     0
  3
ISO long-dash triple-dot ____ ... ____ ... ____
 72
    65
 73
     8
 40
36.0
 49
24.0
 74
     0
 49
-3.0
 74
     0
 49
0.0
 74
     0
 49
-3.0
 74
     0
 49
0.0
 74
     0
 49
-3.0
 74
     0
 49
0.0
 74
     0
 49
-3.0
 74
     0
  0
LTYPE
  5
78E921F6
330
78E92138
100
AcDbSymbolTableRecord
100
AcDbLinetypeTableRecord
  2
ACAD_ISO07W100
 70
     0
  3
ISO dot . . . . . . . . . . . . . . . . . . . . 
 72
    65
 73
     2
 40
3.0
 49
0.0
 74
     0
 49
-3.0
 74
     0
  0
LTYPE
  5
78E921F7
330
78E92138
100
AcDbSymbolTableRecord
100
AcDbLinetypeTableRecord
  2
ACAD_ISO08W100
 70
     0
  3
ISO long-dash short-dash ____ __ ____ __ ____ _
 72
    65
 73
     4
 40
36.0
 49
24.0
 74
     0
 49
-3.0
 74
     0
 49
6.0
 74
     0
 49
-3.0
 74
     0
  0
LTYPE
  5
78E921F8
330
78E92138
100
AcDbSymbolTableRecord
100
AcDbLinetypeTableRecord
  2
ACAD_ISO09W100
 70
     0
  3
ISO long-dash double-short-dash ____ __ __ ____
 72
    65
 73
     6
 40
45.0
 49
24.0
 74
     0
 49
-3.0
 74
     0
 49
6.0
 74
     0
 49
-3.0
 74
     0
 49
6.0
 74
     0
 49
-3.0
 74
     0
  0
LTYPE
  5
78E921F9
330
78E92138
100
AcDbSymbolTableRecord
100
AcDbLinetypeTableRecord
  2
ACAD_ISO10W100
 70
     0
  3
ISO dash dot __ . __ . __ . __ . __ . __ . __ . 
 72
    65
 73
     4
 40
18.0
 49
12.0
 74
     0
 49
-3.0
 74
     0
 49
0.0
 74
     0
 49
-3.0
 74
     0
  0
LTYPE
  5
78E921FA
330
78E92138
100
AcDbSymbolTableRecord
100
AcDbLinetypeTableRecord
  2
ACAD_ISO11W100
 70
     0
  3
ISO double-dash dot __ __ . __ __ . __ __ . __ _
 72
    65
 73
     6
 40
33.0
 49
12.0
 74
     0
 49
-3.0
 74
     0
 49
12.0
 74
     0
 49
-3.0
 74
     0
 49
0.0
 74
     0
 49
-3.0
 74
     0
  0
LTYPE
  5
78E921FB
330
78E92138
100
AcDbSymbolTableRecord
100
AcDbLinetypeTableRecord
  2
ACAD_ISO12W100
 70
     0
  3
ISO dash double-dot __ . . __ . . __ . . __ . . 
 72
    65
 73
     6
 40
21.0
 49
12.0
 74
     0
 49
-3.0
 74
     0
 49
0.0
 74
     0
 49
-3.0
 74
     0
 49
0.0
 74
     0
 49
-3.0
 74
     0
  0
LTYPE
  5
78E921FC
330
78E92138
100
AcDbSymbolTableRecord
100
AcDbLinetypeTableRecord
  2
ACAD_ISO13W100
 70
     0
  3
ISO double-dash double-dot __ __ . . __ __ . . _
 72
    65
 73
     8
 40
36.0
 49
12.0
 74
     0
 49
-3.0
 74
     0
 49
12.0
 74
     0
 49
-3.0
 74
     0
 49
0.0
 74
     0
 49
-3.0
 74
     0
 49
0.0
 74
     0
 49
-3.0
 74
     0
  0
LTYPE
  5
78E921FD
330
78E92138
100
AcDbSymbolTableRecord
100
AcDbLinetypeTableRecord
  2
ACAD_ISO14W100
 70
     0
  3
ISO dash triple-dot __ . . . __ . . . __ . . . _
 72
    65
 73
     8
 40
24.0
 49
12.0
 74
     0
 49
-3.0
 74
     0
 49
0.0
 74
     0
 49
-3.0
 74
     0
 49
0.0
 74
     0
 49
-3.0
 74
     0
 49
0.0
 74
     0
 49
-3.0
 74
     0
  0
LTYPE
  5
78E921FE
330
78E92138
100
AcDbSymbolTableRecord
100
AcDbLinetypeTableRecord
  2
ACAD_ISO15W100
 70
     0
  3
ISO double-dash triple-dot __ __ . . . __ __ . .
 72
    65
 73
    10
 40
39.0
 49
12.0
 74
     0
 49
-3.0
 74
     0
 49
12.0
 74
     0
 49
-3.0
 74
     0
 49
0.0
 74
     0
 49
-3.0
 74
     0
 49
0.0
 74
     0
 49
-3.0
 74
     0
 49
0.0
 74
     0
 49
-3.0
 74
     0
  0
LTYPE
  5
78E92201
330
78E92138
100
AcDbSymbolTableRecord
100
AcDbLinetypeTableRecord
  2
BATTING
 70
     0
  3
Batting SSSSSSSSSSSSSSSSSSSSSSSSSSSSSSSSSSSSSSSSSSSSSSS
 72
    65
 73
     4
 40
0.4001
 49
0.0001
 74
     0
 49
-0.1
 74
     2
 75
     0
340
78E921FF
 46
0.1
 50
0.0
 44
-0.1
 45
0.0
  9
BAT
 49
-0.2
 74
     2
 75
     0
340
78E92200
 46
0.1
 50
180.0
 44
0.1
 45
0.0
  9
BAT
 49
-0.1
 74
     0
  0
LTYPE
  5
78E92202
330
78E92138
100
AcDbSymbolTableRecord
100
AcDbLinetypeTableRecord
  2
BORDER
 70
     0
  3
Border
 72
    65
 73
     6
 40
1.2487499937
 49
0.5
 74
     0
 49
-0.0724999979
 74
     0
 49
0.5
 74
     0
 49
-0.0724999979
 74
     0
 49
0.03125
 74
     0
 49
-0.0724999979
 74
     0
  0
LTYPE
  5
78E92203
330
78E92138
100
AcDbSymbolTableRecord
100
AcDbLinetypeTableRecord
  2
BORDER2
 70
     0
  3
Border (.5x) __.__.__.__.__.__.__.__.__.__.__.
 72
    65
 73
     6
 40
0.875
 49
0.25
 74
     0
 49
-0.125
 74
     0
 49
0.25
 74
     0
 49
-0.125
 74
     0
 49
0.0
 74
     0
 49
-0.125
 74
     0
  0
LTYPE
  5
78E92204
330
78E92138
100
AcDbSymbolTableRecord
100
AcDbLinetypeTableRecord
  2
BORDERX2
 70
     0
  3
Border (2x) ____  ____  .  ____  ____  .  ___
 72
    65
 73
     6
 40
3.5
 49
1.0
 74
     0
 49
-0.5
 74
     0
 49
1.0
 74
     0
 49
-0.5
 74
     0
 49
0.0
 74
     0
 49
-0.5
 74
     0
  0
LTYPE
  5
78E92205
330
78E92138
100
AcDbSymbolTableRecord
100
AcDbLinetypeTableRecord
  2
CENTER
 70
     0
  3
Center
 72
    65
 73
     4
 40
0.7699999958000001
 49
0.5
 74
     0
 49
-0.0724999979
 74
     0
 49
0.125
 74
     0
 49
-0.0724999979
 74
     0
  0
LTYPE
  5
78E92206
330
78E92138
100
AcDbSymbolTableRecord
100
AcDbLinetypeTableRecord
  2
CENTER2
 70
     0
  3
Center (.5x) ___ _ ___ _ ___ _ ___ _ ___ _ ___
 72
    65
 73
     4
 40
1.125
 49
0.75
 74
     0
 49
-0.125
 74
     0
 49
0.125
 74
     0
 49
-0.125
 74
     0
  0
ENDTAB
  0
TABLE
  2
LAYER
  5
78E92136
330
0
100
AcDbSymbolTable
 70
    11
  0
LAYER
  5
78E92143
330
78E92136
100
AcDbSymbolTableRecord
100
AcDbLayerTableRecord
  2
0
 70
     0
 62
     7
  6
Continuous
370
    -3
390
78E92142
347
78E92178
348
0
  0
LAYER
  5
78E92207
330
78E92136
100
AcDbSymbolTableRecord
100
AcDbLayerTableRecord
  2
1_250BIT_500DEP
 70
     0
 62
     5
420
      255
  6
Continuous
370
    -3
390
78E92142
347
78E92178
348
0
  0
LAYER
  5
78E92208
330
78E92136
100
AcDbSymbolTableRecord
100
AcDbLayerTableRecord
  2
2_250BIT_250DEP
 70
     0
 62
     5
420
      255
  6
Continuous
370
    -3
390
78E92142
347
78E92178
348
0
  0
LAYER
  5
78E92209
330
78E92136
100
AcDbSymbolTableRecord
100
AcDbLayerTableRecord
  2
3_250BIT_500TAB
 70
     0
 62
     5
420
      255
  6
Continuous
370
    -3
390
78E92142
347
78E92178
348
0
  0
LAYER
  5
78E9220A
330
78E92136
100
AcDbSymbolTableRecord
100
AcDbLayerTableRecord
  2
4_250BIT_250TAB
 70
     0
 62
     5
420
      255
  6
Continuous
370
    -3
390
78E92142
347
78E92178
348
0
  0
LAYER
  5
78E9220B
330
78E92136
100
AcDbSymbolTableRecord
100
AcDbLayerTableRecord
  2
5_250BIT_250SPEC
 70
     0
 62
     5
420
      255
  6
Continuous
370
    -3
390
78E92142
347
78E92178
348
0
  0
LAYER
  5
78E9220C
330
78E92136
100
AcDbSymbolTableRecord
100
AcDbLayerTableRecord
  2
6_125BIT_500DEP
 70
     0
 62
     5
420
      255
  6
Continuous
370
    -3
390
78E92142
347
78E92178
348
0
  0
LAYER
  5
78E9220D
330
78E92136
100
AcDbSymbolTableRecord
100
AcDbLayerTableRecord
  2
7_VCARVE_BIT
 70
     0
 62
     5
420
      255
  6
Continuous
370
    -3
390
78E92142
347
78E92178
348
0
  0
LAYER
  5
78E9220E
330
78E92136
100
AcDbSymbolTableRecord
100
AcDbLayerTableRecord
  2
8_250BIT_500OUTLINE
 70
     0
 62
     5
420
      255
  6
Continuous
370
    -3
390
78E92142
347
78E92178
348
0
  0
LAYER
  5
78E9220F
330
78E92136
100
AcDbSymbolTableRecord
100
AcDbLayerTableRecord
  2
CONSTRUCTION
 70
     1
 62
    -7
  6
Continuous
370
    -3
390
78E92142
347
78E92178
348
0
  0
LAYER
  5
78E92210
330
78E92136
100
AcDbSymbolTableRecord
100
AcDbLayerTableRecord
  2
DT_COMPONENTS
 70
     0
 62
     4
420
    65535
  6
Continuous
370
    -3
390
78E92142
347
78E92178
348
0
  0
ENDTAB
  0
TABLE
  2
STYLE
  5
78E92137
330
0
100
AcDbSymbolTable
 70
    13
  0
STYLE
  5
78E92144
330
78E92137
100
AcDbSymbolTableRecord
100
AcDbTextStyleTableRecord
  2
Standard
 70
     0
 40
0.0
 41
1.0
 50
0.0
 71
     0
 42
1.0
  3
txt
  4

  0
STYLE
  5
78E921C8
330
78E92137
100
AcDbSymbolTableRecord
100
AcDbTextStyleTableRecord
  2
QCADDimTextStyle
 70
     0
 40
0.0
 41
1.0
 50
0.0
 71
     0
 42
1.0
  3

  4

  0
STYLE
  5
78E921D7
330
78E92137
100
AcDbSymbolTableRecord
100
AcDbTextStyleTableRecord
  2
textstyle0
 70
     0
 40
0.0
 41
1.0
 50
0.0
 71
     0
 42
1.0
  3
qcadshp.shx
  4

  0
STYLE
  5
78E921D9
330
78E92137
100
AcDbSymbolTableRecord
100
AcDbTextStyleTableRecord
  2
textstyle1
 70
     0
 40
0.0
 41
1.0
 50
0.0
 71
     0
 42
1.0
  3
qcadshp.shx
  4

  0
STYLE
  5
78E921DB
330
78E92137
100
AcDbSymbolTableRecord
100
AcDbTextStyleTableRecord
  2
textstyle2
 70
     0
 40
0.0
 41
1.0
 50
0.0
 71
     0
 42
1.0
  3
ltypeshp.shx
  4

  0
STYLE
  5
78E921DD
330
78E92137
100
AcDbSymbolTableRecord
100
AcDbTextStyleTableRecord
  2
textstyle3
 70
     0
 40
0.0
 41
1.0
 50
0.0
 71
     0
 42
1.0
  3
ltypeshp.shx
  4

  0
STYLE
  5
78E921DF
330
78E92137
100
AcDbSymbolTableRecord
100
AcDbTextStyleTableRecord
  2
textstyle4
 70
     0
 40
0.0
 41
1.0
 50
0.0
 71
     0
 42
1.0
  3
STANDARD
  4

  0
STYLE
  5
78E921E4
330
78E92137
100
AcDbSymbolTableRecord
100
AcDbTextStyleTableRecord
  2
textstyle5
 70
     0
 40
0.0
 41
1.0
 50
0.0
 71
     0
 42
1.0
  3
STANDARD
  4

  0
STYLE
  5
78E921E9
330
78E92137
100
AcDbSymbolTableRecord
100
AcDbTextStyleTableRecord
  2
textstyle6
 70
     0
 40
0.0
 41
1.0
 50
0.0
 71
     0
 42
1.0
  3
ltypeshp.shx
  4

  0
STYLE
  5
78E921EB
330
78E92137
100
AcDbSymbolTableRecord
100
AcDbTextStyleTableRecord
  2
textstyle7
 70
     0
 40
0.0
 41
1.0
 50
0.0
 71
     0
 42
1.0
  3
ltypeshp.shx
  4

  0
STYLE
  5
78E921EC
330
78E92137
100
AcDbSymbolTableRecord
100
AcDbTextStyleTableRecord
  2
textstyle8
 70
     0
 40
0.0
 41
1.0
 50
0.0
 71
     0
 42
1.0
  3
ltypeshp.shx
  4

  0
STYLE
  5
78E921FF
330
78E92137
100
AcDbSymbolTableRecord
100
AcDbTextStyleTableRecord
  2
textstyle9
 70
     0
 40
0.0
 41
1.0
 50
0.0
 71
     0
 42
1.0
  3
ltypeshp.shx
  4

  0
STYLE
  5
78E92200
330
78E92137
100
AcDbSymbolTableRecord
100
AcDbTextStyleTableRecord
  2
textstyle10
 70
     0
 40
0.0
 41
1.0
 50
0.0
 71
     0
 42
1.0
  3
ltypeshp.shx
  4

  0
ENDTAB
  0
TABLE
  2
VIEW
  5
78E92139
330
0
100
AcDbSymbolTable
 70
     0
  0
ENDTAB
  0
TABLE
  2
UCS
  5
78E9213A
330
0
100
AcDbSymbolTable
 70
     0
  0
ENDTAB
  0
TABLE
  2
APPID
  5
78E9213C
330
0
100
AcDbSymbolTable
 70
     2
  0
APPID
  5
78E92145
330
78E9213C
100
AcDbSymbolTableRecord
100
AcDbRegAppTableRecord
  2
ACAD
 70
     0
  0
APPID
  5
78E92190
330
78E9213C
100
AcDbSymbolTableRecord
100
AcDbRegAppTableRecord
  2
QCAD
 70
     0
  0
ENDTAB
  0
TABLE
  2
DIMSTYLE
  5
78E9213D
330
0
100
AcDbSymbolTable
 70
     2
100
AcDbDimStyleTable
  0
DIMSTYLE
105
78E92159
330
78E9213D
100
AcDbSymbolTableRecord
100
AcDbDimStyleTableRecord
  2
Standard
 70
     0
178
     0
340
78E92144
  0
DIMSTYLE
105
78E921C9
330
78E9213D
100
AcDbSymbolTableRecord
100
AcDbDimStyleTableRecord
  2
QCADDimStyle
 70
     0
178
     0
279
     2
340
78E921C8
  0
ENDTAB
  0
TABLE
  2
BLOCK_RECORD
  5
78E92135
330
0
100
AcDbSymbolTable
 70
     0
  0
BLOCK_RECORD
  5
78E92151
330
78E92135
100
AcDbSymbolTableRecord
100
AcDbBlockTableRecord
  2
*Model_Space
340
78E92154
 70
     0
280
     1
281
     0
  0
BLOCK_RECORD
  5
78E9214D
330
78E92135
100
AcDbSymbolTableRecord
100
AcDbBlockTableRecord
  2
*Paper_Space
340
78E92150
 70
     0
280
     1
281
     0
  0
ENDTAB
  0
ENDSEC
  0
SECTION
  2
BLOCKS
  0
BLOCK
  5
78E92152
330
78E92151
100
AcDbEntity
  8
0
100
AcDbBlockBegin
  2
*Model_Space
 70
     0
 10
0.0
 20
0.0
 30
0.0
  3
*Model_Space
  1

  0
ENDBLK
  5
78E92153
330
78E92151
100
AcDbEntity
  8
0
100
AcDbBlockEnd
  0
BLOCK
  5
78E9214E
330
78E9214D
100
AcDbEntity
 67
     1
  8
0
100
AcDbBlockBegin
  2
*Paper_Space
 70
     0
 10
0.0
 20
0.0
 30
0.0
  3
*Paper_Space
  1

  0
ENDBLK
  5
78E9214F
330
78E9214D
100
AcDbEntity
 67
     1
  8
0
100
AcDbBlockEnd
  0
ENDSEC
  0
SECTION
  2
ENTITIES
  0
LINE
  5
78E9211B
330
78E92151
100
AcDbEntity
  8
DT_COMPONENTS
  6
Continuous
100
AcDbLine
 10
14.2487337221
 20
42.520620058
 30
0.0
 11
14.5366793539
 21
42.8664340443
 31
0.0
  0
LINE
  5
78E9211C
330
78E92151
100
AcDbEntity
  8
DT_COMPONENTS
  6
Continuous
100
AcDbLine
 10
14.844069564
 20
42.6104823716
 30
0.0
 11
14.5561239321
 21
42.2646683853
 31
0.0
  0
LINE
  5
78E9211D
330
78E92151
100
AcDbEntity
  8
DT_COMPONENTS
  6
Continuous
100
AcDbLine
 10
14.0821789828
 20
42.7894313651
 30
0.0
 11
14.0181910646
 21
42.7125838126
 31
0.0
  0
LINE
  5
78E9211E
330
78E92151
100
AcDbEntity
  8
DT_COMPONENTS
  6
Continuous
100
AcDbLine
 10
14.8506545078
 20
42.1495521833
 30
0.0
 11
14.0821789828
 21
42.7894313651
 31
0.0
  0
LINE
  5
78E9211F
330
78E92151
100
AcDbEntity
  8
DT_COMPONENTS
  6
Continuous
100
AcDbLine
 10
14.0181910646
 20
42.7125838126
 30
0.0
 11
14.7866665897
 21
42.0727046307
 31
0.0
  0
LINE
  5
78E92120
330
78E92151
100
AcDbEntity
  8
DT_COMPONENTS
  6
Continuous
100
AcDbLine
 10
14.0701424664
 20
42.8726505622
 30
0.0
 11
14.0701424664
 21
42.8726505622
 31
0.0
  0
LINE
  5
78E92121
330
78E92151
100
AcDbEntity
  8
DT_COMPONENTS
  6
Continuous
100
AcDbLine
 10
14.9346774321
 20
42.1527864827
 30
0.0
 11
14.9346774321
 21
42.1527864827
 31
0.0
  0
LINE
  5
78E92122
330
78E92151
100
AcDbEntity
  8
DT_COMPONENTS
  6
Continuous
100
AcDbLine
 10
14.7866665897
 20
42.0727046307
 30
0.0
 11
14.8506545078
 21
42.1495521833
 31
0.0
  0
LINE
  5
78E92123
330
78E92151
100
AcDbEntity
  8
DT_COMPONENTS
  6
Continuous
100
AcDbLine
 10
14.5561239321
 20
42.2646683853
 30
0.0
 11
14.2487337221
 21
42.520620058
 31
0.0
  0
LINE
  5
78E92124
330
78E92151
100
AcDbEntity
  8
DT_COMPONENTS
  6
Continuous
100
AcDbLine
 10
14.454380229
 20
42.5527109713
 30
0.0
 11
14.454380229
 21
42.5527109713
 31
0.0
  0
LINE
  5
78E92125
330
78E92151
100
AcDbEntity
  8
DT_COMPONENTS
  6
Continuous
100
AcDbLine
 10
14.6058421512
 20
42.808844918
 30
0.0
 11
14.6698300694
 21
42.8856924705
 31
0.0
  0
LINE
  5
78E92126
330
78E92151
100
AcDbEntity
  8
DT_COMPONENTS
  6
Continuous
100
AcDbLine
 10
14.8388946849
 20
42.7449190505
 30
0.0
 11
14.7749067667
 21
42.6680714979
 31
0.0
  0
LINE
  5
78E92127
330
78E92151
100
AcDbEntity
  8
DT_COMPONENTS
  6
Continuous
100
AcDbLine
 10
14.6698300694
 20
42.8856924705
 30
0.0
 11
14.8388946849
 21
42.7449190505
 31
0.0
  0
LINE
  5
78E92128
330
78E92151
100
AcDbEntity
  8
DT_COMPONENTS
  6
Continuous
100
AcDbLine
 10
14.4686921909
 20
42.7847835198
 30
0.0
 11
14.5086846397
 21
42.8328132401
 31
0.0
  0
LINE
  5
78E92129
330
78E92151
100
AcDbEntity
  8
DT_COMPONENTS
  6
Continuous
100
AcDbLine
 10
14.7760824009
 20
42.528831847
 30
0.0
 11
14.4686921909
 21
42.7847835198
 31
0.0
  0
LINE
  5
78E9212A
330
78E92151
100
AcDbEntity
  8
DT_COMPONENTS
  6
Continuous
100
AcDbLine
 10
14.8160748498
 20
42.5768615674
 30
0.0
 11
14.7760824009
 21
42.528831847
 31
0.0
  0
LINE
  5
78E9212B
330
78E92151
100
AcDbEntity
  8
DT_COMPONENTS
  6
Continuous
100
AcDbLine
 10
14.5086846397
 20
42.8328132401
 30
0.0
 11
14.8160748498
 21
42.5768615674
 31
0.0
  0
LINE
  5
78E9212C
330
78E92151
100
AcDbEntity
  8
DT_COMPONENTS
  6
Continuous
100
AcDbLine
 10
14.7749067667
 20
42.6680714979
 30
0.0
 11
14.6058421512
 21
42.808844918
 31
0.0
  0
LINE
  5
78E9212D
330
78E92151
100
AcDbEntity
  8
DT_COMPONENTS
  6
Continuous
100
AcDbLine
 10
14.5366793539
 20
42.8664340443
 30
0.0
 11
14.844069564
 21
42.6104823716
 31
0.0
  0
LINE
  5
78E9212E
330
78E92151
100
AcDbEntity
  8
DT_COMPONENTS
  6
Continuous
100
AcDbLine
 10
14.9346774321
 20
42.1527864827
 30
0.0
 11
14.9346774321
 21
42.1527864827
 31
0.0
  0
CIRCLE
  5
78E9212F
330
78E92151
100
AcDbEntity
  8
DT_COMPONENTS
  6
Continuous
100
AcDbCircle
 10
4.8513397129
 20
42.417079548
 30
0.0
 40
0.4
  0
CIRCLE
  5
78E92130
330
78E92151
100
AcDbEntity
  8
DT_COMPONENTS
  6
Continuous
100
AcDbCircle
 10
4.8513397129
 20
42.417079548
 30
0.0
 40
0.35
  0
CIRCLE
  5
78E92131
330
78E92151
100
AcDbEntity
  8
DT_COMPONENTS
  6
Continuous
100
AcDbCircle
 10
4.8513397129
 20
42.417079548
 30
0.0
 40
0.215
  0
CIRCLE
  5
78E92132
330
78E92151
100
AcDbEntity
  8
DT_COMPONENTS
  6
Continuous
100
AcDbCircle
 10
6.0040530006
 20
43.3768983207
 30
0.0
 40
0.4
  0
CIRCLE
  5
78E92133
330
78E92151
100
AcDbEntity
  8
DT_COMPONENTS
  6
Continuous
100
AcDbCircle
 10
6.0040530006
 20
43.3768983207
 30
0.0
 40
0.35
  0
CIRCLE
  5
51
330
78E92151
100
AcDbEntity
  8
DT_COMPONENTS
  6
Continuous
100
AcDbCircle
 10
6.0040530006
 20
43.3768983207
 30
0.0
 40
0.215
  0
CIRCLE
  5
53
330
78E92151
100
AcDbEntity
  8
DT_COMPONENTS
  6
Continuous
100
AcDbCircle
 10
7.4195
 20
43.3768983268
 30
0.0
 40
0.4
  0
CIRCLE
  5
54
330
78E92151
100
AcDbEntity
  8
DT_COMPONENTS
  6
Continuous
100
AcDbCircle
 10
7.4195
 20
43.3768983268
 30
0.0
 40
0.35
  0
CIRCLE
  5
55
330
78E92151
100
AcDbEntity
  8
DT_COMPONENTS
  6
Continuous
100
AcDbCircle
 10
7.4195
 20
43.3768983268
 30
0.0
 40
0.215
  0
CIRCLE
  5
57
330
78E92151
100
AcDbEntity
  8
DT_COMPONENTS
  6
Continuous
100
AcDbCircle
 10
15.3986602871
 20
42.417079548
 30
0.0
 40
0.4
  0
CIRCLE
  5
58
330
78E92151
100
AcDbEntity
  8
DT_COMPONENTS
  6
Continuous
100
AcDbCircle
 10
15.3986602871
 20
42.417079548
 30
0.0
 40
0.35
  0
CIRCLE
  5
59
330
78E92151
100
AcDbEntity
  8
DT_COMPONENTS
  6
Continuous
100
AcDbCircle
 10
15.3986602871
 20
42.417079548
 30
0.0
 40
0.215
  0
CIRCLE
  5
5B
330
78E92151
100
AcDbEntity
  8
DT_COMPONENTS
  6
Continuous
100
AcDbCircle
 10
14.2459469994
 20
43.3768983207
 30
0.0
 40
0.4
  0
CIRCLE
  5
5C
330
78E92151
100
AcDbEntity
  8
DT_COMPONENTS
  6
Continuous
100
AcDbCircle
 10
14.2459469994
 20
43.3768983207
 30
0.0
 40
0.35
  0
CIRCLE
  5
5D
330
78E92151
100
AcDbEntity
  8
DT_COMPONENTS
  6
Continuous
100
AcDbCircle
 10
14.2459469994
 20
43.3768983207
 30
0.0
 40
0.215
  0
CIRCLE
  5
5F
330
78E92151
100
AcDbEntity
  8
DT_COMPONENTS
  6
Continuous
100
AcDbCircle
 10
12.8305
 20
43.3768983268
 30
0.0
 40
0.4
  0
CIRCLE
  5
60
330
78E92151
100
AcDbEntity
  8
DT_COMPONENTS
  6
Continuous
100
AcDbCircle
 10
12.8305
 20
43.3768983268
 30
0.0
 40
0.35
  0
CIRCLE
  5
61
330
78E92151
100
AcDbEntity
  8
DT_COMPONENTS
  6
Continuous
100
AcDbCircle
 10
12.8305
 20
43.3768983268
 30
0.0
 40
0.215
  0
CIRCLE
  5
63
330
78E92151
100
AcDbEntity
  8
DT_COMPONENTS
  6
Continuous
100
AcDbCircle
 10
5.9719932387
 20
30.6855350879
 30
0.0
 40
0.4
  0
CIRCLE
  5
64
330
78E92151
100
AcDbEntity
  8
DT_COMPONENTS
  6
Continuous
100
AcDbCircle
 10
5.9719932387
 20
30.6855350879
 30
0.0
 40
0.35
  0
CIRCLE
  5
65
330
78E92151
100
AcDbEntity
  8
DT_COMPONENTS
  6
Continuous
100
AcDbCircle
 10
5.9719932387
 20
30.6855350879
 30
0.0
 40
0.215
  0
LINE
  5
67
330
78E92151
100
AcDbEntity
  8
DT_COMPONENTS
  6
Continuous
100
AcDbLine
 10
2.189045582
 20
41.0
 30
0.0
 11
2.189045582
 21
43.25
 31
0.0
  0
LINE
  5
68
330
78E92151
100
AcDbEntity
  8
DT_COMPONENTS
  6
Continuous
100
AcDbLine
 10
2.189045582
 20
43.25
 30
0.0
 11
2.689045582
 21
43.25
 31
0.0
  0
LINE
  5
69
330
78E92151
100
AcDbEntity
  8
DT_COMPONENTS
  6
Continuous
100
AcDbLine
 10
2.689045582
 20
43.25
 30
0.0
 11
2.689045582
 21
41.0
 31
0.0
  0
LINE
  5
6A
330
78E92151
100
AcDbEntity
  8
DT_COMPONENTS
  6
Continuous
100
AcDbLine
 10
2.689045582
 20
41.0
 30
0.0
 11
2.189045582
 21
41.0
 31
0.0
  0
LINE
  5
6C
330
78E92151
100
AcDbEntity
  8
DT_COMPONENTS
  6
Continuous
100
AcDbLine
 10
5.4999427559
 20
43.75
 30
0.0
 11
0.4999427559
 21
43.75
 31
0.0
  0
LINE
  5
6D
330
78E92151
100
AcDbEntity
  8
DT_COMPONENTS
  6
Continuous
100
AcDbLine
 10
0.4999427559
 20
43.25
 30
0.0
 11
5.4999427559
 21
43.25
 31
0.0
  0
LINE
  5
6E
330
78E92151
100
AcDbEntity
  8
DT_COMPONENTS
  6
Continuous
100
AcDbLine
 10
5.4999427559
 20
43.25
 30
0.0
 11
5.4999427559
 21
43.75
 31
0.0
  0
LINE
  5
70
330
78E92151
100
AcDbEntity
  8
DT_COMPONENTS
  6
Continuous
100
AcDbLine
 10
18.060902937
 20
41.0
 30
0.0
 11
18.060902937
 21
43.25
 31
0.0
  0
LINE
  5
71
330
78E92151
100
AcDbEntity
  8
DT_COMPONENTS
  6
Continuous
100
AcDbLine
 10
18.060902937
 20
43.25
 30
0.0
 11
17.560902937
 21
43.25
 31
0.0
  0
LINE
  5
72
330
78E92151
100
AcDbEntity
  8
DT_COMPONENTS
  6
Continuous
100
AcDbLine
 10
17.560902937
 20
43.25
 30
0.0
 11
17.560902937
 21
41.0
 31
0.0
  0
LINE
  5
73
330
78E92151
100
AcDbEntity
  8
DT_COMPONENTS
  6
Continuous
100
AcDbLine
 10
17.560902937
 20
41.0
 30
0.0
 11
18.060902937
 21
41.0
 31
0.0
  0
LINE
  5
75
330
78E92151
100
AcDbEntity
  8
DT_COMPONENTS
  6
Continuous
100
AcDbLine
 10
14.75
 20
43.75
 30
0.0
 11
19.75
 21
43.75
 31
0.0
  0
LINE
  5
76
330
78E92151
100
AcDbEntity
  8
DT_COMPONENTS
  6
Continuous
100
AcDbLine
 10
19.75
 20
43.75
 30
0.0
 11
19.75
 21
43.25
 31
0.0
  0
LINE
  5
77
330
78E92151
100
AcDbEntity
  8
DT_COMPONENTS
  6
Continuous
100
AcDbLine
 10
19.75
 20
43.25
 30
0.0
 11
14.75
 21
43.25
 31
0.0
  0
LINE
  5
78
330
78E92151
100
AcDbEntity
  8
DT_COMPONENTS
  6
Continuous
100
AcDbLine
 10
14.75
 20
43.25
 30
0.0
 11
14.75
 21
43.75
 31
0.0
  0
LINE
  5
7A
330
78E92151
100
AcDbEntity
  8
DT_COMPONENTS
  6
Continuous
100
AcDbLine
 10
19.75
 20
43.75
 30
0.0
 11
20.25
 21
43.75
 31
0.0
  0
LINE
  5
7B
330
78E92151
100
AcDbEntity
  8
DT_COMPONENTS
  6
Continuous
100
AcDbLine
 10
20.25
 20
43.75
 30
0.0
 11
20.25
 21
31.1868088976
 31
0.0
  0
LINE
  5
7C
330
78E92151
100
AcDbEntity
  8
DT_COMPONENTS
  6
Continuous
100
AcDbLine
 10
19.75
 20
31.2686710695
 30
0.0
 11
19.75
 21
43.75
 31
0.0
  0
LINE
  5
7D
330
78E92151
100
AcDbEntity
  8
DT_COMPONENTS
  6
Continuous
100
AcDbLine
 10
20.25
 20
31.1868088976
 30
0.0
 11
19.75
 21
31.2686710695
 31
0.0
  0
LINE
  5
7F
330
78E92151
100
AcDbEntity
  8
DT_COMPONENTS
  6
Continuous
100
AcDbLine
 10
12.71875
 20
40.5
 30
0.0
 11
12.781
 21
40.5
 31
0.0
  0
LINE
  5
80
330
78E92151
100
AcDbEntity
  8
DT_COMPONENTS
  6
Continuous
100
AcDbLine
 10
7.53125
 20
40.5
 30
0.0
 11
7.469
 21
40.5
 31
0.0
  0
LINE
  5
81
330
78E92151
100
AcDbEntity
  8
DT_COMPONENTS
  6
Continuous
100
AcDbLine
 10
7.53125
 20
40.5
 30
0.0
 11
7.08125
 21
40.5
 31
0.0
  0
LINE
  5
82
330
78E92151
100
AcDbEntity
  8
DT_COMPONENTS
  6
Continuous
100
AcDbLine
 10
12.71875
 20
41.0
 30
0.0
 11
7.53125
 21
41.0
 31
0.0
  0
LINE
  5
83
330
78E92151
100
AcDbEntity
  8
DT_COMPONENTS
  6
Continuous
100
AcDbLine
 10
12.66875
 20
41.0
 30
0.0
 11
12.35125
 21
41.0
 31
0.0
  0
LINE
  5
84
330
78E92151
100
AcDbEntity
  8
DT_COMPONENTS
  6
Continuous
100
AcDbLine
 10
12.9625
 20
40.75
 30
0.0
 11
7.2875
 21
40.75
 31
0.0
  0
LINE
  5
85
330
78E92151
100
AcDbEntity
  8
DT_COMPONENTS
  6
Continuous
100
AcDbLine
 10
11.1175
 20
43.6375
 30
0.0
 11
11.1175
 21
43.1875
 31
0.0
  0
LINE
  5
86
330
78E92151
100
AcDbEntity
  8
DT_COMPONENTS
  6
Continuous
100
AcDbLine
 10
11.5175
 20
43.6375
 30
0.0
 11
11.1175
 21
43.6375
 31
0.0
  0
LINE
  5
87
330
78E92151
100
AcDbEntity
  8
DT_COMPONENTS
  6
Continuous
100
AcDbLine
 10
11.47625
 20
42.7
 30
0.0
 11
11.47625
 21
43.125
 31
0.0
  0
LINE
  5
88
330
78E92151
100
AcDbEntity
  8
DT_COMPONENTS
  6
Continuous
100
AcDbLine
 10
10.625
 20
43.1875
 30
0.0
 11
10.625
 21
43.2875
 31
0.0
  0
LINE
  5
89
330
78E92151
100
AcDbEntity
  8
DT_COMPONENTS
  6
Continuous
100
AcDbLine
 10
9.625
 20
43.1875
 30
0.0
 11
10.625
 21
43.1875
 31
0.0
  0
LINE
  5
8A
330
78E92151
100
AcDbEntity
  8
DT_COMPONENTS
  6
Continuous
100
AcDbLine
 10
10.625
 20
43.2875
 30
0.0
 11
9.625
 21
43.2875
 31
0.0
  0
LINE
  5
8B
330
78E92151
100
AcDbEntity
  8
DT_COMPONENTS
  6
Continuous
100
AcDbLine
 10
10.125
 20
43.0
 30
0.0
 11
10.125
 21
43.125
 31
0.0
  0
LINE
  5
8C
330
78E92151
100
AcDbEntity
  8
DT_COMPONENTS
  6
Continuous
100
AcDbLine
 10
10.125
 20
43.125
 30
0.0
 11
10.125
 21
42.0
 31
0.0
  0
LINE
  5
8D
330
78E92151
100
AcDbEntity
  8
DT_COMPONENTS
  6
Continuous
100
AcDbLine
 10
9.96625
 20
42.9125
 30
0.0
 11
10.28375
 21
42.9125
 31
0.0
  0
CIRCLE
  5
8E
330
78E92151
100
AcDbEntity
  8
DT_COMPONENTS
  6
Continuous
100
AcDbCircle
 10
7.2875
 20
42.625
 30
0.0
 40
0.084
  0
LINE
  5
8F
330
78E92151
100
AcDbEntity
  8
DT_COMPONENTS
  6
Continuous
100
AcDbLine
 10
7.2875
 20
40.75
 30
0.0
 11
7.2875
 21
42.625
 31
0.0
  0
LINE
  5
90
330
78E92151
100
AcDbEntity
  8
DT_COMPONENTS
  6
Continuous
100
AcDbLine
 10
7.08125
 20
40.5
 30
0.0
 11
7.08125
 21
42.875
 31
0.0
  0
LINE
  5
91
330
78E92151
100
AcDbEntity
  8
DT_COMPONENTS
  6
Continuous
100
AcDbLine
 10
9.96625
 20
42.7
 30
0.0
 11
9.09125
 21
42.7
 31
0.0
  0
LINE
  5
92
330
78E92151
100
AcDbEntity
  8
DT_COMPONENTS
  6
Continuous
100
AcDbLine
 10
11.15875
 20
42.7
 30
0.0
 11
10.28375
 21
42.7
 31
0.0
  0
LINE
  5
93
330
78E92151
100
AcDbEntity
  8
DT_COMPONENTS
  6
Continuous
100
AcDbLine
 10
11.15875
 20
42.9125
 30
0.0
 11
11.47625
 21
42.9125
 31
0.0
  0
LINE
  5
94
330
78E92151
100
AcDbEntity
  8
DT_COMPONENTS
  6
Continuous
100
AcDbLine
 10
8.77375
 20
42.9125
 30
0.0
 11
9.09125
 21
42.9125
 31
0.0
  0
LINE
  5
95
330
78E92151
100
AcDbEntity
  8
DT_COMPONENTS
  6
Continuous
100
AcDbLine
 10
7.625
 20
42.75
 30
0.0
 11
7.625
 21
42.75
 31
0.0
  0
LINE
  5
96
330
78E92151
100
AcDbEntity
  8
DT_COMPONENTS
  6
Continuous
100
AcDbLine
 10
10.015
 20
43.6375
 30
0.0
 11
10.235
 21
43.6375
 31
0.0
  0
LINE
  5
97
330
78E92151
100
AcDbEntity
  8
DT_COMPONENTS
  6
Continuous
100
AcDbLine
 10
12.71875
 20
43.125
 30
0.0
 11
12.71875
 21
41.0
 31
0.0
  0
LINE
  5
98
330
78E92151
100
AcDbEntity
  8
DT_COMPONENTS
  6
Continuous
100
AcDbLine
 10
10.235
 20
43.7375
 30
0.0
 11
10.015
 21
43.7375
 31
0.0
  0
LINE
  5
99
330
78E92151
100
AcDbEntity
  8
DT_COMPONENTS
  6
Continuous
100
AcDbLine
 10
10.235
 20
43.6375
 30
0.0
 11
10.235
 21
43.7375
 31
0.0
  0
LINE
  5
9A
330
78E92151
100
AcDbEntity
  8
DT_COMPONENTS
  6
Continuous
100
AcDbLine
 10
7.469
 20
40.5
 30
0.0
 11
7.469
 21
43.125
 31
0.0
  0
CIRCLE
  5
9B
330
78E92151
100
AcDbEntity
  8
DT_COMPONENTS
  6
Continuous
100
AcDbCircle
 10
12.9625
 20
40.75
 30
0.0
 40
0.084
  0
LINE
  5
9C
330
78E92151
100
AcDbEntity
  8
DT_COMPONENTS
  6
Continuous
100
AcDbLine
 10
12.71875
 20
40.5
 30
0.0
 11
13.16875
 21
40.5
 31
0.0
  0
CIRCLE
  5
9D
330
78E92151
100
AcDbEntity
  8
DT_COMPONENTS
  6
Continuous
100
AcDbCircle
 10
7.2875
 20
40.75
 30
0.0
 40
0.084
  0
LINE
  5
9E
330
78E92151
100
AcDbEntity
  8
DT_COMPONENTS
  6
Continuous
100
AcDbLine
 10
12.35125
 20
42.7
 30
0.0
 11
11.47625
 21
42.7
 31
0.0
  0
LINE
  5
9F
330
78E92151
100
AcDbEntity
  8
DT_COMPONENTS
  6
Continuous
100
AcDbLine
 10
7.2875
 20
42.625
 30
0.0
 11
12.9625
 21
42.625
 31
0.0
  0
LINE
  5
A0
330
78E92151
100
AcDbEntity
  8
DT_COMPONENTS
  6
Continuous
100
AcDbLine
 10
9.925
 20
43.6375
 30
0.0
 11
9.925
 21
43.1875
 31
0.0
  0
LINE
  5
A1
330
78E92151
100
AcDbEntity
  8
DT_COMPONENTS
  6
Continuous
100
AcDbLine
 10
10.325
 20
43.6375
 30
0.0
 11
9.925
 21
43.6375
 31
0.0
  0
LINE
  5
A2
330
78E92151
100
AcDbEntity
  8
DT_COMPONENTS
  6
Continuous
100
AcDbLine
 10
7.53125
 20
43.125
 30
0.0
 11
7.53125
 21
40.5
 31
0.0
  0
LINE
  5
A3
330
78E92151
100
AcDbEntity
  8
DT_COMPONENTS
  6
Continuous
100
AcDbLine
 10
7.53125
 20
41.0
 30
0.0
 11
7.53125
 21
43.125
 31
0.0
  0
LINE
  5
A4
330
78E92151
100
AcDbEntity
  8
DT_COMPONENTS
  6
Continuous
100
AcDbLine
 10
7.89875
 20
43.125
 30
0.0
 11
8.77375
 21
43.125
 31
0.0
  0
LINE
  5
A5
330
78E92151
100
AcDbEntity
  8
DT_COMPONENTS
  6
Continuous
100
AcDbLine
 10
7.469
 20
43.125
 30
0.0
 11
12.781
 21
43.125
 31
0.0
  0
LINE
  5
A6
330
78E92151
100
AcDbEntity
  8
DT_COMPONENTS
  6
Continuous
100
AcDbLine
 10
12.781
 20
43.1875
 30
0.0
 11
7.469
 21
43.1875
 31
0.0
  0
LINE
  5
A7
330
78E92151
100
AcDbEntity
  8
DT_COMPONENTS
  6
Continuous
100
AcDbLine
 10
9.0425
 20
43.6375
 30
0.0
 11
9.0425
 21
43.7375
 31
0.0
  0
LINE
  5
A8
330
78E92151
100
AcDbEntity
  8
DT_COMPONENTS
  6
Continuous
100
AcDbLine
 10
8.8225
 20
43.6375
 30
0.0
 11
9.0425
 21
43.6375
 31
0.0
  0
LINE
  5
A9
330
78E92151
100
AcDbEntity
  8
DT_COMPONENTS
  6
Continuous
100
AcDbLine
 10
8.7325
 20
43.6375
 30
0.0
 11
8.7325
 21
43.1875
 31
0.0
  0
LINE
  5
AA
330
78E92151
100
AcDbEntity
  8
DT_COMPONENTS
  6
Continuous
100
AcDbLine
 10
9.1325
 20
43.6375
 30
0.0
 11
8.7325
 21
43.6375
 31
0.0
  0
LINE
  5
AB
330
78E92151
100
AcDbEntity
  8
DT_COMPONENTS
  6
Continuous
100
AcDbLine
 10
9.09125
 20
43.125
 30
0.0
 11
9.96625
 21
43.125
 31
0.0
  0
LINE
  5
AC
330
78E92151
100
AcDbEntity
  8
DT_COMPONENTS
  6
Continuous
100
AcDbLine
 10
9.96625
 20
43.125
 30
0.0
 11
9.96625
 21
42.7
 31
0.0
  0
LINE
  5
AD
330
78E92151
100
AcDbEntity
  8
DT_COMPONENTS
  6
Continuous
100
AcDbLine
 10
10.28375
 20
43.125
 30
0.0
 11
11.15875
 21
43.125
 31
0.0
  0
LINE
  5
AE
330
78E92151
100
AcDbEntity
  8
DT_COMPONENTS
  6
Continuous
100
AcDbLine
 10
10.28375
 20
42.7
 30
0.0
 11
10.28375
 21
43.125
 31
0.0
  0
LINE
  5
AF
330
78E92151
100
AcDbEntity
  8
DT_COMPONENTS
  6
Continuous
100
AcDbLine
 10
11.15875
 20
43.125
 30
0.0
 11
11.15875
 21
42.7
 31
0.0
  0
LINE
  5
B0
330
78E92151
100
AcDbEntity
  8
DT_COMPONENTS
  6
Continuous
100
AcDbLine
 10
9.0425
 20
43.7375
 30
0.0
 11
8.8225
 21
43.7375
 31
0.0
  0
LINE
  5
B1
330
78E92151
100
AcDbEntity
  8
DT_COMPONENTS
  6
Continuous
100
AcDbLine
 10
13.16875
 20
40.5
 30
0.0
 11
13.16875
 21
42.875
 31
0.0
  0
LINE
  5
B2
330
78E92151
100
AcDbEntity
  8
DT_COMPONENTS
  6
Continuous
100
AcDbLine
 10
7.08125
 20
42.875
 30
0.0
 11
7.53125
 21
42.875
 31
0.0
  0
LINE
  5
B3
330
78E92151
100
AcDbEntity
  8
DT_COMPONENTS
  6
Continuous
100
AcDbLine
 10
10.8175
 20
43.2875
 30
0.0
 11
10.8175
 21
43.1875
 31
0.0
  0
LINE
  5
B4
330
78E92151
100
AcDbEntity
  8
DT_COMPONENTS
  6
Continuous
100
AcDbLine
 10
11.4275
 20
43.7375
 30
0.0
 11
11.2075
 21
43.7375
 31
0.0
  0
LINE
  5
B5
330
78E92151
100
AcDbEntity
  8
DT_COMPONENTS
  6
Continuous
100
AcDbLine
 10
11.4275
 20
43.6375
 30
0.0
 11
11.4275
 21
43.7375
 31
0.0
  0
LINE
  5
B6
330
78E92151
100
AcDbEntity
  8
DT_COMPONENTS
  6
Continuous
100
AcDbLine
 10
11.2075
 20
43.6375
 30
0.0
 11
11.4275
 21
43.6375
 31
0.0
  0
CIRCLE
  5
B7
330
78E92151
100
AcDbEntity
  8
DT_COMPONENTS
  6
Continuous
100
AcDbCircle
 10
10.125
 20
42.0
 30
0.0
 40
0.25
  0
CIRCLE
  5
B8
330
78E92151
100
AcDbEntity
  8
DT_COMPONENTS
  6
Continuous
100
AcDbCircle
 10
10.125
 20
42.0
 30
0.0
 40
0.25
  0
CIRCLE
  5
B9
330
78E92151
100
AcDbEntity
  8
DT_COMPONENTS
  6
Continuous
100
AcDbCircle
 10
11.3175
 20
42.0
 30
0.0
 40
0.25
  0
CIRCLE
  5
BA
330
78E92151
100
AcDbEntity
  8
DT_COMPONENTS
  6
Continuous
100
AcDbCircle
 10
11.3175
 20
42.0
 30
0.0
 40
0.25
  0
CIRCLE
  5
BB
330
78E92151
100
AcDbEntity
  8
DT_COMPONENTS
  6
Continuous
100
AcDbCircle
 10
8.9325
 20
42.0
 30
0.0
 40
0.25
  0
LINE
  5
BC
330
78E92151
100
AcDbEntity
  8
DT_COMPONENTS
  6
Continuous
100
AcDbLine
 10
10.325
 20
43.1875
 30
0.0
 11
10.325
 21
43.6375
 31
0.0
  0
LINE
  5
BD
330
78E92151
100
AcDbEntity
  8
DT_COMPONENTS
  6
Continuous
100
AcDbLine
 10
9.925
 20
43.1875
 30
0.0
 11
10.325
 21
43.1875
 31
0.0
  0
LINE
  5
BE
330
78E92151
100
AcDbEntity
  8
DT_COMPONENTS
  6
Continuous
100
AcDbLine
 10
11.5175
 20
43.1875
 30
0.0
 11
11.5175
 21
43.6375
 31
0.0
  0
LINE
  5
BF
330
78E92151
100
AcDbEntity
  8
DT_COMPONENTS
  6
Continuous
100
AcDbLine
 10
11.1175
 20
43.1875
 30
0.0
 11
11.5175
 21
43.1875
 31
0.0
  0
LINE
  5
C0
330
78E92151
100
AcDbEntity
  8
DT_COMPONENTS
  6
Continuous
100
AcDbLine
 10
8.77375
 20
43.125
 30
0.0
 11
8.77375
 21
42.7
 31
0.0
  0
LINE
  5
C1
330
78E92151
100
AcDbEntity
  8
DT_COMPONENTS
  6
Continuous
100
AcDbLine
 10
9.09125
 20
42.7
 30
0.0
 11
9.09125
 21
43.125
 31
0.0
  0
LINE
  5
C2
330
78E92151
100
AcDbEntity
  8
DT_COMPONENTS
  6
Continuous
100
AcDbLine
 10
9.625
 20
43.2875
 30
0.0
 11
9.625
 21
43.1875
 31
0.0
  0
LINE
  5
C3
330
78E92151
100
AcDbEntity
  8
DT_COMPONENTS
  6
Continuous
100
AcDbLine
 10
10.8175
 20
43.1875
 30
0.0
 11
11.8175
 21
43.1875
 31
0.0
  0
LINE
  5
C4
330
78E92151
100
AcDbEntity
  8
DT_COMPONENTS
  6
Continuous
100
AcDbLine
 10
11.8175
 20
43.1875
 30
0.0
 11
11.8175
 21
43.2875
 31
0.0
  0
LINE
  5
C5
330
78E92151
100
AcDbEntity
  8
DT_COMPONENTS
  6
Continuous
100
AcDbLine
 10
10.015
 20
43.7375
 30
0.0
 11
10.015
 21
43.6375
 31
0.0
  0
LINE
  5
C6
330
78E92151
100
AcDbEntity
  8
DT_COMPONENTS
  6
Continuous
100
AcDbLine
 10
11.3175
 20
43.125
 30
0.0
 11
11.3175
 21
42.0
 31
0.0
  0
LINE
  5
C7
330
78E92151
100
AcDbEntity
  8
DT_COMPONENTS
  6
Continuous
100
AcDbLine
 10
11.2075
 20
43.7375
 30
0.0
 11
11.2075
 21
43.6375
 31
0.0
  0
LINE
  5
C8
330
78E92151
100
AcDbEntity
  8
DT_COMPONENTS
  6
Continuous
100
AcDbLine
 10
12.35125
 20
43.125
 30
0.0
 11
12.35125
 21
42.7
 31
0.0
  0
LINE
  5
C9
330
78E92151
100
AcDbEntity
  8
DT_COMPONENTS
  6
Continuous
100
AcDbLine
 10
11.47625
 20
43.125
 30
0.0
 11
12.35125
 21
43.125
 31
0.0
  0
LINE
  5
CA
330
78E92151
100
AcDbEntity
  8
DT_COMPONENTS
  6
Continuous
100
AcDbLine
 10
7.89875
 20
42.7
 30
0.0
 11
7.89875
 21
43.125
 31
0.0
  0
LINE
  5
CB
330
78E92151
100
AcDbEntity
  8
DT_COMPONENTS
  6
Continuous
100
AcDbLine
 10
7.53125
 20
42.875
 30
0.0
 11
7.53125
 21
43.125
 31
0.0
  0
LINE
  5
CC
330
78E92151
100
AcDbEntity
  8
DT_COMPONENTS
  6
Continuous
100
AcDbLine
 10
7.53125
 20
42.875
 30
0.0
 11
7.53125
 21
40.5
 31
0.0
  0
LINE
  5
CD
330
78E92151
100
AcDbEntity
  8
DT_COMPONENTS
  6
Continuous
100
AcDbLine
 10
8.77375
 20
42.7
 30
0.0
 11
7.89875
 21
42.7
 31
0.0
  0
LINE
  5
CE
330
78E92151
100
AcDbEntity
  8
DT_COMPONENTS
  6
Continuous
100
AcDbLine
 10
12.71875
 20
42.875
 30
0.0
 11
12.71875
 21
40.5
 31
0.0
  0
LINE
  5
CF
330
78E92151
100
AcDbEntity
  8
DT_COMPONENTS
  6
Continuous
100
AcDbLine
 10
12.625
 20
42.75
 30
0.0
 11
12.625
 21
42.75
 31
0.0
  0
LINE
  5
D0
330
78E92151
100
AcDbEntity
  8
DT_COMPONENTS
  6
Continuous
100
AcDbLine
 10
11.8175
 20
43.2875
 30
0.0
 11
10.8175
 21
43.2875
 31
0.0
  0
LINE
  5
D1
330
78E92151
100
AcDbEntity
  8
DT_COMPONENTS
  6
Continuous
100
AcDbLine
 10
9.1325
 20
43.1875
 30
0.0
 11
9.1325
 21
43.6375
 31
0.0
  0
LINE
  5
D2
330
78E92151
100
AcDbEntity
  8
DT_COMPONENTS
  6
Continuous
100
AcDbLine
 10
8.7325
 20
43.1875
 30
0.0
 11
9.1325
 21
43.1875
 31
0.0
  0
LINE
  5
D3
330
78E92151
100
AcDbEntity
  8
DT_COMPONENTS
  6
Continuous
100
AcDbLine
 10
8.7325
 20
43.1875
 30
0.0
 11
9.1325
 21
43.1875
 31
0.0
  0
LINE
  5
D4
330
78E92151
100
AcDbEntity
  8
DT_COMPONENTS
  6
Continuous
100
AcDbLine
 10
8.4325
 20
43.2875
 30
0.0
 11
8.4325
 21
43.1875
 31
0.0
  0
LINE
  5
D5
330
78E92151
100
AcDbEntity
  8
DT_COMPONENTS
  6
Continuous
100
AcDbLine
 10
9.4325
 20
43.1875
 30
0.0
 11
9.4325
 21
43.2875
 31
0.0
  0
LINE
  5
D6
330
78E92151
100
AcDbEntity
  8
DT_COMPONENTS
  6
Continuous
100
AcDbLine
 10
8.4325
 20
43.1875
 30
0.0
 11
9.4325
 21
43.1875
 31
0.0
  0
LINE
  5
D7
330
78E92151
100
AcDbEntity
  8
DT_COMPONENTS
  6
Continuous
100
AcDbLine
 10
9.4325
 20
43.2875
 30
0.0
 11
8.4325
 21
43.2875
 31
0.0
  0
LINE
  5
D8
330
78E92151
100
AcDbEntity
  8
DT_COMPONENTS
  6
Continuous
100
AcDbLine
 10
7.53125
 20
43.0625
 30
0.0
 11
7.53125
 21
43.125
 31
0.0
  0
LINE
  5
D9
330
78E92151
100
AcDbEntity
  8
DT_COMPONENTS
  6
Continuous
100
AcDbLine
 10
7.469
 20
43.1875
 30
0.0
 11
7.469
 21
43.125
 31
0.0
  0
LINE
  5
DA
330
78E92151
100
AcDbEntity
  8
DT_COMPONENTS
  6
Continuous
100
AcDbLine
 10
7.469
 20
43.125
 30
0.0
 11
7.53125
 21
43.125
 31
0.0
  0
LINE
  5
DB
330
78E92151
100
AcDbEntity
  8
DT_COMPONENTS
  6
Continuous
100
AcDbLine
 10
12.71875
 20
43.125
 30
0.0
 11
12.71875
 21
43.0625
 31
0.0
  0
LINE
  5
DC
330
78E92151
100
AcDbEntity
  8
DT_COMPONENTS
  6
Continuous
100
AcDbLine
 10
12.781
 20
43.125
 30
0.0
 11
12.781
 21
43.1875
 31
0.0
  0
LINE
  5
DD
330
78E92151
100
AcDbEntity
  8
DT_COMPONENTS
  6
Continuous
100
AcDbLine
 10
12.781
 20
43.125
 30
0.0
 11
12.71875
 21
43.125
 31
0.0
  0
CIRCLE
  5
DE
330
78E92151
100
AcDbEntity
  8
DT_COMPONENTS
  6
Continuous
100
AcDbCircle
 10
12.9625
 20
42.625
 30
0.0
 40
0.084
  0
LINE
  5
DF
330
78E92151
100
AcDbEntity
  8
DT_COMPONENTS
  6
Continuous
100
AcDbLine
 10
7.53125
 20
43.125
 30
0.0
 11
12.71875
 21
43.125
 31
0.0
  0
LINE
  5
E0
330
78E92151
100
AcDbEntity
  8
DT_COMPONENTS
  6
Continuous
100
AcDbLine
 10
12.71875
 20
43.0625
 30
0.0
 11
7.53125
 21
43.0625
 31
0.0
  0
LINE
  5
E1
330
78E92151
100
AcDbEntity
  8
DT_COMPONENTS
  6
Continuous
100
AcDbLine
 10
7.53125
 20
43.125
 30
0.0
 11
12.71875
 21
43.125
 31
0.0
  0
LINE
  5
E2
330
78E92151
100
AcDbEntity
  8
DT_COMPONENTS
  6
Continuous
100
AcDbLine
 10
12.71875
 20
42.875
 30
0.0
 11
12.71875
 21
43.125
 31
0.0
  0
LINE
  5
E3
330
78E92151
100
AcDbEntity
  8
DT_COMPONENTS
  6
Continuous
100
AcDbLine
 10
12.781
 20
40.5
 30
0.0
 11
12.781
 21
43.125
 31
0.0
  0
LINE
  5
E4
330
78E92151
100
AcDbEntity
  8
DT_COMPONENTS
  6
Continuous
100
AcDbLine
 10
12.71875
 20
43.125
 30
0.0
 11
12.71875
 21
40.5
 31
0.0
  0
LINE
  5
E5
330
78E92151
100
AcDbEntity
  8
DT_COMPONENTS
  6
Continuous
100
AcDbLine
 10
8.9325
 20
43.125
 30
0.0
 11
8.9325
 21
42.0
 31
0.0
  0
LINE
  5
E6
330
78E92151
100
AcDbEntity
  8
DT_COMPONENTS
  6
Continuous
100
AcDbLine
 10
13.16875
 20
42.875
 30
0.0
 11
12.71875
 21
42.875
 31
0.0
  0
LINE
  5
E7
330
78E92151
100
AcDbEntity
  8
DT_COMPONENTS
  6
Continuous
100
AcDbLine
 10
8.8225
 20
43.7375
 30
0.0
 11
8.8225
 21
43.6375
 31
0.0
  0
LINE
  5
E8
330
78E92151
100
AcDbEntity
  8
DT_COMPONENTS
  6
Continuous
100
AcDbLine
 10
12.9625
 20
42.625
 30
0.0
 11
12.9625
 21
40.75
 31
0.0
  0
LINE
  5
EA
330
78E92151
100
AcDbEntity
  8
DT_COMPONENTS
  6
Continuous
100
AcDbLine
 10
6.8810805027
 20
30.5694820413
 30
0.0
 11
8.9902593663
 21
29.2241688206
 31
0.0
  0
LINE
  5
EB
330
78E92151
100
AcDbEntity
  8
DT_COMPONENTS
  6
Continuous
100
AcDbLine
 10
8.8046817708
 20
28.8773179454
 30
0.0
 11
6.5151194804
 21
29.885488375
 31
0.0
  0
LINE
  5
EC
330
78E92151
100
AcDbEntity
  8
DT_COMPONENTS
  6
Continuous
100
AcDbLine
 10
6.804110645
 20
30.4256227328
 30
0.0
 11
8.9132895623
 21
29.0803096105
 31
0.0
  0
LINE
  5
ED
330
78E92151
100
AcDbEntity
  8
DT_COMPONENTS
  6
Continuous
100
AcDbLine
 10
6.4381496088
 20
29.7416290662
 30
0.0
 11
8.7277118995
 21
28.7334586227
 31
0.0
  0
LINE
  5
EE
330
78E92151
100
AcDbEntity
  8
DT_COMPONENTS
  6
Continuous
100
AcDbLine
 10
8.7798908597
 20
28.830982887
 30
0.0
 11
6.4884397452
 21
29.8356230415
 31
0.0
  0
LINE
  5
EF
330
78E92151
100
AcDbEntity
  8
DT_COMPONENTS
  6
Continuous
100
AcDbLine
 10
6.8307903262
 20
30.4754879818
 30
0.0
 11
8.9380804596
 21
29.1266446687
 31
0.0
  0
ARC
  5
F0
330
78E92151
100
AcDbEntity
  8
DT_COMPONENTS
  6
Continuous
100
AcDbCircle
 10
6.6278895506
 20
30.1725298315
 30
0.0
 40
0.4708255675
100
AcDbArc
 50
57.46874746790001
 51
246.2345098239
  0
ARC
  5
F1
330
78E92151
100
AcDbEntity
  8
DT_COMPONENTS
  6
Continuous
100
AcDbCircle
 10
6.6389156902
 20
30.1666304571
 30
0.0
 40
0.3071911
100
AcDbArc
 50
57.4687468805
 51
246.2345101127
  0
ARC
  5
F2
330
78E92151
100
AcDbEntity
  8
DT_COMPONENTS
  6
Continuous
100
AcDbCircle
 10
6.6345801935
 20
30.1689500458
 30
0.0
 40
0.3639559347
100
AcDbArc
 50
57.37732886360001
 51
246.3259289136
  0
CIRCLE
  5
F3
330
78E92151
100
AcDbEntity
  8
DT_COMPONENTS
  6
Continuous
100
AcDbCircle
 10
6.6596150557
 20
30.1555555538
 30
0.0
 40
0.125
  0
ARC
  5
F4
330
78E92151
100
AcDbEntity
  8
DT_COMPONENTS
  6
Continuous
100
AcDbCircle
 10
8.8401803133
 20
28.9888752387
 30
0.0
 40
0.2790820522
100
AcDbArc
 50
246.2345134222
 51
57.46874497899999
  0
ARC
  5
F5
330
78E92151
100
AcDbEntity
  8
DT_COMPONENTS
  6
Continuous
100
AcDbCircle
 10
8.8512064935
 20
28.9829759134
 30
0.0
 40
0.1154476333
100
AcDbArc
 50
246.2345078041
 51
57.46874754
  0
ARC
  5
F6
330
78E92151
100
AcDbEntity
  8
DT_COMPONENTS
  6
Continuous
100
AcDbCircle
 10
8.8474178368
 20
28.9850029757
 30
0.0
 40
0.1681727694
100
AcDbArc
 50
246.3259287466001
 51
57.37733085499998
  0
LINE
  5
F8
330
78E92151
100
AcDbEntity
  8
DT_COMPONENTS
  6
Continuous
100
AcDbLine
 10
16.5541602973
 20
40.6009825125
 30
0.0
 11
16.8421059292
 21
40.9467964988
 31
0.0
  0
LINE
  5
F9
330
78E92151
100
AcDbEntity
  8
DT_COMPONENTS
  6
Continuous
100
AcDbLine
 10
17.1494961392
 20
40.690844826
 30
0.0
 11
16.8615505074
 21
40.3450308398
 31
0.0
  0
LINE
  5
FA
330
78E92151
100
AcDbEntity
  8
DT_COMPONENTS
  6
Continuous
100
AcDbLine
 10
16.387605558
 20
40.8697938196
 30
0.0
 11
16.3236176398
 21
40.7929462671
 31
0.0
  0
LINE
  5
FB
330
78E92151
100
AcDbEntity
  8
DT_COMPONENTS
  6
Continuous
100
AcDbLine
 10
17.1560810831
 20
40.2299146377
 30
0.0
 11
16.387605558
 21
40.8697938196
 31
0.0
  0
LINE
  5
FC
330
78E92151
100
AcDbEntity
  8
DT_COMPONENTS
  6
Continuous
100
AcDbLine
 10
16.3236176398
 20
40.7929462671
 30
0.0
 11
17.0920931649
 21
40.1530670852
 31
0.0
  0
LINE
  5
FD
330
78E92151
100
AcDbEntity
  8
DT_COMPONENTS
  6
Continuous
100
AcDbLine
 10
16.3755690417
 20
40.9530130167
 30
0.0
 11
16.3755690417
 21
40.9530130167
 31
0.0
  0
LINE
  5
FE
330
78E92151
100
AcDbEntity
  8
DT_COMPONENTS
  6
Continuous
100
AcDbLine
 10
17.2401040074
 20
40.2331489371
 30
0.0
 11
17.2401040074
 21
40.2331489371
 31
0.0
  0
LINE
  5
FF
330
78E92151
100
AcDbEntity
  8
DT_COMPONENTS
  6
Continuous
100
AcDbLine
 10
17.0920931649
 20
40.1530670852
 30
0.0
 11
17.1560810831
 21
40.2299146377
 31
0.0
  0
LINE
  5
100
330
78E92151
100
AcDbEntity
  8
DT_COMPONENTS
  6
Continuous
100
AcDbLine
 10
16.8615505074
 20
40.3450308398
 30
0.0
 11
16.5541602973
 21
40.6009825125
 31
0.0
  0
LINE
  5
101
330
78E92151
100
AcDbEntity
  8
DT_COMPONENTS
  6
Continuous
100
AcDbLine
 10
16.7598068042
 20
40.6330734258
 30
0.0
 11
16.7598068042
 21
40.6330734258
 31
0.0
  0
LINE
  5
102
330
78E92151
100
AcDbEntity
  8
DT_COMPONENTS
  6
Continuous
100
AcDbLine
 10
16.9112687264
 20
40.8892073724
 30
0.0
 11
16.9752566446
 21
40.9660549249
 31
0.0
  0
LINE
  5
103
330
78E92151
100
AcDbEntity
  8
DT_COMPONENTS
  6
Continuous
100
AcDbLine
 10
17.1443212601
 20
40.8252815049
 30
0.0
 11
17.0803333419
 21
40.7484339524
 31
0.0
  0
LINE
  5
104
330
78E92151
100
AcDbEntity
  8
DT_COMPONENTS
  6
Continuous
100
AcDbLine
 10
16.9752566446
 20
40.9660549249
 30
0.0
 11
17.1443212601
 21
40.8252815049
 31
0.0
  0
LINE
  5
105
330
78E92151
100
AcDbEntity
  8
DT_COMPONENTS
  6
Continuous
100
AcDbLine
 10
16.7741187661
 20
40.8651459742
 30
0.0
 11
16.814111215
 21
40.9131756946
 31
0.0
  0
LINE
  5
106
330
78E92151
100
AcDbEntity
  8
DT_COMPONENTS
  6
Continuous
100
AcDbLine
 10
17.0815089761
 20
40.6091943015
 30
0.0
 11
16.7741187661
 21
40.8651459742
 31
0.0
  0
LINE
  5
107
330
78E92151
100
AcDbEntity
  8
DT_COMPONENTS
  6
Continuous
100
AcDbLine
 10
17.121501425
 20
40.6572240218
 30
0.0
 11
17.0815089761
 21
40.6091943015
 31
0.0
  0
LINE
  5
108
330
78E92151
100
AcDbEntity
  8
DT_COMPONENTS
  6
Continuous
100
AcDbLine
 10
16.814111215
 20
40.9131756946
 30
0.0
 11
17.121501425
 21
40.6572240218
 31
0.0
  0
LINE
  5
109
330
78E92151
100
AcDbEntity
  8
DT_COMPONENTS
  6
Continuous
100
AcDbLine
 10
17.0803333419
 20
40.7484339524
 30
0.0
 11
16.9112687264
 21
40.8892073724
 31
0.0
  0
LINE
  5
10A
330
78E92151
100
AcDbEntity
  8
DT_COMPONENTS
  6
Continuous
100
AcDbLine
 10
16.8421059292
 20
40.9467964988
 30
0.0
 11
17.1494961392
 21
40.690844826
 31
0.0
  0
LINE
  5
10B
330
78E92151
100
AcDbEntity
  8
DT_COMPONENTS
  6
Continuous
100
AcDbLine
 10
17.2401040074
 20
40.2331489371
 30
0.0
 11
17.2401040074
 21
40.2331489371
 31
0.0
  0
LINE
  5
10D
330
78E92151
100
AcDbEntity
  8
DT_COMPONENTS
  6
Continuous
100
AcDbLine
 10
15.4014470097
 20
41.5608012853
 30
0.0
 11
15.6893926416
 21
41.9066152716
 31
0.0
  0
LINE
  5
10E
330
78E92151
100
AcDbEntity
  8
DT_COMPONENTS
  6
Continuous
100
AcDbLine
 10
15.9967828516
 20
41.6506635988
 30
0.0
 11
15.7088372198
 21
41.3048496125
 31
0.0
  0
LINE
  5
10F
330
78E92151
100
AcDbEntity
  8
DT_COMPONENTS
  6
Continuous
100
AcDbLine
 10
15.2348922704
 20
41.8296125923
 30
0.0
 11
15.1709043522
 21
41.7527650398
 31
0.0
  0
LINE
  5
110
330
78E92151
100
AcDbEntity
  8
DT_COMPONENTS
  6
Continuous
100
AcDbLine
 10
16.0033677955
 20
41.1897334105
 30
0.0
 11
15.2348922704
 21
41.8296125923
 31
0.0
  0
LINE
  5
111
330
78E92151
100
AcDbEntity
  8
DT_COMPONENTS
  6
Continuous
100
AcDbLine
 10
15.1709043522
 20
41.7527650398
 30
0.0
 11
15.9393798773
 21
41.112885858
 31
0.0
  0
LINE
  5
112
330
78E92151
100
AcDbEntity
  8
DT_COMPONENTS
  6
Continuous
100
AcDbLine
 10
15.222855754
 20
41.9128317895
 30
0.0
 11
15.222855754
 21
41.9128317895
 31
0.0
  0
LINE
  5
113
330
78E92151
100
AcDbEntity
  8
DT_COMPONENTS
  6
Continuous
100
AcDbLine
 10
16.0873907198
 20
41.1929677099
 30
0.0
 11
16.0873907198
 21
41.1929677099
 31
0.0
  0
LINE
  5
114
330
78E92151
100
AcDbEntity
  8
DT_COMPONENTS
  6
Continuous
100
AcDbLine
 10
15.9393798773
 20
41.112885858
 30
0.0
 11
16.0033677955
 21
41.1897334105
 31
0.0
  0
LINE
  5
115
330
78E92151
100
AcDbEntity
  8
DT_COMPONENTS
  6
Continuous
100
AcDbLine
 10
15.7088372198
 20
41.3048496125
 30
0.0
 11
15.4014470097
 21
41.5608012853
 31
0.0
  0
LINE
  5
116
330
78E92151
100
AcDbEntity
  8
DT_COMPONENTS
  6
Continuous
100
AcDbLine
 10
15.6070935166
 20
41.5928921986
 30
0.0
 11
15.6070935166
 21
41.5928921986
 31
0.0
  0
LINE
  5
117
330
78E92151
100
AcDbEntity
  8
DT_COMPONENTS
  6
Continuous
100
AcDbLine
 10
15.7585554388
 20
41.8490261452
 30
0.0
 11
15.822543357
 21
41.9258736977
 31
0.0
  0
LINE
  5
118
330
78E92151
100
AcDbEntity
  8
DT_COMPONENTS
  6
Continuous
100
AcDbLine
 10
15.9916079725
 20
41.7851002777
 30
0.0
 11
15.9276200543
 21
41.7082527252
 31
0.0
  0
LINE
  5
119
330
78E92151
100
AcDbEntity
  8
DT_COMPONENTS
  6
Continuous
100
AcDbLine
 10
15.822543357
 20
41.9258736977
 30
0.0
 11
15.9916079725
 21
41.7851002777
 31
0.0
  0
LINE
  5
11A
330
78E92151
100
AcDbEntity
  8
DT_COMPONENTS
  6
Continuous
100
AcDbLine
 10
15.6214054785
 20
41.824964747
 30
0.0
 11
15.6613979273
 21
41.8729944673
 31
0.0
  0
LINE
  5
11B
330
78E92151
100
AcDbEntity
  8
DT_COMPONENTS
  6
Continuous
100
AcDbLine
 10
15.9287956885
 20
41.5690130743
 30
0.0
 11
15.6214054785
 21
41.824964747
 31
0.0
  0
LINE
  5
11C
330
78E92151
100
AcDbEntity
  8
DT_COMPONENTS
  6
Continuous
100
AcDbLine
 10
15.9687881374
 20
41.6170427946
 30
0.0
 11
15.9287956885
 21
41.5690130743
 31
0.0
  0
LINE
  5
11D
330
78E92151
100
AcDbEntity
  8
DT_COMPONENTS
  6
Continuous
100
AcDbLine
 10
15.6613979273
 20
41.8729944673
 30
0.0
 11
15.9687881374
 21
41.6170427946
 31
0.0
  0
LINE
  5
11E
330
78E92151
100
AcDbEntity
  8
DT_COMPONENTS
  6
Continuous
100
AcDbLine
 10
15.9276200543
 20
41.7082527252
 30
0.0
 11
15.7585554388
 21
41.8490261452
 31
0.0
  0
LINE
  5
11F
330
78E92151
100
AcDbEntity
  8
DT_COMPONENTS
  6
Continuous
100
AcDbLine
 10
15.6893926416
 20
41.9066152716
 30
0.0
 11
15.9967828516
 21
41.6506635988
 31
0.0
  0
LINE
  5
120
330
78E92151
100
AcDbEntity
  8
DT_COMPONENTS
  6
Continuous
100
AcDbLine
 10
16.0873907198
 20
41.1929677099
 30
0.0
 11
16.0873907198
 21
41.1929677099
 31
0.0
  0
CIRCLE
  5
122
330
78E92151
100
AcDbEntity
  8
DT_COMPONENTS
  6
Continuous
100
AcDbCircle
 10
17.7040868623
 20
40.4974420024
 30
0.0
 40
0.4
  0
CIRCLE
  5
123
330
78E92151
100
AcDbEntity
  8
DT_COMPONENTS
  6
Continuous
100
AcDbCircle
 10
17.7040868623
 20
40.4974420024
 30
0.0
 40
0.35
  0
CIRCLE
  5
124
330
78E92151
100
AcDbEntity
  8
DT_COMPONENTS
  6
Continuous
100
AcDbCircle
 10
17.7040868623
 20
40.4974420024
 30
0.0
 40
0.215
  0
CIRCLE
  5
126
330
78E92151
100
AcDbEntity
  8
DT_COMPONENTS
  6
Continuous
100
AcDbCircle
 10
16.5513735747
 20
41.4572607752
 30
0.0
 40
0.4
  0
CIRCLE
  5
127
330
78E92151
100
AcDbEntity
  8
DT_COMPONENTS
  6
Continuous
100
AcDbCircle
 10
16.5513735747
 20
41.4572607752
 30
0.0
 40
0.35
  0
CIRCLE
  5
128
330
78E92151
100
AcDbEntity
  8
DT_COMPONENTS
  6
Continuous
100
AcDbCircle
 10
16.5513735747
 20
41.4572607752
 30
0.0
 40
0.215
  0
CIRCLE
  5
12A
330
78E92151
100
AcDbEntity
  8
DT_COMPONENTS
  6
Continuous
100
AcDbCircle
 10
18.6469074864
 20
38.0700023391
 30
0.0
 40
0.215
  0
CIRCLE
  5
12B
330
78E92151
100
AcDbEntity
  8
DT_COMPONENTS
  6
Continuous
100
AcDbCircle
 10
18.6469074864
 20
38.0700023391
 30
0.0
 40
0.07
  0
CIRCLE
  5
12C
330
78E92151
100
AcDbEntity
  8
DT_COMPONENTS
  6
Continuous
100
AcDbCircle
 10
18.6469074864
 20
38.0700023391
 30
0.0
 40
0.1075
  0
CIRCLE
  5
12E
330
78E92151
100
AcDbEntity
  8
DT_COMPONENTS
  6
Continuous
100
AcDbCircle
 10
17.226330388
 20
34.4099597638
 30
0.0
 40
0.4
  0
CIRCLE
  5
12F
330
78E92151
100
AcDbEntity
  8
DT_COMPONENTS
  6
Continuous
100
AcDbCircle
 10
17.226330388
 20
34.4099597638
 30
0.0
 40
0.35
  0
CIRCLE
  5
130
330
78E92151
100
AcDbEntity
  8
DT_COMPONENTS
  6
Continuous
100
AcDbCircle
 10
17.226330388
 20
34.4099597638
 30
0.0
 40
0.215
  0
CIRCLE
  5
132
330
78E92151
100
AcDbEntity
  8
DT_COMPONENTS
  6
Continuous
100
AcDbCircle
 10
17.3860225927
 20
32.0874690945
 30
0.0
 40
0.4
  0
CIRCLE
  5
133
330
78E92151
100
AcDbEntity
  8
DT_COMPONENTS
  6
Continuous
100
AcDbCircle
 10
17.3860225927
 20
32.0874690945
 30
0.0
 40
0.35
  0
CIRCLE
  5
134
330
78E92151
100
AcDbEntity
  8
DT_COMPONENTS
  6
Continuous
100
AcDbCircle
 10
17.3860225927
 20
32.0874690945
 30
0.0
 40
0.215
  0
LINE
  5
136
330
78E92151
100
AcDbEntity
  8
8_250BIT_500OUTLINE
  6
Continuous
100
AcDbLine
 10
11.875
 20
43.0
 30
0.0
 11
12.375
 21
43.0
 31
0.0
  0
LINE
  5
137
330
78E92151
100
AcDbEntity
  8
8_250BIT_500OUTLINE
  6
Continuous
100
AcDbLine
 10
7.875
 20
43.0
 30
0.0
 11
8.375
 21
43.0
 31
0.0
  0
LINE
  5
138
330
78E92151
100
AcDbEntity
  8
8_250BIT_500OUTLINE
  6
Continuous
100
AcDbLine
 10
11.875
 20
43.75
 30
0.0
 11
11.875
 21
43.0
 31
0.0
  0
LINE
  5
139
330
78E92151
100
AcDbEntity
  8
8_250BIT_500OUTLINE
  6
Continuous
100
AcDbLine
 10
8.375
 20
43.75
 30
0.0
 11
8.375
 21
43.0
 31
0.0
  0
LINE
  5
13A
330
78E92151
100
AcDbEntity
  8
8_250BIT_500OUTLINE
  6
Continuous
100
AcDbLine
 10
7.875
 20
42.5
 30
0.0
 11
12.375
 21
42.5
 31
0.0
  0
LINE
  5
13B
330
78E92151
100
AcDbEntity
  8
8_250BIT_500OUTLINE
  6
Continuous
100
AcDbLine
 10
8.8138922047
 20
28.7458366535
 30
0.0
 11
11.4444522047
 21
28.7458366535
 31
0.0
  0
LINE
  5
13C
330
78E92151
100
AcDbEntity
  8
8_250BIT_500OUTLINE
  6
Continuous
100
AcDbLine
 10
20.25
 20
43.75
 30
0.0
 11
20.25
 21
31.1868088976
 31
0.0
  0
ARC
  5
13D
330
78E92151
100
AcDbEntity
  8
8_250BIT_500OUTLINE
  6
Continuous
100
AcDbCircle
 10
12.375
 20
42.75
 30
0.0
 40
0.25
100
AcDbArc
 50
270.0
 51
90.0
  0
ARC
  5
13E
330
78E92151
100
AcDbEntity
  8
8_250BIT_500OUTLINE
  6
Continuous
100
AcDbCircle
 10
7.875
 20
42.75
 30
0.0
 40
0.25
100
AcDbArc
 50
90.0
 51
270.0
  0
SPLINE
  5
13F
330
78E92151
100
AcDbEntity
  8
DT_COMPONENTS
  6
Continuous
100
AcDbSpline
210
0.0
220
0.0
230
1.0
 70
  1064
 71
     3
 72
    10
 73
     6
 74
     4
 42
0.0000000001
 43
0.0000000001
 44
0.0
 40
0.0
 40
0.0
 40
0.0
 40
0.0
 40
1.034227253206104
 40
1.776262067640324
 40
2.492024528884743
 40
2.492024528884743
 40
2.492024528884743
 40
2.492024528884743
 10
0.4999604266943525
 20
40.3608315698451
 30
0.0
 10
0.548425259616263
 20
40.02364455661034
 30
0.0
 10
0.6316625211241651
 20
39.44453343818533
 30
0.0
 10
0.9228522064348611
 20
38.60921784118462
 30
0.0
 10
1.379107164599806
 20
38.39196416954332
 30
0.0
 10
1.60312334110081
 20
38.28529500139305
 30
0.0
 11
0.4999604266943525
 21
40.3608315698451
 31
0.0
 11
0.6874999999999944
 21
39.34374999999999
 31
0.0
 11
0.9999999999999944
 21
38.67072740317844
 31
0.0
 11
1.60312334110081
 21
38.28529500139305
 31
0.0
  0
SPLINE
  5
140
330
78E92151
100
AcDbEntity
  8
DT_COMPONENTS
  6
Continuous
100
AcDbSpline
210
0.0
220
0.0
230
1.0
 70
  1064
 71
     3
 72
    10
 73
     6
 74
     4
 42
0.0000000001
 43
0.0000000001
 44
0.0
 40
0.0
 40
0.0
 40
0.0
 40
0.0
 40
1.034227253206104
 40
1.776262067640324
 40
2.492024528884746
 40
2.492024528884746
 40
2.492024528884746
 40
2.492024528884746
 10
19.75003957330564
 20
40.3608315698451
 30
0.0
 10
19.70157474038373
 20
40.02364455661035
 30
0.0
 10
19.61833747887584
 20
39.44453343818533
 30
0.0
 10
19.32714779356513
 20
38.60921784118462
 30
0.0
 10
18.87089283540019
 20
38.39196416954331
 30
0.0
 10
18.64687665889918
 20
38.28529500139305
 30
0.0
 11
19.75003957330564
 21
40.3608315698451
 31
0.0
 11
19.5625
 21
39.34374999999999
 31
0.0
 11
19.25
 21
38.67072740317844
 31
0.0
 11
18.64687665889918
 21
38.28529500139305
 31
0.0
  0
CIRCLE
  5
141
330
78E92151
100
AcDbEntity
  8
DT_COMPONENTS
  6
Continuous
100
AcDbCircle
 10
14.2599092325
 20
30.742384204
 30
0.0
 40
0.4
  0
CIRCLE
  5
142
330
78E92151
100
AcDbEntity
  8
DT_COMPONENTS
  6
Continuous
100
AcDbCircle
 10
14.2599092325
 20
30.742384204
 30
0.0
 40
0.35
  0
CIRCLE
  5
143
330
78E92151
100
AcDbEntity
  8
DT_COMPONENTS
  6
Continuous
100
AcDbCircle
 10
14.2599092325
 20
30.742384204
 30
0.0
 40
0.215
  0
LINE
  5
145
330
78E92151
100
AcDbEntity
  8
DT_COMPONENTS
  6
Continuous
100
AcDbLine
 10
4.541249099
 20
41.3049214867
 30
0.0
 11
4.2533034672
 21
41.650735473
 31
0.0
  0
LINE
  5
146
330
78E92151
100
AcDbEntity
  8
DT_COMPONENTS
  6
Continuous
100
AcDbLine
 10
4.5606936772
 20
41.9066871458
 30
0.0
 11
4.848639309
 21
41.5608731595
 31
0.0
  0
LINE
  5
147
330
78E92151
100
AcDbEntity
  8
DT_COMPONENTS
  6
Continuous
100
AcDbLine
 10
4.2467185233
 20
41.1898052847
 30
0.0
 11
4.3107064415
 21
41.1129577322
 31
0.0
  0
LINE
  5
148
330
78E92151
100
AcDbEntity
  8
DT_COMPONENTS
  6
Continuous
100
AcDbLine
 10
5.0151940484
 20
41.8296844665
 30
0.0
 11
4.2467185233
 21
41.1898052847
 31
0.0
  0
LINE
  5
149
330
78E92151
100
AcDbEntity
  8
DT_COMPONENTS
  6
Continuous
100
AcDbLine
 10
4.3107064415
 20
41.1129577322
 30
0.0
 11
5.0791819665
 21
41.752836914
 31
0.0
  0
LINE
  5
14A
330
78E92151
100
AcDbEntity
  8
DT_COMPONENTS
  6
Continuous
100
AcDbLine
 10
4.162695599
 20
41.1930395841
 30
0.0
 11
4.162695599
 21
41.1930395841
 31
0.0
  0
LINE
  5
14B
330
78E92151
100
AcDbEntity
  8
DT_COMPONENTS
  6
Continuous
100
AcDbLine
 10
5.0272305647
 20
41.9129036637
 30
0.0
 11
5.0272305647
 21
41.9129036637
 31
0.0
  0
LINE
  5
14C
330
78E92151
100
AcDbEntity
  8
DT_COMPONENTS
  6
Continuous
100
AcDbLine
 10
5.0791819665
 20
41.752836914
 30
0.0
 11
5.0151940484
 21
41.8296844665
 31
0.0
  0
LINE
  5
14D
330
78E92151
100
AcDbEntity
  8
DT_COMPONENTS
  6
Continuous
100
AcDbLine
 10
4.848639309
 20
41.5608731595
 30
0.0
 11
4.541249099
 21
41.3049214867
 31
0.0
  0
LINE
  5
14E
330
78E92151
100
AcDbEntity
  8
DT_COMPONENTS
  6
Continuous
100
AcDbLine
 10
4.5469333615
 20
41.512979175
 30
0.0
 11
4.5469333615
 21
41.512979175
 31
0.0
  0
LINE
  5
14F
330
78E92151
100
AcDbEntity
  8
DT_COMPONENTS
  6
Continuous
100
AcDbLine
 10
4.3224662644
 20
41.7083245994
 30
0.0
 11
4.2584783462
 21
41.7851721519
 31
0.0
  0
LINE
  5
150
330
78E92151
100
AcDbEntity
  8
DT_COMPONENTS
  6
Continuous
100
AcDbLine
 10
4.4275429617
 20
41.9259455719
 30
0.0
 11
4.4915308799
 21
41.8490980194
 31
0.0
  0
LINE
  5
151
330
78E92151
100
AcDbEntity
  8
DT_COMPONENTS
  6
Continuous
100
AcDbLine
 10
4.2584783462
 20
41.7851721519
 30
0.0
 11
4.4275429617
 21
41.9259455719
 31
0.0
  0
LINE
  5
152
330
78E92151
100
AcDbEntity
  8
DT_COMPONENTS
  6
Continuous
100
AcDbLine
 10
4.3212906302
 20
41.5690849485
 30
0.0
 11
4.2812981814
 21
41.6171146688
 31
0.0
  0
LINE
  5
153
330
78E92151
100
AcDbEntity
  8
DT_COMPONENTS
  6
Continuous
100
AcDbLine
 10
4.6286808403
 20
41.8250366212
 30
0.0
 11
4.3212906302
 21
41.5690849485
 31
0.0
  0
LINE
  5
154
330
78E92151
100
AcDbEntity
  8
DT_COMPONENTS
  6
Continuous
100
AcDbLine
 10
4.5886883914
 20
41.8730663415
 30
0.0
 11
4.6286808403
 21
41.8250366212
 31
0.0
  0
LINE
  5
155
330
78E92151
100
AcDbEntity
  8
DT_COMPONENTS
  6
Continuous
100
AcDbLine
 10
4.2812981814
 20
41.6171146688
 30
0.0
 11
4.5886883914
 21
41.8730663415
 31
0.0
  0
LINE
  5
156
330
78E92151
100
AcDbEntity
  8
DT_COMPONENTS
  6
Continuous
100
AcDbLine
 10
4.4915308799
 20
41.8490980194
 30
0.0
 11
4.3224662644
 21
41.7083245994
 31
0.0
  0
LINE
  5
157
330
78E92151
100
AcDbEntity
  8
DT_COMPONENTS
  6
Continuous
100
AcDbLine
 10
4.2533034672
 20
41.650735473
 30
0.0
 11
4.5606936772
 21
41.9066871458
 31
0.0
  0
LINE
  5
158
330
78E92151
100
AcDbEntity
  8
DT_COMPONENTS
  6
Continuous
100
AcDbLine
 10
5.0272305647
 20
41.9129036637
 30
0.0
 11
5.0272305647
 21
41.9129036637
 31
0.0
  0
LINE
  5
15A
330
78E92151
100
AcDbEntity
  8
DT_COMPONENTS
  6
Continuous
100
AcDbLine
 10
3.3885358114
 20
40.345102714
 30
0.0
 11
3.1005901795
 21
40.6909167002
 31
0.0
  0
LINE
  5
15B
330
78E92151
100
AcDbEntity
  8
DT_COMPONENTS
  6
Continuous
100
AcDbLine
 10
3.4079803896
 20
40.946868373
 30
0.0
 11
3.6959260214
 21
40.6010543867
 31
0.0
  0
LINE
  5
15C
330
78E92151
100
AcDbEntity
  8
DT_COMPONENTS
  6
Continuous
100
AcDbLine
 10
3.0940052357
 20
40.2299865119
 30
0.0
 11
3.1579931538
 21
40.1531389594
 31
0.0
  0
LINE
  5
15D
330
78E92151
100
AcDbEntity
  8
DT_COMPONENTS
  6
Continuous
100
AcDbLine
 10
3.8624807607
 20
40.8698656938
 30
0.0
 11
3.0940052357
 21
40.2299865119
 31
0.0
  0
LINE
  5
15E
330
78E92151
100
AcDbEntity
  8
DT_COMPONENTS
  6
Continuous
100
AcDbLine
 10
3.1579931538
 20
40.1531389594
 30
0.0
 11
3.9264686789
 21
40.7930181413
 31
0.0
  0
LINE
  5
15F
330
78E92151
100
AcDbEntity
  8
DT_COMPONENTS
  6
Continuous
100
AcDbLine
 10
3.0099823114
 20
40.2332208113
 30
0.0
 11
3.0099823114
 21
40.2332208113
 31
0.0
  0
LINE
  5
160
330
78E92151
100
AcDbEntity
  8
DT_COMPONENTS
  6
Continuous
100
AcDbLine
 10
3.8745172771
 20
40.9530848909
 30
0.0
 11
3.8745172771
 21
40.9530848909
 31
0.0
  0
LINE
  5
161
330
78E92151
100
AcDbEntity
  8
DT_COMPONENTS
  6
Continuous
100
AcDbLine
 10
3.9264686789
 20
40.7930181413
 30
0.0
 11
3.8624807607
 21
40.8698656938
 31
0.0
  0
LINE
  5
162
330
78E92151
100
AcDbEntity
  8
DT_COMPONENTS
  6
Continuous
100
AcDbLine
 10
3.6959260214
 20
40.6010543867
 30
0.0
 11
3.3885358114
 21
40.345102714
 31
0.0
  0
LINE
  5
163
330
78E92151
100
AcDbEntity
  8
DT_COMPONENTS
  6
Continuous
100
AcDbLine
 10
3.3942200739
 20
40.5531604023
 30
0.0
 11
3.3942200739
 21
40.5531604023
 31
0.0
  0
LINE
  5
164
330
78E92151
100
AcDbEntity
  8
DT_COMPONENTS
  6
Continuous
100
AcDbLine
 10
3.1697529768
 20
40.7485058266
 30
0.0
 11
3.1057650586
 21
40.8253533791
 31
0.0
  0
LINE
  5
165
330
78E92151
100
AcDbEntity
  8
DT_COMPONENTS
  6
Continuous
100
AcDbLine
 10
3.2748296741
 20
40.9661267991
 30
0.0
 11
3.3388175923
 21
40.8892792466
 31
0.0
  0
LINE
  5
166
330
78E92151
100
AcDbEntity
  8
DT_COMPONENTS
  6
Continuous
100
AcDbLine
 10
3.1057650586
 20
40.8253533791
 30
0.0
 11
3.2748296741
 21
40.9661267991
 31
0.0
  0
LINE
  5
167
330
78E92151
100
AcDbEntity
  8
DT_COMPONENTS
  6
Continuous
100
AcDbLine
 10
3.1685773426
 20
40.6092661757
 30
0.0
 11
3.1285848937
 21
40.657295896
 31
0.0
  0
LINE
  5
168
330
78E92151
100
AcDbEntity
  8
DT_COMPONENTS
  6
Continuous
100
AcDbLine
 10
3.4759675526
 20
40.8652178484
 30
0.0
 11
3.1685773426
 21
40.6092661757
 31
0.0
  0
LINE
  5
169
330
78E92151
100
AcDbEntity
  8
DT_COMPONENTS
  6
Continuous
100
AcDbLine
 10
3.4359751038
 20
40.9132475688
 30
0.0
 11
3.4759675526
 21
40.8652178484
 31
0.0
  0
LINE
  5
16A
330
78E92151
100
AcDbEntity
  8
DT_COMPONENTS
  6
Continuous
100
AcDbLine
 10
3.1285848937
 20
40.657295896
 30
0.0
 11
3.4359751038
 21
40.9132475688
 31
0.0
  0
LINE
  5
16B
330
78E92151
100
AcDbEntity
  8
DT_COMPONENTS
  6
Continuous
100
AcDbLine
 10
3.3388175923
 20
40.8892792466
 30
0.0
 11
3.1697529768
 21
40.7485058266
 31
0.0
  0
LINE
  5
16C
330
78E92151
100
AcDbEntity
  8
DT_COMPONENTS
  6
Continuous
100
AcDbLine
 10
3.1005901795
 20
40.6909167002
 30
0.0
 11
3.4079803896
 21
40.946868373
 31
0.0
  0
LINE
  5
16D
330
78E92151
100
AcDbEntity
  8
DT_COMPONENTS
  6
Continuous
100
AcDbLine
 10
3.8745172771
 20
40.9530848909
 30
0.0
 11
3.8745172771
 21
40.9530848909
 31
0.0
  0
CIRCLE
  5
16F
330
78E92151
100
AcDbEntity
  8
DT_COMPONENTS
  6
Continuous
100
AcDbCircle
 10
3.6986264253
 20
41.4572607752
 30
0.0
 40
0.4
  0
CIRCLE
  5
170
330
78E92151
100
AcDbEntity
  8
DT_COMPONENTS
  6
Continuous
100
AcDbCircle
 10
3.6986264253
 20
41.4572607752
 30
0.0
 40
0.35
  0
CIRCLE
  5
171
330
78E92151
100
AcDbEntity
  8
DT_COMPONENTS
  6
Continuous
100
AcDbCircle
 10
3.6986264253
 20
41.4572607752
 30
0.0
 40
0.215
  0
CIRCLE
  5
173
330
78E92151
100
AcDbEntity
  8
DT_COMPONENTS
  6
Continuous
100
AcDbCircle
 10
2.5459131377
 20
40.4974420024
 30
0.0
 40
0.4
  0
CIRCLE
  5
174
330
78E92151
100
AcDbEntity
  8
DT_COMPONENTS
  6
Continuous
100
AcDbCircle
 10
2.5459131377
 20
40.4974420024
 30
0.0
 40
0.35
  0
CIRCLE
  5
175
330
78E92151
100
AcDbEntity
  8
DT_COMPONENTS
  6
Continuous
100
AcDbCircle
 10
2.5459131377
 20
40.4974420024
 30
0.0
 40
0.215
  0
CIRCLE
  5
177
330
78E92151
100
AcDbEntity
  8
DT_COMPONENTS
  6
Continuous
100
AcDbCircle
 10
1.6031233411
 20
38.0702950014
 30
0.0
 40
0.215
  0
CIRCLE
  5
178
330
78E92151
100
AcDbEntity
  8
DT_COMPONENTS
  6
Continuous
100
AcDbCircle
 10
1.6031233411
 20
38.0702950014
 30
0.0
 40
0.07
  0
CIRCLE
  5
179
330
78E92151
100
AcDbEntity
  8
DT_COMPONENTS
  6
Continuous
100
AcDbCircle
 10
1.6031233411
 20
38.0702950014
 30
0.0
 40
0.1075
  0
CIRCLE
  5
17B
330
78E92151
100
AcDbEntity
  8
DT_COMPONENTS
  6
Continuous
100
AcDbCircle
 10
3.0050733833
 20
34.3559003186
 30
0.0
 40
0.4
  0
CIRCLE
  5
17C
330
78E92151
100
AcDbEntity
  8
DT_COMPONENTS
  6
Continuous
100
AcDbCircle
 10
3.0050733833
 20
34.3559003186
 30
0.0
 40
0.35
  0
CIRCLE
  5
17D
330
78E92151
100
AcDbEntity
  8
DT_COMPONENTS
  6
Continuous
100
AcDbCircle
 10
3.0050733833
 20
34.3559003186
 30
0.0
 40
0.215
  0
CIRCLE
  5
17F
330
78E92151
100
AcDbEntity
  8
DT_COMPONENTS
  6
Continuous
100
AcDbCircle
 10
2.8453889149
 20
32.033427061
 30
0.0
 40
0.4
  0
CIRCLE
  5
180
330
78E92151
100
AcDbEntity
  8
DT_COMPONENTS
  6
Continuous
100
AcDbCircle
 10
2.8453889149
 20
32.033427061
 30
0.0
 40
0.35
  0
CIRCLE
  5
181
330
78E92151
100
AcDbEntity
  8
DT_COMPONENTS
  6
Continuous
100
AcDbCircle
 10
2.8453889149
 20
32.033427061
 30
0.0
 40
0.215
  0
LINE
  5
183
330
78E92151
100
AcDbEntity
  8
DT_COMPONENTS
  6
Continuous
100
AcDbLine
 10
8.1300000064
 20
39.2880814559
 30
0.0
 11
7.3700000064
 21
39.2880814559
 31
0.0
  0
LINE
  5
184
330
78E92151
100
AcDbEntity
  8
DT_COMPONENTS
  6
Continuous
100
AcDbLine
 10
7.3700000064
 20
40.4480814559
 30
0.0
 11
8.1300000064
 21
40.4480814559
 31
0.0
  0
LINE
  5
185
330
78E92151
100
AcDbEntity
  8
DT_COMPONENTS
  6
Continuous
100
AcDbLine
 10
8.9000000064
 20
37.7880814559
 30
0.0
 11
6.6000000064
 21
37.7880814559
 31
0.0
  0
LINE
  5
186
330
78E92151
100
AcDbEntity
  8
DT_COMPONENTS
  6
Continuous
100
AcDbLine
 10
7.7500000064
 20
36.6380814559
 30
0.0
 11
7.7500000064
 21
38.9380814559
 31
0.0
  0
CIRCLE
  5
187
330
78E92151
100
AcDbEntity
  8
DT_COMPONENTS
  6
Continuous
100
AcDbCircle
 10
8.9000000064
 20
38.9380814559
 30
0.0
 40
0.0825
  0
CIRCLE
  5
188
330
78E92151
100
AcDbEntity
  8
DT_COMPONENTS
  6
Continuous
100
AcDbCircle
 10
6.6000000064
 20
38.9380814559
 30
0.0
 40
0.0825
  0
CIRCLE
  5
189
330
78E92151
100
AcDbEntity
  8
DT_COMPONENTS
  6
Continuous
100
AcDbCircle
 10
6.6000000064
 20
36.6380814559
 30
0.0
 40
0.0825
  0
CIRCLE
  5
18A
330
78E92151
100
AcDbEntity
  8
DT_COMPONENTS
  6
Continuous
100
AcDbCircle
 10
8.9000000064
 20
36.6380814559
 30
0.0
 40
0.0825
  0
LINE
  5
18B
330
78E92151
100
AcDbEntity
  8
DT_COMPONENTS
  6
Continuous
100
AcDbLine
 10
8.9000000064
 20
38.9380814559
 30
0.0
 11
8.9000000064
 21
36.6380814559
 31
0.0
  0
LINE
  5
18C
330
78E92151
100
AcDbEntity
  8
DT_COMPONENTS
  6
Continuous
100
AcDbLine
 10
6.6000000064
 20
38.9380814559
 30
0.0
 11
8.9000000064
 21
38.9380814559
 31
0.0
  0
LINE
  5
18D
330
78E92151
100
AcDbEntity
  8
DT_COMPONENTS
  6
Continuous
100
AcDbLine
 10
6.6000000064
 20
36.6380814559
 30
0.0
 11
6.6000000064
 21
38.9380814559
 31
0.0
  0
LINE
  5
18E
330
78E92151
100
AcDbEntity
  8
DT_COMPONENTS
  6
Continuous
100
AcDbLine
 10
8.9000000064
 20
36.6380814559
 30
0.0
 11
6.6000000064
 21
36.6380814559
 31
0.0
  0
LINE
  5
190
330
78E92151
100
AcDbEntity
  8
DT_COMPONENTS
  6
Continuous
100
AcDbLine
 10
9.1250000064
 20
37.7880814559
 30
0.0
 11
6.3750000064
 21
37.7880814559
 31
0.0
  0
LINE
  5
191
330
78E92151
100
AcDbEntity
  8
DT_COMPONENTS
  6
Continuous
100
AcDbLine
 10
7.7500000064
 20
36.2880814559
 30
0.0
 11
7.7500000064
 21
39.2880814559
 31
0.0
  0
LINE
  5
192
330
78E92151
100
AcDbEntity
  8
DT_COMPONENTS
  6
Continuous
100
AcDbLine
 10
9.1250000064
 20
39.2880814559
 30
0.0
 11
9.1250000064
 21
36.2880814559
 31
0.0
  0
LINE
  5
193
330
78E92151
100
AcDbEntity
  8
DT_COMPONENTS
  6
Continuous
100
AcDbLine
 10
6.3750000064
 20
39.2880814559
 30
0.0
 11
9.1250000064
 21
39.2880814559
 31
0.0
  0
LINE
  5
194
330
78E92151
100
AcDbEntity
  8
DT_COMPONENTS
  6
Continuous
100
AcDbLine
 10
6.3750000064
 20
36.2880814559
 30
0.0
 11
6.3750000064
 21
39.2880814559
 31
0.0
  0
LINE
  5
195
330
78E92151
100
AcDbEntity
  8
DT_COMPONENTS
  6
Continuous
100
AcDbLine
 10
9.1250000064
 20
36.2880814559
 30
0.0
 11
6.3750000064
 21
36.2880814559
 31
0.0
  0
CIRCLE
  5
197
330
78E92151
100
AcDbEntity
  8
DT_COMPONENTS
  6
Continuous
100
AcDbCircle
 10
7.7500000064
 20
37.7880814559
 30
0.0
 40
1.25
  0
LINE
  5
198
330
78E92151
100
AcDbEntity
  8
DT_COMPONENTS
  6
Continuous
100
AcDbLine
 10
8.1300000064
 20
40.4480814559
 30
0.0
 11
8.1300000064
 21
39.2880814559
 31
0.0
  0
LINE
  5
199
330
78E92151
100
AcDbEntity
  8
DT_COMPONENTS
  6
Continuous
100
AcDbLine
 10
7.3700000064
 20
39.2880814559
 30
0.0
 11
7.3700000064
 21
40.4480814559
 31
0.0
  0
LINE
  5
19B
330
78E92151
100
AcDbEntity
  8
DT_COMPONENTS
  6
Continuous
100
AcDbLine
 10
7.7500000064
 20
37.0597349992
 30
0.0
 11
7.7500000064
 21
38.5164279126
 31
0.0
  0
LINE
  5
19C
330
78E92151
100
AcDbEntity
  8
DT_COMPONENTS
  6
Continuous
100
AcDbLine
 10
8.4783464631
 20
37.7880814559
 30
0.0
 11
7.0216535497
 21
37.7880814559
 31
0.0
  0
CIRCLE
  5
19D
330
78E92151
100
AcDbEntity
  8
DT_COMPONENTS
  6
Continuous
100
AcDbCircle
 10
7.7500000064
 20
37.7880814559
 30
0.0
 40
0.4527559055
  0
CIRCLE
  5
19E
330
78E92151
100
AcDbEntity
  8
DT_COMPONENTS
  6
Continuous
100
AcDbCircle
 10
7.7500000064
 20
37.7880814559
 30
0.0
 40
0.7283464567
  0
CIRCLE
  5
1A1
330
78E92151
100
AcDbEntity
  8
DT_COMPONENTS
  6
Continuous
100
AcDbCircle
 10
7.7500000064
 20
37.7880814559
 30
0.0
 40
0.8125
  0
LINE
  5
1A2
330
78E92151
100
AcDbEntity
  8
DT_COMPONENTS
  6
Continuous
100
AcDbLine
 10
8.4350000064
 20
37.7880814559
 30
0.0
 11
7.0650000064
 21
37.7880814559
 31
0.0
  0
CIRCLE
  5
1A3
330
78E92151
100
AcDbEntity
  8
DT_COMPONENTS
  6
Continuous
100
AcDbCircle
 10
8.4350000064
 20
37.7880814559
 30
0.0
 40
0.125
  0
CIRCLE
  5
1A4
330
78E92151
100
AcDbEntity
  8
DT_COMPONENTS
  6
Continuous
100
AcDbCircle
 10
7.0650000064
 20
37.7880814559
 30
0.0
 40
0.125
  0
CIRCLE
  5
1A5
330
78E92151
100
AcDbEntity
  8
DT_COMPONENTS
  6
Continuous
100
AcDbCircle
 10
8.4350000064
 20
37.7880814559
 30
0.0
 40
0.275
  0
CIRCLE
  5
1A6
330
78E92151
100
AcDbEntity
  8
DT_COMPONENTS
  6
Continuous
100
AcDbCircle
 10
7.0650000064
 20
37.7880814559
 30
0.0
 40
0.275
  0
LINE
  5
1A7
330
78E92151
100
AcDbEntity
  8
DT_COMPONENTS
  6
Continuous
100
AcDbLine
 10
7.7500000064
 20
38.7255814559
 30
0.0
 11
7.7500000064
 21
36.8505814559
 31
0.0
  0
CIRCLE
  5
1A8
330
78E92151
100
AcDbEntity
  8
DT_COMPONENTS
  6
Continuous
100
AcDbCircle
 10
7.7500000064
 20
38.7255814559
 30
0.0
 40
0.125
  0
CIRCLE
  5
1A9
330
78E92151
100
AcDbEntity
  8
DT_COMPONENTS
  6
Continuous
100
AcDbCircle
 10
7.7500000064
 20
36.8505814559
 30
0.0
 40
0.125
  0
CIRCLE
  5
1AA
330
78E92151
100
AcDbEntity
  8
DT_COMPONENTS
  6
Continuous
100
AcDbCircle
 10
7.7500000064
 20
38.7255814559
 30
0.0
 40
0.0445
  0
CIRCLE
  5
1AB
330
78E92151
100
AcDbEntity
  8
DT_COMPONENTS
  6
Continuous
100
AcDbCircle
 10
7.7500000064
 20
36.8505814559
 30
0.0
 40
0.0445
  0
CIRCLE
  5
1AC
330
78E92151
100
AcDbEntity
  8
DT_COMPONENTS
  6
Continuous
100
AcDbCircle
 10
7.7500000064
 20
37.7880814559
 30
0.0
 40
1.135
  0
CIRCLE
  5
1AD
330
78E92151
100
AcDbEntity
  8
DT_COMPONENTS
  6
Continuous
100
AcDbCircle
 10
7.7500000064
 20
37.7880814559
 30
0.0
 40
1.0
  0
ARC
  5
1B0
330
78E92151
100
AcDbEntity
  8
DT_COMPONENTS
  6
Continuous
100
AcDbCircle
 10
8.9134439033
 20
33.5403669291
 30
0.0
 40
8.4134834828
100
AcDbArc
 50
148.3070382326
 51
179.9977991793
  0
LINE
  5
1B1
330
78E92151
100
AcDbEntity
  8
DT_COMPONENTS
  6
Continuous
100
AcDbLine
 10
12.8799999936
 20
39.2880814559
 30
0.0
 11
12.1199999936
 21
39.2880814559
 31
0.0
  0
LINE
  5
1B2
330
78E92151
100
AcDbEntity
  8
DT_COMPONENTS
  6
Continuous
100
AcDbLine
 10
12.1199999936
 20
40.4480814559
 30
0.0
 11
12.8799999936
 21
40.4480814559
 31
0.0
  0
LINE
  5
1B3
330
78E92151
100
AcDbEntity
  8
DT_COMPONENTS
  6
Continuous
100
AcDbLine
 10
13.6499999936
 20
37.7880814559
 30
0.0
 11
11.3499999936
 21
37.7880814559
 31
0.0
  0
LINE
  5
1B4
330
78E92151
100
AcDbEntity
  8
DT_COMPONENTS
  6
Continuous
100
AcDbLine
 10
12.4999999936
 20
36.6380814559
 30
0.0
 11
12.4999999936
 21
38.9380814559
 31
0.0
  0
CIRCLE
  5
1B5
330
78E92151
100
AcDbEntity
  8
DT_COMPONENTS
  6
Continuous
100
AcDbCircle
 10
13.6499999936
 20
38.9380814559
 30
0.0
 40
0.0825
  0
CIRCLE
  5
1B6
330
78E92151
100
AcDbEntity
  8
DT_COMPONENTS
  6
Continuous
100
AcDbCircle
 10
11.3499999936
 20
38.9380814559
 30
0.0
 40
0.0825
  0
CIRCLE
  5
1B7
330
78E92151
100
AcDbEntity
  8
DT_COMPONENTS
  6
Continuous
100
AcDbCircle
 10
11.3499999936
 20
36.6380814559
 30
0.0
 40
0.0825
  0
CIRCLE
  5
1B8
330
78E92151
100
AcDbEntity
  8
DT_COMPONENTS
  6
Continuous
100
AcDbCircle
 10
13.6499999936
 20
36.6380814559
 30
0.0
 40
0.0825
  0
LINE
  5
1B9
330
78E92151
100
AcDbEntity
  8
DT_COMPONENTS
  6
Continuous
100
AcDbLine
 10
13.6499999936
 20
38.9380814559
 30
0.0
 11
13.6499999936
 21
36.6380814559
 31
0.0
  0
LINE
  5
1BA
330
78E92151
100
AcDbEntity
  8
DT_COMPONENTS
  6
Continuous
100
AcDbLine
 10
11.3499999936
 20
38.9380814559
 30
0.0
 11
13.6499999936
 21
38.9380814559
 31
0.0
  0
LINE
  5
1BB
330
78E92151
100
AcDbEntity
  8
DT_COMPONENTS
  6
Continuous
100
AcDbLine
 10
11.3499999936
 20
36.6380814559
 30
0.0
 11
11.3499999936
 21
38.9380814559
 31
0.0
  0
LINE
  5
1BC
330
78E92151
100
AcDbEntity
  8
DT_COMPONENTS
  6
Continuous
100
AcDbLine
 10
13.6499999936
 20
36.6380814559
 30
0.0
 11
11.3499999936
 21
36.6380814559
 31
0.0
  0
LINE
  5
1BE
330
78E92151
100
AcDbEntity
  8
DT_COMPONENTS
  6
Continuous
100
AcDbLine
 10
13.8749999936
 20
37.7880814559
 30
0.0
 11
11.1249999936
 21
37.7880814559
 31
0.0
  0
LINE
  5
1BF
330
78E92151
100
AcDbEntity
  8
DT_COMPONENTS
  6
Continuous
100
AcDbLine
 10
12.4999999936
 20
36.2880814559
 30
0.0
 11
12.4999999936
 21
39.2880814559
 31
0.0
  0
LINE
  5
1C0
330
78E92151
100
AcDbEntity
  8
DT_COMPONENTS
  6
Continuous
100
AcDbLine
 10
13.8749999936
 20
39.2880814559
 30
0.0
 11
13.8749999936
 21
36.2880814559
 31
0.0
  0
LINE
  5
1C1
330
78E92151
100
AcDbEntity
  8
DT_COMPONENTS
  6
Continuous
100
AcDbLine
 10
11.1249999936
 20
39.2880814559
 30
0.0
 11
13.8749999936
 21
39.2880814559
 31
0.0
  0
LINE
  5
1C2
330
78E92151
100
AcDbEntity
  8
DT_COMPONENTS
  6
Continuous
100
AcDbLine
 10
11.1249999936
 20
36.2880814559
 30
0.0
 11
11.1249999936
 21
39.2880814559
 31
0.0
  0
LINE
  5
1C3
330
78E92151
100
AcDbEntity
  8
DT_COMPONENTS
  6
Continuous
100
AcDbLine
 10
13.8749999936
 20
36.2880814559
 30
0.0
 11
11.1249999936
 21
36.2880814559
 31
0.0
  0
CIRCLE
  5
1C5
330
78E92151
100
AcDbEntity
  8
DT_COMPONENTS
  6
Continuous
100
AcDbCircle
 10
12.4999999936
 20
37.7880814559
 30
0.0
 40
1.25
  0
LINE
  5
1C6
330
78E92151
100
AcDbEntity
  8
DT_COMPONENTS
  6
Continuous
100
AcDbLine
 10
12.8799999936
 20
40.4480814559
 30
0.0
 11
12.8799999936
 21
39.2880814559
 31
0.0
  0
LINE
  5
1C7
330
78E92151
100
AcDbEntity
  8
DT_COMPONENTS
  6
Continuous
100
AcDbLine
 10
12.1199999936
 20
39.2880814559
 30
0.0
 11
12.1199999936
 21
40.4480814559
 31
0.0
  0
LINE
  5
1C9
330
78E92151
100
AcDbEntity
  8
DT_COMPONENTS
  6
Continuous
100
AcDbLine
 10
12.4999999936
 20
37.0597349992
 30
0.0
 11
12.4999999936
 21
38.5164279126
 31
0.0
  0
LINE
  5
1CA
330
78E92151
100
AcDbEntity
  8
DT_COMPONENTS
  6
Continuous
100
AcDbLine
 10
13.2283464503
 20
37.7880814559
 30
0.0
 11
11.7716535369
 21
37.7880814559
 31
0.0
  0
CIRCLE
  5
1CB
330
78E92151
100
AcDbEntity
  8
DT_COMPONENTS
  6
Continuous
100
AcDbCircle
 10
12.4999999936
 20
37.7880814559
 30
0.0
 40
0.4527559055
  0
CIRCLE
  5
1CC
330
78E92151
100
AcDbEntity
  8
DT_COMPONENTS
  6
Continuous
100
AcDbCircle
 10
12.4999999936
 20
37.7880814559
 30
0.0
 40
0.7283464567
  0
CIRCLE
  5
1CF
330
78E92151
100
AcDbEntity
  8
DT_COMPONENTS
  6
Continuous
100
AcDbCircle
 10
12.4999999936
 20
37.7880814559
 30
0.0
 40
0.8125
  0
LINE
  5
1D0
330
78E92151
100
AcDbEntity
  8
DT_COMPONENTS
  6
Continuous
100
AcDbLine
 10
13.1849999936
 20
37.7880814559
 30
0.0
 11
11.8149999936
 21
37.7880814559
 31
0.0
  0
CIRCLE
  5
1D1
330
78E92151
100
AcDbEntity
  8
DT_COMPONENTS
  6
Continuous
100
AcDbCircle
 10
13.1849999936
 20
37.7880814559
 30
0.0
 40
0.125
  0
CIRCLE
  5
1D2
330
78E92151
100
AcDbEntity
  8
DT_COMPONENTS
  6
Continuous
100
AcDbCircle
 10
11.8149999936
 20
37.7880814559
 30
0.0
 40
0.125
  0
CIRCLE
  5
1D3
330
78E92151
100
AcDbEntity
  8
DT_COMPONENTS
  6
Continuous
100
AcDbCircle
 10
13.1849999936
 20
37.7880814559
 30
0.0
 40
0.275
  0
CIRCLE
  5
1D4
330
78E92151
100
AcDbEntity
  8
DT_COMPONENTS
  6
Continuous
100
AcDbCircle
 10
11.8149999936
 20
37.7880814559
 30
0.0
 40
0.275
  0
LINE
  5
1D5
330
78E92151
100
AcDbEntity
  8
DT_COMPONENTS
  6
Continuous
100
AcDbLine
 10
12.4999999936
 20
38.7255814559
 30
0.0
 11
12.4999999936
 21
36.8505814559
 31
0.0
  0
CIRCLE
  5
1D6
330
78E92151
100
AcDbEntity
  8
DT_COMPONENTS
  6
Continuous
100
AcDbCircle
 10
12.4999999936
 20
38.7255814559
 30
0.0
 40
0.125
  0
CIRCLE
  5
1D7
330
78E92151
100
AcDbEntity
  8
DT_COMPONENTS
  6
Continuous
100
AcDbCircle
 10
12.4999999936
 20
36.8505814559
 30
0.0
 40
0.125
  0
CIRCLE
  5
1D8
330
78E92151
100
AcDbEntity
  8
DT_COMPONENTS
  6
Continuous
100
AcDbCircle
 10
12.4999999936
 20
38.7255814559
 30
0.0
 40
0.0445
  0
CIRCLE
  5
1D9
330
78E92151
100
AcDbEntity
  8
DT_COMPONENTS
  6
Continuous
100
AcDbCircle
 10
12.4999999936
 20
36.8505814559
 30
0.0
 40
0.0445
  0
CIRCLE
  5
1DA
330
78E92151
100
AcDbEntity
  8
DT_COMPONENTS
  6
Continuous
100
AcDbCircle
 10
12.4999999936
 20
37.7880814559
 30
0.0
 40
1.135
  0
CIRCLE
  5
1DB
330
78E92151
100
AcDbEntity
  8
DT_COMPONENTS
  6
Continuous
100
AcDbCircle
 10
12.4999999936
 20
37.7880814559
 30
0.0
 40
1.0
  0
LINE
  5
1DE
330
78E92151
100
AcDbEntity
  8
DT_COMPONENTS
  6
Continuous
100
AcDbLine
 10
13.3504649969
 20
30.5680931506
 30
0.0
 11
11.2412861332
 21
29.2227799299
 31
0.0
  0
LINE
  5
1DF
330
78E92151
100
AcDbEntity
  8
DT_COMPONENTS
  6
Continuous
100
AcDbLine
 10
11.4268637288
 20
28.8759290547
 30
0.0
 11
13.7164260192
 21
29.8840994843
 31
0.0
  0
LINE
  5
1E0
330
78E92151
100
AcDbEntity
  8
DT_COMPONENTS
  6
Continuous
100
AcDbLine
 10
13.4274348546
 20
30.4242338421
 30
0.0
 11
11.3182559372
 21
29.0789207198
 31
0.0
  0
LINE
  5
1E1
330
78E92151
100
AcDbEntity
  8
DT_COMPONENTS
  6
Continuous
100
AcDbLine
 10
13.7933958907
 20
29.7402401755
 30
0.0
 11
11.5038336001
 21
28.732069732
 31
0.0
  0
LINE
  5
1E2
330
78E92151
100
AcDbEntity
  8
DT_COMPONENTS
  6
Continuous
100
AcDbLine
 10
11.4516546399
 20
28.8295939962
 30
0.0
 11
13.7431057544
 21
29.8342341508
 31
0.0
  0
LINE
  5
1E3
330
78E92151
100
AcDbEntity
  8
DT_COMPONENTS
  6
Continuous
100
AcDbLine
 10
13.4007551733
 20
30.474099091
 30
0.0
 11
11.29346504
 21
29.1252557779
 31
0.0
  0
ARC
  5
1E4
330
78E92151
100
AcDbEntity
  8
DT_COMPONENTS
  6
Continuous
100
AcDbCircle
 10
13.603655949
 20
30.1711409408
 30
0.0
 40
0.4708255675
100
AcDbArc
 50
293.7654901762
 51
122.5312525321
  0
ARC
  5
1E5
330
78E92151
100
AcDbEntity
  8
DT_COMPONENTS
  6
Continuous
100
AcDbCircle
 10
13.5926298093
 20
30.1652415664
 30
0.0
 40
0.3071911
100
AcDbArc
 50
293.7654898873
 51
122.5312531195
  0
ARC
  5
1E6
330
78E92151
100
AcDbEntity
  8
DT_COMPONENTS
  6
Continuous
100
AcDbCircle
 10
13.5969653061
 20
30.1675611551
 30
0.0
 40
0.3639559347
100
AcDbArc
 50
293.6740710864
 51
122.6226711364
  0
CIRCLE
  5
1E7
330
78E92151
100
AcDbEntity
  8
DT_COMPONENTS
  6
Continuous
100
AcDbCircle
 10
13.5719304438
 20
30.154166663
 30
0.0
 40
0.125
  0
ARC
  5
1E8
330
78E92151
100
AcDbEntity
  8
DT_COMPONENTS
  6
Continuous
100
AcDbCircle
 10
11.3913651862
 20
28.987486348
 30
0.0
 40
0.2790820522
100
AcDbArc
 50
122.531255021
 51
293.7654865778
  0
ARC
  5
1E9
330
78E92151
100
AcDbEntity
  8
DT_COMPONENTS
  6
Continuous
100
AcDbCircle
 10
11.3803390061
 20
28.9815870227
 30
0.0
 40
0.1154476333
100
AcDbArc
 50
122.53125246
 51
293.7654921959
  0
ARC
  5
1EA
330
78E92151
100
AcDbEntity
  8
DT_COMPONENTS
  6
Continuous
100
AcDbCircle
 10
11.3841276628
 20
28.9836140849
 30
0.0
 40
0.1681727694
100
AcDbArc
 50
122.622669145
 51
293.6740712534
  0
ARC
  5
1EC
330
78E92151
100
AcDbEntity
  8
DT_COMPONENTS
  6
Continuous
100
AcDbCircle
 10
11.336461625
 20
33.5402764786
 30
0.0
 40
8.4134834828
100
AcDbArc
 50
0.0006159673
 51
31.6913769139
  0
LINE
  5
1ED
330
78E92151
100
AcDbEntity
  8
DT_COMPONENTS
  6
Continuous
100
AcDbLine
 10
5.6939623866
 20
42.2647402595
 30
0.0
 11
5.4060167548
 21
42.6105542458
 31
0.0
  0
LINE
  5
1EE
330
78E92151
100
AcDbEntity
  8
DT_COMPONENTS
  6
Continuous
100
AcDbLine
 10
5.7134069648
 20
42.8665059185
 30
0.0
 11
6.0013525966
 21
42.5206919322
 31
0.0
  0
LINE
  5
1EF
330
78E92151
100
AcDbEntity
  8
DT_COMPONENTS
  6
Continuous
100
AcDbLine
 10
5.3994318109
 20
42.1496240575
 30
0.0
 11
5.4634197291
 21
42.0727765049
 31
0.0
  0
LINE
  5
1F0
330
78E92151
100
AcDbEntity
  8
DT_COMPONENTS
  6
Continuous
100
AcDbLine
 10
6.167907336
 20
42.7895032393
 30
0.0
 11
5.3994318109
 21
42.1496240575
 31
0.0
  0
LINE
  5
1F1
330
78E92151
100
AcDbEntity
  8
DT_COMPONENTS
  6
Continuous
100
AcDbLine
 10
5.4634197291
 20
42.0727765049
 30
0.0
 11
6.2318952542
 21
42.7126556868
 31
0.0
  0
LINE
  5
1F2
330
78E92151
100
AcDbEntity
  8
DT_COMPONENTS
  6
Continuous
100
AcDbLine
 10
5.3154088866
 20
42.1528583569
 30
0.0
 11
5.3154088866
 21
42.1528583569
 31
0.0
  0
LINE
  5
1F3
330
78E92151
100
AcDbEntity
  8
DT_COMPONENTS
  6
Continuous
100
AcDbLine
 10
6.1799438523
 20
42.8727224365
 30
0.0
 11
6.1799438523
 21
42.8727224365
 31
0.0
  0
LINE
  5
1F4
330
78E92151
100
AcDbEntity
  8
DT_COMPONENTS
  6
Continuous
100
AcDbLine
 10
6.2318952542
 20
42.7126556868
 30
0.0
 11
6.167907336
 21
42.7895032393
 31
0.0
  0
LINE
  5
1F5
330
78E92151
100
AcDbEntity
  8
DT_COMPONENTS
  6
Continuous
100
AcDbLine
 10
6.0013525966
 20
42.5206919322
 30
0.0
 11
5.6939623866
 21
42.2647402595
 31
0.0
  0
LINE
  5
1F6
330
78E92151
100
AcDbEntity
  8
DT_COMPONENTS
  6
Continuous
100
AcDbLine
 10
5.6996466491
 20
42.4727979478
 30
0.0
 11
5.6996466491
 21
42.4727979478
 31
0.0
  0
LINE
  5
1F7
330
78E92151
100
AcDbEntity
  8
DT_COMPONENTS
  6
Continuous
100
AcDbLine
 10
5.475179552
 20
42.6681433722
 30
0.0
 11
5.4111916338
 21
42.7449909247
 31
0.0
  0
LINE
  5
1F8
330
78E92151
100
AcDbEntity
  8
DT_COMPONENTS
  6
Continuous
100
AcDbLine
 10
5.5802562494
 20
42.8857643447
 30
0.0
 11
5.6442441675
 21
42.8089167922
 31
0.0
  0
LINE
  5
1F9
330
78E92151
100
AcDbEntity
  8
DT_COMPONENTS
  6
Continuous
100
AcDbLine
 10
5.4111916338
 20
42.7449909247
 30
0.0
 11
5.5802562494
 21
42.8857643447
 31
0.0
  0
LINE
  5
1FA
330
78E92151
100
AcDbEntity
  8
DT_COMPONENTS
  6
Continuous
100
AcDbLine
 10
5.4740039178
 20
42.5289037212
 30
0.0
 11
5.434011469
 21
42.5769334416
 31
0.0
  0
LINE
  5
1FB
330
78E92151
100
AcDbEntity
  8
DT_COMPONENTS
  6
Continuous
100
AcDbLine
 10
5.7813941279
 20
42.784855394
 30
0.0
 11
5.4740039178
 21
42.5289037212
 31
0.0
  0
LINE
  5
1FC
330
78E92151
100
AcDbEntity
  8
DT_COMPONENTS
  6
Continuous
100
AcDbLine
 10
5.741401679
 20
42.8328851143
 30
0.0
 11
5.7813941279
 21
42.784855394
 31
0.0
  0
LINE
  5
1FD
330
78E92151
100
AcDbEntity
  8
DT_COMPONENTS
  6
Continuous
100
AcDbLine
 10
5.434011469
 20
42.5769334416
 30
0.0
 11
5.741401679
 21
42.8328851143
 31
0.0
  0
LINE
  5
1FE
330
78E92151
100
AcDbEntity
  8
DT_COMPONENTS
  6
Continuous
100
AcDbLine
 10
5.6442441675
 20
42.8089167922
 30
0.0
 11
5.475179552
 21
42.6681433722
 31
0.0
  0
LINE
  5
1FF
330
78E92151
100
AcDbEntity
  8
DT_COMPONENTS
  6
Continuous
100
AcDbLine
 10
5.4060167548
 20
42.6105542458
 30
0.0
 11
5.7134069648
 21
42.8665059185
 31
0.0
  0
LINE
  5
200
330
78E92151
100
AcDbEntity
  8
DT_COMPONENTS
  6
Continuous
100
AcDbLine
 10
6.1799438523
 20
42.8727224365
 30
0.0
 11
6.1799438523
 21
42.8727224365
 31
0.0
  0
CIRCLE
  5
202
330
78E92151
100
AcDbEntity
  8
7_VCARVE_BIT
  6
Continuous
100
AcDbCircle
 10
16.5513735747
 20
41.4572607752
 30
0.0
 40
0.0445
  0
CIRCLE
  5
203
330
78E92151
100
AcDbEntity
  8
7_VCARVE_BIT
  6
Continuous
100
AcDbCircle
 10
17.0934911672
 20
42.1083275912
 30
0.0
 40
0.0625
  0
CIRCLE
  5
204
330
78E92151
100
AcDbEntity
  8
7_VCARVE_BIT
  6
Continuous
100
AcDbCircle
 10
19.120930869
 20
38.0752125845
 30
0.0
 40
0.0625
  0
CIRCLE
  5
205
330
78E92151
100
AcDbEntity
  8
7_VCARVE_BIT
  6
Continuous
100
AcDbCircle
 10
17.3860225927
 20
32.0874690945
 30
0.0
 40
0.0445
  0
CIRCLE
  5
206
330
78E92151
100
AcDbEntity
  8
7_VCARVE_BIT
  6
Continuous
100
AcDbCircle
 10
0.2501775
 20
31.9944450197
 30
0.0
 40
0.0445
  0
CIRCLE
  5
207
330
78E92151
100
AcDbEntity
  8
7_VCARVE_BIT
  6
Continuous
100
AcDbCircle
 10
0.2501775
 20
35.9944450197
 30
0.0
 40
0.0445
  0
CIRCLE
  5
208
330
78E92151
100
AcDbEntity
  8
7_VCARVE_BIT
  6
Continuous
100
AcDbCircle
 10
5.9719932387
 20
30.6855350879
 30
0.0
 40
0.0445
  0
CIRCLE
  5
209
330
78E92151
100
AcDbEntity
  8
7_VCARVE_BIT
  6
Continuous
100
AcDbCircle
 10
4.8513397129
 20
42.417079548
 30
0.0
 40
0.0445
  0
CIRCLE
  5
20A
330
78E92151
100
AcDbEntity
  8
7_VCARVE_BIT
  6
Continuous
100
AcDbCircle
 10
6.0040530006
 20
43.3768983207
 30
0.0
 40
0.0445
  0
CIRCLE
  5
20B
330
78E92151
100
AcDbEntity
  8
7_VCARVE_BIT
  6
Continuous
100
AcDbCircle
 10
7.4195
 20
43.3768983268
 30
0.0
 40
0.0445
  0
CIRCLE
  5
20C
330
78E92151
100
AcDbEntity
  8
7_VCARVE_BIT
  6
Continuous
100
AcDbCircle
 10
15.3986602871
 20
42.417079548
 30
0.0
 40
0.0445
  0
CIRCLE
  5
20D
330
78E92151
100
AcDbEntity
  8
7_VCARVE_BIT
  6
Continuous
100
AcDbCircle
 10
17.811131918
 20
41.6194450197
 30
0.0
 40
0.0445
  0
CIRCLE
  5
20E
330
78E92151
100
AcDbEntity
  8
7_VCARVE_BIT
  6
Continuous
100
AcDbCircle
 10
18.6469074864
 20
38.0700023391
 30
0.0
 40
0.0575
  0
CIRCLE
  5
20F
330
78E92151
100
AcDbEntity
  8
7_VCARVE_BIT
  6
Continuous
100
AcDbCircle
 10
16.384277645
 20
31.8211966934
 30
0.0
 40
0.0625
  0
CIRCLE
  5
210
330
78E92151
100
AcDbEntity
  8
7_VCARVE_BIT
  6
Continuous
100
AcDbCircle
 10
17.226330388
 20
34.4099597638
 30
0.0
 40
0.0445
  0
CIRCLE
  5
211
330
78E92151
100
AcDbEntity
  8
7_VCARVE_BIT
  6
Continuous
100
AcDbCircle
 10
3.6986264253
 20
41.4572607752
 30
0.0
 40
0.0445
  0
CIRCLE
  5
212
330
78E92151
100
AcDbEntity
  8
7_VCARVE_BIT
  6
Continuous
100
AcDbCircle
 10
20.0001775
 20
31.9944450197
 30
0.0
 40
0.0445
  0
CIRCLE
  5
213
330
78E92151
100
AcDbEntity
  8
7_VCARVE_BIT
  6
Continuous
100
AcDbCircle
 10
20.0001775
 20
35.9944450197
 30
0.0
 40
0.0445
  0
CIRCLE
  5
214
330
78E92151
100
AcDbEntity
  8
7_VCARVE_BIT
  6
Continuous
100
AcDbCircle
 10
3.8471338627
 20
31.7671546598
 30
0.0
 40
0.0625
  0
CIRCLE
  5
215
330
78E92151
100
AcDbEntity
  8
7_VCARVE_BIT
  6
Continuous
100
AcDbCircle
 10
20.0001775
 20
42.9944450197
 30
0.0
 40
0.0445
  0
CIRCLE
  5
216
330
78E92151
100
AcDbEntity
  8
7_VCARVE_BIT
  6
Continuous
100
AcDbCircle
 10
17.811131918
 20
42.6194450197
 30
0.0
 40
0.0445
  0
LINE
  5
217
330
78E92151
100
AcDbEntity
  8
8_250BIT_500OUTLINE
  6
Continuous
100
AcDbLine
 10
2.3951427953
 20
31.5722255512
 30
0.0
 11
8.8138922047
 21
28.7458366535
 31
0.0
  0
LINE
  5
218
330
78E92151
100
AcDbEntity
  8
8_250BIT_500OUTLINE
  6
Continuous
100
AcDbLine
 10
11.4444522047
 20
28.7458366535
 30
0.0
 11
17.8322911024
 21
31.5833388976
 31
0.0
  0
LINE
  5
219
330
78E92151
100
AcDbEntity
  8
8_250BIT_500OUTLINE
  6
Continuous
100
AcDbLine
 10
17.8322911024
 20
31.5826467004
 30
0.0
 11
20.25
 21
31.1868088976
 31
0.0
  0
LINE
  5
21A
330
78E92151
100
AcDbEntity
  8
8_250BIT_500OUTLINE
  6
Continuous
100
AcDbLine
 10
11.875
 20
43.75
 30
0.0
 11
20.25
 21
43.75
 31
0.0
  0
LINE
  5
21B
330
78E92151
100
AcDbEntity
  8
1_250BIT_500DEP
  6
Continuous
100
AcDbLine
 10
5.3475175506
 20
42.5049078087
 30
0.0
 11
5.8278147538
 21
42.9048322974
 31
0.0
  0
CIRCLE
  5
21C
330
78E92151
100
AcDbEntity
  8
1_250BIT_500DEP
  6
Continuous
100
AcDbCircle
 10
6.6595601631
 20
30.1555555538
 30
0.0
 40
0.25
  0
CIRCLE
  5
21D
330
78E92151
100
AcDbEntity
  8
1_250BIT_500DEP
  6
Continuous
100
AcDbCircle
 10
4.2420583498
 20
39.6325192199
 30
0.0
 40
0.3174614934
  0
CIRCLE
  5
21E
330
78E92151
100
AcDbEntity
  8
1_250BIT_500DEP
  6
Continuous
100
AcDbCircle
 10
5.3947716374
 20
40.5923379927
 30
0.0
 40
0.3174614934
  0
CIRCLE
  5
21F
330
78E92151
100
AcDbEntity
  8
3_250BIT_500TAB
  6
Continuous
100
AcDbCircle
 10
7.7500000064
 20
37.7880814559
 30
0.0
 40
1.26
  0
CIRCLE
  5
220
330
78E92151
100
AcDbEntity
  8
3_250BIT_500TAB
  6
Continuous
100
AcDbCircle
 10
12.4999999936
 20
37.7880814559
 30
0.0
 40
1.26
  0
CIRCLE
  5
221
330
78E92151
100
AcDbEntity
  8
7_VCARVE_BIT
  6
Continuous
100
AcDbCircle
 10
15.7501775
 20
43.4944450197
 30
0.0
 40
0.0445
  0
CIRCLE
  5
222
330
78E92151
100
AcDbEntity
  8
7_VCARVE_BIT
  6
Continuous
100
AcDbCircle
 10
18.7501775
 20
43.4944450197
 30
0.0
 40
0.0445
  0
CIRCLE
  5
223
330
78E92151
100
AcDbEntity
  8
7_VCARVE_BIT
  6
Continuous
100
AcDbCircle
 10
0.2501775
 20
42.9944450197
 30
0.0
 40
0.0445
  0
CIRCLE
  5
224
330
78E92151
100
AcDbEntity
  8
7_VCARVE_BIT
  6
Continuous
100
AcDbCircle
 10
2.439223082
 20
42.6194450197
 30
0.0
 40
0.0445
  0
CIRCLE
  5
225
330
78E92151
100
AcDbEntity
  8
7_VCARVE_BIT
  6
Continuous
100
AcDbCircle
 10
4.5001775
 20
43.4944450197
 30
0.0
 40
0.0445
  0
CIRCLE
  5
226
330
78E92151
100
AcDbEntity
  8
7_VCARVE_BIT
  6
Continuous
100
AcDbCircle
 10
1.5001775
 20
43.4944450197
 30
0.0
 40
0.0445
  0
CIRCLE
  5
227
330
78E92151
100
AcDbEntity
  8
7_VCARVE_BIT
  6
Continuous
100
AcDbCircle
 10
3.1565088328
 20
42.1083275912
 30
0.0
 40
0.0625
  0
CIRCLE
  5
228
330
78E92151
100
AcDbEntity
  8
7_VCARVE_BIT
  6
Continuous
100
AcDbCircle
 10
0.2501775
 20
38.9944450197
 30
0.0
 40
0.0445
  0
CIRCLE
  5
229
330
78E92151
100
AcDbEntity
  8
7_VCARVE_BIT
  6
Continuous
100
AcDbCircle
 10
2.439223082
 20
41.6194450197
 30
0.0
 40
0.0445
  0
CIRCLE
  5
22A
330
78E92151
100
AcDbEntity
  8
7_VCARVE_BIT
  6
Continuous
100
AcDbCircle
 10
1.6031233411
 20
38.0702950014
 30
0.0
 40
0.0575
  0
CIRCLE
  5
22B
330
78E92151
100
AcDbEntity
  8
7_VCARVE_BIT
  6
Continuous
100
AcDbCircle
 10
14.2599092325
 20
30.742384204
 30
0.0
 40
0.0445
  0
CIRCLE
  5
22C
330
78E92151
100
AcDbEntity
  8
7_VCARVE_BIT
  6
Continuous
100
AcDbCircle
 10
14.2459469994
 20
43.3768983207
 30
0.0
 40
0.0445
  0
CIRCLE
  5
22D
330
78E92151
100
AcDbEntity
  8
7_VCARVE_BIT
  6
Continuous
100
AcDbCircle
 10
12.8305
 20
43.3768983268
 30
0.0
 40
0.0445
  0
CIRCLE
  5
22E
330
78E92151
100
AcDbEntity
  8
7_VCARVE_BIT
  6
Continuous
100
AcDbCircle
 10
2.5459131377
 20
40.4974420024
 30
0.0
 40
0.0445
  0
CIRCLE
  5
22F
330
78E92151
100
AcDbEntity
  8
7_VCARVE_BIT
  6
Continuous
100
AcDbCircle
 10
1.1317381003
 20
38.0702950014
 30
0.0
 40
0.0625
  0
CIRCLE
  5
230
330
78E92151
100
AcDbEntity
  8
7_VCARVE_BIT
  6
Continuous
100
AcDbCircle
 10
20.0001775
 20
38.9944450197
 30
0.0
 40
0.0445
  0
CIRCLE
  5
231
330
78E92151
100
AcDbEntity
  8
7_VCARVE_BIT
  6
Continuous
100
AcDbCircle
 10
3.0050733833
 20
34.3559003186
 30
0.0
 40
0.0445
  0
CIRCLE
  5
232
330
78E92151
100
AcDbEntity
  8
7_VCARVE_BIT
  6
Continuous
100
AcDbCircle
 10
2.8453889149
 20
32.033427061
 30
0.0
 40
0.0445
  0
CIRCLE
  5
233
330
78E92151
100
AcDbEntity
  8
7_VCARVE_BIT
  6
Continuous
100
AcDbCircle
 10
17.7040868623
 20
40.4974420024
 30
0.0
 40
0.0445
  0
ARC
  5
234
330
78E92151
100
AcDbEntity
  8
1_250BIT_500DEP
  6
Continuous
100
AcDbCircle
 10
14.7425126539
 20
42.3127889275
 30
0.0
 40
0.25
100
AcDbArc
 50
230.2171890157
 51
50.21718901570001
  0
LINE
  5
235
330
78E92151
100
AcDbEntity
  8
1_250BIT_500DEP
  6
Continuous
100
AcDbLine
 10
14.4221852462
 20
42.9048322974
 30
0.0
 11
14.9024824494
 21
42.5049078087
 31
0.0
  0
LINE
  5
236
330
78E92151
100
AcDbEntity
  8
1_250BIT_500DEP
  6
Continuous
100
AcDbLine
 10
14.5825428585
 20
42.1206700462
 30
0.0
 11
14.1022456553
 21
42.5205945349
 31
0.0
  0
ARC
  5
237
330
78E92151
100
AcDbEntity
  8
1_250BIT_500DEP
  6
Continuous
100
AcDbCircle
 10
14.2622154507
 20
42.7127134161
 30
0.0
 40
0.25
100
AcDbArc
 50
50.21718901570001
 51
230.2171890157
  0
ARC
  5
238
330
78E92151
100
AcDbEntity
  8
1_250BIT_500DEP
  6
Continuous
100
AcDbCircle
 10
3.682357974
 20
40.7930758706
 30
0.0
 40
0.25
100
AcDbArc
 50
309.7828109843
 51
129.7828109843
  0
LINE
  5
239
330
78E92151
100
AcDbEntity
  8
1_250BIT_500DEP
  6
Continuous
100
AcDbLine
 10
3.0420909754
 20
40.5852702632
 30
0.0
 11
3.5223881786
 21
40.9851947519
 31
0.0
  0
LINE
  5
23A
330
78E92151
100
AcDbEntity
  8
1_250BIT_500DEP
  6
Continuous
100
AcDbLine
 10
3.8423277695
 20
40.6009569893
 30
0.0
 11
3.3620305663
 21
40.2010325007
 31
0.0
  0
ARC
  5
23B
330
78E92151
100
AcDbEntity
  8
1_250BIT_500DEP
  6
Continuous
100
AcDbCircle
 10
3.2020607709
 20
40.3931513819
 30
0.0
 40
0.25
100
AcDbArc
 50
129.7828109843
 51
309.7828109843
  0
ARC
  5
23C
330
78E92151
100
AcDbEntity
  8
1_250BIT_500DEP
  6
Continuous
100
AcDbCircle
 10
4.8350712616
 20
41.7528946434
 30
0.0
 40
0.25
100
AcDbArc
 50
309.7828109843
 51
129.7828109843
  0
LINE
  5
23D
330
78E92151
100
AcDbEntity
  8
1_250BIT_500DEP
  6
Continuous
100
AcDbLine
 10
4.194804263
 20
41.545089036
 30
0.0
 11
4.6751014662
 21
41.9450135246
 31
0.0
  0
LINE
  5
23E
330
78E92151
100
AcDbEntity
  8
1_250BIT_500DEP
  6
Continuous
100
AcDbLine
 10
4.9950410571
 20
41.5607757621
 30
0.0
 11
4.5147438539
 21
41.1608512734
 31
0.0
  0
ARC
  5
23F
330
78E92151
100
AcDbEntity
  8
1_250BIT_500DEP
  6
Continuous
100
AcDbCircle
 10
4.3547740585
 20
41.3529701547
 30
0.0
 40
0.25
100
AcDbArc
 50
129.7828109843
 51
309.7828109843
  0
ARC
  5
240
330
78E92151
100
AcDbEntity
  8
1_250BIT_500DEP
  6
Continuous
100
AcDbCircle
 10
17.0479392291
 20
40.3931513819
 30
0.0
 40
0.25
100
AcDbArc
 50
230.2171890157
 51
50.21718901570001
  0
LINE
  5
241
330
78E92151
100
AcDbEntity
  8
1_250BIT_500DEP
  6
Continuous
100
AcDbLine
 10
16.7276118214
 20
40.9851947519
 30
0.0
 11
17.2079090246
 21
40.5852702632
 31
0.0
  0
LINE
  5
242
330
78E92151
100
AcDbEntity
  8
1_250BIT_500DEP
  6
Continuous
100
AcDbLine
 10
16.8879694337
 20
40.2010325007
 30
0.0
 11
16.4076722305
 21
40.6009569893
 31
0.0
  0
ARC
  5
243
330
78E92151
100
AcDbEntity
  8
1_250BIT_500DEP
  6
Continuous
100
AcDbCircle
 10
16.567642026
 20
40.7930758706
 30
0.0
 40
0.25
100
AcDbArc
 50
50.21718901570001
 51
230.2171890157
  0
ARC
  5
244
330
78E92151
100
AcDbEntity
  8
1_250BIT_500DEP
  6
Continuous
100
AcDbCircle
 10
15.8952259415
 20
41.3529701547
 30
0.0
 40
0.25
100
AcDbArc
 50
230.2171890157
 51
50.21718901570001
  0
LINE
  5
245
330
78E92151
100
AcDbEntity
  8
1_250BIT_500DEP
  6
Continuous
100
AcDbLine
 10
15.5748985338
 20
41.9450135246
 30
0.0
 11
16.055195737
 21
41.545089036
 31
0.0
  0
LINE
  5
246
330
78E92151
100
AcDbEntity
  8
1_250BIT_500DEP
  6
Continuous
100
AcDbLine
 10
15.7352561461
 20
41.1608512734
 30
0.0
 11
15.2549589429
 21
41.5607757621
 31
0.0
  0
ARC
  5
247
330
78E92151
100
AcDbEntity
  8
1_250BIT_500DEP
  6
Continuous
100
AcDbCircle
 10
15.4149287384
 20
41.7528946434
 30
0.0
 40
0.25
100
AcDbArc
 50
50.21718901570001
 51
230.2171890157
  0
CIRCLE
  5
248
330
78E92151
100
AcDbEntity
  8
1_250BIT_500DEP
  6
Continuous
100
AcDbCircle
 10
3.3464944388
 20
33.2244834529
 30
0.0
 40
0.25
  0
CIRCLE
  5
249
330
78E92151
100
AcDbEntity
  8
1_250BIT_500DEP
  6
Continuous
100
AcDbCircle
 10
16.9368699018
 20
33.2458269186
 30
0.0
 40
0.25
  0
CIRCLE
  5
24A
330
78E92151
100
AcDbEntity
  8
1_250BIT_500DEP
  6
Continuous
100
AcDbCircle
 10
18.9209900309
 20
42.3987960974
 30
0.0
 40
0.59375
  0
CIRCLE
  5
24B
330
78E92151
100
AcDbEntity
  8
1_250BIT_500DEP
  6
Continuous
100
AcDbCircle
 10
1.3290099691
 20
42.3987960974
 30
0.0
 40
0.59375
  0
ARC
  5
24C
330
78E92151
100
AcDbEntity
  8
1_250BIT_500DEP
  6
Continuous
100
AcDbCircle
 10
5.9877845493
 20
42.7127134161
 30
0.0
 40
0.25
100
AcDbArc
 50
309.7828109843
 51
129.7828109843
  0
LINE
  5
24D
330
78E92151
100
AcDbEntity
  8
8_250BIT_500OUTLINE
  6
Continuous
100
AcDbLine
 10
0.0001775
 20
31.1920172244
 30
0.0
 11
2.3953202953
 21
31.5666705709
 31
0.0
  0
LINE
  5
24E
330
78E92151
100
AcDbEntity
  8
8_250BIT_500OUTLINE
  6
Continuous
100
AcDbLine
 10
8.375
 20
43.75
 30
0.0
 11
0.0
 21
43.75
 31
0.0
  0
LINE
  5
24F
330
78E92151
100
AcDbEntity
  8
8_250BIT_500OUTLINE
  6
Continuous
100
AcDbLine
 10
0.0
 20
43.75
 30
0.0
 11
0.0
 21
31.1975722047
 31
0.0
  0
LINE
  5
250
330
78E92151
100
AcDbEntity
  8
DT_COMPONENTS
  6
Continuous
100
AcDbLine
 10
0.4999427559
 20
43.75
 30
0.0
 11
0.4999427559
 21
43.25
 31
0.0
  0
LINE
  5
251
330
78E92151
100
AcDbEntity
  8
DT_COMPONENTS
  6
Continuous
100
AcDbLine
 10
0.0
 20
43.75
 30
0.0
 11
0.4999604267
 21
43.75
 31
0.0
  0
LINE
  5
252
330
78E92151
100
AcDbEntity
  8
DT_COMPONENTS
  6
Continuous
100
AcDbLine
 10
0.4999604267
 20
43.75
 30
0.0
 11
0.4999604267
 21
31.2757770814
 31
0.0
  0
LINE
  5
253
330
78E92151
100
AcDbEntity
  8
DT_COMPONENTS
  6
Continuous
100
AcDbLine
 10
0.0
 20
31.1975722047
 30
0.0
 11
0.0
 21
43.75
 31
0.0
  0
LINE
  5
254
330
78E92151
100
AcDbEntity
  8
DT_COMPONENTS
  6
Continuous
100
AcDbLine
 10
0.4999604267
 20
31.2757770814
 30
0.0
 11
0.0
 21
31.1975722047
 31
0.0
  0
CIRCLE
  5
256
330
78E92151
100
AcDbEntity
  8
2_250BIT_250DEP
  6
Continuous
100
AcDbCircle
 10
4.2420583498
 20
39.6325192199
 30
0.0
 40
0.3801289701
  0
CIRCLE
  5
257
330
78E92151
100
AcDbEntity
  8
2_250BIT_250DEP
  6
Continuous
100
AcDbCircle
 10
5.3947716374
 20
40.5923379927
 30
0.0
 40
0.3801289701
  0
CIRCLE
  5
258
330
78E92151
100
AcDbEntity
  8
2_250BIT_250DEP
  6
Continuous
100
AcDbCircle
 10
6.547484925
 20
41.5521567655
 30
0.0
 40
0.3801289701
  0
CIRCLE
  5
259
330
78E92151
100
AcDbEntity
  8
2_250BIT_250DEP
  6
Continuous
100
AcDbCircle
 10
8.9325
 20
41.75
 30
0.0
 40
0.3801289701
  0
CIRCLE
  5
25A
330
78E92151
100
AcDbEntity
  8
2_250BIT_250DEP
  6
Continuous
100
AcDbCircle
 10
10.125
 20
41.75
 30
0.0
 40
0.3801289701
  0
CIRCLE
  5
25B
330
78E92151
100
AcDbEntity
  8
2_250BIT_250DEP
  6
Continuous
100
AcDbCircle
 10
11.3175
 20
41.75
 30
0.0
 40
0.3801289701
  0
CIRCLE
  5
25C
330
78E92151
100
AcDbEntity
  8
2_250BIT_250DEP
  6
Continuous
100
AcDbCircle
 10
13.702515075
 20
41.5521567655
 30
0.0
 40
0.3801289701
  0
CIRCLE
  5
25D
330
78E92151
100
AcDbEntity
  8
2_250BIT_250DEP
  6
Continuous
100
AcDbCircle
 10
14.8552283626
 20
40.5923379927
 30
0.0
 40
0.3801289701
  0
CIRCLE
  5
25E
330
78E92151
100
AcDbEntity
  8
2_250BIT_250DEP
  6
Continuous
100
AcDbCircle
 10
16.0079416502
 20
39.6325192199
 30
0.0
 40
0.3801289701
  0
CIRCLE
  5
25F
330
78E92151
100
AcDbEntity
  8
1_250BIT_500DEP
  6
Continuous
100
AcDbCircle
 10
6.547484925
 20
41.5521567655
 30
0.0
 40
0.3174614934
  0
CIRCLE
  5
260
330
78E92151
100
AcDbEntity
  8
1_250BIT_500DEP
  6
Continuous
100
AcDbCircle
 10
8.9325
 20
41.75
 30
0.0
 40
0.3174614934
  0
CIRCLE
  5
261
330
78E92151
100
AcDbEntity
  8
1_250BIT_500DEP
  6
Continuous
100
AcDbCircle
 10
10.125
 20
41.75
 30
0.0
 40
0.3174614934
  0
CIRCLE
  5
262
330
78E92151
100
AcDbEntity
  8
1_250BIT_500DEP
  6
Continuous
100
AcDbCircle
 10
11.3175
 20
41.75
 30
0.0
 40
0.3174614934
  0
CIRCLE
  5
263
330
78E92151
100
AcDbEntity
  8
1_250BIT_500DEP
  6
Continuous
100
AcDbCircle
 10
13.702515075
 20
41.5521567655
 30
0.0
 40
0.3174614934
  0
CIRCLE
  5
264
330
78E92151
100
AcDbEntity
  8
1_250BIT_500DEP
  6
Continuous
100
AcDbCircle
 10
14.8552283626
 20
40.5923379927
 30
0.0
 40
0.3174614934
  0
CIRCLE
  5
265
330
78E92151
100
AcDbEntity
  8
1_250BIT_500DEP
  6
Continuous
100
AcDbCircle
 10
16.0079416502
 20
39.6325192199
 30
0.0
 40
0.3174614934
  0
CIRCLE
  5
266
330
78E92151
100
AcDbEntity
  8
1_250BIT_500DEP
  6
Continuous
100
AcDbCircle
 10
0.7685926649
 20
38.5267144097
 30
0.0
 40
0.25
  0
CIRCLE
  5
267
330
78E92151
100
AcDbEntity
  8
1_250BIT_500DEP
  6
Continuous
100
AcDbCircle
 10
19.4970504104
 20
38.5548347782
 30
0.0
 40
0.25
  0
CIRCLE
  5
268
330
78E92151
100
AcDbEntity
  8
1_250BIT_500DEP
  6
Continuous
100
AcDbCircle
 10
13.5718755512
 20
30.154166663
 30
0.0
 40
0.25
  0
LINE
  5
269
330
78E92151
100
AcDbEntity
  8
1_250BIT_500DEP
  6
Continuous
100
AcDbLine
 10
6.1477543447
 20
42.5205945349
 30
0.0
 11
5.6674571415
 21
42.1206700462
 31
0.0
  0
ARC
  5
26A
330
78E92151
100
AcDbEntity
  8
1_250BIT_500DEP
  6
Continuous
100
AcDbCircle
 10
5.5074873461
 20
42.3127889275
 30
0.0
 40
0.25
100
AcDbArc
 50
129.7828109843
 51
309.7828109843
  0
VIEWPORT
  5
78E92211
330
78E9214D
100
AcDbEntity
 67
     1
  8
0
100
AcDbViewport
 10
5.25
 20
4.0
 30
0.0
 40
11.638
 41
8.993
 68
     1
 69
     1
 12
5.25
 22
4.0
 13
0.0
 23
0.0
 14
0.5
 24
0.5
 15
0.5
 25
0.5
 16
0.0
 26
0.0
 36
1.0
 17
0.0
 27
0.0
 37
0.0
 42
50.0
 43
0.0
 44
0.0
 45
8.993
 50
0.0
 51
0.0
 72
   100
 90
   557152
  1

281
     0
 71
     1
 74
     0
110
0.0
120
0.0
130
0.0
111
1.0
121
0.0
131
0.0
112
0.0
122
1.0
132
0.0
 79
     0
146
0.0
170
     0
 61
     5
348
78E92161
292
     1
282
     1
141
0.0
142
0.0
 63
   256
361
78E92212
  0
ENDSEC
  0
SECTION
  2
OBJECTS
  0
DICTIONARY
  5
78E9213F
330
0
100
AcDbDictionary
281
     1
  3
ACAD_DETAILVIEWSTYLE
350
78E9221A
  3
ACAD_GROUP
350
78E92140
  3
ACAD_LAYOUT
350
78E9214C
  3
ACAD_MATERIAL
350
78E92175
  3
ACAD_MLEADERSTYLE
350
78E9218D
  3
ACAD_MLINESTYLE
350
78E92149
  3
ACAD_PLOTSETTINGS
350
78E9214B
  3
ACAD_PLOTSTYLENAME
350
78E92141
  3
ACAD_SCALELIST
350
78E92179
  3
ACAD_SECTIONVIEWSTYLE
350
78E9221B
  3
ACAD_TABLESTYLE
350
78E9218B
  3
ACAD_VISUALSTYLE
350
78E9215C
  3
ACDB_RECOMPOSE_DATA
350
78E92217
  3
AcDbVariableDictionary
350
78E92213
  3
QCAD_OBJECTS
350
78E92191
  0
SUN
  5
78E9218F
330
78E9215B
100
AcDbSun
 90
        1
290
     0
 63
     7
421
 16777215
 40
1.0
291
     1
 91
  2455826
 92
 54000000
292
     0
 70
     2
 71
   256
280
     1
  0
SUN
  5
78E92212
330
78E92211
100
AcDbSun
 90
        1
290
     0
 63
     7
421
 16777215
 40
1.0
291
     1
 91
  2455826
 92
 54000000
292
     0
 70
     2
 71
   256
280
     1
  0
DICTIONARY
  5
78E9221A
102
{ACAD_REACTORS
330
78E9213F
102
}
330
78E9213F
100
AcDbDictionary
281
     1
  0
DICTIONARY
  5
78E92140
102
{ACAD_REACTORS
330
78E9213F
102
}
330
78E9213F
100
AcDbDictionary
281
     1
  0
DICTIONARY
  5
78E9214C
102
{ACAD_REACTORS
330
78E9213F
102
}
330
78E9213F
100
AcDbDictionary
281
     1
  3
Layout1
350
78E92150
  3
Model
350
78E92154
  0
DICTIONARY
  5
78E92175
102
{ACAD_REACTORS
330
78E9213F
102
}
330
78E9213F
100
AcDbDictionary
281
     1
  3
ByBlock
350
78E92177
  3
ByLayer
350
78E92176
  3
Global
350
78E92178
  0
DICTIONARY
  5
78E9218D
102
{ACAD_REACTORS
330
78E9213F
102
}
330
78E9213F
100
AcDbDictionary
281
     1
  3
Standard
350
78E9218E
  0
DICTIONARY
  5
78E92149
102
{ACAD_REACTORS
330
78E9213F
102
}
330
78E9213F
100
AcDbDictionary
281
     1
  3
Standard
350
78E9214A
  0
DICTIONARY
  5
78E9214B
102
{ACAD_REACTORS
330
78E9213F
102
}
330
78E9213F
100
AcDbDictionary
281
     1
  0
ACDBDICTIONARYWDFLT
  5
78E92141
102
{ACAD_REACTORS
330
78E9213F
102
}
330
78E9213F
100
AcDbDictionary
281
     1
  3
Normal
350
78E92142
100
AcDbDictionaryWithDefault
340
78E92142
  0
DICTIONARY
  5
78E92179
102
{ACAD_REACTORS
330
78E9213F
102
}
330
78E9213F
100
AcDbDictionary
281
     1
  3
A0
350
78E9217A
  3
A1
350
78E9217B
  3
A2
350
78E9217C
  3
A3
350
78E9217D
  3
A4
350
78E9217E
  3
A5
350
78E9217F
  3
A6
350
78E92180
  3
A7
350
78E92181
  3
A8
350
78E92182
  3
A9
350
78E92183
  3
B1
350
78E92184
  3
B2
350
78E92185
  3
B3
350
78E92186
  3
B4
350
78E92187
  3
B5
350
78E92188
  3
B6
350
78E92189
  3
B7
350
78E9218A
  0
DICTIONARY
  5
78E9221B
102
{ACAD_REACTORS
330
78E9213F
102
}
330
78E9213F
100
AcDbDictionary
281
     1
  0
DICTIONARY
  5
78E9218B
102
{ACAD_REACTORS
330
78E9213F
102
}
330
78E9213F
100
AcDbDictionary
281
     1
  3
Standard
350
78E9218C
  0
DICTIONARY
  5
78E9215C
102
{ACAD_REACTORS
330
78E9213F
102
}
330
78E9213F
100
AcDbDictionary
281
     1
  3
2dWireframe
350
78E92161
  3
Basic
350
78E92164
  3
Brighten
350
78E92168
  3
ColorChange
350
78E9216C
  3
Conceptual
350
78E92166
  3
Dim
350
78E92167
  3
EdgeColorOff
350
78E9216F
  3
Facepattern
350
78E9216B
  3
Flat
350
78E9215D
  3
FlatWithEdges
350
78E9215E
  3
Gouraud
350
78E9215F
  3
GouraudWithEdges
350
78E92160
  3
Hidden
350
78E92163
  3
JitterOff
350
78E9216D
  3
Linepattern
350
78E9216A
  3
OverhangOff
350
78E9216E
  3
Realistic
350
78E92165
  3
Shaded
350
78E92174
  3
Shaded with edges
350
78E92173
  3
Shades of Gray
350
78E92170
  3
Sketchy
350
78E92171
  3
Thicken
350
78E92169
  3
Wireframe
350
78E92162
  3
X-Ray
350
78E92172
  0
XRECORD
  5
78E92217
102
{ACAD_REACTORS
330
78E9213F
102
}
330
78E9213F
100
AcDbXrecord
280
     1
 90
        1
330
78E9218C
  0
DICTIONARY
  5
78E92213
102
{ACAD_REACTORS
330
78E9213F
102
}
330
78E9213F
100
AcDbDictionary
281
     1
  3
CANNOSCALE
350
78E92214
  3
CMLEADERSTYLE
350
78E92219
  3
CTABLESTYLE
350
78E92218
  0
DICTIONARY
  5
78E92191
102
{ACAD_REACTORS
330
78E9213F
102
}
330
78E9213F
100
AcDbDictionary
281
     1
  3
ColorSettings/BackgroundColor
350
78E92193
  3
ColorSettings/ColorMode
350
78E92194
  3
Grid/DisplayGrid00
350
78E92195
  3
Grid/DisplayGrid01
350
78E92196
  3
Grid/DisplayGrid02
350
78E92197
  3
Grid/DisplayGrid03
350
78E92198
  3
Grid/GridSpacingX00
350
78E92199
  3
Grid/GridSpacingX01
350
78E9219A
  3
Grid/GridSpacingX02
350
78E9219B
  3
Grid/GridSpacingX03
350
78E9219C
  3
Grid/GridSpacingY00
350
78E9219D
  3
Grid/GridSpacingY01
350
78E9219E
  3
Grid/GridSpacingY02
350
78E9219F
  3
Grid/GridSpacingY03
350
78E921A0
  3
Grid/IsometricGrid00
350
78E921A1
  3
Grid/IsometricGrid01
350
78E921A2
  3
Grid/IsometricGrid02
350
78E921A3
  3
Grid/IsometricGrid03
350
78E921A4
  3
Grid/IsometricProjection00
350
78E921A5
  3
Grid/IsometricProjection01
350
78E921A6
  3
Grid/IsometricProjection02
350
78E921A7
  3
Grid/IsometricProjection03
350
78E921A8
  3
Grid/MetaGridSpacingX00
350
78E921A9
  3
Grid/MetaGridSpacingX01
350
78E921AA
  3
Grid/MetaGridSpacingX02
350
78E921AB
  3
Grid/MetaGridSpacingX03
350
78E921AC
  3
Grid/MetaGridSpacingY00
350
78E921AD
  3
Grid/MetaGridSpacingY01
350
78E921AE
  3
Grid/MetaGridSpacingY02
350
78E921AF
  3
Grid/MetaGridSpacingY03
350
78E921B0
  3
MultiPageSettings/Columns
350
78E921B1
  3
MultiPageSettings/GlueMarginsBottom
350
78E921B2
  3
MultiPageSettings/GlueMarginsLeft
350
78E921B3
  3
MultiPageSettings/GlueMarginsRight
350
78E921B4
  3
MultiPageSettings/GlueMarginsTop
350
78E921B5
  3
MultiPageSettings/PrintCropMarks
350
78E921B6
  3
MultiPageSettings/Rows
350
78E921B7
  3
PageSettings/OffsetX
350
78E921B8
  3
PageSettings/OffsetY
350
78E921B9
  3
PageSettings/PageOrientation
350
78E921BA
  3
PageSettings/PaperHeight
350
78E921BB
  3
PageSettings/PaperWidth
350
78E921BC
  3
PageSettings/Scale
350
78E921BD
  3
PageSettings/ShowPaperBorders
350
78E921BE
  3
PageTagSettings/EnablePageTags
350
78E921BF
  3
PageTagSettings/TagAlignment
350
78E921C0
  3
PageTagSettings/TagFont
350
78E921C1
  3
PageTagSettings/TagPosition
350
78E921C2
  3
QCADVersion
350
78E921C3
  3
UnitSettings/PaperUnit
350
78E921C4
  3
ViewportCenter
350
78E921C5
  3
ViewportHeight
350
78E921C6
  3
ViewportWidth
350
78E921C7
  0
LAYOUT
  5
78E92150
102
{ACAD_REACTORS
330
78E9214C
102
}
330
78E9214C
100
AcDbPlotSettings
  1

  2
none_device
  4
Letter_(8.50_x_11.00_Inches)
  6

 40
6.35
 41
6.35
 42
6.35001
 43
6.35001
 44
215.9
 45
279.4
 46
0.0
 47
0.0
 48
0.0
 49
0.0
140
0.0
141
0.0
142
1.0
143
1.0
 70
   688
 72
     0
 73
     1
 74
     5
  7

 75
    16
 76
     0
 77
     2
 78
   300
147
1.0
148
0.0
149
0.0
100
AcDbLayout
  1
Layout1
 70
     0
 71
     1
 10
-0.25
 20
-0.25
 11
10.75
 21
8.25
 12
0.0
 22
0.0
 32
0.0
 14
1.000000000000000E+20
 24
1.000000000000000E+20
 34
1.000000000000000E+20
 15
-1.000000000000000E+20
 25
-1.000000000000000E+20
 35
-1.000000000000000E+20
146
0.0
 13
0.0
 23
0.0
 33
0.0
 16
1.0
 26
0.0
 36
0.0
 17
0.0
 27
1.0
 37
0.0
 76
     0
330
78E9214D
331
78E92211
  0
LAYOUT
  5
78E92154
102
{ACAD_REACTORS
330
78E9214C
102
}
330
78E9214C
100
AcDbPlotSettings
  1

  2
none_device
  4
Letter_(8.50_x_11.00_Inches)
  6

 40
6.35
 41
6.35
 42
6.35000508
 43
6.35000508
 44
215.9
 45
279.4
 46
0.0
 47
0.0
 48
0.0
 49
0.0
140
0.0
141
0.0
142
1.0
143
1.0
 70
  1712
 72
     0
 73
     0
 74
     0
  7

 75
     0
 76
     0
 77
     2
 78
   300
147
1.0
148
0.0
149
0.0
100
AcDbLayout
  1
Model
 70
     1
 71
     0
 10
0.0
 20
0.0
 11
0.0
 21
0.0
 12
0.0
 22
0.0
 32
0.0
 14
0.0
 24
28.7084042958
 34
0.0
 15
20.25
 25
43.7768983268
 35
0.0
146
0.0
 13
0.0
 23
0.0
 33
0.0
 16
1.0
 26
0.0
 36
0.0
 17
0.0
 27
1.0
 37
0.0
 76
     0
330
78E92151
331
78E9215B
  0
MATERIAL
  5
78E92177
102
{ACAD_REACTORS
330
78E92175
102
}
330
78E92175
100
AcDbMaterial
  1
ByBlock
 72
     1
 94
      127
  0
MATERIAL
  5
78E92176
102
{ACAD_REACTORS
330
78E92175
102
}
330
78E92175
100
AcDbMaterial
  1
ByLayer
 72
     1
 94
      127
  0
MATERIAL
  5
78E92178
102
{ACAD_REACTORS
330
78E92175
102
}
330
78E92175
100
AcDbMaterial
  1
Global
 72
     1
 94
      127
  0
MLEADERSTYLE
  5
78E9218E
102
{ACAD_REACTORS
330
78E9218D
102
}
330
78E9218D
100
AcDbMLeaderStyle
179
     2
170
     2
171
     1
172
     0
 90
        2
 40
0.0
 41
0.0
173
     1
 91
-1056964608
340
78E92146
 92
       -2
290
     1
 42
0.09
291
     1
 43
0.36
  3
Standard
341
0
 44
0.18
300

342
78E92144
174
     1
178
     6
175
     1
176
     0
 93
-1056964608
 45
0.18
292
     0
297
     0
 46
0.18
343
0
 94
-1056964608
 47
1.0
 49
1.0
140
1.0
293
     1
141
0.0
294
     1
177
     0
142
1.0
295
     0
296
     0
143
0.125
271
     0
272
     9
273
     9
298
     0
  0
MLINESTYLE
  5
78E9214A
102
{ACAD_REACTORS
330
78E92149
102
}
330
78E92149
100
AcDbMlineStyle
  2
Standard
 70
     0
  3

 62
   256
 51
90.0
 52
90.0
 71
     2
 49
0.5
 62
   256
  6
BYLAYER
 49
-0.5
 62
   256
  6
BYLAYER
  0
ACDBPLACEHOLDER
  5
78E92142
102
{ACAD_REACTORS
330
78E92141
102
}
330
78E92141
  0
SCALE
  5
78E9217A
102
{ACAD_REACTORS
330
78E92179
102
}
330
78E92179
100
AcDbScale
 70
     0
300
1:1
140
1.0
141
1.0
290
     1
  0
SCALE
  5
78E9217B
102
{ACAD_REACTORS
330
78E92179
102
}
330
78E92179
100
AcDbScale
 70
     0
300
1/128" = 1'-0"
140
0.0078125
141
12.0
290
     0
  0
SCALE
  5
78E9217C
102
{ACAD_REACTORS
330
78E92179
102
}
330
78E92179
100
AcDbScale
 70
     0
300
1/64" = 1'-0"
140
0.015625
141
12.0
290
     0
  0
SCALE
  5
78E9217D
102
{ACAD_REACTORS
330
78E92179
102
}
330
78E92179
100
AcDbScale
 70
     0
300
1/32" = 1'-0"
140
0.03125
141
12.0
290
     0
  0
SCALE
  5
78E9217E
102
{ACAD_REACTORS
330
78E92179
102
}
330
78E92179
100
AcDbScale
 70
     0
300
1/16" = 1'-0"
140
0.0625
141
12.0
290
     0
  0
SCALE
  5
78E9217F
102
{ACAD_REACTORS
330
78E92179
102
}
330
78E92179
100
AcDbScale
 70
     0
300
3/32" = 1'-0"
140
0.09375
141
12.0
290
     0
  0
SCALE
  5
78E92180
102
{ACAD_REACTORS
330
78E92179
102
}
330
78E92179
100
AcDbScale
 70
     0
300
1/8" = 1'-0"
140
0.125
141
12.0
290
     0
  0
SCALE
  5
78E92181
102
{ACAD_REACTORS
330
78E92179
102
}
330
78E92179
100
AcDbScale
 70
     0
300
3/16" = 1'-0"
140
0.1875
141
12.0
290
     0
  0
SCALE
  5
78E92182
102
{ACAD_REACTORS
330
78E92179
102
}
330
78E92179
100
AcDbScale
 70
     0
300
1/4" = 1'-0"
140
0.25
141
12.0
290
     0
  0
SCALE
  5
78E92183
102
{ACAD_REACTORS
330
78E92179
102
}
330
78E92179
100
AcDbScale
 70
     0
300
3/8" = 1'-0"
140
0.375
141
12.0
290
     0
  0
SCALE
  5
78E92184
102
{ACAD_REACTORS
330
78E92179
102
}
330
78E92179
100
AcDbScale
 70
     0
300
1/2" = 1'-0"
140
0.5
141
12.0
290
     0
  0
SCALE
  5
78E92185
102
{ACAD_REACTORS
330
78E92179
102
}
330
78E92179
100
AcDbScale
 70
     0
300
3/4" = 1'-0"
140
0.75
141
12.0
290
     0
  0
SCALE
  5
78E92186
102
{ACAD_REACTORS
330
78E92179
102
}
330
78E92179
100
AcDbScale
 70
     0
300
1" = 1'-0"
140
1.0
141
12.0
290
     0
  0
SCALE
  5
78E92187
102
{ACAD_REACTORS
330
78E92179
102
}
330
78E92179
100
AcDbScale
 70
     0
300
1-1/2" = 1'-0"
140
1.5
141
12.0
290
     0
  0
SCALE
  5
78E92188
102
{ACAD_REACTORS
330
78E92179
102
}
330
78E92179
100
AcDbScale
 70
     0
300
3" = 1'-0"
140
3.0
141
12.0
290
     0
  0
SCALE
  5
78E92189
102
{ACAD_REACTORS
330
78E92179
102
}
330
78E92179
100
AcDbScale
 70
     0
300
6" = 1'-0"
140
6.0
141
12.0
290
     0
  0
SCALE
  5
78E9218A
102
{ACAD_REACTORS
330
78E92179
102
}
330
78E92179
100
AcDbScale
 70
     0
300
1'-0" = 1'-0"
140
12.0
141
12.0
290
     0
  0
TABLESTYLE
  5
78E9218C
102
{ACAD_REACTORS
330
78E9218B
102
}
102
{ACAD_XDICTIONARY
360
78E92215
102
}
330
78E9218B
100
AcDbTableStyle
  3
Standard
 70
     0
 71
     0
 40
0.06
 41
0.06
280
     0
281
     0
  7
Standard
140
0.18
170
     2
 62
     0
 63
   257
283
     0
 90
        4
 91
        0
  1

274
    -2
284
     1
 64
     0
275
    -2
285
     1
 65
     0
276
    -2
286
     1
 66
     0
277
    -2
287
     1
 67
     0
278
    -2
288
     1
 68
     0
279
    -2
289
     1
 69
     0
  7
Standard
140
0.25
170
     5
 62
     0
 63
   257
283
     0
 90
        4
 91
        0
  1

274
    -2
284
     1
 64
     0
275
    -2
285
     1
 65
     0
276
    -2
286
     1
 66
     0
277
    -2
287
     1
 67
     0
278
    -2
288
     1
 68
     0
279
    -2
289
     1
 69
     0
  7
Standard
140
0.18
170
     5
 62
     0
 63
   257
283
     0
 90
        4
 91
        0
  1

274
    -2
284
     1
 64
     0
275
    -2
285
     1
 65
     0
276
    -2
286
     1
 66
     0
277
    -2
287
     1
 67
     0
278
    -2
288
     1
 68
     0
279
    -2
289
     1
 69
     0
  0
VISUALSTYLE
  5
78E92161
102
{ACAD_REACTORS
330
78E9215C
102
}
330
78E9215C
100
AcDbVisualStyle
  2
2dWireframe
 70
     4
177
     3
291
     0
 70
    58
 90
        0
176
     1
 90
        2
176
     1
 90
        0
176
     1
 90
        0
176
     1
 40
0.6
176
     1
 40
30.0
176
     1
 62
     7
420
 16777215
176
     1
 90
        1
176
     1
 90
        4
176
     1
 62
     7
176
     1
 62
   257
176
     1
 90
        1
176
     1
 90
        1
176
     1
 40
1.0
176
     1
 90
        0
176
     1
 62
   257
176
     1
 40
1.0
176
     1
 90
        1
176
     1
 90
        6
176
     1
 90
        2
176
     1
 62
     7
176
     1
 90
        5
176
     1
 90
        0
176
     1
 90
        0
176
     1
290
     0
176
     1
 90
        1
176
     1
 40
0.0
176
     1
 90
        0
176
     1
290
     1
176
     1
290
     1
176
     1
290
     0
176
     1
290
     0
176
     1
290
     0
176
     1
290
     0
176
     1
290
     0
176
     1
290
     0
176
     1
290
     0
176
     1
 90
       50
176
     1
 40
0.0
176
     1
 40
1.0
176
     1
 90
        0
176
     1
 62
    18
420
        0
176
     1
 90
       50
176
     1
 90
        3
176
     1
 62
     5
420
      255
176
     1
290
     0
176
     1
 90
       50
176
     1
 90
       50
176
     1
 90
       50
176
     1
290
     0
176
     1
 90
       50
176
     1
 62
   256
176
     0
 40
1.0
176
     0
 90
        2
176
     1
  1
strokes_ogs.tif
176
     1
290
     0
176
     1
 40
1.0
176
     1
 40
1.0
176
     1
  0
VISUALSTYLE
  5
78E92164
102
{ACAD_REACTORS
330
78E9215C
102
}
330
78E9215C
100
AcDbVisualStyle
  2
Basic
 70
     7
177
     3
291
     1
 70
    58
 90
        1
176
     1
 90
        0
176
     1
 90
        1
176
     1
 90
        0
176
     1
 40
0.6
176
     1
 40
30.0
176
     1
 62
     7
420
 16777215
176
     1
 90
        0
176
     1
 90
        4
176
     1
 62
     7
176
     1
 62
   257
176
     1
 90
        1
176
     1
 90
        1
176
     1
 40
1.0
176
     1
 90
        8
176
     1
 62
     7
176
     1
 40
1.0
176
     1
 90
        1
176
     1
 90
        6
176
     1
 90
        2
176
     1
 62
     7
176
     1
 90
        5
176
     1
 90
        0
176
     1
 90
        0
176
     1
290
     0
176
     1
 90
        1
176
     1
 40
0.0
176
     1
 90
        0
176
     1
290
     0
176
     1
290
     1
176
     1
290
     1
176
     1
290
     0
176
     1
290
     0
176
     1
290
     0
176
     1
290
     0
176
     1
290
     0
176
     1
290
     0
176
     1
 90
       50
176
     1
 40
0.0
176
     1
 40
1.0
176
     1
 90
        0
176
     1
 62
    18
420
        0
176
     1
 90
       50
176
     1
 90
        3
176
     1
 62
     5
420
      255
176
     1
290
     0
176
     1
 90
       50
176
     1
 90
       50
176
     1
 90
       50
176
     1
290
     0
176
     1
 90
       50
176
     1
 62
   256
176
     0
 40
1.0
176
     0
 90
        2
176
     1
  1
strokes_ogs.tif
176
     1
290
     0
176
     1
 40
1.0
176
     1
 40
1.0
176
     1
  0
VISUALSTYLE
  5
78E92168
102
{ACAD_REACTORS
330
78E9215C
102
}
330
78E9215C
100
AcDbVisualStyle
  2
Brighten
 70
    12
177
     3
291
     1
 70
    58
 90
        2
176
     1
 90
        2
176
     1
 90
        0
176
     1
 90
        0
176
     1
 40
0.6
176
     1
 40
30.0
176
     1
 62
     7
420
 16777215
176
     1
 90
        1
176
     1
 90
        4
176
     1
 62
     7
176
     1
 62
   257
176
     1
 90
        1
176
     1
 90
        1
176
     1
 40
1.0
176
     1
 90
        8
176
     1
 62
     7
176
     1
 40
1.0
176
     1
 90
        1
176
     1
 90
        6
176
     1
 90
        2
176
     1
 62
     7
176
     1
 90
        5
176
     1
 90
        0
176
     1
 90
        0
176
     1
290
     0
176
     1
 90
        1
176
     1
 40
50.0
176
     1
 90
        0
176
     1
290
     0
176
     1
290
     1
176
     1
290
     1
176
     1
290
     0
176
     1
290
     0
176
     1
290
     0
176
     1
290
     0
176
     1
290
     0
176
     1
290
     0
176
     1
 90
       50
176
     1
 40
0.0
176
     1
 40
1.0
176
     1
 90
        0
176
     1
 62
    18
420
        0
176
     1
 90
       50
176
     1
 90
        3
176
     1
 62
     5
420
      255
176
     1
290
     0
176
     1
 90
       50
176
     1
 90
       50
176
     1
 90
       50
176
     1
290
     0
176
     1
 90
       50
176
     1
 62
   256
176
     0
 40
1.0
176
     0
 90
        2
176
     1
  1
strokes_ogs.tif
176
     1
290
     0
176
     1
 40
1.0
176
     1
 40
1.0
176
     1
  0
VISUALSTYLE
  5
78E9216C
102
{ACAD_REACTORS
330
78E9215C
102
}
330
78E9215C
100
AcDbVisualStyle
  2
ColorChange
 70
    16
177
     3
291
     1
 70
    58
 90
        2
176
     1
 90
        2
176
     1
 90
        3
176
     1
 90
        0
176
     1
 40
0.6
176
     1
 40
30.0
176
     1
 62
     8
420
  8421504
176
     1
 90
        1
176
     1
 90
        4
176
     1
 62
     7
176
     1
 62
   257
176
     1
 90
        1
176
     1
 90
        1
176
     1
 40
1.0
176
     1
 90
        8
176
     1
 62
     8
420
  8421504
176
     1
 40
1.0
176
     1
 90
        1
176
     1
 90
        6
176
     1
 90
        2
176
     1
 62
     7
176
     1
 90
        5
176
     1
 90
        0
176
     1
 90
        0
176
     1
290
     0
176
     1
 90
        1
176
     1
 40
0.0
176
     1
 90
        0
176
     1
290
     0
176
     1
290
     1
176
     1
290
     1
176
     1
290
     0
176
     1
290
     0
176
     1
290
     0
176
     1
290
     0
176
     1
290
     0
176
     1
290
     0
176
     1
 90
       50
176
     1
 40
0.0
176
     1
 40
1.0
176
     1
 90
        0
176
     1
 62
    18
420
        0
176
     1
 90
       50
176
     1
 90
        3
176
     1
 62
     5
420
      255
176
     1
290
     0
176
     1
 90
       50
176
     1
 90
       50
176
     1
 90
       50
176
     1
290
     0
176
     1
 90
       50
176
     1
 62
   256
176
     0
 40
1.0
176
     0
 90
        2
176
     1
  1
strokes_ogs.tif
176
     1
290
     0
176
     1
 40
1.0
176
     1
 40
1.0
176
     1
  0
VISUALSTYLE
  5
78E92166
102
{ACAD_REACTORS
330
78E9215C
102
}
330
78E9215C
100
AcDbVisualStyle
  2
Conceptual
 70
     9
177
     3
291
     0
 70
    58
 90
        3
176
     1
 90
        2
176
     1
 90
        0
176
     1
 90
        0
176
     1
 40
0.6
176
     1
 40
30.0
176
     1
 62
     7
420
 16777215
176
     1
 90
        2
176
     1
 90
        2
176
     1
 62
     7
176
     1
 62
   257
176
     1
 90
        1
176
     1
 90
        1
176
     1
 40
179.0
176
     1
 90
        8
176
     1
 62
     7
176
     1
 40
1.0
176
     1
 90
        1
176
     1
 90
        6
176
     1
 90
        2
176
     1
 62
     7
176
     1
 90
        3
176
     1
 90
        0
176
     1
 90
        0
176
     1
290
     0
176
     1
 90
        1
176
     1
 40
0.0
176
     1
 90
        0
176
     1
290
     0
176
     1
290
     1
176
     1
290
     1
176
     1
290
     0
176
     1
290
     0
176
     1
290
     0
176
     1
290
     0
176
     1
290
     0
176
     1
290
     0
176
     1
 90
       50
176
     1
 40
0.0
176
     1
 40
1.0
176
     1
 90
        0
176
     1
 62
    18
420
        0
176
     1
 90
       50
176
     1
 90
        3
176
     1
 62
     5
420
      255
176
     1
290
     0
176
     1
 90
       50
176
     1
 90
       50
176
     1
 90
       50
176
     1
290
     0
176
     1
 90
       50
176
     1
 62
   256
176
     0
 40
1.0
176
     0
 90
        2
176
     1
  1
strokes_ogs.tif
176
     1
290
     0
176
     1
 40
1.0
176
     1
 40
1.0
176
     1
  0
VISUALSTYLE
  5
78E92167
102
{ACAD_REACTORS
330
78E9215C
102
}
330
78E9215C
100
AcDbVisualStyle
  2
Dim
 70
    11
177
     3
291
     1
 70
    58
 90
        2
176
     1
 90
        2
176
     1
 90
        0
176
     1
 90
        0
176
     1
 40
0.6
176
     1
 40
30.0
176
     1
 62
     7
420
 16777215
176
     1
 90
        1
176
     1
 90
        4
176
     1
 62
     7
176
     1
 62
   257
176
     1
 90
        1
176
     1
 90
        1
176
     1
 40
1.0
176
     1
 90
        8
176
     1
 62
     7
176
     1
 40
1.0
176
     1
 90
        1
176
     1
 90
        6
176
     1
 90
        2
176
     1
 62
     7
176
     1
 90
        5
176
     1
 90
        0
176
     1
 90
        0
176
     1
290
     0
176
     1
 90
        1
176
     1
 40
-50.0
176
     1
 90
        0
176
     1
290
     0
176
     1
290
     1
176
     1
290
     1
176
     1
290
     0
176
     1
290
     0
176
     1
290
     0
176
     1
290
     0
176
     1
290
     0
176
     1
290
     0
176
     1
 90
       50
176
     1
 40
0.0
176
     1
 40
1.0
176
     1
 90
        0
176
     1
 62
    18
420
        0
176
     1
 90
       50
176
     1
 90
        3
176
     1
 62
     5
420
      255
176
     1
290
     0
176
     1
 90
       50
176
     1
 90
       50
176
     1
 90
       50
176
     1
290
     0
176
     1
 90
       50
176
     1
 62
   256
176
     0
 40
1.0
176
     0
 90
        2
176
     1
  1
strokes_ogs.tif
176
     1
290
     0
176
     1
 40
1.0
176
     1
 40
1.0
176
     1
  0
VISUALSTYLE
  5
78E9216F
102
{ACAD_REACTORS
330
78E9215C
102
}
330
78E9215C
100
AcDbVisualStyle
  2
EdgeColorOff
 70
    22
177
     3
291
     1
 70
    58
 90
        2
176
     0
 90
        2
176
     0
 90
        0
176
     0
 90
        0
176
     0
 40
0.6
176
     0
 40
30.0
176
     0
 62
     7
420
 16777215
176
     0
 90
        1
176
     0
 90
        4
176
     0
 62
     7
176
     0
 62
   257
176
     0
 90
        1
176
     0
 90
        1
176
     0
 40
1.0
176
     0
 90
        8
176
     2
 62
     7
176
     0
 40
1.0
176
     0
 90
        1
176
     0
 90
        6
176
     0
 90
        2
176
     0
 62
     7
176
     0
 90
        5
176
     0
 90
        0
176
     0
 90
        0
176
     0
290
     0
176
     0
 90
        1
176
     0
 40
0.0
176
     0
 90
        0
176
     0
290
     0
176
     0
290
     1
176
     0
290
     1
176
     0
290
     0
176
     0
290
     0
176
     0
290
     0
176
     0
290
     0
176
     0
290
     0
176
     0
290
     0
176
     0
 90
       50
176
     0
 40
0.0
176
     0
 40
1.0
176
     0
 90
        0
176
     0
 62
    18
420
        0
176
     0
 90
       50
176
     0
 90
        3
176
     0
 62
     5
420
      255
176
     0
290
     0
176
     0
 90
       50
176
     0
 90
       50
176
     0
 90
       50
176
     0
290
     0
176
     0
 90
       50
176
     0
 62
   256
176
     0
 40
1.0
176
     0
 90
        2
176
     0
  1
strokes_ogs.tif
176
     0
290
     0
176
     0
 40
1.0
176
     0
 40
1.0
176
     0
  0
VISUALSTYLE
  5
78E9216B
102
{ACAD_REACTORS
330
78E9215C
102
}
330
78E9215C
100
AcDbVisualStyle
  2
Facepattern
 70
    15
177
     3
291
     1
 70
    58
 90
        2
176
     1
 90
        2
176
     1
 90
        0
176
     1
 90
        0
176
     1
 40
0.6
176
     1
 40
30.0
176
     1
 62
     7
420
 16777215
176
     1
 90
        1
176
     1
 90
        4
176
     1
 62
     7
176
     1
 62
   257
176
     1
 90
        1
176
     1
 90
        1
176
     1
 40
1.0
176
     1
 90
        8
176
     1
 62
     7
176
     1
 40
1.0
176
     1
 90
        1
176
     1
 90
        6
176
     1
 90
        2
176
     1
 62
     7
176
     1
 90
        5
176
     1
 90
        0
176
     1
 90
        0
176
     1
290
     0
176
     1
 90
        1
176
     1
 40
0.0
176
     1
 90
        0
176
     1
290
     0
176
     1
290
     1
176
     1
290
     1
176
     1
290
     0
176
     1
290
     0
176
     1
290
     0
176
     1
290
     0
176
     1
290
     0
176
     1
290
     0
176
     1
 90
       50
176
     1
 40
0.0
176
     1
 40
1.0
176
     1
 90
        0
176
     1
 62
    18
420
        0
176
     1
 90
       50
176
     1
 90
        3
176
     1
 62
     5
420
      255
176
     1
290
     0
176
     1
 90
       50
176
     1
 90
       50
176
     1
 90
       50
176
     1
290
     0
176
     1
 90
       50
176
     1
 62
   256
176
     0
 40
1.0
176
     0
 90
        2
176
     1
  1
strokes_ogs.tif
176
     1
290
     0
176
     1
 40
1.0
176
     1
 40
1.0
176
     1
  0
VISUALSTYLE
  5
78E9215D
102
{ACAD_REACTORS
330
78E9215C
102
}
330
78E9215C
100
AcDbVisualStyle
  2
Flat
 70
     0
177
     3
291
     1
 70
    58
 90
        2
176
     1
 90
        1
176
     1
 90
        1
176
     1
 90
        2
176
     1
 40
0.6
176
     1
 40
30.0
176
     1
 62
     7
420
 16777215
176
     1
 90
        0
176
     1
 90
        0
176
     1
 62
     7
176
     1
 62
   257
176
     1
 90
        1
176
     1
 90
        1
176
     1
 40
1.0
176
     1
 90
        8
176
     1
 62
     7
176
     1
 40
1.0
176
     1
 90
        1
176
     1
 90
        6
176
     1
 90
        2
176
     1
 62
     7
176
     1
 90
        5
176
     1
 90
        0
176
     1
 90
        0
176
     1
290
     0
176
     1
 90
       13
176
     1
 40
0.0
176
     1
 90
        0
176
     1
290
     0
176
     1
290
     1
176
     1
290
     1
176
     1
290
     0
176
     1
290
     0
176
     1
290
     0
176
     1
290
     0
176
     1
290
     0
176
     1
290
     0
176
     1
 90
       50
176
     1
 40
0.0
176
     1
 40
1.0
176
     1
 90
        0
176
     1
 62
    18
420
        0
176
     1
 90
       50
176
     1
 90
        3
176
     1
 62
     5
420
      255
176
     1
290
     0
176
     1
 90
       50
176
     1
 90
       50
176
     1
 90
       50
176
     1
290
     0
176
     1
 90
       50
176
     1
 62
   256
176
     0
 40
1.0
176
     0
 90
        2
176
     1
  1
strokes_ogs.tif
176
     1
290
     0
176
     1
 40
1.0
176
     1
 40
1.0
176
     1
  0
VISUALSTYLE
  5
78E9215E
102
{ACAD_REACTORS
330
78E9215C
102
}
330
78E9215C
100
AcDbVisualStyle
  2
FlatWithEdges
 70
     1
177
     3
291
     1
 70
    58
 90
        2
176
     1
 90
        1
176
     1
 90
        1
176
     1
 90
        2
176
     1
 40
0.6
176
     1
 40
30.0
176
     1
 62
     7
420
 16777215
176
     1
 90
        1
176
     1
 90
        0
176
     1
 62
     7
176
     1
 62
   257
176
     1
 90
        1
176
     1
 90
        1
176
     1
 40
1.0
176
     1
 90
        0
176
     1
 62
   257
176
     1
 40
1.0
176
     1
 90
        1
176
     1
 90
        6
176
     1
 90
        2
176
     1
 62
     7
176
     1
 90
        5
176
     1
 90
        0
176
     1
 90
        0
176
     1
290
     0
176
     1
 90
       13
176
     1
 40
0.0
176
     1
 90
        0
176
     1
290
     0
176
     1
290
     1
176
     1
290
     1
176
     1
290
     0
176
     1
290
     0
176
     1
290
     0
176
     1
290
     0
176
     1
290
     0
176
     1
290
     0
176
     1
 90
       50
176
     1
 40
0.0
176
     1
 40
1.0
176
     1
 90
        0
176
     1
 62
    18
420
        0
176
     1
 90
       50
176
     1
 90
        3
176
     1
 62
     5
420
      255
176
     1
290
     0
176
     1
 90
       50
176
     1
 90
       50
176
     1
 90
       50
176
     1
290
     0
176
     1
 90
       50
176
     1
 62
   256
176
     0
 40
1.0
176
     0
 90
        2
176
     1
  1
strokes_ogs.tif
176
     1
290
     0
176
     1
 40
1.0
176
     1
 40
1.0
176
     1
  0
VISUALSTYLE
  5
78E9215F
102
{ACAD_REACTORS
330
78E9215C
102
}
330
78E9215C
100
AcDbVisualStyle
  2
Gouraud
 70
     2
177
     3
291
     1
 70
    58
 90
        2
176
     1
 90
        2
176
     1
 90
        1
176
     1
 90
        2
176
     1
 40
0.6
176
     1
 40
30.0
176
     1
 62
     7
420
 16777215
176
     1
 90
        0
176
     1
 90
        0
176
     1
 62
     7
176
     1
 62
   257
176
     1
 90
        1
176
     1
 90
        1
176
     1
 40
1.0
176
     1
 90
        0
176
     1
 62
     7
176
     1
 40
1.0
176
     1
 90
        1
176
     1
 90
        6
176
     1
 90
        2
176
     1
 62
     7
176
     1
 90
        5
176
     1
 90
        0
176
     1
 90
        0
176
     1
290
     0
176
     1
 90
       13
176
     1
 40
0.0
176
     1
 90
        0
176
     1
290
     0
176
     1
290
     1
176
     1
290
     1
176
     1
290
     0
176
     1
290
     0
176
     1
290
     0
176
     1
290
     0
176
     1
290
     0
176
     1
290
     0
176
     1
 90
       50
176
     1
 40
0.0
176
     1
 40
1.0
176
     1
 90
        0
176
     1
 62
    18
420
        0
176
     1
 90
       50
176
     1
 90
        3
176
     1
 62
     5
420
      255
176
     1
290
     0
176
     1
 90
       50
176
     1
 90
       50
176
     1
 90
       50
176
     1
290
     0
176
     1
 90
       50
176
     1
 62
   256
176
     0
 40
1.0
176
     0
 90
        2
176
     1
  1
strokes_ogs.tif
176
     1
290
     0
176
     1
 40
1.0
176
     1
 40
1.0
176
     1
  0
VISUALSTYLE
  5
78E92160
102
{ACAD_REACTORS
330
78E9215C
102
}
330
78E9215C
100
AcDbVisualStyle
  2
GouraudWithEdges
 70
     3
177
     3
291
     1
 70
    58
 90
        2
176
     1
 90
        2
176
     1
 90
        1
176
     1
 90
        2
176
     1
 40
0.6
176
     1
 40
30.0
176
     1
 62
     7
420
 16777215
176
     1
 90
        1
176
     1
 90
        0
176
     1
 62
     7
176
     1
 62
   257
176
     1
 90
        1
176
     1
 90
        1
176
     1
 40
1.0
176
     1
 90
        0
176
     1
 62
   257
176
     1
 40
1.0
176
     1
 90
        1
176
     1
 90
        6
176
     1
 90
        2
176
     1
 62
     7
176
     1
 90
        5
176
     1
 90
        0
176
     1
 90
        0
176
     1
290
     0
176
     1
 90
       13
176
     1
 40
0.0
176
     1
 90
        0
176
     1
290
     0
176
     1
290
     1
176
     1
290
     1
176
     1
290
     0
176
     1
290
     0
176
     1
290
     0
176
     1
290
     0
176
     1
290
     0
176
     1
290
     0
176
     1
 90
       50
176
     1
 40
0.0
176
     1
 40
1.0
176
     1
 90
        0
176
     1
 62
    18
420
        0
176
     1
 90
       50
176
     1
 90
        3
176
     1
 62
     5
420
      255
176
     1
290
     0
176
     1
 90
       50
176
     1
 90
       50
176
     1
 90
       50
176
     1
290
     0
176
     1
 90
       50
176
     1
 62
   256
176
     0
 40
1.0
176
     0
 90
        2
176
     1
  1
strokes_ogs.tif
176
     1
290
     0
176
     1
 40
1.0
176
     1
 40
1.0
176
     1
  0
VISUALSTYLE
  5
78E92163
102
{ACAD_REACTORS
330
78E9215C
102
}
330
78E9215C
100
AcDbVisualStyle
  2
Hidden
 70
     6
177
     3
291
     0
 70
    58
 90
        1
176
     1
 90
        2
176
     1
 90
        2
176
     1
 90
        0
176
     1
 40
0.6
176
     1
 40
30.0
176
     1
 62
     7
420
 16777215
176
     1
 90
        2
176
     1
 90
        2
176
     1
 62
     7
176
     1
 62
   257
176
     1
 90
        2
176
     1
 90
        1
176
     1
 40
40.0
176
     1
 90
        0
176
     1
 62
   257
176
     1
 40
1.0
176
     1
 90
        1
176
     1
 90
        6
176
     1
 90
        2
176
     1
 62
     7
176
     1
 90
        3
176
     1
 90
        0
176
     1
 90
        0
176
     1
290
     0
176
     1
 90
        1
176
     1
 40
0.0
176
     1
 90
        0
176
     1
290
     0
176
     1
290
     1
176
     1
290
     1
176
     1
290
     0
176
     1
290
     0
176
     1
290
     0
176
     1
290
     0
176
     1
290
     0
176
     1
290
     0
176
     1
 90
       50
176
     1
 40
0.0
176
     1
 40
1.0
176
     1
 90
        0
176
     1
 62
    18
420
        0
176
     1
 90
       50
176
     1
 90
        3
176
     1
 62
     5
420
      255
176
     1
290
     0
176
     1
 90
       50
176
     1
 90
       50
176
     1
 90
       50
176
     1
290
     0
176
     1
 90
       50
176
     1
 62
   256
176
     0
 40
1.0
176
     0
 90
        2
176
     1
  1
strokes_ogs.tif
176
     1
290
     0
176
     1
 40
1.0
176
     1
 40
1.0
176
     1
  0
VISUALSTYLE
  5
78E9216D
102
{ACAD_REACTORS
330
78E9215C
102
}
330
78E9215C
100
AcDbVisualStyle
  2
JitterOff
 70
    20
177
     3
291
     1
 70
    58
 90
        2
176
     0
 90
        2
176
     0
 90
        0
176
     0
 90
        0
176
     0
 40
0.6
176
     0
 40
30.0
176
     0
 62
     7
420
 16777215
176
     0
 90
        1
176
     0
 90
        4
176
     0
 62
     7
176
     0
 62
   257
176
     0
 90
        1
176
     0
 90
        1
176
     0
 40
1.0
176
     0
 90
       10
176
     2
 62
     7
176
     0
 40
1.0
176
     0
 90
        1
176
     0
 90
        6
176
     0
 90
        2
176
     0
 62
     7
176
     0
 90
        5
176
     0
 90
        0
176
     0
 90
        0
176
     0
290
     0
176
     0
 90
        1
176
     0
 40
0.0
176
     0
 90
        0
176
     0
290
     0
176
     0
290
     1
176
     0
290
     1
176
     0
290
     0
176
     0
290
     0
176
     0
290
     0
176
     0
290
     0
176
     0
290
     0
176
     0
290
     0
176
     0
 90
       50
176
     0
 40
0.0
176
     0
 40
1.0
176
     0
 90
        0
176
     0
 62
    18
420
        0
176
     0
 90
       50
176
     0
 90
        3
176
     0
 62
     5
420
      255
176
     0
290
     0
176
     0
 90
       50
176
     0
 90
       50
176
     0
 90
       50
176
     0
290
     0
176
     0
 90
       50
176
     0
 62
   256
176
     0
 40
1.0
176
     0
 90
        2
176
     0
  1
strokes_ogs.tif
176
     0
290
     0
176
     0
 40
1.0
176
     0
 40
1.0
176
     0
  0
VISUALSTYLE
  5
78E9216A
102
{ACAD_REACTORS
330
78E9215C
102
}
330
78E9215C
100
AcDbVisualStyle
  2
Linepattern
 70
    14
177
     3
291
     1
 70
    58
 90
        2
176
     1
 90
        2
176
     1
 90
        0
176
     1
 90
        0
176
     1
 40
0.6
176
     1
 40
30.0
176
     1
 62
     7
420
 16777215
176
     1
 90
        1
176
     1
 90
        4
176
     1
 62
     7
176
     1
 62
   257
176
     1
 90
        7
176
     1
 90
        7
176
     1
 40
1.0
176
     1
 90
        8
176
     1
 62
     7
176
     1
 40
1.0
176
     1
 90
        1
176
     1
 90
        6
176
     1
 90
        2
176
     1
 62
     7
176
     1
 90
        5
176
     1
 90
        0
176
     1
 90
        0
176
     1
290
     0
176
     1
 90
        1
176
     1
 40
0.0
176
     1
 90
        0
176
     1
290
     0
176
     1
290
     1
176
     1
290
     1
176
     1
290
     0
176
     1
290
     0
176
     1
290
     0
176
     1
290
     0
176
     1
290
     0
176
     1
290
     0
176
     1
 90
       50
176
     1
 40
0.0
176
     1
 40
1.0
176
     1
 90
        0
176
     1
 62
    18
420
        0
176
     1
 90
       50
176
     1
 90
        3
176
     1
 62
     5
420
      255
176
     1
290
     0
176
     1
 90
       50
176
     1
 90
       50
176
     1
 90
       50
176
     1
290
     0
176
     1
 90
       50
176
     1
 62
   256
176
     0
 40
1.0
176
     0
 90
        2
176
     1
  1
strokes_ogs.tif
176
     1
290
     0
176
     1
 40
1.0
176
     1
 40
1.0
176
     1
  0
VISUALSTYLE
  5
78E9216E
102
{ACAD_REACTORS
330
78E9215C
102
}
330
78E9215C
100
AcDbVisualStyle
  2
OverhangOff
 70
    21
177
     3
291
     1
 70
    58
 90
        2
176
     0
 90
        2
176
     0
 90
        0
176
     0
 90
        0
176
     0
 40
0.6
176
     0
 40
30.0
176
     0
 62
     7
420
 16777215
176
     0
 90
        1
176
     0
 90
        4
176
     0
 62
     7
176
     0
 62
   257
176
     0
 90
        1
176
     0
 90
        1
176
     0
 40
1.0
176
     0
 90
        9
176
     2
 62
     7
176
     0
 40
1.0
176
     0
 90
        1
176
     0
 90
        6
176
     0
 90
        2
176
     0
 62
     7
176
     0
 90
        5
176
     0
 90
        0
176
     0
 90
        0
176
     0
290
     0
176
     0
 90
        1
176
     0
 40
0.0
176
     0
 90
        0
176
     0
290
     0
176
     0
290
     1
176
     0
290
     1
176
     0
290
     0
176
     0
290
     0
176
     0
290
     0
176
     0
290
     0
176
     0
290
     0
176
     0
290
     0
176
     0
 90
       50
176
     0
 40
0.0
176
     0
 40
1.0
176
     0
 90
        0
176
     0
 62
    18
420
        0
176
     0
 90
       50
176
     0
 90
        3
176
     0
 62
     5
420
      255
176
     0
290
     0
176
     0
 90
       50
176
     0
 90
       50
176
     0
 90
       50
176
     0
290
     0
176
     0
 90
       50
176
     0
 62
   256
176
     0
 40
1.0
176
     0
 90
        2
176
     0
  1
strokes_ogs.tif
176
     0
290
     0
176
     0
 40
1.0
176
     0
 40
1.0
176
     0
  0
VISUALSTYLE
  5
78E92165
102
{ACAD_REACTORS
330
78E9215C
102
}
330
78E9215C
100
AcDbVisualStyle
  2
Realistic
 70
     8
177
     3
291
     0
 70
    58
 90
        2
176
     1
 90
        3
176
     1
 90
        0
176
     1
 90
        2
176
     1
 40
0.6
176
     1
 40
30.0
176
     1
 62
     7
420
 16777215
176
     1
 90
        0
176
     1
 90
        0
176
     1
 62
     7
176
     1
 62
   257
176
     1
 90
        1
176
     1
 90
        1
176
     1
 40
1.0
176
     1
 90
        8
176
     1
 62
   257
176
     1
 40
1.0
176
     1
 90
        1
176
     1
 90
        6
176
     1
 90
        2
176
     1
 62
     7
176
     1
 90
        3
176
     1
 90
        0
176
     1
 90
        0
176
     1
290
     0
176
     1
 90
       13
176
     1
 40
0.0
176
     1
 90
        0
176
     1
290
     0
176
     1
290
     1
176
     1
290
     1
176
     1
290
     0
176
     1
290
     0
176
     1
290
     0
176
     1
290
     0
176
     1
290
     0
176
     1
290
     0
176
     1
 90
       50
176
     1
 40
0.0
176
     1
 40
1.0
176
     1
 90
        0
176
     1
 62
    18
420
        0
176
     1
 90
       50
176
     1
 90
        3
176
     1
 62
     5
420
      255
176
     1
290
     0
176
     1
 90
       50
176
     1
 90
       50
176
     1
 90
       50
176
     1
290
     0
176
     1
 90
       50
176
     1
 62
   256
176
     0
 40
1.0
176
     0
 90
        2
176
     1
  1
strokes_ogs.tif
176
     1
290
     0
176
     1
 40
1.0
176
     1
 40
1.0
176
     1
  0
VISUALSTYLE
  5
78E92174
102
{ACAD_REACTORS
330
78E9215C
102
}
330
78E9215C
100
AcDbVisualStyle
  2
Shaded
 70
    27
177
     3
291
     0
 70
    58
 90
        2
176
     1
 90
        2
176
     1
 90
        1
176
     1
 90
        2
176
     1
 40
0.6
176
     1
 40
30.0
176
     1
 62
     7
420
 16777215
176
     1
 90
        0
176
     1
 90
        4
176
     1
 62
     7
176
     1
 62
   257
176
     1
 90
        1
176
     1
 90
        1
176
     1
 40
1.0
176
     1
 90
        8
176
     1
 62
   257
176
     1
 40
1.0
176
     1
 90
        1
176
     1
 90
        6
176
     1
 90
        2
176
     1
 62
     8
420
  7895160
176
     1
 90
        3
176
     1
 90
        0
176
     1
 90
        0
176
     1
290
     0
176
     1
 90
        5
176
     1
 40
0.0
176
     1
 90
        0
176
     1
290
     0
176
     1
290
     1
176
     1
290
     1
176
     1
290
     0
176
     1
290
     0
176
     1
290
     0
176
     1
290
     0
176
     1
290
     0
176
     1
290
     0
176
     1
 90
       50
176
     1
 40
0.0
176
     1
 40
1.0
176
     1
 90
        0
176
     1
 62
    18
420
        0
176
     1
 90
       50
176
     1
 90
        3
176
     1
 62
     5
420
      255
176
     1
290
     0
176
     1
 90
       50
176
     1
 90
       50
176
     1
 90
       50
176
     1
290
     0
176
     1
 90
       50
176
     1
 62
   256
176
     0
 40
1.0
176
     0
 90
        2
176
     1
  1
strokes_ogs.tif
176
     1
290
     0
176
     1
 40
1.0
176
     1
 40
1.0
176
     1
  0
VISUALSTYLE
  5
78E92173
102
{ACAD_REACTORS
330
78E9215C
102
}
330
78E9215C
100
AcDbVisualStyle
  2
Shaded with edges
 70
    26
177
     3
291
     0
 70
    58
 90
        2
176
     1
 90
        2
176
     1
 90
        1
176
     1
 90
        2
176
     1
 40
0.6
176
     1
 40
30.0
176
     1
 62
     7
420
 16777215
176
     1
 90
        1
176
     1
 90
       10
176
     1
 62
     7
176
     1
 62
   257
176
     1
 90
        2
176
     1
 90
        1
176
     1
 40
1.0
176
     1
 90
        8
176
     1
 62
   257
176
     1
 40
1.0
176
     1
 90
        1
176
     1
 90
        6
176
     1
 90
        2
176
     1
 62
     7
176
     1
 90
        3
176
     1
 90
        0
176
     1
 90
        0
176
     1
290
     0
176
     1
 90
        5
176
     1
 40
0.0
176
     1
 90
        0
176
     1
290
     0
176
     1
290
     1
176
     1
290
     1
176
     1
290
     0
176
     1
290
     0
176
     1
290
     0
176
     1
290
     0
176
     1
290
     0
176
     1
290
     0
176
     1
 90
       50
176
     1
 40
0.0
176
     1
 40
1.0
176
     1
 90
        0
176
     1
 62
    18
420
        0
176
     1
 90
       50
176
     1
 90
        3
176
     1
 62
     5
420
      255
176
     1
290
     0
176
     1
 90
       50
176
     1
 90
       50
176
     1
 90
       50
176
     1
290
     0
176
     1
 90
       50
176
     1
 62
   256
176
     0
 40
1.0
176
     0
 90
        2
176
     1
  1
strokes_ogs.tif
176
     1
290
     0
176
     1
 40
1.0
176
     1
 40
1.0
176
     1
  0
VISUALSTYLE
  5
78E92170
102
{ACAD_REACTORS
330
78E9215C
102
}
330
78E9215C
100
AcDbVisualStyle
  2
Shades of Gray
 70
    23
177
     3
291
     0
 70
    58
 90
        2
176
     1
 90
        2
176
     1
 90
        3
176
     1
 90
        0
176
     1
 40
0.6
176
     1
 40
30.0
176
     1
 62
     7
420
 16777215
176
     1
 90
        2
176
     1
 90
        2
176
     1
 62
     7
176
     1
 62
     7
176
     1
 90
        1
176
     1
 90
        1
176
     1
 40
40.0
176
     1
 90
        8
176
     1
 62
     7
176
     1
 40
1.0
176
     1
 90
        1
176
     1
 90
        6
176
     1
 90
        2
176
     1
 62
     7
176
     1
 90
        3
176
     1
 90
        0
176
     1
 90
        0
176
     1
290
     0
176
     1
 90
        1
176
     1
 40
0.0
176
     1
 90
        0
176
     1
290
     0
176
     1
290
     1
176
     1
290
     1
176
     1
290
     0
176
     1
290
     0
176
     1
290
     0
176
     1
290
     0
176
     1
290
     0
176
     1
290
     0
176
     1
 90
       50
176
     1
 40
0.0
176
     1
 40
1.0
176
     1
 90
        0
176
     1
 62
    18
420
        0
176
     1
 90
       50
176
     1
 90
        3
176
     1
 62
     5
420
      255
176
     1
290
     0
176
     1
 90
       50
176
     1
 90
       50
176
     1
 90
       50
176
     1
290
     0
176
     1
 90
       50
176
     1
 62
   256
176
     0
 40
1.0
176
     0
 90
        2
176
     1
  1
strokes_ogs.tif
176
     1
290
     0
176
     1
 40
1.0
176
     1
 40
1.0
176
     1
  0
VISUALSTYLE
  5
78E92171
102
{ACAD_REACTORS
330
78E9215C
102
}
330
78E9215C
100
AcDbVisualStyle
  2
Sketchy
 70
    24
177
     3
291
     0
 70
    58
 90
        1
176
     1
 90
        2
176
     1
 90
        2
176
     1
 90
        0
176
     1
 40
0.6
176
     1
 40
30.0
176
     1
 62
     7
420
 16777215
176
     1
 90
        2
176
     1
 90
        2
176
     1
 62
     7
176
     1
 62
     7
176
     1
 90
        1
176
     1
 90
        1
176
     1
 40
40.0
176
     1
 90
       11
176
     1
 62
     7
176
     1
 40
1.0
176
     1
 90
        1
176
     1
 90
        6
176
     1
 90
        2
176
     1
 62
     7
176
     1
 90
        6
176
     1
 90
        0
176
     1
 90
        0
176
     1
290
     0
176
     1
 90
        1
176
     1
 40
0.0
176
     1
 90
        0
176
     1
290
     0
176
     1
290
     1
176
     1
290
     1
176
     1
290
     0
176
     1
290
     0
176
     1
290
     0
176
     1
290
     0
176
     1
290
     0
176
     1
290
     0
176
     1
 90
       50
176
     1
 40
0.0
176
     1
 40
1.0
176
     1
 90
        0
176
     1
 62
    18
420
        0
176
     1
 90
       50
176
     1
 90
        3
176
     1
 62
     5
420
      255
176
     1
290
     0
176
     1
 90
       50
176
     1
 90
       50
176
     1
 90
       50
176
     1
290
     0
176
     1
 90
       50
176
     1
 62
   256
176
     0
 40
1.0
176
     0
 90
        2
176
     1
  1
strokes_ogs.tif
176
     1
290
     0
176
     1
 40
1.0
176
     1
 40
1.0
176
     1
  0
VISUALSTYLE
  5
78E92169
102
{ACAD_REACTORS
330
78E9215C
102
}
330
78E9215C
100
AcDbVisualStyle
  2
Thicken
 70
    13
177
     3
291
     1
 70
    58
 90
        2
176
     1
 90
        2
176
     1
 90
        0
176
     1
 90
        0
176
     1
 40
0.6
176
     1
 40
30.0
176
     1
 62
     7
420
 16777215
176
     1
 90
        1
176
     1
 90
        4
176
     1
 62
     7
176
     1
 62
   257
176
     1
 90
        1
176
     1
 90
        1
176
     1
 40
1.0
176
     1
 90
       12
176
     1
 62
     7
176
     1
 40
1.0
176
     1
 90
        1
176
     1
 90
        6
176
     1
 90
        2
176
     1
 62
     7
176
     1
 90
        5
176
     1
 90
        0
176
     1
 90
        0
176
     1
290
     0
176
     1
 90
        1
176
     1
 40
0.0
176
     1
 90
        0
176
     1
290
     0
176
     1
290
     1
176
     1
290
     1
176
     1
290
     0
176
     1
290
     0
176
     1
290
     0
176
     1
290
     0
176
     1
290
     0
176
     1
290
     0
176
     1
 90
       50
176
     1
 40
0.0
176
     1
 40
1.0
176
     1
 90
        0
176
     1
 62
    18
420
        0
176
     1
 90
       50
176
     1
 90
        3
176
     1
 62
     5
420
      255
176
     1
290
     0
176
     1
 90
       50
176
     1
 90
       50
176
     1
 90
       50
176
     1
290
     0
176
     1
 90
       50
176
     1
 62
   256
176
     0
 40
1.0
176
     0
 90
        2
176
     1
  1
strokes_ogs.tif
176
     1
290
     0
176
     1
 40
1.0
176
     1
 40
1.0
176
     1
  0
VISUALSTYLE
  5
78E92162
102
{ACAD_REACTORS
330
78E9215C
102
}
330
78E9215C
100
AcDbVisualStyle
  2
Wireframe
 70
     5
177
     3
291
     0
 70
    58
 90
        0
176
     1
 90
        2
176
     1
 90
        0
176
     1
 90
        0
176
     1
 40
0.6
176
     1
 40
30.0
176
     1
 62
     7
420
 16777215
176
     1
 90
        1
176
     1
 90
        4
176
     1
 62
     7
176
     1
 62
   257
176
     1
 90
        1
176
     1
 90
        1
176
     1
 40
1.0
176
     1
 90
        0
176
     1
 62
   257
176
     1
 40
1.0
176
     1
 90
        1
176
     1
 90
        6
176
     1
 90
        2
176
     1
 62
     7
176
     1
 90
        3
176
     1
 90
        0
176
     1
 90
        0
176
     1
290
     0
176
     1
 90
        1
176
     1
 40
0.0
176
     1
 90
        0
176
     1
290
     0
176
     1
290
     1
176
     1
290
     1
176
     1
290
     0
176
     1
290
     0
176
     1
290
     0
176
     1
290
     0
176
     1
290
     0
176
     1
290
     0
176
     1
 90
       50
176
     1
 40
0.0
176
     1
 40
1.0
176
     1
 90
        0
176
     1
 62
    18
420
        0
176
     1
 90
       50
176
     1
 90
        3
176
     1
 62
     5
420
      255
176
     1
290
     0
176
     1
 90
       50
176
     1
 90
       50
176
     1
 90
       50
176
     1
290
     0
176
     1
 90
       50
176
     1
 62
   256
176
     0
 40
1.0
176
     0
 90
        2
176
     1
  1
strokes_ogs.tif
176
     1
290
     0
176
     1
 40
1.0
176
     1
 40
1.0
176
     1
  0
VISUALSTYLE
  5
78E92172
102
{ACAD_REACTORS
330
78E9215C
102
}
330
78E9215C
100
AcDbVisualStyle
  2
X-Ray
 70
    25
177
     3
291
     0
 70
    58
 90
        2
176
     1
 90
        2
176
     1
 90
        1
176
     1
 90
        1
176
     1
 40
0.5
176
     1
 40
30.0
176
     1
 62
     7
420
 16777215
176
     1
 90
        1
176
     1
 90
        0
176
     1
 62
     7
176
     1
 62
   257
176
     1
 90
        1
176
     1
 90
        1
176
     1
 40
1.0
176
     1
 90
        8
176
     1
 62
     7
176
     1
 40
1.0
176
     1
 90
        1
176
     1
 90
        6
176
     1
 90
        2
176
     1
 62
     7
176
     1
 90
        3
176
     1
 90
        0
176
     1
 90
        0
176
     1
290
     0
176
     1
 90
       13
176
     1
 40
0.0
176
     1
 90
        0
176
     1
290
     0
176
     1
290
     1
176
     1
290
     1
176
     1
290
     0
176
     1
290
     0
176
     1
290
     0
176
     1
290
     0
176
     1
290
     0
176
     1
290
     0
176
     1
 90
       50
176
     1
 40
0.0
176
     1
 40
1.0
176
     1
 90
        0
176
     1
 62
    18
420
        0
176
     1
 90
       50
176
     1
 90
        3
176
     1
 62
     5
420
      255
176
     1
290
     0
176
     1
 90
       50
176
     1
 90
       50
176
     1
 90
       50
176
     1
290
     0
176
     1
 90
       50
176
     1
 62
   256
176
     0
 40
1.0
176
     0
 90
        2
176
     1
  1
strokes_ogs.tif
176
     1
290
     0
176
     1
 40
1.0
176
     1
 40
1.0
176
     1
  0
DICTIONARYVAR
  5
78E92214
102
{ACAD_REACTORS
330
78E92213
102
}
330
78E92213
100
DictionaryVariables
280
     0
  1
1:1
  0
DICTIONARYVAR
  5
78E92219
102
{ACAD_REACTORS
330
78E92213
102
}
330
78E92213
100
DictionaryVariables
280
     0
  1
Standard
  0
DICTIONARYVAR
  5
78E92218
102
{ACAD_REACTORS
330
78E92213
102
}
330
78E92213
100
DictionaryVariables
280
     0
  1
Standard
  0
XRECORD
  5
78E92193
102
{ACAD_REACTORS
330
78E92191
102
}
330
78E92191
100
AcDbXrecord
280
     1
1000
#ffffff
  0
XRECORD
  5
78E92194
102
{ACAD_REACTORS
330
78E92191
102
}
330
78E92191
100
AcDbXrecord
280
     1
1000
FullColor
  0
XRECORD
  5
78E92195
102
{ACAD_REACTORS
330
78E92191
102
}
330
78E92191
100
AcDbXrecord
280
     1
290
     1
  0
XRECORD
  5
78E92196
102
{ACAD_REACTORS
330
78E92191
102
}
330
78E92191
100
AcDbXrecord
280
     1
290
     1
  0
XRECORD
  5
78E92197
102
{ACAD_REACTORS
330
78E92191
102
}
330
78E92191
100
AcDbXrecord
280
     1
290
     1
  0
XRECORD
  5
78E92198
102
{ACAD_REACTORS
330
78E92191
102
}
330
78E92191
100
AcDbXrecord
280
     1
290
     1
  0
XRECORD
  5
78E92199
102
{ACAD_REACTORS
330
78E92191
102
}
330
78E92191
100
AcDbXrecord
280
     1
1000
auto
  0
XRECORD
  5
78E9219A
102
{ACAD_REACTORS
330
78E92191
102
}
330
78E92191
100
AcDbXrecord
280
     1
1000
auto
  0
XRECORD
  5
78E9219B
102
{ACAD_REACTORS
330
78E92191
102
}
330
78E92191
100
AcDbXrecord
280
     1
1000
auto
  0
XRECORD
  5
78E9219C
102
{ACAD_REACTORS
330
78E92191
102
}
330
78E92191
100
AcDbXrecord
280
     1
1000
auto
  0
XRECORD
  5
78E9219D
102
{ACAD_REACTORS
330
78E92191
102
}
330
78E92191
100
AcDbXrecord
280
     1
1000
auto
  0
XRECORD
  5
78E9219E
102
{ACAD_REACTORS
330
78E92191
102
}
330
78E92191
100
AcDbXrecord
280
     1
1000
auto
  0
XRECORD
  5
78E9219F
102
{ACAD_REACTORS
330
78E92191
102
}
330
78E92191
100
AcDbXrecord
280
     1
1000
auto
  0
XRECORD
  5
78E921A0
102
{ACAD_REACTORS
330
78E92191
102
}
330
78E92191
100
AcDbXrecord
280
     1
1000
auto
  0
XRECORD
  5
78E921A1
102
{ACAD_REACTORS
330
78E92191
102
}
330
78E92191
100
AcDbXrecord
280
     1
290
     0
  0
XRECORD
  5
78E921A2
102
{ACAD_REACTORS
330
78E92191
102
}
330
78E92191
100
AcDbXrecord
280
     1
290
     0
  0
XRECORD
  5
78E921A3
102
{ACAD_REACTORS
330
78E92191
102
}
330
78E92191
100
AcDbXrecord
280
     1
290
     0
  0
XRECORD
  5
78E921A4
102
{ACAD_REACTORS
330
78E92191
102
}
330
78E92191
100
AcDbXrecord
280
     1
290
     0
  0
XRECORD
  5
78E921A5
102
{ACAD_REACTORS
330
78E92191
102
}
330
78E92191
100
AcDbXrecord
280
     1
 90
    65537
  0
XRECORD
  5
78E921A6
102
{ACAD_REACTORS
330
78E92191
102
}
330
78E92191
100
AcDbXrecord
280
     1
 90
    65537
  0
XRECORD
  5
78E921A7
102
{ACAD_REACTORS
330
78E92191
102
}
330
78E92191
100
AcDbXrecord
280
     1
 90
    65537
  0
XRECORD
  5
78E921A8
102
{ACAD_REACTORS
330
78E92191
102
}
330
78E92191
100
AcDbXrecord
280
     1
 90
    65537
  0
XRECORD
  5
78E921A9
102
{ACAD_REACTORS
330
78E92191
102
}
330
78E92191
100
AcDbXrecord
280
     1
1000
auto
  0
XRECORD
  5
78E921AA
102
{ACAD_REACTORS
330
78E92191
102
}
330
78E92191
100
AcDbXrecord
280
     1
1000
auto
  0
XRECORD
  5
78E921AB
102
{ACAD_REACTORS
330
78E92191
102
}
330
78E92191
100
AcDbXrecord
280
     1
1000
auto
  0
XRECORD
  5
78E921AC
102
{ACAD_REACTORS
330
78E92191
102
}
330
78E92191
100
AcDbXrecord
280
     1
1000
auto
  0
XRECORD
  5
78E921AD
102
{ACAD_REACTORS
330
78E92191
102
}
330
78E92191
100
AcDbXrecord
280
     1
1000
auto
  0
XRECORD
  5
78E921AE
102
{ACAD_REACTORS
330
78E92191
102
}
330
78E92191
100
AcDbXrecord
280
     1
1000
auto
  0
XRECORD
  5
78E921AF
102
{ACAD_REACTORS
330
78E92191
102
}
330
78E92191
100
AcDbXrecord
280
     1
1000
auto
  0
XRECORD
  5
78E921B0
102
{ACAD_REACTORS
330
78E92191
102
}
330
78E92191
100
AcDbXrecord
280
     1
1000
auto
  0
XRECORD
  5
78E921B1
102
{ACAD_REACTORS
330
78E92191
102
}
330
78E92191
100
AcDbXrecord
280
     1
 90
        1
  0
XRECORD
  5
78E921B2
102
{ACAD_REACTORS
330
78E92191
102
}
330
78E92191
100
AcDbXrecord
280
     1
 40
0.5
  0
XRECORD
  5
78E921B3
102
{ACAD_REACTORS
330
78E92191
102
}
330
78E92191
100
AcDbXrecord
280
     1
 40
0.5
  0
XRECORD
  5
78E921B4
102
{ACAD_REACTORS
330
78E92191
102
}
330
78E92191
100
AcDbXrecord
280
     1
 40
0.5
  0
XRECORD
  5
78E921B5
102
{ACAD_REACTORS
330
78E92191
102
}
330
78E92191
100
AcDbXrecord
280
     1
 40
0.5
  0
XRECORD
  5
78E921B6
102
{ACAD_REACTORS
330
78E92191
102
}
330
78E92191
100
AcDbXrecord
280
     1
290
     0
  0
XRECORD
  5
78E921B7
102
{ACAD_REACTORS
330
78E92191
102
}
330
78E92191
100
AcDbXrecord
280
     1
 90
        1
  0
XRECORD
  5
78E921B8
102
{ACAD_REACTORS
330
78E92191
102
}
330
78E92191
100
AcDbXrecord
280
     1
 40
0.0
  0
XRECORD
  5
78E921B9
102
{ACAD_REACTORS
330
78E92191
102
}
330
78E92191
100
AcDbXrecord
280
     1
 40
0.0
  0
XRECORD
  5
78E921BA
102
{ACAD_REACTORS
330
78E92191
102
}
330
78E92191
100
AcDbXrecord
280
     1
1000
Portrait
  0
XRECORD
  5
78E921BB
102
{ACAD_REACTORS
330
78E92191
102
}
330
78E92191
100
AcDbXrecord
280
     1
 40
11.0
  0
XRECORD
  5
78E921BC
102
{ACAD_REACTORS
330
78E92191
102
}
330
78E92191
100
AcDbXrecord
280
     1
 40
8.5
  0
XRECORD
  5
78E921BD
102
{ACAD_REACTORS
330
78E92191
102
}
330
78E92191
100
AcDbXrecord
280
     1
1000
1:1
  0
XRECORD
  5
78E921BE
102
{ACAD_REACTORS
330
78E92191
102
}
330
78E92191
100
AcDbXrecord
280
     1
290
     1
  0
XRECORD
  5
78E921BF
102
{ACAD_REACTORS
330
78E92191
102
}
330
78E92191
100
AcDbXrecord
280
     1
290
     0
  0
XRECORD
  5
78E921C0
102
{ACAD_REACTORS
330
78E92191
102
}
330
78E92191
100
AcDbXrecord
280
     1
1000
Inside
  0
XRECORD
  5
78E921C1
102
{ACAD_REACTORS
330
78E92191
102
}
330
78E92191
100
AcDbXrecord
280
     1
1000
Arial,10,-1,5,50,0,0,0,0,0
  0
XRECORD
  5
78E921C2
102
{ACAD_REACTORS
330
78E92191
102
}
330
78E92191
100
AcDbXrecord
280
     1
1000
TopLeft
  0
XRECORD
  5
78E921C3
102
{ACAD_REACTORS
330
78E92191
102
}
330
78E92191
100
AcDbXrecord
280
     1
1000
3.27.1
  0
XRECORD
  5
78E921C4
102
{ACAD_REACTORS
330
78E92191
102
}
330
78E92191
100
AcDbXrecord
280
     1
 90
        1
  0
XRECORD
  5
78E921C5
102
{ACAD_REACTORS
330
78E92191
102
}
330
78E92191
100
AcDbXrecord
280
     1
  0
XRECORD
  5
78E921C6
102
{ACAD_REACTORS
330
78E92191
102
}
330
78E92191
100
AcDbXrecord
280
     1
 40
19.42759408996786
  0
XRECORD
  5
78E921C7
102
{ACAD_REACTORS
330
78E92191
102
}
330
78E92191
100
AcDbXrecord
280
     1
 40
25.93933615336429
  0
DICTIONARY
  5
78E92215
330
78E9218C
100
AcDbDictionary
280
     1
281
     1
  3
ACAD_ROUNDTRIP_2008_TABLESTYLE_CELLSTYLEMAP
360
78E92216
  0
CELLSTYLEMAP
  5
78E92216
102
{ACAD_REACTORS
330
78E92215
102
}
330
78E92215
100
AcDbCellStyleMap
 90
        3
300
CELLSTYLE
  1
TABLEFORMAT_BEGIN
 90
        5
170
     1
 91
        0
 92
    32768
 62
   257
 93
        1
300
CONTENTFORMAT
  1
CONTENTFORMAT_BEGIN
 90
        0
 91
        0
 92
        4
 93
        0
300

 40
0.0
140
1.0
 94
        5
 62
     0
340
78E92144
144
0.25
309
CONTENTFORMAT_END
171
     1
301
MARGIN
  1
CELLMARGIN_BEGIN
 40
0.06
 40
0.06
 40
0.06
 40
0.06
 40
0.06
 40
0.06
309
CELLMARGIN_END
 94
        6
 95
        1
302
GRIDFORMAT
  1
GRIDFORMAT_BEGIN
 90
        0
 91
        1
 62
     0
 92
       -2
340
78E92146
 93
        0
 40
0.045
309
GRIDFORMAT_END
 95
        2
302
GRIDFORMAT
  1
GRIDFORMAT_BEGIN
 90
        0
 91
        1
 62
     0
 92
       -2
340
78E92146
 93
        0
 40
0.045
309
GRIDFORMAT_END
 95
        4
302
GRIDFORMAT
  1
GRIDFORMAT_BEGIN
 90
        0
 91
        1
 62
     0
 92
       -2
340
78E92146
 93
        0
 40
0.045
309
GRIDFORMAT_END
 95
        8
302
GRIDFORMAT
  1
GRIDFORMAT_BEGIN
 90
        0
 91
        1
 62
     0
 92
       -2
340
78E92146
 93
        0
 40
0.045
309
GRIDFORMAT_END
 95
       16
302
GRIDFORMAT
  1
GRIDFORMAT_BEGIN
 90
        0
 91
        1
 62
     0
 92
       -2
340
78E92146
 93
        0
 40
0.045
309
GRIDFORMAT_END
 95
       32
302
GRIDFORMAT
  1
GRIDFORMAT_BEGIN
 90
        0
 91
        1
 62
     0
 92
       -2
340
78E92146
 93
        0
 40
0.045
309
GRIDFORMAT_END
309
TABLEFORMAT_END
  1
CELLSTYLE_BEGIN
 90
        1
 91
        1
300
_TITLE
309
CELLSTYLE_END
300
CELLSTYLE
  1
TABLEFORMAT_BEGIN
 90
        5
170
     1
 91
        0
 92
        0
 62
   257
 93
        1
300
CONTENTFORMAT
  1
CONTENTFORMAT_BEGIN
 90
        0
 91
        0
 92
        4
 93
        0
300

 40
0.0
140
1.0
 94
        5
 62
     0
340
78E92144
144
0.18
309
CONTENTFORMAT_END
171
     1
301
MARGIN
  1
CELLMARGIN_BEGIN
 40
0.06
 40
0.06
 40
0.06
 40
0.06
 40
0.06
 40
0.06
309
CELLMARGIN_END
 94
        6
 95
        1
302
GRIDFORMAT
  1
GRIDFORMAT_BEGIN
 90
        0
 91
        1
 62
     0
 92
       -2
340
78E92146
 93
        0
 40
0.045
309
GRIDFORMAT_END
 95
        2
302
GRIDFORMAT
  1
GRIDFORMAT_BEGIN
 90
        0
 91
        1
 62
     0
 92
       -2
340
78E92146
 93
        0
 40
0.045
309
GRIDFORMAT_END
 95
        4
302
GRIDFORMAT
  1
GRIDFORMAT_BEGIN
 90
        0
 91
        1
 62
     0
 92
       -2
340
78E92146
 93
        0
 40
0.045
309
GRIDFORMAT_END
 95
        8
302
GRIDFORMAT
  1
GRIDFORMAT_BEGIN
 90
        0
 91
        1
 62
     0
 92
       -2
340
78E92146
 93
        0
 40
0.045
309
GRIDFORMAT_END
 95
       16
302
GRIDFORMAT
  1
GRIDFORMAT_BEGIN
 90
        0
 91
        1
 62
     0
 92
       -2
340
78E92146
 93
        0
 40
0.045
309
GRIDFORMAT_END
 95
       32
302
GRIDFORMAT
  1
GRIDFORMAT_BEGIN
 90
        0
 91
        1
 62
     0
 92
       -2
340
78E92146
 93
        0
 40
0.045
309
GRIDFORMAT_END
309
TABLEFORMAT_END
  1
CELLSTYLE_BEGIN
 90
        2
 91
        1
300
_HEADER
309
CELLSTYLE_END
300
CELLSTYLE
  1
TABLEFORMAT_BEGIN
 90
        5
170
     1
 91
        0
 92
        0
 62
   257
 93
        1
300
CONTENTFORMAT
  1
CONTENTFORMAT_BEGIN
 90
        0
 91
        0
 92
        4
 93
        0
300

 40
0.0
140
1.0
 94
        2
 62
     0
340
78E92144
144
0.18
309
CONTENTFORMAT_END
171
     1
301
MARGIN
  1
CELLMARGIN_BEGIN
 40
0.06
 40
0.06
 40
0.06
 40
0.06
 40
0.06
 40
0.06
309
CELLMARGIN_END
 94
        6
 95
        1
302
GRIDFORMAT
  1
GRIDFORMAT_BEGIN
 90
        0
 91
        1
 62
     0
 92
       -2
340
78E92146
 93
        0
 40
0.045
309
GRIDFORMAT_END
 95
        2
302
GRIDFORMAT
  1
GRIDFORMAT_BEGIN
 90
        0
 91
        1
 62
     0
 92
       -2
340
78E92146
 93
        0
 40
0.045
309
GRIDFORMAT_END
 95
        4
302
GRIDFORMAT
  1
GRIDFORMAT_BEGIN
 90
        0
 91
        1
 62
     0
 92
       -2
340
78E92146
 93
        0
 40
0.045
309
GRIDFORMAT_END
 95
        8
302
GRIDFORMAT
  1
GRIDFORMAT_BEGIN
 90
        0
 91
        1
 62
     0
 92
       -2
340
78E92146
 93
        0
 40
0.045
309
GRIDFORMAT_END
 95
       16
302
GRIDFORMAT
  1
GRIDFORMAT_BEGIN
 90
        0
 91
        1
 62
     0
 92
       -2
340
78E92146
 93
        0
 40
0.045
309
GRIDFORMAT_END
 95
       32
302
GRIDFORMAT
  1
GRIDFORMAT_BEGIN
 90
        0
 91
        1
 62
     0
 92
       -2
340
78E92146
 93
        0
 40
0.045
309
GRIDFORMAT_END
309
TABLEFORMAT_END
  1
CELLSTYLE_BEGIN
 90
        3
 91
        2
300
_DATA
309
CELLSTYLE_END
  0
ENDSEC
  0
EOF
