  0
SECTION
  2
HEADER
  9
$ACADVER
  1
AC1027
  9
$ACADMAINTVER
 70
   105
  9
$DWGCODEPAGE
  3
ANSI_1252
  9
$LASTSAVEDBY
  1
Jacob
  9
$REQUIREDVERSIONS
160
                 0
  9
$INSBASE
 10
0.0
 20
0.0
 30
0.0
  9
$EXTMIN
 10
247.0555556014
 20
512.3827342711
 30
0.0
  9
$EXTMAX
 10
267.3055556014
 20
554.3944443446
 30
0.0
  9
$LIMMIN
 10
0.0
 20
0.0
  9
$LIMMAX
 10
0.0
 20
0.0
  9
$ORTHOMODE
 70
     0
  9
$REGENMODE
 70
     1
  9
$FILLMODE
 70
     1
  9
$QTEXTMODE
 70
     0
  9
$MIRRTEXT
 70
     1
  9
$LTSCALE
 40
1.0
  9
$ATTMODE
 70
     1
  9
$TEXTSIZE
 40
1.0
  9
$TRACEWID
 40
0.05
  9
$TEXTSTYLE
  7
Standard
  9
$CLAYER
  8
0
  9
$CELTYPE
  6
ByLayer
  9
$CECOLOR
 62
   256
  9
$CELTSCALE
 40
1.0
  9
$DISPSILH
 70
     0
  9
$DIMSCALE
 40
1.0
  9
$DIMASZ
 40
0.18
  9
$DIMEXO
 40
0.0625
  9
$DIMDLI
 40
0.38
  9
$DIMRND
 40
0.0
  9
$DIMDLE
 40
0.0
  9
$DIMEXE
 40
0.18
  9
$DIMTP
 40
0.0
  9
$DIMTM
 40
0.0
  9
$DIMTXT
 40
0.18
  9
$DIMCEN
 40
0.09
  9
$DIMTSZ
 40
0.0
  9
$DIMTOL
 70
     0
  9
$DIMLIM
 70
     0
  9
$DIMTIH
 70
     1
  9
$DIMTOH
 70
     1
  9
$DIMSE1
 70
     0
  9
$DIMSE2
 70
     0
  9
$DIMTAD
 70
     0
  9
$DIMZIN
 70
     0
  9
$DIMBLK
  1

  9
$DIMASO
 70
     1
  9
$DIMSHO
 70
     1
  9
$DIMPOST
  1

  9
$DIMAPOST
  1

  9
$DIMALT
 70
     0
  9
$DIMALTD
 70
     2
  9
$DIMALTF
 40
25.4
  9
$DIMLFAC
 40
1.0
  9
$DIMTOFL
 70
     0
  9
$DIMTVP
 40
0.0
  9
$DIMTIX
 70
     0
  9
$DIMSOXD
 70
     0
  9
$DIMSAH
 70
     0
  9
$DIMBLK1
  1

  9
$DIMBLK2
  1

  9
$DIMSTYLE
  2
Standard
  9
$DIMCLRD
 70
     0
  9
$DIMCLRE
 70
     0
  9
$DIMCLRT
 70
     0
  9
$DIMTFAC
 40
1.0
  9
$DIMGAP
 40
0.09
  9
$DIMJUST
 70
     0
  9
$DIMSD1
 70
     0
  9
$DIMSD2
 70
     0
  9
$DIMTOLJ
 70
     1
  9
$DIMTZIN
 70
     0
  9
$DIMALTZ
 70
     0
  9
$DIMALTTZ
 70
     0
  9
$DIMUPT
 70
     0
  9
$DIMDEC
 70
     4
  9
$DIMTDEC
 70
     4
  9
$DIMALTU
 70
     2
  9
$DIMALTTD
 70
     2
  9
$DIMTXSTY
  7
Standard
  9
$DIMAUNIT
 70
     0
  9
$DIMADEC
 70
     0
  9
$DIMALTRND
 40
0.0
  9
$DIMAZIN
 70
     0
  9
$DIMDSEP
 70
    46
  9
$DIMATFIT
 70
     3
  9
$DIMFRAC
 70
     0
  9
$DIMLDRBLK
  1

  9
$DIMLUNIT
 70
     2
  9
$DIMLWD
 70
    -2
  9
$DIMLWE
 70
    -2
  9
$DIMTMOVE
 70
     0
  9
$DIMFXL
 40
1.0
  9
$DIMFXLON
 70
     0
  9
$DIMJOGANG
 40
0.7853981633974483
  9
$DIMTFILL
 70
     0
  9
$DIMTFILLCLR
 70
     0
  9
$DIMARCSYM
 70
     0
  9
$DIMLTYPE
  6

  9
$DIMLTEX1
  6

  9
$DIMLTEX2
  6

  9
$DIMTXTDIRECTION
 70
     0
  9
$LUNITS
 70
     2
  9
$LUPREC
 70
     4
  9
$SKETCHINC
 40
0.1
  9
$FILLETRAD
 40
0.0
  9
$AUNITS
 70
     0
  9
$AUPREC
 70
     0
  9
$MENU
  1
.
  9
$ELEVATION
 40
0.0
  9
$PELEVATION
 40
0.0
  9
$THICKNESS
 40
0.0
  9
$LIMCHECK
 70
     0
  9
$CHAMFERA
 40
0.0
  9
$CHAMFERB
 40
0.0
  9
$CHAMFERC
 40
0.0
  9
$CHAMFERD
 40
0.0
  9
$SKPOLY
 70
     0
  9
$TDCREATE
 40
2459644.499930012
  9
$TDUCREATE
 40
2459644.833263345
  9
$TDUPDATE
 40
2459644.499930521
  9
$TDUUPDATE
 40
2459644.833263854
  9
$TDINDWG
 40
0.0000000116
  9
$TDUSRTIMER
 40
0.0000000116
  9
$USRTIMER
 70
     1
  9
$ANGBASE
 50
0.0
  9
$ANGDIR
 70
     0
  9
$PDMODE
 70
     0
  9
$PDSIZE
 40
0.0
  9
$PLINEWID
 40
0.0
  9
$SPLFRAME
 70
     0
  9
$SPLINETYPE
 70
     6
  9
$SPLINESEGS
 70
     8
  9
$HANDSEED
  5
342
  9
$SURFTAB1
 70
     6
  9
$SURFTAB2
 70
     6
  9
$SURFTYPE
 70
     6
  9
$SURFU
 70
     6
  9
$SURFV
 70
     6
  9
$UCSBASE
  2

  9
$UCSNAME
  2

  9
$UCSORG
 10
0.0
 20
0.0
 30
0.0
  9
$UCSXDIR
 10
1.0
 20
0.0
 30
0.0
  9
$UCSYDIR
 10
0.0
 20
1.0
 30
0.0
  9
$UCSORTHOREF
  2

  9
$UCSORTHOVIEW
 70
     0
  9
$UCSORGTOP
 10
0.0
 20
0.0
 30
0.0
  9
$UCSORGBOTTOM
 10
0.0
 20
0.0
 30
0.0
  9
$UCSORGLEFT
 10
0.0
 20
0.0
 30
0.0
  9
$UCSORGRIGHT
 10
0.0
 20
0.0
 30
0.0
  9
$UCSORGFRONT
 10
0.0
 20
0.0
 30
0.0
  9
$UCSORGBACK
 10
0.0
 20
0.0
 30
0.0
  9
$PUCSBASE
  2

  9
$PUCSNAME
  2

  9
$PUCSORG
 10
0.0
 20
0.0
 30
0.0
  9
$PUCSXDIR
 10
1.0
 20
0.0
 30
0.0
  9
$PUCSYDIR
 10
0.0
 20
1.0
 30
0.0
  9
$PUCSORTHOREF
  2

  9
$PUCSORTHOVIEW
 70
     0
  9
$PUCSORGTOP
 10
0.0
 20
0.0
 30
0.0
  9
$PUCSORGBOTTOM
 10
0.0
 20
0.0
 30
0.0
  9
$PUCSORGLEFT
 10
0.0
 20
0.0
 30
0.0
  9
$PUCSORGRIGHT
 10
0.0
 20
0.0
 30
0.0
  9
$PUCSORGFRONT
 10
0.0
 20
0.0
 30
0.0
  9
$PUCSORGBACK
 10
0.0
 20
0.0
 30
0.0
  9
$USERI1
 70
     0
  9
$USERI2
 70
     0
  9
$USERI3
 70
     0
  9
$USERI4
 70
     0
  9
$USERI5
 70
     0
  9
$USERR1
 40
0.0
  9
$USERR2
 40
0.0
  9
$USERR3
 40
0.0
  9
$USERR4
 40
0.0
  9
$USERR5
 40
0.0
  9
$WORLDVIEW
 70
     1
  9
$SHADEDGE
 70
     3
  9
$SHADEDIF
 70
    70
  9
$TILEMODE
 70
     1
  9
$MAXACTVP
 70
    64
  9
$PINSBASE
 10
0.0
 20
0.0
 30
0.0
  9
$PLIMCHECK
 70
     0
  9
$PEXTMIN
 10
1.000000000000000E+20
 20
1.000000000000000E+20
 30
1.000000000000000E+20
  9
$PEXTMAX
 10
-1.000000000000000E+20
 20
-1.000000000000000E+20
 30
-1.000000000000000E+20
  9
$PLIMMIN
 10
-0.25
 20
-0.25
  9
$PLIMMAX
 10
10.75
 20
8.25
  9
$UNITMODE
 70
     0
  9
$VISRETAIN
 70
     0
  9
$PLINEGEN
 70
     1
  9
$PSLTSCALE
 70
     0
  9
$TREEDEPTH
 70
  3020
  9
$CMLSTYLE
  2
Standard
  9
$CMLJUST
 70
     0
  9
$CMLSCALE
 40
1.0
  9
$PROXYGRAPHICS
 70
     0
  9
$MEASUREMENT
 70
     0
  9
$CELWEIGHT
370
    -1
  9
$ENDCAPS
280
     0
  9
$JOINSTYLE
280
     0
  9
$LWDISPLAY
290
     0
  9
$INSUNITS
 70
     0
  9
$HYPERLINKBASE
  1

  9
$STYLESHEET
  1

  9
$XEDIT
290
     1
  9
$CEPSNTYPE
380
     0
  9
$PSTYLEMODE
290
     1
  9
$FINGERPRINTGUID
  2
{73ef8fdf-872d-41c8-8eb3-9a6e9b8e7c27}
  9
$VERSIONGUID
  2
{FAEB1C32-E019-11D5-929B-00C0DF256EC4}
  9
$EXTNAMES
290
     1
  9
$PSVPSCALE
 40
0.0
  9
$OLESTARTUP
290
     0
  9
$SORTENTS
280
   127
  9
$INDEXCTL
280
     0
  9
$HIDETEXT
280
     1
  9
$XCLIPFRAME
280
     2
  9
$HALOGAP
280
     0
  9
$OBSCOLOR
 70
   257
  9
$OBSLTYPE
280
     0
  9
$INTERSECTIONDISPLAY
280
     0
  9
$INTERSECTIONCOLOR
 70
   257
  9
$DIMASSOC
280
     2
  9
$PROJECTNAME
  1

  9
$CAMERADISPLAY
290
     0
  9
$LENSLENGTH
 40
50.0
  9
$CAMERAHEIGHT
 40
0.0
  9
$STEPSPERSEC
 40
2.0
  9
$STEPSIZE
 40
6.0
  9
$3DDWFPREC
 40
2.0
  9
$PSOLWIDTH
 40
0.25
  9
$PSOLHEIGHT
 40
4.0
  9
$LOFTANG1
 40
1.570796326794897
  9
$LOFTANG2
 40
1.570796326794897
  9
$LOFTMAG1
 40
0.0
  9
$LOFTMAG2
 40
0.0
  9
$LOFTPARAM
 70
     7
  9
$LOFTNORMALS
280
     1
  9
$LATITUDE
 40
37.795
  9
$LONGITUDE
 40
-122.394
  9
$NORTHDIRECTION
 40
0.0
  9
$TIMEZONE
 70
 -8000
  9
$LIGHTGLYPHDISPLAY
280
     1
  9
$TILEMODELIGHTSYNCH
280
     1
  9
$CMATERIAL
347
2A1
  9
$SOLIDHIST
280
     0
  9
$SHOWHIST
280
     1
  9
$DWFFRAME
280
     2
  9
$DGNFRAME
280
     2
  9
$REALWORLDSCALE
290
     1
  9
$INTERFERECOLOR
 62
   256
  9
$CSHADOW
280
     0
  9
$SHADOWPLANELOCATION
 40
0.0
  0
ENDSEC
  0
SECTION
  2
CLASSES
  0
CLASS
  1
ACDBDICTIONARYWDFLT
  2
AcDbDictionaryWithDefault
  3
ObjectDBX Classes
 90
        0
 91
        3
280
     0
281
     0
  0
CLASS
  1
VISUALSTYLE
  2
AcDbVisualStyle
  3
ObjectDBX Classes
 90
     4095
 91
        3
280
     0
281
     0
  0
CLASS
  1
MATERIAL
  2
AcDbMaterial
  3
ObjectDBX Classes
 90
     1153
 91
        3
280
     0
281
     0
  0
CLASS
  1
SCALE
  2
AcDbScale
  3
ObjectDBX Classes
 90
     1153
 91
        3
280
     0
281
     0
  0
CLASS
  1
TABLESTYLE
  2
AcDbTableStyle
  3
ObjectDBX Classes
 90
     4095
 91
        3
280
     0
281
     0
  0
CLASS
  1
MLEADERSTYLE
  2
AcDbMLeaderStyle
  3
ACDB_MLEADERSTYLE_CLASS
 90
     4095
 91
        3
280
     0
281
     0
  0
CLASS
  1
SUN
  2
AcDbSun
  3
SCENEOE
 90
     1153
 91
        3
280
     0
281
     0
  0
CLASS
  1
DICTIONARYVAR
  2
AcDbDictionaryVar
  3
ObjectDBX Classes
 90
        0
 91
        3
280
     0
281
     0
  0
CLASS
  1
CELLSTYLEMAP
  2
AcDbCellStyleMap
  3
ObjectDBX Classes
 90
     1152
 91
        3
280
     0
281
     0
  0
ENDSEC
  0
SECTION
  2
TABLES
  0
TABLE
  2
VPORT
  5
266
330
0
100
AcDbSymbolTable
 70
     1
  0
VPORT
  5
286
330
266
100
AcDbSymbolTableRecord
100
AcDbViewportTableRecord
  2
*Active
 70
     0
 10
0.0
 20
0.0
 11
1.0
 21
1.0
 12
265.4328557944089
 22
526.5116724803424
 13
0.0
 23
0.0
 14
0.5
 24
0.5
 15
0.5
 25
0.5
 16
0.0
 26
0.0
 36
1.0
 17
0.0
 27
0.0
 37
0.0
 40
64.998117156572
 41
1.335180055401662
 42
50.0
 43
0.0
 44
0.0
 50
0.0
 51
0.0
 71
     0
 72
   100
 73
     1
 74
     3
 75
     0
 76
     0
 77
     0
 78
     0
281
     0
 65
     1
110
0.0
120
0.0
130
0.0
111
1.0
121
0.0
131
0.0
112
0.0
122
1.0
132
0.0
 79
     0
146
0.0
348
28C
 60
     3
 61
     5
292
     1
282
     1
141
0.0
142
0.0
 63
   250
361
2BA
  0
ENDTAB
  0
TABLE
  2
LTYPE
  5
263
330
0
100
AcDbSymbolTable
 70
    51
  0
LTYPE
  5
271
330
263
100
AcDbSymbolTableRecord
100
AcDbLinetypeTableRecord
  2
ByBlock
 70
     0
  3

 72
    65
 73
     0
 40
0.0
  0
LTYPE
  5
272
330
263
100
AcDbSymbolTableRecord
100
AcDbLinetypeTableRecord
  2
ByLayer
 70
     0
  3

 72
    65
 73
     0
 40
0.0
  0
LTYPE
  5
273
330
263
100
AcDbSymbolTableRecord
100
AcDbLinetypeTableRecord
  2
Continuous
 70
     0
  3
Solid line
 72
    65
 73
     0
 40
0.0
  0
LTYPE
  5
2F5
330
263
100
AcDbSymbolTableRecord
100
AcDbLinetypeTableRecord
  2
CENTERX2
 70
     0
  3
Center (2x) ________  __  ________  __  _____
 72
    65
 73
     4
 40
4.0
 49
2.5
 74
     0
 49
-0.5
 74
     0
 49
0.5
 74
     0
 49
-0.5
 74
     0
  0
LTYPE
  5
2F6
330
263
100
AcDbSymbolTableRecord
100
AcDbLinetypeTableRecord
  2
DASHDOT
 70
     0
  3
Dashdot
 72
    65
 73
     4
 40
0.6762499958000001
 49
0.5
 74
     0
 49
-0.0724999979
 74
     0
 49
0.03125
 74
     0
 49
-0.0724999979
 74
     0
  0
LTYPE
  5
2F7
330
263
100
AcDbSymbolTableRecord
100
AcDbLinetypeTableRecord
  2
DASHDOT2
 70
     0
  3
Dash dot (.5x) _._._._._._._._._._._._._._._.
 72
    65
 73
     4
 40
0.5
 49
0.25
 74
     0
 49
-0.125
 74
     0
 49
0.0
 74
     0
 49
-0.125
 74
     0
  0
LTYPE
  5
2F8
330
263
100
AcDbSymbolTableRecord
100
AcDbLinetypeTableRecord
  2
DASHDOTX2
 70
     0
  3
Dash dot (2x) ____  .  ____  .  ____  .  ___
 72
    65
 73
     4
 40
2.0
 49
1.0
 74
     0
 49
-0.5
 74
     0
 49
0.0
 74
     0
 49
-0.5
 74
     0
  0
LTYPE
  5
2F9
330
263
100
AcDbSymbolTableRecord
100
AcDbLinetypeTableRecord
  2
DASHED
 70
     0
  3
Dashed
 72
    65
 73
     2
 40
0.375
 49
0.25
 74
     0
 49
-0.125
 74
     0
  0
LTYPE
  5
2FA
330
263
100
AcDbSymbolTableRecord
100
AcDbLinetypeTableRecord
  2
DASHED2
 70
     0
  3
Dashed (.5x) _ _ _ _ _ _ _ _ _ _ _ _ _ _ _ _ _ 
 72
    65
 73
     2
 40
0.375
 49
0.25
 74
     0
 49
-0.125
 74
     0
  0
LTYPE
  5
2FB
330
263
100
AcDbSymbolTableRecord
100
AcDbLinetypeTableRecord
  2
DASHEDX2
 70
     0
  3
Dashed (2x) ____  ____  ____  ____  ____  ___
 72
    65
 73
     2
 40
1.5
 49
1.0
 74
     0
 49
-0.5
 74
     0
  0
LTYPE
  5
2FC
330
263
100
AcDbSymbolTableRecord
100
AcDbLinetypeTableRecord
  2
DIVIDE
 70
     0
  3
Divide
 72
    65
 73
     6
 40
0.7799999937000002
 49
0.5
 74
     0
 49
-0.0724999979
 74
     0
 49
0.03125
 74
     0
 49
-0.0724999979
 74
     0
 49
0.03125
 74
     0
 49
-0.0724999979
 74
     0
  0
LTYPE
  5
2FD
330
263
100
AcDbSymbolTableRecord
100
AcDbLinetypeTableRecord
  2
DIVIDE2
 70
     0
  3
Divide (.5x) __..__..__..__..__..__..__..__.._
 72
    65
 73
     6
 40
0.625
 49
0.25
 74
     0
 49
-0.125
 74
     0
 49
0.0
 74
     0
 49
-0.125
 74
     0
 49
0.0
 74
     0
 49
-0.125
 74
     0
  0
LTYPE
  5
2FE
330
263
100
AcDbSymbolTableRecord
100
AcDbLinetypeTableRecord
  2
DIVIDEX2
 70
     0
  3
Divide (2x) ________  .  .  ________  .  .  _
 72
    65
 73
     6
 40
2.5
 49
1.0
 74
     0
 49
-0.5
 74
     0
 49
0.0
 74
     0
 49
-0.5
 74
     0
 49
0.0
 74
     0
 49
-0.5
 74
     0
  0
LTYPE
  5
2FF
330
263
100
AcDbSymbolTableRecord
100
AcDbLinetypeTableRecord
  2
DOT
 70
     0
  3
Dot . . . . . . . . . . . . . . . . . . . . . . . .
 72
    65
 73
     2
 40
0.25
 49
0.0
 74
     0
 49
-0.25
 74
     0
  0
LTYPE
  5
300
330
263
100
AcDbSymbolTableRecord
100
AcDbLinetypeTableRecord
  2
DOT2
 70
     0
  3
Dot (.5x) ........................................
 72
    65
 73
     2
 40
0.125
 49
0.0
 74
     0
 49
-0.125
 74
     0
  0
LTYPE
  5
301
330
263
100
AcDbSymbolTableRecord
100
AcDbLinetypeTableRecord
  2
DOTX2
 70
     0
  3
Dot (2x) .  .  .  .  .  .  .  .  .  .  .  .  .  .
 72
    65
 73
     2
 40
0.5
 49
0.0
 74
     0
 49
-0.5
 74
     0
  0
LTYPE
  5
303
330
263
100
AcDbSymbolTableRecord
100
AcDbLinetypeTableRecord
  2
DRAINAGE
 70
     0
  3
Drainage ---->---->---->----
 72
    65
 73
     2
 40
0.4
 49
0.2
 74
     2
 75
     0
340
302
 46
0.2
 50
180.0
 44
0.0
 45
0.0
  9
RIGHT_ARROW
 49
0.2
 74
     0
  0
LTYPE
  5
305
330
263
100
AcDbSymbolTableRecord
100
AcDbLinetypeTableRecord
  2
DRAINAGE2
 70
     0
  3
Drainage reversed ----<----<----<----
 72
    65
 73
     2
 40
0.4
 49
0.2
 74
     2
 75
     0
340
304
 46
0.2
 50
0.0
 44
0.0
 45
0.0
  9
RIGHT_ARROW
 49
0.2
 74
     0
  0
LTYPE
  5
307
330
263
100
AcDbSymbolTableRecord
100
AcDbLinetypeTableRecord
  2
FENCELINE1
 70
     0
  3
Fenceline circle ----0-----0----0-----0----0-----0--
 72
    65
 73
     4
 40
1.45
 49
0.25
 74
     0
 49
-0.1
 74
     2
 75
     0
340
306
 46
0.1
 50
0.0
 44
-0.1
 45
0.0
  9
CIRC1
 49
-0.1
 74
     0
 49
1.0
 74
     0
  0
LTYPE
  5
309
330
263
100
AcDbSymbolTableRecord
100
AcDbLinetypeTableRecord
  2
FENCELINE2
 70
     0
  3
Fenceline square ----[]-----[]----[]-----[]----[]---
 72
    65
 73
     4
 40
1.45
 49
0.25
 74
     0
 49
-0.1
 74
     2
 75
     0
340
308
 46
0.1
 50
0.0
 44
-0.1
 45
0.0
  9
BOX
 49
-0.1
 74
     0
 49
1.0
 74
     0
  0
LTYPE
  5
30B
330
263
100
AcDbSymbolTableRecord
100
AcDbLinetypeTableRecord
  2
GAS_LINE
 70
     0
  3
Gas line ----GAS----GAS----GAS----GAS----GAS----GAS--
 72
    65
 73
     3
 40
0.95
 49
0.5
 74
     0
 49
-0.2
 74
     2
 75
     0
340
30A
 46
0.1
 50
0.0
 44
-0.1
 45
-0.05
  9
GAS
 49
-0.25
 74
     0
  0
LTYPE
  5
30C
330
263
100
AcDbSymbolTableRecord
100
AcDbLinetypeTableRecord
  2
HIDDEN
 70
     0
  3
Hidden
 72
    65
 73
     2
 40
0.1974999979
 49
0.125
 74
     0
 49
-0.0724999979
 74
     0
  0
LTYPE
  5
30D
330
263
100
AcDbSymbolTableRecord
100
AcDbLinetypeTableRecord
  2
HIDDEN2
 70
     0
  3
Hidden (.5x) _ _ _ _ _ _ _ _ _ _ _ _ _ _ _ _ _ 
 72
    65
 73
     2
 40
0.1875
 49
0.125
 74
     0
 49
-0.0625
 74
     0
  0
LTYPE
  5
30E
330
263
100
AcDbSymbolTableRecord
100
AcDbLinetypeTableRecord
  2
HIDDENX2
 70
     0
  3
Hidden (2x) ____ ____ ____ ____ ____ ____ ____ 
 72
    65
 73
     2
 40
0.75
 49
0.5
 74
     0
 49
-0.25
 74
     0
  0
LTYPE
  5
310
330
263
100
AcDbSymbolTableRecord
100
AcDbLinetypeTableRecord
  2
HOT_WATER_SUPPLY
 70
     0
  3
Hot water supply ---- HW ---- HW ---- HW ----
 72
    65
 73
     3
 40
0.8999999999999999
 49
0.5
 74
     0
 49
-0.2
 74
     2
 75
     0
340
30F
 46
0.1
 50
0.0
 44
-0.1
 45
-0.05
  9
HW
 49
-0.2
 74
     0
  0
LTYPE
  5
311
330
263
100
AcDbSymbolTableRecord
100
AcDbLinetypeTableRecord
  2
PHANTOM
 70
     0
  3
Phantom
 72
    65
 73
     6
 40
0.9674999937000002
 49
0.5
 74
     0
 49
-0.0724999979
 74
     0
 49
0.125
 74
     0
 49
-0.0724999979
 74
     0
 49
0.125
 74
     0
 49
-0.0724999979
 74
     0
  0
LTYPE
  5
312
330
263
100
AcDbSymbolTableRecord
100
AcDbLinetypeTableRecord
  2
PHANTOM2
 70
     0
  3
Phantom (.5x) ___ _ _ ___ _ _ ___ _ _ ___ _ _
 72
    65
 73
     6
 40
1.25
 49
0.625
 74
     0
 49
-0.125
 74
     0
 49
0.125
 74
     0
 49
-0.125
 74
     0
 49
0.125
 74
     0
 49
-0.125
 74
     0
  0
LTYPE
  5
313
330
263
100
AcDbSymbolTableRecord
100
AcDbLinetypeTableRecord
  2
PHANTOMX2
 70
     0
  3
Phantom (2x) ____________    ____    ____   _
 72
    65
 73
     6
 40
5.0
 49
2.5
 74
     0
 49
-0.5
 74
     0
 49
0.5
 74
     0
 49
-0.5
 74
     0
 49
0.5
 74
     0
 49
-0.5
 74
     0
  0
LTYPE
  5
315
330
263
100
AcDbSymbolTableRecord
100
AcDbLinetypeTableRecord
  2
TRACKS
 70
     0
  3
Tracks -|-|-|-|-|-|-|-|-|-|-|-|-|-|-|-|-|-|-|-|-|-|-|-|-
 72
    65
 73
     2
 40
0.3
 49
0.15
 74
     2
 75
     0
340
314
 46
0.25
 50
0.0
 44
0.0
 45
0.0
  9
TRACK1
 49
0.15
 74
     0
  0
LTYPE
  5
318
330
263
100
AcDbSymbolTableRecord
100
AcDbLinetypeTableRecord
  2
ZIGZAG
 70
     0
  3
Zig zag /\/\/\/\/\/\/\/\/\/\/\/\/\/\/\/\/\/\/\/\/\/\/\/
 72
    65
 73
     4
 40
0.8001
 49
0.0001
 74
     0
 49
-0.2
 74
     2
 75
     0
340
316
 46
0.2
 50
0.0
 44
-0.2
 45
0.0
  9
ZIG
 49
-0.4
 74
     2
 75
     0
340
317
 46
0.2
 50
180.0
 44
0.2
 45
0.0
  9
ZIG
 49
-0.2
 74
     0
  0
LTYPE
  5
319
330
263
100
AcDbSymbolTableRecord
100
AcDbLinetypeTableRecord
  2
DOTTED
 70
     0
  3
Dotted
 72
    65
 73
     2
 40
0.125
 49
0.0
 74
     0
 49
-0.125
 74
     0
  0
LTYPE
  5
31A
330
263
100
AcDbSymbolTableRecord
100
AcDbLinetypeTableRecord
  2
CUTTING
 70
     0
  3
Cutting
 72
    65
 73
     6
 40
1.4674999937
 49
1.0
 74
     0
 49
-0.0724999979
 74
     0
 49
0.125
 74
     0
 49
-0.0724999979
 74
     0
 49
0.125
 74
     0
 49
-0.0724999979
 74
     0
  0
LTYPE
  5
31B
330
263
100
AcDbSymbolTableRecord
100
AcDbLinetypeTableRecord
  2
STITCH
 70
     0
  3
Stitch
 72
    65
 73
     2
 40
0.1449999958
 49
0.0724999979
 74
     0
 49
-0.0724999979
 74
     0
  0
LTYPE
  5
31C
330
263
100
AcDbSymbolTableRecord
100
AcDbLinetypeTableRecord
  2
ACAD_ISO02W100
 70
     0
  3
ISO dash __ __ __ __ __ __ __ __ __ __ __ __ __
 72
    65
 73
     2
 40
15.0
 49
12.0
 74
     0
 49
-3.0
 74
     0
  0
LTYPE
  5
31D
330
263
100
AcDbSymbolTableRecord
100
AcDbLinetypeTableRecord
  2
ACAD_ISO03W100
 70
     0
  3
ISO dash space __    __    __    __    __    __
 72
    65
 73
     2
 40
30.0
 49
12.0
 74
     0
 49
-18.0
 74
     0
  0
LTYPE
  5
31E
330
263
100
AcDbSymbolTableRecord
100
AcDbLinetypeTableRecord
  2
ACAD_ISO04W100
 70
     0
  3
ISO long-dash dot ____ . ____ . ____ . ____ . _
 72
    65
 73
     4
 40
30.0
 49
24.0
 74
     0
 49
-3.0
 74
     0
 49
0.0
 74
     0
 49
-3.0
 74
     0
  0
LTYPE
  5
31F
330
263
100
AcDbSymbolTableRecord
100
AcDbLinetypeTableRecord
  2
ACAD_ISO05W100
 70
     0
  3
ISO long-dash double-dot ____ .. ____ .. ____ . 
 72
    65
 73
     6
 40
33.0
 49
24.0
 74
     0
 49
-3.0
 74
     0
 49
0.0
 74
     0
 49
-3.0
 74
     0
 49
0.0
 74
     0
 49
-3.0
 74
     0
  0
LTYPE
  5
320
330
263
100
AcDbSymbolTableRecord
100
AcDbLinetypeTableRecord
  2
ACAD_ISO06W100
 70
     0
  3
ISO long-dash triple-dot ____ ... ____ ... ____
 72
    65
 73
     8
 40
36.0
 49
24.0
 74
     0
 49
-3.0
 74
     0
 49
0.0
 74
     0
 49
-3.0
 74
     0
 49
0.0
 74
     0
 49
-3.0
 74
     0
 49
0.0
 74
     0
 49
-3.0
 74
     0
  0
LTYPE
  5
321
330
263
100
AcDbSymbolTableRecord
100
AcDbLinetypeTableRecord
  2
ACAD_ISO07W100
 70
     0
  3
ISO dot . . . . . . . . . . . . . . . . . . . . 
 72
    65
 73
     2
 40
3.0
 49
0.0
 74
     0
 49
-3.0
 74
     0
  0
LTYPE
  5
322
330
263
100
AcDbSymbolTableRecord
100
AcDbLinetypeTableRecord
  2
ACAD_ISO08W100
 70
     0
  3
ISO long-dash short-dash ____ __ ____ __ ____ _
 72
    65
 73
     4
 40
36.0
 49
24.0
 74
     0
 49
-3.0
 74
     0
 49
6.0
 74
     0
 49
-3.0
 74
     0
  0
LTYPE
  5
323
330
263
100
AcDbSymbolTableRecord
100
AcDbLinetypeTableRecord
  2
ACAD_ISO09W100
 70
     0
  3
ISO long-dash double-short-dash ____ __ __ ____
 72
    65
 73
     6
 40
45.0
 49
24.0
 74
     0
 49
-3.0
 74
     0
 49
6.0
 74
     0
 49
-3.0
 74
     0
 49
6.0
 74
     0
 49
-3.0
 74
     0
  0
LTYPE
  5
324
330
263
100
AcDbSymbolTableRecord
100
AcDbLinetypeTableRecord
  2
ACAD_ISO10W100
 70
     0
  3
ISO dash dot __ . __ . __ . __ . __ . __ . __ . 
 72
    65
 73
     4
 40
18.0
 49
12.0
 74
     0
 49
-3.0
 74
     0
 49
0.0
 74
     0
 49
-3.0
 74
     0
  0
LTYPE
  5
325
330
263
100
AcDbSymbolTableRecord
100
AcDbLinetypeTableRecord
  2
ACAD_ISO11W100
 70
     0
  3
ISO double-dash dot __ __ . __ __ . __ __ . __ _
 72
    65
 73
     6
 40
33.0
 49
12.0
 74
     0
 49
-3.0
 74
     0
 49
12.0
 74
     0
 49
-3.0
 74
     0
 49
0.0
 74
     0
 49
-3.0
 74
     0
  0
LTYPE
  5
326
330
263
100
AcDbSymbolTableRecord
100
AcDbLinetypeTableRecord
  2
ACAD_ISO12W100
 70
     0
  3
ISO dash double-dot __ . . __ . . __ . . __ . . 
 72
    65
 73
     6
 40
21.0
 49
12.0
 74
     0
 49
-3.0
 74
     0
 49
0.0
 74
     0
 49
-3.0
 74
     0
 49
0.0
 74
     0
 49
-3.0
 74
     0
  0
LTYPE
  5
327
330
263
100
AcDbSymbolTableRecord
100
AcDbLinetypeTableRecord
  2
ACAD_ISO13W100
 70
     0
  3
ISO double-dash double-dot __ __ . . __ __ . . _
 72
    65
 73
     8
 40
36.0
 49
12.0
 74
     0
 49
-3.0
 74
     0
 49
12.0
 74
     0
 49
-3.0
 74
     0
 49
0.0
 74
     0
 49
-3.0
 74
     0
 49
0.0
 74
     0
 49
-3.0
 74
     0
  0
LTYPE
  5
328
330
263
100
AcDbSymbolTableRecord
100
AcDbLinetypeTableRecord
  2
ACAD_ISO14W100
 70
     0
  3
ISO dash triple-dot __ . . . __ . . . __ . . . _
 72
    65
 73
     8
 40
24.0
 49
12.0
 74
     0
 49
-3.0
 74
     0
 49
0.0
 74
     0
 49
-3.0
 74
     0
 49
0.0
 74
     0
 49
-3.0
 74
     0
 49
0.0
 74
     0
 49
-3.0
 74
     0
  0
LTYPE
  5
329
330
263
100
AcDbSymbolTableRecord
100
AcDbLinetypeTableRecord
  2
ACAD_ISO15W100
 70
     0
  3
ISO double-dash triple-dot __ __ . . . __ __ . .
 72
    65
 73
    10
 40
39.0
 49
12.0
 74
     0
 49
-3.0
 74
     0
 49
12.0
 74
     0
 49
-3.0
 74
     0
 49
0.0
 74
     0
 49
-3.0
 74
     0
 49
0.0
 74
     0
 49
-3.0
 74
     0
 49
0.0
 74
     0
 49
-3.0
 74
     0
  0
LTYPE
  5
32C
330
263
100
AcDbSymbolTableRecord
100
AcDbLinetypeTableRecord
  2
BATTING
 70
     0
  3
Batting SSSSSSSSSSSSSSSSSSSSSSSSSSSSSSSSSSSSSSSSSSSSSSS
 72
    65
 73
     4
 40
0.4001
 49
0.0001
 74
     0
 49
-0.1
 74
     2
 75
     0
340
32A
 46
0.1
 50
0.0
 44
-0.1
 45
0.0
  9
BAT
 49
-0.2
 74
     2
 75
     0
340
32B
 46
0.1
 50
180.0
 44
0.1
 45
0.0
  9
BAT
 49
-0.1
 74
     0
  0
LTYPE
  5
32D
330
263
100
AcDbSymbolTableRecord
100
AcDbLinetypeTableRecord
  2
BORDER
 70
     0
  3
Border
 72
    65
 73
     6
 40
1.2487499937
 49
0.5
 74
     0
 49
-0.0724999979
 74
     0
 49
0.5
 74
     0
 49
-0.0724999979
 74
     0
 49
0.03125
 74
     0
 49
-0.0724999979
 74
     0
  0
LTYPE
  5
32E
330
263
100
AcDbSymbolTableRecord
100
AcDbLinetypeTableRecord
  2
BORDER2
 70
     0
  3
Border (.5x) __.__.__.__.__.__.__.__.__.__.__.
 72
    65
 73
     6
 40
0.875
 49
0.25
 74
     0
 49
-0.125
 74
     0
 49
0.25
 74
     0
 49
-0.125
 74
     0
 49
0.0
 74
     0
 49
-0.125
 74
     0
  0
LTYPE
  5
32F
330
263
100
AcDbSymbolTableRecord
100
AcDbLinetypeTableRecord
  2
BORDERX2
 70
     0
  3
Border (2x) ____  ____  .  ____  ____  .  ___
 72
    65
 73
     6
 40
3.5
 49
1.0
 74
     0
 49
-0.5
 74
     0
 49
1.0
 74
     0
 49
-0.5
 74
     0
 49
0.0
 74
     0
 49
-0.5
 74
     0
  0
LTYPE
  5
330
330
263
100
AcDbSymbolTableRecord
100
AcDbLinetypeTableRecord
  2
CENTER
 70
     0
  3
Center
 72
    65
 73
     4
 40
0.7699999958000001
 49
0.5
 74
     0
 49
-0.0724999979
 74
     0
 49
0.125
 74
     0
 49
-0.0724999979
 74
     0
  0
LTYPE
  5
331
330
263
100
AcDbSymbolTableRecord
100
AcDbLinetypeTableRecord
  2
CENTER2
 70
     0
  3
Center (.5x) ___ _ ___ _ ___ _ ___ _ ___ _ ___
 72
    65
 73
     4
 40
1.125
 49
0.75
 74
     0
 49
-0.125
 74
     0
 49
0.125
 74
     0
 49
-0.125
 74
     0
  0
ENDTAB
  0
TABLE
  2
LAYER
  5
261
330
0
100
AcDbSymbolTable
 70
     6
  0
LAYER
  5
26E
330
261
100
AcDbSymbolTableRecord
100
AcDbLayerTableRecord
  2
0
 70
     0
 62
     7
  6
Continuous
370
    -3
390
26D
347
2A3
348
0
  0
LAYER
  5
332
330
261
100
AcDbSymbolTableRecord
100
AcDbLayerTableRecord
  2
CONSTRUCTION
 70
     0
 62
     4
420
    65535
  6
Continuous
370
    -3
390
26D
347
2A3
348
0
  0
LAYER
  5
333
330
261
100
AcDbSymbolTableRecord
100
AcDbLayerTableRecord
  2
DF250
 70
     0
 62
     3
420
    65280
  6
Continuous
370
    -3
390
26D
347
2A3
348
0
  0
LAYER
  5
334
330
261
100
AcDbSymbolTableRecord
100
AcDbLayerTableRecord
  2
DF500
 70
     0
 62
     5
420
      255
  6
Continuous
370
    -3
390
26D
347
2A3
348
0
  0
LAYER
  5
335
330
261
100
AcDbSymbolTableRecord
100
AcDbLayerTableRecord
  2
MIRCO_250
 70
     0
 62
     4
420
    65535
  6
Continuous
370
    -3
390
26D
347
2A3
348
0
  0
LAYER
  5
336
330
261
100
AcDbSymbolTableRecord
100
AcDbLayerTableRecord
  2
MIRCO_500
 70
     0
 62
     4
420
    65535
  6
Continuous
370
    -3
390
26D
347
2A3
348
0
  0
ENDTAB
  0
TABLE
  2
STYLE
  5
262
330
0
100
AcDbSymbolTable
 70
    13
  0
STYLE
  5
26F
330
262
100
AcDbSymbolTableRecord
100
AcDbTextStyleTableRecord
  2
Standard
 70
     0
 40
0.0
 41
1.0
 50
0.0
 71
     0
 42
1.0
  3
txt
  4

  0
STYLE
  5
2F3
330
262
100
AcDbSymbolTableRecord
100
AcDbTextStyleTableRecord
  2
QCADDimTextStyle
 70
     0
 40
0.0
 41
1.0
 50
0.0
 71
     0
 42
1.0
  3

  4

  0
STYLE
  5
302
330
262
100
AcDbSymbolTableRecord
100
AcDbTextStyleTableRecord
  2
textstyle0
 70
     0
 40
0.0
 41
1.0
 50
0.0
 71
     0
 42
1.0
  3
qcadshp.shx
  4

  0
STYLE
  5
304
330
262
100
AcDbSymbolTableRecord
100
AcDbTextStyleTableRecord
  2
textstyle1
 70
     0
 40
0.0
 41
1.0
 50
0.0
 71
     0
 42
1.0
  3
qcadshp.shx
  4

  0
STYLE
  5
306
330
262
100
AcDbSymbolTableRecord
100
AcDbTextStyleTableRecord
  2
textstyle2
 70
     0
 40
0.0
 41
1.0
 50
0.0
 71
     0
 42
1.0
  3
ltypeshp.shx
  4

  0
STYLE
  5
308
330
262
100
AcDbSymbolTableRecord
100
AcDbTextStyleTableRecord
  2
textstyle3
 70
     0
 40
0.0
 41
1.0
 50
0.0
 71
     0
 42
1.0
  3
ltypeshp.shx
  4

  0
STYLE
  5
30A
330
262
100
AcDbSymbolTableRecord
100
AcDbTextStyleTableRecord
  2
textstyle4
 70
     0
 40
0.0
 41
1.0
 50
0.0
 71
     0
 42
1.0
  3
STANDARD
  4

  0
STYLE
  5
30F
330
262
100
AcDbSymbolTableRecord
100
AcDbTextStyleTableRecord
  2
textstyle5
 70
     0
 40
0.0
 41
1.0
 50
0.0
 71
     0
 42
1.0
  3
STANDARD
  4

  0
STYLE
  5
314
330
262
100
AcDbSymbolTableRecord
100
AcDbTextStyleTableRecord
  2
textstyle6
 70
     0
 40
0.0
 41
1.0
 50
0.0
 71
     0
 42
1.0
  3
ltypeshp.shx
  4

  0
STYLE
  5
316
330
262
100
AcDbSymbolTableRecord
100
AcDbTextStyleTableRecord
  2
textstyle7
 70
     0
 40
0.0
 41
1.0
 50
0.0
 71
     0
 42
1.0
  3
ltypeshp.shx
  4

  0
STYLE
  5
317
330
262
100
AcDbSymbolTableRecord
100
AcDbTextStyleTableRecord
  2
textstyle8
 70
     0
 40
0.0
 41
1.0
 50
0.0
 71
     0
 42
1.0
  3
ltypeshp.shx
  4

  0
STYLE
  5
32A
330
262
100
AcDbSymbolTableRecord
100
AcDbTextStyleTableRecord
  2
textstyle9
 70
     0
 40
0.0
 41
1.0
 50
0.0
 71
     0
 42
1.0
  3
ltypeshp.shx
  4

  0
STYLE
  5
32B
330
262
100
AcDbSymbolTableRecord
100
AcDbTextStyleTableRecord
  2
textstyle10
 70
     0
 40
0.0
 41
1.0
 50
0.0
 71
     0
 42
1.0
  3
ltypeshp.shx
  4

  0
ENDTAB
  0
TABLE
  2
VIEW
  5
264
330
0
100
AcDbSymbolTable
 70
     0
  0
ENDTAB
  0
TABLE
  2
UCS
  5
265
330
0
100
AcDbSymbolTable
 70
     0
  0
ENDTAB
  0
TABLE
  2
APPID
  5
267
330
0
100
AcDbSymbolTable
 70
     2
  0
APPID
  5
270
330
267
100
AcDbSymbolTableRecord
100
AcDbRegAppTableRecord
  2
ACAD
 70
     0
  0
APPID
  5
2BB
330
267
100
AcDbSymbolTableRecord
100
AcDbRegAppTableRecord
  2
QCAD
 70
     0
  0
ENDTAB
  0
TABLE
  2
DIMSTYLE
  5
268
330
0
100
AcDbSymbolTable
 70
     2
100
AcDbDimStyleTable
  0
DIMSTYLE
105
284
330
268
100
AcDbSymbolTableRecord
100
AcDbDimStyleTableRecord
  2
Standard
 70
     0
178
     0
340
26F
  0
DIMSTYLE
105
2F4
330
268
100
AcDbSymbolTableRecord
100
AcDbDimStyleTableRecord
  2
QCADDimStyle
 70
     0
178
     0
279
     2
340
2F3
  0
ENDTAB
  0
TABLE
  2
BLOCK_RECORD
  5
260
330
0
100
AcDbSymbolTable
 70
     0
  0
BLOCK_RECORD
  5
27C
330
260
100
AcDbSymbolTableRecord
100
AcDbBlockTableRecord
  2
*Model_Space
340
27F
 70
     0
280
     1
281
     0
  0
BLOCK_RECORD
  5
278
330
260
100
AcDbSymbolTableRecord
100
AcDbBlockTableRecord
  2
*Paper_Space
340
27B
 70
     0
280
     1
281
     0
  0
ENDTAB
  0
ENDSEC
  0
SECTION
  2
BLOCKS
  0
BLOCK
  5
27D
330
27C
100
AcDbEntity
  8
0
100
AcDbBlockBegin
  2
*Model_Space
 70
     0
 10
0.0
 20
0.0
 30
0.0
  3
*Model_Space
  1

  0
ENDBLK
  5
27E
330
27C
100
AcDbEntity
  8
0
100
AcDbBlockEnd
  0
BLOCK
  5
279
330
278
100
AcDbEntity
 67
     1
  8
0
100
AcDbBlockBegin
  2
*Paper_Space
 70
     0
 10
0.0
 20
0.0
 30
0.0
  3
*Paper_Space
  1

  0
ENDBLK
  5
27A
330
278
100
AcDbEntity
 67
     1
  8
0
100
AcDbBlockEnd
  0
ENDSEC
  0
SECTION
  2
ENTITIES
  0
CIRCLE
  5
243
330
27C
100
AcDbEntity
  8
DF500
  6
Continuous
100
AcDbCircle
 10
267.0555556014
 20
551.3827342711
 30
0.0
 40
0.0445
  0
CIRCLE
  5
244
330
27C
100
AcDbEntity
  8
DF500
  6
Continuous
100
AcDbCircle
 10
261.9852684109
 20
553.0196253049
 30
0.0
 40
0.0445
  0
CIRCLE
  5
245
330
27C
100
AcDbEntity
  8
DF500
  6
Continuous
100
AcDbCircle
 10
261.0305556014
 20
554.1327342711
 30
0.0
 40
0.0445
  0
CIRCLE
  5
246
330
27C
100
AcDbEntity
  8
DF500
  6
Continuous
100
AcDbCircle
 10
265.4073146329
 20
552.3342007511
 30
0.0
 40
0.25
  0
CIRCLE
  5
247
330
27C
100
AcDbEntity
  8
DF500
  6
Continuous
100
AcDbCircle
 10
264.8805556014
 20
554.1327342711
 30
0.0
 40
0.0445
  0
CIRCLE
  5
248
330
27C
100
AcDbEntity
  8
DF500
  6
Continuous
100
AcDbCircle
 10
262.1629710505
 20
550.2576171644
 30
0.0
 40
0.0445
  0
CIRCLE
  5
249
330
27C
100
AcDbEntity
  8
DF500
  6
Continuous
100
AcDbCircle
 10
261.6552490304
 20
550.384547246
 30
0.0
 40
0.0445
  0
CIRCLE
  5
24A
330
27C
100
AcDbEntity
  8
DF500
  6
Continuous
100
AcDbCircle
 10
261.5373305047
 20
546.4123577897
 30
0.0
 40
0.0575
  0
ARC
  5
24B
330
27C
100
AcDbEntity
  8
DF500
  6
Continuous
100
AcDbCircle
 10
261.0814398961
 20
546.4691874247
 30
0.0
 40
0.25
100
AcDbArc
 50
230.4861746213
 51
50.48617462130001
  0
LINE
  5
24C
330
27C
100
AcDbEntity
  8
DF500
  6
Continuous
100
AcDbLine
 10
260.7583365718
 20
547.0597204398
 30
0.0
 11
261.2405059945
 21
546.6620551938
 31
0.0
  0
LINE
  5
24D
330
27C
100
AcDbEntity
  8
DF500
  6
Continuous
100
AcDbLine
 10
260.9223737977
 20
546.2763196557
 30
0.0
 11
260.440204375
 21
546.6739849016
 31
0.0
  0
ARC
  5
24E
330
27C
100
AcDbEntity
  8
DF500
  6
Continuous
100
AcDbCircle
 10
260.5992704734
 20
546.8668526707
 30
0.0
 40
0.25
100
AcDbArc
 50
50.48617462130001
 51
230.4861746213
  0
CIRCLE
  5
24F
330
27C
100
AcDbEntity
  8
DF500
  6
Continuous
100
AcDbCircle
 10
260.2996312749
 20
547.3483690713
 30
0.0
 40
0.0445
  0
CIRCLE
  5
250
330
27C
100
AcDbEntity
  8
DF500
  6
Continuous
100
AcDbCircle
 10
260.4164073392
 20
549.1050877871
 30
0.0
 40
0.0445
  0
CIRCLE
  5
251
330
27C
100
AcDbEntity
  8
DF500
  6
Continuous
100
AcDbCircle
 10
262.5386853563
 20
545.2210134707
 30
0.0
 40
0.0445
  0
CIRCLE
  5
252
330
27C
100
AcDbEntity
  8
DF500
  6
Continuous
100
AcDbCircle
 10
263.3865809415
 20
547.0183498016
 30
0.0
 40
0.25
  0
CIRCLE
  5
253
330
27C
100
AcDbEntity
  8
MIRCO_250
  6
Continuous
100
AcDbCircle
 10
263.6649765659
 20
550.2767041813
 30
0.0
 40
0.587598
  0
CIRCLE
  5
254
330
27C
100
AcDbEntity
  8
MIRCO_500
  6
Continuous
100
AcDbCircle
 10
263.6649765659
 20
550.2767041813
 30
0.0
 40
0.5325
  0
CIRCLE
  5
255
330
27C
100
AcDbEntity
  8
DF500
  6
Continuous
100
AcDbCircle
 10
263.8232219087
 20
548.5008984634
 30
0.0
 40
0.0445
  0
CIRCLE
  5
256
330
27C
100
AcDbEntity
  8
DF500
  6
Continuous
100
AcDbCircle
 10
264.3360210322
 20
547.7291603697
 30
0.0
 40
0.0445
  0
CIRCLE
  5
257
330
27C
100
AcDbEntity
  8
DF500
  6
Continuous
100
AcDbCircle
 10
263.9349206949
 20
547.9830215816
 30
0.0
 40
0.0445
  0
ARC
  5
258
330
27C
100
AcDbEntity
  8
DF500
  6
Continuous
100
AcDbCircle
 10
265.951982565
 20
545.0599204803
 30
0.0
 40
0.25
100
AcDbArc
 50
255.0065812251
 51
75.00658122520001
  0
LINE
  5
259
330
27C
100
AcDbEntity
  8
DF500
  6
Continuous
100
AcDbLine
 10
265.2921929266
 20
545.4954404375
 30
0.0
 11
266.0166595883
 21
545.3014093676
 31
0.0
  0
LINE
  5
25A
330
27C
100
AcDbEntity
  8
DF500
  6
Continuous
100
AcDbLine
 10
265.16283888
 20
545.012462663
 30
0.0
 11
265.8873055417
 21
544.8184315931
 31
0.0
  0
ARC
  5
25B
330
27C
100
AcDbEntity
  8
DF500
  6
Continuous
100
AcDbCircle
 10
265.2275159033
 20
545.2539515503
 30
0.0
 40
0.25
100
AcDbArc
 50
75.0065812251
 51
255.0065812252
  0
CIRCLE
  5
25C
330
27C
100
AcDbEntity
  8
DF500
  6
Continuous
100
AcDbCircle
 10
264.4731060494
 20
546.0333691992
 30
0.0
 40
0.0445
  0
CIRCLE
  5
25D
330
27C
100
AcDbEntity
  8
DF500
  6
Continuous
100
AcDbCircle
 10
266.6055382905
 20
547.3382157606
 30
0.0
 40
0.0445
  0
CIRCLE
  5
25E
330
27C
100
AcDbEntity
  8
DF500
  6
Continuous
100
AcDbCircle
 10
264.7472758645
 20
546.5258589292
 30
0.0
 40
0.0445
  0
CIRCLE
  5
4C
330
27C
100
AcDbEntity
  8
DF500
  6
Continuous
100
AcDbCircle
 10
264.5949593451
 20
545.5205695193
 30
0.0
 40
0.0445
  0
CIRCLE
  5
4D
330
27C
100
AcDbEntity
  8
DF500
  6
Continuous
100
AcDbCircle
 10
267.0555556014
 20
545.3827342711
 30
0.0
 40
0.0445
  0
LINE
  5
4E
330
27C
100
AcDbEntity
  8
MIRCO_500
  6
Continuous
100
AcDbLine
 10
257.7600612219
 20
553.1193062433
 30
0.0
 11
257.602183677
 21
552.3438541617
 31
0.0
  0
ARC
  5
4F
330
27C
100
AcDbEntity
  8
MIRCO_500
  6
Continuous
100
AcDbCircle
 10
257.5445422539
 20
552.355589621
 30
0.0
 40
0.0588239294
100
AcDbArc
 50
311.5078184723
 51
348.4921931623
  0
ELLIPSE
  5
50
330
27C
100
AcDbEntity
  8
MIRCO_500
  6
Continuous
100
AcDbEllipse
 10
257.7022650788
 20
553.1311453832
 30
0.0
 11
0.0441333502600969
 21
0.03915107641739723
 31
0.0
210
0.0
220
0.0
230
1.0
 40
1.0
 41
5.355490329040595
 42
7.853981633975122
1001
QCAD
1000
reversed:1
  0
ELLIPSE
  5
51
330
27C
100
AcDbEntity
  8
MIRCO_500
  6
Continuous
100
AcDbEllipse
 10
257.1105348819
 20
552.6061638353
 30
0.0
 11
-0.0441627724935772
 21
-0.0391771771350328
 31
0.0
210
0.0
220
0.0
230
1.0
 40
1.0
 41
4.712388980384448
 42
5.355490329044896
  0
LINE
  5
52
330
27C
100
AcDbEntity
  8
MIRCO_500
  6
Continuous
100
AcDbLine
 10
257.6631140024
 20
553.1752787334
 30
0.0
 11
257.0713577048
 21
552.6503266078
 31
0.0
  0
ARC
  5
53
330
27C
100
AcDbEntity
  8
MIRCO_250
  6
Continuous
100
AcDbCircle
 10
257.1105709049
 20
552.6061436148
 30
0.0
 40
0.1201375764
100
AcDbArc
 50
131.5765373301
 51
168.4234743041
  0
LINE
  5
54
330
27C
100
AcDbEntity
  8
MIRCO_250
  6
Continuous
100
AcDbLine
 10
257.5987230501
 20
553.1997843301
 30
0.0
 11
257.0308452145
 21
552.6960149203
 31
0.0
  0
LINE
  5
55
330
27C
100
AcDbEntity
  8
MIRCO_250
  6
Continuous
100
AcDbLine
 10
256.0643624667
 20
553.5444667867
 30
0.0
 11
255.8244328659
 21
552.82425665
 31
0.0
  0
LINE
  5
56
330
27C
100
AcDbEntity
  8
MIRCO_500
  6
Continuous
100
AcDbLine
 10
256.1323797349
 20
553.5554381245
 30
0.0
 11
255.882361394
 21
552.8049442343
 31
0.0
  0
ARC
  5
57
330
27C
100
AcDbEntity
  8
MIRCO_500
  6
Continuous
100
AcDbCircle
 10
256.1883517792
 20
553.5367916867
 30
0.0
 40
0.0589962659
100
AcDbArc
 50
18.4220963268
 51
161.5751032496
  0
ARC
  5
58
330
27C
100
AcDbEntity
  8
MIRCO_500
  6
Continuous
100
AcDbCircle
 10
256.4395192695
 20
552.7862731183
 30
0.0
 40
0.0588239294
100
AcDbArc
 50
341.5064124433
 51
18.4907871331
  0
LINE
  5
59
330
27C
100
AcDbEntity
  8
MIRCO_500
  6
Continuous
100
AcDbLine
 10
256.2443247348
 20
553.5554353888
 30
0.0
 11
256.4953063938
 21
552.804929255
 31
0.0
  0
LINE
  5
5A
330
27C
100
AcDbEntity
  8
MIRCO_250
  6
Continuous
100
AcDbLine
 10
256.3123314703
 20
553.5446097268
 30
0.0
 11
256.5532368656
 21
552.8242338392
 31
0.0
  0
ARC
  5
5B
330
27C
100
AcDbEntity
  8
MIRCO_250
  6
Continuous
100
AcDbCircle
 10
256.1883708234
 20
553.5031552734
 30
0.0
 40
0.1307085065
100
AcDbArc
 50
18.4907720253
 51
161.5752834977
  0
ARC
  5
5C
330
27C
100
AcDbEntity
  8
MIRCO_250
  6
Continuous
100
AcDbCircle
 10
256.4397234609
 20
552.7862731133
 30
0.0
 40
0.1196925635
100
AcDbArc
 50
341.506427551
 51
18.4907720254
  0
CIRCLE
  5
5D
330
27C
100
AcDbEntity
  8
DF500
  6
Continuous
100
AcDbCircle
 10
257.1805556014
 20
554.1327342711
 30
0.0
 40
0.0445
  0
CIRCLE
  5
5E
330
27C
100
AcDbEntity
  8
MIRCO_500
  6
Continuous
100
AcDbCircle
 10
261.0741515073
 20
544.8762426125
 30
0.0
 40
0.302484
  0
CIRCLE
  5
5F
330
27C
100
AcDbEntity
  8
MIRCO_250
  6
Continuous
100
AcDbCircle
 10
261.0741515073
 20
544.8762426125
 30
0.0
 40
0.369413
  0
CIRCLE
  5
60
330
27C
100
AcDbEntity
  8
MIRCO_500
  6
Continuous
100
AcDbCircle
 10
260.0182249058
 20
545.8812807786
 30
0.0
 40
0.302484
  0
CIRCLE
  5
61
330
27C
100
AcDbEntity
  8
MIRCO_250
  6
Continuous
100
AcDbCircle
 10
260.0182249058
 20
545.8812807786
 30
0.0
 40
0.369413
  0
ARC
  5
62
330
27C
100
AcDbEntity
  8
DF500
  6
Continuous
100
AcDbCircle
 10
262.0310177435
 20
545.5154391339
 30
0.0
 40
0.25
100
AcDbArc
 50
226.3168565262
 51
46.31685652619999
  0
LINE
  5
63
330
27C
100
AcDbEntity
  8
DF500
  6
Continuous
100
AcDbLine
 10
261.7517036807
 20
546.1279002791
 30
0.0
 11
262.2036851642
 21
545.6962317273
 31
0.0
  0
LINE
  5
64
330
27C
100
AcDbEntity
  8
DF500
  6
Continuous
100
AcDbLine
 10
261.8583503228
 20
545.3346465405
 30
0.0
 11
261.4063688393
 21
545.7663150923
 31
0.0
  0
ARC
  5
65
330
27C
100
AcDbEntity
  8
DF500
  6
Continuous
100
AcDbCircle
 10
261.57903626
 20
545.9471076857
 30
0.0
 40
0.25
100
AcDbArc
 50
46.31685652619999
 51
226.3168565262
  0
CIRCLE
  5
66
330
27C
100
AcDbEntity
  8
DF500
  6
Continuous
100
AcDbCircle
 10
261.6603262372
 20
548.714142075
 30
0.0
 40
0.25
  0
CIRCLE
  5
67
330
27C
100
AcDbEntity
  8
DF500
  6
Continuous
100
AcDbCircle
 10
253.3305556014
 20
554.1327342711
 30
0.0
 40
0.0445
  0
CIRCLE
  5
68
330
27C
100
AcDbEntity
  8
DF500
  6
Continuous
100
AcDbCircle
 10
253.5570834619
 20
553.212560109
 30
0.0
 40
0.0445
  0
ARC
  5
69
330
27C
100
AcDbEntity
  8
MIRCO_250
  6
Continuous
100
AcDbCircle
 10
255.4081026956
 20
551.8603319715
 30
0.0
 40
0.1307087003
100
AcDbArc
 50
228.4224023424
 51
11.5064038456
  0
ELLIPSE
  5
6A
330
27C
100
AcDbEntity
  8
MIRCO_500
  6
Continuous
100
AcDbEllipse
 10
255.4248663975
 20
551.8312553484
 30
0.0
 11
0.05783371971804741
 21
0.01177314421454412
 31
0.0
210
0.0
220
0.0
230
1.0
 40
1.0
 41
3.787091763716913
 42
6.283185307179586
1001
QCAD
1000
reversed:1
  0
LINE
  5
6B
330
27C
100
AcDbEntity
  8
MIRCO_250
  6
Continuous
100
AcDbLine
 10
255.3846635922
 20
552.6307284674
 30
0.0
 11
255.5361844668
 21
551.8864054107
 31
0.0
  0
LINE
  5
6C
330
27C
100
AcDbEntity
  8
MIRCO_500
  6
Continuous
100
AcDbLine
 10
255.3248414414
 20
552.6184844156
 30
0.0
 11
255.4827001172
 21
551.8430284926
 31
0.0
  0
ARC
  5
6D
330
27C
100
AcDbEntity
  8
MIRCO_250
  6
Continuous
100
AcDbCircle
 10
255.2673765701
 20
552.6068524501
 30
0.0
 40
0.1196925635
100
AcDbArc
 50
11.5064277701
 51
48.49077224429999
  0
ARC
  5
6E
330
27C
100
AcDbEntity
  8
MIRCO_500
  6
Continuous
100
AcDbCircle
 10
255.2671997327
 20
552.6067503588
 30
0.0
 40
0.0588239294
100
AcDbArc
 50
11.5064126623
 51
48.490787352
  0
ARC
  5
6F
330
27C
100
AcDbEntity
  8
MIRCO_250
  6
Continuous
100
AcDbCircle
 10
256.9685886013
 20
551.8603407503
 30
0.0
 40
0.1307087003
100
AcDbArc
 50
168.4238081525
 51
311.5078096554
  0
ELLIPSE
  5
70
330
27C
100
AcDbEntity
  8
MIRCO_500
  6
Continuous
100
AcDbEllipse
 10
256.9517900709
 20
551.8312842348
 30
0.0
 11
0.039113786284247
 21
-0.04419793868089528
 31
0.0
210
0.0
220
0.0
230
1.0
 40
1.0
 41
3.787091763716842
 42
6.283185307179586
1001
QCAD
1000
reversed:1
  0
ARC
  5
71
330
27C
100
AcDbEntity
  8
MIRCO_250
  6
Continuous
100
AcDbCircle
 10
255.9384120601
 20
552.7862858645
 30
0.0
 40
0.1201375764
100
AcDbArc
 50
161.575131301
 51
198.4220682752
  0
ARC
  5
72
330
27C
100
AcDbEntity
  8
MIRCO_500
  6
Continuous
100
AcDbCircle
 10
255.938370753
 20
552.7862853655
 30
0.0
 40
0.0590355967
100
AcDbArc
 50
161.5751032496
 51
198.4220963269
  0
LINE
  5
73
330
27C
100
AcDbEntity
  8
MIRCO_250
  6
Continuous
100
AcDbLine
 10
257.6240420366
 20
552.2658539395
 30
0.0
 11
257.0552121493
 21
551.7624575277
 31
0.0
  0
LINE
  5
74
330
27C
100
AcDbEntity
  8
MIRCO_500
  6
Continuous
100
AcDbLine
 10
257.5835261803
 20
552.3115384219
 30
0.0
 11
256.9909038572
 21
551.7870862962
 31
0.0
  0
LINE
  5
75
330
27C
100
AcDbEntity
  8
MIRCO_500
  6
Continuous
100
AcDbLine
 10
257.0527002081
 20
552.618010868
 30
0.0
 11
256.8939566377
 21
551.8430587863
 31
0.0
  0
LINE
  5
76
330
27C
100
AcDbEntity
  8
MIRCO_250
  6
Continuous
100
AcDbLine
 10
256.9928772212
 20
552.6302524113
 30
0.0
 11
256.8405386834
 21
551.8865701776
 31
0.0
  0
LINE
  5
77
330
27C
100
AcDbEntity
  8
MIRCO_250
  6
Continuous
100
AcDbLine
 10
255.8244310102
 20
552.74832065
 30
0.0
 11
256.0643254092
 21
552.0280977872
 31
0.0
  0
LINE
  5
78
330
27C
100
AcDbEntity
  8
MIRCO_500
  6
Continuous
100
AcDbLine
 10
255.8823604821
 20
552.7676292343
 30
0.0
 11
256.132342141
 21
552.017123125
 31
0.0
  0
ARC
  5
79
330
27C
100
AcDbEntity
  8
MIRCO_500
  6
Continuous
100
AcDbCircle
 10
256.1883150985
 20
552.0358414073
 30
0.0
 40
0.0590198785
100
AcDbArc
 50
198.4907871331
 51
341.5064124434
  0
LINE
  5
7A
330
27C
100
AcDbEntity
  8
MIRCO_500
  6
Continuous
100
AcDbLine
 10
256.4953054819
 20
552.767614255
 30
0.0
 11
256.244287141
 21
552.0171203892
 31
0.0
  0
ARC
  5
7B
330
27C
100
AcDbEntity
  8
MIRCO_250
  6
Continuous
100
AcDbCircle
 10
256.1883356185
 20
552.0694043526
 30
0.0
 40
0.1307087003
100
AcDbArc
 50
198.4224021236
 51
341.5064036265
  0
LINE
  5
7C
330
27C
100
AcDbEntity
  8
MIRCO_250
  6
Continuous
100
AcDbLine
 10
256.5532350101
 20
552.7483068393
 30
0.0
 11
256.3122944055
 21
552.0279437272
 31
0.0
  0
ARC
  5
7D
330
27C
100
AcDbEntity
  8
MIRCO_250
  6
Continuous
100
AcDbCircle
 10
257.5447190888
 20
552.3554875254
 30
0.0
 40
0.1196925635
100
AcDbArc
 50
311.5078335799
 51
348.4921780543
  0
ARC
  5
7E
330
27C
100
AcDbEntity
  8
MIRCO_250
  6
Continuous
100
AcDbCircle
 10
257.6854640801
 20
553.1020054604
 30
0.0
 40
0.1307085065
100
AcDbArc
 50
348.4921780542
 51
131.5766895267
  0
LINE
  5
7F
330
27C
100
AcDbEntity
  8
MIRCO_250
  6
Continuous
100
AcDbLine
 10
257.813545016
 20
553.0759288897
 30
0.0
 11
257.6620055299
 21
552.3316086542
 31
0.0
  0
CIRCLE
  5
80
330
27C
100
AcDbEntity
  8
MIRCO_250
  6
Continuous
100
AcDbCircle
 10
252.1687465625
 20
545.8940032408
 30
0.0
 40
0.369413
  0
CIRCLE
  5
81
330
27C
100
AcDbEntity
  8
MIRCO_500
  6
Continuous
100
AcDbCircle
 10
251.3927041227
 20
544.9130689381
 30
0.0
 40
0.302484
  0
ARC
  5
82
330
27C
100
AcDbEntity
  8
DF500
  6
Continuous
100
AcDbCircle
 10
251.6803523599
 20
546.7436607089
 30
0.0
 40
0.25
100
AcDbArc
 50
319.6354914922
 51
139.6354914921
  0
LINE
  5
83
330
27C
100
AcDbEntity
  8
DF500
  6
Continuous
100
AcDbLine
 10
251.8708372687
 20
546.5817486971
 30
0.0
 11
251.4660572394
 21
546.1055364253
 31
0.0
  0
CIRCLE
  5
84
330
27C
100
AcDbEntity
  8
DF500
  6
Continuous
100
AcDbCircle
 10
251.8511381117
 20
549.1253988202
 30
0.0
 40
0.0445
  0
CIRCLE
  5
85
330
27C
100
AcDbEntity
  8
DF500
  6
Continuous
100
AcDbCircle
 10
252.0237635469
 20
547.3483735225
 30
0.0
 40
0.0445
  0
LINE
  5
86
330
27C
100
AcDbEntity
  8
DF500
  6
Continuous
100
AcDbLine
 10
252.8360783857
 20
549.0674818779
 30
0.0
 11
252.8360783857
 21
547.3674818779
 31
0.0
  0
LINE
  5
87
330
27C
100
AcDbEntity
  8
DF500
  6
Continuous
100
AcDbLine
 10
253.0160783857
 20
549.0674818779
 30
0.0
 11
253.0160783857
 21
547.3674818779
 31
0.0
  0
CIRCLE
  5
88
330
27C
100
AcDbEntity
  8
DF500
  6
Continuous
100
AcDbCircle
 10
254.0140336872
 20
548.2521183236
 30
0.0
 40
0.25
  0
CIRCLE
  5
89
330
27C
100
AcDbEntity
  8
DF500
  6
Continuous
100
AcDbCircle
 10
254.0140336872
 20
547.505766776
 30
0.0
 40
0.0445
  0
ARC
  5
8A
330
27C
100
AcDbEntity
  8
DF500
  6
Continuous
100
AcDbCircle
 10
252.9260783857
 20
547.3674818779
 30
0.0
 40
0.09
100
AcDbArc
 50
180.0
 51
0.0
  0
ARC
  5
8B
330
27C
100
AcDbEntity
  8
DF500
  6
Continuous
100
AcDbCircle
 10
252.9260783857
 20
549.0674818779
 30
0.0
 40
0.09
100
AcDbArc
 50
0.0
 51
180.0
  0
CIRCLE
  5
8C
330
27C
100
AcDbEntity
  8
DF500
  6
Continuous
100
AcDbCircle
 10
254.0140336872
 20
548.9984698712
 30
0.0
 40
0.0445
  0
CIRCLE
  5
8D
330
27C
100
AcDbEntity
  8
MIRCO_500
  6
Continuous
100
AcDbCircle
 10
259.326689109
 20
550.1996452066
 30
0.0
 40
0.302484
  0
CIRCLE
  5
8E
330
27C
100
AcDbEntity
  8
MIRCO_250
  6
Continuous
100
AcDbCircle
 10
259.326689109
 20
550.1996452066
 30
0.0
 40
0.369413
  0
LINE
  5
8F
330
27C
100
AcDbEntity
  8
DF500
  6
Continuous
100
AcDbLine
 10
259.2366819463
 20
549.1012887824
 30
0.0
 11
259.2366819463
 21
547.4012887824
 31
0.0
  0
LINE
  5
90
330
27C
100
AcDbEntity
  8
DF500
  6
Continuous
100
AcDbLine
 10
259.4166819463
 20
549.1012887824
 30
0.0
 11
259.4166819463
 21
547.4012887824
 31
0.0
  0
CIRCLE
  5
91
330
27C
100
AcDbEntity
  8
DF500
  6
Continuous
100
AcDbCircle
 10
258.2992073266
 20
548.3282763469
 30
0.0
 40
0.25
  0
CIRCLE
  5
92
330
27C
100
AcDbEntity
  8
DF500
  6
Continuous
100
AcDbCircle
 10
256.1883532513
 20
550.5089335146
 30
0.0
 40
0.59375
  0
CIRCLE
  5
93
330
27C
100
AcDbEntity
  8
DF500
  6
Continuous
100
AcDbCircle
 10
258.2992073266
 20
547.5819247993
 30
0.0
 40
0.0445
  0
ARC
  5
94
330
27C
100
AcDbEntity
  8
DF500
  6
Continuous
100
AcDbCircle
 10
259.3266819463
 20
547.4012887824
 30
0.0
 40
0.09
100
AcDbArc
 50
180.0
 51
0.0
  0
ARC
  5
95
330
27C
100
AcDbEntity
  8
DF500
  6
Continuous
100
AcDbCircle
 10
259.3266819463
 20
549.1012887824
 30
0.0
 40
0.09
100
AcDbArc
 50
0.0
 51
180.0
  0
CIRCLE
  5
96
330
27C
100
AcDbEntity
  8
DF500
  6
Continuous
100
AcDbCircle
 10
258.2992073266
 20
549.0746278945
 30
0.0
 40
0.0445
  0
CIRCLE
  5
97
330
27C
100
AcDbEntity
  8
DF500
  6
Continuous
100
AcDbCircle
 10
251.9019669453
 20
551.9106250947
 30
0.0
 40
0.0445
  0
LINE
  5
98
330
27C
100
AcDbEntity
  8
MIRCO_250
  6
Continuous
100
AcDbLine
 10
254.563207575
 20
553.0757869325
 30
0.0
 11
254.7155275169
 21
552.3321018583
 31
0.0
  0
ARC
  5
99
330
27C
100
AcDbEntity
  8
DF500
  6
Continuous
100
AcDbCircle
 10
265.7292906091
 20
536.6882480937
 30
0.0
 40
0.25
100
AcDbArc
 50
47.0952703164
 51
227.0952703164
  0
CIRCLE
  5
9A
330
27C
100
AcDbEntity
  8
DF500
  6
Continuous
100
AcDbCircle
 10
264.6508085781
 20
536.6608223831
 30
0.0
 40
0.0445
  0
CIRCLE
  5
9B
330
27C
100
AcDbEntity
  8
DF500
  6
Continuous
100
AcDbCircle
 10
267.0555556014
 20
539.3827342711
 30
0.0
 40
0.0445
  0
CIRCLE
  5
9C
330
27C
100
AcDbEntity
  8
MIRCO_250
  6
Continuous
100
AcDbCircle
 10
260.2758355117
 20
539.3869109797
 30
0.0
 40
0.369413
  0
CIRCLE
  5
9D
330
27C
100
AcDbEntity
  8
MIRCO_250
  6
Continuous
100
AcDbCircle
 10
259.7441457083
 20
540.8050673303
 30
0.0
 40
0.369413
  0
CIRCLE
  5
9E
330
27C
100
AcDbEntity
  8
MIRCO_500
  6
Continuous
100
AcDbCircle
 10
259.7441457083
 20
540.8050673303
 30
0.0
 40
0.302484
  0
CIRCLE
  5
9F
330
27C
100
AcDbEntity
  8
DF500
  6
Continuous
100
AcDbCircle
 10
262.269592519
 20
542.1594503994
 30
0.0
 40
0.25
  0
CIRCLE
  5
A0
330
27C
100
AcDbEntity
  8
DF500
  6
Continuous
100
AcDbCircle
 10
261.447082953
 20
542.3574624103
 30
0.0
 40
0.0445
  0
CIRCLE
  5
A1
330
27C
100
AcDbEntity
  8
DF500
  6
Continuous
100
AcDbCircle
 10
263.4525848098
 20
542.8042573185
 30
0.0
 40
0.0445
  0
CIRCLE
  5
A2
330
27C
100
AcDbEntity
  8
DF500
  6
Continuous
100
AcDbCircle
 10
263.7978357885
 20
543.2510522611
 30
0.0
 40
0.0445
  0
LINE
  5
A3
330
27C
100
AcDbEntity
  8
DF500
  6
Continuous
100
AcDbLine
 10
264.7747767401
 20
543.5635293397
 30
0.0
 11
265.4992434018
 21
543.3694982697
 31
0.0
  0
LINE
  5
A4
330
27C
100
AcDbEntity
  8
DF500
  6
Continuous
100
AcDbLine
 10
264.5160686469
 20
542.5975737907
 30
0.0
 11
265.2405353086
 21
542.4035427208
 31
0.0
  0
LINE
  5
A5
330
27C
100
AcDbEntity
  8
DF500
  6
Continuous
100
AcDbLine
 10
264.3867146003
 20
542.1145960163
 30
0.0
 11
265.111181262
 21
541.9205649463
 31
0.0
  0
ARC
  5
A6
330
27C
100
AcDbEntity
  8
DF500
  6
Continuous
100
AcDbCircle
 10
264.4513916236
 20
542.3560849035
 30
0.0
 40
0.25
100
AcDbArc
 50
75.0065812251
 51
255.0065812252
  0
ARC
  5
A7
330
27C
100
AcDbEntity
  8
DF500
  6
Continuous
100
AcDbCircle
 10
265.1758582853
 20
542.1620538336
 30
0.0
 40
0.25
100
AcDbArc
 50
255.0065812251
 51
75.00658122520001
  0
CIRCLE
  5
A8
330
27C
100
AcDbEntity
  8
MIRCO_250
  6
Continuous
100
AcDbCircle
 10
251.3927041227
 20
544.9130689381
 30
0.0
 40
0.369413
  0
ARC
  5
A9
330
27C
100
AcDbEntity
  8
DF500
  6
Continuous
100
AcDbCircle
 10
251.2755723306
 20
546.267448437
 30
0.0
 40
0.25
100
AcDbArc
 50
139.6354914921
 51
319.6354914922
  0
ARC
  5
AA
330
27C
100
AcDbEntity
  8
DF500
  6
Continuous
100
AcDbCircle
 10
250.7476712004
 20
545.6552028033
 30
0.0
 40
0.25
100
AcDbArc
 50
325.159080647
 51
145.159080647
  0
LINE
  5
AB
330
27C
100
AcDbEntity
  8
DF500
  6
Continuous
100
AcDbLine
 10
250.9528565526
 20
545.5123778363
 30
0.0
 11
250.5957941349
 21
544.9994144556
 31
0.0
  0
CIRCLE
  5
AC
330
27C
100
AcDbEntity
  8
DF500
  6
Continuous
100
AcDbCircle
 10
250.8304339529
 20
546.1221279046
 30
0.0
 40
0.0575
  0
CIRCLE
  5
AD
330
27C
100
AcDbEntity
  8
DF500
  6
Continuous
100
AcDbCircle
 10
251.4144971469
 20
548.1302649072
 30
0.0
 40
0.25
  0
LINE
  5
AE
330
27C
100
AcDbEntity
  8
DF500
  6
Continuous
100
AcDbLine
 10
251.0850874219
 20
546.4293604487
 30
0.0
 11
251.4898674512
 21
546.9055727206
 31
0.0
  0
CIRCLE
  5
AF
330
27C
100
AcDbEntity
  8
MIRCO_500
  6
Continuous
100
AcDbCircle
 10
252.9232140541
 20
550.211179471
 30
0.0
 40
0.302484
  0
CIRCLE
  5
B0
330
27C
100
AcDbEntity
  8
MIRCO_250
  6
Continuous
100
AcDbCircle
 10
252.9232140541
 20
550.211179471
 30
0.0
 40
0.369413
  0
CIRCLE
  5
B1
330
27C
100
AcDbEntity
  8
MIRCO_500
  6
Continuous
100
AcDbCircle
 10
252.1687465625
 20
545.8940032408
 30
0.0
 40
0.302484
  0
CIRCLE
  5
B2
330
27C
100
AcDbEntity
  8
DF500
  6
Continuous
100
AcDbCircle
 10
257.4766977508
 20
540.1996480201
 30
0.0
 40
0.25
  0
CIRCLE
  5
B3
330
27C
100
AcDbEntity
  8
DF500
  6
Continuous
100
AcDbCircle
 10
257.7051726406
 20
540.747988128
 30
0.0
 40
0.0575
  0
CIRCLE
  5
B4
330
27C
100
AcDbEntity
  8
MIRCO_250
  6
Continuous
100
AcDbCircle
 10
260.7915371026
 20
537.9271743601
 30
0.0
 40
0.369413
  0
CIRCLE
  5
B5
330
27C
100
AcDbEntity
  8
MIRCO_500
  6
Continuous
100
AcDbCircle
 10
260.7915371026
 20
537.9271743601
 30
0.0
 40
0.302484
  0
CIRCLE
  5
B6
330
27C
100
AcDbEntity
  8
MIRCO_500
  6
Continuous
100
AcDbCircle
 10
260.2758355117
 20
539.3869109797
 30
0.0
 40
0.302484
  0
CIRCLE
  5
B7
330
27C
100
AcDbEntity
  8
DF500
  6
Continuous
100
AcDbCircle
 10
262.2797470434
 20
539.5853009888
 30
0.0
 40
0.0445
  0
LINE
  5
B8
330
27C
100
AcDbEntity
  8
MIRCO_250
  6
Continuous
100
AcDbLine
 10
262.9176832309
 20
537.8951211648
 30
0.0
 11
262.9057502739
 21
537.1360902699
 31
0.0
  0
LINE
  5
B9
330
27C
100
AcDbEntity
  8
MIRCO_500
  6
Continuous
100
AcDbLine
 10
262.9787385152
 20
537.8941738488
 30
0.0
 11
262.9663041977
 21
537.1032278091
 31
0.0
  0
ELLIPSE
  5
BA
330
27C
100
AcDbEntity
  8
MIRCO_500
  6
Continuous
100
AcDbEllipse
 10
263.0253178542
 20
537.1023708328
 30
0.0
 11
0.04662453082403317
 21
-0.0361870030060345
 31
0.0
210
0.0
220
0.0
230
1.0
 40
1.0
 41
3.787091763715889
 42
6.283185307179586
1001
QCAD
1000
reversed:1
  0
LINE
  5
BB
330
27C
100
AcDbEntity
  8
MIRCO_500
  6
Continuous
100
AcDbLine
 10
263.5571511171
 20
537.6913427986
 30
0.0
 11
263.0719423851
 21
537.0661838298
 31
0.0
  0
ARC
  5
BC
330
27C
100
AcDbEntity
  8
MIRCO_250
  6
Continuous
100
AcDbCircle
 10
263.0364428363
 20
537.1340363738
 30
0.0
 40
0.1307087003
100
AcDbArc
 50
179.0996435615
 51
322.1836450645
  0
LINE
  5
BD
330
27C
100
AcDbEntity
  8
MIRCO_250
  6
Continuous
100
AcDbLine
 10
263.605428835
 20
537.653954719
 30
0.0
 11
263.1397000989
 21
537.0538946116
 31
0.0
  0
LINE
  5
BE
330
27C
100
AcDbEntity
  8
MIRCO_250
  6
Continuous
100
AcDbLine
 10
263.4075354533
 20
538.5670293245
 30
0.0
 11
262.9428113887
 21
537.9667790449
 31
0.0
  0
ARC
  5
BF
330
27C
100
AcDbEntity
  8
MIRCO_250
  6
Continuous
100
AcDbCircle
 10
263.0378059635
 20
537.8932326785
 30
0.0
 40
0.1201375764
100
AcDbArc
 50
142.252372739
 51
179.0993097132
  0
LINE
  5
C0
330
27C
100
AcDbEntity
  8
MIRCO_500
  6
Continuous
100
AcDbLine
 10
263.4753515789
 20
538.5548764591
 30
0.0
 11
262.9910865083
 21
537.9293865779
 31
0.0
  0
ELLIPSE
  5
C1
330
27C
100
AcDbEntity
  8
MIRCO_500
  6
Continuous
100
AcDbEllipse
 10
263.0377668181
 20
537.8932458757
 30
0.0
 11
-0.0361407022165016
 21
-0.0466803098306701
 31
0.0
210
0.0
220
0.0
230
1.0
 40
1.0
 41
4.71238898038502
 42
5.355490329044096
  0
ELLIPSE
  5
C2
330
27C
100
AcDbEntity
  8
MIRCO_500
  6
Continuous
100
AcDbEllipse
 10
263.5220007892
 20
538.5187598346
 30
0.0
 11
0.0361166244668425
 21
0.04664921035714542
 31
0.0
210
0.0
220
0.0
230
1.0
 40
1.0
 41
5.355490329044421
 42
7.85398163397431
1001
QCAD
1000
reversed:1
  0
ARC
  5
C3
330
27C
100
AcDbEntity
  8
MIRCO_500
  6
Continuous
100
AcDbCircle
 10
263.5106813822
 20
537.7274096588
 30
0.0
 40
0.0588239294
100
AcDbArc
 50
322.1836538813999
 51
359.168028571
  0
LINE
  5
C4
330
27C
100
AcDbEntity
  8
MIRCO_500
  6
Continuous
100
AcDbLine
 10
263.5809897662
 20
538.5178324798
 30
0.0
 11
263.5694991102
 21
537.7265555277
 31
0.0
  0
LINE
  5
C5
330
27C
100
AcDbEntity
  8
MIRCO_250
  6
Continuous
100
AcDbLine
 10
263.6415835593
 20
538.4851139337
 30
0.0
 11
263.6305540145
 21
537.7256041062
 31
0.0
  0
ARC
  5
C6
330
27C
100
AcDbEntity
  8
MIRCO_250
  6
Continuous
100
AcDbCircle
 10
263.510888833
 20
538.4870118727
 30
0.0
 40
0.1307085065
100
AcDbArc
 50
359.1680134633
 51
142.2525249358
  0
ARC
  5
C7
330
27C
100
AcDbEntity
  8
MIRCO_250
  6
Continuous
100
AcDbCircle
 10
263.5108740697
 20
537.7273420894
 30
0.0
 40
0.1196925635
100
AcDbArc
 50
322.1836689889
 51
359.1680134634
  0
ARC
  5
C8
330
27C
100
AcDbEntity
  8
DF500
  6
Continuous
100
AcDbCircle
 10
266.187094799
 20
536.2627597581
 30
0.0
 40
0.25
100
AcDbArc
 50
227.0952703164
 51
47.09527031649999
  0
LINE
  5
C9
330
27C
100
AcDbEntity
  8
DF500
  6
Continuous
100
AcDbLine
 10
266.0168994647
 20
536.0796380822
 30
0.0
 11
265.5590952749
 21
536.5051264178
 31
0.0
  0
LINE
  5
CA
330
27C
100
AcDbEntity
  8
DF500
  6
Continuous
100
AcDbLine
 10
265.8994859434
 20
536.8713697697
 30
0.0
 11
266.3572901332
 21
536.4458814341
 31
0.0
  0
ELLIPSE
  5
CB
330
27C
100
AcDbEntity
  8
MIRCO_500
  6
Continuous
100
AcDbEllipse
 10
255.9574104647
 20
538.6932824424
 30
0.0
 11
-0.0186588687794586
 21
-0.0560093590256141
 31
0.0
210
0.0
220
0.0
230
1.0
 40
1.0
 41
4.712388980385192
 42
5.355490329044333
  0
ELLIPSE
  5
CC
330
27C
100
AcDbEntity
  8
MIRCO_500
  6
Continuous
100
AcDbEllipse
 10
256.2073914909
 20
539.4437887636
 30
0.0
 11
0.01864643782090525
 21
0.05597204432945091
 31
0.0
210
0.0
220
0.0
230
1.0
 40
1.0
 41
5.355490329041618
 42
7.853981633973569
1001
QCAD
1000
reversed:1
  0
ARC
  5
CD
330
27C
100
AcDbEntity
  8
MIRCO_500
  6
Continuous
100
AcDbCircle
 10
256.4585589812
 20
538.6932701952
 30
0.0
 40
0.0588239294
100
AcDbArc
 50
341.5064124434
 51
18.4907871331
  0
LINE
  5
CE
330
27C
100
AcDbEntity
  8
MIRCO_500
  6
Continuous
100
AcDbLine
 10
256.2633644465
 20
539.4624324656
 30
0.0
 11
256.5143461055
 21
538.7119263318
 31
0.0
  0
LINE
  5
CF
330
27C
100
AcDbEntity
  8
MIRCO_250
  6
Continuous
100
AcDbLine
 10
256.331371182
 20
539.4516068037
 30
0.0
 11
256.5722765773
 21
538.7312309161
 31
0.0
  0
ARC
  5
D0
330
27C
100
AcDbEntity
  8
MIRCO_250
  6
Continuous
100
AcDbCircle
 10
256.2074105351
 20
539.4101523503
 30
0.0
 40
0.1307085065
100
AcDbArc
 50
18.4907720254
 51
161.5752834977
  0
ARC
  5
D1
330
27C
100
AcDbEntity
  8
MIRCO_250
  6
Continuous
100
AcDbCircle
 10
256.4587631725
 20
538.6932701902
 30
0.0
 40
0.1196925635
100
AcDbArc
 50
341.5064275512
 51
18.4907720254
  0
LINE
  5
D2
330
27C
100
AcDbEntity
  8
MIRCO_250
  6
Continuous
100
AcDbLine
 10
250.781276637
 20
542.0022635516
 30
0.0
 11
251.4624957508
 21
541.6662317856
 31
0.0
  0
LINE
  5
D3
330
27C
100
AcDbEntity
  8
MIRCO_500
  6
Continuous
100
AcDbLine
 10
250.7257128154
 20
541.9615846535
 30
0.0
 11
251.4354245698
 21
541.6114982704
 31
0.0
  0
LINE
  5
D4
330
27C
100
AcDbEntity
  8
MIRCO_500
  6
Continuous
100
AcDbLine
 10
250.646904143
 20
541.8820807153
 30
0.0
 11
251.0039146167
 21
541.1761814508
 31
0.0
  0
ELLIPSE
  5
D5
330
27C
100
AcDbEntity
  8
MIRCO_500
  6
Continuous
100
AcDbEllipse
 10
251.0565958788
 20
541.2028251424
 30
0.0
 11
0.0266436916537817
 21
-0.052681262111375
 31
0.0
210
0.0
220
0.0
230
1.0
 40
1.0
 41
4.712388980385418
 42
5.355490329044175
  0
ARC
  5
D6
330
27C
100
AcDbEntity
  8
MIRCO_250
  6
Continuous
100
AcDbCircle
 10
251.0566246037
 20
541.202854831
 30
0.0
 40
0.1201375764
100
AcDbArc
 50
206.8281573126
 51
243.6750942868
  0
LINE
  5
D7
330
27C
100
AcDbEntity
  8
MIRCO_500
  6
Continuous
100
AcDbLine
 10
251.0304159294
 20
541.1499118933
 30
0.0
 11
251.7394236893
 21
540.7991153049
 31
0.0
  0
LINE
  5
D8
330
27C
100
AcDbEntity
  8
MIRCO_250
  6
Continuous
100
AcDbLine
 10
251.0033482932
 20
541.0951762723
 30
0.0
 11
251.6837470071
 21
540.7585341999
 31
0.0
  0
ARC
  5
D9
330
27C
100
AcDbEntity
  8
MIRCO_250
  6
Continuous
100
AcDbCircle
 10
250.7234530538
 20
541.8850409134
 30
0.0
 40
0.1307085065
100
AcDbArc
 50
63.74379803679999
 51
206.8283095093
  0
ELLIPSE
  5
DA
330
27C
100
AcDbEntity
  8
MIRCO_500
  6
Continuous
100
AcDbEllipse
 10
250.6995503076
 20
541.9087066563
 30
0.0
 11
-0.02662594102645244
 21
0.0526461646683174
 31
0.0
210
0.0
220
0.0
230
1.0
 40
1.0
 41
5.355490329041514
 42
7.853981633975125
1001
QCAD
1000
reversed:1
  0
LINE
  5
DB
330
27C
100
AcDbEntity
  8
MIRCO_250
  6
Continuous
100
AcDbLine
 10
250.6068136275
 20
541.8260497454
 30
0.0
 11
250.9494181396
 21
541.1486348041
 31
0.0
  0
ARC
  5
DC
330
27C
100
AcDbEntity
  8
MIRCO_250
  6
Continuous
100
AcDbCircle
 10
251.409545464
 20
541.558888519
 30
0.0
 40
0.1196925635
100
AcDbArc
 50
26.7594535625
 51
63.7437980369
  0
ARC
  5
DD
330
27C
100
AcDbEntity
  8
MIRCO_500
  6
Continuous
100
AcDbCircle
 10
251.4094017144
 20
541.5587435012
 30
0.0
 40
0.0588239294
100
AcDbArc
 50
26.7594384549
 51
63.7438131448
  0
LINE
  5
DE
330
27C
100
AcDbEntity
  8
MIRCO_250
  6
Continuous
100
AcDbLine
 10
251.5164195126
 20
541.6127795897
 30
0.0
 11
251.8584209476
 21
540.9345389196
 31
0.0
  0
ARC
  5
DF
330
27C
100
AcDbEntity
  8
MIRCO_250
  6
Continuous
100
AcDbCircle
 10
251.7417105145
 20
540.8756879286
 30
0.0
 40
0.1307087003
100
AcDbArc
 50
243.6754281351
 51
26.75942963809999
  0
LINE
  5
E0
330
27C
100
AcDbEntity
  8
MIRCO_500
  6
Continuous
100
AcDbLine
 10
251.4619258825
 20
541.5852287129
 30
0.0
 11
251.8182323617
 21
540.878619243
 31
0.0
  0
ELLIPSE
  5
E1
330
27C
100
AcDbEntity
  8
MIRCO_500
  6
Continuous
100
AcDbEllipse
 10
251.7655332297
 20
540.8520458061
 30
0.0
 11
0.05269913198225142
 21
0.02657343691441839
 31
0.0
210
0.0
220
0.0
230
1.0
 40
1.0
 41
3.787091763718254
 42
6.283185307179586
1001
QCAD
1000
reversed:1
  0
CIRCLE
  5
E2
330
27C
100
AcDbEntity
  8
DF500
  6
Continuous
100
AcDbCircle
 10
257.7407131695
 20
539.6614634683
 30
0.0
 40
0.0575
  0
CIRCLE
  5
E3
330
27C
100
AcDbEntity
  8
DF500
  6
Continuous
100
AcDbCircle
 10
258.2027401387
 20
540.1945719508
 30
0.0
 40
0.0445
  0
LINE
  5
E4
330
27C
100
AcDbEntity
  8
MIRCO_250
  6
Continuous
100
AcDbLine
 10
252.524712926
 20
537.350825922
 30
0.0
 11
253.0783452733
 21
536.8314415957
 31
0.0
  0
LINE
  5
E5
330
27C
100
AcDbEntity
  8
MIRCO_500
  6
Continuous
100
AcDbLine
 10
252.5432219851
 20
537.4171895698
 30
0.0
 11
253.1201337147
 21
536.875965858
 31
0.0
  0
ELLIPSE
  5
E6
330
27C
100
AcDbEntity
  8
MIRCO_500
  6
Continuous
100
AcDbEllipse
 10
252.583586601
 20
537.4602158081
 30
0.0
 11
-0.04302623821936891
 21
0.04036461587224949
 31
0.0
210
0.0
220
0.0
230
1.0
 40
1.0
 41
5.355490329040862
 42
7.853981633975121
1001
QCAD
1000
reversed:1
  0
LINE
  5
E7
330
27C
100
AcDbEntity
  8
MIRCO_500
  6
Continuous
100
AcDbLine
 10
252.5900859921
 20
537.5188529746
 30
0.0
 11
253.3767334623
 21
537.4326148879
 31
0.0
  0
LINE
  5
E8
330
27C
100
AcDbEntity
  8
MIRCO_250
  6
Continuous
100
AcDbLine
 10
252.628385918
 20
537.576082571
 30
0.0
 11
253.3834521029
 21
537.4933064557
 31
0.0
  0
LINE
  5
E9
330
27C
100
AcDbEntity
  8
MIRCO_250
  6
Continuous
100
AcDbLine
 10
253.1473069269
 20
536.7996521881
 30
0.0
 11
253.9018109249
 21
536.7160219793
 31
0.0
  0
LINE
  5
EA
330
27C
100
AcDbEntity
  8
MIRCO_500
  6
Continuous
100
AcDbLine
 10
253.1540215163
 20
536.8603445223
 30
0.0
 11
253.9402503523
 21
536.7731982807
 31
0.0
  0
ELLIPSE
  5
EB
330
27C
100
AcDbEntity
  8
MIRCO_500
  6
Continuous
100
AcDbEllipse
 10
253.9466820129
 20
536.8318666691
 30
0.0
 11
0.04043234632183612
 21
0.04299501636273817
 31
0.0
210
0.0
220
0.0
230
1.0
 40
1.0
 41
3.787091763714914
 42
6.283185307179586
1001
QCAD
1000
reversed:1
  0
LINE
  5
EC
330
27C
100
AcDbEntity
  8
MIRCO_500
  6
Continuous
100
AcDbLine
 10
253.4106212639
 20
537.4169935523
 30
0.0
 11
253.9871143592
 21
536.8748616855
 31
0.0
  0
ARC
  5
ED
330
27C
100
AcDbEntity
  8
MIRCO_250
  6
Continuous
100
AcDbCircle
 10
253.9162099049
 20
536.8459351569
 30
0.0
 40
0.1307087003
100
AcDbArc
 50
263.6754127055
 51
46.7594142085
  0
LINE
  5
EE
330
27C
100
AcDbEntity
  8
MIRCO_250
  6
Continuous
100
AcDbLine
 10
253.4524055831
 20
537.4615208159
 30
0.0
 11
254.0057536389
 21
536.9411542939
 31
0.0
  0
ARC
  5
EF
330
27C
100
AcDbEntity
  8
MIRCO_250
  6
Continuous
100
AcDbCircle
 10
253.1605420788
 20
536.9190585029
 30
0.0
 40
0.1201375764
100
AcDbArc
 50
226.828141883
 51
263.6750788572
  0
ELLIPSE
  5
F0
330
27C
100
AcDbEntity
  8
MIRCO_500
  6
Continuous
100
AcDbEllipse
 10
253.1605252403
 20
536.9190207804
 30
0.0
 11
0.0430549223781755
 21
-0.0403915256161299
 31
0.0
210
0.0
220
0.0
230
1.0
 40
1.0
 41
4.712388980384371
 42
5.355490329044557
  0
ARC
  5
F1
330
27C
100
AcDbEntity
  8
MIRCO_500
  6
Continuous
100
AcDbCircle
 10
253.3703231551
 20
537.3741412817
 30
0.0
 40
0.0588239294
100
AcDbArc
 50
46.7594230253
 51
83.7437977144
  0
ARC
  5
F2
330
27C
100
AcDbEntity
  8
MIRCO_250
  6
Continuous
100
AcDbCircle
 10
253.3704086366
 20
537.374326719
 30
0.0
 40
0.1196925635
100
AcDbArc
 50
46.7594381329
 51
83.7437826073
  0
ARC
  5
F3
330
27C
100
AcDbEntity
  8
MIRCO_250
  6
Continuous
100
AcDbCircle
 10
252.6141419921
 20
537.4461524965
 30
0.0
 40
0.1307085065
100
AcDbArc
 50
83.7437826073
 51
226.8282940797
  0
ARC
  5
F4
330
27C
100
AcDbEntity
  8
MIRCO_250
  6
Continuous
100
AcDbCircle
 10
255.9574517718
 20
538.6932829414
 30
0.0
 40
0.1201375764
100
AcDbArc
 50
161.5751313012
 51
198.4220682752
  0
LINE
  5
F5
330
27C
100
AcDbEntity
  8
MIRCO_250
  6
Continuous
100
AcDbLine
 10
255.8434707219
 20
538.6553177269
 30
0.0
 11
256.0833651209
 21
537.9350948641
 31
0.0
  0
LINE
  5
F6
330
27C
100
AcDbEntity
  8
MIRCO_500
  6
Continuous
100
AcDbLine
 10
255.9014001937
 20
538.6746263112
 30
0.0
 11
256.1513818527
 21
537.9241202018
 31
0.0
  0
ELLIPSE
  5
F7
330
27C
100
AcDbEntity
  8
MIRCO_500
  6
Continuous
100
AcDbEllipse
 10
256.2073548102
 20
537.9428384842
 30
0.0
 11
0.05597204250693723
 21
-0.01872101810067761
 31
0.0
210
0.0
220
0.0
230
1.0
 40
1.0
 41
3.787091763716203
 42
6.283185307179586
1001
QCAD
1000
reversed:1
  0
LINE
  5
F8
330
27C
100
AcDbEntity
  8
MIRCO_500
  6
Continuous
100
AcDbLine
 10
256.5143451936
 20
538.6746113319
 30
0.0
 11
256.2633268527
 21
537.9241174661
 31
0.0
  0
ARC
  5
F9
330
27C
100
AcDbEntity
  8
MIRCO_250
  6
Continuous
100
AcDbCircle
 10
256.2073753302
 20
537.9764014294
 30
0.0
 40
0.1307087003
100
AcDbArc
 50
198.4224021235
 51
341.5064036265
  0
LINE
  5
FA
330
27C
100
AcDbEntity
  8
MIRCO_250
  6
Continuous
100
AcDbLine
 10
256.5722747217
 20
538.6553039161
 30
0.0
 11
256.3313341172
 21
537.9349408041
 31
0.0
  0
LINE
  5
FB
330
27C
100
AcDbEntity
  8
MIRCO_250
  6
Continuous
100
AcDbLine
 10
256.0834021784
 20
539.4514638636
 30
0.0
 11
255.8434725776
 21
538.7312537269
 31
0.0
  0
LINE
  5
FC
330
27C
100
AcDbEntity
  8
MIRCO_500
  6
Continuous
100
AcDbLine
 10
256.1514194465
 20
539.4624352014
 30
0.0
 11
255.9014011057
 21
538.7119413112
 31
0.0
  0
CIRCLE
  5
FD
330
27C
100
AcDbEntity
  8
DF500
  6
Continuous
100
AcDbCircle
 10
248.3377021376
 20
541.5451111331
 30
0.0
 40
0.0445
  0
CIRCLE
  5
FE
330
27C
100
AcDbEntity
  8
DF500
  6
Continuous
100
AcDbCircle
 10
249.4242280136
 20
541.1693970415
 30
0.0
 40
0.0445
  0
LINE
  5
FF
330
27C
100
AcDbEntity
  8
DF500
  6
Continuous
100
AcDbLine
 10
250.1854234304
 20
545.2850643898
 30
0.0
 11
250.5424858481
 21
545.7980277704
 31
0.0
  0
ARC
  5
100
330
27C
100
AcDbEntity
  8
DF500
  6
Continuous
100
AcDbCircle
 10
250.3906087826
 20
545.1422394227
 30
0.0
 40
0.25
100
AcDbArc
 50
145.159080647
 51
325.159080647
  0
CIRCLE
  5
101
330
27C
100
AcDbEntity
  8
DF500
  6
Continuous
100
AcDbCircle
 10
249.9877982597
 20
544.6117514063
 30
0.0
 40
0.0445
  0
CIRCLE
  5
102
330
27C
100
AcDbEntity
  8
DF500
  6
Continuous
100
AcDbCircle
 10
250.25
 20
546.6337017277
 30
0.0
 40
0.25
  0
CIRCLE
  5
103
330
27C
100
AcDbEntity
  8
DF500
  6
Continuous
100
AcDbCircle
 10
247.3055556014
 20
545.3827342711
 30
0.0
 40
0.0445
  0
CIRCLE
  5
104
330
27C
100
AcDbEntity
  8
DF500
  6
Continuous
100
AcDbCircle
 10
247.3055556014
 20
551.3827342711
 30
0.0
 40
0.0445
  0
CIRCLE
  5
105
330
27C
100
AcDbEntity
  8
DF500
  6
Continuous
100
AcDbCircle
 10
249.2465238131
 20
552.4408231035
 30
0.0
 40
0.25
  0
CIRCLE
  5
106
330
27C
100
AcDbEntity
  8
DF500
  6
Continuous
100
AcDbCircle
 10
249.4805556014
 20
554.1327342711
 30
0.0
 40
0.0445
  0
LINE
  5
107
330
27C
100
AcDbEntity
  8
DF500
  6
Continuous
100
AcDbLine
 10
251.3729086723
 20
538.3116697985
 30
0.0
 11
250.7435217148
 21
534.9958747117
 31
0.0
  0
CIRCLE
  5
108
330
27C
100
AcDbEntity
  8
DF500
  6
Continuous
100
AcDbCircle
 10
250.7646135701
 20
538.6764817432
 30
0.0
 40
0.0445
  0
LINE
  5
109
330
27C
100
AcDbEntity
  8
DF500
  6
Continuous
100
AcDbLine
 10
251.8641375741
 20
538.2184272862
 30
0.0
 11
251.2347506165
 21
534.9026321994
 31
0.0
  0
ELLIPSE
  5
10A
330
27C
100
AcDbEntity
  8
MIRCO_500
  6
Continuous
100
AcDbEllipse
 10
252.9196486671
 20
535.6500126697
 30
0.0
 11
0.043054924879365
 21
-0.0403915229500131
 31
0.0
210
0.0
220
0.0
230
1.0
 40
1.0
 41
4.712388980384544
 42
5.355490329044411
  0
ARC
  5
10B
330
27C
100
AcDbEntity
  8
DF500
  6
Continuous
100
AcDbCircle
 10
251.6185231232
 20
538.2650485423
 30
0.0
 40
0.25
100
AcDbArc
 50
349.252275116
 51
169.252275116
  0
LINE
  5
10C
330
27C
100
AcDbEntity
  8
MIRCO_500
  6
Continuous
100
AcDbLine
 10
253.1697446599
 20
536.1479854571
 30
0.0
 11
253.7462377888
 21
535.605853626
 31
0.0
  0
LINE
  5
10D
330
27C
100
AcDbEntity
  8
MIRCO_250
  6
Continuous
100
AcDbLine
 10
253.2115289763
 20
536.1925127233
 30
0.0
 11
253.7648770644
 21
535.6721462356
 31
0.0
  0
LINE
  5
10E
330
27C
100
AcDbEntity
  8
MIRCO_250
  6
Continuous
100
AcDbLine
 10
252.2838363261
 20
536.081817772
 30
0.0
 11
252.8374687055
 21
535.56243348
 31
0.0
  0
LINE
  5
10F
330
27C
100
AcDbEntity
  8
MIRCO_500
  6
Continuous
100
AcDbLine
 10
252.3023453811
 20
536.148181421
 30
0.0
 11
252.8792571441
 21
535.6069577448
 31
0.0
  0
ELLIPSE
  5
110
330
27C
100
AcDbEntity
  8
MIRCO_500
  6
Continuous
100
AcDbEllipse
 10
252.3427099943
 20
536.1912076617
 30
0.0
 11
-0.04302624071888773
 21
0.04036461320788477
 31
0.0
210
0.0
220
0.0
230
1.0
 40
1.0
 41
5.355490329040892
 42
7.853981633974504
1001
QCAD
1000
reversed:1
  0
ARC
  5
111
330
27C
100
AcDbEntity
  8
MIRCO_250
  6
Continuous
100
AcDbCircle
 10
252.3732653863
 20
536.177144352
 30
0.0
 40
0.1307085065
100
AcDbArc
 50
83.7437861553
 51
226.8282976277
  0
ARC
  5
112
330
27C
100
AcDbEntity
  8
MIRCO_500
  6
Continuous
100
AcDbCircle
 10
253.1294465537
 20
536.105133184
 30
0.0
 40
0.0588239294
100
AcDbArc
 50
46.7594265733
 51
83.74380126299998
  0
ARC
  5
113
330
27C
100
AcDbEntity
  8
MIRCO_250
  6
Continuous
100
AcDbCircle
 10
253.1295320352
 20
536.1053186214
 30
0.0
 40
0.1196925635
100
AcDbArc
 50
46.7594416811
 51
83.7437861553
  0
LINE
  5
114
330
27C
100
AcDbEntity
  8
MIRCO_500
  6
Continuous
100
AcDbLine
 10
252.3492093817
 20
536.2498448287
 30
0.0
 11
253.1358568573
 21
536.1636067907
 31
0.0
  0
LINE
  5
115
330
27C
100
AcDbEntity
  8
MIRCO_250
  6
Continuous
100
AcDbLine
 10
252.3875093042
 20
536.3070744273
 30
0.0
 11
253.1425754942
 21
536.2242983589
 31
0.0
  0
ELLIPSE
  5
116
330
27C
100
AcDbEntity
  8
MIRCO_500
  6
Continuous
100
AcDbEllipse
 10
264.000267129
 20
534.3689026256
 30
0.0
 11
0.02825512894116855
 21
-0.05181692532028137
 31
0.0
210
0.0
220
0.0
230
1.0
 40
1.0
 41
3.787091763715824
 42
6.283185307179586
1001
QCAD
1000
reversed:1
  0
LINE
  5
117
330
27C
100
AcDbEntity
  8
MIRCO_500
  6
Continuous
100
AcDbLine
 10
264.7233027743
 20
534.6959409287
 30
0.0
 11
264.028522258
 21
534.3170857003
 31
0.0
  0
ARC
  5
118
330
27C
100
AcDbEntity
  8
MIRCO_250
  6
Continuous
100
AcDbCircle
 10
264.0231305833
 20
534.3934736283
 30
0.0
 40
0.1307087003
100
AcDbArc
 50
155.5190786538
 51
298.6030801568
  0
LINE
  5
119
330
27C
100
AcDbEntity
  8
MIRCO_250
  6
Continuous
100
AcDbLine
 10
264.7525925702
 20
534.6423618806
 30
0.0
 11
264.0857059432
 21
534.2787169785
 31
0.0
  0
LINE
  5
11A
330
27C
100
AcDbEntity
  8
MIRCO_250
  6
Continuous
100
AcDbLine
 10
264.9364882846
 20
535.5583582735
 30
0.0
 11
264.2704463612
 21
535.194137172
 31
0.0
  0
ARC
  5
11B
330
27C
100
AcDbEntity
  8
MIRCO_250
  6
Continuous
100
AcDbCircle
 10
264.3280873904
 20
535.088730583
 30
0.0
 40
0.1201375764
100
AcDbArc
 50
118.6718078316
 51
155.5187448055
  0
LINE
  5
11C
330
27C
100
AcDbEntity
  8
MIRCO_500
  6
Continuous
100
AcDbLine
 10
264.9937800503
 20
535.5200911519
 30
0.0
 11
264.2997320207
 21
535.1405551423
 31
0.0
  0
ELLIPSE
  5
11D
330
27C
100
AcDbEntity
  8
MIRCO_500
  6
Continuous
100
AcDbEllipse
 10
264.3280567931
 20
535.0887583378
 30
0.0
 11
-0.0517968044489924
 21
-0.0283247723991216
 31
0.0
210
0.0
220
0.0
230
1.0
 40
1.0
 41
4.712388980385036
 42
5.355490329045355
  0
ELLIPSE
  5
11E
330
27C
100
AcDbEntity
  8
MIRCO_500
  6
Continuous
100
AcDbEllipse
 10
265.0220859521
 20
535.4683288557
 30
0.0
 11
0.05176229625152473
 21
0.02830590179792125
 31
0.0
210
0.0
220
0.0
230
1.0
 40
1.0
 41
5.355490329041813
 42
7.853981633974021
1001
QCAD
1000
reversed:1
  0
ARC
  5
11F
330
27C
100
AcDbEntity
  8
MIRCO_500
  6
Continuous
100
AcDbCircle
 10
264.6951414539
 20
534.7475858191
 30
0.0
 40
0.0588239294
100
AcDbArc
 50
298.6030889737
 51
335.5874636635
  0
LINE
  5
120
330
27C
100
AcDbEntity
  8
MIRCO_500
  6
Continuous
100
AcDbLine
 10
265.0757782823
 20
535.4438810937
 30
0.0
 11
264.7487061271
 21
534.7232736727
 31
0.0
  0
LINE
  5
121
330
27C
100
AcDbEntity
  8
MIRCO_250
  6
Continuous
100
AcDbLine
 10
265.1182237341
 20
535.3896547657
 30
0.0
 11
264.804282249
 21
534.697977404
 31
0.0
  0
ARC
  5
122
330
27C
100
AcDbEntity
  8
MIRCO_250
  6
Continuous
100
AcDbCircle
 10
264.9992014644
 20
535.4436771036
 30
0.0
 40
0.1307085065
100
AcDbArc
 50
335.5874485556
 51
118.6719600279
  0
ARC
  5
123
330
27C
100
AcDbEntity
  8
MIRCO_250
  6
Continuous
100
AcDbCircle
 10
264.6952910214
 20
534.7474468094
 30
0.0
 40
0.1196925635
100
AcDbArc
 50
298.6031040814
 51
335.5874485556
  0
CIRCLE
  5
124
330
27C
100
AcDbEntity
  8
DF500
  6
Continuous
100
AcDbCircle
 10
266.4329127395
 20
535.2493556604
 30
0.0
 40
0.0445
  0
CIRCLE
  5
125
330
27C
100
AcDbEntity
  8
DF500
  6
Continuous
100
AcDbCircle
 10
267.0555556014
 20
533.3827342711
 30
0.0
 40
0.0445
  0
CIRCLE
  5
126
330
27C
100
AcDbEntity
  8
DF500
  6
Continuous
100
AcDbCircle
 10
248.7032618181
 20
535.691076715
 30
0.0
 40
0.0445
  0
CIRCLE
  5
127
330
27C
100
AcDbEntity
  8
DF500
  6
Continuous
100
AcDbCircle
 10
247.9315248372
 20
535.9906327635
 30
0.0
 40
0.0445
  0
CIRCLE
  5
128
330
27C
100
AcDbEntity
  8
DF500
  6
Continuous
100
AcDbCircle
 10
248.9774320862
 20
537.442717116
 30
0.0
 40
0.25
  0
CIRCLE
  5
129
330
27C
100
AcDbEntity
  8
DF500
  6
Continuous
100
AcDbCircle
 10
247.3055556014
 20
539.3827342711
 30
0.0
 40
0.0445
  0
CIRCLE
  5
12A
330
27C
100
AcDbEntity
  8
MIRCO_250
  6
Continuous
100
AcDbCircle
 10
249.6502221612
 20
542.9488870836
 30
0.0
 40
0.587598
  0
CIRCLE
  5
12B
330
27C
100
AcDbEntity
  8
MIRCO_500
  6
Continuous
100
AcDbCircle
 10
249.6502221612
 20
542.9488870836
 30
0.0
 40
0.5325
  0
CIRCLE
  5
12C
330
27C
100
AcDbEntity
  8
DF500
  6
Continuous
100
AcDbCircle
 10
248.8606560957
 20
540.0727179681
 30
0.0
 40
0.0445
  0
CIRCLE
  5
12D
330
27C
100
AcDbEntity
  8
DF500
  6
Continuous
100
AcDbCircle
 10
247.9264476304
 20
543.5556899529
 30
0.0
 40
0.0445
  0
CIRCLE
  5
12E
330
27C
100
AcDbEntity
  8
DF500
  6
Continuous
100
AcDbCircle
 10
249.6494086139
 20
540.6632359677
 30
0.0
 40
0.25
  0
LINE
  5
12F
330
27C
100
AcDbEntity
  8
MIRCO_250
  6
Continuous
100
AcDbLine
 10
252.1466328619
 20
535.0380662692
 30
0.0
 11
252.9016990631
 21
534.9552903026
 31
0.0
  0
ARC
  5
130
330
27C
100
AcDbEntity
  8
MIRCO_250
  6
Continuous
100
AcDbCircle
 10
252.8886556201
 20
534.8363105633
 30
0.0
 40
0.1196925635
100
AcDbArc
 50
46.75944940799999
 51
83.7437938823
  0
LINE
  5
131
330
27C
100
AcDbEntity
  8
MIRCO_250
  6
Continuous
100
AcDbLine
 10
252.9064303611
 20
535.5306440767
 30
0.0
 11
253.6609343642
 21
535.4470139146
 31
0.0
  0
LINE
  5
132
330
27C
100
AcDbEntity
  8
MIRCO_500
  6
Continuous
100
AcDbLine
 10
252.9131449467
 20
535.5913364113
 30
0.0
 11
253.6993737881
 21
535.5041902183
 31
0.0
  0
ELLIPSE
  5
133
330
27C
100
AcDbEntity
  8
MIRCO_500
  6
Continuous
100
AcDbEllipse
 10
253.7058054451
 20
535.5628586071
 30
0.0
 11
0.04043234365943249
 21
0.0429950188664634
 31
0.0
210
0.0
220
0.0
230
1.0
 40
1.0
 41
3.787091763716756
 42
6.283185307179586
1001
QCAD
1000
reversed:1
  0
ARC
  5
134
330
27C
100
AcDbEntity
  8
MIRCO_250
  6
Continuous
100
AcDbCircle
 10
253.6753333362
 20
535.5769270931
 30
0.0
 40
0.1307087003
100
AcDbArc
 50
263.6754162535
 51
46.75941775649999
  0
ARC
  5
135
330
27C
100
AcDbEntity
  8
MIRCO_250
  6
Continuous
100
AcDbCircle
 10
252.9196655056
 20
535.6500503923
 30
0.0
 40
0.1201375764
100
AcDbArc
 50
226.828145431
 51
263.6750824052
  0
CIRCLE
  5
136
330
27C
100
AcDbEntity
  8
DF500
  6
Continuous
100
AcDbCircle
 10
261.6247853661
 20
526.1814409869
 30
0.0
 40
0.0445
  0
ARC
  5
137
330
27C
100
AcDbEntity
  8
DF500
  6
Continuous
100
AcDbCircle
 10
261.2368950756
 20
524.6093370722
 30
0.0
 40
0.1875
100
AcDbArc
 50
338.1348826586
 51
84.4709247056
  0
ARC
  5
138
330
27C
100
AcDbEntity
  8
DF500
  6
Continuous
100
AcDbCircle
 10
260.4841899992
 20
524.6821998553
 30
0.0
 40
0.1875
100
AcDbArc
 50
84.4709247056
 51
231.7988390665
  0
LINE
  5
139
330
27C
100
AcDbEntity
  8
DF500
  6
Continuous
100
AcDbLine
 10
261.2549608625
 20
524.7959647158
 30
0.0
 11
260.5022557861
 21
524.8688274989
 31
0.0
  0
CIRCLE
  5
13A
330
27C
100
AcDbEntity
  8
DF500
  6
Continuous
100
AcDbCircle
 10
261.1333620558
 20
525.5272006749
 30
0.0
 40
0.25
  0
CIRCLE
  5
13B
330
27C
100
AcDbEntity
  8
MIRCO_250
  6
Continuous
100
AcDbCircle
 10
264.9191901063
 20
527.8134388035
 30
0.0
 40
0.587598
  0
CIRCLE
  5
13C
330
27C
100
AcDbEntity
  8
MIRCO_500
  6
Continuous
100
AcDbCircle
 10
264.9191901063
 20
527.8134388035
 30
0.0
 40
0.5325
  0
CIRCLE
  5
13D
330
27C
100
AcDbEntity
  8
DF500
  6
Continuous
100
AcDbCircle
 10
265.7119475534
 20
531.6648385153
 30
0.0
 40
0.0445
  0
CIRCLE
  5
13E
330
27C
100
AcDbEntity
  8
DF500
  6
Continuous
100
AcDbCircle
 10
263.9603066009
 20
527.080108916
 30
0.0
 40
0.0445
  0
CIRCLE
  5
13F
330
27C
100
AcDbEntity
  8
DF500
  6
Continuous
100
AcDbCircle
 10
267.0555556014
 20
527.3827342711
 30
0.0
 40
0.0445
  0
CIRCLE
  5
140
330
27C
100
AcDbEntity
  8
DF500
  6
Continuous
100
AcDbCircle
 10
264.7472755395
 20
524.7953599438
 30
0.0
 40
0.0445
  0
CIRCLE
  5
141
330
27C
100
AcDbEntity
  8
DF500
  6
Continuous
100
AcDbCircle
 10
264.3207890819
 20
525.5163251225
 30
0.0
 40
0.25
  0
CIRCLE
  5
142
330
27C
100
AcDbEntity
  8
DF500
  6
Continuous
100
AcDbCircle
 10
264.640654167
 20
529.5679465544
 30
0.0
 40
0.0445
  0
CIRCLE
  5
143
330
27C
100
AcDbEntity
  8
MIRCO_250
  6
Continuous
100
AcDbCircle
 10
262.132077896
 20
534.5550624751
 30
0.0
 40
0.495079
  0
CIRCLE
  5
144
330
27C
100
AcDbEntity
  8
MIRCO_500
  6
Continuous
100
AcDbCircle
 10
262.132077896
 20
534.5550624751
 30
0.0
 40
0.42815
  0
CIRCLE
  5
145
330
27C
100
AcDbEntity
  8
DF500
  6
Continuous
100
AcDbCircle
 10
265.0092277706
 20
532.2691406611
 30
0.0
 40
0.25
  0
LINE
  5
146
330
27C
100
AcDbEntity
  8
MIRCO_250
  6
Continuous
100
AcDbLine
 10
264.2187505555
 20
535.1385150563
 30
0.0
 11
263.9041726857
 21
534.4476380349
 31
0.0
  0
LINE
  5
147
330
27C
100
AcDbEntity
  8
MIRCO_500
  6
Continuous
100
AcDbLine
 10
264.274328668
 20
535.1132223983
 30
0.0
 11
263.9465240259
 21
534.3932957585
 31
0.0
  0
CIRCLE
  5
148
330
27C
100
AcDbEntity
  8
MIRCO_250
  6
Continuous
100
AcDbCircle
 10
256.211938632
 20
529.0672674127
 30
0.0
 40
0.369413
  0
CIRCLE
  5
149
330
27C
100
AcDbEntity
  8
MIRCO_500
  6
Continuous
100
AcDbCircle
 10
256.211938632
 20
529.0672674127
 30
0.0
 40
0.302484
  0
CIRCLE
  5
14A
330
27C
100
AcDbEntity
  8
MIRCO_250
  6
Continuous
100
AcDbCircle
 10
256.211938632
 20
527.6983815419
 30
0.0
 40
0.369413
  0
CIRCLE
  5
14B
330
27C
100
AcDbEntity
  8
MIRCO_500
  6
Continuous
100
AcDbCircle
 10
256.211938632
 20
527.6983815419
 30
0.0
 40
0.302484
  0
CIRCLE
  5
14C
330
27C
100
AcDbEntity
  8
MIRCO_250
  6
Continuous
100
AcDbCircle
 10
256.211938632
 20
524.9549298348
 30
0.0
 40
0.369413
  0
CIRCLE
  5
14D
330
27C
100
AcDbEntity
  8
MIRCO_500
  6
Continuous
100
AcDbCircle
 10
256.211938632
 20
524.9549298348
 30
0.0
 40
0.302484
  0
ARC
  5
14E
330
27C
100
AcDbEntity
  8
DF500
  6
Continuous
100
AcDbCircle
 10
250.9891361657
 20
534.9492534555
 30
0.0
 40
0.25
100
AcDbArc
 50
169.252275116
 51
349.252275116
  0
LINE
  5
14F
330
27C
100
AcDbEntity
  8
MIRCO_250
  6
Continuous
100
AcDbLine
 10
250.6947011743
 20
533.4196612611
 30
0.0
 11
250.8630979529
 21
532.6789738013
 31
0.0
  0
ARC
  5
150
330
27C
100
AcDbEntity
  8
MIRCO_250
  6
Continuous
100
AcDbCircle
 10
250.7356417887
 20
532.6499963869
 30
0.0
 40
0.1307087003
100
AcDbArc
 50
229.7245836329
 51
12.8085851359
  0
LINE
  5
151
330
27C
100
AcDbEntity
  8
MIRCO_500
  6
Continuous
100
AcDbLine
 10
250.6351727238
 20
533.4060608893
 30
0.0
 11
250.8106131735
 21
532.6343926325
 31
0.0
  0
ELLIPSE
  5
152
330
27C
100
AcDbEntity
  8
MIRCO_500
  6
Continuous
100
AcDbEllipse
 10
250.753061939
 20
532.6213082347
 30
0.0
 11
0.05755123451729105
 21
0.01308439783326776
 31
0.0
210
0.0
220
0.0
230
1.0
 40
1.0
 41
3.787091763716687
 42
6.283185307179586
1001
QCAD
1000
reversed:1
  0
ELLIPSE
  5
153
330
27C
100
AcDbEntity
  8
MIRCO_500
  6
Continuous
100
AcDbEllipse
 10
252.1018335676
 20
534.9221994975
 30
0.0
 11
-0.04302624616252616
 21
0.04036460740530857
 31
0.0
210
0.0
220
0.0
230
1.0
 40
1.0
 41
5.355490329040272
 42
7.853981633974835
1001
QCAD
1000
reversed:1
  0
ARC
  5
154
330
27C
100
AcDbEntity
  8
MIRCO_250
  6
Continuous
100
AcDbCircle
 10
252.1323889616
 20
534.908136192
 30
0.0
 40
0.1307085065
100
AcDbArc
 50
83.7437938823
 51
226.8283053546
  0
LINE
  5
155
330
27C
100
AcDbEntity
  8
MIRCO_250
  6
Continuous
100
AcDbLine
 10
252.0429599142
 20
534.8128095999
 30
0.0
 11
252.5965923637
 21
534.2934253825
 31
0.0
  0
LINE
  5
156
330
27C
100
AcDbEntity
  8
MIRCO_250
  6
Continuous
100
AcDbLine
 10
252.6655540235
 20
534.2616359885
 30
0.0
 11
253.420058038
 21
534.1780059282
 31
0.0
  0
LINE
  5
157
330
27C
100
AcDbEntity
  8
MIRCO_500
  6
Continuous
100
AcDbLine
 10
252.672268601
 20
534.322328324
 30
0.0
 11
253.4584974541
 21
534.2351822371
 31
0.0
  0
ELLIPSE
  5
158
330
27C
100
AcDbEntity
  8
MIRCO_500
  6
Continuous
100
AcDbEllipse
 10
253.4649291032
 20
534.2938506268
 30
0.0
 11
0.04043233786106271
 21
0.04299502431922519
 31
0.0
210
0.0
220
0.0
230
1.0
 40
1.0
 41
3.787091763716958
 42
6.283185307179586
1001
QCAD
1000
reversed:1
  0
LINE
  5
159
330
27C
100
AcDbEntity
  8
MIRCO_500
  6
Continuous
100
AcDbLine
 10
252.928868239
 20
534.8789774045
 30
0.0
 11
253.5053614411
 21
534.3368456511
 31
0.0
  0
ARC
  5
15A
330
27C
100
AcDbEntity
  8
MIRCO_250
  6
Continuous
100
AcDbCircle
 10
253.4344569925
 20
534.3079191086
 30
0.0
 40
0.1307087003
100
AcDbArc
 50
263.6754239805
 51
46.7594254835
  0
LINE
  5
15B
330
27C
100
AcDbEntity
  8
MIRCO_250
  6
Continuous
100
AcDbLine
 10
252.9706525495
 20
534.9235046763
 30
0.0
 11
253.5240007077
 21
534.4031382632
 31
0.0
  0
ARC
  5
15C
330
27C
100
AcDbEntity
  8
MIRCO_250
  6
Continuous
100
AcDbCircle
 10
252.6787891519
 20
534.3810423059
 30
0.0
 40
0.1201375764
100
AcDbArc
 50
226.828153158
 51
263.6750901322
  0
LINE
  5
15D
330
27C
100
AcDbEntity
  8
MIRCO_500
  6
Continuous
100
AcDbLine
 10
252.0614689602
 20
534.8791732513
 30
0.0
 11
252.6383807963
 21
534.337949653
 31
0.0
  0
ELLIPSE
  5
15E
330
27C
100
AcDbEntity
  8
MIRCO_500
  6
Continuous
100
AcDbEllipse
 10
252.6787723135
 20
534.3810045833
 30
0.0
 11
0.04305493032661971
 21
-0.0403915171435676
 31
0.0
210
0.0
220
0.0
230
1.0
 40
1.0
 41
4.712388980385428
 42
5.355490329044621
  0
ARC
  5
15F
330
27C
100
AcDbEntity
  8
MIRCO_500
  6
Continuous
100
AcDbCircle
 10
252.8885701387
 20
534.8361251259
 30
0.0
 40
0.0588239294
100
AcDbArc
 50
46.75943430029999
 51
83.7438089899
  0
LINE
  5
160
330
27C
100
AcDbEntity
  8
MIRCO_500
  6
Continuous
100
AcDbLine
 10
252.1083329472
 20
534.9808366654
 30
0.0
 11
252.8949804344
 21
534.8945987335
 31
0.0
  0
LINE
  5
161
330
27C
100
AcDbEntity
  8
DF500
  6
Continuous
100
AcDbLine
 10
266.1807716881
 20
518.4102106102
 30
0.0
 11
266.1807716881
 21
516.7352106102
 31
0.0
  0
LINE
  5
162
330
27C
100
AcDbEntity
  8
DF500
  6
Continuous
100
AcDbLine
 10
266.1807716881
 20
516.7352106102
 30
0.0
 11
267.3055556014
 21
516.7352106102
 31
0.0
  0
CIRCLE
  5
163
330
27C
100
AcDbEntity
  8
DF500
  6
Continuous
100
AcDbCircle
 10
267.0555556014
 20
517.4852106102
 30
0.0
 40
0.0445
  0
ARC
  5
164
330
27C
100
AcDbEntity
  8
DF500
  6
Continuous
100
AcDbCircle
 10
266.0907716881
 20
518.4102106102
 30
0.0
 40
0.09
100
AcDbArc
 50
0.0
 51
180.0
  0
LINE
  5
165
330
27C
100
AcDbEntity
  8
DF500
  6
Continuous
100
AcDbLine
 10
265.4305556014
 20
516.7352106102
 30
0.0
 11
266.0007716881
 21
516.7352106102
 31
0.0
  0
CIRCLE
  5
166
330
27C
100
AcDbEntity
  8
DF500
  6
Continuous
100
AcDbCircle
 10
260.4468701886
 20
519.8196844699
 30
0.0
 40
0.0445
  0
LINE
  5
167
330
27C
100
AcDbEntity
  8
DF500
  6
Continuous
100
AcDbLine
 10
261.8591958398
 20
523.7064799268
 30
0.0
 11
261.1313929308
 21
522.1701521864
 31
0.0
  0
CIRCLE
  5
168
330
27C
100
AcDbEntity
  8
DF500
  6
Continuous
100
AcDbCircle
 10
262.2086654317
 20
521.1854565677
 30
0.0
 40
0.0445
  0
CIRCLE
  5
169
330
27C
100
AcDbEntity
  8
DF500
  6
Continuous
100
AcDbCircle
 10
261.4724686325
 20
520.6066535538
 30
0.0
 40
0.25
  0
LINE
  5
16A
330
27C
100
AcDbEntity
  8
DF500
  6
Continuous
100
AcDbLine
 10
262.0218658358
 20
523.6294184423
 30
0.0
 11
261.2940629268
 21
522.093090702
 31
0.0
  0
ARC
  5
16B
330
27C
100
AcDbEntity
  8
DF500
  6
Continuous
100
AcDbCircle
 10
261.2127279288
 20
522.1316214442
 30
0.0
 40
0.09
100
AcDbArc
 50
154.6517310299
 51
334.6517310299
  0
CIRCLE
  5
16C
330
27C
100
AcDbEntity
  8
DF500
  6
Continuous
100
AcDbCircle
 10
260.162546014
 20
522.6680047765
 30
0.0
 40
0.0445
  0
CIRCLE
  5
16D
330
27C
100
AcDbEntity
  8
DF500
  6
Continuous
100
AcDbCircle
 10
262.7773141009
 20
522.0942789103
 30
0.0
 40
0.25
  0
CIRCLE
  5
16E
330
27C
100
AcDbEntity
  8
DF500
  6
Continuous
100
AcDbCircle
 10
262.9905573777
 20
523.140186152
 30
0.0
 40
0.0445
  0
LINE
  5
16F
330
27C
100
AcDbEntity
  8
DF500
  6
Continuous
100
AcDbLine
 10
263.8974813556
 20
522.8190327887
 30
0.0
 11
263.8974813556
 21
521.1190327887
 31
0.0
  0
ARC
  5
170
330
27C
100
AcDbEntity
  8
DF500
  6
Continuous
100
AcDbCircle
 10
263.9874813556
 20
521.1190327887
 30
0.0
 40
0.09
100
AcDbArc
 50
180.0
 51
0.0
  0
ARC
  5
171
330
27C
100
AcDbEntity
  8
DF500
  6
Continuous
100
AcDbCircle
 10
263.9874813556
 20
522.8190327887
 30
0.0
 40
0.09
100
AcDbArc
 50
0.0
 51
180.0
  0
LINE
  5
172
330
27C
100
AcDbEntity
  8
DF500
  6
Continuous
100
AcDbLine
 10
264.0774813556
 20
522.8190327887
 30
0.0
 11
264.0774813556
 21
521.1190327887
 31
0.0
  0
CIRCLE
  5
173
330
27C
100
AcDbEntity
  8
DF500
  6
Continuous
100
AcDbCircle
 10
267.0555556014
 20
521.3827342711
 30
0.0
 40
0.0445
  0
CIRCLE
  5
174
330
27C
100
AcDbEntity
  8
MIRCO_500
  6
Continuous
100
AcDbCircle
 10
250.6375603878
 20
531.1347044617
 30
0.0
 40
0.302484
  0
CIRCLE
  5
175
330
27C
100
AcDbEntity
  8
DF500
  6
Continuous
100
AcDbCircle
 10
251.3162386756
 20
524.5751403095
 30
0.0
 40
0.25
  0
CIRCLE
  5
176
330
27C
100
AcDbEntity
  8
MIRCO_250
  6
Continuous
100
AcDbCircle
 10
256.211938632
 20
526.3294957252
 30
0.0
 40
0.369413
  0
CIRCLE
  5
177
330
27C
100
AcDbEntity
  8
MIRCO_500
  6
Continuous
100
AcDbCircle
 10
256.211938632
 20
526.3294957252
 30
0.0
 40
0.302484
  0
CIRCLE
  5
178
330
27C
100
AcDbEntity
  8
MIRCO_250
  6
Continuous
100
AcDbCircle
 10
256.2117513896
 20
530.4643658432
 30
0.0
 40
0.369413
  0
CIRCLE
  5
179
330
27C
100
AcDbEntity
  8
MIRCO_500
  6
Continuous
100
AcDbCircle
 10
256.2117513896
 20
530.4643658432
 30
0.0
 40
0.302484
  0
CIRCLE
  5
17A
330
27C
100
AcDbEntity
  8
DF500
  6
Continuous
100
AcDbCircle
 10
259.6730702293
 20
519.3019212188
 30
0.0
 40
0.25
  0
CIRCLE
  5
17B
330
27C
100
AcDbEntity
  8
DF500
  6
Continuous
100
AcDbCircle
 10
263.1384629665
 20
518.5458800446
 30
0.0
 40
0.0625
  0
ELLIPSE
  5
17C
330
27C
100
AcDbEntity
  8
DF500
  6
Continuous
100
AcDbEllipse
 10
261.83126063
 20
517.8088438336
 30
0.0
 11
0.06249500539530572
 21
0.0007901269800641004
 31
0.0
210
0.0
220
0.0
230
1.0
 40
1.0
 41
0.0
 42
6.283185307179586
  0
ELLIPSE
  5
17D
330
27C
100
AcDbEntity
  8
DF500
  6
Continuous
100
AcDbEllipse
 10
262.752569149
 20
516.1758050671
 30
0.0
 11
-0.0007901269799780001
 21
0.0624950053952755
 31
0.0
210
0.0
220
0.0
230
1.0
 40
1.0
 41
0.0
 42
6.283185307179586
  0
ELLIPSE
  5
17E
330
27C
100
AcDbEntity
  8
DF500
  6
Continuous
100
AcDbEllipse
 10
260.1397070328
 20
514.7017113861
 30
0.0
 11
-0.0007901269799780001
 21
0.0624950053952755
 31
0.0
210
0.0
220
0.0
230
1.0
 40
1.0
 41
0.0
 42
6.283185307179586
  0
CIRCLE
  5
17F
330
27C
100
AcDbEntity
  8
DF500
  6
Continuous
100
AcDbCircle
 10
260.0879821978
 20
518.828839141
 30
0.0
 40
0.0445
  0
CIRCLE
  5
180
330
27C
100
AcDbEntity
  8
DF500
  6
Continuous
100
AcDbCircle
 10
260.167173103
 20
516.8700141372
 30
0.0
 40
0.062506752
  0
CIRCLE
  5
181
330
27C
100
AcDbEntity
  8
DF500
  6
Continuous
100
AcDbCircle
 10
261.2685556014
 20
517.7042342711
 30
0.0
 40
0.0445
  0
CIRCLE
  5
182
330
27C
100
AcDbEntity
  8
DF500
  6
Continuous
100
AcDbCircle
 10
263.6264520297
 20
512.9302928833
 30
0.0
 40
0.0445
  0
CIRCLE
  5
183
330
27C
100
AcDbEntity
  8
DF500
  6
Continuous
100
AcDbCircle
 10
263.2578484403
 20
512.9352937207
 30
0.0
 40
0.0445
  0
CIRCLE
  5
184
330
27C
100
AcDbEntity
  8
DF500
  6
Continuous
100
AcDbCircle
 10
262.5555556014
 20
518.4747088002
 30
0.0
 40
0.0445
  0
CIRCLE
  5
185
330
27C
100
AcDbEntity
  8
DF500
  6
Continuous
100
AcDbCircle
 10
263.4669324839
 20
518.925904566
 30
0.0
 40
0.0445
  0
LINE
  5
186
330
27C
100
AcDbEntity
  8
DF500
  6
Continuous
100
AcDbLine
 10
264.2013021819
 20
518.9369913783
 30
0.0
 11
262.4074070146
 21
517.9340385293
 31
0.0
  0
ARC
  5
187
330
27C
100
AcDbEntity
  8
DF500
  6
Continuous
100
AcDbCircle
 10
264.2928021948
 20
518.7733332052
 30
0.0
 40
0.1875
100
AcDbArc
 50
29.2092162689
 51
119.209216462
  0
LINE
  5
188
330
27C
100
AcDbEntity
  8
DF500
  6
Continuous
100
AcDbLine
 10
265.0195260485
 20
517.8577262418
 30
0.0
 11
264.4564603683
 21
518.8648332176
 31
0.0
  0
ARC
  5
189
330
27C
100
AcDbEntity
  8
DF500
  6
Continuous
100
AcDbCircle
 10
264.8558678751
 20
517.7662262294
 30
0.0
 40
0.1875
100
AcDbArc
 50
299.209216191
 51
29.209216269
  0
LINE
  5
18A
330
27C
100
AcDbEntity
  8
DF500
  6
Continuous
100
AcDbLine
 10
263.1534727194
 20
516.5996152176
 30
0.0
 11
264.9473678873
 21
517.6025680558
 31
0.0
  0
CIRCLE
  5
18B
330
27C
100
AcDbEntity
  8
DF500
  6
Continuous
100
AcDbCircle
 10
263.7895460537
 20
519.1111579824
 30
0.0
 40
0.0445
  0
CIRCLE
  5
18C
330
27C
100
AcDbEntity
  8
DF500
  6
Continuous
100
AcDbCircle
 10
264.0590188085
 20
516.9128623978
 30
0.0
 40
0.0625
  0
LINE
  5
18D
330
27C
100
AcDbEntity
  8
DF500
  6
Continuous
100
AcDbLine
 10
265.4305556014
 20
516.2352106102
 30
0.0
 11
265.4305556014
 21
512.3827342711
 31
0.0
  0
CIRCLE
  5
18E
330
27C
100
AcDbEntity
  8
DF500
  6
Continuous
100
AcDbCircle
 10
264.7805281551
 20
515.7877342711
 30
0.0
 40
0.08
  0
ARC
  5
18F
330
27C
100
AcDbEntity
  8
DF500
  6
Continuous
100
AcDbCircle
 10
265.4305556014
 20
516.4852106102
 30
0.0
 40
0.25
100
AcDbArc
 50
90.0
 51
270.0
  0
CIRCLE
  5
190
330
27C
100
AcDbEntity
  8
DF500
  6
Continuous
100
AcDbCircle
 10
264.7805281551
 20
514.1627342711
 30
0.0
 40
0.08
  0
CIRCLE
  5
191
330
27C
100
AcDbEntity
  8
DF500
  6
Continuous
100
AcDbCircle
 10
264.7805281551
 20
513.1627342711
 30
0.0
 40
0.08
  0
LINE
  5
192
330
27C
100
AcDbEntity
  8
DF500
  6
Continuous
100
AcDbLine
 10
266.0007716881
 20
518.4102106102
 30
0.0
 11
266.0007716881
 21
516.7352106102
 31
0.0
  0
ARC
  5
193
330
27C
100
AcDbEntity
  8
DF500
  6
Continuous
100
AcDbCircle
 10
258.913440092
 20
515.6633550193
 30
0.0
 40
0.25
100
AcDbArc
 50
29.20921637599999
 51
119.2092162645
  0
LINE
  5
194
330
27C
100
AcDbEntity
  8
DF500
  6
Continuous
100
AcDbLine
 10
259.6329140894
 20
514.8887890051
 30
0.0
 11
259.1316509897
 21
515.7853550362
 31
0.0
  0
CIRCLE
  5
195
330
27C
100
AcDbEntity
  8
DF500
  6
Continuous
100
AcDbCircle
 10
258.9594959027
 20
516.3022873911
 30
0.0
 40
0.0445
  0
CIRCLE
  5
196
330
27C
100
AcDbEntity
  8
DF500
  6
Continuous
100
AcDbCircle
 10
258.4252671383
 20
515.8872814117
 30
0.0
 40
0.062506752
  0
ARC
  5
197
330
27C
100
AcDbEntity
  8
DF500
  6
Continuous
100
AcDbCircle
 10
256.644871711
 20
514.3950160751
 30
0.0
 40
0.25
100
AcDbArc
 50
119.2092162645
 51
209.209216376
  0
ARC
  5
198
330
27C
100
AcDbEntity
  8
DF500
  6
Continuous
100
AcDbCircle
 10
257.1461348107
 20
513.498450044
 30
0.0
 40
0.25
100
AcDbArc
 50
209.209216376
 51
299.2092162645
  0
LINE
  5
199
330
27C
100
AcDbEntity
  8
DF500
  6
Continuous
100
AcDbLine
 10
256.4266608133
 20
514.2730160582
 30
0.0
 11
256.927923913
 21
513.3764500271
 31
0.0
  0
CIRCLE
  5
19A
330
27C
100
AcDbEntity
  8
DF500
  6
Continuous
100
AcDbCircle
 10
257.6046731036
 20
513.2715118441
 30
0.0
 40
0.062506752
  0
ARC
  5
19B
330
27C
100
AcDbEntity
  8
DF500
  6
Continuous
100
AcDbCircle
 10
259.4147031917
 20
514.7667889882
 30
0.0
 40
0.25
100
AcDbArc
 50
299.2092162645
 51
29.20921637599999
  0
LINE
  5
19C
330
27C
100
AcDbEntity
  8
DF500
  6
Continuous
100
AcDbLine
 10
257.2681348272
 20
513.280239146
 30
0.0
 11
259.5367032082
 21
514.5485780902
 31
0.0
  0
CIRCLE
  5
19D
330
27C
100
AcDbEntity
  8
DF500
  6
Continuous
100
AcDbCircle
 10
259.3465790684
 20
514.2542445697
 30
0.0
 40
0.062506752
  0
CIRCLE
  5
19E
330
27C
100
AcDbEntity
  8
DF500
  6
Continuous
100
AcDbCircle
 10
259.2912807101
 20
516.4814207061
 30
0.0
 40
0.0445
  0
CIRCLE
  5
19F
330
27C
100
AcDbEntity
  8
DF500
  6
Continuous
100
AcDbCircle
 10
257.9538587726
 20
517.6590802433
 30
0.0
 40
0.0445
  0
ARC
  5
1A0
330
27C
100
AcDbEntity
  8
DF500
  6
Continuous
100
AcDbCircle
 10
251.4363581221
 20
523.2668277133
 30
0.0
 40
0.1875
100
AcDbArc
 50
204.7160642087
 51
311.0521062557
  0
LINE
  5
1A1
330
27C
100
AcDbEntity
  8
DF500
  6
Continuous
100
AcDbLine
 10
251.0881630477
 20
523.574865401
 30
0.0
 11
251.2660348128
 21
523.1884298798
 31
0.0
  0
CIRCLE
  5
1A2
330
27C
100
AcDbEntity
  8
DF500
  6
Continuous
100
AcDbCircle
 10
252.3994767571
 20
519.7942984359
 30
0.0
 40
0.0445
  0
CIRCLE
  5
1A3
330
27C
100
AcDbEntity
  8
DF500
  6
Continuous
100
AcDbCircle
 10
252.1742083453
 20
522.7111571927
 30
0.0
 40
0.25
  0
CIRCLE
  5
1A4
330
27C
100
AcDbEntity
  8
DF500
  6
Continuous
100
AcDbCircle
 10
251.5317659814
 20
522.4222167147
 30
0.0
 40
0.25
  0
LINE
  5
1A5
330
27C
100
AcDbEntity
  8
DF500
  6
Continuous
100
AcDbLine
 10
251.5594978302
 20
523.1254315949
 30
0.0
 11
252.1297754913
 21
523.6220776524
 31
0.0
  0
CIRCLE
  5
1A6
330
27C
100
AcDbEntity
  8
DF500
  6
Continuous
100
AcDbCircle
 10
252.5162527476
 20
521.6373292341
 30
0.0
 40
0.0445
  0
CIRCLE
  5
1A7
330
27C
100
AcDbEntity
  8
MIRCO_250
  6
Continuous
100
AcDbCircle
 10
256.2063997965
 20
519.4054863238
 30
0.0
 40
0.495079
  0
CIRCLE
  5
1A8
330
27C
100
AcDbEntity
  8
MIRCO_500
  6
Continuous
100
AcDbCircle
 10
256.2063997965
 20
519.4054863238
 30
0.0
 40
0.42815
  0
LINE
  5
1A9
330
27C
100
AcDbEntity
  8
DF500
  6
Continuous
100
AcDbLine
 10
262.3352488545
 20
517.6788803431
 30
0.0
 11
262.8983145342
 21
516.6717733781
 31
0.0
  0
ARC
  5
1AA
330
27C
100
AcDbEntity
  8
DF500
  6
Continuous
100
AcDbCircle
 10
262.4989070276
 20
517.7703803562
 30
0.0
 40
0.1875
100
AcDbArc
 50
119.2092164621
 51
209.2092165067
  0
ARC
  5
1AB
330
27C
100
AcDbEntity
  8
DF500
  6
Continuous
100
AcDbCircle
 10
263.0619727073
 20
516.7632733912
 30
0.0
 40
0.1875
100
AcDbArc
 50
209.2092165067
 51
299.209216191
  0
ARC
  5
1AC
330
27C
100
AcDbEntity
  8
MIRCO_250
  6
Continuous
100
AcDbCircle
 10
248.6611059941
 20
532.2276092631
 30
0.0
 40
0.1201375764
100
AcDbArc
 50
192.8773095919
 51
229.724246566
  0
LINE
  5
1AD
330
27C
100
AcDbEntity
  8
MIRCO_250
  6
Continuous
100
AcDbLine
 10
248.3748088347
 20
532.9408664062
 30
0.0
 11
248.5439899342
 21
532.2008349137
 31
0.0
  0
ARC
  5
1AE
330
27C
100
AcDbEntity
  8
MIRCO_250
  6
Continuous
100
AcDbCircle
 10
250.577987034
 20
533.3931260161
 30
0.0
 40
0.1196925635
100
AcDbArc
 50
12.8086090605
 51
49.7929535347
  0
ARC
  5
1AF
330
27C
100
AcDbEntity
  8
MIRCO_250
  6
Continuous
100
AcDbCircle
 10
249.9907642203
 20
533.8750674511
 30
0.0
 40
0.1307085065
100
AcDbArc
 50
49.7929535347
 51
192.8774650071
  0
LINE
  5
1B0
330
27C
100
AcDbEntity
  8
MIRCO_250
  6
Continuous
100
AcDbLine
 10
250.075143308
 20
533.9748917128
 30
0.0
 11
250.655254762
 21
533.4845372188
 31
0.0
  0
LINE
  5
1B1
330
27C
100
AcDbEntity
  8
MIRCO_500
  6
Continuous
100
AcDbLine
 10
250.0114112072
 20
533.9488085698
 30
0.0
 11
250.6157864333
 21
533.4379447562
 31
0.0
  0
ARC
  5
1B2
330
27C
100
AcDbEntity
  8
MIRCO_500
  6
Continuous
100
AcDbCircle
 10
250.5778125624
 20
533.3930199324
 30
0.0
 40
0.0588239294
100
AcDbArc
 50
12.8085939527
 51
49.7929686424
  0
ELLIPSE
  5
1B3
330
27C
100
AcDbEntity
  8
MIRCO_500
  6
Continuous
100
AcDbEllipse
 10
249.9732720943
 20
533.9037978216
 30
0.0
 11
-0.01314812308345381
 21
0.05751248776743978
 31
0.0
210
0.0
220
0.0
230
1.0
 40
1.0
 41
5.355490329041117
 42
7.853981633975529
1001
QCAD
1000
reversed:1
  0
ELLIPSE
  5
1B4
330
27C
100
AcDbEntity
  8
MIRCO_500
  6
Continuous
100
AcDbEllipse
 10
250.1496053374
 20
533.132657861
 30
0.0
 11
0.0131568884988409
 21
-0.0575508294259802
 31
0.0
210
0.0
220
0.0
230
1.0
 40
1.0
 41
4.71238898038546
 42
5.355490329044002
  0
LINE
  5
1B5
330
27C
100
AcDbEntity
  8
MIRCO_500
  6
Continuous
100
AcDbLine
 10
249.9157596065
 20
533.8906496985
 30
0.0
 11
250.092054508
 21
533.1195009725
 31
0.0
  0
ARC
  5
1B6
330
27C
100
AcDbEntity
  8
MIRCO_250
  6
Continuous
100
AcDbCircle
 10
250.1496403726
 20
533.1326797485
 30
0.0
 40
0.1201375764
100
AcDbArc
 50
192.8773128104
 51
229.7242497846
  0
LINE
  5
1B7
330
27C
100
AcDbEntity
  8
MIRCO_250
  6
Continuous
100
AcDbLine
 10
249.8633431732
 20
533.8459368756
 30
0.0
 11
250.0325243143
 21
533.1059053925
 31
0.0
  0
LINE
  5
1B8
330
27C
100
AcDbEntity
  8
MIRCO_500
  6
Continuous
100
AcDbLine
 10
250.1114407984
 20
533.0876171056
 30
0.0
 11
250.7149615728
 21
532.5762337612
 31
0.0
  0
LINE
  5
1B9
330
27C
100
AcDbEntity
  8
MIRCO_250
  6
Continuous
100
AcDbLine
 10
250.0719754023
 20
533.0410217448
 30
0.0
 11
250.6511435174
 21
532.5502727363
 31
0.0
  0
CIRCLE
  5
1BA
330
27C
100
AcDbEntity
  8
DF500
  6
Continuous
100
AcDbCircle
 10
250.1908873593
 20
535.1782770498
 30
0.0
 40
0.0445
  0
CIRCLE
  5
1BB
330
27C
100
AcDbEntity
  8
DF500
  6
Continuous
100
AcDbCircle
 10
247.3055556014
 20
533.3827342711
 30
0.0
 40
0.0445
  0
CIRCLE
  5
1BC
330
27C
100
AcDbEntity
  8
DF500
  6
Continuous
100
AcDbCircle
 10
249.2871422135
 20
533.3555557978
 30
0.0
 40
0.0445
  0
CIRCLE
  5
1BD
330
27C
100
AcDbEntity
  8
DF500
  6
Continuous
100
AcDbCircle
 10
251.2685556014
 20
517.7147342711
 30
0.0
 40
0.0445
  0
CIRCLE
  5
1BE
330
27C
100
AcDbEntity
  8
DF500
  6
Continuous
100
AcDbCircle
 10
252.3239591448
 20
518.7928697802
 30
0.0
 40
0.0445
  0
CIRCLE
  5
1BF
330
27C
100
AcDbEntity
  8
DF500
  6
Continuous
100
AcDbCircle
 10
253.5343898364
 20
516.308743299
 30
0.0
 40
0.0445
  0
CIRCLE
  5
1C0
330
27C
100
AcDbEntity
  8
DF500
  6
Continuous
100
AcDbCircle
 10
252.6411204047
 20
519.2765351739
 30
0.0
 40
0.25
  0
CIRCLE
  5
1C1
330
27C
100
AcDbEntity
  8
DF500
  6
Continuous
100
AcDbCircle
 10
253.2054472321
 20
516.5106254237
 30
0.0
 40
0.0445
  0
CIRCLE
  5
1C2
330
27C
100
AcDbEntity
  8
DF500
  6
Continuous
100
AcDbCircle
 10
254.4231823732
 20
517.6143586778
 30
0.0
 40
0.0445
  0
LINE
  5
1C3
330
27C
100
AcDbEntity
  8
DF500
  6
Continuous
100
AcDbLine
 10
258.7914400755
 20
515.8815659172
 30
0.0
 11
256.5228716945
 21
514.613226973
 31
0.0
  0
ELLIPSE
  5
1C4
330
27C
100
AcDbEntity
  8
DF500
  6
Continuous
100
AcDbEllipse
 10
259.2183985138
 20
516.3347501526
 30
0.0
 11
-0.0007901269799780001
 21
0.0624950053952755
 31
0.0
210
0.0
220
0.0
230
1.0
 40
1.0
 41
0.0
 42
6.283185307179586
  0
CIRCLE
  5
1C5
330
27C
100
AcDbEntity
  8
DF500
  6
Continuous
100
AcDbCircle
 10
250.6732220356
 20
525.6127924063
 30
0.0
 40
0.0445
  0
CIRCLE
  5
1C6
330
27C
100
AcDbEntity
  8
DF500
  6
Continuous
100
AcDbCircle
 10
247.3055556014
 20
527.3827342711
 30
0.0
 40
0.0445
  0
CIRCLE
  5
1C7
330
27C
100
AcDbEntity
  8
DF500
  6
Continuous
100
AcDbCircle
 10
248.814959612
 20
525.435089656
 30
0.0
 40
0.0445
  0
CIRCLE
  5
1C8
330
27C
100
AcDbEntity
  8
DF500
  6
Continuous
100
AcDbCircle
 10
249.3785330809
 20
528.3900338266
 30
0.0
 40
0.0445
  0
CIRCLE
  5
1C9
330
27C
100
AcDbEntity
  8
DF500
  6
Continuous
100
AcDbCircle
 10
248.4037068823
 20
528.9079102603
 30
0.0
 40
0.25
  0
CIRCLE
  5
1CA
330
27C
100
AcDbEntity
  8
DF500
  6
Continuous
100
AcDbCircle
 10
248.4087840891
 20
530.3498406177
 30
0.0
 40
0.0445
  0
CIRCLE
  5
1CB
330
27C
100
AcDbEntity
  8
MIRCO_500
  6
Continuous
100
AcDbCircle
 10
248.5750920523
 20
534.5266370342
 30
0.0
 40
0.5325
  0
CIRCLE
  5
1CC
330
27C
100
AcDbEntity
  8
MIRCO_250
  6
Continuous
100
AcDbCircle
 10
248.5750920523
 20
534.5266370342
 30
0.0
 40
0.587598
  0
CIRCLE
  5
1CD
330
27C
100
AcDbEntity
  8
MIRCO_500
  6
Continuous
100
AcDbCircle
 10
250.0283721022
 20
532.1366127675
 30
0.0
 40
0.302484
  0
CIRCLE
  5
1CE
330
27C
100
AcDbEntity
  8
MIRCO_250
  6
Continuous
100
AcDbCircle
 10
250.0283721022
 20
532.1366127675
 30
0.0
 40
0.369413
  0
CIRCLE
  5
1CF
330
27C
100
AcDbEntity
  8
DF500
  6
Continuous
100
AcDbCircle
 10
247.8249035804
 20
531.7003811344
 30
0.0
 40
0.0445
  0
ARC
  5
1D0
330
27C
100
AcDbEntity
  8
MIRCO_250
  6
Continuous
100
AcDbCircle
 10
249.247107383
 20
531.7449258685
 30
0.0
 40
0.1307087003
100
AcDbArc
 50
229.7245804143
 51
12.8085819174
  0
ELLIPSE
  5
1D1
330
27C
100
AcDbEntity
  8
MIRCO_500
  6
Continuous
100
AcDbEllipse
 10
249.2645275317
 20
531.7162377154
 30
0.0
 11
0.05755123525230488
 21
0.01308439460035516
 31
0.0
210
0.0
220
0.0
230
1.0
 40
1.0
 41
3.787091763717125
 42
6.283185307179586
1001
QCAD
1000
reversed:1
  0
LINE
  5
1D2
330
27C
100
AcDbEntity
  8
MIRCO_250
  6
Continuous
100
AcDbLine
 10
249.2061668119
 20
532.514590745
 30
0.0
 11
249.3745635489
 21
531.7739032758
 31
0.0
  0
LINE
  5
1D3
330
27C
100
AcDbEntity
  8
MIRCO_500
  6
Continuous
100
AcDbLine
 10
249.1466383606
 20
532.5009903766
 30
0.0
 11
249.322078767
 21
531.72932211
 31
0.0
  0
LINE
  5
1D4
330
27C
100
AcDbEntity
  8
MIRCO_500
  6
Continuous
100
AcDbLine
 10
248.6229064174
 20
532.1825466223
 30
0.0
 11
249.226427163
 21
531.671163244
 31
0.0
  0
LINE
  5
1D5
330
27C
100
AcDbEntity
  8
MIRCO_250
  6
Continuous
100
AcDbLine
 10
248.5834410186
 20
532.1359512637
 30
0.0
 11
249.1626091061
 21
531.6452022227
 31
0.0
  0
ARC
  5
1D6
330
27C
100
AcDbEntity
  8
MIRCO_250
  6
Continuous
100
AcDbCircle
 10
249.0894526701
 20
532.4880555066
 30
0.0
 40
0.1196925635
100
AcDbArc
 50
12.8086058417
 51
49.7929503161
  0
ARC
  5
1D7
330
27C
100
AcDbEntity
  8
MIRCO_250
  6
Continuous
100
AcDbCircle
 10
248.5022298834
 20
532.9699969746
 30
0.0
 40
0.1307085065
100
AcDbArc
 50
49.7929503162
 51
192.8774617885
  0
LINE
  5
1D8
330
27C
100
AcDbEntity
  8
MIRCO_250
  6
Continuous
100
AcDbLine
 10
248.5866089768
 20
533.0698212315
 30
0.0
 11
249.1667204033
 21
532.5794667049
 31
0.0
  0
LINE
  5
1D9
330
27C
100
AcDbEntity
  8
MIRCO_500
  6
Continuous
100
AcDbLine
 10
248.5228768745
 20
533.0437380922
 30
0.0
 11
249.1272520719
 21
532.5328742446
 31
0.0
  0
ARC
  5
1DA
330
27C
100
AcDbEntity
  8
MIRCO_500
  6
Continuous
100
AcDbCircle
 10
249.0892781985
 20
532.4879494229
 30
0.0
 40
0.0588239294
100
AcDbArc
 50
12.8085907341
 51
49.7929654247
  0
ELLIPSE
  5
1DB
330
27C
100
AcDbEntity
  8
MIRCO_500
  6
Continuous
100
AcDbEllipse
 10
248.4847377591
 20
532.9987273461
 30
0.0
 11
-0.01314811985270126
 21
0.05751248850606316
 31
0.0
210
0.0
220
0.0
230
1.0
 40
1.0
 41
5.35549032904016
 42
7.853981633975637
1001
QCAD
1000
reversed:1
  0
ELLIPSE
  5
1DC
330
27C
100
AcDbEntity
  8
MIRCO_500
  6
Continuous
100
AcDbEllipse
 10
248.6610709589
 20
532.2275873755
 30
0.0
 11
0.0131568852659224
 21
-0.0575508301650684
 31
0.0
210
0.0
220
0.0
230
1.0
 40
1.0
 41
4.712388980385596
 42
5.355490329044835
  0
LINE
  5
1DD
330
27C
100
AcDbEntity
  8
MIRCO_500
  6
Continuous
100
AcDbLine
 10
248.4272252706
 20
532.9855792262
 30
0.0
 11
248.6035201287
 21
532.2144304903
 31
0.0
  0
LINE
  5
1DE
330
27C
100
AcDbEntity
  8
DF500
  6
Continuous
100
AcDbLine
 10
248.8421754298
 20
517.4935824859
 30
0.0
 11
247.8437372773
 21
517.4935824859
 31
0.0
  0
CIRCLE
  5
1DF
330
27C
100
AcDbEntity
  8
DF500
  6
Continuous
100
AcDbCircle
 10
250.1752098477
 20
516.5308842508
 30
0.0
 40
0.0445
  0
CIRCLE
  5
1E0
330
27C
100
AcDbEntity
  8
DF500
  6
Continuous
100
AcDbCircle
 10
247.3055556014
 20
516.4727342711
 30
0.0
 40
0.0445
  0
CIRCLE
  5
1E1
330
27C
100
AcDbEntity
  8
DF500
  6
Continuous
100
AcDbCircle
 10
249.9683648462
 20
518.4627342711
 30
0.0
 40
0.0445
  0
CIRCLE
  5
1E2
330
27C
100
AcDbEntity
  8
DF500
  6
Continuous
100
AcDbCircle
 10
249.5905966409
 20
518.6102106198
 30
0.0
 40
0.0445
  0
ARC
  5
1E3
330
27C
100
AcDbEntity
  8
DF500
  6
Continuous
100
AcDbCircle
 10
248.8421754298
 20
518.2435800616
 30
0.0
 40
0.25
100
AcDbArc
 50
0.0
 51
90.0
  0
ARC
  5
1E4
330
27C
100
AcDbEntity
  8
DF500
  6
Continuous
100
AcDbCircle
 10
247.8437372773
 20
518.2435800616
 30
0.0
 40
0.25
100
AcDbArc
 50
90.0
 51
180.0
  0
LINE
  5
1E5
330
27C
100
AcDbEntity
  8
DF500
  6
Continuous
100
AcDbLine
 10
247.8437372773
 20
518.4935800616
 30
0.0
 11
248.8421754298
 21
518.4935800616
 31
0.0
  0
CIRCLE
  5
1E6
330
27C
100
AcDbEntity
  8
DF500
  6
Continuous
100
AcDbCircle
 10
249.1197902774
 20
516.5401937626
 30
0.0
 40
0.0445
  0
LINE
  5
1E7
330
27C
100
AcDbEntity
  8
DF500
  6
Continuous
100
AcDbLine
 10
249.0921754298
 20
518.2435800616
 30
0.0
 11
249.0921754298
 21
517.7435824859
 31
0.0
  0
CIRCLE
  5
1E8
330
27C
100
AcDbEntity
  8
DF500
  6
Continuous
100
AcDbCircle
 10
247.3056104941
 20
517.4852106102
 30
0.0
 40
0.0445
  0
ARC
  5
1E9
330
27C
100
AcDbEntity
  8
DF500
  6
Continuous
100
AcDbCircle
 10
248.8421754298
 20
517.7435824859
 30
0.0
 40
0.25
100
AcDbArc
 50
270.0
 51
0.0
  0
LINE
  5
1EA
330
27C
100
AcDbEntity
  8
DF500
  6
Continuous
100
AcDbLine
 10
247.5937372773
 20
517.7435824859
 30
0.0
 11
247.5937372773
 21
518.2435800616
 31
0.0
  0
ARC
  5
1EB
330
27C
100
AcDbEntity
  8
DF500
  6
Continuous
100
AcDbCircle
 10
247.8437372773
 20
517.7435824859
 30
0.0
 40
0.25
100
AcDbArc
 50
180.0
 51
270.0
  0
ARC
  5
1EC
330
27C
100
AcDbEntity
  8
DF500
  6
Continuous
100
AcDbCircle
 10
249.5443299426
 20
523.6118663694
 30
0.0
 40
0.09
100
AcDbArc
 50
180.0
 51
0.0
  0
ARC
  5
1ED
330
27C
100
AcDbEntity
  8
DF500
  6
Continuous
100
AcDbCircle
 10
248.1830799531
 20
523.6127846005
 30
0.0
 40
0.09
100
AcDbArc
 50
180.0
 51
0.0
  0
CIRCLE
  5
1EE
330
27C
100
AcDbEntity
  8
DF500
  6
Continuous
100
AcDbCircle
 10
247.3055556014
 20
521.3827342711
 30
0.0
 40
0.0445
  0
CIRCLE
  5
1EF
330
27C
100
AcDbEntity
  8
DF500
  6
Continuous
100
AcDbCircle
 10
250.6579903216
 20
523.2518851744
 30
0.0
 40
0.0445
  0
CIRCLE
  5
1F0
330
27C
100
AcDbEntity
  8
MIRCO_250
  6
Continuous
100
AcDbCircle
 10
248.1830799531
 20
526.1510903294
 30
0.0
 40
0.369413
  0
CIRCLE
  5
1F1
330
27C
100
AcDbEntity
  8
MIRCO_500
  6
Continuous
100
AcDbCircle
 10
248.1830799531
 20
526.1510903294
 30
0.0
 40
0.302484
  0
CIRCLE
  5
1F2
330
27C
100
AcDbEntity
  8
MIRCO_250
  6
Continuous
100
AcDbCircle
 10
249.5443299426
 20
526.1501720983
 30
0.0
 40
0.369413
  0
CIRCLE
  5
1F3
330
27C
100
AcDbEntity
  8
MIRCO_500
  6
Continuous
100
AcDbCircle
 10
249.5443299426
 20
526.1501720983
 30
0.0
 40
0.302484
  0
CIRCLE
  5
1F4
330
27C
100
AcDbEntity
  8
DF500
  6
Continuous
100
AcDbCircle
 10
247.8502895922
 20
527.613219176
 30
0.0
 40
0.0445
  0
ARC
  5
1F5
330
27C
100
AcDbEntity
  8
DF500
  6
Continuous
100
AcDbCircle
 10
249.5443299426
 20
525.3118663694
 30
0.0
 40
0.09
100
AcDbArc
 50
0.0
 51
180.0
  0
ARC
  5
1F6
330
27C
100
AcDbEntity
  8
DF500
  6
Continuous
100
AcDbCircle
 10
248.1830799531
 20
525.3127846005
 30
0.0
 40
0.09
100
AcDbArc
 50
0.0
 51
180.0
  0
CIRCLE
  5
1F7
330
27C
100
AcDbEntity
  8
DF500
  6
Continuous
100
AcDbCircle
 10
258.4642170329
 20
544.1319546391
 30
0.0
 40
1.26
  0
CIRCLE
  5
1F8
330
27C
100
AcDbEntity
  8
DF500
  6
Continuous
100
AcDbCircle
 10
253.9124894698
 20
544.0989528343
 30
0.0
 40
1.26
  0
LINE
  5
1F9
330
27C
100
AcDbEntity
  8
DF500
  6
Continuous
100
AcDbLine
 10
264.9041307868
 20
544.0465071141
 30
0.0
 11
265.6285974484
 21
543.8524760442
 31
0.0
  0
ARC
  5
1FA
330
27C
100
AcDbEntity
  8
DF500
  6
Continuous
100
AcDbCircle
 10
264.8394537634
 20
543.8050182269
 30
0.0
 40
0.25
100
AcDbArc
 50
75.0065812251
 51
255.0065812252
  0
ARC
  5
1FB
330
27C
100
AcDbEntity
  8
DF500
  6
Continuous
100
AcDbCircle
 10
265.5639204251
 20
543.610987157
 30
0.0
 40
0.25
100
AcDbArc
 50
255.0065812251
 51
75.00658122520001
  0
CIRCLE
  5
1FC
330
27C
100
AcDbEntity
  8
DF500
  6
Continuous
100
AcDbCircle
 10
263.2038011025
 20
544.4543536671
 30
0.0
 40
0.25
  0
CIRCLE
  5
1FD
330
27C
100
AcDbEntity
  8
DF500
  6
Continuous
100
AcDbCircle
 10
256.2073929344
 20
532.7869080198
 30
0.0
 40
1.26
  0
CIRCLE
  5
1FE
330
27C
100
AcDbEntity
  8
DF500
  6
Continuous
100
AcDbCircle
 10
254.7959256406
 20
540.2098024338
 30
0.0
 40
0.0445
  0
LINE
  5
1FF
330
27C
100
AcDbEntity
  8
MIRCO_500
  6
Continuous
100
AcDbLine
 10
254.7940080119
 20
552.3120248861
 30
0.0
 11
255.3857515358
 21
551.7870583615
 31
0.0
  0
LINE
  5
200
330
27C
100
AcDbEntity
  8
MIRCO_250
  6
Continuous
100
AcDbLine
 10
254.75349391
 20
552.2663384255
 30
0.0
 11
255.3213599871
 21
551.7625543316
 31
0.0
  0
ARC
  5
201
330
27C
100
AcDbEntity
  8
MIRCO_250
  6
Continuous
100
AcDbCircle
 10
254.6912577188
 20
553.1020142914
 30
0.0
 40
0.1307085065
100
AcDbArc
 50
48.49077224429999
 51
191.5752837167
  0
LINE
  5
202
330
27C
100
AcDbEntity
  8
MIRCO_250
  6
Continuous
100
AcDbLine
 10
254.777883561
 20
553.1998952249
 30
0.0
 11
255.3467016989
 21
552.6964841058
 31
0.0
  0
LINE
  5
203
330
27C
100
AcDbEntity
  8
MIRCO_500
  6
Continuous
100
AcDbLine
 10
254.7135751696
 20
553.1752671552
 30
0.0
 11
255.306184731
 21
552.6508006094
 31
0.0
  0
ELLIPSE
  5
204
330
27C
100
AcDbEntity
  8
MIRCO_500
  6
Continuous
100
AcDbEllipse
 10
254.6744230193
 20
553.1311347576
 30
0.0
 11
-0.01183773354256346
 21
0.05779643115624822
 31
0.0
210
0.0
220
0.0
230
1.0
 40
1.0
 41
5.355490329040934
 42
7.85398163397562
1001
QCAD
1000
reversed:1
  0
ELLIPSE
  5
205
330
27C
100
AcDbEntity
  8
MIRCO_500
  6
Continuous
100
AcDbEllipse
 10
254.8331862637
 20
552.3561867053
 30
0.0
 11
0.0118456253649223
 21
-0.0578349621103283
 31
0.0
210
0.0
220
0.0
230
1.0
 40
1.0
 41
4.712388980384562
 42
5.355490329044132
  0
LINE
  5
206
330
27C
100
AcDbEntity
  8
MIRCO_500
  6
Continuous
100
AcDbLine
 10
254.6166265881
 20
553.119297024
 30
0.0
 11
254.7753513015
 21
552.3443410799
 31
0.0
  0
ARC
  5
207
330
27C
100
AcDbEntity
  8
MIRCO_250
  6
Continuous
100
AcDbCircle
 10
254.8332217872
 20
552.356207791
 30
0.0
 40
0.1201375764
100
AcDbArc
 50
191.57513152
 51
228.4220684942
  0
LINE
  5
208
330
27C
100
AcDbEntity
  8
DF500
  6
Continuous
100
AcDbLine
 10
248.5556104941
 20
512.3827342711
 30
0.0
 11
248.5556104941
 21
515.7352106102
 31
0.0
  0
ARC
  5
209
330
27C
100
AcDbEntity
  8
DF500
  6
Continuous
100
AcDbCircle
 10
248.3056104941
 20
515.7352106102
 30
0.0
 40
0.25
100
AcDbArc
 50
0.0
 51
90.0
  0
LINE
  5
20A
330
27C
100
AcDbEntity
  8
DF500
  6
Continuous
100
AcDbLine
 10
248.3056104941
 20
515.9852106102
 30
0.0
 11
247.0556104941
 21
515.9852106102
 31
0.0
  0
CIRCLE
  5
20B
330
27C
100
AcDbEntity
  8
DF500
  6
Continuous
100
AcDbCircle
 10
248.9305281551
 20
515.7877342711
 30
0.0
 40
0.08
  0
CIRCLE
  5
20C
330
27C
100
AcDbEntity
  8
DF500
  6
Continuous
100
AcDbCircle
 10
248.8392816102
 20
512.9051968647
 30
0.0
 40
0.0445
  0
CIRCLE
  5
20D
330
27C
100
AcDbEntity
  8
DF500
  6
Continuous
100
AcDbCircle
 10
249.2346991165
 20
512.8962533255
 30
0.0
 40
0.0445
  0
CIRCLE
  5
20E
330
27C
100
AcDbEntity
  8
DF500
  6
Continuous
100
AcDbCircle
 10
248.9305281551
 20
513.1627342711
 30
0.0
 40
0.08
  0
CIRCLE
  5
20F
330
27C
100
AcDbEntity
  8
DF500
  6
Continuous
100
AcDbCircle
 10
248.9305281551
 20
514.1627342711
 30
0.0
 40
0.08
  0
LINE
  5
210
330
27C
100
AcDbEntity
  8
DF500
  6
Continuous
100
AcDbLine
 10
267.3054444387
 20
554.3944443446
 30
0.0
 11
267.3055556014
 21
516.7352106102
 31
0.0
  0
LINE
  5
211
330
27C
100
AcDbEntity
  8
DF500
  6
Continuous
100
AcDbLine
 10
247.0555556014
 20
554.3944443446
 30
0.0
 11
247.0556104941
 21
515.9852106102
 31
0.0
  0
CIRCLE
  5
212
330
27C
100
AcDbEntity
  8
MIRCO_250
  6
Continuous
100
AcDbCircle
 10
250.6375603878
 20
531.1347044617
 30
0.0
 40
0.369413
  0
LINE
  5
213
330
27C
100
AcDbEntity
  8
DF500
  6
Continuous
100
AcDbLine
 10
248.5556104941
 20
512.3827342711
 30
0.0
 11
265.4305556014
 21
512.3827342711
 31
0.0
  0
LINE
  5
214
330
27C
100
AcDbEntity
  8
DF500
  6
Continuous
100
AcDbLine
 10
247.0555556014
 20
554.3944443446
 30
0.0
 11
267.3054444387
 21
554.3944443446
 31
0.0
  0
LINE
  5
215
330
27C
100
AcDbEntity
  8
DF500
  6
Continuous
100
AcDbLine
 10
249.6343299426
 20
525.3118663694
 30
0.0
 11
249.6343299426
 21
523.6118663694
 31
0.0
  0
LINE
  5
216
330
27C
100
AcDbEntity
  8
DF500
  6
Continuous
100
AcDbLine
 10
248.0930799531
 20
525.3127846005
 30
0.0
 11
248.0930799531
 21
523.6127846005
 31
0.0
  0
LINE
  5
217
330
27C
100
AcDbEntity
  8
DF500
  6
Continuous
100
AcDbLine
 10
248.2730799531
 20
525.3127846005
 30
0.0
 11
248.2730799531
 21
523.6127846005
 31
0.0
  0
LINE
  5
218
330
27C
100
AcDbEntity
  8
DF500
  6
Continuous
100
AcDbLine
 10
249.4543299426
 20
525.3118663694
 30
0.0
 11
249.4543299426
 21
523.6118663694
 31
0.0
  0
CIRCLE
  5
219
330
27C
100
AcDbEntity
  8
DF500
  6
Continuous
100
AcDbCircle
 10
250.680077008
 20
524.2812634571
 30
0.0
 40
0.25
  0
LINE
  5
21A
330
27C
100
AcDbEntity
  8
DF500
  6
Continuous
100
AcDbLine
 10
251.979309898
 20
523.9489718732
 30
0.0
 11
251.2311604718
 21
523.8387613369
 31
0.0
  0
ARC
  5
21B
330
27C
100
AcDbEntity
  8
DF500
  6
Continuous
100
AcDbCircle
 10
251.2584863571
 20
523.6532632345
 30
0.0
 40
0.1875
100
AcDbArc
 50
98.3800206166
 51
204.7160642087
  0
CIRCLE
  5
21C
330
27C
100
AcDbEntity
  8
MIRCO_250
  6
Continuous
100
AcDbCircle
 10
263.9874813556
 20
523.6573385177
 30
0.0
 40
0.369413
  0
CIRCLE
  5
21D
330
27C
100
AcDbEntity
  8
MIRCO_500
  6
Continuous
100
AcDbCircle
 10
263.9874813556
 20
523.6573385177
 30
0.0
 40
0.302484
  0
CIRCLE
  5
21E
330
27C
100
AcDbEntity
  8
MIRCO_250
  6
Continuous
100
AcDbCircle
 10
262.2994257484
 20
524.4255446823
 30
0.0
 40
0.369413
  0
ARC
  5
21F
330
27C
100
AcDbEntity
  8
DF500
  6
Continuous
100
AcDbCircle
 10
261.0784639447
 20
524.2145328756
 30
0.0
 40
0.1875
100
AcDbArc
 50
231.7988390665
 51
338.1348826585
  0
ARC
  5
220
330
27C
100
AcDbEntity
  8
DF500
  6
Continuous
100
AcDbCircle
 10
252.0066357832
 20
523.7634737708
 30
0.0
 40
0.1875
100
AcDbArc
 50
311.0521062557
 51
98.38002061670001
  0
ARC
  5
221
330
27C
100
AcDbEntity
  8
DF500
  6
Continuous
100
AcDbCircle
 10
261.9405308378
 20
523.6679491845
 30
0.0
 40
0.09
100
AcDbArc
 50
334.6517310299
 51
154.6517310299
  0
CIRCLE
  5
222
330
27C
100
AcDbEntity
  8
DF500
  6
Continuous
100
AcDbCircle
 10
260.3691648115
 20
523.6228510259
 30
0.0
 40
0.25
  0
CIRCLE
  5
223
330
27C
100
AcDbEntity
  8
DF500
  6
Continuous
100
AcDbCircle
 10
263.0616385487
 20
523.896691995
 30
0.0
 40
0.0575
  0
LINE
  5
224
330
27C
100
AcDbEntity
  8
DF500
  6
Continuous
100
AcDbLine
 10
260.3682354395
 20
524.5348540373
 30
0.0
 11
260.962509385
 21
524.0671870576
 31
0.0
  0
LINE
  5
225
330
27C
100
AcDbEntity
  8
DF500
  6
Continuous
100
AcDbLine
 10
261.2524757878
 20
524.1447035949
 30
0.0
 11
261.4109069187
 21
524.5395077914
 31
0.0
  0
CIRCLE
  5
226
330
27C
100
AcDbEntity
  8
MIRCO_250
  6
Continuous
100
AcDbCircle
 10
256.211938632
 20
523.4894835537
 30
0.0
 40
0.369413
  0
CIRCLE
  5
227
330
27C
100
AcDbEntity
  8
MIRCO_500
  6
Continuous
100
AcDbCircle
 10
256.211938632
 20
523.4894835537
 30
0.0
 40
0.302484
  0
CIRCLE
  5
228
330
27C
100
AcDbEntity
  8
MIRCO_500
  6
Continuous
100
AcDbCircle
 10
262.2994257484
 20
524.4255446823
 30
0.0
 40
0.302484
  0
VIEWPORT
  5
337
330
278
100
AcDbEntity
 67
     1
  8
0
100
AcDbViewport
 10
5.25
 20
4.0
 30
0.0
 40
11.638
 41
8.993
 68
     1
 69
     1
 12
5.25
 22
4.0
 13
0.0
 23
0.0
 14
0.5
 24
0.5
 15
0.5
 25
0.5
 16
0.0
 26
0.0
 36
1.0
 17
0.0
 27
0.0
 37
0.0
 42
50.0
 43
0.0
 44
0.0
 45
8.993
 50
0.0
 51
0.0
 72
   100
 90
   557152
  1

281
     0
 71
     1
 74
     0
110
0.0
120
0.0
130
0.0
111
1.0
121
0.0
131
0.0
112
0.0
122
1.0
132
0.0
 79
     0
146
0.0
170
     0
 61
     5
348
28C
292
     1
282
     1
141
0.0
142
0.0
 63
   256
361
338
  0
ENDSEC
  0
SECTION
  2
OBJECTS
  0
DICTIONARY
  5
26A
330
0
100
AcDbDictionary
281
     1
  3
ACAD_DETAILVIEWSTYLE
350
340
  3
ACAD_GROUP
350
26B
  3
ACAD_LAYOUT
350
277
  3
ACAD_MATERIAL
350
2A0
  3
ACAD_MLEADERSTYLE
350
2B8
  3
ACAD_MLINESTYLE
350
274
  3
ACAD_PLOTSETTINGS
350
276
  3
ACAD_PLOTSTYLENAME
350
26C
  3
ACAD_SCALELIST
350
2A4
  3
ACAD_SECTIONVIEWSTYLE
350
341
  3
ACAD_TABLESTYLE
350
2B6
  3
ACAD_VISUALSTYLE
350
287
  3
ACDB_RECOMPOSE_DATA
350
33D
  3
AcDbVariableDictionary
350
339
  3
QCAD_OBJECTS
350
2BC
  0
SUN
  5
2BA
330
286
100
AcDbSun
 90
        1
290
     0
 63
     7
421
 16777215
 40
1.0
291
     1
 91
  2455826
 92
 54000000
292
     0
 70
     2
 71
   256
280
     1
  0
SUN
  5
338
330
337
100
AcDbSun
 90
        1
290
     0
 63
     7
421
 16777215
 40
1.0
291
     1
 91
  2455826
 92
 54000000
292
     0
 70
     2
 71
   256
280
     1
  0
DICTIONARY
  5
340
102
{ACAD_REACTORS
330
26A
102
}
330
26A
100
AcDbDictionary
281
     1
  0
DICTIONARY
  5
26B
102
{ACAD_REACTORS
330
26A
102
}
330
26A
100
AcDbDictionary
281
     1
  0
DICTIONARY
  5
277
102
{ACAD_REACTORS
330
26A
102
}
330
26A
100
AcDbDictionary
281
     1
  3
Layout1
350
27B
  3
Model
350
27F
  0
DICTIONARY
  5
2A0
102
{ACAD_REACTORS
330
26A
102
}
330
26A
100
AcDbDictionary
281
     1
  3
ByBlock
350
2A2
  3
ByLayer
350
2A1
  3
Global
350
2A3
  0
DICTIONARY
  5
2B8
102
{ACAD_REACTORS
330
26A
102
}
330
26A
100
AcDbDictionary
281
     1
  3
Standard
350
2B9
  0
DICTIONARY
  5
274
102
{ACAD_REACTORS
330
26A
102
}
330
26A
100
AcDbDictionary
281
     1
  3
Standard
350
275
  0
DICTIONARY
  5
276
102
{ACAD_REACTORS
330
26A
102
}
330
26A
100
AcDbDictionary
281
     1
  0
ACDBDICTIONARYWDFLT
  5
26C
102
{ACAD_REACTORS
330
26A
102
}
330
26A
100
AcDbDictionary
281
     1
  3
Normal
350
26D
100
AcDbDictionaryWithDefault
340
26D
  0
DICTIONARY
  5
2A4
102
{ACAD_REACTORS
330
26A
102
}
330
26A
100
AcDbDictionary
281
     1
  3
A0
350
2A5
  3
A1
350
2A6
  3
A2
350
2A7
  3
A3
350
2A8
  3
A4
350
2A9
  3
A5
350
2AA
  3
A6
350
2AB
  3
A7
350
2AC
  3
A8
350
2AD
  3
A9
350
2AE
  3
B1
350
2AF
  3
B2
350
2B0
  3
B3
350
2B1
  3
B4
350
2B2
  3
B5
350
2B3
  3
B6
350
2B4
  3
B7
350
2B5
  0
DICTIONARY
  5
341
102
{ACAD_REACTORS
330
26A
102
}
330
26A
100
AcDbDictionary
281
     1
  0
DICTIONARY
  5
2B6
102
{ACAD_REACTORS
330
26A
102
}
330
26A
100
AcDbDictionary
281
     1
  3
Standard
350
2B7
  0
DICTIONARY
  5
287
102
{ACAD_REACTORS
330
26A
102
}
330
26A
100
AcDbDictionary
281
     1
  3
2dWireframe
350
28C
  3
Basic
350
28F
  3
Brighten
350
293
  3
ColorChange
350
297
  3
Conceptual
350
291
  3
Dim
350
292
  3
EdgeColorOff
350
29A
  3
Facepattern
350
296
  3
Flat
350
288
  3
FlatWithEdges
350
289
  3
Gouraud
350
28A
  3
GouraudWithEdges
350
28B
  3
Hidden
350
28E
  3
JitterOff
350
298
  3
Linepattern
350
295
  3
OverhangOff
350
299
  3
Realistic
350
290
  3
Shaded
350
29F
  3
Shaded with edges
350
29E
  3
Shades of Gray
350
29B
  3
Sketchy
350
29C
  3
Thicken
350
294
  3
Wireframe
350
28D
  3
X-Ray
350
29D
  0
XRECORD
  5
33D
102
{ACAD_REACTORS
330
26A
102
}
330
26A
100
AcDbXrecord
280
     1
 90
        1
330
2B7
  0
DICTIONARY
  5
339
102
{ACAD_REACTORS
330
26A
102
}
330
26A
100
AcDbDictionary
281
     1
  3
CANNOSCALE
350
33A
  3
CMLEADERSTYLE
350
33F
  3
CTABLESTYLE
350
33E
  0
DICTIONARY
  5
2BC
102
{ACAD_REACTORS
330
26A
102
}
330
26A
100
AcDbDictionary
281
     1
  3
ColorSettings/BackgroundColor
350
2BE
  3
ColorSettings/ColorMode
350
2BF
  3
Grid/DisplayGrid00
350
2C0
  3
Grid/DisplayGrid01
350
2C1
  3
Grid/DisplayGrid02
350
2C2
  3
Grid/DisplayGrid03
350
2C3
  3
Grid/GridSpacingX00
350
2C4
  3
Grid/GridSpacingX01
350
2C5
  3
Grid/GridSpacingX02
350
2C6
  3
Grid/GridSpacingX03
350
2C7
  3
Grid/GridSpacingY00
350
2C8
  3
Grid/GridSpacingY01
350
2C9
  3
Grid/GridSpacingY02
350
2CA
  3
Grid/GridSpacingY03
350
2CB
  3
Grid/IsometricGrid00
350
2CC
  3
Grid/IsometricGrid01
350
2CD
  3
Grid/IsometricGrid02
350
2CE
  3
Grid/IsometricGrid03
350
2CF
  3
Grid/IsometricProjection00
350
2D0
  3
Grid/IsometricProjection01
350
2D1
  3
Grid/IsometricProjection02
350
2D2
  3
Grid/IsometricProjection03
350
2D3
  3
Grid/MetaGridSpacingX00
350
2D4
  3
Grid/MetaGridSpacingX01
350
2D5
  3
Grid/MetaGridSpacingX02
350
2D6
  3
Grid/MetaGridSpacingX03
350
2D7
  3
Grid/MetaGridSpacingY00
350
2D8
  3
Grid/MetaGridSpacingY01
350
2D9
  3
Grid/MetaGridSpacingY02
350
2DA
  3
Grid/MetaGridSpacingY03
350
2DB
  3
MultiPageSettings/Columns
350
2DC
  3
MultiPageSettings/GlueMarginsBottom
350
2DD
  3
MultiPageSettings/GlueMarginsLeft
350
2DE
  3
MultiPageSettings/GlueMarginsRight
350
2DF
  3
MultiPageSettings/GlueMarginsTop
350
2E0
  3
MultiPageSettings/PrintCropMarks
350
2E1
  3
MultiPageSettings/Rows
350
2E2
  3
PageSettings/OffsetX
350
2E3
  3
PageSettings/OffsetY
350
2E4
  3
PageSettings/PageOrientation
350
2E5
  3
PageSettings/PaperHeight
350
2E6
  3
PageSettings/PaperWidth
350
2E7
  3
PageSettings/Scale
350
2E8
  3
PageSettings/ShowPaperBorders
350
2E9
  3
PageTagSettings/EnablePageTags
350
2EA
  3
PageTagSettings/TagAlignment
350
2EB
  3
PageTagSettings/TagFont
350
2EC
  3
PageTagSettings/TagPosition
350
2ED
  3
QCADVersion
350
2EE
  3
UnitSettings/PaperUnit
350
2EF
  3
ViewportCenter
350
2F0
  3
ViewportHeight
350
2F1
  3
ViewportWidth
350
2F2
  0
LAYOUT
  5
27B
102
{ACAD_REACTORS
330
277
102
}
330
277
100
AcDbPlotSettings
  1

  2
none_device
  4
Letter_(8.50_x_11.00_Inches)
  6

 40
6.35
 41
6.35
 42
6.35001
 43
6.35001
 44
215.9
 45
279.4
 46
0.0
 47
0.0
 48
0.0
 49
0.0
140
0.0
141
0.0
142
1.0
143
1.0
 70
   688
 72
     0
 73
     1
 74
     5
  7

 75
    16
 76
     0
 77
     2
 78
   300
147
1.0
148
0.0
149
0.0
100
AcDbLayout
  1
Layout1
 70
     0
 71
     1
 10
-0.25
 20
-0.25
 11
10.75
 21
8.25
 12
0.0
 22
0.0
 32
0.0
 14
1.000000000000000E+20
 24
1.000000000000000E+20
 34
1.000000000000000E+20
 15
-1.000000000000000E+20
 25
-1.000000000000000E+20
 35
-1.000000000000000E+20
146
0.0
 13
0.0
 23
0.0
 33
0.0
 16
1.0
 26
0.0
 36
0.0
 17
0.0
 27
1.0
 37
0.0
 76
     0
330
278
331
337
  0
LAYOUT
  5
27F
102
{ACAD_REACTORS
330
277
102
}
330
277
100
AcDbPlotSettings
  1

  2
none_device
  4
Letter_(8.50_x_11.00_Inches)
  6

 40
6.35
 41
6.35
 42
6.35000508
 43
6.35000508
 44
215.9
 45
279.4
 46
0.0
 47
0.0
 48
0.0
 49
0.0
140
0.0
141
0.0
142
1.0
143
1.0
 70
  1712
 72
     0
 73
     0
 74
     0
  7

 75
     0
 76
     0
 77
     2
 78
   300
147
1.0
148
0.0
149
0.0
100
AcDbLayout
  1
Model
 70
     1
 71
     0
 10
0.0
 20
0.0
 11
0.0
 21
0.0
 12
0.0
 22
0.0
 32
0.0
 14
247.0555556014
 24
512.3827342711
 34
0.0
 15
267.3055556014
 25
554.3944443446
 35
0.0
146
0.0
 13
0.0
 23
0.0
 33
0.0
 16
1.0
 26
0.0
 36
0.0
 17
0.0
 27
1.0
 37
0.0
 76
     0
330
27C
331
286
  0
MATERIAL
  5
2A2
102
{ACAD_REACTORS
330
2A0
102
}
330
2A0
100
AcDbMaterial
  1
ByBlock
 72
     1
 94
      127
  0
MATERIAL
  5
2A1
102
{ACAD_REACTORS
330
2A0
102
}
330
2A0
100
AcDbMaterial
  1
ByLayer
 72
     1
 94
      127
  0
MATERIAL
  5
2A3
102
{ACAD_REACTORS
330
2A0
102
}
330
2A0
100
AcDbMaterial
  1
Global
 72
     1
 94
      127
  0
MLEADERSTYLE
  5
2B9
102
{ACAD_REACTORS
330
2B8
102
}
330
2B8
100
AcDbMLeaderStyle
179
     2
170
     2
171
     1
172
     0
 90
        2
 40
0.0
 41
0.0
173
     1
 91
-1056964608
340
271
 92
       -2
290
     1
 42
0.09
291
     1
 43
0.36
  3
Standard
341
0
 44
0.18
300

342
26F
174
     1
178
     6
175
     1
176
     0
 93
-1056964608
 45
0.18
292
     0
297
     0
 46
0.18
343
0
 94
-1056964608
 47
1.0
 49
1.0
140
1.0
293
     1
141
0.0
294
     1
177
     0
142
1.0
295
     0
296
     0
143
0.125
271
     0
272
     9
273
     9
298
     0
  0
MLINESTYLE
  5
275
102
{ACAD_REACTORS
330
274
102
}
330
274
100
AcDbMlineStyle
  2
Standard
 70
     0
  3

 62
   256
 51
90.0
 52
90.0
 71
     2
 49
0.5
 62
   256
  6
BYLAYER
 49
-0.5
 62
   256
  6
BYLAYER
  0
ACDBPLACEHOLDER
  5
26D
102
{ACAD_REACTORS
330
26C
102
}
330
26C
  0
SCALE
  5
2A5
102
{ACAD_REACTORS
330
2A4
102
}
330
2A4
100
AcDbScale
 70
     0
300
1:1
140
1.0
141
1.0
290
     1
  0
SCALE
  5
2A6
102
{ACAD_REACTORS
330
2A4
102
}
330
2A4
100
AcDbScale
 70
     0
300
1/128" = 1'-0"
140
0.0078125
141
12.0
290
     0
  0
SCALE
  5
2A7
102
{ACAD_REACTORS
330
2A4
102
}
330
2A4
100
AcDbScale
 70
     0
300
1/64" = 1'-0"
140
0.015625
141
12.0
290
     0
  0
SCALE
  5
2A8
102
{ACAD_REACTORS
330
2A4
102
}
330
2A4
100
AcDbScale
 70
     0
300
1/32" = 1'-0"
140
0.03125
141
12.0
290
     0
  0
SCALE
  5
2A9
102
{ACAD_REACTORS
330
2A4
102
}
330
2A4
100
AcDbScale
 70
     0
300
1/16" = 1'-0"
140
0.0625
141
12.0
290
     0
  0
SCALE
  5
2AA
102
{ACAD_REACTORS
330
2A4
102
}
330
2A4
100
AcDbScale
 70
     0
300
3/32" = 1'-0"
140
0.09375
141
12.0
290
     0
  0
SCALE
  5
2AB
102
{ACAD_REACTORS
330
2A4
102
}
330
2A4
100
AcDbScale
 70
     0
300
1/8" = 1'-0"
140
0.125
141
12.0
290
     0
  0
SCALE
  5
2AC
102
{ACAD_REACTORS
330
2A4
102
}
330
2A4
100
AcDbScale
 70
     0
300
3/16" = 1'-0"
140
0.1875
141
12.0
290
     0
  0
SCALE
  5
2AD
102
{ACAD_REACTORS
330
2A4
102
}
330
2A4
100
AcDbScale
 70
     0
300
1/4" = 1'-0"
140
0.25
141
12.0
290
     0
  0
SCALE
  5
2AE
102
{ACAD_REACTORS
330
2A4
102
}
330
2A4
100
AcDbScale
 70
     0
300
3/8" = 1'-0"
140
0.375
141
12.0
290
     0
  0
SCALE
  5
2AF
102
{ACAD_REACTORS
330
2A4
102
}
330
2A4
100
AcDbScale
 70
     0
300
1/2" = 1'-0"
140
0.5
141
12.0
290
     0
  0
SCALE
  5
2B0
102
{ACAD_REACTORS
330
2A4
102
}
330
2A4
100
AcDbScale
 70
     0
300
3/4" = 1'-0"
140
0.75
141
12.0
290
     0
  0
SCALE
  5
2B1
102
{ACAD_REACTORS
330
2A4
102
}
330
2A4
100
AcDbScale
 70
     0
300
1" = 1'-0"
140
1.0
141
12.0
290
     0
  0
SCALE
  5
2B2
102
{ACAD_REACTORS
330
2A4
102
}
330
2A4
100
AcDbScale
 70
     0
300
1-1/2" = 1'-0"
140
1.5
141
12.0
290
     0
  0
SCALE
  5
2B3
102
{ACAD_REACTORS
330
2A4
102
}
330
2A4
100
AcDbScale
 70
     0
300
3" = 1'-0"
140
3.0
141
12.0
290
     0
  0
SCALE
  5
2B4
102
{ACAD_REACTORS
330
2A4
102
}
330
2A4
100
AcDbScale
 70
     0
300
6" = 1'-0"
140
6.0
141
12.0
290
     0
  0
SCALE
  5
2B5
102
{ACAD_REACTORS
330
2A4
102
}
330
2A4
100
AcDbScale
 70
     0
300
1'-0" = 1'-0"
140
12.0
141
12.0
290
     0
  0
TABLESTYLE
  5
2B7
102
{ACAD_REACTORS
330
2B6
102
}
102
{ACAD_XDICTIONARY
360
33B
102
}
330
2B6
100
AcDbTableStyle
  3
Standard
 70
     0
 71
     0
 40
0.06
 41
0.06
280
     0
281
     0
  7
Standard
140
0.18
170
     2
 62
     0
 63
   257
283
     0
 90
        4
 91
        0
  1

274
    -2
284
     1
 64
     0
275
    -2
285
     1
 65
     0
276
    -2
286
     1
 66
     0
277
    -2
287
     1
 67
     0
278
    -2
288
     1
 68
     0
279
    -2
289
     1
 69
     0
  7
Standard
140
0.25
170
     5
 62
     0
 63
   257
283
     0
 90
        4
 91
        0
  1

274
    -2
284
     1
 64
     0
275
    -2
285
     1
 65
     0
276
    -2
286
     1
 66
     0
277
    -2
287
     1
 67
     0
278
    -2
288
     1
 68
     0
279
    -2
289
     1
 69
     0
  7
Standard
140
0.18
170
     5
 62
     0
 63
   257
283
     0
 90
        4
 91
        0
  1

274
    -2
284
     1
 64
     0
275
    -2
285
     1
 65
     0
276
    -2
286
     1
 66
     0
277
    -2
287
     1
 67
     0
278
    -2
288
     1
 68
     0
279
    -2
289
     1
 69
     0
  0
VISUALSTYLE
  5
28C
102
{ACAD_REACTORS
330
287
102
}
330
287
100
AcDbVisualStyle
  2
2dWireframe
 70
     4
177
     3
291
     0
 70
    58
 90
        0
176
     1
 90
        2
176
     1
 90
        0
176
     1
 90
        0
176
     1
 40
0.6
176
     1
 40
30.0
176
     1
 62
     7
420
 16777215
176
     1
 90
        1
176
     1
 90
        4
176
     1
 62
     7
176
     1
 62
   257
176
     1
 90
        1
176
     1
 90
        1
176
     1
 40
1.0
176
     1
 90
        0
176
     1
 62
   257
176
     1
 40
1.0
176
     1
 90
        1
176
     1
 90
        6
176
     1
 90
        2
176
     1
 62
     7
176
     1
 90
        5
176
     1
 90
        0
176
     1
 90
        0
176
     1
290
     0
176
     1
 90
        1
176
     1
 40
0.0
176
     1
 90
        0
176
     1
290
     1
176
     1
290
     1
176
     1
290
     0
176
     1
290
     0
176
     1
290
     0
176
     1
290
     0
176
     1
290
     0
176
     1
290
     0
176
     1
290
     0
176
     1
 90
       50
176
     1
 40
0.0
176
     1
 40
1.0
176
     1
 90
        0
176
     1
 62
    18
420
        0
176
     1
 90
       50
176
     1
 90
        3
176
     1
 62
     5
420
      255
176
     1
290
     0
176
     1
 90
       50
176
     1
 90
       50
176
     1
 90
       50
176
     1
290
     0
176
     1
 90
       50
176
     1
 62
   256
176
     0
 40
1.0
176
     0
 90
        2
176
     1
  1
strokes_ogs.tif
176
     1
290
     0
176
     1
 40
1.0
176
     1
 40
1.0
176
     1
  0
VISUALSTYLE
  5
28F
102
{ACAD_REACTORS
330
287
102
}
330
287
100
AcDbVisualStyle
  2
Basic
 70
     7
177
     3
291
     1
 70
    58
 90
        1
176
     1
 90
        0
176
     1
 90
        1
176
     1
 90
        0
176
     1
 40
0.6
176
     1
 40
30.0
176
     1
 62
     7
420
 16777215
176
     1
 90
        0
176
     1
 90
        4
176
     1
 62
     7
176
     1
 62
   257
176
     1
 90
        1
176
     1
 90
        1
176
     1
 40
1.0
176
     1
 90
        8
176
     1
 62
     7
176
     1
 40
1.0
176
     1
 90
        1
176
     1
 90
        6
176
     1
 90
        2
176
     1
 62
     7
176
     1
 90
        5
176
     1
 90
        0
176
     1
 90
        0
176
     1
290
     0
176
     1
 90
        1
176
     1
 40
0.0
176
     1
 90
        0
176
     1
290
     0
176
     1
290
     1
176
     1
290
     1
176
     1
290
     0
176
     1
290
     0
176
     1
290
     0
176
     1
290
     0
176
     1
290
     0
176
     1
290
     0
176
     1
 90
       50
176
     1
 40
0.0
176
     1
 40
1.0
176
     1
 90
        0
176
     1
 62
    18
420
        0
176
     1
 90
       50
176
     1
 90
        3
176
     1
 62
     5
420
      255
176
     1
290
     0
176
     1
 90
       50
176
     1
 90
       50
176
     1
 90
       50
176
     1
290
     0
176
     1
 90
       50
176
     1
 62
   256
176
     0
 40
1.0
176
     0
 90
        2
176
     1
  1
strokes_ogs.tif
176
     1
290
     0
176
     1
 40
1.0
176
     1
 40
1.0
176
     1
  0
VISUALSTYLE
  5
293
102
{ACAD_REACTORS
330
287
102
}
330
287
100
AcDbVisualStyle
  2
Brighten
 70
    12
177
     3
291
     1
 70
    58
 90
        2
176
     1
 90
        2
176
     1
 90
        0
176
     1
 90
        0
176
     1
 40
0.6
176
     1
 40
30.0
176
     1
 62
     7
420
 16777215
176
     1
 90
        1
176
     1
 90
        4
176
     1
 62
     7
176
     1
 62
   257
176
     1
 90
        1
176
     1
 90
        1
176
     1
 40
1.0
176
     1
 90
        8
176
     1
 62
     7
176
     1
 40
1.0
176
     1
 90
        1
176
     1
 90
        6
176
     1
 90
        2
176
     1
 62
     7
176
     1
 90
        5
176
     1
 90
        0
176
     1
 90
        0
176
     1
290
     0
176
     1
 90
        1
176
     1
 40
50.0
176
     1
 90
        0
176
     1
290
     0
176
     1
290
     1
176
     1
290
     1
176
     1
290
     0
176
     1
290
     0
176
     1
290
     0
176
     1
290
     0
176
     1
290
     0
176
     1
290
     0
176
     1
 90
       50
176
     1
 40
0.0
176
     1
 40
1.0
176
     1
 90
        0
176
     1
 62
    18
420
        0
176
     1
 90
       50
176
     1
 90
        3
176
     1
 62
     5
420
      255
176
     1
290
     0
176
     1
 90
       50
176
     1
 90
       50
176
     1
 90
       50
176
     1
290
     0
176
     1
 90
       50
176
     1
 62
   256
176
     0
 40
1.0
176
     0
 90
        2
176
     1
  1
strokes_ogs.tif
176
     1
290
     0
176
     1
 40
1.0
176
     1
 40
1.0
176
     1
  0
VISUALSTYLE
  5
297
102
{ACAD_REACTORS
330
287
102
}
330
287
100
AcDbVisualStyle
  2
ColorChange
 70
    16
177
     3
291
     1
 70
    58
 90
        2
176
     1
 90
        2
176
     1
 90
        3
176
     1
 90
        0
176
     1
 40
0.6
176
     1
 40
30.0
176
     1
 62
     8
420
  8421504
176
     1
 90
        1
176
     1
 90
        4
176
     1
 62
     7
176
     1
 62
   257
176
     1
 90
        1
176
     1
 90
        1
176
     1
 40
1.0
176
     1
 90
        8
176
     1
 62
     8
420
  8421504
176
     1
 40
1.0
176
     1
 90
        1
176
     1
 90
        6
176
     1
 90
        2
176
     1
 62
     7
176
     1
 90
        5
176
     1
 90
        0
176
     1
 90
        0
176
     1
290
     0
176
     1
 90
        1
176
     1
 40
0.0
176
     1
 90
        0
176
     1
290
     0
176
     1
290
     1
176
     1
290
     1
176
     1
290
     0
176
     1
290
     0
176
     1
290
     0
176
     1
290
     0
176
     1
290
     0
176
     1
290
     0
176
     1
 90
       50
176
     1
 40
0.0
176
     1
 40
1.0
176
     1
 90
        0
176
     1
 62
    18
420
        0
176
     1
 90
       50
176
     1
 90
        3
176
     1
 62
     5
420
      255
176
     1
290
     0
176
     1
 90
       50
176
     1
 90
       50
176
     1
 90
       50
176
     1
290
     0
176
     1
 90
       50
176
     1
 62
   256
176
     0
 40
1.0
176
     0
 90
        2
176
     1
  1
strokes_ogs.tif
176
     1
290
     0
176
     1
 40
1.0
176
     1
 40
1.0
176
     1
  0
VISUALSTYLE
  5
291
102
{ACAD_REACTORS
330
287
102
}
330
287
100
AcDbVisualStyle
  2
Conceptual
 70
     9
177
     3
291
     0
 70
    58
 90
        3
176
     1
 90
        2
176
     1
 90
        0
176
     1
 90
        0
176
     1
 40
0.6
176
     1
 40
30.0
176
     1
 62
     7
420
 16777215
176
     1
 90
        2
176
     1
 90
        2
176
     1
 62
     7
176
     1
 62
   257
176
     1
 90
        1
176
     1
 90
        1
176
     1
 40
179.0
176
     1
 90
        8
176
     1
 62
     7
176
     1
 40
1.0
176
     1
 90
        1
176
     1
 90
        6
176
     1
 90
        2
176
     1
 62
     7
176
     1
 90
        3
176
     1
 90
        0
176
     1
 90
        0
176
     1
290
     0
176
     1
 90
        1
176
     1
 40
0.0
176
     1
 90
        0
176
     1
290
     0
176
     1
290
     1
176
     1
290
     1
176
     1
290
     0
176
     1
290
     0
176
     1
290
     0
176
     1
290
     0
176
     1
290
     0
176
     1
290
     0
176
     1
 90
       50
176
     1
 40
0.0
176
     1
 40
1.0
176
     1
 90
        0
176
     1
 62
    18
420
        0
176
     1
 90
       50
176
     1
 90
        3
176
     1
 62
     5
420
      255
176
     1
290
     0
176
     1
 90
       50
176
     1
 90
       50
176
     1
 90
       50
176
     1
290
     0
176
     1
 90
       50
176
     1
 62
   256
176
     0
 40
1.0
176
     0
 90
        2
176
     1
  1
strokes_ogs.tif
176
     1
290
     0
176
     1
 40
1.0
176
     1
 40
1.0
176
     1
  0
VISUALSTYLE
  5
292
102
{ACAD_REACTORS
330
287
102
}
330
287
100
AcDbVisualStyle
  2
Dim
 70
    11
177
     3
291
     1
 70
    58
 90
        2
176
     1
 90
        2
176
     1
 90
        0
176
     1
 90
        0
176
     1
 40
0.6
176
     1
 40
30.0
176
     1
 62
     7
420
 16777215
176
     1
 90
        1
176
     1
 90
        4
176
     1
 62
     7
176
     1
 62
   257
176
     1
 90
        1
176
     1
 90
        1
176
     1
 40
1.0
176
     1
 90
        8
176
     1
 62
     7
176
     1
 40
1.0
176
     1
 90
        1
176
     1
 90
        6
176
     1
 90
        2
176
     1
 62
     7
176
     1
 90
        5
176
     1
 90
        0
176
     1
 90
        0
176
     1
290
     0
176
     1
 90
        1
176
     1
 40
-50.0
176
     1
 90
        0
176
     1
290
     0
176
     1
290
     1
176
     1
290
     1
176
     1
290
     0
176
     1
290
     0
176
     1
290
     0
176
     1
290
     0
176
     1
290
     0
176
     1
290
     0
176
     1
 90
       50
176
     1
 40
0.0
176
     1
 40
1.0
176
     1
 90
        0
176
     1
 62
    18
420
        0
176
     1
 90
       50
176
     1
 90
        3
176
     1
 62
     5
420
      255
176
     1
290
     0
176
     1
 90
       50
176
     1
 90
       50
176
     1
 90
       50
176
     1
290
     0
176
     1
 90
       50
176
     1
 62
   256
176
     0
 40
1.0
176
     0
 90
        2
176
     1
  1
strokes_ogs.tif
176
     1
290
     0
176
     1
 40
1.0
176
     1
 40
1.0
176
     1
  0
VISUALSTYLE
  5
29A
102
{ACAD_REACTORS
330
287
102
}
330
287
100
AcDbVisualStyle
  2
EdgeColorOff
 70
    22
177
     3
291
     1
 70
    58
 90
        2
176
     0
 90
        2
176
     0
 90
        0
176
     0
 90
        0
176
     0
 40
0.6
176
     0
 40
30.0
176
     0
 62
     7
420
 16777215
176
     0
 90
        1
176
     0
 90
        4
176
     0
 62
     7
176
     0
 62
   257
176
     0
 90
        1
176
     0
 90
        1
176
     0
 40
1.0
176
     0
 90
        8
176
     2
 62
     7
176
     0
 40
1.0
176
     0
 90
        1
176
     0
 90
        6
176
     0
 90
        2
176
     0
 62
     7
176
     0
 90
        5
176
     0
 90
        0
176
     0
 90
        0
176
     0
290
     0
176
     0
 90
        1
176
     0
 40
0.0
176
     0
 90
        0
176
     0
290
     0
176
     0
290
     1
176
     0
290
     1
176
     0
290
     0
176
     0
290
     0
176
     0
290
     0
176
     0
290
     0
176
     0
290
     0
176
     0
290
     0
176
     0
 90
       50
176
     0
 40
0.0
176
     0
 40
1.0
176
     0
 90
        0
176
     0
 62
    18
420
        0
176
     0
 90
       50
176
     0
 90
        3
176
     0
 62
     5
420
      255
176
     0
290
     0
176
     0
 90
       50
176
     0
 90
       50
176
     0
 90
       50
176
     0
290
     0
176
     0
 90
       50
176
     0
 62
   256
176
     0
 40
1.0
176
     0
 90
        2
176
     0
  1
strokes_ogs.tif
176
     0
290
     0
176
     0
 40
1.0
176
     0
 40
1.0
176
     0
  0
VISUALSTYLE
  5
296
102
{ACAD_REACTORS
330
287
102
}
330
287
100
AcDbVisualStyle
  2
Facepattern
 70
    15
177
     3
291
     1
 70
    58
 90
        2
176
     1
 90
        2
176
     1
 90
        0
176
     1
 90
        0
176
     1
 40
0.6
176
     1
 40
30.0
176
     1
 62
     7
420
 16777215
176
     1
 90
        1
176
     1
 90
        4
176
     1
 62
     7
176
     1
 62
   257
176
     1
 90
        1
176
     1
 90
        1
176
     1
 40
1.0
176
     1
 90
        8
176
     1
 62
     7
176
     1
 40
1.0
176
     1
 90
        1
176
     1
 90
        6
176
     1
 90
        2
176
     1
 62
     7
176
     1
 90
        5
176
     1
 90
        0
176
     1
 90
        0
176
     1
290
     0
176
     1
 90
        1
176
     1
 40
0.0
176
     1
 90
        0
176
     1
290
     0
176
     1
290
     1
176
     1
290
     1
176
     1
290
     0
176
     1
290
     0
176
     1
290
     0
176
     1
290
     0
176
     1
290
     0
176
     1
290
     0
176
     1
 90
       50
176
     1
 40
0.0
176
     1
 40
1.0
176
     1
 90
        0
176
     1
 62
    18
420
        0
176
     1
 90
       50
176
     1
 90
        3
176
     1
 62
     5
420
      255
176
     1
290
     0
176
     1
 90
       50
176
     1
 90
       50
176
     1
 90
       50
176
     1
290
     0
176
     1
 90
       50
176
     1
 62
   256
176
     0
 40
1.0
176
     0
 90
        2
176
     1
  1
strokes_ogs.tif
176
     1
290
     0
176
     1
 40
1.0
176
     1
 40
1.0
176
     1
  0
VISUALSTYLE
  5
288
102
{ACAD_REACTORS
330
287
102
}
330
287
100
AcDbVisualStyle
  2
Flat
 70
     0
177
     3
291
     1
 70
    58
 90
        2
176
     1
 90
        1
176
     1
 90
        1
176
     1
 90
        2
176
     1
 40
0.6
176
     1
 40
30.0
176
     1
 62
     7
420
 16777215
176
     1
 90
        0
176
     1
 90
        0
176
     1
 62
     7
176
     1
 62
   257
176
     1
 90
        1
176
     1
 90
        1
176
     1
 40
1.0
176
     1
 90
        8
176
     1
 62
     7
176
     1
 40
1.0
176
     1
 90
        1
176
     1
 90
        6
176
     1
 90
        2
176
     1
 62
     7
176
     1
 90
        5
176
     1
 90
        0
176
     1
 90
        0
176
     1
290
     0
176
     1
 90
       13
176
     1
 40
0.0
176
     1
 90
        0
176
     1
290
     0
176
     1
290
     1
176
     1
290
     1
176
     1
290
     0
176
     1
290
     0
176
     1
290
     0
176
     1
290
     0
176
     1
290
     0
176
     1
290
     0
176
     1
 90
       50
176
     1
 40
0.0
176
     1
 40
1.0
176
     1
 90
        0
176
     1
 62
    18
420
        0
176
     1
 90
       50
176
     1
 90
        3
176
     1
 62
     5
420
      255
176
     1
290
     0
176
     1
 90
       50
176
     1
 90
       50
176
     1
 90
       50
176
     1
290
     0
176
     1
 90
       50
176
     1
 62
   256
176
     0
 40
1.0
176
     0
 90
        2
176
     1
  1
strokes_ogs.tif
176
     1
290
     0
176
     1
 40
1.0
176
     1
 40
1.0
176
     1
  0
VISUALSTYLE
  5
289
102
{ACAD_REACTORS
330
287
102
}
330
287
100
AcDbVisualStyle
  2
FlatWithEdges
 70
     1
177
     3
291
     1
 70
    58
 90
        2
176
     1
 90
        1
176
     1
 90
        1
176
     1
 90
        2
176
     1
 40
0.6
176
     1
 40
30.0
176
     1
 62
     7
420
 16777215
176
     1
 90
        1
176
     1
 90
        0
176
     1
 62
     7
176
     1
 62
   257
176
     1
 90
        1
176
     1
 90
        1
176
     1
 40
1.0
176
     1
 90
        0
176
     1
 62
   257
176
     1
 40
1.0
176
     1
 90
        1
176
     1
 90
        6
176
     1
 90
        2
176
     1
 62
     7
176
     1
 90
        5
176
     1
 90
        0
176
     1
 90
        0
176
     1
290
     0
176
     1
 90
       13
176
     1
 40
0.0
176
     1
 90
        0
176
     1
290
     0
176
     1
290
     1
176
     1
290
     1
176
     1
290
     0
176
     1
290
     0
176
     1
290
     0
176
     1
290
     0
176
     1
290
     0
176
     1
290
     0
176
     1
 90
       50
176
     1
 40
0.0
176
     1
 40
1.0
176
     1
 90
        0
176
     1
 62
    18
420
        0
176
     1
 90
       50
176
     1
 90
        3
176
     1
 62
     5
420
      255
176
     1
290
     0
176
     1
 90
       50
176
     1
 90
       50
176
     1
 90
       50
176
     1
290
     0
176
     1
 90
       50
176
     1
 62
   256
176
     0
 40
1.0
176
     0
 90
        2
176
     1
  1
strokes_ogs.tif
176
     1
290
     0
176
     1
 40
1.0
176
     1
 40
1.0
176
     1
  0
VISUALSTYLE
  5
28A
102
{ACAD_REACTORS
330
287
102
}
330
287
100
AcDbVisualStyle
  2
Gouraud
 70
     2
177
     3
291
     1
 70
    58
 90
        2
176
     1
 90
        2
176
     1
 90
        1
176
     1
 90
        2
176
     1
 40
0.6
176
     1
 40
30.0
176
     1
 62
     7
420
 16777215
176
     1
 90
        0
176
     1
 90
        0
176
     1
 62
     7
176
     1
 62
   257
176
     1
 90
        1
176
     1
 90
        1
176
     1
 40
1.0
176
     1
 90
        0
176
     1
 62
     7
176
     1
 40
1.0
176
     1
 90
        1
176
     1
 90
        6
176
     1
 90
        2
176
     1
 62
     7
176
     1
 90
        5
176
     1
 90
        0
176
     1
 90
        0
176
     1
290
     0
176
     1
 90
       13
176
     1
 40
0.0
176
     1
 90
        0
176
     1
290
     0
176
     1
290
     1
176
     1
290
     1
176
     1
290
     0
176
     1
290
     0
176
     1
290
     0
176
     1
290
     0
176
     1
290
     0
176
     1
290
     0
176
     1
 90
       50
176
     1
 40
0.0
176
     1
 40
1.0
176
     1
 90
        0
176
     1
 62
    18
420
        0
176
     1
 90
       50
176
     1
 90
        3
176
     1
 62
     5
420
      255
176
     1
290
     0
176
     1
 90
       50
176
     1
 90
       50
176
     1
 90
       50
176
     1
290
     0
176
     1
 90
       50
176
     1
 62
   256
176
     0
 40
1.0
176
     0
 90
        2
176
     1
  1
strokes_ogs.tif
176
     1
290
     0
176
     1
 40
1.0
176
     1
 40
1.0
176
     1
  0
VISUALSTYLE
  5
28B
102
{ACAD_REACTORS
330
287
102
}
330
287
100
AcDbVisualStyle
  2
GouraudWithEdges
 70
     3
177
     3
291
     1
 70
    58
 90
        2
176
     1
 90
        2
176
     1
 90
        1
176
     1
 90
        2
176
     1
 40
0.6
176
     1
 40
30.0
176
     1
 62
     7
420
 16777215
176
     1
 90
        1
176
     1
 90
        0
176
     1
 62
     7
176
     1
 62
   257
176
     1
 90
        1
176
     1
 90
        1
176
     1
 40
1.0
176
     1
 90
        0
176
     1
 62
   257
176
     1
 40
1.0
176
     1
 90
        1
176
     1
 90
        6
176
     1
 90
        2
176
     1
 62
     7
176
     1
 90
        5
176
     1
 90
        0
176
     1
 90
        0
176
     1
290
     0
176
     1
 90
       13
176
     1
 40
0.0
176
     1
 90
        0
176
     1
290
     0
176
     1
290
     1
176
     1
290
     1
176
     1
290
     0
176
     1
290
     0
176
     1
290
     0
176
     1
290
     0
176
     1
290
     0
176
     1
290
     0
176
     1
 90
       50
176
     1
 40
0.0
176
     1
 40
1.0
176
     1
 90
        0
176
     1
 62
    18
420
        0
176
     1
 90
       50
176
     1
 90
        3
176
     1
 62
     5
420
      255
176
     1
290
     0
176
     1
 90
       50
176
     1
 90
       50
176
     1
 90
       50
176
     1
290
     0
176
     1
 90
       50
176
     1
 62
   256
176
     0
 40
1.0
176
     0
 90
        2
176
     1
  1
strokes_ogs.tif
176
     1
290
     0
176
     1
 40
1.0
176
     1
 40
1.0
176
     1
  0
VISUALSTYLE
  5
28E
102
{ACAD_REACTORS
330
287
102
}
330
287
100
AcDbVisualStyle
  2
Hidden
 70
     6
177
     3
291
     0
 70
    58
 90
        1
176
     1
 90
        2
176
     1
 90
        2
176
     1
 90
        0
176
     1
 40
0.6
176
     1
 40
30.0
176
     1
 62
     7
420
 16777215
176
     1
 90
        2
176
     1
 90
        2
176
     1
 62
     7
176
     1
 62
   257
176
     1
 90
        2
176
     1
 90
        1
176
     1
 40
40.0
176
     1
 90
        0
176
     1
 62
   257
176
     1
 40
1.0
176
     1
 90
        1
176
     1
 90
        6
176
     1
 90
        2
176
     1
 62
     7
176
     1
 90
        3
176
     1
 90
        0
176
     1
 90
        0
176
     1
290
     0
176
     1
 90
        1
176
     1
 40
0.0
176
     1
 90
        0
176
     1
290
     0
176
     1
290
     1
176
     1
290
     1
176
     1
290
     0
176
     1
290
     0
176
     1
290
     0
176
     1
290
     0
176
     1
290
     0
176
     1
290
     0
176
     1
 90
       50
176
     1
 40
0.0
176
     1
 40
1.0
176
     1
 90
        0
176
     1
 62
    18
420
        0
176
     1
 90
       50
176
     1
 90
        3
176
     1
 62
     5
420
      255
176
     1
290
     0
176
     1
 90
       50
176
     1
 90
       50
176
     1
 90
       50
176
     1
290
     0
176
     1
 90
       50
176
     1
 62
   256
176
     0
 40
1.0
176
     0
 90
        2
176
     1
  1
strokes_ogs.tif
176
     1
290
     0
176
     1
 40
1.0
176
     1
 40
1.0
176
     1
  0
VISUALSTYLE
  5
298
102
{ACAD_REACTORS
330
287
102
}
330
287
100
AcDbVisualStyle
  2
JitterOff
 70
    20
177
     3
291
     1
 70
    58
 90
        2
176
     0
 90
        2
176
     0
 90
        0
176
     0
 90
        0
176
     0
 40
0.6
176
     0
 40
30.0
176
     0
 62
     7
420
 16777215
176
     0
 90
        1
176
     0
 90
        4
176
     0
 62
     7
176
     0
 62
   257
176
     0
 90
        1
176
     0
 90
        1
176
     0
 40
1.0
176
     0
 90
       10
176
     2
 62
     7
176
     0
 40
1.0
176
     0
 90
        1
176
     0
 90
        6
176
     0
 90
        2
176
     0
 62
     7
176
     0
 90
        5
176
     0
 90
        0
176
     0
 90
        0
176
     0
290
     0
176
     0
 90
        1
176
     0
 40
0.0
176
     0
 90
        0
176
     0
290
     0
176
     0
290
     1
176
     0
290
     1
176
     0
290
     0
176
     0
290
     0
176
     0
290
     0
176
     0
290
     0
176
     0
290
     0
176
     0
290
     0
176
     0
 90
       50
176
     0
 40
0.0
176
     0
 40
1.0
176
     0
 90
        0
176
     0
 62
    18
420
        0
176
     0
 90
       50
176
     0
 90
        3
176
     0
 62
     5
420
      255
176
     0
290
     0
176
     0
 90
       50
176
     0
 90
       50
176
     0
 90
       50
176
     0
290
     0
176
     0
 90
       50
176
     0
 62
   256
176
     0
 40
1.0
176
     0
 90
        2
176
     0
  1
strokes_ogs.tif
176
     0
290
     0
176
     0
 40
1.0
176
     0
 40
1.0
176
     0
  0
VISUALSTYLE
  5
295
102
{ACAD_REACTORS
330
287
102
}
330
287
100
AcDbVisualStyle
  2
Linepattern
 70
    14
177
     3
291
     1
 70
    58
 90
        2
176
     1
 90
        2
176
     1
 90
        0
176
     1
 90
        0
176
     1
 40
0.6
176
     1
 40
30.0
176
     1
 62
     7
420
 16777215
176
     1
 90
        1
176
     1
 90
        4
176
     1
 62
     7
176
     1
 62
   257
176
     1
 90
        7
176
     1
 90
        7
176
     1
 40
1.0
176
     1
 90
        8
176
     1
 62
     7
176
     1
 40
1.0
176
     1
 90
        1
176
     1
 90
        6
176
     1
 90
        2
176
     1
 62
     7
176
     1
 90
        5
176
     1
 90
        0
176
     1
 90
        0
176
     1
290
     0
176
     1
 90
        1
176
     1
 40
0.0
176
     1
 90
        0
176
     1
290
     0
176
     1
290
     1
176
     1
290
     1
176
     1
290
     0
176
     1
290
     0
176
     1
290
     0
176
     1
290
     0
176
     1
290
     0
176
     1
290
     0
176
     1
 90
       50
176
     1
 40
0.0
176
     1
 40
1.0
176
     1
 90
        0
176
     1
 62
    18
420
        0
176
     1
 90
       50
176
     1
 90
        3
176
     1
 62
     5
420
      255
176
     1
290
     0
176
     1
 90
       50
176
     1
 90
       50
176
     1
 90
       50
176
     1
290
     0
176
     1
 90
       50
176
     1
 62
   256
176
     0
 40
1.0
176
     0
 90
        2
176
     1
  1
strokes_ogs.tif
176
     1
290
     0
176
     1
 40
1.0
176
     1
 40
1.0
176
     1
  0
VISUALSTYLE
  5
299
102
{ACAD_REACTORS
330
287
102
}
330
287
100
AcDbVisualStyle
  2
OverhangOff
 70
    21
177
     3
291
     1
 70
    58
 90
        2
176
     0
 90
        2
176
     0
 90
        0
176
     0
 90
        0
176
     0
 40
0.6
176
     0
 40
30.0
176
     0
 62
     7
420
 16777215
176
     0
 90
        1
176
     0
 90
        4
176
     0
 62
     7
176
     0
 62
   257
176
     0
 90
        1
176
     0
 90
        1
176
     0
 40
1.0
176
     0
 90
        9
176
     2
 62
     7
176
     0
 40
1.0
176
     0
 90
        1
176
     0
 90
        6
176
     0
 90
        2
176
     0
 62
     7
176
     0
 90
        5
176
     0
 90
        0
176
     0
 90
        0
176
     0
290
     0
176
     0
 90
        1
176
     0
 40
0.0
176
     0
 90
        0
176
     0
290
     0
176
     0
290
     1
176
     0
290
     1
176
     0
290
     0
176
     0
290
     0
176
     0
290
     0
176
     0
290
     0
176
     0
290
     0
176
     0
290
     0
176
     0
 90
       50
176
     0
 40
0.0
176
     0
 40
1.0
176
     0
 90
        0
176
     0
 62
    18
420
        0
176
     0
 90
       50
176
     0
 90
        3
176
     0
 62
     5
420
      255
176
     0
290
     0
176
     0
 90
       50
176
     0
 90
       50
176
     0
 90
       50
176
     0
290
     0
176
     0
 90
       50
176
     0
 62
   256
176
     0
 40
1.0
176
     0
 90
        2
176
     0
  1
strokes_ogs.tif
176
     0
290
     0
176
     0
 40
1.0
176
     0
 40
1.0
176
     0
  0
VISUALSTYLE
  5
290
102
{ACAD_REACTORS
330
287
102
}
330
287
100
AcDbVisualStyle
  2
Realistic
 70
     8
177
     3
291
     0
 70
    58
 90
        2
176
     1
 90
        3
176
     1
 90
        0
176
     1
 90
        2
176
     1
 40
0.6
176
     1
 40
30.0
176
     1
 62
     7
420
 16777215
176
     1
 90
        0
176
     1
 90
        0
176
     1
 62
     7
176
     1
 62
   257
176
     1
 90
        1
176
     1
 90
        1
176
     1
 40
1.0
176
     1
 90
        8
176
     1
 62
   257
176
     1
 40
1.0
176
     1
 90
        1
176
     1
 90
        6
176
     1
 90
        2
176
     1
 62
     7
176
     1
 90
        3
176
     1
 90
        0
176
     1
 90
        0
176
     1
290
     0
176
     1
 90
       13
176
     1
 40
0.0
176
     1
 90
        0
176
     1
290
     0
176
     1
290
     1
176
     1
290
     1
176
     1
290
     0
176
     1
290
     0
176
     1
290
     0
176
     1
290
     0
176
     1
290
     0
176
     1
290
     0
176
     1
 90
       50
176
     1
 40
0.0
176
     1
 40
1.0
176
     1
 90
        0
176
     1
 62
    18
420
        0
176
     1
 90
       50
176
     1
 90
        3
176
     1
 62
     5
420
      255
176
     1
290
     0
176
     1
 90
       50
176
     1
 90
       50
176
     1
 90
       50
176
     1
290
     0
176
     1
 90
       50
176
     1
 62
   256
176
     0
 40
1.0
176
     0
 90
        2
176
     1
  1
strokes_ogs.tif
176
     1
290
     0
176
     1
 40
1.0
176
     1
 40
1.0
176
     1
  0
VISUALSTYLE
  5
29F
102
{ACAD_REACTORS
330
287
102
}
330
287
100
AcDbVisualStyle
  2
Shaded
 70
    27
177
     3
291
     0
 70
    58
 90
        2
176
     1
 90
        2
176
     1
 90
        1
176
     1
 90
        2
176
     1
 40
0.6
176
     1
 40
30.0
176
     1
 62
     7
420
 16777215
176
     1
 90
        0
176
     1
 90
        4
176
     1
 62
     7
176
     1
 62
   257
176
     1
 90
        1
176
     1
 90
        1
176
     1
 40
1.0
176
     1
 90
        8
176
     1
 62
   257
176
     1
 40
1.0
176
     1
 90
        1
176
     1
 90
        6
176
     1
 90
        2
176
     1
 62
     8
420
  7895160
176
     1
 90
        3
176
     1
 90
        0
176
     1
 90
        0
176
     1
290
     0
176
     1
 90
        5
176
     1
 40
0.0
176
     1
 90
        0
176
     1
290
     0
176
     1
290
     1
176
     1
290
     1
176
     1
290
     0
176
     1
290
     0
176
     1
290
     0
176
     1
290
     0
176
     1
290
     0
176
     1
290
     0
176
     1
 90
       50
176
     1
 40
0.0
176
     1
 40
1.0
176
     1
 90
        0
176
     1
 62
    18
420
        0
176
     1
 90
       50
176
     1
 90
        3
176
     1
 62
     5
420
      255
176
     1
290
     0
176
     1
 90
       50
176
     1
 90
       50
176
     1
 90
       50
176
     1
290
     0
176
     1
 90
       50
176
     1
 62
   256
176
     0
 40
1.0
176
     0
 90
        2
176
     1
  1
strokes_ogs.tif
176
     1
290
     0
176
     1
 40
1.0
176
     1
 40
1.0
176
     1
  0
VISUALSTYLE
  5
29E
102
{ACAD_REACTORS
330
287
102
}
330
287
100
AcDbVisualStyle
  2
Shaded with edges
 70
    26
177
     3
291
     0
 70
    58
 90
        2
176
     1
 90
        2
176
     1
 90
        1
176
     1
 90
        2
176
     1
 40
0.6
176
     1
 40
30.0
176
     1
 62
     7
420
 16777215
176
     1
 90
        1
176
     1
 90
       10
176
     1
 62
     7
176
     1
 62
   257
176
     1
 90
        2
176
     1
 90
        1
176
     1
 40
1.0
176
     1
 90
        8
176
     1
 62
   257
176
     1
 40
1.0
176
     1
 90
        1
176
     1
 90
        6
176
     1
 90
        2
176
     1
 62
     7
176
     1
 90
        3
176
     1
 90
        0
176
     1
 90
        0
176
     1
290
     0
176
     1
 90
        5
176
     1
 40
0.0
176
     1
 90
        0
176
     1
290
     0
176
     1
290
     1
176
     1
290
     1
176
     1
290
     0
176
     1
290
     0
176
     1
290
     0
176
     1
290
     0
176
     1
290
     0
176
     1
290
     0
176
     1
 90
       50
176
     1
 40
0.0
176
     1
 40
1.0
176
     1
 90
        0
176
     1
 62
    18
420
        0
176
     1
 90
       50
176
     1
 90
        3
176
     1
 62
     5
420
      255
176
     1
290
     0
176
     1
 90
       50
176
     1
 90
       50
176
     1
 90
       50
176
     1
290
     0
176
     1
 90
       50
176
     1
 62
   256
176
     0
 40
1.0
176
     0
 90
        2
176
     1
  1
strokes_ogs.tif
176
     1
290
     0
176
     1
 40
1.0
176
     1
 40
1.0
176
     1
  0
VISUALSTYLE
  5
29B
102
{ACAD_REACTORS
330
287
102
}
330
287
100
AcDbVisualStyle
  2
Shades of Gray
 70
    23
177
     3
291
     0
 70
    58
 90
        2
176
     1
 90
        2
176
     1
 90
        3
176
     1
 90
        0
176
     1
 40
0.6
176
     1
 40
30.0
176
     1
 62
     7
420
 16777215
176
     1
 90
        2
176
     1
 90
        2
176
     1
 62
     7
176
     1
 62
     7
176
     1
 90
        1
176
     1
 90
        1
176
     1
 40
40.0
176
     1
 90
        8
176
     1
 62
     7
176
     1
 40
1.0
176
     1
 90
        1
176
     1
 90
        6
176
     1
 90
        2
176
     1
 62
     7
176
     1
 90
        3
176
     1
 90
        0
176
     1
 90
        0
176
     1
290
     0
176
     1
 90
        1
176
     1
 40
0.0
176
     1
 90
        0
176
     1
290
     0
176
     1
290
     1
176
     1
290
     1
176
     1
290
     0
176
     1
290
     0
176
     1
290
     0
176
     1
290
     0
176
     1
290
     0
176
     1
290
     0
176
     1
 90
       50
176
     1
 40
0.0
176
     1
 40
1.0
176
     1
 90
        0
176
     1
 62
    18
420
        0
176
     1
 90
       50
176
     1
 90
        3
176
     1
 62
     5
420
      255
176
     1
290
     0
176
     1
 90
       50
176
     1
 90
       50
176
     1
 90
       50
176
     1
290
     0
176
     1
 90
       50
176
     1
 62
   256
176
     0
 40
1.0
176
     0
 90
        2
176
     1
  1
strokes_ogs.tif
176
     1
290
     0
176
     1
 40
1.0
176
     1
 40
1.0
176
     1
  0
VISUALSTYLE
  5
29C
102
{ACAD_REACTORS
330
287
102
}
330
287
100
AcDbVisualStyle
  2
Sketchy
 70
    24
177
     3
291
     0
 70
    58
 90
        1
176
     1
 90
        2
176
     1
 90
        2
176
     1
 90
        0
176
     1
 40
0.6
176
     1
 40
30.0
176
     1
 62
     7
420
 16777215
176
     1
 90
        2
176
     1
 90
        2
176
     1
 62
     7
176
     1
 62
     7
176
     1
 90
        1
176
     1
 90
        1
176
     1
 40
40.0
176
     1
 90
       11
176
     1
 62
     7
176
     1
 40
1.0
176
     1
 90
        1
176
     1
 90
        6
176
     1
 90
        2
176
     1
 62
     7
176
     1
 90
        6
176
     1
 90
        0
176
     1
 90
        0
176
     1
290
     0
176
     1
 90
        1
176
     1
 40
0.0
176
     1
 90
        0
176
     1
290
     0
176
     1
290
     1
176
     1
290
     1
176
     1
290
     0
176
     1
290
     0
176
     1
290
     0
176
     1
290
     0
176
     1
290
     0
176
     1
290
     0
176
     1
 90
       50
176
     1
 40
0.0
176
     1
 40
1.0
176
     1
 90
        0
176
     1
 62
    18
420
        0
176
     1
 90
       50
176
     1
 90
        3
176
     1
 62
     5
420
      255
176
     1
290
     0
176
     1
 90
       50
176
     1
 90
       50
176
     1
 90
       50
176
     1
290
     0
176
     1
 90
       50
176
     1
 62
   256
176
     0
 40
1.0
176
     0
 90
        2
176
     1
  1
strokes_ogs.tif
176
     1
290
     0
176
     1
 40
1.0
176
     1
 40
1.0
176
     1
  0
VISUALSTYLE
  5
294
102
{ACAD_REACTORS
330
287
102
}
330
287
100
AcDbVisualStyle
  2
Thicken
 70
    13
177
     3
291
     1
 70
    58
 90
        2
176
     1
 90
        2
176
     1
 90
        0
176
     1
 90
        0
176
     1
 40
0.6
176
     1
 40
30.0
176
     1
 62
     7
420
 16777215
176
     1
 90
        1
176
     1
 90
        4
176
     1
 62
     7
176
     1
 62
   257
176
     1
 90
        1
176
     1
 90
        1
176
     1
 40
1.0
176
     1
 90
       12
176
     1
 62
     7
176
     1
 40
1.0
176
     1
 90
        1
176
     1
 90
        6
176
     1
 90
        2
176
     1
 62
     7
176
     1
 90
        5
176
     1
 90
        0
176
     1
 90
        0
176
     1
290
     0
176
     1
 90
        1
176
     1
 40
0.0
176
     1
 90
        0
176
     1
290
     0
176
     1
290
     1
176
     1
290
     1
176
     1
290
     0
176
     1
290
     0
176
     1
290
     0
176
     1
290
     0
176
     1
290
     0
176
     1
290
     0
176
     1
 90
       50
176
     1
 40
0.0
176
     1
 40
1.0
176
     1
 90
        0
176
     1
 62
    18
420
        0
176
     1
 90
       50
176
     1
 90
        3
176
     1
 62
     5
420
      255
176
     1
290
     0
176
     1
 90
       50
176
     1
 90
       50
176
     1
 90
       50
176
     1
290
     0
176
     1
 90
       50
176
     1
 62
   256
176
     0
 40
1.0
176
     0
 90
        2
176
     1
  1
strokes_ogs.tif
176
     1
290
     0
176
     1
 40
1.0
176
     1
 40
1.0
176
     1
  0
VISUALSTYLE
  5
28D
102
{ACAD_REACTORS
330
287
102
}
330
287
100
AcDbVisualStyle
  2
Wireframe
 70
     5
177
     3
291
     0
 70
    58
 90
        0
176
     1
 90
        2
176
     1
 90
        0
176
     1
 90
        0
176
     1
 40
0.6
176
     1
 40
30.0
176
     1
 62
     7
420
 16777215
176
     1
 90
        1
176
     1
 90
        4
176
     1
 62
     7
176
     1
 62
   257
176
     1
 90
        1
176
     1
 90
        1
176
     1
 40
1.0
176
     1
 90
        0
176
     1
 62
   257
176
     1
 40
1.0
176
     1
 90
        1
176
     1
 90
        6
176
     1
 90
        2
176
     1
 62
     7
176
     1
 90
        3
176
     1
 90
        0
176
     1
 90
        0
176
     1
290
     0
176
     1
 90
        1
176
     1
 40
0.0
176
     1
 90
        0
176
     1
290
     0
176
     1
290
     1
176
     1
290
     1
176
     1
290
     0
176
     1
290
     0
176
     1
290
     0
176
     1
290
     0
176
     1
290
     0
176
     1
290
     0
176
     1
 90
       50
176
     1
 40
0.0
176
     1
 40
1.0
176
     1
 90
        0
176
     1
 62
    18
420
        0
176
     1
 90
       50
176
     1
 90
        3
176
     1
 62
     5
420
      255
176
     1
290
     0
176
     1
 90
       50
176
     1
 90
       50
176
     1
 90
       50
176
     1
290
     0
176
     1
 90
       50
176
     1
 62
   256
176
     0
 40
1.0
176
     0
 90
        2
176
     1
  1
strokes_ogs.tif
176
     1
290
     0
176
     1
 40
1.0
176
     1
 40
1.0
176
     1
  0
VISUALSTYLE
  5
29D
102
{ACAD_REACTORS
330
287
102
}
330
287
100
AcDbVisualStyle
  2
X-Ray
 70
    25
177
     3
291
     0
 70
    58
 90
        2
176
     1
 90
        2
176
     1
 90
        1
176
     1
 90
        1
176
     1
 40
0.5
176
     1
 40
30.0
176
     1
 62
     7
420
 16777215
176
     1
 90
        1
176
     1
 90
        0
176
     1
 62
     7
176
     1
 62
   257
176
     1
 90
        1
176
     1
 90
        1
176
     1
 40
1.0
176
     1
 90
        8
176
     1
 62
     7
176
     1
 40
1.0
176
     1
 90
        1
176
     1
 90
        6
176
     1
 90
        2
176
     1
 62
     7
176
     1
 90
        3
176
     1
 90
        0
176
     1
 90
        0
176
     1
290
     0
176
     1
 90
       13
176
     1
 40
0.0
176
     1
 90
        0
176
     1
290
     0
176
     1
290
     1
176
     1
290
     1
176
     1
290
     0
176
     1
290
     0
176
     1
290
     0
176
     1
290
     0
176
     1
290
     0
176
     1
290
     0
176
     1
 90
       50
176
     1
 40
0.0
176
     1
 40
1.0
176
     1
 90
        0
176
     1
 62
    18
420
        0
176
     1
 90
       50
176
     1
 90
        3
176
     1
 62
     5
420
      255
176
     1
290
     0
176
     1
 90
       50
176
     1
 90
       50
176
     1
 90
       50
176
     1
290
     0
176
     1
 90
       50
176
     1
 62
   256
176
     0
 40
1.0
176
     0
 90
        2
176
     1
  1
strokes_ogs.tif
176
     1
290
     0
176
     1
 40
1.0
176
     1
 40
1.0
176
     1
  0
DICTIONARYVAR
  5
33A
102
{ACAD_REACTORS
330
339
102
}
330
339
100
DictionaryVariables
280
     0
  1
1:1
  0
DICTIONARYVAR
  5
33F
102
{ACAD_REACTORS
330
339
102
}
330
339
100
DictionaryVariables
280
     0
  1
Standard
  0
DICTIONARYVAR
  5
33E
102
{ACAD_REACTORS
330
339
102
}
330
339
100
DictionaryVariables
280
     0
  1
Standard
  0
XRECORD
  5
2BE
102
{ACAD_REACTORS
330
2BC
102
}
330
2BC
100
AcDbXrecord
280
     1
1000
#ffffff
  0
XRECORD
  5
2BF
102
{ACAD_REACTORS
330
2BC
102
}
330
2BC
100
AcDbXrecord
280
     1
1000
FullColor
  0
XRECORD
  5
2C0
102
{ACAD_REACTORS
330
2BC
102
}
330
2BC
100
AcDbXrecord
280
     1
290
     1
  0
XRECORD
  5
2C1
102
{ACAD_REACTORS
330
2BC
102
}
330
2BC
100
AcDbXrecord
280
     1
290
     1
  0
XRECORD
  5
2C2
102
{ACAD_REACTORS
330
2BC
102
}
330
2BC
100
AcDbXrecord
280
     1
290
     1
  0
XRECORD
  5
2C3
102
{ACAD_REACTORS
330
2BC
102
}
330
2BC
100
AcDbXrecord
280
     1
290
     1
  0
XRECORD
  5
2C4
102
{ACAD_REACTORS
330
2BC
102
}
330
2BC
100
AcDbXrecord
280
     1
1000
auto
  0
XRECORD
  5
2C5
102
{ACAD_REACTORS
330
2BC
102
}
330
2BC
100
AcDbXrecord
280
     1
1000
auto
  0
XRECORD
  5
2C6
102
{ACAD_REACTORS
330
2BC
102
}
330
2BC
100
AcDbXrecord
280
     1
1000
auto
  0
XRECORD
  5
2C7
102
{ACAD_REACTORS
330
2BC
102
}
330
2BC
100
AcDbXrecord
280
     1
1000
auto
  0
XRECORD
  5
2C8
102
{ACAD_REACTORS
330
2BC
102
}
330
2BC
100
AcDbXrecord
280
     1
1000
auto
  0
XRECORD
  5
2C9
102
{ACAD_REACTORS
330
2BC
102
}
330
2BC
100
AcDbXrecord
280
     1
1000
auto
  0
XRECORD
  5
2CA
102
{ACAD_REACTORS
330
2BC
102
}
330
2BC
100
AcDbXrecord
280
     1
1000
auto
  0
XRECORD
  5
2CB
102
{ACAD_REACTORS
330
2BC
102
}
330
2BC
100
AcDbXrecord
280
     1
1000
auto
  0
XRECORD
  5
2CC
102
{ACAD_REACTORS
330
2BC
102
}
330
2BC
100
AcDbXrecord
280
     1
290
     0
  0
XRECORD
  5
2CD
102
{ACAD_REACTORS
330
2BC
102
}
330
2BC
100
AcDbXrecord
280
     1
290
     0
  0
XRECORD
  5
2CE
102
{ACAD_REACTORS
330
2BC
102
}
330
2BC
100
AcDbXrecord
280
     1
290
     0
  0
XRECORD
  5
2CF
102
{ACAD_REACTORS
330
2BC
102
}
330
2BC
100
AcDbXrecord
280
     1
290
     0
  0
XRECORD
  5
2D0
102
{ACAD_REACTORS
330
2BC
102
}
330
2BC
100
AcDbXrecord
280
     1
 90
    65537
  0
XRECORD
  5
2D1
102
{ACAD_REACTORS
330
2BC
102
}
330
2BC
100
AcDbXrecord
280
     1
 90
    65537
  0
XRECORD
  5
2D2
102
{ACAD_REACTORS
330
2BC
102
}
330
2BC
100
AcDbXrecord
280
     1
 90
    65537
  0
XRECORD
  5
2D3
102
{ACAD_REACTORS
330
2BC
102
}
330
2BC
100
AcDbXrecord
280
     1
 90
    65537
  0
XRECORD
  5
2D4
102
{ACAD_REACTORS
330
2BC
102
}
330
2BC
100
AcDbXrecord
280
     1
1000
auto
  0
XRECORD
  5
2D5
102
{ACAD_REACTORS
330
2BC
102
}
330
2BC
100
AcDbXrecord
280
     1
1000
auto
  0
XRECORD
  5
2D6
102
{ACAD_REACTORS
330
2BC
102
}
330
2BC
100
AcDbXrecord
280
     1
1000
auto
  0
XRECORD
  5
2D7
102
{ACAD_REACTORS
330
2BC
102
}
330
2BC
100
AcDbXrecord
280
     1
1000
auto
  0
XRECORD
  5
2D8
102
{ACAD_REACTORS
330
2BC
102
}
330
2BC
100
AcDbXrecord
280
     1
1000
auto
  0
XRECORD
  5
2D9
102
{ACAD_REACTORS
330
2BC
102
}
330
2BC
100
AcDbXrecord
280
     1
1000
auto
  0
XRECORD
  5
2DA
102
{ACAD_REACTORS
330
2BC
102
}
330
2BC
100
AcDbXrecord
280
     1
1000
auto
  0
XRECORD
  5
2DB
102
{ACAD_REACTORS
330
2BC
102
}
330
2BC
100
AcDbXrecord
280
     1
1000
auto
  0
XRECORD
  5
2DC
102
{ACAD_REACTORS
330
2BC
102
}
330
2BC
100
AcDbXrecord
280
     1
 90
        1
  0
XRECORD
  5
2DD
102
{ACAD_REACTORS
330
2BC
102
}
330
2BC
100
AcDbXrecord
280
     1
 40
0.5
  0
XRECORD
  5
2DE
102
{ACAD_REACTORS
330
2BC
102
}
330
2BC
100
AcDbXrecord
280
     1
 40
0.5
  0
XRECORD
  5
2DF
102
{ACAD_REACTORS
330
2BC
102
}
330
2BC
100
AcDbXrecord
280
     1
 40
0.5
  0
XRECORD
  5
2E0
102
{ACAD_REACTORS
330
2BC
102
}
330
2BC
100
AcDbXrecord
280
     1
 40
0.5
  0
XRECORD
  5
2E1
102
{ACAD_REACTORS
330
2BC
102
}
330
2BC
100
AcDbXrecord
280
     1
290
     0
  0
XRECORD
  5
2E2
102
{ACAD_REACTORS
330
2BC
102
}
330
2BC
100
AcDbXrecord
280
     1
 90
        1
  0
XRECORD
  5
2E3
102
{ACAD_REACTORS
330
2BC
102
}
330
2BC
100
AcDbXrecord
280
     1
 40
0.0
  0
XRECORD
  5
2E4
102
{ACAD_REACTORS
330
2BC
102
}
330
2BC
100
AcDbXrecord
280
     1
 40
0.0
  0
XRECORD
  5
2E5
102
{ACAD_REACTORS
330
2BC
102
}
330
2BC
100
AcDbXrecord
280
     1
1000
Portrait
  0
XRECORD
  5
2E6
102
{ACAD_REACTORS
330
2BC
102
}
330
2BC
100
AcDbXrecord
280
     1
 40
11.0
  0
XRECORD
  5
2E7
102
{ACAD_REACTORS
330
2BC
102
}
330
2BC
100
AcDbXrecord
280
     1
 40
8.5
  0
XRECORD
  5
2E8
102
{ACAD_REACTORS
330
2BC
102
}
330
2BC
100
AcDbXrecord
280
     1
1000
1:1
  0
XRECORD
  5
2E9
102
{ACAD_REACTORS
330
2BC
102
}
330
2BC
100
AcDbXrecord
280
     1
290
     1
  0
XRECORD
  5
2EA
102
{ACAD_REACTORS
330
2BC
102
}
330
2BC
100
AcDbXrecord
280
     1
290
     0
  0
XRECORD
  5
2EB
102
{ACAD_REACTORS
330
2BC
102
}
330
2BC
100
AcDbXrecord
280
     1
1000
Inside
  0
XRECORD
  5
2EC
102
{ACAD_REACTORS
330
2BC
102
}
330
2BC
100
AcDbXrecord
280
     1
1000
Arial,10,-1,5,50,0,0,0,0,0
  0
XRECORD
  5
2ED
102
{ACAD_REACTORS
330
2BC
102
}
330
2BC
100
AcDbXrecord
280
     1
1000
TopLeft
  0
XRECORD
  5
2EE
102
{ACAD_REACTORS
330
2BC
102
}
330
2BC
100
AcDbXrecord
280
     1
1000
3.27.1
  0
XRECORD
  5
2EF
102
{ACAD_REACTORS
330
2BC
102
}
330
2BC
100
AcDbXrecord
280
     1
 90
        1
  0
XRECORD
  5
2F0
102
{ACAD_REACTORS
330
2BC
102
}
330
2BC
100
AcDbXrecord
280
     1
  0
XRECORD
  5
2F1
102
{ACAD_REACTORS
330
2BC
102
}
330
2BC
100
AcDbXrecord
280
     1
 40
64.998117156572
  0
XRECORD
  5
2F2
102
{ACAD_REACTORS
330
2BC
102
}
330
2BC
100
AcDbXrecord
280
     1
 40
86.78418966611548
  0
DICTIONARY
  5
33B
330
2B7
100
AcDbDictionary
280
     1
281
     1
  3
ACAD_ROUNDTRIP_2008_TABLESTYLE_CELLSTYLEMAP
360
33C
  0
CELLSTYLEMAP
  5
33C
102
{ACAD_REACTORS
330
33B
102
}
330
33B
100
AcDbCellStyleMap
 90
        3
300
CELLSTYLE
  1
TABLEFORMAT_BEGIN
 90
        5
170
     1
 91
        0
 92
    32768
 62
   257
 93
        1
300
CONTENTFORMAT
  1
CONTENTFORMAT_BEGIN
 90
        0
 91
        0
 92
        4
 93
        0
300

 40
0.0
140
1.0
 94
        5
 62
     0
340
26F
144
0.25
309
CONTENTFORMAT_END
171
     1
301
MARGIN
  1
CELLMARGIN_BEGIN
 40
0.06
 40
0.06
 40
0.06
 40
0.06
 40
0.06
 40
0.06
309
CELLMARGIN_END
 94
        6
 95
        1
302
GRIDFORMAT
  1
GRIDFORMAT_BEGIN
 90
        0
 91
        1
 62
     0
 92
       -2
340
271
 93
        0
 40
0.045
309
GRIDFORMAT_END
 95
        2
302
GRIDFORMAT
  1
GRIDFORMAT_BEGIN
 90
        0
 91
        1
 62
     0
 92
       -2
340
271
 93
        0
 40
0.045
309
GRIDFORMAT_END
 95
        4
302
GRIDFORMAT
  1
GRIDFORMAT_BEGIN
 90
        0
 91
        1
 62
     0
 92
       -2
340
271
 93
        0
 40
0.045
309
GRIDFORMAT_END
 95
        8
302
GRIDFORMAT
  1
GRIDFORMAT_BEGIN
 90
        0
 91
        1
 62
     0
 92
       -2
340
271
 93
        0
 40
0.045
309
GRIDFORMAT_END
 95
       16
302
GRIDFORMAT
  1
GRIDFORMAT_BEGIN
 90
        0
 91
        1
 62
     0
 92
       -2
340
271
 93
        0
 40
0.045
309
GRIDFORMAT_END
 95
       32
302
GRIDFORMAT
  1
GRIDFORMAT_BEGIN
 90
        0
 91
        1
 62
     0
 92
       -2
340
271
 93
        0
 40
0.045
309
GRIDFORMAT_END
309
TABLEFORMAT_END
  1
CELLSTYLE_BEGIN
 90
        1
 91
        1
300
_TITLE
309
CELLSTYLE_END
300
CELLSTYLE
  1
TABLEFORMAT_BEGIN
 90
        5
170
     1
 91
        0
 92
        0
 62
   257
 93
        1
300
CONTENTFORMAT
  1
CONTENTFORMAT_BEGIN
 90
        0
 91
        0
 92
        4
 93
        0
300

 40
0.0
140
1.0
 94
        5
 62
     0
340
26F
144
0.18
309
CONTENTFORMAT_END
171
     1
301
MARGIN
  1
CELLMARGIN_BEGIN
 40
0.06
 40
0.06
 40
0.06
 40
0.06
 40
0.06
 40
0.06
309
CELLMARGIN_END
 94
        6
 95
        1
302
GRIDFORMAT
  1
GRIDFORMAT_BEGIN
 90
        0
 91
        1
 62
     0
 92
       -2
340
271
 93
        0
 40
0.045
309
GRIDFORMAT_END
 95
        2
302
GRIDFORMAT
  1
GRIDFORMAT_BEGIN
 90
        0
 91
        1
 62
     0
 92
       -2
340
271
 93
        0
 40
0.045
309
GRIDFORMAT_END
 95
        4
302
GRIDFORMAT
  1
GRIDFORMAT_BEGIN
 90
        0
 91
        1
 62
     0
 92
       -2
340
271
 93
        0
 40
0.045
309
GRIDFORMAT_END
 95
        8
302
GRIDFORMAT
  1
GRIDFORMAT_BEGIN
 90
        0
 91
        1
 62
     0
 92
       -2
340
271
 93
        0
 40
0.045
309
GRIDFORMAT_END
 95
       16
302
GRIDFORMAT
  1
GRIDFORMAT_BEGIN
 90
        0
 91
        1
 62
     0
 92
       -2
340
271
 93
        0
 40
0.045
309
GRIDFORMAT_END
 95
       32
302
GRIDFORMAT
  1
GRIDFORMAT_BEGIN
 90
        0
 91
        1
 62
     0
 92
       -2
340
271
 93
        0
 40
0.045
309
GRIDFORMAT_END
309
TABLEFORMAT_END
  1
CELLSTYLE_BEGIN
 90
        2
 91
        1
300
_HEADER
309
CELLSTYLE_END
300
CELLSTYLE
  1
TABLEFORMAT_BEGIN
 90
        5
170
     1
 91
        0
 92
        0
 62
   257
 93
        1
300
CONTENTFORMAT
  1
CONTENTFORMAT_BEGIN
 90
        0
 91
        0
 92
        4
 93
        0
300

 40
0.0
140
1.0
 94
        2
 62
     0
340
26F
144
0.18
309
CONTENTFORMAT_END
171
     1
301
MARGIN
  1
CELLMARGIN_BEGIN
 40
0.06
 40
0.06
 40
0.06
 40
0.06
 40
0.06
 40
0.06
309
CELLMARGIN_END
 94
        6
 95
        1
302
GRIDFORMAT
  1
GRIDFORMAT_BEGIN
 90
        0
 91
        1
 62
     0
 92
       -2
340
271
 93
        0
 40
0.045
309
GRIDFORMAT_END
 95
        2
302
GRIDFORMAT
  1
GRIDFORMAT_BEGIN
 90
        0
 91
        1
 62
     0
 92
       -2
340
271
 93
        0
 40
0.045
309
GRIDFORMAT_END
 95
        4
302
GRIDFORMAT
  1
GRIDFORMAT_BEGIN
 90
        0
 91
        1
 62
     0
 92
       -2
340
271
 93
        0
 40
0.045
309
GRIDFORMAT_END
 95
        8
302
GRIDFORMAT
  1
GRIDFORMAT_BEGIN
 90
        0
 91
        1
 62
     0
 92
       -2
340
271
 93
        0
 40
0.045
309
GRIDFORMAT_END
 95
       16
302
GRIDFORMAT
  1
GRIDFORMAT_BEGIN
 90
        0
 91
        1
 62
     0
 92
       -2
340
271
 93
        0
 40
0.045
309
GRIDFORMAT_END
 95
       32
302
GRIDFORMAT
  1
GRIDFORMAT_BEGIN
 90
        0
 91
        1
 62
     0
 92
       -2
340
271
 93
        0
 40
0.045
309
GRIDFORMAT_END
309
TABLEFORMAT_END
  1
CELLSTYLE_BEGIN
 90
        3
 91
        2
300
_DATA
309
CELLSTYLE_END
  0
ENDSEC
  0
EOF
