<?xml version="1.0" encoding="UTF-8" standalone="no"?>
<svg
   xmlns:dc="http://purl.org/dc/elements/1.1/"
   xmlns:cc="http://creativecommons.org/ns#"
   xmlns:rdf="http://www.w3.org/1999/02/22-rdf-syntax-ns#"
   xmlns:svg="http://www.w3.org/2000/svg"
   xmlns="http://www.w3.org/2000/svg"
   xmlns:sodipodi="http://sodipodi.sourceforge.net/DTD/sodipodi-0.dtd"
   xmlns:inkscape="http://www.inkscape.org/namespaces/inkscape"
   inkscape:export-ydpi="300.17996"
   inkscape:export-xdpi="300.17996"
   inkscape:export-filename="C:\Users\Jacob\Desktop\logos\pcg-logo-300.png"
   width="210mm"
   height="297mm"
   viewBox="0 0 210 297"
   version="1.1"
   id="svg8"
   inkscape:version="1.0 (4035a4fb49, 2020-05-01)"
   sodipodi:docname="pcg-logo.svg">
  <defs
     id="defs2">
    <clipPath
       id="clipPath849"
       clipPathUnits="userSpaceOnUse">
      <path
         id="path847"
         d="M 0,330.135 H 1464.511 V 0 H 0 Z" />
    </clipPath>
  </defs>
  <sodipodi:namedview
     id="base"
     pagecolor="#ffffff"
     bordercolor="#666666"
     borderopacity="1.0"
     inkscape:pageopacity="0.0"
     inkscape:pageshadow="2"
     inkscape:zoom="1.4"
     inkscape:cx="407.83161"
     inkscape:cy="439.61052"
     inkscape:document-units="mm"
     inkscape:current-layer="layer1"
     inkscape:document-rotation="0"
     showgrid="false"
     inkscape:window-width="1624"
     inkscape:window-height="1228"
     inkscape:window-x="393"
     inkscape:window-y="373"
     inkscape:window-maximized="0" />
  <metadata
     id="metadata5">
    <rdf:RDF>
      <cc:Work
         rdf:about="">
        <dc:format>image/svg+xml</dc:format>
        <dc:type
           rdf:resource="http://purl.org/dc/dcmitype/StillImage" />
        <dc:title />
      </cc:Work>
    </rdf:RDF>
  </metadata>
  <g
     inkscape:label="Layer 1"
     inkscape:groupmode="layer"
     id="layer1">
    <g
       id="g900">
      <g
         id="g845"
         clip-path="url(#clipPath849)"
         transform="matrix(0.12333411,0,0,-0.12333411,18.941223,136.16756)">
        <g
           id="g851"
           transform="translate(1309.5757,250.2173)">
          <path
             d="m 0,0 -0.002,-127.426 c 0,-1.065 -0.864,-1.928 -1.929,-1.928 h -129.402 c -1.065,0 -1.928,0.863 -1.928,1.928 l 0.002,127.428 z"
             style="fill:#000000;fill-opacity:1;fill-rule:nonzero;stroke:none"
             id="path853" />
        </g>
        <g
           id="g855"
           transform="translate(1183.0505,30.3062)">
          <path
             d="m 0,0 h -87.396 c -23.089,0 -41.873,18.783 -41.873,41.866 v 117.856 c 0,44.692 -36.349,81.048 -81.041,81.048 h -817.797 v 16.03 h 817.797 c 53.521,0 97.07,-43.549 97.07,-97.078 V 41.866 c 0,-14.246 11.599,-25.837 25.844,-25.837 H 0 c 28.598,0 51.876,23.277 51.876,51.885 v 60.485 h 16.03 V 67.914 C 67.906,30.462 37.443,0 0,0"
             style="fill:#000000;fill-opacity:1;fill-rule:nonzero;stroke:none"
             id="path857" />
        </g>
        <g
           id="g859"
           transform="translate(1069.8107,120.8629)">
          <path
             d="m 0,0 h -16.029 v 15.161 c 0,32.778 -26.659,59.445 -59.438,59.445 H -914.868 V 90.635 H -75.467 C -33.859,90.635 0,56.776 0,15.161 Z"
             style="fill:#000000;fill-opacity:1;fill-rule:nonzero;stroke:none"
             id="path861" />
        </g>
        <g
           id="g863"
           transform="translate(1069.8107,67.6628)">
          <path
             d="m 0,0 h -16.029 c 0,24.913 -20.271,45.185 -45.178,45.185 h -853.661 v 16.03 H -61.207 C -27.457,61.215 0,33.758 0,0"
             style="fill:#000000;fill-opacity:1;fill-rule:nonzero;stroke:none"
             id="path865" />
        </g>
        <g
           id="g867"
           transform="translate(154.9511,30)">
          <path
             d="m 0,0 -0.016,16.029 c 38.915,0.024 953.211,0.525 966.689,0.204 L 966.298,0.204 C 953.024,0.518 9.525,0.008 0,0"
             style="fill:#000000;fill-opacity:1;fill-rule:nonzero;stroke:none"
             id="path869" />
        </g>
        <g
           id="g871"
           transform="translate(1223.932,290.2828)">
          <path
             d="M 0,0 -0.002,-80.13 H -16.299 V 0 Z"
             style="fill:#000000;fill-opacity:1;fill-rule:nonzero;stroke:none"
             id="path873" />
        </g>
        <g
           id="g875"
           transform="translate(1281.0079,290.2828)">
          <path
             d="M 0,0 -0.002,-80.13 H -16.299 L -16.297,0 Z"
             style="fill:#000000;fill-opacity:1;fill-rule:nonzero;stroke:none"
             id="path877" />
        </g>
        <path
           d="m 205.152,38.321 h -16.029 v 240.77 h 16.029 z"
           style="fill:#000000;fill-opacity:1;fill-rule:nonzero;stroke:none"
           id="path879" />
        <path
           d="m 345.911,38.321 h -16.029 v 240.77 h 16.029 z"
           style="fill:#000000;fill-opacity:1;fill-rule:nonzero;stroke:none"
           id="path881" />
        <path
           d="m 486.661,38.321 h -16.029 v 240.77 h 16.029 z"
           style="fill:#000000;fill-opacity:1;fill-rule:nonzero;stroke:none"
           id="path883" />
        <path
           d="m 627.412,38.321 h -16.029 v 240.77 h 16.029 z"
           style="fill:#000000;fill-opacity:1;fill-rule:nonzero;stroke:none"
           id="path885" />
        <path
           d="m 768.162,38.321 h -16.029 v 240.77 h 16.029 z"
           style="fill:#000000;fill-opacity:1;fill-rule:nonzero;stroke:none"
           id="path887" />
        <path
           d="m 908.921,38.321 h -16.029 v 240.77 h 16.029 z"
           style="fill:#000000;fill-opacity:1;fill-rule:nonzero;stroke:none"
           id="path889" />
        <g
           id="g891"
           transform="translate(703.9514,241.9637)">
          <path
             d="m 0,0 c 0,-7.829 -6.346,-14.176 -14.176,-14.176 -7.829,0 -14.177,6.347 -14.177,14.176 0,7.83 6.348,14.176 14.177,14.176 C -6.346,14.176 0,7.83 0,0"
             style="fill:#000000;fill-opacity:1;fill-rule:nonzero;stroke:none"
             id="path893" />
        </g>
        <g
           id="g895"
           transform="translate(281.6927,163.9917)">
          <path
             d="m 0,0 c 0,-7.827 -6.348,-14.176 -14.178,-14.176 -7.829,0 -14.178,6.349 -14.178,14.176 0,7.832 6.349,14.178 14.178,14.178 C -6.348,14.178 0,7.832 0,0"
             style="fill:#000000;fill-opacity:1;fill-rule:nonzero;stroke:none"
             id="path897" />
        </g>
        <g
           id="g899"
           transform="translate(703.9514,75.8955)">
          <path
             d="m 0,0 c 0,-7.829 -6.346,-14.176 -14.176,-14.176 -7.829,0 -14.177,6.347 -14.177,14.176 0,7.83 6.348,14.176 14.177,14.176 C -6.346,14.176 0,7.83 0,0"
             style="fill:#000000;fill-opacity:1;fill-rule:nonzero;stroke:none"
             id="path901" />
        </g>
        <g
           id="g903"
           transform="translate(1242.9413,146.1044)">
          <path
             d="m 0,0 c -23.199,0 -42.061,18.87 -42.061,42.069 0,14.879 7.607,28.356 20.365,36.042 1.879,1.143 4.352,0.541 5.494,-1.368 1.142,-1.895 0.532,-4.36 -1.361,-5.503 C -27.88,65.025 -34.047,54.115 -34.047,42.069 -34.047,23.292 -18.769,8.015 0,8.015 c 18.785,0 34.063,15.277 34.063,34.054 0,11.593 -5.824,22.291 -15.576,28.608 -1.863,1.205 -2.395,3.687 -1.19,5.541 1.206,1.871 3.695,2.379 5.542,1.19 C 34.891,69.605 42.077,56.393 42.077,42.069 42.077,18.87 23.198,0 0,0"
             style="fill:#ffffff;fill-opacity:1;fill-rule:nonzero;stroke:none"
             id="path905" />
        </g>
        <g
           id="g907"
           transform="translate(1242.9413,192.2356)">
          <path
             d="m 0,0 c -2.207,0 -4.007,1.792 -4.007,4.007 v 34.72 c 0,2.215 1.8,4.007 4.007,4.007 2.207,0 4.007,-1.792 4.007,-4.007 V 4.007 C 4.007,1.792 2.207,0 0,0"
             style="fill:#ffffff;fill-opacity:1;fill-rule:nonzero;stroke:none"
             id="path909" />
        </g>
      </g>
      <text
         xml:space="preserve"
         style="font-size:9.76172px;line-height:1.25;font-family:INVADER;-inkscape-font-specification:INVADER;stroke-width:0.261475"
         x="38.07267"
         y="142.87735"
         id="text865"
         transform="scale(0.98825151,1.0118882)"><tspan
           sodipodi:role="line"
           id="tspan863"
           x="38.07267"
           y="142.87735"
           style="font-style:normal;font-variant:normal;font-weight:normal;font-stretch:normal;font-size:13.9453px;font-family:Magneto;-inkscape-font-specification:Magneto;stroke-width:0.261475">Power Cord Games</tspan></text>
    </g>
  </g>
</svg>
