<?xml version="1.0" encoding="UTF-8" standalone="no"?>
<svg
   xmlns:dc="http://purl.org/dc/elements/1.1/"
   xmlns:cc="http://creativecommons.org/ns#"
   xmlns:rdf="http://www.w3.org/1999/02/22-rdf-syntax-ns#"
   xmlns:svg="http://www.w3.org/2000/svg"
   xmlns="http://www.w3.org/2000/svg"
   xmlns:sodipodi="http://sodipodi.sourceforge.net/DTD/sodipodi-0.dtd"
   xmlns:inkscape="http://www.inkscape.org/namespaces/inkscape"
   sodipodi:docname="pcg-logo.svg"
   inkscape:version="1.0 (4035a4fb49, 2020-05-01)"
   id="svg8"
   version="1.1"
   viewBox="0 0 215.9 279.4"
   height="11in"
   width="8.5in"
   inkscape:export-filename="C:\Users\Jacob\Desktop\ttt.png"
   inkscape:export-xdpi="300.17996"
   inkscape:export-ydpi="300.17996">
  <defs
     id="defs2">
    <inkscape:path-effect
       hide_knots="false"
       only_selected="false"
       apply_with_radius="true"
       apply_no_radius="true"
       use_knot_distance="true"
       flexible="false"
       chamfer_steps="1"
       radius="0"
       mode="F"
       method="auto"
       unit="px"
       satellites_param="F,0,0,1,0,2.0833333,0,1 @ F,0,0,1,0,2.0833333,0,1 @ F,0,0,1,0,2.0833333,0,1 @ F,0,0,1,0,2.0833333,0,1"
       lpeversion="1"
       is_visible="true"
       id="path-effect924"
       effect="fillet_chamfer" />
    <inkscape:path-effect
       hide_knots="false"
       only_selected="false"
       apply_with_radius="true"
       apply_no_radius="true"
       use_knot_distance="true"
       flexible="false"
       chamfer_steps="1"
       radius="57"
       mode="F"
       method="auto"
       unit="px"
       satellites_param="C,0,0,1,0,0,0,1 @ C,0,0,1,0,0,0,1 @ C,0,0,1,0,0,0,1 @ C,0,0,1,0,0,0,1"
       lpeversion="1"
       is_visible="true"
       id="path-effect922"
       effect="fillet_chamfer" />
    <clipPath
       clipPathUnits="userSpaceOnUse"
       id="clipPath849">
      <path
         d="M 0,330.135 H 1464.511 V 0 H 0 Z"
         id="path847" />
    </clipPath>
  </defs>
  <sodipodi:namedview
     units="in"
     inkscape:pagecheckerboard="true"
     inkscape:window-maximized="0"
     inkscape:window-y="522"
     inkscape:window-x="588"
     inkscape:window-height="1228"
     inkscape:window-width="2028"
     showgrid="false"
     inkscape:document-rotation="0"
     inkscape:current-layer="layer2"
     inkscape:document-units="in"
     inkscape:cy="528"
     inkscape:cx="408"
     inkscape:zoom="0.95454545"
     inkscape:pageshadow="2"
     inkscape:pageopacity="0.0"
     borderopacity="1.0"
     bordercolor="#666666"
     pagecolor="#ffffff"
     id="base" />
  <metadata
     id="metadata5">
    <rdf:RDF>
      <cc:Work
         rdf:about="">
        <dc:format>image/svg+xml</dc:format>
        <dc:type
           rdf:resource="http://purl.org/dc/dcmitype/StillImage" />
        <dc:title></dc:title>
      </cc:Work>
    </rdf:RDF>
  </metadata>
  <g
     inkscape:label="Background"
     id="layer2"
     inkscape:groupmode="layer">
    <path
       inkscape:export-ydpi="300.09164"
       inkscape:export-xdpi="300.09164"
       inkscape:export-filename="C:\Users\Jacob\Desktop\ttt.png"
       d="M 37.228849,97.895836 H 181.04613 a 2.0833333,2.0833333 45 0 1 2.08333,2.083333 v 45.348211 a 2.0833333,2.0833333 135 0 1 -2.08333,2.08333 H 37.228849 a 2.0833333,2.0833333 45 0 1 -2.083334,-2.08333 V 99.979169 a 2.0833333,2.0833333 135 0 1 2.083334,-2.083333 z"
       inkscape:path-effect="#path-effect924"
       sodipodi:type="rect"
       y="97.895836"
       x="35.145515"
       height="49.514877"
       width="147.98395"
       id="rect920"
       style="fill:#ffffff;fill-rule:evenodd;stroke:none;stroke-width:1.24369" />
  </g>
  <g
     id="layer1"
     inkscape:groupmode="layer"
     inkscape:label="Logo">
    <g
       inkscape:export-ydpi="300.09164"
       inkscape:export-xdpi="300.09164"
       inkscape:export-filename="C:\Users\Jacob\Desktop\ttt.png"
       id="g900">
      <g
         transform="matrix(0.12333411,0,0,-0.12333411,18.941223,136.16756)"
         clip-path="url(#clipPath849)"
         id="g845">
        <g
           transform="translate(1309.5757,250.2173)"
           id="g851">
          <path
             id="path853"
             style="fill:#000000;fill-opacity:1;fill-rule:nonzero;stroke:none"
             d="m 0,0 -0.002,-127.426 c 0,-1.065 -0.864,-1.928 -1.929,-1.928 h -129.402 c -1.065,0 -1.928,0.863 -1.928,1.928 l 0.002,127.428 z" />
        </g>
        <g
           transform="translate(1183.0505,30.3062)"
           id="g855">
          <path
             id="path857"
             style="fill:#000000;fill-opacity:1;fill-rule:nonzero;stroke:none"
             d="m 0,0 h -87.396 c -23.089,0 -41.873,18.783 -41.873,41.866 v 117.856 c 0,44.692 -36.349,81.048 -81.041,81.048 h -817.797 v 16.03 h 817.797 c 53.521,0 97.07,-43.549 97.07,-97.078 V 41.866 c 0,-14.246 11.599,-25.837 25.844,-25.837 H 0 c 28.598,0 51.876,23.277 51.876,51.885 v 60.485 h 16.03 V 67.914 C 67.906,30.462 37.443,0 0,0" />
        </g>
        <g
           transform="translate(1069.8107,120.8629)"
           id="g859">
          <path
             id="path861"
             style="fill:#000000;fill-opacity:1;fill-rule:nonzero;stroke:none"
             d="m 0,0 h -16.029 v 15.161 c 0,32.778 -26.659,59.445 -59.438,59.445 H -914.868 V 90.635 H -75.467 C -33.859,90.635 0,56.776 0,15.161 Z" />
        </g>
        <g
           transform="translate(1069.8107,67.6628)"
           id="g863">
          <path
             id="path865"
             style="fill:#000000;fill-opacity:1;fill-rule:nonzero;stroke:none"
             d="m 0,0 h -16.029 c 0,24.913 -20.271,45.185 -45.178,45.185 h -853.661 v 16.03 H -61.207 C -27.457,61.215 0,33.758 0,0" />
        </g>
        <g
           transform="translate(154.9511,30)"
           id="g867">
          <path
             id="path869"
             style="fill:#000000;fill-opacity:1;fill-rule:nonzero;stroke:none"
             d="m 0,0 -0.016,16.029 c 38.915,0.024 953.211,0.525 966.689,0.204 L 966.298,0.204 C 953.024,0.518 9.525,0.008 0,0" />
        </g>
        <g
           transform="translate(1223.932,290.2828)"
           id="g871">
          <path
             id="path873"
             style="fill:#000000;fill-opacity:1;fill-rule:nonzero;stroke:none"
             d="M 0,0 -0.002,-80.13 H -16.299 V 0 Z" />
        </g>
        <g
           transform="translate(1281.0079,290.2828)"
           id="g875">
          <path
             id="path877"
             style="fill:#000000;fill-opacity:1;fill-rule:nonzero;stroke:none"
             d="M 0,0 -0.002,-80.13 H -16.299 L -16.297,0 Z" />
        </g>
        <path
           id="path879"
           style="fill:#000000;fill-opacity:1;fill-rule:nonzero;stroke:none"
           d="m 205.152,38.321 h -16.029 v 240.77 h 16.029 z" />
        <path
           id="path881"
           style="fill:#000000;fill-opacity:1;fill-rule:nonzero;stroke:none"
           d="m 345.911,38.321 h -16.029 v 240.77 h 16.029 z" />
        <path
           id="path883"
           style="fill:#000000;fill-opacity:1;fill-rule:nonzero;stroke:none"
           d="m 486.661,38.321 h -16.029 v 240.77 h 16.029 z" />
        <path
           id="path885"
           style="fill:#000000;fill-opacity:1;fill-rule:nonzero;stroke:none"
           d="m 627.412,38.321 h -16.029 v 240.77 h 16.029 z" />
        <path
           id="path887"
           style="fill:#000000;fill-opacity:1;fill-rule:nonzero;stroke:none"
           d="m 768.162,38.321 h -16.029 v 240.77 h 16.029 z" />
        <path
           id="path889"
           style="fill:#000000;fill-opacity:1;fill-rule:nonzero;stroke:none"
           d="m 908.921,38.321 h -16.029 v 240.77 h 16.029 z" />
        <g
           transform="translate(703.9514,241.9637)"
           id="g891">
          <path
             id="path893"
             style="fill:#000000;fill-opacity:1;fill-rule:nonzero;stroke:none"
             d="m 0,0 c 0,-7.829 -6.346,-14.176 -14.176,-14.176 -7.829,0 -14.177,6.347 -14.177,14.176 0,7.83 6.348,14.176 14.177,14.176 C -6.346,14.176 0,7.83 0,0" />
        </g>
        <g
           transform="translate(281.6927,163.9917)"
           id="g895">
          <path
             id="path897"
             style="fill:#000000;fill-opacity:1;fill-rule:nonzero;stroke:none"
             d="m 0,0 c 0,-7.827 -6.348,-14.176 -14.178,-14.176 -7.829,0 -14.178,6.349 -14.178,14.176 0,7.832 6.349,14.178 14.178,14.178 C -6.348,14.178 0,7.832 0,0" />
        </g>
        <g
           transform="translate(703.9514,75.8955)"
           id="g899">
          <path
             id="path901"
             style="fill:#000000;fill-opacity:1;fill-rule:nonzero;stroke:none"
             d="m 0,0 c 0,-7.829 -6.346,-14.176 -14.176,-14.176 -7.829,0 -14.177,6.347 -14.177,14.176 0,7.83 6.348,14.176 14.177,14.176 C -6.346,14.176 0,7.83 0,0" />
        </g>
        <g
           transform="translate(1242.9413,146.1044)"
           id="g903">
          <path
             id="path905"
             style="fill:#ffffff;fill-opacity:1;fill-rule:nonzero;stroke:none"
             d="m 0,0 c -23.199,0 -42.061,18.87 -42.061,42.069 0,14.879 7.607,28.356 20.365,36.042 1.879,1.143 4.352,0.541 5.494,-1.368 1.142,-1.895 0.532,-4.36 -1.361,-5.503 C -27.88,65.025 -34.047,54.115 -34.047,42.069 -34.047,23.292 -18.769,8.015 0,8.015 c 18.785,0 34.063,15.277 34.063,34.054 0,11.593 -5.824,22.291 -15.576,28.608 -1.863,1.205 -2.395,3.687 -1.19,5.541 1.206,1.871 3.695,2.379 5.542,1.19 C 34.891,69.605 42.077,56.393 42.077,42.069 42.077,18.87 23.198,0 0,0" />
        </g>
        <g
           transform="translate(1242.9413,192.2356)"
           id="g907">
          <path
             id="path909"
             style="fill:#ffffff;fill-opacity:1;fill-rule:nonzero;stroke:none"
             d="m 0,0 c -2.207,0 -4.007,1.792 -4.007,4.007 v 34.72 c 0,2.215 1.8,4.007 4.007,4.007 2.207,0 4.007,-1.792 4.007,-4.007 V 4.007 C 4.007,1.792 2.207,0 0,0" />
        </g>
      </g>
      <text
         transform="scale(0.98825151,1.0118882)"
         id="text865"
         y="142.87735"
         x="38.07267"
         style="font-size:9.76172px;line-height:1.25;font-family:INVADER;-inkscape-font-specification:INVADER;stroke-width:0.261475"
         xml:space="preserve"><tspan
           style="font-style:normal;font-variant:normal;font-weight:normal;font-stretch:normal;font-size:13.9453px;font-family:Magneto;-inkscape-font-specification:Magneto;stroke-width:0.261475"
           y="142.87735"
           x="38.07267"
           id="tspan863"
           sodipodi:role="line">Power Cord Games</tspan></text>
    </g>
  </g>
</svg>
