  0
SECTION
  2
HEADER
  9
$ACADVER
  1
AC1027
  9
$ACADMAINTVER
 70
   105
  9
$DWGCODEPAGE
  3
ANSI_1252
  9
$LASTSAVEDBY
  1
Jacob
  9
$REQUIREDVERSIONS
160
                 0
  9
$INSBASE
 10
0.0
 20
0.0
 30
0.0
  9
$EXTMIN
 10
0.0
 20
-0.0000000000000029
 30
0.0
  9
$EXTMAX
 10
39.66725490608409
 20
49.45
 30
0.0
  9
$LIMMIN
 10
0.0
 20
0.0
  9
$LIMMAX
 10
12.0
 20
9.0
  9
$ORTHOMODE
 70
     0
  9
$REGENMODE
 70
     1
  9
$FILLMODE
 70
     1
  9
$QTEXTMODE
 70
     0
  9
$MIRRTEXT
 70
     1
  9
$LTSCALE
 40
1.0
  9
$ATTMODE
 70
     1
  9
$TEXTSIZE
 40
0.2
  9
$TRACEWID
 40
0.05
  9
$TEXTSTYLE
  7
Standard
  9
$CLAYER
  8
Reference
  9
$CELTYPE
  6
ByLayer
  9
$CECOLOR
 62
   256
  9
$CELTSCALE
 40
1.0
  9
$DISPSILH
 70
     0
  9
$DIMSCALE
 40
1.0
  9
$DIMASZ
 40
0.18
  9
$DIMEXO
 40
0.0625
  9
$DIMDLI
 40
0.38
  9
$DIMRND
 40
0.0
  9
$DIMDLE
 40
0.0
  9
$DIMEXE
 40
0.18
  9
$DIMTP
 40
0.0
  9
$DIMTM
 40
0.0
  9
$DIMTXT
 40
0.18
  9
$DIMCEN
 40
0.09
  9
$DIMTSZ
 40
0.0
  9
$DIMTOL
 70
     0
  9
$DIMLIM
 70
     0
  9
$DIMTIH
 70
     1
  9
$DIMTOH
 70
     1
  9
$DIMSE1
 70
     0
  9
$DIMSE2
 70
     0
  9
$DIMTAD
 70
     0
  9
$DIMZIN
 70
     0
  9
$DIMBLK
  1

  9
$DIMASO
 70
     1
  9
$DIMSHO
 70
     1
  9
$DIMPOST
  1

  9
$DIMAPOST
  1

  9
$DIMALT
 70
     0
  9
$DIMALTD
 70
     2
  9
$DIMALTF
 40
25.4
  9
$DIMLFAC
 40
1.0
  9
$DIMTOFL
 70
     0
  9
$DIMTVP
 40
0.0
  9
$DIMTIX
 70
     0
  9
$DIMSOXD
 70
     0
  9
$DIMSAH
 70
     0
  9
$DIMBLK1
  1

  9
$DIMBLK2
  1

  9
$DIMSTYLE
  2
Standard
  9
$DIMCLRD
 70
     0
  9
$DIMCLRE
 70
     0
  9
$DIMCLRT
 70
     0
  9
$DIMTFAC
 40
1.0
  9
$DIMGAP
 40
0.09
  9
$DIMJUST
 70
     0
  9
$DIMSD1
 70
     0
  9
$DIMSD2
 70
     0
  9
$DIMTOLJ
 70
     1
  9
$DIMTZIN
 70
     0
  9
$DIMALTZ
 70
     0
  9
$DIMALTTZ
 70
     0
  9
$DIMUPT
 70
     0
  9
$DIMDEC
 70
     4
  9
$DIMTDEC
 70
     4
  9
$DIMALTU
 70
     2
  9
$DIMALTTD
 70
     2
  9
$DIMTXSTY
  7
Standard
  9
$DIMAUNIT
 70
     0
  9
$DIMADEC
 70
     0
  9
$DIMALTRND
 40
0.0
  9
$DIMAZIN
 70
     0
  9
$DIMDSEP
 70
    46
  9
$DIMATFIT
 70
     3
  9
$DIMFRAC
 70
     0
  9
$DIMLDRBLK
  1

  9
$DIMLUNIT
 70
     2
  9
$DIMLWD
 70
    -2
  9
$DIMLWE
 70
    -2
  9
$DIMTMOVE
 70
     0
  9
$DIMFXL
 40
1.0
  9
$DIMFXLON
 70
     0
  9
$DIMJOGANG
 40
0.7853981633974483
  9
$DIMTFILL
 70
     0
  9
$DIMTFILLCLR
 70
     0
  9
$DIMARCSYM
 70
     0
  9
$DIMLTYPE
  6

  9
$DIMLTEX1
  6

  9
$DIMLTEX2
  6

  9
$DIMTXTDIRECTION
 70
     0
  9
$LUNITS
 70
     2
  9
$LUPREC
 70
     4
  9
$SKETCHINC
 40
0.1
  9
$FILLETRAD
 40
0.5
  9
$AUNITS
 70
     0
  9
$AUPREC
 70
     0
  9
$MENU
  1
.
  9
$ELEVATION
 40
0.0
  9
$PELEVATION
 40
0.0
  9
$THICKNESS
 40
0.0
  9
$LIMCHECK
 70
     0
  9
$CHAMFERA
 40
0.0
  9
$CHAMFERB
 40
0.0
  9
$CHAMFERC
 40
0.0
  9
$CHAMFERD
 40
0.0
  9
$SKPOLY
 70
     0
  9
$TDCREATE
 40
2459763.465483518
  9
$TDUCREATE
 40
2459763.757150185
  9
$TDUPDATE
 40
2459763.465483993
  9
$TDUUPDATE
 40
2459763.75715066
  9
$TDINDWG
 40
0.0000000116
  9
$TDUSRTIMER
 40
0.0000000116
  9
$USRTIMER
 70
     1
  9
$ANGBASE
 50
0.0
  9
$ANGDIR
 70
     0
  9
$PDMODE
 70
     0
  9
$PDSIZE
 40
0.0
  9
$PLINEWID
 40
0.0
  9
$SPLFRAME
 70
     0
  9
$SPLINETYPE
 70
     6
  9
$SPLINESEGS
 70
     8
  9
$HANDSEED
  5
90E
  9
$SURFTAB1
 70
     6
  9
$SURFTAB2
 70
     6
  9
$SURFTYPE
 70
     6
  9
$SURFU
 70
     6
  9
$SURFV
 70
     6
  9
$UCSBASE
  2

  9
$UCSNAME
  2

  9
$UCSORG
 10
0.0
 20
0.0
 30
0.0
  9
$UCSXDIR
 10
1.0
 20
0.0
 30
0.0
  9
$UCSYDIR
 10
0.0
 20
1.0
 30
0.0
  9
$UCSORTHOREF
  2

  9
$UCSORTHOVIEW
 70
     0
  9
$UCSORGTOP
 10
0.0
 20
0.0
 30
0.0
  9
$UCSORGBOTTOM
 10
0.0
 20
0.0
 30
0.0
  9
$UCSORGLEFT
 10
0.0
 20
0.0
 30
0.0
  9
$UCSORGRIGHT
 10
0.0
 20
0.0
 30
0.0
  9
$UCSORGFRONT
 10
0.0
 20
0.0
 30
0.0
  9
$UCSORGBACK
 10
0.0
 20
0.0
 30
0.0
  9
$PUCSBASE
  2

  9
$PUCSNAME
  2

  9
$PUCSORG
 10
0.0
 20
0.0
 30
0.0
  9
$PUCSXDIR
 10
1.0
 20
0.0
 30
0.0
  9
$PUCSYDIR
 10
0.0
 20
1.0
 30
0.0
  9
$PUCSORTHOREF
  2

  9
$PUCSORTHOVIEW
 70
     0
  9
$PUCSORGTOP
 10
0.0
 20
0.0
 30
0.0
  9
$PUCSORGBOTTOM
 10
0.0
 20
0.0
 30
0.0
  9
$PUCSORGLEFT
 10
0.0
 20
0.0
 30
0.0
  9
$PUCSORGRIGHT
 10
0.0
 20
0.0
 30
0.0
  9
$PUCSORGFRONT
 10
0.0
 20
0.0
 30
0.0
  9
$PUCSORGBACK
 10
0.0
 20
0.0
 30
0.0
  9
$USERI1
 70
     0
  9
$USERI2
 70
     0
  9
$USERI3
 70
     0
  9
$USERI4
 70
     0
  9
$USERI5
 70
     0
  9
$USERR1
 40
0.0
  9
$USERR2
 40
0.0
  9
$USERR3
 40
0.0
  9
$USERR4
 40
0.0
  9
$USERR5
 40
0.0
  9
$WORLDVIEW
 70
     1
  9
$SHADEDGE
 70
     3
  9
$SHADEDIF
 70
    70
  9
$TILEMODE
 70
     1
  9
$MAXACTVP
 70
    64
  9
$PINSBASE
 10
0.0
 20
0.0
 30
0.0
  9
$PLIMCHECK
 70
     0
  9
$PEXTMIN
 10
1.000000000000000E+20
 20
1.000000000000000E+20
 30
1.000000000000000E+20
  9
$PEXTMAX
 10
-1.000000000000000E+20
 20
-1.000000000000000E+20
 30
-1.000000000000000E+20
  9
$PLIMMIN
 10
-0.25
 20
-0.25
  9
$PLIMMAX
 10
10.75
 20
8.25
  9
$UNITMODE
 70
     0
  9
$VISRETAIN
 70
     1
  9
$PLINEGEN
 70
     0
  9
$PSLTSCALE
 70
     1
  9
$TREEDEPTH
 70
  3020
  9
$CMLSTYLE
  2
Standard
  9
$CMLJUST
 70
     0
  9
$CMLSCALE
 40
1.0
  9
$PROXYGRAPHICS
 70
     1
  9
$MEASUREMENT
 70
     0
  9
$CELWEIGHT
370
    -1
  9
$ENDCAPS
280
     0
  9
$JOINSTYLE
280
     0
  9
$LWDISPLAY
290
     0
  9
$INSUNITS
 70
     1
  9
$HYPERLINKBASE
  1

  9
$STYLESHEET
  1

  9
$XEDIT
290
     1
  9
$CEPSNTYPE
380
     0
  9
$PSTYLEMODE
290
     1
  9
$FINGERPRINTGUID
  2
{0bb109fa-a369-4132-8734-d133616bd354}
  9
$VERSIONGUID
  2
{FAEB1C32-E019-11D5-929B-00C0DF256EC4}
  9
$EXTNAMES
290
     1
  9
$PSVPSCALE
 40
0.0
  9
$OLESTARTUP
290
     0
  9
$SORTENTS
280
   127
  9
$INDEXCTL
280
     0
  9
$HIDETEXT
280
     1
  9
$XCLIPFRAME
280
     2
  9
$HALOGAP
280
     0
  9
$OBSCOLOR
 70
   257
  9
$OBSLTYPE
280
     0
  9
$INTERSECTIONDISPLAY
280
     0
  9
$INTERSECTIONCOLOR
 70
   257
  9
$DIMASSOC
280
     2
  9
$PROJECTNAME
  1

  9
$CAMERADISPLAY
290
     0
  9
$LENSLENGTH
 40
50.0
  9
$CAMERAHEIGHT
 40
0.0
  9
$STEPSPERSEC
 40
2.0
  9
$STEPSIZE
 40
6.0
  9
$3DDWFPREC
 40
2.0
  9
$PSOLWIDTH
 40
0.25
  9
$PSOLHEIGHT
 40
4.0
  9
$LOFTANG1
 40
1.570796326794897
  9
$LOFTANG2
 40
1.570796326794897
  9
$LOFTMAG1
 40
0.0
  9
$LOFTMAG2
 40
0.0
  9
$LOFTPARAM
 70
     7
  9
$LOFTNORMALS
280
     1
  9
$LATITUDE
 40
37.795
  9
$LONGITUDE
 40
-122.394
  9
$NORTHDIRECTION
 40
0.0
  9
$TIMEZONE
 70
 -8000
  9
$LIGHTGLYPHDISPLAY
280
     1
  9
$TILEMODELIGHTSYNCH
280
     1
  9
$CMATERIAL
347
83F
  9
$SOLIDHIST
280
     0
  9
$SHOWHIST
280
     1
  9
$DWFFRAME
280
     2
  9
$DGNFRAME
280
     2
  9
$REALWORLDSCALE
290
     1
  9
$INTERFERECOLOR
 62
   256
  9
$CSHADOW
280
     0
  9
$SHADOWPLANELOCATION
 40
0.0
  0
ENDSEC
  0
SECTION
  2
CLASSES
  0
CLASS
  1
ACDBDICTIONARYWDFLT
  2
AcDbDictionaryWithDefault
  3
ObjectDBX Classes
 90
        0
 91
        3
280
     0
281
     0
  0
CLASS
  1
VISUALSTYLE
  2
AcDbVisualStyle
  3
ObjectDBX Classes
 90
     4095
 91
        3
280
     0
281
     0
  0
CLASS
  1
MATERIAL
  2
AcDbMaterial
  3
ObjectDBX Classes
 90
     1153
 91
        3
280
     0
281
     0
  0
CLASS
  1
SCALE
  2
AcDbScale
  3
ObjectDBX Classes
 90
     1153
 91
        3
280
     0
281
     0
  0
CLASS
  1
TABLESTYLE
  2
AcDbTableStyle
  3
ObjectDBX Classes
 90
     4095
 91
        3
280
     0
281
     0
  0
CLASS
  1
MLEADERSTYLE
  2
AcDbMLeaderStyle
  3
ACDB_MLEADERSTYLE_CLASS
 90
     4095
 91
        3
280
     0
281
     0
  0
CLASS
  1
SUN
  2
AcDbSun
  3
SCENEOE
 90
     1153
 91
        3
280
     0
281
     0
  0
CLASS
  1
DICTIONARYVAR
  2
AcDbDictionaryVar
  3
ObjectDBX Classes
 90
        0
 91
        3
280
     0
281
     0
  0
CLASS
  1
CELLSTYLEMAP
  2
AcDbCellStyleMap
  3
ObjectDBX Classes
 90
     1152
 91
        3
280
     0
281
     0
  0
ENDSEC
  0
SECTION
  2
TABLES
  0
TABLE
  2
VPORT
  5
804
330
0
100
AcDbSymbolTable
 70
     1
  0
VPORT
  5
824
330
804
100
AcDbSymbolTableRecord
100
AcDbViewportTableRecord
  2
*Active
 70
     0
 10
0.0
 20
0.0
 11
1.0
 21
1.0
 12
12.24773653501478
 22
6.607122471652917
 13
0.0
 23
0.0
 14
0.5
 24
0.5
 15
0.5
 25
0.5
 16
0.0
 26
0.0
 36
1.0
 17
0.0
 27
0.0
 37
0.0
 40
15.06969526931178
 41
1.796638655462185
 42
50.0
 43
0.0
 44
0.0
 50
0.0
 51
0.0
 71
     0
 72
   100
 73
     1
 74
     3
 75
     0
 76
     0
 77
     0
 78
     0
281
     0
 65
     1
110
0.0
120
0.0
130
0.0
111
1.0
121
0.0
131
0.0
112
0.0
122
1.0
132
0.0
 79
     0
146
0.0
348
82A
 60
     3
 61
     5
292
     1
282
     1
141
0.0
142
0.0
 63
   250
361
858
  0
ENDTAB
  0
TABLE
  2
LTYPE
  5
801
330
0
100
AcDbSymbolTable
 70
    49
  0
LTYPE
  5
80F
330
801
100
AcDbSymbolTableRecord
100
AcDbLinetypeTableRecord
  2
ByBlock
 70
     0
  3

 72
    65
 73
     0
 40
0.0
  0
LTYPE
  5
810
330
801
100
AcDbSymbolTableRecord
100
AcDbLinetypeTableRecord
  2
ByLayer
 70
     0
  3

 72
    65
 73
     0
 40
0.0
  0
LTYPE
  5
811
330
801
100
AcDbSymbolTableRecord
100
AcDbLinetypeTableRecord
  2
Continuous
 70
     0
  3
Solid line
 72
    65
 73
     0
 40
0.0
  0
LTYPE
  5
892
330
801
100
AcDbSymbolTableRecord
100
AcDbLinetypeTableRecord
  2
ACAD_ISO03W100
 70
     0
  3
ISO dash space __    __    __    __    __    __
 72
    65
 73
     2
 40
30.0
 49
12.0
 74
     0
 49
-18.0
 74
     0
  0
LTYPE
  5
893
330
801
100
AcDbSymbolTableRecord
100
AcDbLinetypeTableRecord
  2
ACAD_ISO02W100
 70
     0
  3
ISO dash __ __ __ __ __ __ __ __ __ __ __ __ __
 72
    65
 73
     2
 40
15.0
 49
12.0
 74
     0
 49
-3.0
 74
     0
  0
LTYPE
  5
894
330
801
100
AcDbSymbolTableRecord
100
AcDbLinetypeTableRecord
  2
ACAD_ISO05W100
 70
     0
  3
ISO long-dash double-dot ____ .. ____ .. ____ . 
 72
    65
 73
     6
 40
33.0
 49
24.0
 74
     0
 49
-3.0
 74
     0
 49
0.0
 74
     0
 49
-3.0
 74
     0
 49
0.0
 74
     0
 49
-3.0
 74
     0
  0
LTYPE
  5
895
330
801
100
AcDbSymbolTableRecord
100
AcDbLinetypeTableRecord
  2
ACAD_ISO04W100
 70
     0
  3
ISO long-dash dot ____ . ____ . ____ . ____ . _
 72
    65
 73
     4
 40
30.0
 49
24.0
 74
     0
 49
-3.0
 74
     0
 49
0.0
 74
     0
 49
-3.0
 74
     0
  0
LTYPE
  5
896
330
801
100
AcDbSymbolTableRecord
100
AcDbLinetypeTableRecord
  2
ACAD_ISO07W100
 70
     0
  3
ISO dot . . . . . . . . . . . . . . . . . . . . 
 72
    65
 73
     2
 40
3.0
 49
0.0
 74
     0
 49
-3.0
 74
     0
  0
LTYPE
  5
897
330
801
100
AcDbSymbolTableRecord
100
AcDbLinetypeTableRecord
  2
ACAD_ISO06W100
 70
     0
  3
ISO long-dash triple-dot ____ ... ____ ... ____
 72
    65
 73
     8
 40
36.0
 49
24.0
 74
     0
 49
-3.0
 74
     0
 49
0.0
 74
     0
 49
-3.0
 74
     0
 49
0.0
 74
     0
 49
-3.0
 74
     0
 49
0.0
 74
     0
 49
-3.0
 74
     0
  0
LTYPE
  5
898
330
801
100
AcDbSymbolTableRecord
100
AcDbLinetypeTableRecord
  2
ACAD_ISO09W100
 70
     0
  3
ISO long-dash double-short-dash ____ __ __ ____
 72
    65
 73
     6
 40
45.0
 49
24.0
 74
     0
 49
-3.0
 74
     0
 49
6.0
 74
     0
 49
-3.0
 74
     0
 49
6.0
 74
     0
 49
-3.0
 74
     0
  0
LTYPE
  5
899
330
801
100
AcDbSymbolTableRecord
100
AcDbLinetypeTableRecord
  2
ACAD_ISO08W100
 70
     0
  3
ISO long-dash short-dash ____ __ ____ __ ____ _
 72
    65
 73
     4
 40
36.0
 49
24.0
 74
     0
 49
-3.0
 74
     0
 49
6.0
 74
     0
 49
-3.0
 74
     0
  0
LTYPE
  5
89A
330
801
100
AcDbSymbolTableRecord
100
AcDbLinetypeTableRecord
  2
ACAD_ISO11W100
 70
     0
  3
ISO double-dash dot __ __ . __ __ . __ __ . __ _
 72
    65
 73
     6
 40
33.0
 49
12.0
 74
     0
 49
-3.0
 74
     0
 49
12.0
 74
     0
 49
-3.0
 74
     0
 49
0.0
 74
     0
 49
-3.0
 74
     0
  0
LTYPE
  5
89B
330
801
100
AcDbSymbolTableRecord
100
AcDbLinetypeTableRecord
  2
ACAD_ISO10W100
 70
     0
  3
ISO dash dot __ . __ . __ . __ . __ . __ . __ . 
 72
    65
 73
     4
 40
18.0
 49
12.0
 74
     0
 49
-3.0
 74
     0
 49
0.0
 74
     0
 49
-3.0
 74
     0
  0
LTYPE
  5
89C
330
801
100
AcDbSymbolTableRecord
100
AcDbLinetypeTableRecord
  2
ACAD_ISO13W100
 70
     0
  3
ISO double-dash double-dot __ __ . . __ __ . . _
 72
    65
 73
     8
 40
36.0
 49
12.0
 74
     0
 49
-3.0
 74
     0
 49
12.0
 74
     0
 49
-3.0
 74
     0
 49
0.0
 74
     0
 49
-3.0
 74
     0
 49
0.0
 74
     0
 49
-3.0
 74
     0
  0
LTYPE
  5
89D
330
801
100
AcDbSymbolTableRecord
100
AcDbLinetypeTableRecord
  2
ACAD_ISO12W100
 70
     0
  3
ISO dash double-dot __ . . __ . . __ . . __ . . 
 72
    65
 73
     6
 40
21.0
 49
12.0
 74
     0
 49
-3.0
 74
     0
 49
0.0
 74
     0
 49
-3.0
 74
     0
 49
0.0
 74
     0
 49
-3.0
 74
     0
  0
LTYPE
  5
89E
330
801
100
AcDbSymbolTableRecord
100
AcDbLinetypeTableRecord
  2
ACAD_ISO15W100
 70
     0
  3
ISO double-dash triple-dot __ __ . . . __ __ . .
 72
    65
 73
    10
 40
39.0
 49
12.0
 74
     0
 49
-3.0
 74
     0
 49
12.0
 74
     0
 49
-3.0
 74
     0
 49
0.0
 74
     0
 49
-3.0
 74
     0
 49
0.0
 74
     0
 49
-3.0
 74
     0
 49
0.0
 74
     0
 49
-3.0
 74
     0
  0
LTYPE
  5
89F
330
801
100
AcDbSymbolTableRecord
100
AcDbLinetypeTableRecord
  2
ACAD_ISO14W100
 70
     0
  3
ISO dash triple-dot __ . . . __ . . . __ . . . _
 72
    65
 73
     8
 40
24.0
 49
12.0
 74
     0
 49
-3.0
 74
     0
 49
0.0
 74
     0
 49
-3.0
 74
     0
 49
0.0
 74
     0
 49
-3.0
 74
     0
 49
0.0
 74
     0
 49
-3.0
 74
     0
  0
LTYPE
  5
8A0
330
801
100
AcDbSymbolTableRecord
100
AcDbLinetypeTableRecord
  2
BORDER
 70
     0
  3
Border __ __ . __ __ . __ __ . __ __ . __ __ .
 72
    65
 73
     6
 40
1.75
 49
0.5
 74
     0
 49
-0.25
 74
     0
 49
0.5
 74
     0
 49
-0.25
 74
     0
 49
0.0
 74
     0
 49
-0.25
 74
     0
  0
LTYPE
  5
8A3
330
801
100
AcDbSymbolTableRecord
100
AcDbLinetypeTableRecord
  2
BATTING
 70
     0
  3
Batting SSSSSSSSSSSSSSSSSSSSSSSSSSSSSSSSSSSSSSSSSSSSSSS
 72
    65
 73
     4
 40
0.4001
 49
0.0001
 74
     0
 49
-0.1
 74
     2
 75
     0
340
8A1
 46
0.1
 50
0.0
 44
-0.1
 45
0.0
  9
BAT
 49
-0.2
 74
     2
 75
     0
340
8A2
 46
0.1
 50
180.0
 44
0.1
 45
0.0
  9
BAT
 49
-0.1
 74
     0
  0
LTYPE
  5
8A4
330
801
100
AcDbSymbolTableRecord
100
AcDbLinetypeTableRecord
  2
BORDERX2
 70
     0
  3
Border (2x) ____  ____  .  ____  ____  .  ___
 72
    65
 73
     6
 40
3.5
 49
1.0
 74
     0
 49
-0.5
 74
     0
 49
1.0
 74
     0
 49
-0.5
 74
     0
 49
0.0
 74
     0
 49
-0.5
 74
     0
  0
LTYPE
  5
8A5
330
801
100
AcDbSymbolTableRecord
100
AcDbLinetypeTableRecord
  2
BORDER2
 70
     0
  3
Border (.5x) __.__.__.__.__.__.__.__.__.__.__.
 72
    65
 73
     6
 40
0.875
 49
0.25
 74
     0
 49
-0.125
 74
     0
 49
0.25
 74
     0
 49
-0.125
 74
     0
 49
0.0
 74
     0
 49
-0.125
 74
     0
  0
LTYPE
  5
8A6
330
801
100
AcDbSymbolTableRecord
100
AcDbLinetypeTableRecord
  2
CENTER2
 70
     0
  3
Center (.5x) ___ _ ___ _ ___ _ ___ _ ___ _ ___
 72
    65
 73
     4
 40
1.125
 49
0.75
 74
     0
 49
-0.125
 74
     0
 49
0.125
 74
     0
 49
-0.125
 74
     0
  0
LTYPE
  5
8A7
330
801
100
AcDbSymbolTableRecord
100
AcDbLinetypeTableRecord
  2
CENTER
 70
     0
  3
Center ____ _ ____ _ ____ _ ____ _ ____ _ ____
 72
    65
 73
     4
 40
2.0
 49
1.25
 74
     0
 49
-0.25
 74
     0
 49
0.25
 74
     0
 49
-0.25
 74
     0
  0
LTYPE
  5
8A8
330
801
100
AcDbSymbolTableRecord
100
AcDbLinetypeTableRecord
  2
DASHDOT
 70
     0
  3
Dash dot __ . __ . __ . __ . __ . __ . __ . __
 72
    65
 73
     4
 40
1.0
 49
0.5
 74
     0
 49
-0.25
 74
     0
 49
0.0
 74
     0
 49
-0.25
 74
     0
  0
LTYPE
  5
8A9
330
801
100
AcDbSymbolTableRecord
100
AcDbLinetypeTableRecord
  2
CENTERX2
 70
     0
  3
Center (2x) ________  __  ________  __  _____
 72
    65
 73
     4
 40
4.0
 49
2.5
 74
     0
 49
-0.5
 74
     0
 49
0.5
 74
     0
 49
-0.5
 74
     0
  0
LTYPE
  5
8AA
330
801
100
AcDbSymbolTableRecord
100
AcDbLinetypeTableRecord
  2
DASHDOTX2
 70
     0
  3
Dash dot (2x) ____  .  ____  .  ____  .  ___
 72
    65
 73
     4
 40
2.0
 49
1.0
 74
     0
 49
-0.5
 74
     0
 49
0.0
 74
     0
 49
-0.5
 74
     0
  0
LTYPE
  5
8AB
330
801
100
AcDbSymbolTableRecord
100
AcDbLinetypeTableRecord
  2
DASHDOT2
 70
     0
  3
Dash dot (.5x) _._._._._._._._._._._._._._._.
 72
    65
 73
     4
 40
0.5
 49
0.25
 74
     0
 49
-0.125
 74
     0
 49
0.0
 74
     0
 49
-0.125
 74
     0
  0
LTYPE
  5
8AC
330
801
100
AcDbSymbolTableRecord
100
AcDbLinetypeTableRecord
  2
DASHED2
 70
     0
  3
Dashed (.5x) _ _ _ _ _ _ _ _ _ _ _ _ _ _ _ _ _ 
 72
    65
 73
     2
 40
0.375
 49
0.25
 74
     0
 49
-0.125
 74
     0
  0
LTYPE
  5
8AD
330
801
100
AcDbSymbolTableRecord
100
AcDbLinetypeTableRecord
  2
DASHED
 70
     0
  3
Dashed __ __ __ __ __ __ __ __ __ __ __ __ __ _
 72
    65
 73
     2
 40
0.75
 49
0.5
 74
     0
 49
-0.25
 74
     0
  0
LTYPE
  5
8AE
330
801
100
AcDbSymbolTableRecord
100
AcDbLinetypeTableRecord
  2
DIVIDE
 70
     0
  3
Divide ____ . . ____ . . ____ . . ____ . . ____
 72
    65
 73
     6
 40
1.25
 49
0.5
 74
     0
 49
-0.25
 74
     0
 49
0.0
 74
     0
 49
-0.25
 74
     0
 49
0.0
 74
     0
 49
-0.25
 74
     0
  0
LTYPE
  5
8AF
330
801
100
AcDbSymbolTableRecord
100
AcDbLinetypeTableRecord
  2
DASHEDX2
 70
     0
  3
Dashed (2x) ____  ____  ____  ____  ____  ___
 72
    65
 73
     2
 40
1.5
 49
1.0
 74
     0
 49
-0.5
 74
     0
  0
LTYPE
  5
8B0
330
801
100
AcDbSymbolTableRecord
100
AcDbLinetypeTableRecord
  2
DIVIDEX2
 70
     0
  3
Divide (2x) ________  .  .  ________  .  .  _
 72
    65
 73
     6
 40
2.5
 49
1.0
 74
     0
 49
-0.5
 74
     0
 49
0.0
 74
     0
 49
-0.5
 74
     0
 49
0.0
 74
     0
 49
-0.5
 74
     0
  0
LTYPE
  5
8B1
330
801
100
AcDbSymbolTableRecord
100
AcDbLinetypeTableRecord
  2
DIVIDE2
 70
     0
  3
Divide (.5x) __..__..__..__..__..__..__..__.._
 72
    65
 73
     6
 40
0.625
 49
0.25
 74
     0
 49
-0.125
 74
     0
 49
0.0
 74
     0
 49
-0.125
 74
     0
 49
0.0
 74
     0
 49
-0.125
 74
     0
  0
LTYPE
  5
8B2
330
801
100
AcDbSymbolTableRecord
100
AcDbLinetypeTableRecord
  2
DOT2
 70
     0
  3
Dot (.5x) ........................................
 72
    65
 73
     2
 40
0.125
 49
0.0
 74
     0
 49
-0.125
 74
     0
  0
LTYPE
  5
8B3
330
801
100
AcDbSymbolTableRecord
100
AcDbLinetypeTableRecord
  2
DOT
 70
     0
  3
Dot . . . . . . . . . . . . . . . . . . . . . . . .
 72
    65
 73
     2
 40
0.25
 49
0.0
 74
     0
 49
-0.25
 74
     0
  0
LTYPE
  5
8B5
330
801
100
AcDbSymbolTableRecord
100
AcDbLinetypeTableRecord
  2
DRAINAGE
 70
     0
  3
Drainage ---->---->---->----
 72
    65
 73
     2
 40
0.4
 49
0.2
 74
     2
 75
     0
340
8B4
 46
0.2
 50
180.0
 44
0.0
 45
0.0
  9
RIGHT_ARROW
 49
0.2
 74
     0
  0
LTYPE
  5
8B6
330
801
100
AcDbSymbolTableRecord
100
AcDbLinetypeTableRecord
  2
DOTX2
 70
     0
  3
Dot (2x) .  .  .  .  .  .  .  .  .  .  .  .  .  .
 72
    65
 73
     2
 40
0.5
 49
0.0
 74
     0
 49
-0.5
 74
     0
  0
LTYPE
  5
8B8
330
801
100
AcDbSymbolTableRecord
100
AcDbLinetypeTableRecord
  2
FENCELINE1
 70
     0
  3
Fenceline circle ----0-----0----0-----0----0-----0--
 72
    65
 73
     4
 40
1.45
 49
0.25
 74
     0
 49
-0.1
 74
     2
 75
     0
340
8B7
 46
0.1
 50
0.0
 44
-0.1
 45
0.0
  9
CIRC1
 49
-0.1
 74
     0
 49
1.0
 74
     0
  0
LTYPE
  5
8BA
330
801
100
AcDbSymbolTableRecord
100
AcDbLinetypeTableRecord
  2
DRAINAGE2
 70
     0
  3
Drainage reversed ----<----<----<----
 72
    65
 73
     2
 40
0.4
 49
0.2
 74
     2
 75
     0
340
8B9
 46
0.2
 50
0.0
 44
0.0
 45
0.0
  9
RIGHT_ARROW
 49
0.2
 74
     0
  0
LTYPE
  5
8BC
330
801
100
AcDbSymbolTableRecord
100
AcDbLinetypeTableRecord
  2
GAS_LINE
 70
     0
  3
Gas line ----GAS----GAS----GAS----GAS----GAS----GAS--
 72
    65
 73
     3
 40
0.95
 49
0.5
 74
     0
 49
-0.2
 74
     2
 75
     0
340
8BB
 46
0.1
 50
0.0
 44
-0.1
 45
-0.05
  9
GAS
 49
-0.25
 74
     0
  0
LTYPE
  5
8BE
330
801
100
AcDbSymbolTableRecord
100
AcDbLinetypeTableRecord
  2
FENCELINE2
 70
     0
  3
Fenceline square ----[]-----[]----[]-----[]----[]---
 72
    65
 73
     4
 40
1.45
 49
0.25
 74
     0
 49
-0.1
 74
     2
 75
     0
340
8BD
 46
0.1
 50
0.0
 44
-0.1
 45
0.0
  9
BOX
 49
-0.1
 74
     0
 49
1.0
 74
     0
  0
LTYPE
  5
8BF
330
801
100
AcDbSymbolTableRecord
100
AcDbLinetypeTableRecord
  2
HIDDEN2
 70
     0
  3
Hidden (.5x) _ _ _ _ _ _ _ _ _ _ _ _ _ _ _ _ _ 
 72
    65
 73
     2
 40
0.1875
 49
0.125
 74
     0
 49
-0.0625
 74
     0
  0
LTYPE
  5
8C0
330
801
100
AcDbSymbolTableRecord
100
AcDbLinetypeTableRecord
  2
HIDDEN
 70
     0
  3
Hidden __ __ __ __ __ __ __ __ __ __ __ __ __ __
 72
    65
 73
     2
 40
0.375
 49
0.25
 74
     0
 49
-0.125
 74
     0
  0
LTYPE
  5
8C2
330
801
100
AcDbSymbolTableRecord
100
AcDbLinetypeTableRecord
  2
HOT_WATER_SUPPLY
 70
     0
  3
Hot water supply ---- HW ---- HW ---- HW ----
 72
    65
 73
     3
 40
0.8999999999999999
 49
0.5
 74
     0
 49
-0.2
 74
     2
 75
     0
340
8C1
 46
0.1
 50
0.0
 44
-0.1
 45
-0.05
  9
HW
 49
-0.2
 74
     0
  0
LTYPE
  5
8C3
330
801
100
AcDbSymbolTableRecord
100
AcDbLinetypeTableRecord
  2
HIDDENX2
 70
     0
  3
Hidden (2x) ____ ____ ____ ____ ____ ____ ____ 
 72
    65
 73
     2
 40
0.75
 49
0.5
 74
     0
 49
-0.25
 74
     0
  0
LTYPE
  5
8C4
330
801
100
AcDbSymbolTableRecord
100
AcDbLinetypeTableRecord
  2
PHANTOM2
 70
     0
  3
Phantom (.5x) ___ _ _ ___ _ _ ___ _ _ ___ _ _
 72
    65
 73
     6
 40
1.25
 49
0.625
 74
     0
 49
-0.125
 74
     0
 49
0.125
 74
     0
 49
-0.125
 74
     0
 49
0.125
 74
     0
 49
-0.125
 74
     0
  0
LTYPE
  5
8C5
330
801
100
AcDbSymbolTableRecord
100
AcDbLinetypeTableRecord
  2
PHANTOM
 70
     0
  3
Phantom ______  __  __  ______  __  __  ______ 
 72
    65
 73
     6
 40
2.5
 49
1.25
 74
     0
 49
-0.25
 74
     0
 49
0.25
 74
     0
 49
-0.25
 74
     0
 49
0.25
 74
     0
 49
-0.25
 74
     0
  0
LTYPE
  5
8C7
330
801
100
AcDbSymbolTableRecord
100
AcDbLinetypeTableRecord
  2
TRACKS
 70
     0
  3
Tracks -|-|-|-|-|-|-|-|-|-|-|-|-|-|-|-|-|-|-|-|-|-|-|-|-
 72
    65
 73
     2
 40
0.3
 49
0.15
 74
     2
 75
     0
340
8C6
 46
0.25
 50
0.0
 44
0.0
 45
0.0
  9
TRACK1
 49
0.15
 74
     0
  0
LTYPE
  5
8C8
330
801
100
AcDbSymbolTableRecord
100
AcDbLinetypeTableRecord
  2
PHANTOMX2
 70
     0
  3
Phantom (2x) ____________    ____    ____   _
 72
    65
 73
     6
 40
5.0
 49
2.5
 74
     0
 49
-0.5
 74
     0
 49
0.5
 74
     0
 49
-0.5
 74
     0
 49
0.5
 74
     0
 49
-0.5
 74
     0
  0
LTYPE
  5
8CB
330
801
100
AcDbSymbolTableRecord
100
AcDbLinetypeTableRecord
  2
ZIGZAG
 70
     0
  3
Zig zag /\/\/\/\/\/\/\/\/\/\/\/\/\/\/\/\/\/\/\/\/\/\/\/
 72
    65
 73
     4
 40
0.8001
 49
0.0001
 74
     0
 49
-0.2
 74
     2
 75
     0
340
8C9
 46
0.2
 50
0.0
 44
-0.2
 45
0.0
  9
ZIG
 49
-0.4
 74
     2
 75
     0
340
8CA
 46
0.2
 50
180.0
 44
0.2
 45
0.0
  9
ZIG
 49
-0.2
 74
     0
  0
LTYPE
  5
8CC
330
801
100
AcDbSymbolTableRecord
100
AcDbLinetypeTableRecord
  2
CONTINUOUS2
 70
     0
  3
Solid line
 72
    65
 73
     0
 40
0.0
  0
ENDTAB
  0
TABLE
  2
LAYER
  5
7FF
330
0
100
AcDbSymbolTable
 70
    30
  0
LAYER
  5
80C
330
7FF
100
AcDbSymbolTableRecord
100
AcDbLayerTableRecord
  2
0
 70
     0
 62
     7
  6
Continuous
370
    -3
390
80B
347
841
348
0
  0
LAYER
  5
8CD
330
7FF
100
AcDbSymbolTableRecord
100
AcDbLayerTableRecord
  2
Ball Trough
 70
     0
 62
     7
  6
Continuous
370
    25
390
80B
347
841
348
0
  0
LAYER
  5
8CE
330
7FF
100
AcDbSymbolTableRecord
100
AcDbLayerTableRecord
  2
Bolts
 70
     0
 62
   253
420
 10526884
  6
Continuous
370
    25
390
80B
347
841
348
0
  0
LAYER
  5
8CF
330
7FF
100
AcDbSymbolTableRecord
100
AcDbLayerTableRecord
  2
CAD
 70
     0
 62
     7
  6
Continuous
370
    -3
390
80B
347
841
348
0
  0
LAYER
  5
8D0
330
7FF
100
AcDbSymbolTableRecord
100
AcDbLayerTableRecord
  2
Center Locations
 70
     0
 62
   253
420
 10526884
  6
ACAD_ISO10W100
370
    25
390
80B
347
841
348
0
  0
LAYER
  5
8D1
330
7FF
100
AcDbSymbolTableRecord
100
AcDbLayerTableRecord
  2
Electrical Components
 70
     0
 62
    30
420
 16744192
  6
Continuous
370
    25
390
80B
347
841
348
0
  0
LAYER
  5
8D2
330
7FF
100
AcDbSymbolTableRecord
100
AcDbLayerTableRecord
  2
FLIPPERS
 70
     0
 62
     7
  6
Continuous
370
    -3
390
80B
347
841
348
0
  0
LAYER
  5
8D3
330
7FF
100
AcDbSymbolTableRecord
100
AcDbLayerTableRecord
  2
GUIDELINES
 70
     0
 62
     7
  6
Continuous
370
    -3
390
80B
347
841
348
0
  0
LAYER
  5
8D4
330
7FF
100
AcDbSymbolTableRecord
100
AcDbLayerTableRecord
  2
Kicker
 70
     0
 62
     6
420
 16711935
  6
Continuous
370
    25
390
80B
347
841
348
0
  0
LAYER
  5
8D5
330
7FF
100
AcDbSymbolTableRecord
100
AcDbLayerTableRecord
  2
LANE_GUIDES
 70
     0
 62
     7
  6
Continuous
370
    -3
390
80B
347
841
348
0
  0
LAYER
  5
8D6
330
7FF
100
AcDbSymbolTableRecord
100
AcDbLayerTableRecord
  2
LANE_SLOTS
 70
     0
 62
     7
  6
Continuous
370
    -3
390
80B
347
841
348
0
  0
LAYER
  5
8D7
330
7FF
100
AcDbSymbolTableRecord
100
AcDbLayerTableRecord
  2
Launcher
 70
     0
 62
     5
420
      255
  6
Continuous
370
    25
390
80B
347
841
348
0
  0
LAYER
  5
8D8
330
7FF
100
AcDbSymbolTableRecord
100
AcDbLayerTableRecord
  2
Leaf Switch
 70
     0
 62
    56
420
  8421376
  6
Continuous
370
    25
390
80B
347
841
348
0
  0
LAYER
  5
8D9
330
7FF
100
AcDbSymbolTableRecord
100
AcDbLayerTableRecord
  2
Mount Holes
 70
     0
 62
     7
  6
Continuous
370
    25
390
80B
347
841
348
0
  0
LAYER
  5
8DA
330
7FF
100
AcDbSymbolTableRecord
100
AcDbLayerTableRecord
  2
Mount Holes ... Threaded Holes
 70
     0
 62
     9
420
 12632256
  6
Continuous
370
    25
390
80B
347
841
348
0
  0
LAYER
  5
8DB
330
7FF
100
AcDbSymbolTableRecord
100
AcDbLayerTableRecord
  2
Mount Holes ... Threaded Holes ... Outer Support Wall
 70
     0
 62
   253
420
 10526884
  6
Continuous
370
    25
390
80B
347
841
348
0
  0
LAYER
  5
8DC
330
7FF
100
AcDbSymbolTableRecord
100
AcDbLayerTableRecord
  2
Plastics
 70
     0
 62
     5
420
      255
  6
Continuous
370
    25
390
80B
347
841
348
0
  0
LAYER
  5
8DD
330
7FF
100
AcDbSymbolTableRecord
100
AcDbLayerTableRecord
  2
Plastics ... Solder Lugs
 70
     0
 62
   253
420
 10526884
  6
Continuous
370
    25
390
80B
347
841
348
0
  0
LAYER
  5
8DE
330
7FF
100
AcDbSymbolTableRecord
100
AcDbLayerTableRecord
  2
Playfield
 70
     0
 62
    56
420
  8421376
  6
Continuous
370
    25
390
80B
347
841
348
0
  0
LAYER
  5
8DF
330
7FF
100
AcDbSymbolTableRecord
100
AcDbLayerTableRecord
  2
Playfield ... WOOD_SIDE
 70
     0
 62
    56
420
  8421376
  6
Continuous
370
    -3
390
80B
347
841
348
0
  0
LAYER
  5
8E0
330
7FF
100
AcDbSymbolTableRecord
100
AcDbLayerTableRecord
  2
Playfield Cutout
 70
     0
 62
     1
420
 16711680
  6
Continuous
370
    25
390
80B
347
841
348
0
  0
LAYER
  5
8E1
330
7FF
100
AcDbSymbolTableRecord
100
AcDbLayerTableRecord
  2
Playfield Cutout ... Slingshot
 70
     0
 62
     6
420
 16711935
  6
Continuous
370
    25
390
80B
347
841
348
0
  0
LAYER
  5
8E2
330
7FF
100
AcDbSymbolTableRecord
100
AcDbLayerTableRecord
  2
PLUNGER_TROUGH
 70
     0
 62
     1
420
 16711680
  6
Continuous
370
    -3
390
80B
347
841
348
0
  0
LAYER
  5
8E3
330
7FF
100
AcDbSymbolTableRecord
100
AcDbLayerTableRecord
  2
PROFILE
 70
     0
 62
     7
  6
Continuous
370
    -3
390
80B
347
841
348
0
  0
LAYER
  5
8E4
330
7FF
100
AcDbSymbolTableRecord
100
AcDbLayerTableRecord
  2
Profile ... Hidden Profile
 70
     0
 62
     4
420
    65535
  6
HIDDEN2
370
    25
390
80B
347
841
348
0
  0
LAYER
  5
8E5
330
7FF
100
AcDbSymbolTableRecord
100
AcDbLayerTableRecord
  2
Reference
 70
     0
 62
     2
420
 16776960
  6
Continuous
370
    25
390
80B
347
841
348
0
  0
LAYER
  5
8E6
330
7FF
100
AcDbSymbolTableRecord
100
AcDbLayerTableRecord
  2
Rubber
 70
     0
 62
     3
420
    65280
  6
Continuous
370
    25
390
80B
347
841
348
0
  0
LAYER
  5
8E7
330
7FF
100
AcDbSymbolTableRecord
100
AcDbLayerTableRecord
  2
Solder Lugs
 70
     0
 62
   253
420
 10526884
  6
Continuous
370
    25
390
80B
347
841
348
0
  0
LAYER
  5
8E8
330
7FF
100
AcDbSymbolTableRecord
100
AcDbLayerTableRecord
  2
SPARE_PARTS
 70
     0
 62
     7
  6
Continuous
370
    -3
390
80B
347
841
348
0
  0
LAYER
  5
8E9
330
7FF
100
AcDbSymbolTableRecord
100
AcDbLayerTableRecord
  2
Switch
 70
     0
 62
     3
420
    65280
  6
Continuous
370
    25
390
80B
347
841
348
0
  0
ENDTAB
  0
TABLE
  2
STYLE
  5
800
330
0
100
AcDbSymbolTable
 70
    13
  0
STYLE
  5
80D
330
800
100
AcDbSymbolTableRecord
100
AcDbTextStyleTableRecord
  2
Standard
 70
     0
 40
0.0
 41
1.0
 50
0.0
 71
     0
 42
0.2
  3
txt
  4

  0
STYLE
  5
8A1
330
800
100
AcDbSymbolTableRecord
100
AcDbTextStyleTableRecord
  2
textstyle0
 70
     0
 40
0.0
 41
1.0
 50
0.0
 71
     0
 42
0.2
  3
ltypeshp.shx
  4

  0
STYLE
  5
8A2
330
800
100
AcDbSymbolTableRecord
100
AcDbTextStyleTableRecord
  2
textstyle1
 70
     0
 40
0.0
 41
1.0
 50
0.0
 71
     0
 42
0.2
  3
ltypeshp.shx
  4

  0
STYLE
  5
8B4
330
800
100
AcDbSymbolTableRecord
100
AcDbTextStyleTableRecord
  2
textstyle2
 70
     0
 40
0.0
 41
1.0
 50
0.0
 71
     0
 42
0.2
  3
qcadshp.shx
  4

  0
STYLE
  5
8B7
330
800
100
AcDbSymbolTableRecord
100
AcDbTextStyleTableRecord
  2
textstyle3
 70
     0
 40
0.0
 41
1.0
 50
0.0
 71
     0
 42
0.2
  3
ltypeshp.shx
  4

  0
STYLE
  5
8B9
330
800
100
AcDbSymbolTableRecord
100
AcDbTextStyleTableRecord
  2
textstyle4
 70
     0
 40
0.0
 41
1.0
 50
0.0
 71
     0
 42
0.2
  3
qcadshp.shx
  4

  0
STYLE
  5
8BB
330
800
100
AcDbSymbolTableRecord
100
AcDbTextStyleTableRecord
  2
textstyle5
 70
     0
 40
0.0
 41
1.0
 50
0.0
 71
     0
 42
0.2
  3
STANDARD
  4

  0
STYLE
  5
8BD
330
800
100
AcDbSymbolTableRecord
100
AcDbTextStyleTableRecord
  2
textstyle6
 70
     0
 40
0.0
 41
1.0
 50
0.0
 71
     0
 42
0.2
  3
ltypeshp.shx
  4

  0
STYLE
  5
8C1
330
800
100
AcDbSymbolTableRecord
100
AcDbTextStyleTableRecord
  2
textstyle7
 70
     0
 40
0.0
 41
1.0
 50
0.0
 71
     0
 42
0.2
  3
STANDARD
  4

  0
STYLE
  5
8C6
330
800
100
AcDbSymbolTableRecord
100
AcDbTextStyleTableRecord
  2
textstyle8
 70
     0
 40
0.0
 41
1.0
 50
0.0
 71
     0
 42
0.2
  3
ltypeshp.shx
  4

  0
STYLE
  5
8C9
330
800
100
AcDbSymbolTableRecord
100
AcDbTextStyleTableRecord
  2
textstyle9
 70
     0
 40
0.0
 41
1.0
 50
0.0
 71
     0
 42
0.2
  3
ltypeshp.shx
  4

  0
STYLE
  5
8CA
330
800
100
AcDbSymbolTableRecord
100
AcDbTextStyleTableRecord
  2
textstyle10
 70
     0
 40
0.0
 41
1.0
 50
0.0
 71
     0
 42
0.2
  3
ltypeshp.shx
  4

  0
STYLE
  5
904
330
800
100
AcDbSymbolTableRecord
100
AcDbTextStyleTableRecord
  2
textstyle11
 70
     0
 40
0.0
 41
1.0
 50
0.0
 71
     0
 42
0.2
  3
arial.ttf
  4

1001
ACAD
1000
Arial
1071
        0
  0
ENDTAB
  0
TABLE
  2
VIEW
  5
802
330
0
100
AcDbSymbolTable
 70
     0
  0
ENDTAB
  0
TABLE
  2
UCS
  5
803
330
0
100
AcDbSymbolTable
 70
     0
  0
ENDTAB
  0
TABLE
  2
APPID
  5
805
330
0
100
AcDbSymbolTable
 70
     2
  0
APPID
  5
80E
330
805
100
AcDbSymbolTableRecord
100
AcDbRegAppTableRecord
  2
ACAD
 70
     0
  0
APPID
  5
859
330
805
100
AcDbSymbolTableRecord
100
AcDbRegAppTableRecord
  2
QCAD
 70
     0
  0
ENDTAB
  0
TABLE
  2
DIMSTYLE
  5
806
330
0
100
AcDbSymbolTable
 70
     2
100
AcDbDimStyleTable
  0
DIMSTYLE
105
822
330
806
100
AcDbSymbolTableRecord
100
AcDbDimStyleTableRecord
  2
Standard
 70
     0
178
     0
340
80D
  0
DIMSTYLE
105
891
330
806
100
AcDbSymbolTableRecord
100
AcDbDimStyleTableRecord
  2
QCADDimStyle
 70
     0
178
     0
279
     2
340
80D
  0
ENDTAB
  0
TABLE
  2
BLOCK_RECORD
  5
7FE
330
0
100
AcDbSymbolTable
 70
     8
  0
BLOCK_RECORD
  5
81A
330
7FE
100
AcDbSymbolTableRecord
100
AcDbBlockTableRecord
  2
*Model_Space
340
81D
 70
     0
280
     1
281
     0
  0
BLOCK_RECORD
  5
816
330
7FE
100
AcDbSymbolTableRecord
100
AcDbBlockTableRecord
  2
*Paper_Space
340
819
 70
     0
280
     1
281
     0
  0
BLOCK_RECORD
  5
8EC
330
7FE
100
AcDbSymbolTableRecord
100
AcDbBlockTableRecord
  2
AutoLauncher
340
0
102
{BLKREFS
331
7FC
102
}
 70
     0
280
     1
281
     0
  0
BLOCK_RECORD
  5
8EF
330
7FE
100
AcDbSymbolTableRecord
100
AcDbBlockTableRecord
  2
BallTrough
340
0
102
{BLKREFS
331
7E7
102
}
 70
     0
280
     1
281
     0
  0
BLOCK_RECORD
  5
8F2
330
7FE
100
AcDbSymbolTableRecord
100
AcDbBlockTableRecord
  2
DropTarget
340
0
102
{BLKREFS
331
7ED
102
}
 70
     0
280
     1
281
     0
  0
BLOCK_RECORD
  5
8F5
330
7FE
100
AcDbSymbolTableRecord
100
AcDbBlockTableRecord
  2
LeftSlingshot
340
0
102
{BLKREFS
331
7E9
102
}
 70
     0
280
     1
281
     0
  0
BLOCK_RECORD
  5
8F8
330
7FE
100
AcDbSymbolTableRecord
100
AcDbBlockTableRecord
  2
PopBumper1
340
0
102
{BLKREFS
331
7EF
102
}
 70
     0
280
     1
281
     0
  0
BLOCK_RECORD
  5
8FB
330
7FE
100
AcDbSymbolTableRecord
100
AcDbBlockTableRecord
  2
PopBumper2
340
0
102
{BLKREFS
331
7F1
102
}
 70
     0
280
     1
281
     0
  0
BLOCK_RECORD
  5
8FE
330
7FE
100
AcDbSymbolTableRecord
100
AcDbBlockTableRecord
  2
PopBumper3
340
0
102
{BLKREFS
331
7F3
102
}
 70
     0
280
     1
281
     0
  0
BLOCK_RECORD
  5
901
330
7FE
100
AcDbSymbolTableRecord
100
AcDbBlockTableRecord
  2
RightSlingshot
340
0
102
{BLKREFS
331
7EB
102
}
 70
     0
280
     1
281
     0
  0
ENDTAB
  0
ENDSEC
  0
SECTION
  2
BLOCKS
  0
BLOCK
  5
81B
330
81A
100
AcDbEntity
  8
0
100
AcDbBlockBegin
  2
*Model_Space
 70
     0
 10
0.0
 20
0.0
 30
0.0
  3
*Model_Space
  1

  0
ENDBLK
  5
81C
330
81A
100
AcDbEntity
  8
0
100
AcDbBlockEnd
  0
BLOCK
  5
817
330
816
100
AcDbEntity
 67
     1
  8
0
100
AcDbBlockBegin
  2
*Paper_Space
 70
     0
 10
0.0
 20
0.0
 30
0.0
  3
*Paper_Space
  1

  0
ENDBLK
  5
818
330
816
100
AcDbEntity
 67
     1
  8
0
100
AcDbBlockEnd
  0
BLOCK
  5
8ED
330
8EC
100
AcDbEntity
  8
0
100
AcDbBlockBegin
  2
AutoLauncher
 70
     0
 10
0.0
 20
0.0
 30
0.0
  3
AutoLauncher
  1

  0
LINE
  5
331
330
8EC
100
AcDbEntity
  8
PROFILE
100
AcDbLine
 10
-0.3900000000000077
 20
6.189999999999998
 30
0.0
 11
-0.3900000000000077
 21
1.339999999999995
 31
0.0
  0
LINE
  5
332
330
8EC
100
AcDbEntity
  8
PROFILE
100
AcDbLine
 10
1.194999999999986
 20
1.339999999999995
 30
0.0
 11
1.589999999999989
 21
1.339999999999995
 31
0.0
  0
LINE
  5
333
330
8EC
100
AcDbEntity
  8
PROFILE
100
AcDbLine
 10
-0.3900000000000077
 20
1.339999999999995
 30
0.0
 11
-0.0750000000000099
 21
1.339999999999996
 31
0.0
  0
LINE
  5
334
330
8EC
100
AcDbEntity
  8
PROFILE
100
AcDbLine
 10
1.589999999999989
 20
1.339999999999995
 30
0.0
 11
1.589999999999989
 21
5.514999999999997
 31
0.0
  0
LINE
  5
335
330
8EC
100
AcDbEntity
  8
PROFILE
100
AcDbLine
 10
1.489999999999974
 20
6.189999999999998
 30
0.0
 11
-0.3900000000000077
 21
6.189999999999998
 31
0.0
  0
LINE
  5
337
330
8EC
100
AcDbEntity
  8
Profile ... Hidden Profile
100
AcDbLine
 10
-0.2900000000000134
 20
6.189999999999998
 30
0.0
 11
-0.2900000000000134
 21
1.339999999999995
 31
0.0
  0
LINE
  5
338
330
8EC
100
AcDbEntity
  8
Profile ... Hidden Profile
100
AcDbLine
 10
1.489999999999988
 20
1.339999999999995
 30
0.0
 11
1.489999999999988
 21
5.514999999999997
 31
0.0
  0
LINE
  5
339
330
8EC
100
AcDbEntity
  8
PROFILE
100
AcDbLine
 10
1.489999999999988
 20
5.514999999999997
 30
0.0
 11
1.489999999999974
 21
6.189999999999998
 31
0.0
  0
LINE
  5
33A
330
8EC
100
AcDbEntity
  8
PROFILE
100
AcDbLine
 10
1.589999999999989
 20
5.514999999999997
 30
0.0
 11
1.489999999999988
 21
5.514999999999997
 31
0.0
  0
ARC
  5
34F
330
8EC
100
AcDbEntity
  8
Mount Holes
100
AcDbCircle
 10
1.337499999999977
 20
5.822499999999998
 30
0.0
 40
0.0925
100
AcDbArc
 50
270.0
 51
90.0
  0
ARC
  5
350
330
8EC
100
AcDbEntity
  8
Mount Holes
100
AcDbCircle
 10
1.214499999999987
 20
5.822499999999998
 30
0.0
 40
0.0925
100
AcDbArc
 50
90.0
 51
270.0
  0
ARC
  5
351
330
8EC
100
AcDbEntity
  8
Mount Holes
100
AcDbCircle
 10
0.1574999999999918
 20
5.822499999999998
 30
0.0
 40
0.0925
100
AcDbArc
 50
270.0
 51
90.0
  0
ARC
  5
352
330
8EC
100
AcDbEntity
  8
Mount Holes
100
AcDbCircle
 10
-0.0875000000000128
 20
5.822499999999998
 30
0.0
 40
0.0925
100
AcDbArc
 50
90.0
 51
270.0
  0
ARC
  5
353
330
8EC
100
AcDbEntity
  8
Mount Holes
100
AcDbCircle
 10
0.1574999999999918
 20
4.697499999999997
 30
0.0
 40
0.0925
100
AcDbArc
 50
270.0
 51
90.0
  0
ARC
  5
354
330
8EC
100
AcDbEntity
  8
Mount Holes
100
AcDbCircle
 10
-0.0875000000000128
 20
4.697499999999997
 30
0.0
 40
0.0925
100
AcDbArc
 50
90.0
 51
270.0
  0
LINE
  5
355
330
8EC
100
AcDbEntity
  8
Mount Holes
100
AcDbLine
 10
1.337499999999984
 20
5.914999999999999
 30
0.0
 11
1.21449999999998
 21
5.914999999999999
 31
0.0
  0
LINE
  5
356
330
8EC
100
AcDbEntity
  8
Mount Holes
100
AcDbLine
 10
1.214499999999987
 20
5.729999999999997
 30
0.0
 11
1.337499999999999
 21
5.729999999999997
 31
0.0
  0
LINE
  5
357
330
8EC
100
AcDbEntity
  8
Mount Holes
100
AcDbLine
 10
-0.0875000000000128
 20
5.914999999999999
 30
0.0
 11
0.1574999999999918
 21
5.914999999999999
 31
0.0
  0
LINE
  5
358
330
8EC
100
AcDbEntity
  8
Mount Holes
100
AcDbLine
 10
0.1574999999999918
 20
5.729999999999997
 30
0.0
 11
-0.0875000000000128
 21
5.729999999999997
 31
0.0
  0
LINE
  5
359
330
8EC
100
AcDbEntity
  8
Mount Holes
100
AcDbLine
 10
0.1574999999999918
 20
4.789999999999998
 30
0.0
 11
-0.0875000000000128
 21
4.789999999999998
 31
0.0
  0
LINE
  5
35A
330
8EC
100
AcDbEntity
  8
Mount Holes
100
AcDbLine
 10
-0.0875000000000128
 20
4.604999999999996
 30
0.0
 11
0.1574999999999918
 21
4.604999999999996
 31
0.0
  0
LINE
  5
362
330
8EC
100
AcDbEntity
  8
PROFILE
100
AcDbLine
 10
1.314999999999976
 20
4.839999999999995
 30
0.0
 11
0.4899999999999878
 21
4.839999999999995
 31
0.0
  0
LINE
  5
363
330
8EC
100
AcDbEntity
  8
PROFILE
100
AcDbLine
 10
0.4899999999999878
 20
4.719999999999998
 30
0.0
 11
0.5699999999999861
 21
4.719999999999998
 31
0.0
  0
LINE
  5
364
330
8EC
100
AcDbEntity
  8
PROFILE
100
AcDbLine
 10
0.5699999999999861
 20
4.719999999999998
 30
0.0
 11
0.5699999999999861
 21
3.959999999999996
 31
0.0
  0
LINE
  5
365
330
8EC
100
AcDbEntity
  8
PROFILE
100
AcDbLine
 10
0.5699999999999861
 20
3.959999999999996
 30
0.0
 11
0.4899999999999878
 21
3.959999999999996
 31
0.0
  0
LINE
  5
366
330
8EC
100
AcDbEntity
  8
PROFILE
100
AcDbLine
 10
0.4899999999999878
 20
3.839999999999995
 30
0.0
 11
1.314999999999991
 21
3.839999999999995
 31
0.0
  0
LINE
  5
367
330
8EC
100
AcDbEntity
  8
PROFILE
100
AcDbLine
 10
1.314999999999991
 20
3.839999999999995
 30
0.0
 11
1.314999999999976
 21
4.839999999999995
 31
0.0
  0
ARC
  5
36C
330
8EC
100
AcDbEntity
  8
PROFILE
100
AcDbCircle
 10
0.4899999999999878
 20
4.779999999999997
 30
0.0
 40
0.0600000000000001
100
AcDbArc
 50
90.0
 51
270.0
  0
ARC
  5
36D
330
8EC
100
AcDbEntity
  8
PROFILE
100
AcDbCircle
 10
0.4899999999999878
 20
3.899999999999998
 30
0.0
 40
0.0600000000000001
100
AcDbArc
 50
90.0
 51
270.0
  0
LINE
  5
36E
330
8EC
100
AcDbEntity
  8
Profile ... Hidden Profile
100
AcDbLine
 10
0.4699999999999918
 20
4.719999999999998
 30
0.0
 11
0.4699999999999918
 21
3.959999999999996
 31
0.0
  0
ARC
  5
374
330
8EC
100
AcDbEntity
  8
PROFILE
100
AcDbCircle
 10
0.6949999999999861
 20
3.179999999999999
 30
0.0
 40
0.125
100
AcDbArc
 50
359.9065830509624
 51
180.0
  0
LINE
  5
375
330
8EC
100
AcDbEntity
  8
PROFILE
100
AcDbLine
 10
0.5699999999999861
 20
3.179999999999999
 30
0.0
 11
0.5699999999999861
 21
1.764999999999993
 31
0.0
  0
ARC
  5
37B
330
8EC
100
AcDbEntity
  8
Mount Holes
100
AcDbCircle
 10
1.224999999999987
 20
2.449999999999995
 30
0.0
 40
0.0899999999999999
100
AcDbArc
 50
270.0
 51
90.0
  0
ARC
  5
37C
330
8EC
100
AcDbEntity
  8
Mount Holes
100
AcDbCircle
 10
1.095999999999989
 20
2.449999999999995
 30
0.0
 40
0.0899999999999999
100
AcDbArc
 50
90.0
 51
270.0
  0
LINE
  5
37D
330
8EC
100
AcDbEntity
  8
Mount Holes
100
AcDbLine
 10
1.224999999999987
 20
2.539999999999998
 30
0.0
 11
1.095999999999989
 21
2.539999999999998
 31
0.0
  0
LINE
  5
37E
330
8EC
100
AcDbEntity
  8
Mount Holes
100
AcDbLine
 10
1.095999999999989
 20
2.359999999999995
 30
0.0
 11
1.224999999999987
 21
2.359999999999998
 31
0.0
  0
LINE
  5
381
330
8EC
100
AcDbEntity
  8
PROFILE
100
AcDbLine
 10
1.194999999999986
 20
1.339999999999995
 30
0.0
 11
1.194999999999986
 21
1.764999999999993
 31
0.0
  0
LINE
  5
382
330
8EC
100
AcDbEntity
  8
PROFILE
100
AcDbLine
 10
-0.0750000000000099
 20
1.339999999999996
 30
0.0
 11
-0.0750000000000099
 21
1.765
 31
0.0
  0
LINE
  5
383
330
8EC
100
AcDbEntity
  8
PROFILE
100
AcDbLine
 10
-0.0750000000000099
 20
1.765
 30
0.0
 11
0.566999999999986
 21
1.764999999999993
 31
0.0
  0
LINE
  5
384
330
8EC
100
AcDbEntity
  8
PROFILE
100
AcDbLine
 10
0.8199999999999861
 20
1.764999999999993
 30
0.0
 11
1.194999999999986
 21
1.765
 31
0.0
  0
LINE
  5
387
330
8EC
100
AcDbEntity
  8
Launcher
100
AcDbLine
 10
1.589999999999989
 20
2.149999999999998
 30
0.0
 11
1.649999999999984
 21
2.149999999999998
 31
0.0
  0
LINE
  5
388
330
8EC
100
AcDbEntity
  8
Launcher
100
AcDbLine
 10
1.649999999999984
 20
0.1499999999999981
 30
0.0
 11
1.649999999999984
 21
2.149999999999998
 31
0.0
  0
LINE
  5
389
330
8EC
100
AcDbEntity
  8
Launcher
100
AcDbLine
 10
0.1499999999999844
 20
0.1499999999999981
 30
0.0
 11
1.649999999999984
 21
0.1499999999999981
 31
0.0
  0
LINE
  5
38A
330
8EC
100
AcDbEntity
  8
Launcher
100
AcDbLine
 10
0.1499999999999844
 20
0.1499999999999981
 30
0.0
 11
0.1499999999999844
 21
2.149999999999998
 31
0.0
  0
LINE
  5
38B
330
8EC
100
AcDbEntity
  8
Launcher
100
AcDbLine
 10
0.2099999999999795
 20
0.1499999999999981
 30
0.0
 11
0.2099999999999866
 21
2.149999999999998
 31
0.0
  0
LINE
  5
38C
330
8EC
100
AcDbEntity
  8
Launcher
100
AcDbLine
 10
1.589999999999989
 20
0.1499999999999981
 30
0.0
 11
1.589999999999989
 21
2.149999999999998
 31
0.0
  0
LINE
  5
38D
330
8EC
100
AcDbEntity
  8
Launcher
100
AcDbLine
 10
0.2099999999999866
 20
2.149999999999998
 30
0.0
 11
0.1499999999999844
 21
2.149999999999998
 31
0.0
  0
LINE
  5
38F
330
8EC
100
AcDbEntity
  8
Switch
100
AcDbLine
 10
0.8549999999999898
 20
4.719999999999998
 30
0.0
 11
0.8549999999999898
 21
3.959999999999996
 31
0.0
  0
LINE
  5
390
330
8EC
100
AcDbEntity
  8
Switch
100
AcDbLine
 10
0.5699999999999861
 20
4.719999999999998
 30
0.0
 11
0.5699999999999861
 21
3.959999999999996
 31
0.0
  0
LINE
  5
391
330
8EC
100
AcDbEntity
  8
Switch
100
AcDbLine
 10
0.8549999999999898
 20
4.719999999999998
 30
0.0
 11
0.5699999999999861
 21
4.719999999999998
 31
0.0
  0
LINE
  5
392
330
8EC
100
AcDbEntity
  8
Switch
100
AcDbLine
 10
0.8549999999999898
 20
3.959999999999996
 30
0.0
 11
0.5699999999999861
 21
3.959999999999996
 31
0.0
  0
LINE
  5
393
330
8EC
100
AcDbEntity
  8
PROFILE
100
AcDbLine
 10
0.8199999999999861
 20
3.179999999999999
 30
0.0
 11
0.8199999999999861
 21
1.764999999999993
 31
0.0
  0
ARC
  5
395
330
8EC
100
AcDbEntity
  8
Playfield Cutout
100
AcDbCircle
 10
0.6949999999999861
 20
3.179999999999999
 30
0.0
 40
0.125
100
AcDbArc
 50
359.9065830509624
 51
180.0
  0
LINE
  5
396
330
8EC
100
AcDbEntity
  8
Playfield Cutout
100
AcDbLine
 10
1.79999999999999
 20
2.289999999999998
 30
0.0
 11
0.8199999999999861
 21
2.289999999999998
 31
0.0
  0
LINE
  5
397
330
8EC
100
AcDbEntity
  8
Playfield Cutout
100
AcDbLine
 10
0.5699999999999861
 20
2.289999999999998
 30
0.0
 11
-0.0000000000000071
 21
2.289999999999998
 31
0.0
  0
LINE
  5
398
330
8EC
100
AcDbEntity
  8
Playfield Cutout
100
AcDbLine
 10
0.8199999999999861
 20
2.289999999999998
 30
0.0
 11
0.8199999999999861
 21
3.179999999999999
 31
0.0
  0
LINE
  5
399
330
8EC
100
AcDbEntity
  8
Playfield Cutout
100
AcDbLine
 10
0.5699999999999861
 20
3.179999999999999
 30
0.0
 11
0.5699999999999861
 21
2.289999999999998
 31
0.0
  0
LINE
  5
39A
330
8EC
100
AcDbEntity
  8
Playfield Cutout
100
AcDbLine
 10
1.79999999999999
 20
-0.0000000000000009
 30
0.0
 11
1.79999999999999
 21
2.289999999999998
 31
0.0
  0
LINE
  5
39B
330
8EC
100
AcDbEntity
  8
Playfield Cutout
100
AcDbLine
 10
-0.0000000000000071
 20
0.0
 30
0.0
 11
-0.0000000000000071
 21
2.289999999999998
 31
0.0
  0
LINE
  5
39C
330
8EC
100
AcDbEntity
  8
Playfield Cutout
100
AcDbLine
 10
-0.0000000000000071
 20
0.0
 30
0.0
 11
1.79999999999999
 21
-0.0000000000000009
 31
0.0
  0
ENDBLK
  5
8EE
330
8EC
100
AcDbEntity
  8
0
100
AcDbBlockEnd
  0
BLOCK
  5
8F0
330
8EF
100
AcDbEntity
  8
0
100
AcDbBlockBegin
  2
BallTrough
 70
     0
 10
0.0
 20
0.0
 30
0.0
  3
BallTrough
  1

  0
LINE
  5
7A9
330
8EF
100
AcDbEntity
  8
PROFILE
100
AcDbLine
 10
-0.0000000000000018
 20
0.0000000000000003
 30
0.0
 11
4.818565346656611
 21
2.781999999999996
 31
0.0
  0
LINE
  5
7AA
330
8EF
100
AcDbEntity
  8
PROFILE
100
AcDbLine
 10
4.905167887035054
 20
2.831999999999997
 30
0.0
 11
7.130853174761056
 21
4.116999999999993
 31
0.0
  0
LINE
  5
7AB
330
8EF
100
AcDbEntity
  8
PROFILE
100
AcDbLine
 10
3.628565346656606
 20
4.843140461006961
 30
0.0
 11
-1.190000000000007
 21
2.061140461006961
 31
0.0
  0
LINE
  5
7AC
330
8EF
100
AcDbEntity
  8
PROFILE
100
AcDbLine
 10
5.940853174761058
 20
6.178140461006957
 30
0.0
 11
3.715167887035056
 21
4.893140461006961
 31
0.0
  0
LINE
  5
7AD
330
8EF
100
AcDbEntity
  8
PROFILE
100
AcDbLine
 10
-0.9969615242270766
 20
1.606788013152584
 30
0.0
 11
-0.2969615242270773
 21
0.3943524478543704
 31
0.0
  0
LINE
  5
7AE
330
8EF
100
AcDbEntity
  8
PROFILE
100
AcDbLine
 10
-1.190000000000007
 20
2.061140461006961
 30
0.0
 11
-0.0000000000000018
 21
0.0000000000000003
 31
0.0
  0
LINE
  5
7AF
330
8EF
100
AcDbEntity
  8
PROFILE
100
AcDbLine
 10
6.215853174761056
 20
5.701826488925519
 30
0.0
 11
-0.9669615242270755
 21
1.554826488925519
 31
0.0
  0
LINE
  5
7B0
330
8EF
100
AcDbEntity
  8
PROFILE
100
AcDbLine
 10
-0.3269615242270749
 20
0.446313972081437
 30
0.0
 11
6.85585317476105
 21
4.593313972081443
 31
0.0
  0
CIRCLE
  5
7B1
330
8EF
100
AcDbEntity
  8
Mount Holes
100
AcDbCircle
 10
-0.6488078061834788
 20
2.083768084657067
 30
0.0
 40
0.09
  0
CIRCLE
  5
7B2
330
8EF
100
AcDbEntity
  8
Mount Holes
100
AcDbCircle
 10
1.079778899770259
 20
3.081768084657067
 30
0.0
 40
0.0899999999999999
  0
CIRCLE
  5
7B3
330
8EF
100
AcDbEntity
  8
Mount Holes
100
AcDbCircle
 10
2.814427783550491
 20
4.083268084657064
 30
0.0
 40
0.0899999999999999
  0
CIRCLE
  5
7B4
330
8EF
100
AcDbEntity
  8
Mount Holes
100
AcDbCircle
 10
0.2901921938165213
 20
0.4573723763498915
 30
0.0
 40
0.09
  0
CIRCLE
  5
7B5
330
8EF
100
AcDbEntity
  8
Mount Holes
100
AcDbCircle
 10
2.018778899770259
 20
1.45537237634989
 30
0.0
 40
0.0899999999999999
  0
CIRCLE
  5
7B6
330
8EF
100
AcDbEntity
  8
Mount Holes
100
AcDbCircle
 10
3.753427783550498
 20
2.456872376349885
 30
0.0
 40
0.0899999999999999
  0
CIRCLE
  5
7B8
330
8EF
100
AcDbEntity
  8
Mount Holes ... Threaded Holes
100
AcDbCircle
 10
1.876522271251948
 20
3.541768084657067
 30
0.0
 40
0.0800000000000001
  0
CIRCLE
  5
7B9
330
8EF
100
AcDbEntity
  8
Mount Holes ... Threaded Holes
100
AcDbCircle
 10
2.815522271251949
 20
1.915372376349887
 30
0.0
 40
0.0800000000000001
  0
LINE
  5
7BA
330
8EF
100
AcDbEntity
  8
PROFILE
100
AcDbLine
 10
3.628565346656613
 20
4.843140461006959
 30
0.0
 11
4.818565346656611
 21
2.781999999999997
 31
0.0
  0
LINE
  5
7BB
330
8EF
100
AcDbEntity
  8
Profile ... Hidden Profile
100
AcDbLine
 10
6.185853174761055
 20
5.75378801315258
 30
0.0
 11
-0.9969615242270766
 21
1.606788013152584
 31
0.0
  0
LINE
  5
7BC
330
8EF
100
AcDbEntity
  8
Profile ... Hidden Profile
100
AcDbLine
 10
-0.2969615242270773
 20
0.3943524478543704
 30
0.0
 11
6.885853174761058
 21
4.541352447854366
 31
0.0
  0
LINE
  5
7BD
330
8EF
100
AcDbEntity
  8
PROFILE
100
AcDbLine
 10
3.715167887035056
 20
4.89314046100696
 30
0.0
 11
4.905167887035054
 21
2.831999999999998
 31
0.0
  0
LINE
  5
7BE
330
8EF
100
AcDbEntity
  8
PROFILE
100
AcDbLine
 10
4.741407990519617
 20
5.485640461006962
 30
0.0
 11
5.931407990519615
 21
3.424499999999999
 31
0.0
  0
LINE
  5
7BF
330
8EF
100
AcDbEntity
  8
PROFILE
100
AcDbLine
 10
5.018536119730632
 20
5.645640461006956
 30
0.0
 11
6.208536119730629
 21
3.584499999999995
 31
0.0
  0
LINE
  5
7C0
330
8EF
100
AcDbEntity
  8
PROFILE
100
AcDbLine
 10
5.940853174761058
 20
6.178140461006957
 30
0.0
 11
7.130853174761056
 21
4.116999999999994
 31
0.0
  0
CIRCLE
  5
7C1
330
8EF
100
AcDbEntity
  8
Mount Holes ... Threaded Holes
100
AcDbCircle
 10
4.47979463502797
 20
5.044768084657067
 30
0.0
 40
0.0800000000000001
  0
CIRCLE
  5
7C2
330
8EF
100
AcDbEntity
  8
Mount Holes ... Threaded Holes
100
AcDbCircle
 10
5.418794635027977
 20
3.418372376349882
 30
0.0
 40
0.0800000000000001
  0
LINE
  5
7C3
330
8EF
100
AcDbEntity
  8
PROFILE
100
AcDbLine
 10
7.126160610848258
 20
6.285127759114738
 30
0.0
 11
7.816160610848256
 21
5.090012701892211
 31
0.0
  0
LINE
  5
7C4
330
8EF
100
AcDbEntity
  8
PROFILE
100
AcDbLine
 10
7.126160610848258
 20
6.285127759114738
 30
0.0
 11
6.190853174761058
 21
5.745127759114739
 31
0.0
  0
LINE
  5
7C5
330
8EF
100
AcDbEntity
  8
PROFILE
100
AcDbLine
 10
6.880853174761063
 20
4.550012701892203
 30
0.0
 11
7.816160610848256
 21
5.090012701892211
 31
0.0
  0
CIRCLE
  5
7C7
330
8EF
100
AcDbEntity
  8
Rubber
100
AcDbCircle
 10
6.569333936874591
 20
5.14957984944671
 30
0.0
 40
0.25
  0
CIRCLE
  5
7C8
330
8EF
100
AcDbEntity
  8
Playfield Cutout
100
AcDbCircle
 10
1.876522271251948
 20
3.541768084657067
 30
0.0
 40
0.1000000000000001
  0
CIRCLE
  5
7C9
330
8EF
100
AcDbEntity
  8
Playfield Cutout
100
AcDbCircle
 10
2.815522271251949
 20
1.915372376349887
 30
0.0
 40
0.1000000000000001
  0
CIRCLE
  5
7CA
330
8EF
100
AcDbEntity
  8
Playfield Cutout
100
AcDbCircle
 10
5.418794635027977
 20
3.418372376349882
 30
0.0
 40
0.1000000000000001
  0
CIRCLE
  5
7CB
330
8EF
100
AcDbEntity
  8
Playfield Cutout
100
AcDbCircle
 10
4.47979463502797
 20
5.044768084657067
 30
0.0
 40
0.1000000000000001
  0
LWPOLYLINE
  5
7CC
330
8EF
100
AcDbEntity
  8
Playfield Cutout
100
AcDbPolyline
 90
        5
 70
   128
 43
0.0
 10
3.903565346656611
 20
4.366826488925518
 10
4.543565346656612
 20
3.258313972081437
 10
-0.2750000000000075
 20
0.4763139720814381
 10
-0.915000000000008
 20
1.58482648892552
 10
3.903565346656611
 20
4.366826488925518
  0
LWPOLYLINE
  5
7CD
330
8EF
100
AcDbEntity
  8
Playfield Cutout
100
AcDbPolyline
 90
        5
 70
   128
 43
0.0
 10
4.896946466292546
 20
5.096239918436418
 10
5.671946466292544
 20
3.753900542570539
 10
7.910622135075313
 20
5.046400542570538
 10
7.135622135075314
 20
6.388739918436414
 10
4.896946466292546
 20
5.096239918436418
  0
LINE
  5
7CE
330
8EF
100
AcDbEntity
  8
PROFILE
100
AcDbLine
 10
7.081160610848256
 20
6.363070045455337
 30
0.0
 11
6.145853174761056
 21
5.823070045455336
 31
0.0
  0
LINE
  5
7CF
330
8EF
100
AcDbEntity
  8
PROFILE
100
AcDbLine
 10
6.92585317476105
 20
4.47207041555162
 30
0.0
 11
7.86116061084825
 21
5.012070415551625
 31
0.0
  0
LINE
  5
7D0
330
8EF
100
AcDbEntity
  8
PROFILE
100
AcDbLine
 10
6.405660795896386
 20
5.973070045455339
 30
0.0
 11
7.185660795896387
 21
4.622070415551615
 31
0.0
  0
LINE
  5
7D2
330
8EF
100
AcDbEntity
  8
Electrical Components
100
AcDbLine
 10
1.200281982719245
 20
3.903050622520736
 30
0.0
 11
0.3082758168212738
 21
3.388050622520735
 31
0.0
  0
LINE
  5
7D3
330
8EF
100
AcDbEntity
  8
Electrical Components
100
AcDbLine
 10
5.078343740865966
 20
6.142050622520736
 30
0.0
 11
4.818536119730629
 21
5.992050622520734
 31
0.0
  0
LINE
  5
7D4
330
8EF
100
AcDbEntity
  8
Electrical Components
100
AcDbLine
 10
1.628468195685945
 20
0.5014103465619101
 30
0.0
 11
1.888275816821276
 21
0.6514103465619087
 31
0.0
  0
LINE
  5
7D5
330
8EF
100
AcDbEntity
  8
Electrical Components
100
AcDbLine
 10
1.400281982719248
 20
3.55664046100696
 30
0.0
 11
1.200281982719245
 21
3.903050622520736
 31
0.0
  0
LINE
  5
7D6
330
8EF
100
AcDbEntity
  8
Electrical Components
100
AcDbLine
 10
0.5082758168212731
 20
3.04164046100696
 30
0.0
 11
0.3082758168212738
 21
3.388050622520735
 31
0.0
  0
LINE
  5
7D7
330
8EF
100
AcDbEntity
  8
Electrical Components
100
AcDbLine
 10
1.888275816821276
 20
0.6514103465619104
 30
0.0
 11
1.698275816821278
 21
0.980499999999996
 31
0.0
  0
LINE
  5
7D8
330
8EF
100
AcDbEntity
  8
Electrical Components
100
AcDbLine
 10
1.628468195685945
 20
0.5014103465619119
 30
0.0
 11
1.438468195685948
 21
0.8304999999999975
 31
0.0
  0
LINE
  5
7D9
330
8EF
100
AcDbEntity
  8
Electrical Components
100
AcDbLine
 10
5.078343740865966
 20
6.142050622520736
 30
0.0
 11
5.278343740865969
 21
5.795640461006961
 31
0.0
  0
LINE
  5
7DA
330
8EF
100
AcDbEntity
  8
Electrical Components
100
AcDbLine
 10
4.818536119730629
 20
5.992050622520734
 30
0.0
 11
5.018536119730632
 21
5.645640461006959
 31
0.0
  0
CIRCLE
  5
7DC
330
8EF
100
AcDbEntity
  8
Mount Holes ... Threaded Holes ... Outer Support Wall
100
AcDbCircle
 10
4.47979463502797
 20
5.044768084657067
 30
0.0
 40
0.1535000000000002
  0
CIRCLE
  5
7DD
330
8EF
100
AcDbEntity
  8
Mount Holes ... Threaded Holes ... Outer Support Wall
100
AcDbCircle
 10
1.876522271251948
 20
3.541768084657067
 30
0.0
 40
0.1535000000000002
  0
CIRCLE
  5
7DE
330
8EF
100
AcDbEntity
  8
Mount Holes ... Threaded Holes ... Outer Support Wall
100
AcDbCircle
 10
2.815522271251949
 20
1.915372376349887
 30
0.0
 40
0.1535000000000002
  0
CIRCLE
  5
7DF
330
8EF
100
AcDbEntity
  8
Mount Holes ... Threaded Holes ... Outer Support Wall
100
AcDbCircle
 10
5.418794635027977
 20
3.418372376349882
 30
0.0
 40
0.1535000000000002
  0
CIRCLE
  5
7E0
330
8EF
100
AcDbEntity
  8
Mount Holes ... Threaded Holes ... Outer Support Wall
100
AcDbCircle
 10
5.778832740704628
 20
5.794768084657068
 30
0.0
 40
0.1534999999999997
  0
CIRCLE
  5
7E1
330
8EF
100
AcDbEntity
  8
Mount Holes ... Threaded Holes ... Outer Support Wall
100
AcDbCircle
 10
6.717832740704614
 20
4.168372376349907
 30
0.0
 40
0.1534999999999997
  0
CIRCLE
  5
7E2
330
8EF
100
AcDbEntity
  8
Mount Holes
100
AcDbCircle
 10
5.778832740704628
 20
5.794768084657068
 30
0.0
 40
0.0800000000000001
  0
CIRCLE
  5
7E3
330
8EF
100
AcDbEntity
  8
Mount Holes
100
AcDbCircle
 10
6.717832740704614
 20
4.168372376349907
 30
0.0
 40
0.0800000000000001
  0
CIRCLE
  5
7E4
330
8EF
100
AcDbEntity
  8
Playfield Cutout
100
AcDbCircle
 10
5.778832740704628
 20
5.794768084657068
 30
0.0
 40
0.0999999999999996
  0
CIRCLE
  5
7E5
330
8EF
100
AcDbEntity
  8
Playfield Cutout
100
AcDbCircle
 10
6.717832740704614
 20
4.168372376349907
 30
0.0
 40
0.0999999999999996
  0
ENDBLK
  5
8F1
330
8EF
100
AcDbEntity
  8
0
100
AcDbBlockEnd
  0
BLOCK
  5
8F3
330
8F2
100
AcDbEntity
  8
0
100
AcDbBlockBegin
  2
DropTarget
 70
     0
 10
0.0
 20
0.0
 30
0.0
  3
DropTarget
  1

  0
LINE
  5
5C4
330
8F2
100
AcDbEntity
  8
PROFILE
100
AcDbLine
 10
2.777000000000001
 20
0.0
 30
0.0
 11
2.777000000000001
 21
0.375
 31
0.0
  0
LINE
  5
5C5
330
8F2
100
AcDbEntity
  8
PROFILE
100
AcDbLine
 10
2.777000000000005
 20
3.890999999999991
 30
0.0
 11
2.777
 21
4.265999999999991
 31
0.0
  0
LINE
  5
5C6
330
8F2
100
AcDbEntity
  8
PROFILE
100
AcDbLine
 10
2.777
 20
4.265999999999991
 30
0.0
 11
0.0
 21
4.265999999999991
 31
0.0
  0
LINE
  5
5C7
330
8F2
100
AcDbEntity
  8
PROFILE
100
AcDbLine
 10
0.0
 20
4.265999999999991
 30
0.0
 11
0.0
 21
3.890999999999991
 31
0.0
  0
LINE
  5
5C8
330
8F2
100
AcDbEntity
  8
PROFILE
100
AcDbLine
 10
0.0
 20
0.375
 30
0.0
 11
0.0
 21
0.0
 31
0.0
  0
LINE
  5
5C9
330
8F2
100
AcDbEntity
  8
PROFILE
100
AcDbLine
 10
0.0
 20
0.0
 30
0.0
 11
2.777000000000001
 21
0.0
 31
0.0
  0
LINE
  5
5CD
330
8F2
100
AcDbEntity
  8
PROFILE
100
AcDbLine
 10
0.8400000000000001
 20
0.0
 30
0.0
 11
0.8400000000000001
 21
0.375
 31
0.0
  0
LINE
  5
5CE
330
8F2
100
AcDbEntity
  8
PROFILE
100
AcDbLine
 10
0.8400000000000001
 20
0.375
 30
0.0
 11
0.0
 21
0.375
 31
0.0
  0
LINE
  5
5CF
330
8F2
100
AcDbEntity
  8
PROFILE
100
AcDbLine
 10
0.0
 20
3.890999999999991
 30
0.0
 11
0.8400000000000032
 21
3.890999999999991
 31
0.0
  0
LINE
  5
5D0
330
8F2
100
AcDbEntity
  8
PROFILE
100
AcDbLine
 10
0.8400000000000032
 20
3.890999999999991
 30
0.0
 11
0.8400000000000041
 21
4.265999999999991
 31
0.0
  0
LINE
  5
5D1
330
8F2
100
AcDbEntity
  8
PROFILE
100
AcDbLine
 10
1.937000000000002
 20
4.265999999999991
 30
0.0
 11
1.937000000000002
 21
3.890999999999991
 31
0.0
  0
LINE
  5
5D2
330
8F2
100
AcDbEntity
  8
PROFILE
100
AcDbLine
 10
1.937000000000002
 20
3.890999999999991
 30
0.0
 11
2.777000000000005
 21
3.890999999999991
 31
0.0
  0
LINE
  5
5D3
330
8F2
100
AcDbEntity
  8
PROFILE
100
AcDbLine
 10
1.937000000000002
 20
0.0
 30
0.0
 11
1.937000000000002
 21
0.375
 31
0.0
  0
LINE
  5
5D4
330
8F2
100
AcDbEntity
  8
PROFILE
100
AcDbLine
 10
1.937000000000002
 20
0.375
 30
0.0
 11
2.777000000000001
 21
0.375
 31
0.0
  0
LINE
  5
5D5
330
8F2
100
AcDbEntity
  8
Profile ... Hidden Profile
100
AcDbLine
 10
0.7300000000000011
 20
0.375
 30
0.0
 11
0.7300000000000011
 21
0.0
 31
0.0
  0
LINE
  5
5D6
330
8F2
100
AcDbEntity
  8
Profile ... Hidden Profile
100
AcDbLine
 10
0.7300000000000031
 20
4.265999999999991
 30
0.0
 11
0.7300000000000042
 21
3.890999999999991
 31
0.0
  0
LINE
  5
5D7
330
8F2
100
AcDbEntity
  8
Profile ... Hidden Profile
100
AcDbLine
 10
2.047000000000001
 20
0.0
 30
0.0
 11
2.047000000000001
 21
0.375
 31
0.0
  0
LINE
  5
5D8
330
8F2
100
AcDbEntity
  8
Profile ... Hidden Profile
100
AcDbLine
 10
2.047000000000003
 20
4.265999999999991
 30
0.0
 11
2.047000000000001
 21
3.890999999999991
 31
0.0
  0
LINE
  5
5D9
330
8F2
100
AcDbEntity
  8
PROFILE
100
AcDbLine
 10
0.895
 20
0.0
 30
0.0
 11
0.8949999999999982
 21
4.265999999999991
 31
0.0
  0
LINE
  5
5DA
330
8F2
100
AcDbEntity
  8
PROFILE
100
AcDbLine
 10
1.882000000000002
 20
0.0
 30
0.0
 11
1.882
 21
4.265999999999991
 31
0.0
  0
LINE
  5
5DB
330
8F2
100
AcDbEntity
  8
Plastics
100
AcDbLine
 10
0.895
 20
0.2599999999999909
 30
0.0
 11
0.895
 21
1.445999999999991
 31
0.0
  0
LINE
  5
5DC
330
8F2
100
AcDbEntity
  8
Plastics
100
AcDbLine
 10
0.895
 20
1.445999999999991
 30
0.0
 11
1.333000000000002
 21
1.445999999999991
 31
0.0
  0
LINE
  5
5DD
330
8F2
100
AcDbEntity
  8
Plastics
100
AcDbLine
 10
1.333000000000002
 20
1.445999999999991
 30
0.0
 11
1.333000000000002
 21
0.2599999999999909
 31
0.0
  0
LINE
  5
5DE
330
8F2
100
AcDbEntity
  8
Plastics
100
AcDbLine
 10
1.333000000000002
 20
0.2599999999999909
 30
0.0
 11
0.895
 21
0.2599999999999909
 31
0.0
  0
LINE
  5
5DF
330
8F2
100
AcDbEntity
  8
Plastics
100
AcDbLine
 10
0.895
 20
1.539999999999992
 30
0.0
 11
1.333000000000003
 21
1.539999999999992
 31
0.0
  0
LINE
  5
5E0
330
8F2
100
AcDbEntity
  8
Plastics
100
AcDbLine
 10
1.333000000000003
 20
1.539999999999992
 30
0.0
 11
1.333000000000003
 21
2.725999999999999
 31
0.0
  0
LINE
  5
5E1
330
8F2
100
AcDbEntity
  8
Plastics
100
AcDbLine
 10
1.333000000000003
 20
2.725999999999999
 30
0.0
 11
0.8950000000000009
 21
2.725999999999999
 31
0.0
  0
LINE
  5
5E2
330
8F2
100
AcDbEntity
  8
Plastics
100
AcDbLine
 10
0.8950000000000009
 20
2.725999999999999
 30
0.0
 11
0.895
 21
1.539999999999992
 31
0.0
  0
LINE
  5
5E3
330
8F2
100
AcDbEntity
  8
Plastics
100
AcDbLine
 10
0.895
 20
2.819999999999993
 30
0.0
 11
1.333000000000002
 21
2.819999999999993
 31
0.0
  0
LINE
  5
5E4
330
8F2
100
AcDbEntity
  8
Plastics
100
AcDbLine
 10
1.333000000000002
 20
2.819999999999993
 30
0.0
 11
1.333000000000002
 21
4.006
 31
0.0
  0
LINE
  5
5E5
330
8F2
100
AcDbEntity
  8
Plastics
100
AcDbLine
 10
1.333000000000002
 20
4.006
 30
0.0
 11
0.8950000000000031
 21
4.006
 31
0.0
  0
LINE
  5
5E6
330
8F2
100
AcDbEntity
  8
Plastics
100
AcDbLine
 10
0.8950000000000031
 20
4.006
 30
0.0
 11
0.8950000000000009
 21
2.819999999999993
 31
0.0
  0
LINE
  5
5E7
330
8F2
100
AcDbEntity
  8
PROFILE
100
AcDbLine
 10
0.895
 20
0.0
 30
0.0
 11
0.8400000000000001
 21
0.0
 31
0.0
  0
LINE
  5
5E8
330
8F2
100
AcDbEntity
  8
PROFILE
100
AcDbLine
 10
0.8400000000000001
 20
0.0
 30
0.0
 11
0.8400000000000041
 21
4.265999999999998
 31
0.0
  0
LINE
  5
5E9
330
8F2
100
AcDbEntity
  8
PROFILE
100
AcDbLine
 10
0.8400000000000041
 20
4.265999999999998
 30
0.0
 11
0.8949999999999982
 21
4.265999999999991
 31
0.0
  0
LINE
  5
5EA
330
8F2
100
AcDbEntity
  8
PROFILE
100
AcDbLine
 10
1.882000000000002
 20
0.0
 30
0.0
 11
1.937000000000002
 21
0.0
 31
0.0
  0
LINE
  5
5EB
330
8F2
100
AcDbEntity
  8
PROFILE
100
AcDbLine
 10
1.937000000000002
 20
0.0
 30
0.0
 11
1.937000000000003
 21
4.265999999999998
 31
0.0
  0
LINE
  5
5EC
330
8F2
100
AcDbEntity
  8
PROFILE
100
AcDbLine
 10
1.937000000000003
 20
4.265999999999998
 30
0.0
 11
1.882
 21
4.265999999999991
 31
0.0
  0
ARC
  5
604
330
8F2
100
AcDbEntity
  8
Mount Holes
100
AcDbCircle
 10
0.2875000000000021
 20
0.1875
 30
0.0
 40
0.0875
100
AcDbArc
 50
90.0
 51
270.0
  0
ARC
  5
605
330
8F2
100
AcDbEntity
  8
Mount Holes
100
AcDbCircle
 10
0.4225000000000001
 20
0.1875
 30
0.0
 40
0.0875
100
AcDbArc
 50
270.0
 51
90.0
  0
ARC
  5
606
330
8F2
100
AcDbEntity
  8
Mount Holes
100
AcDbCircle
 10
0.2875000000000052
 20
4.078499999999991
 30
0.0
 40
0.0875000000000001
100
AcDbArc
 50
90.0
 51
270.0
  0
ARC
  5
607
330
8F2
100
AcDbEntity
  8
Mount Holes
100
AcDbCircle
 10
0.4224999999999981
 20
4.078499999999991
 30
0.0
 40
0.0875000000000001
100
AcDbArc
 50
270.0
 51
90.0
  0
ARC
  5
608
330
8F2
100
AcDbEntity
  8
Mount Holes
100
AcDbCircle
 10
2.354500000000002
 20
0.1875
 30
0.0
 40
0.0875
100
AcDbArc
 50
90.0
 51
270.0
  0
ARC
  5
609
330
8F2
100
AcDbEntity
  8
Mount Holes
100
AcDbCircle
 10
2.4895
 20
0.1875
 30
0.0
 40
0.0875
100
AcDbArc
 50
270.0
 51
90.0
  0
ARC
  5
60A
330
8F2
100
AcDbEntity
  8
Mount Holes
100
AcDbCircle
 10
2.354500000000002
 20
4.078499999999991
 30
0.0
 40
0.0875000000000001
100
AcDbArc
 50
90.0
 51
270.0
  0
ARC
  5
60B
330
8F2
100
AcDbEntity
  8
Mount Holes
100
AcDbCircle
 10
2.489500000000002
 20
4.078499999999991
 30
0.0
 40
0.0875000000000001
100
AcDbArc
 50
270.0
 51
90.0
  0
LINE
  5
60C
330
8F2
100
AcDbEntity
  8
Mount Holes
100
AcDbLine
 10
0.2875000000000021
 20
0.0999999999999908
 30
0.0
 11
0.4225000000000001
 21
0.1000000000000014
 31
0.0
  0
LINE
  5
60D
330
8F2
100
AcDbEntity
  8
Mount Holes
100
AcDbLine
 10
0.2875000000000021
 20
0.2749999999999915
 30
0.0
 11
0.4225000000000001
 21
0.2749999999999915
 31
0.0
  0
LINE
  5
60E
330
8F2
100
AcDbEntity
  8
Mount Holes
100
AcDbLine
 10
0.2875000000000092
 20
3.991
 30
0.0
 11
0.4225000000000032
 21
3.991
 31
0.0
  0
LINE
  5
60F
330
8F2
100
AcDbEntity
  8
Mount Holes
100
AcDbLine
 10
0.2875000000000092
 20
4.166000000000004
 30
0.0
 11
0.4225000000000021
 21
4.166000000000004
 31
0.0
  0
LINE
  5
610
330
8F2
100
AcDbEntity
  8
Mount Holes
100
AcDbLine
 10
2.354500000000002
 20
0.0999999999999908
 30
0.0
 11
2.4895
 21
0.0999999999999908
 31
0.0
  0
LINE
  5
611
330
8F2
100
AcDbEntity
  8
Mount Holes
100
AcDbLine
 10
2.354500000000002
 20
0.2750000000000021
 30
0.0
 11
2.4895
 21
0.2749999999999915
 31
0.0
  0
LINE
  5
612
330
8F2
100
AcDbEntity
  8
Mount Holes
100
AcDbLine
 10
2.354500000000004
 20
3.991
 30
0.0
 11
2.489500000000003
 21
3.990999999999993
 31
0.0
  0
LINE
  5
613
330
8F2
100
AcDbEntity
  8
Mount Holes
100
AcDbLine
 10
2.354500000000006
 20
4.166000000000004
 30
0.0
 11
2.489500000000002
 21
4.166000000000004
 31
0.0
  0
LINE
  5
617
330
8F2
100
AcDbEntity
  8
PROFILE
100
AcDbLine
 10
1.937000000000003
 20
3.140999999999991
 30
0.0
 11
1.937000000000002
 21
2.480999999999991
 31
0.0
  0
LINE
  5
618
330
8F2
100
AcDbEntity
  8
PROFILE
100
AcDbLine
 10
1.937000000000002
 20
2.480999999999991
 30
0.0
 11
2.777000000000001
 21
2.481000000000002
 31
0.0
  0
LINE
  5
619
330
8F2
100
AcDbEntity
  8
PROFILE
100
AcDbLine
 10
2.777000000000001
 20
2.481000000000002
 30
0.0
 11
2.777000000000003
 21
2.570999999999991
 31
0.0
  0
LINE
  5
61A
330
8F2
100
AcDbEntity
  8
PROFILE
100
AcDbLine
 10
2.777000000000003
 20
2.570999999999991
 30
0.0
 11
2.027000000000001
 21
2.570999999999991
 31
0.0
  0
LINE
  5
61B
330
8F2
100
AcDbEntity
  8
PROFILE
100
AcDbLine
 10
2.027000000000001
 20
2.570999999999991
 30
0.0
 11
2.027000000000001
 21
3.140999999999991
 31
0.0
  0
LINE
  5
61C
330
8F2
100
AcDbEntity
  8
PROFILE
100
AcDbLine
 10
2.027000000000001
 20
3.140999999999991
 30
0.0
 11
1.937000000000003
 21
3.140999999999991
 31
0.0
  0
LINE
  5
61D
330
8F2
100
AcDbEntity
  8
PROFILE
100
AcDbLine
 10
2.027000000000001
 20
1.332999999999991
 30
0.0
 11
2.027000000000001
 21
1.242999999999991
 31
0.0
  0
LINE
  5
61E
330
8F2
100
AcDbEntity
  8
PROFILE
100
AcDbLine
 10
2.027000000000001
 20
2.481000000000002
 30
0.0
 11
2.027000000000001
 21
1.844999999999992
 31
0.0
  0
LINE
  5
61F
330
8F2
100
AcDbEntity
  8
PROFILE
100
AcDbLine
 10
2.027000000000001
 20
1.242999999999991
 30
0.0
 11
2.707000000000001
 21
1.242999999999991
 31
0.0
  0
LINE
  5
620
330
8F2
100
AcDbEntity
  8
PROFILE
100
AcDbLine
 10
2.777000000000001
 20
2.481000000000002
 30
0.0
 11
1.937000000000002
 21
2.480999999999991
 31
0.0
  0
LINE
  5
621
330
8F2
100
AcDbEntity
  8
Profile ... Hidden Profile
100
AcDbLine
 10
2.027000000000001
 20
2.390999999999991
 30
0.0
 11
2.707000000000002
 21
2.390999999999991
 31
0.0
  0
LINE
  5
622
330
8F2
100
AcDbEntity
  8
Profile ... Hidden Profile
100
AcDbLine
 10
2.707000000000001
 20
1.332999999999991
 30
0.0
 11
2.212000000000001
 21
1.332999999999991
 31
0.0
  0
LINE
  5
623
330
8F2
100
AcDbEntity
  8
PROFILE
100
AcDbLine
 10
2.212000000000001
 20
1.332999999999991
 30
0.0
 11
2.027000000000001
 21
1.332999999999991
 31
0.0
  0
LINE
  5
625
330
8F2
100
AcDbEntity
  8
PROFILE
100
AcDbLine
 10
2.212000000000001
 20
1.332999999999991
 30
0.0
 11
2.212000000000001
 21
1.844999999999992
 31
0.0
  0
LINE
  5
626
330
8F2
100
AcDbEntity
  8
PROFILE
100
AcDbLine
 10
2.212000000000001
 20
1.844999999999992
 30
0.0
 11
2.027000000000001
 21
1.844999999999992
 31
0.0
  0
LINE
  5
627
330
8F2
100
AcDbEntity
  8
PROFILE
100
AcDbLine
 10
2.707000000000001
 20
1.242999999999991
 30
0.0
 11
2.707000000000002
 21
2.480999999999991
 31
0.0
  0
LINE
  5
628
330
8F2
100
AcDbEntity
  8
Plastics
100
AcDbLine
 10
2.027000000000001
 20
2.390999999999991
 30
0.0
 11
2.027000000000001
 21
1.242999999999991
 31
0.0
  0
LINE
  5
629
330
8F2
100
AcDbEntity
  8
Plastics
100
AcDbLine
 10
2.027000000000001
 20
1.242999999999991
 30
0.0
 11
3.300000000000002
 21
1.242999999999991
 31
0.0
  0
LINE
  5
62A
330
8F2
100
AcDbEntity
  8
Plastics
100
AcDbLine
 10
2.027000000000001
 20
2.390999999999991
 30
0.0
 11
3.300000000000001
 21
2.390999999999991
 31
0.0
  0
LINE
  5
62B
330
8F2
100
AcDbEntity
  8
Plastics
100
AcDbLine
 10
3.300000000000001
 20
2.390999999999991
 30
0.0
 11
3.300000000000002
 21
1.242999999999991
 31
0.0
  0
LINE
  5
62D
330
8F2
100
AcDbEntity
  8
Solder Lugs
100
AcDbLine
 10
3.050000000000001
 20
2.311
 30
0.0
 11
3.600000000000002
 21
2.311
 31
0.0
  0
LINE
  5
62E
330
8F2
100
AcDbEntity
  8
Solder Lugs
100
AcDbLine
 10
3.050000000000001
 20
1.323
 30
0.0
 11
3.600000000000003
 21
1.32299999999999
 31
0.0
  0
LINE
  5
62F
330
8F2
100
AcDbEntity
  8
Solder Lugs
100
AcDbLine
 10
3.050000000000001
 20
1.507999999999992
 30
0.0
 11
3.600000000000002
 21
1.507999999999992
 31
0.0
  0
LINE
  5
630
330
8F2
100
AcDbEntity
  8
Solder Lugs
100
AcDbLine
 10
3.050000000000001
 20
2.126000000000001
 30
0.0
 11
3.600000000000005
 21
2.125999999999991
 31
0.0
  0
LINE
  5
631
330
8F2
100
AcDbEntity
  8
Solder Lugs
100
AcDbLine
 10
3.600000000000002
 20
1.507999999999992
 30
0.0
 11
3.600000000000003
 21
1.32299999999999
 31
0.0
  0
LINE
  5
632
330
8F2
100
AcDbEntity
  8
Solder Lugs
100
AcDbLine
 10
3.600000000000002
 20
2.311
 30
0.0
 11
3.600000000000005
 21
2.125999999999991
 31
0.0
  0
LINE
  5
633
330
8F2
100
AcDbEntity
  8
Solder Lugs
100
AcDbLine
 10
3.050000000000001
 20
1.323
 30
0.0
 11
3.050000000000001
 21
1.507999999999992
 31
0.0
  0
LINE
  5
634
330
8F2
100
AcDbEntity
  8
Solder Lugs
100
AcDbLine
 10
3.050000000000001
 20
2.126000000000001
 30
0.0
 11
3.050000000000001
 21
2.311
 31
0.0
  0
LINE
  5
635
330
8F2
100
AcDbEntity
  8
Playfield Cutout
100
AcDbLine
 10
1.433
 20
0.1600000000000001
 30
0.0
 11
0.7950000000000021
 21
0.1600000000000001
 31
0.0
  0
LINE
  5
636
330
8F2
100
AcDbEntity
  8
Playfield Cutout
100
AcDbLine
 10
0.7950000000000021
 20
0.1600000000000001
 30
0.0
 11
0.7950000000000041
 21
4.105999999999987
 31
0.0
  0
LINE
  5
637
330
8F2
100
AcDbEntity
  8
Playfield Cutout
100
AcDbLine
 10
1.433000000000001
 20
4.105999999999987
 30
0.0
 11
1.433
 21
0.1600000000000001
 31
0.0
  0
LINE
  5
638
330
8F2
100
AcDbEntity
  8
Playfield Cutout
100
AcDbLine
 10
1.433000000000001
 20
4.105999999999987
 30
0.0
 11
0.7950000000000041
 21
4.105999999999987
 31
0.0
  0
LINE
  5
63D
330
8F2
100
AcDbEntity
  8
PROFILE
100
AcDbLine
 10
0.75
 20
0.0
 30
0.0
 11
0.8400000000000001
 21
0.0
 31
0.0
  0
LINE
  5
63E
330
8F2
100
AcDbEntity
  8
PROFILE
100
AcDbLine
 10
0.75
 20
1.271999999999991
 30
0.0
 11
0.8400000000000001
 21
1.271999999999991
 31
0.0
  0
LINE
  5
63F
330
8F2
100
AcDbEntity
  8
PROFILE
100
AcDbLine
 10
0.7500000000000011
 20
2.544
 30
0.0
 11
0.8400000000000012
 21
2.544
 31
0.0
  0
LINE
  5
640
330
8F2
100
AcDbEntity
  8
PROFILE
100
AcDbLine
 10
0.8400000000000001
 20
0.0
 30
0.0
 11
0.8400000000000001
 21
0.6619999999999919
 31
0.0
  0
LINE
  5
641
330
8F2
100
AcDbEntity
  8
PROFILE
100
AcDbLine
 10
0.8400000000000001
 20
1.271999999999991
 30
0.0
 11
0.8400000000000001
 21
1.934000000000001
 31
0.0
  0
LINE
  5
642
330
8F2
100
AcDbEntity
  8
PROFILE
100
AcDbLine
 10
0.8400000000000012
 20
2.544
 30
0.0
 11
0.8400000000000021
 21
3.206000000000003
 31
0.0
  0
LINE
  5
643
330
8F2
100
AcDbEntity
  8
PROFILE
100
AcDbLine
 10
0.8400000000000001
 20
0.6619999999999919
 30
0.0
 11
-0.0649999999999968
 21
0.6619999999999919
 31
0.0
  0
LINE
  5
644
330
8F2
100
AcDbEntity
  8
PROFILE
100
AcDbLine
 10
0.8400000000000001
 20
1.934000000000001
 30
0.0
 11
-0.0650000000000039
 21
1.934000000000001
 31
0.0
  0
LINE
  5
645
330
8F2
100
AcDbEntity
  8
PROFILE
100
AcDbLine
 10
0.8400000000000021
 20
3.206000000000003
 30
0.0
 11
-0.0649999999999888
 21
3.206000000000003
 31
0.0
  0
LINE
  5
646
330
8F2
100
AcDbEntity
  8
PROFILE
100
AcDbLine
 10
0.75
 20
0.0
 30
0.0
 11
0.75
 21
0.5719999999999921
 31
0.0
  0
LINE
  5
647
330
8F2
100
AcDbEntity
  8
PROFILE
100
AcDbLine
 10
0.75
 20
1.271999999999991
 30
0.0
 11
0.75
 21
1.844000000000001
 31
0.0
  0
LINE
  5
648
330
8F2
100
AcDbEntity
  8
PROFILE
100
AcDbLine
 10
0.7500000000000011
 20
2.544
 30
0.0
 11
0.7500000000000011
 21
3.116
 31
0.0
  0
LINE
  5
649
330
8F2
100
AcDbEntity
  8
PROFILE
100
AcDbLine
 10
0.75
 20
0.5719999999999921
 30
0.0
 11
-0.0649999999999968
 21
0.5719999999999921
 31
0.0
  0
LINE
  5
64A
330
8F2
100
AcDbEntity
  8
PROFILE
100
AcDbLine
 10
0.75
 20
1.844000000000001
 30
0.0
 11
-0.0650000000000039
 21
1.844000000000001
 31
0.0
  0
LINE
  5
64B
330
8F2
100
AcDbEntity
  8
PROFILE
100
AcDbLine
 10
0.7500000000000011
 20
3.116
 30
0.0
 11
-0.0649999999999959
 21
3.116
 31
0.0
  0
LINE
  5
64C
330
8F2
100
AcDbEntity
  8
PROFILE
100
AcDbLine
 10
-0.0649999999999968
 20
0.5719999999999921
 30
0.0
 11
-0.0649999999999968
 21
0.6619999999999919
 31
0.0
  0
LINE
  5
64D
330
8F2
100
AcDbEntity
  8
PROFILE
100
AcDbLine
 10
-0.0650000000000039
 20
1.844000000000001
 30
0.0
 11
-0.0650000000000039
 21
1.934000000000001
 31
0.0
  0
LINE
  5
64E
330
8F2
100
AcDbEntity
  8
PROFILE
100
AcDbLine
 10
-0.0649999999999959
 20
3.116
 30
0.0
 11
-0.0649999999999888
 21
3.206000000000003
 31
0.0
  0
LINE
  5
64F
330
8F2
100
AcDbEntity
  8
Switch
100
AcDbLine
 10
0.0
 20
1.062000000000001
 30
0.0
 11
0.75
 21
1.062000000000001
 31
0.0
  0
LINE
  5
650
330
8F2
100
AcDbEntity
  8
Switch
100
AcDbLine
 10
0.0
 20
2.334
 30
0.0
 11
0.7500000000000011
 21
2.334
 31
0.0
  0
LINE
  5
651
330
8F2
100
AcDbEntity
  8
Switch
100
AcDbLine
 10
0.0
 20
3.605999999999987
 30
0.0
 11
0.7499999999999991
 21
3.605999999999987
 31
0.0
  0
LINE
  5
652
330
8F2
100
AcDbEntity
  8
PROFILE
100
AcDbLine
 10
0.0
 20
1.161999999999992
 30
0.0
 11
0.75
 21
1.161999999999992
 31
0.0
  0
LINE
  5
653
330
8F2
100
AcDbEntity
  8
PROFILE
100
AcDbLine
 10
0.0
 20
2.434000000000001
 30
0.0
 11
0.75
 21
2.434000000000001
 31
0.0
  0
LINE
  5
654
330
8F2
100
AcDbEntity
  8
PROFILE
100
AcDbLine
 10
0.0
 20
3.706000000000003
 30
0.0
 11
0.75
 21
3.706000000000003
 31
0.0
  0
LINE
  5
655
330
8F2
100
AcDbEntity
  8
PROFILE
100
AcDbLine
 10
0.0
 20
1.161999999999992
 30
0.0
 11
0.0
 21
1.062000000000001
 31
0.0
  0
LINE
  5
656
330
8F2
100
AcDbEntity
  8
PROFILE
100
AcDbLine
 10
0.0
 20
2.434000000000001
 30
0.0
 11
0.0
 21
2.334
 31
0.0
  0
LINE
  5
657
330
8F2
100
AcDbEntity
  8
PROFILE
100
AcDbLine
 10
0.0
 20
3.706000000000003
 30
0.0
 11
0.0
 21
3.605999999999987
 31
0.0
  0
LINE
  5
658
330
8F2
100
AcDbEntity
  8
PROFILE
100
AcDbLine
 10
0.0
 20
1.062000000000001
 30
0.0
 11
0.75
 21
1.062000000000001
 31
0.0
  0
LINE
  5
659
330
8F2
100
AcDbEntity
  8
PROFILE
100
AcDbLine
 10
0.0
 20
2.334
 30
0.0
 11
0.7500000000000011
 21
2.334
 31
0.0
  0
LINE
  5
65A
330
8F2
100
AcDbEntity
  8
PROFILE
100
AcDbLine
 10
0.0
 20
3.605999999999987
 30
0.0
 11
0.7499999999999991
 21
3.605999999999987
 31
0.0
  0
LINE
  5
65B
330
8F2
100
AcDbEntity
  8
PROFILE
100
AcDbLine
 10
0.75
 20
1.062000000000001
 30
0.0
 11
0.75
 21
1.161999999999992
 31
0.0
  0
LINE
  5
65C
330
8F2
100
AcDbEntity
  8
PROFILE
100
AcDbLine
 10
0.7500000000000011
 20
2.334
 30
0.0
 11
0.75
 21
2.434000000000001
 31
0.0
  0
LINE
  5
65D
330
8F2
100
AcDbEntity
  8
PROFILE
100
AcDbLine
 10
0.7499999999999991
 20
3.605999999999987
 30
0.0
 11
0.75
 21
3.706000000000003
 31
0.0
  0
LINE
  5
65E
330
8F2
100
AcDbEntity
  8
Switch
100
AcDbLine
 10
0.0
 20
1.062000000000001
 30
0.0
 11
0.0
 21
0.6619999999999919
 31
0.0
  0
LINE
  5
65F
330
8F2
100
AcDbEntity
  8
Switch
100
AcDbLine
 10
0.0
 20
2.334
 30
0.0
 11
0.0
 21
1.934000000000001
 31
0.0
  0
LINE
  5
660
330
8F2
100
AcDbEntity
  8
Switch
100
AcDbLine
 10
0.0
 20
3.605999999999987
 30
0.0
 11
0.0
 21
3.206000000000003
 31
0.0
  0
LINE
  5
661
330
8F2
100
AcDbEntity
  8
Switch
100
AcDbLine
 10
0.75
 20
1.062000000000001
 30
0.0
 11
0.75
 21
0.6619999999999919
 31
0.0
  0
LINE
  5
662
330
8F2
100
AcDbEntity
  8
Switch
100
AcDbLine
 10
0.7500000000000011
 20
2.334
 30
0.0
 11
0.7499999999999991
 21
1.934000000000001
 31
0.0
  0
LINE
  5
663
330
8F2
100
AcDbEntity
  8
Switch
100
AcDbLine
 10
0.7499999999999991
 20
3.605999999999987
 30
0.0
 11
0.75
 21
3.206000000000003
 31
0.0
  0
LINE
  5
664
330
8F2
100
AcDbEntity
  8
Switch
100
AcDbLine
 10
0.75
 20
0.6619999999999919
 30
0.0
 11
0.0
 21
0.6619999999999919
 31
0.0
  0
LINE
  5
665
330
8F2
100
AcDbEntity
  8
Switch
100
AcDbLine
 10
0.7499999999999991
 20
1.934000000000001
 30
0.0
 11
0.0
 21
1.934000000000001
 31
0.0
  0
LINE
  5
666
330
8F2
100
AcDbEntity
  8
Switch
100
AcDbLine
 10
0.75
 20
3.206000000000003
 30
0.0
 11
0.0
 21
3.206000000000003
 31
0.0
  0
ENDBLK
  5
8F4
330
8F2
100
AcDbEntity
  8
0
100
AcDbBlockEnd
  0
BLOCK
  5
8F6
330
8F5
100
AcDbEntity
  8
0
100
AcDbBlockBegin
  2
LeftSlingshot
 70
     0
 10
0.0
 20
0.0
 30
0.0
  3
LeftSlingshot
  1

  0
LINE
  5
40F
330
8F5
100
AcDbEntity
  8
PROFILE
100
AcDbLine
 10
2.13230729885433
 20
0.2524215336654958
 30
0.0
 11
2.976751358227761
 21
0.6372568628504851
 31
0.0
  0
LINE
  5
411
330
8F5
100
AcDbEntity
  8
Playfield Cutout ... Slingshot
  6
Continuous
100
AcDbLine
 10
-0.0757039744524892
 20
2.964523879271015
 30
0.0
 11
-0.0757039744524892
 21
0.2645238792710156
 31
0.0
  0
LINE
  5
412
330
8F5
100
AcDbEntity
  8
Playfield Cutout
  6
Continuous
100
AcDbLine
 10
1.746990807345731
 20
0.0658332130998662
 30
0.0
 11
2.201971442784003
 21
0.2731798344279852
 31
0.0
  0
LINE
  5
413
330
8F5
100
AcDbEntity
  8
Playfield Cutout ... Slingshot
  6
Continuous
100
AcDbLine
 10
2.463764031056175
 20
-0.3049697095807247
 30
0.0
 11
0.8792766609857825
 21
3.171870500599136
 31
0.0
  0
LINE
  5
414
330
8F5
100
AcDbEntity
  8
PROFILE
100
AcDbLine
 10
2.976751358227761
 20
0.6372568628504851
 30
0.0
 11
1.958679447506696
 21
2.871211782852406
 31
0.0
  0
LINE
  5
415
330
8F5
100
AcDbEntity
  8
Playfield Cutout ... Slingshot
  6
Continuous
100
AcDbLine
 10
0.2041875563658593
 20
-0.1844218432773843
 30
0.0
 11
1.788674926436253
 21
-0.9612620534572542
 31
0.0
  0
LINE
  5
416
330
8F5
100
AcDbEntity
  8
Playfield Cutout
  6
Continuous
100
AcDbLine
 10
1.156944471290281
 20
2.566282237036875
 30
0.0
 11
0.701963835852009
 21
2.358935615708756
 31
0.0
  0
LINE
  5
417
330
8F5
100
AcDbEntity
  8
PROFILE
100
AcDbLine
 10
1.958679447506696
 20
2.871211782852406
 30
0.0
 11
1.114235388133262
 21
2.486376453667415
 31
0.0
  0
LINE
  5
418
330
8F5
100
AcDbEntity
  8
Playfield Cutout
  6
Continuous
100
AcDbLine
 10
0.701963835852009
 20
2.358935615708756
 30
0.0
 11
0.8885757950473163
 21
1.949453043814305
 31
0.0
  0
LINE
  5
419
330
8F5
100
AcDbEntity
  8
PROFILE
100
AcDbLine
 10
0.9805195017686428
 20
1.868272043608945
 30
0.0
 11
1.250484802737855
 21
1.275887256268316
 31
0.0
  0
ARC
  5
41A
330
8F5
100
AcDbEntity
  8
Playfield Cutout
  6
Continuous
100
AcDbCircle
 10
1.22447732159887
 20
1.212384414404305
 30
0.0
 40
0.25
100
AcDbArc
 50
114.5
 51
294.5
  0
ARC
  5
41B
330
8F5
100
AcDbEntity
  8
Playfield Cutout
  6
Continuous
100
AcDbCircle
 10
1.861450211212451
 20
1.502669684263676
 30
0.0
 40
0.25
100
AcDbArc
 50
294.5
 51
114.5
  0
LINE
  5
41C
330
8F5
100
AcDbEntity
  8
Playfield Cutout
  6
Continuous
100
AcDbLine
 10
1.120804010934812
 20
1.439874732123446
 30
0.0
 11
1.75777690054839
 21
1.730160001982805
 31
0.0
  0
LINE
  5
41D
330
8F5
100
AcDbEntity
  8
Playfield Cutout
  6
Continuous
100
AcDbLine
 10
1.965123521876509
 20
1.275179366544535
 30
0.0
 11
1.328150632262931
 21
0.984894096685176
 31
0.0
  0
LINE
  5
41E
330
8F5
100
AcDbEntity
  8
Playfield Cutout
  6
Continuous
100
AcDbLine
 10
1.156944471290281
 20
2.566282237036875
 30
0.0
 11
1.34355643048559
 21
2.156799665142426
 31
0.0
  0
LINE
  5
41F
330
8F5
100
AcDbEntity
  8
PROFILE
100
AcDbLine
 10
1.27430697979857
 20
2.135131403109066
 30
0.0
 11
1.114235388133262
 21
2.486376453667415
 31
0.0
  0
LINE
  5
420
330
8F5
100
AcDbEntity
  8
PROFILE
100
AcDbLine
 10
2.13230729885433
 20
0.2524215336654958
 30
0.0
 11
1.969747547733085
 21
0.6091263518491061
 31
0.0
  0
LINE
  5
421
330
8F5
100
AcDbEntity
  8
Playfield Cutout
  6
Continuous
100
AcDbLine
 10
1.34355643048559
 20
2.156799665142426
 30
0.0
 11
0.8885757950473163
 21
1.949453043814305
 31
0.0
  0
ARC
  5
422
330
8F5
100
AcDbEntity
  8
Playfield Cutout ... Slingshot
  6
Continuous
100
AcDbCircle
 10
0.424296025547509
 20
2.964523879271015
 30
0.0
 40
0.4999999999999999
100
AcDbArc
 50
24.50000000000002
 51
180.0
  0
LINE
  5
423
330
8F5
100
AcDbEntity
  8
Playfield Cutout
  6
Continuous
100
AcDbLine
 10
1.560378848150424
 20
0.4753157849943062
 30
0.0
 11
2.015359483588695
 21
0.6826624063224251
 31
0.0
  0
ARC
  5
424
330
8F5
100
AcDbEntity
  8
Playfield Cutout ... Slingshot
  6
Continuous
100
AcDbCircle
 10
2.008783395617903
 20
-0.5123163309088454
 30
0.0
 40
0.4999999999999999
100
AcDbArc
 50
243.8822765248954
 51
24.5
  0
LINE
  5
425
330
8F5
100
AcDbEntity
  8
Profile ... Hidden Profile
100
AcDbLine
 10
1.374402719594991
 20
2.180747659801256
 30
0.0
 11
1.214331127929682
 21
2.531992710359596
 31
0.0
  0
ARC
  5
426
330
8F5
100
AcDbEntity
  8
Playfield Cutout ... Slingshot
  6
Continuous
100
AcDbCircle
 10
0.424296025547509
 20
0.2645238792710156
 30
0.0
 40
0.4999999999999999
100
AcDbArc
 50
180.0
 51
243.8822765248954
  0
LINE
  5
427
330
8F5
100
AcDbEntity
  8
Playfield Cutout
  6
Continuous
100
AcDbLine
 10
1.560378848150424
 20
0.4753157849943062
 30
0.0
 11
1.746990807345731
 21
0.0658332130998662
 31
0.0
  0
LINE
  5
428
330
8F5
100
AcDbEntity
  8
PROFILE
100
AcDbLine
 10
1.545475438519781
 20
2.258709989420625
 30
0.0
 11
1.27430697979857
 21
2.135131403109066
 31
0.0
  0
LINE
  5
429
330
8F5
100
AcDbEntity
  8
Playfield Cutout
  6
Continuous
100
AcDbLine
 10
2.015359483588695
 20
0.6826624063224251
 30
0.0
 11
2.201971442784003
 21
0.2731798344279852
 31
0.0
  0
LINE
  5
42A
330
8F5
100
AcDbEntity
  8
PROFILE
100
AcDbLine
 10
1.707520603819709
 20
1.751214802839595
 30
0.0
 11
1.500049434059856
 21
1.656664743513966
 31
0.0
  0
LINE
  5
42B
330
8F5
100
AcDbEntity
  8
PROFILE
100
AcDbLine
 10
1.595653320881186
 20
2.148604675644565
 30
0.0
 11
0.9805195017686428
 21
1.868272043608945
 31
0.0
  0
LINE
  5
42C
330
8F5
100
AcDbEntity
  8
PROFILE
100
AcDbLine
 10
1.600819892025323
 20
1.435544154690966
 30
0.0
 11
1.250484802737855
 21
1.275887256268316
 31
0.0
  0
LINE
  5
42D
330
8F5
100
AcDbEntity
  8
PROFILE
100
AcDbLine
 10
1.969747547733085
 20
0.6091263518491061
 30
0.0
 11
2.183588446389073
 21
0.7065792638733157
 31
0.0
  0
LINE
  5
42E
330
8F5
100
AcDbEntity
  8
Profile ... Hidden Profile
100
AcDbLine
 10
2.232403038650749
 20
0.2980377903576859
 30
0.0
 11
2.069843287529504
 21
0.6547426085412962
 31
0.0
  0
CIRCLE
  5
436
330
8F5
100
AcDbEntity
  8
Mount Holes
100
AcDbCircle
 10
1.237329508508039
 20
1.779803854758315
 30
0.0
 40
0.089
  0
CIRCLE
  5
437
330
8F5
100
AcDbEntity
  8
Mount Holes
100
AcDbCircle
 10
1.716375188558607
 20
2.344286127664105
 30
0.0
 40
0.089
  0
CIRCLE
  5
438
330
8F5
100
AcDbEntity
  8
Mount Holes
100
AcDbCircle
 10
2.415133302434369
 20
0.811001386237125
 30
0.0
 40
0.089
  0
LINE
  5
439
330
8F5
100
AcDbEntity
  8
PROFILE
100
AcDbLine
 10
1.595653320881186
 20
2.148604675644565
 30
0.0
 11
1.545475438519781
 21
2.258709989420625
 31
0.0
  0
LINE
  5
43A
330
8F5
100
AcDbEntity
  8
PROFILE
100
AcDbLine
 10
2.183588446389073
 20
0.7065792638733157
 30
0.0
 11
1.707520603819709
 21
1.751214802839595
 31
0.0
  0
LINE
  5
43B
330
8F5
100
AcDbEntity
  8
PROFILE
100
AcDbLine
 10
1.500049434059856
 20
1.656664743513966
 30
0.0
 11
1.600819892025323
 21
1.435544154690966
 31
0.0
  0
LINE
  5
43C
330
8F5
100
AcDbEntity
  8
PROFILE
100
AcDbLine
 10
2.431454525959366
 20
1.300877511050995
 30
0.0
 11
2.199226310071874
 21
1.810455822741856
 31
0.0
  0
LINE
  5
43D
330
8F5
100
AcDbEntity
  8
PROFILE
100
AcDbLine
 10
2.431454525959366
 20
1.300877511050995
 30
0.0
 11
2.632555966823083
 21
1.392524717678015
 31
0.0
  0
LINE
  5
43E
330
8F5
100
AcDbEntity
  8
PROFILE
100
AcDbLine
 10
2.199226310071874
 20
1.810455822741856
 30
0.0
 11
2.400327750935589
 21
1.902103029368885
 31
0.0
  0
LINE
  5
43F
330
8F5
100
AcDbEntity
  8
Profile ... Hidden Profile
100
AcDbLine
 10
1.555203635333136
 20
1.535639894487385
 30
0.0
 11
1.204868546045668
 21
1.375982996064735
 31
0.0
  0
LINE
  5
441
330
8F5
100
AcDbEntity
  8
Leaf Switch
100
AcDbLine
 10
1.754673371440565
 20
0.0803238379631548
 30
0.0
 11
1.592113620319318
 21
0.4370286561467651
 31
0.0
  0
LINE
  5
442
330
8F5
100
AcDbEntity
  8
Leaf Switch
100
AcDbLine
 10
0.8966730523848057
 20
1.963033707406725
 30
0.0
 11
0.7366014607194975
 21
2.314278757965075
 31
0.0
  0
LINE
  5
443
330
8F5
100
AcDbEntity
  8
Leaf Switch
100
AcDbLine
 10
0.7366014607194975
 20
2.314278757965075
 30
0.0
 11
1.114235388133262
 21
2.486376453667415
 31
0.0
  0
LINE
  5
444
330
8F5
100
AcDbEntity
  8
Leaf Switch
100
AcDbLine
 10
0.8966730523848057
 20
1.963033707406725
 30
0.0
 11
1.27430697979857
 21
2.135131403109066
 31
0.0
  0
LINE
  5
445
330
8F5
100
AcDbEntity
  8
Leaf Switch
100
AcDbLine
 10
1.592113620319318
 20
0.4370286561467651
 30
0.0
 11
1.969747547733085
 21
0.6091263518491061
 31
0.0
  0
LINE
  5
446
330
8F5
100
AcDbEntity
  8
Leaf Switch
100
AcDbLine
 10
1.754673371440565
 20
0.0803238379631548
 30
0.0
 11
2.13230729885433
 21
0.2524215336654958
 31
0.0
  0
LINE
  5
448
330
8F5
100
AcDbEntity
  8
Bolts
100
AcDbLine
 10
0.8056769252971518
 20
1.921564383141105
 30
0.0
 11
0.6456053336318428
 21
2.272809433699445
 31
0.0
  0
LINE
  5
449
330
8F5
100
AcDbEntity
  8
Bolts
100
AcDbLine
 10
1.663677244352908
 20
0.0388545136975349
 30
0.0
 11
1.501117493231663
 21
0.3955593318811452
 31
0.0
  0
LINE
  5
44A
330
8F5
100
AcDbEntity
  8
Bolts
100
AcDbLine
 10
0.6456053336318428
 20
2.272809433699445
 30
0.0
 11
0.7366014607194975
 21
2.314278757965075
 31
0.0
  0
LINE
  5
44B
330
8F5
100
AcDbEntity
  8
Bolts
100
AcDbLine
 10
0.8056769252971518
 20
1.921564383141105
 30
0.0
 11
0.8966730523848057
 21
1.963033707406725
 31
0.0
  0
LINE
  5
44C
330
8F5
100
AcDbEntity
  8
Bolts
100
AcDbLine
 10
1.501117493231663
 20
0.3955593318811452
 30
0.0
 11
1.592113620319318
 21
0.4370286561467651
 31
0.0
  0
LINE
  5
44D
330
8F5
100
AcDbEntity
  8
Bolts
100
AcDbLine
 10
1.663677244352908
 20
0.0388545136975349
 30
0.0
 11
1.754673371440565
 21
0.0803238379631548
 31
0.0
  0
LINE
  5
44E
330
8F5
100
AcDbEntity
  8
Bolts
100
AcDbLine
 10
1.8218513903611
 20
0.9505347973137752
 30
0.0
 11
1.471516301073629
 21
0.7908778988911145
 31
0.0
  0
POINT
  5
44F
330
8F5
100
AcDbEntity
  8
Bolts
100
AcDbPoint
 10
1.646683845717364
 20
0.8707063481024448
 30
0.0
  0
POINT
  5
450
330
8F5
100
AcDbEntity
  8
Bolts
100
AcDbPoint
 10
1.642134039362982
 20
0.868632881889166
 30
0.0
  0
POINT
  5
451
330
8F5
100
AcDbEntity
  8
Bolts
100
AcDbPoint
 10
1.642134039362982
 20
0.868632881889166
 30
0.0
  0
LINE
  5
452
330
8F5
100
AcDbEntity
  8
Bolts
100
AcDbLine
 10
1.250484802737855
 20
1.275887256268316
 30
0.0
 11
1.471516301073629
 21
0.7908778988911145
 31
0.0
  0
LINE
  5
453
330
8F5
100
AcDbEntity
  8
Bolts
100
AcDbLine
 10
1.8218513903611
 20
0.9505347973137752
 30
0.0
 11
1.600819892025323
 21
1.435544154690966
 31
0.0
  0
LINE
  5
455
330
8F5
100
AcDbEntity
  8
Kicker
100
AcDbLine
 10
3.277281193225627
 20
2.133614713859446
 30
0.0
 11
1.093374143121919
 21
1.138350931484476
 31
0.0
  0
LINE
  5
456
330
8F5
100
AcDbEntity
  8
Kicker
100
AcDbLine
 10
1.068492548562545
 20
1.192948607737065
 30
0.0
 11
1.093374143121919
 21
1.138350931484476
 31
0.0
  0
LINE
  5
457
330
8F5
100
AcDbEntity
  8
Kicker
100
AcDbLine
 10
3.252399598666252
 20
2.188212390112035
 30
0.0
 11
3.277281193225627
 21
2.133614713859446
 31
0.0
  0
LINE
  5
458
330
8F5
100
AcDbEntity
  8
Kicker
100
AcDbLine
 10
1.068492548562545
 20
1.192948607737065
 30
0.0
 11
3.252399598666252
 21
2.188212390112035
 31
0.0
  0
LINE
  5
45A
330
8F5
100
AcDbEntity
  8
Plastics
100
AcDbLine
 10
1.226096315788412
 20
1.418625484169315
 30
0.0
 11
1.449036827153167
 21
1.520225328620095
 31
0.0
  0
LINE
  5
45B
330
8F5
100
AcDbEntity
  8
Plastics
100
AcDbLine
 10
1.590032529656287
 20
1.210838496522065
 30
0.0
 11
1.367092018291534
 21
1.109238652071285
 31
0.0
  0
LINE
  5
45C
330
8F5
100
AcDbEntity
  8
Plastics
100
AcDbLine
 10
1.449036827153167
 20
1.520225328620095
 30
0.0
 11
1.590032529656287
 21
1.210838496522065
 31
0.0
  0
LINE
  5
45D
330
8F5
100
AcDbEntity
  8
Plastics
100
AcDbLine
 10
1.226096315788412
 20
1.418625484169315
 30
0.0
 11
1.267565640054037
 21
1.327629357081655
 31
0.0
  0
LINE
  5
45E
330
8F5
100
AcDbEntity
  8
Plastics
100
AcDbLine
 10
1.32562269402591
 20
1.200234779158945
 30
0.0
 11
1.367092018291534
 21
1.109238652071285
 31
0.0
  0
LINE
  5
45F
330
8F5
100
AcDbEntity
  8
Plastics
100
AcDbLine
 10
1.051904818856296
 20
1.229347058572136
 30
0.0
 11
1.267565640054037
 21
1.327629357081655
 31
0.0
  0
LINE
  5
460
330
8F5
100
AcDbEntity
  8
Plastics
100
AcDbLine
 10
1.32562269402591
 20
1.200234779158945
 30
0.0
 11
1.109961872828171
 21
1.101952480649416
 31
0.0
  0
LINE
  5
461
330
8F5
100
AcDbEntity
  8
Plastics
100
AcDbLine
 10
1.051904818856296
 20
1.229347058572136
 30
0.0
 11
1.109961872828171
 21
1.101952480649416
 31
0.0
  0
LINE
  5
463
330
8F5
100
AcDbEntity
  8
Profile ... Hidden Profile
100
AcDbLine
 10
3.145655804477605
 20
2.678050896563116
 30
0.0
 11
2.235694533601062
 21
2.263357653906874
 31
0.0
  0
LINE
  5
464
330
8F5
100
AcDbEntity
  8
Profile ... Hidden Profile
100
AcDbLine
 10
3.456675736469786
 20
1.995579943405705
 30
0.0
 11
2.546714465593243
 21
1.580886700749465
 31
0.0
  0
LINE
  5
465
330
8F5
100
AcDbEntity
  8
PROFILE
100
AcDbLine
 10
3.456675736469786
 20
1.995579943405705
 30
0.0
 11
3.145655804477605
 21
2.678050896563116
 31
0.0
  0
LINE
  5
466
330
8F5
100
AcDbEntity
  8
Plastics
100
AcDbLine
 10
3.596253121192597
 20
3.136157934458454
 30
0.0
 11
2.140315087790127
 21
2.472648746208476
 31
0.0
  0
LINE
  5
467
330
8F5
100
AcDbEntity
  8
Plastics
100
AcDbLine
 10
4.098031944806645
 20
2.035104796697846
 30
0.0
 11
2.642093911404177
 21
1.371595608447855
 31
0.0
  0
LINE
  5
468
330
8F5
100
AcDbEntity
  8
Plastics
100
AcDbLine
 10
4.098031944806645
 20
2.035104796697846
 30
0.0
 11
3.596253121192597
 21
3.136157934458454
 31
0.0
  0
LINE
  5
469
330
8F5
100
AcDbEntity
  8
PROFILE
100
AcDbLine
 10
3.041982493813546
 20
2.905541214282245
 30
0.0
 11
2.132021222937003
 21
2.490847971626005
 31
0.0
  0
LINE
  5
46A
330
8F5
100
AcDbEntity
  8
PROFILE
100
AcDbLine
 10
3.560349047133847
 20
1.768089625686565
 30
0.0
 11
2.650387776257301
 21
1.353396383030326
 31
0.0
  0
LINE
  5
46B
330
8F5
100
AcDbEntity
  8
PROFILE
100
AcDbLine
 10
3.041982493813546
 20
2.905541214282245
 30
0.0
 11
3.560349047133847
 21
1.768089625686565
 31
0.0
  0
LINE
  5
46D
330
8F5
100
AcDbEntity
  8
Plastics ... Solder Lugs
100
AcDbLine
 10
4.024858859508574
 20
3.232579514421756
 30
0.0
 11
3.387885969894991
 21
2.942294244562385
 31
0.0
  0
LINE
  5
46E
330
8F5
100
AcDbEntity
  8
Plastics ... Solder Lugs
100
AcDbLine
 10
4.451992899444494
 20
2.295319405418915
 30
0.0
 11
3.815020009830925
 21
2.005034135559546
 31
0.0
  0
LINE
  5
46F
330
8F5
100
AcDbEntity
  8
Plastics ... Solder Lugs
100
AcDbLine
 10
4.105724041826535
 20
3.055137066600825
 30
0.0
 11
3.468751152212959
 21
2.764851796741455
 31
0.0
  0
LINE
  5
470
330
8F5
100
AcDbEntity
  8
Plastics ... Solder Lugs
100
AcDbLine
 10
4.371127717126535
 20
2.472761853239835
 30
0.0
 11
3.734154827512955
 21
2.182476583380476
 31
0.0
  0
LINE
  5
471
330
8F5
100
AcDbEntity
  8
Plastics ... Solder Lugs
100
AcDbLine
 10
3.468751152212959
 20
2.764851796741455
 30
0.0
 11
3.387885969894991
 21
2.942294244562385
 31
0.0
  0
LINE
  5
472
330
8F5
100
AcDbEntity
  8
Plastics ... Solder Lugs
100
AcDbLine
 10
3.468751152212959
 20
2.764851796741455
 30
0.0
 11
3.468751152212959
 21
2.764851796741455
 31
0.0
  0
LINE
  5
473
330
8F5
100
AcDbEntity
  8
Plastics ... Solder Lugs
100
AcDbLine
 10
3.815020009830925
 20
2.005034135559546
 30
0.0
 11
3.734154827512955
 21
2.182476583380476
 31
0.0
  0
LINE
  5
474
330
8F5
100
AcDbEntity
  8
Plastics ... Solder Lugs
100
AcDbLine
 10
4.105724041826535
 20
3.055137066600825
 30
0.0
 11
4.024858859508574
 21
3.232579514421756
 31
0.0
  0
LINE
  5
475
330
8F5
100
AcDbEntity
  8
Plastics ... Solder Lugs
100
AcDbLine
 10
4.451992899444494
 20
2.295319405418915
 30
0.0
 11
4.371127717126535
 21
2.472761853239835
 31
0.0
  0
LINE
  5
476
330
8F5
100
AcDbEntity
  8
Profile ... Hidden Profile
100
AcDbLine
 10
2.30023201113917
 20
1.856486772676694
 30
0.0
 11
1.858583707710275
 21
2.825595526160216
 31
0.0
  0
LINE
  5
477
330
8F5
100
AcDbEntity
  8
Profile ... Hidden Profile
100
AcDbLine
 10
2.876655618431342
 20
0.5916406061583057
 30
0.0
 11
2.532460227026664
 21
1.346908460985835
 31
0.0
  0
LINE
  5
478
330
8F5
100
AcDbEntity
  8
PROFILE
100
AcDbLine
 10
2.532460227026664
 20
1.346908460985835
 30
0.0
 11
2.30023201113917
 21
1.856486772676694
 31
0.0
  0
LINE
  5
479
330
8F5
100
AcDbEntity
  8
Bolts
100
AcDbLine
 10
0.7366014607194975
 20
2.314278757965075
 30
0.0
 11
0.8966730523848057
 21
1.963033707406725
 31
0.0
  0
LINE
  5
47A
330
8F5
100
AcDbEntity
  8
Bolts
100
AcDbLine
 10
1.250484802737855
 20
1.275887256268316
 30
0.0
 11
1.600819892025323
 21
1.435544154690966
 31
0.0
  0
LINE
  5
47B
330
8F5
100
AcDbEntity
  8
Bolts
100
AcDbLine
 10
1.754673371440565
 20
0.0803238379631548
 30
0.0
 11
1.592113620319318
 21
0.4370286561467651
 31
0.0
  0
LINE
  5
47C
330
8F5
100
AcDbEntity
  8
Leaf Switch
100
AcDbLine
 10
1.114235388133262
 20
2.486376453667415
 30
0.0
 11
1.27430697979857
 21
2.135131403109066
 31
0.0
  0
LINE
  5
47D
330
8F5
100
AcDbEntity
  8
Leaf Switch
100
AcDbLine
 10
1.969747547733085
 20
0.6091263518491061
 30
0.0
 11
2.13230729885433
 21
0.2524215336654958
 31
0.0
  0
LINE
  5
47E
330
8F5
100
AcDbEntity
  8
Plastics
100
AcDbLine
 10
2.140315087790127
 20
2.472648746208476
 30
0.0
 11
2.642093911404177
 21
1.371595608447855
 31
0.0
  0
CIRCLE
  5
47F
330
8F5
100
AcDbEntity
  8
Playfield Cutout ... Slingshot
100
AcDbCircle
 10
0.424296025547509
 20
2.964523879271015
 30
0.0
 40
0.0825
  0
CIRCLE
  5
480
330
8F5
100
AcDbEntity
  8
Playfield Cutout ... Slingshot
100
AcDbCircle
 10
2.008783395617903
 20
-0.5123163309088454
 30
0.0
 40
0.0825
  0
CIRCLE
  5
481
330
8F5
100
AcDbEntity
  8
Playfield Cutout ... Slingshot
100
AcDbCircle
 10
0.423977980628945
 20
0.2645730232155845
 30
0.0
 40
0.0825
  0
ENDBLK
  5
8F7
330
8F5
100
AcDbEntity
  8
0
100
AcDbBlockEnd
  0
BLOCK
  5
8F9
330
8F8
100
AcDbEntity
  8
0
100
AcDbBlockBegin
  2
PopBumper1
 70
     0
 10
0.0
 20
0.0
 30
0.0
  3
PopBumper1
  1

  0
LINE
  5
695
330
8F8
100
AcDbEntity
  8
PROFILE
  6
Continuous
100
AcDbLine
 10
0.0625
 20
-0.0625
 30
0.0
 11
2.9375
 21
-0.0625
 31
0.0
  0
LINE
  5
696
330
8F8
100
AcDbEntity
  8
PROFILE
  6
Continuous
100
AcDbLine
 10
3.0
 20
0.0
 30
0.0
 11
3.0
 21
2.625
 31
0.0
  0
LINE
  5
697
330
8F8
100
AcDbEntity
  8
PROFILE
  6
Continuous
100
AcDbLine
 10
2.9375
 20
2.6875
 30
0.0
 11
0.0625
 21
2.6875
 31
0.0
  0
LINE
  5
698
330
8F8
100
AcDbEntity
  8
PROFILE
  6
Continuous
100
AcDbLine
 10
0.0
 20
2.625
 30
0.0
 11
0.0
 21
1.75
 31
0.0
  0
LINE
  5
699
330
8F8
100
AcDbEntity
  8
PROFILE
  6
Continuous
100
AcDbLine
 10
-1.199999999999999
 20
1.625
 30
0.0
 11
-1.199999999999999
 21
1.0
 31
0.0
  0
CIRCLE
  5
69A
330
8F8
100
AcDbEntity
  8
Playfield Cutout
  6
Continuous
100
AcDbCircle
 10
1.5
 20
1.3125
 30
0.0
 40
1.25
  0
LINE
  5
69B
330
8F8
100
AcDbEntity
  8
PROFILE
  6
Continuous
100
AcDbLine
 10
-0.0625
 20
1.6875
 30
0.0
 11
-1.137499999999999
 21
1.6875
 31
0.0
  0
LINE
  5
69C
330
8F8
100
AcDbEntity
  8
PROFILE
  6
Continuous
100
AcDbLine
 10
-1.137499999999999
 20
0.9375
 30
0.0
 11
-0.0625
 21
0.9375
 31
0.0
  0
CIRCLE
  5
69D
330
8F8
100
AcDbEntity
  8
Mount Holes
  6
Continuous
100
AcDbCircle
 10
0.3500000000000014
 20
2.462499999999999
 30
0.0
 40
0.0625
  0
CIRCLE
  5
69E
330
8F8
100
AcDbEntity
  8
Mount Holes
  6
Continuous
100
AcDbCircle
 10
2.65
 20
2.462499999999999
 30
0.0
 40
0.0625
  0
CIRCLE
  5
69F
330
8F8
100
AcDbEntity
  8
Mount Holes
  6
Continuous
100
AcDbCircle
 10
2.65
 20
0.1625000000000014
 30
0.0
 40
0.0625
  0
CIRCLE
  5
6A0
330
8F8
100
AcDbEntity
  8
Mount Holes
  6
Continuous
100
AcDbCircle
 10
0.3500000000000014
 20
0.1625000000000014
 30
0.0
 40
0.0625
  0
LINE
  5
6A1
330
8F8
100
AcDbEntity
  8
PROFILE
  6
Continuous
100
AcDbLine
 10
0.0
 20
0.875
 30
0.0
 11
0.0
 21
0.0
 31
0.0
  0
ARC
  5
6A2
330
8F8
100
AcDbEntity
  8
PROFILE
  6
Continuous
100
AcDbCircle
 10
-1.137499999999999
 20
1.625
 30
0.0
 40
0.0625
100
AcDbArc
 50
90.0
 51
180.0
  0
ARC
  5
6A3
330
8F8
100
AcDbEntity
  8
PROFILE
  6
Continuous
100
AcDbCircle
 10
-1.137499999999999
 20
1.0
 30
0.0
 40
0.0625
100
AcDbArc
 50
180.0
 51
270.0
  0
ARC
  5
6A4
330
8F8
100
AcDbEntity
  8
PROFILE
  6
Continuous
100
AcDbCircle
 10
-0.0625
 20
0.875
 30
0.0
 40
0.0625
100
AcDbArc
 50
0.0
 51
90.0
  0
ARC
  5
6A5
330
8F8
100
AcDbEntity
  8
PROFILE
  6
Continuous
100
AcDbCircle
 10
0.0625
 20
0.0
 30
0.0
 40
0.0625
100
AcDbArc
 50
180.0
 51
270.0
  0
ARC
  5
6A6
330
8F8
100
AcDbEntity
  8
PROFILE
  6
Continuous
100
AcDbCircle
 10
2.9375
 20
0.0
 30
0.0
 40
0.0625
100
AcDbArc
 50
270.0
 51
0.0
  0
ARC
  5
6A7
330
8F8
100
AcDbEntity
  8
PROFILE
  6
Continuous
100
AcDbCircle
 10
2.9375
 20
2.625
 30
0.0
 40
0.0625
100
AcDbArc
 50
0.0
 51
90.0
  0
ARC
  5
6A8
330
8F8
100
AcDbEntity
  8
PROFILE
  6
Continuous
100
AcDbCircle
 10
0.0625
 20
2.625
 30
0.0
 40
0.0625
100
AcDbArc
 50
90.0
 51
180.0
  0
ARC
  5
6A9
330
8F8
100
AcDbEntity
  8
PROFILE
  6
Continuous
100
AcDbCircle
 10
-0.0625
 20
1.75
 30
0.0
 40
0.0625
100
AcDbArc
 50
270.0
 51
0.0
  0
ENDBLK
  5
8FA
330
8F8
100
AcDbEntity
  8
0
100
AcDbBlockEnd
  0
BLOCK
  5
8FC
330
8FB
100
AcDbEntity
  8
0
100
AcDbBlockBegin
  2
PopBumper2
 70
     0
 10
0.0
 20
0.0
 30
0.0
  3
PopBumper2
  1

  0
LINE
  5
67F
330
8FB
100
AcDbEntity
  8
PROFILE
  6
Continuous
100
AcDbLine
 10
0.0
 20
0.0
 30
0.0
 11
2.875
 21
0.0
 31
0.0
  0
LINE
  5
680
330
8FB
100
AcDbEntity
  8
PROFILE
  6
Continuous
100
AcDbLine
 10
2.9375
 20
0.0625
 30
0.0
 11
2.9375
 21
2.6875
 31
0.0
  0
LINE
  5
681
330
8FB
100
AcDbEntity
  8
PROFILE
  6
Continuous
100
AcDbLine
 10
2.875
 20
2.75
 30
0.0
 11
0.0
 21
2.75
 31
0.0
  0
LINE
  5
682
330
8FB
100
AcDbEntity
  8
PROFILE
  6
Continuous
100
AcDbLine
 10
-0.0625
 20
2.6875
 30
0.0
 11
-0.0625
 21
1.8125
 31
0.0
  0
LINE
  5
683
330
8FB
100
AcDbEntity
  8
PROFILE
  6
Continuous
100
AcDbLine
 10
-1.262499999999999
 20
1.6875
 30
0.0
 11
-1.262499999999999
 21
1.0625
 31
0.0
  0
CIRCLE
  5
684
330
8FB
100
AcDbEntity
  8
Playfield Cutout
  6
Continuous
100
AcDbCircle
 10
1.4375
 20
1.375
 30
0.0
 40
1.25
  0
LINE
  5
685
330
8FB
100
AcDbEntity
  8
PROFILE
  6
Continuous
100
AcDbLine
 10
-0.125
 20
1.75
 30
0.0
 11
-1.199999999999999
 21
1.75
 31
0.0
  0
LINE
  5
686
330
8FB
100
AcDbEntity
  8
PROFILE
  6
Continuous
100
AcDbLine
 10
-1.199999999999999
 20
1.0
 30
0.0
 11
-0.125
 21
1.0
 31
0.0
  0
CIRCLE
  5
687
330
8FB
100
AcDbEntity
  8
Mount Holes
  6
Continuous
100
AcDbCircle
 10
0.2875000000000014
 20
2.524999999999999
 30
0.0
 40
0.0625
  0
CIRCLE
  5
688
330
8FB
100
AcDbEntity
  8
Mount Holes
  6
Continuous
100
AcDbCircle
 10
2.5875
 20
2.524999999999999
 30
0.0
 40
0.0625
  0
CIRCLE
  5
689
330
8FB
100
AcDbEntity
  8
Mount Holes
  6
Continuous
100
AcDbCircle
 10
2.5875
 20
0.2250000000000014
 30
0.0
 40
0.0625
  0
CIRCLE
  5
68A
330
8FB
100
AcDbEntity
  8
Mount Holes
  6
Continuous
100
AcDbCircle
 10
0.2875000000000014
 20
0.2250000000000014
 30
0.0
 40
0.0625
  0
LINE
  5
68B
330
8FB
100
AcDbEntity
  8
PROFILE
  6
Continuous
100
AcDbLine
 10
-0.0625
 20
0.9375
 30
0.0
 11
-0.0625
 21
0.0625
 31
0.0
  0
ARC
  5
68C
330
8FB
100
AcDbEntity
  8
PROFILE
  6
Continuous
100
AcDbCircle
 10
-1.199999999999999
 20
1.6875
 30
0.0
 40
0.0625
100
AcDbArc
 50
90.0
 51
180.0
  0
ARC
  5
68D
330
8FB
100
AcDbEntity
  8
PROFILE
  6
Continuous
100
AcDbCircle
 10
-1.199999999999999
 20
1.0625
 30
0.0
 40
0.0625
100
AcDbArc
 50
180.0
 51
270.0
  0
ARC
  5
68E
330
8FB
100
AcDbEntity
  8
PROFILE
  6
Continuous
100
AcDbCircle
 10
-0.125
 20
0.9375
 30
0.0
 40
0.0625
100
AcDbArc
 50
0.0
 51
90.0
  0
ARC
  5
68F
330
8FB
100
AcDbEntity
  8
PROFILE
  6
Continuous
100
AcDbCircle
 10
0.0
 20
0.0625
 30
0.0
 40
0.0625
100
AcDbArc
 50
180.0
 51
270.0
  0
ARC
  5
690
330
8FB
100
AcDbEntity
  8
PROFILE
  6
Continuous
100
AcDbCircle
 10
2.875
 20
0.0625
 30
0.0
 40
0.0625
100
AcDbArc
 50
270.0
 51
0.0
  0
ARC
  5
691
330
8FB
100
AcDbEntity
  8
PROFILE
  6
Continuous
100
AcDbCircle
 10
2.875
 20
2.6875
 30
0.0
 40
0.0625
100
AcDbArc
 50
0.0
 51
90.0
  0
ARC
  5
692
330
8FB
100
AcDbEntity
  8
PROFILE
  6
Continuous
100
AcDbCircle
 10
0.0
 20
2.6875
 30
0.0
 40
0.0625
100
AcDbArc
 50
90.0
 51
180.0
  0
ARC
  5
693
330
8FB
100
AcDbEntity
  8
PROFILE
  6
Continuous
100
AcDbCircle
 10
-0.125
 20
1.8125
 30
0.0
 40
0.0625
100
AcDbArc
 50
270.0
 51
0.0
  0
ENDBLK
  5
8FD
330
8FB
100
AcDbEntity
  8
0
100
AcDbBlockEnd
  0
BLOCK
  5
8FF
330
8FE
100
AcDbEntity
  8
0
100
AcDbBlockBegin
  2
PopBumper3
 70
     0
 10
0.0
 20
0.0
 30
0.0
  3
PopBumper3
  1

  0
LINE
  5
6AB
330
8FE
100
AcDbEntity
  8
PROFILE
  6
Continuous
100
AcDbLine
 10
0.0625
 20
-0.0625
 30
0.0
 11
2.937499999999998
 21
-0.0625
 31
0.0
  0
LINE
  5
6AC
330
8FE
100
AcDbEntity
  8
PROFILE
  6
Continuous
100
AcDbLine
 10
2.999999999999998
 20
0.0
 30
0.0
 11
2.999999999999998
 21
2.625
 31
0.0
  0
LINE
  5
6AD
330
8FE
100
AcDbEntity
  8
PROFILE
  6
Continuous
100
AcDbLine
 10
2.937499999999998
 20
2.6875
 30
0.0
 11
0.0625
 21
2.6875
 31
0.0
  0
LINE
  5
6AE
330
8FE
100
AcDbEntity
  8
PROFILE
  6
Continuous
100
AcDbLine
 10
0.0
 20
2.625
 30
0.0
 11
0.0
 21
1.75
 31
0.0
  0
LINE
  5
6AF
330
8FE
100
AcDbEntity
  8
PROFILE
  6
Continuous
100
AcDbLine
 10
-1.200000000000001
 20
1.625
 30
0.0
 11
-1.200000000000001
 21
1.0
 31
0.0
  0
CIRCLE
  5
6B0
330
8FE
100
AcDbEntity
  8
Playfield Cutout
  6
Continuous
100
AcDbCircle
 10
1.5
 20
1.3125
 30
0.0
 40
1.25
  0
LINE
  5
6B1
330
8FE
100
AcDbEntity
  8
PROFILE
  6
Continuous
100
AcDbLine
 10
-0.0625
 20
1.6875
 30
0.0
 11
-1.137500000000001
 21
1.6875
 31
0.0
  0
LINE
  5
6B2
330
8FE
100
AcDbEntity
  8
PROFILE
  6
Continuous
100
AcDbLine
 10
-1.137500000000001
 20
0.9375
 30
0.0
 11
-0.0625
 21
0.9375
 31
0.0
  0
CIRCLE
  5
6B3
330
8FE
100
AcDbEntity
  8
Mount Holes
  6
Continuous
100
AcDbCircle
 10
0.3499999999999996
 20
2.462500000000006
 30
0.0
 40
0.0625
  0
CIRCLE
  5
6B4
330
8FE
100
AcDbEntity
  8
Mount Holes
  6
Continuous
100
AcDbCircle
 10
2.65
 20
2.462500000000006
 30
0.0
 40
0.0625
  0
CIRCLE
  5
6B5
330
8FE
100
AcDbEntity
  8
Mount Holes
  6
Continuous
100
AcDbCircle
 10
2.65
 20
0.1625000000000156
 30
0.0
 40
0.0625
  0
CIRCLE
  5
6B6
330
8FE
100
AcDbEntity
  8
Mount Holes
  6
Continuous
100
AcDbCircle
 10
0.3499999999999996
 20
0.1625000000000156
 30
0.0
 40
0.0625
  0
LINE
  5
6B7
330
8FE
100
AcDbEntity
  8
PROFILE
  6
Continuous
100
AcDbLine
 10
0.0
 20
0.875
 30
0.0
 11
0.0
 21
0.0
 31
0.0
  0
ARC
  5
6B8
330
8FE
100
AcDbEntity
  8
PROFILE
  6
Continuous
100
AcDbCircle
 10
-1.137500000000001
 20
1.625
 30
0.0
 40
0.0625
100
AcDbArc
 50
90.0
 51
180.0
  0
ARC
  5
6B9
330
8FE
100
AcDbEntity
  8
PROFILE
  6
Continuous
100
AcDbCircle
 10
-1.137500000000001
 20
1.0
 30
0.0
 40
0.0625
100
AcDbArc
 50
180.0
 51
270.0
  0
ARC
  5
6BA
330
8FE
100
AcDbEntity
  8
PROFILE
  6
Continuous
100
AcDbCircle
 10
-0.0625
 20
0.875
 30
0.0
 40
0.0625
100
AcDbArc
 50
0.0
 51
90.0
  0
ARC
  5
6BB
330
8FE
100
AcDbEntity
  8
PROFILE
  6
Continuous
100
AcDbCircle
 10
0.0625
 20
0.0
 30
0.0
 40
0.0625
100
AcDbArc
 50
180.0
 51
270.0
  0
ARC
  5
6BC
330
8FE
100
AcDbEntity
  8
PROFILE
  6
Continuous
100
AcDbCircle
 10
2.937499999999998
 20
0.0
 30
0.0
 40
0.0625
100
AcDbArc
 50
270.0
 51
0.0
  0
ARC
  5
6BD
330
8FE
100
AcDbEntity
  8
PROFILE
  6
Continuous
100
AcDbCircle
 10
2.937499999999998
 20
2.625
 30
0.0
 40
0.0625
100
AcDbArc
 50
0.0
 51
90.0
  0
ARC
  5
6BE
330
8FE
100
AcDbEntity
  8
PROFILE
  6
Continuous
100
AcDbCircle
 10
0.0625
 20
2.625
 30
0.0
 40
0.0625
100
AcDbArc
 50
90.0
 51
180.0
  0
ARC
  5
6BF
330
8FE
100
AcDbEntity
  8
PROFILE
  6
Continuous
100
AcDbCircle
 10
-0.0625
 20
1.75
 30
0.0
 40
0.0625
100
AcDbArc
 50
270.0
 51
0.0
  0
ENDBLK
  5
900
330
8FE
100
AcDbEntity
  8
0
100
AcDbBlockEnd
  0
BLOCK
  5
902
330
901
100
AcDbEntity
  8
0
100
AcDbBlockBegin
  2
RightSlingshot
 70
     0
 10
0.0
 20
0.0
 30
0.0
  3
RightSlingshot
  1

  0
LINE
  5
5A0
330
901
100
AcDbEntity
  8
PROFILE
100
AcDbLine
 10
-1.92811974248848
 20
0.4368433769428801
 30
0.0
 11
-2.77256380186191
 21
0.8216787061278801
 31
0.0
  0
LINE
  5
59F
330
901
100
AcDbEntity
  8
Playfield Cutout ... Slingshot
  6
Continuous
100
AcDbLine
 10
0.2798915308183396
 20
3.148945722548399
 30
0.0
 11
0.2798915308183396
 21
0.4489457225483999
 31
0.0
  0
LINE
  5
59A
330
901
100
AcDbEntity
  8
Playfield Cutout
  6
Continuous
100
AcDbLine
 10
-1.54280325097988
 20
0.2502550563772505
 30
0.0
 11
-1.99778388641815
 21
0.4576016777053695
 31
0.0
  0
LINE
  5
599
330
901
100
AcDbEntity
  8
Playfield Cutout ... Slingshot
  6
Continuous
100
AcDbLine
 10
-2.25957647469032
 20
-0.1205478663033404
 30
0.0
 11
-0.6750891046199285
 21
3.356292343876529
 31
0.0
  0
LINE
  5
598
330
901
100
AcDbEntity
  8
PROFILE
100
AcDbLine
 10
-2.77256380186191
 20
0.8216787061278801
 30
0.0
 11
-1.754491891140839
 21
3.05563362612979
 31
0.0
  0
LINE
  5
597
330
901
100
AcDbEntity
  8
Playfield Cutout ... Slingshot
  6
Continuous
100
AcDbLine
 10
0.0
 20
0.0
 30
0.0
 11
-1.5844873700704
 21
-0.7768402101798699
 31
0.0
  0
LINE
  5
59E
330
901
100
AcDbEntity
  8
Playfield Cutout
  6
Continuous
100
AcDbLine
 10
-0.9527569149244286
 20
2.75070408031425
 30
0.0
 11
-0.4977762794861498
 21
2.54335745898614
 31
0.0
  0
LINE
  5
59D
330
901
100
AcDbEntity
  8
PROFILE
100
AcDbLine
 10
-1.754491891140839
 20
3.05563362612979
 30
0.0
 11
-0.910047831767411
 21
2.670798296944799
 31
0.0
  0
LINE
  5
59C
330
901
100
AcDbEntity
  8
Playfield Cutout
  6
Continuous
100
AcDbLine
 10
-0.4977762794861498
 20
2.54335745898614
 30
0.0
 11
-0.6843882386814606
 21
2.133874887091689
 31
0.0
  0
LINE
  5
59B
330
901
100
AcDbEntity
  8
PROFILE
100
AcDbLine
 10
-0.7763319454027879
 20
2.052693886886329
 30
0.0
 11
-1.046297246371999
 21
1.460309099545709
 31
0.0
  0
ARC
  5
5AC
330
901
100
AcDbEntity
  8
Playfield Cutout
  6
Continuous
100
AcDbCircle
 10
-1.02028976523302
 20
1.396806257681689
 30
0.0
 40
0.25
100
AcDbArc
 50
245.5
 51
65.49999999999999
1001
QCAD
1000
reversed:1
  0
ARC
  5
5AB
330
901
100
AcDbEntity
  8
Playfield Cutout
  6
Continuous
100
AcDbCircle
 10
-1.657262654846599
 20
1.68709152754106
 30
0.0
 40
0.25
100
AcDbArc
 50
65.49999999999999
 51
245.5
1001
QCAD
1000
reversed:1
  0
LINE
  5
5AA
330
901
100
AcDbEntity
  8
Playfield Cutout
  6
Continuous
100
AcDbLine
 10
-0.9166164545689597
 20
1.62429657540082
 30
0.0
 11
-1.553589344182539
 21
1.914581845260189
 31
0.0
  0
LINE
  5
5A9
330
901
100
AcDbEntity
  8
Playfield Cutout
  6
Continuous
100
AcDbLine
 10
-1.760935965510649
 20
1.459601209821919
 30
0.0
 11
-1.12396307589707
 21
1.16931593996258
 31
0.0
  0
LINE
  5
5B0
330
901
100
AcDbEntity
  8
Playfield Cutout
  6
Continuous
100
AcDbLine
 10
-0.9527569149244286
 20
2.75070408031425
 30
0.0
 11
-1.139368874119729
 21
2.34122150841981
 31
0.0
  0
LINE
  5
5AF
330
901
100
AcDbEntity
  8
PROFILE
100
AcDbLine
 10
-1.070119423432718
 20
2.31955324638645
 30
0.0
 11
-0.910047831767411
 21
2.670798296944799
 31
0.0
  0
LINE
  5
5AE
330
901
100
AcDbEntity
  8
PROFILE
100
AcDbLine
 10
-1.92811974248848
 20
0.4368433769428801
 30
0.0
 11
-1.76555999136723
 21
0.7935481951264904
 31
0.0
  0
LINE
  5
5AD
330
901
100
AcDbEntity
  8
Playfield Cutout
  6
Continuous
100
AcDbLine
 10
-1.139368874119729
 20
2.34122150841981
 30
0.0
 11
-0.6843882386814606
 21
2.133874887091689
 31
0.0
  0
ARC
  5
5A4
330
901
100
AcDbEntity
  8
Playfield Cutout ... Slingshot
  6
Continuous
100
AcDbCircle
 10
-0.2201084691816497
 20
3.148945722548399
 30
0.0
 40
0.4999999999999999
100
AcDbArc
 50
0.0
 51
155.5
1001
QCAD
1000
reversed:1
  0
LINE
  5
5A3
330
901
100
AcDbEntity
  8
Playfield Cutout
  6
Continuous
100
AcDbLine
 10
-1.356191291784569
 20
0.6597376282716905
 30
0.0
 11
-1.811171927222839
 21
0.8670842495998095
 31
0.0
  0
ARC
  5
5A2
330
901
100
AcDbEntity
  8
Playfield Cutout ... Slingshot
  6
Continuous
100
AcDbCircle
 10
-1.80459583925205
 20
-0.3278944876314611
 30
0.0
 40
0.4999999999999999
100
AcDbArc
 50
155.5
 51
296.1177234751046
1001
QCAD
1000
reversed:1
  0
LINE
  5
5A1
330
901
100
AcDbEntity
  8
Profile ... Hidden Profile
100
AcDbLine
 10
-1.170215163229141
 20
2.36516950307864
 30
0.0
 11
-1.01014357156383
 21
2.71641455363698
 31
0.0
  0
ARC
  5
5A8
330
901
100
AcDbEntity
  8
Playfield Cutout ... Slingshot
  6
Continuous
100
AcDbCircle
 10
-0.2201084691816497
 20
0.4489457225483999
 30
0.0
 40
0.4999999999999999
100
AcDbArc
 50
296.1177234751046
 51
0.0
1001
QCAD
1000
reversed:1
  0
LINE
  5
5A7
330
901
100
AcDbEntity
  8
Playfield Cutout
  6
Continuous
100
AcDbLine
 10
-1.356191291784569
 20
0.6597376282716905
 30
0.0
 11
-1.54280325097988
 21
0.2502550563772505
 31
0.0
  0
LINE
  5
5A6
330
901
100
AcDbEntity
  8
PROFILE
100
AcDbLine
 10
-1.341287882153928
 20
2.443131832698009
 30
0.0
 11
-1.070119423432718
 21
2.31955324638645
 31
0.0
  0
LINE
  5
5A5
330
901
100
AcDbEntity
  8
Playfield Cutout
  6
Continuous
100
AcDbLine
 10
-1.811171927222839
 20
0.8670842495998095
 30
0.0
 11
-1.99778388641815
 21
0.4576016777053695
 31
0.0
  0
LINE
  5
5BE
330
901
100
AcDbEntity
  8
PROFILE
100
AcDbLine
 10
-1.50333304745385
 20
1.93563664611697
 30
0.0
 11
-1.295861877693998
 21
1.84108658679135
 31
0.0
  0
LINE
  5
5BC
330
901
100
AcDbEntity
  8
PROFILE
100
AcDbLine
 10
-1.391465764515331
 20
2.33302651892194
 30
0.0
 11
-0.7763319454027879
 21
2.052693886886329
 31
0.0
  0
LINE
  5
5BA
330
901
100
AcDbEntity
  8
PROFILE
100
AcDbLine
 10
-1.396632335659469
 20
1.61996599796835
 30
0.0
 11
-1.046297246371999
 21
1.460309099545709
 31
0.0
  0
LINE
  5
5B9
330
901
100
AcDbEntity
  8
PROFILE
100
AcDbLine
 10
-1.76555999136723
 20
0.7935481951264904
 30
0.0
 11
-1.97940089002322
 21
0.8910011071507
 31
0.0
  0
LINE
  5
559
330
901
100
AcDbEntity
  8
Profile ... Hidden Profile
100
AcDbLine
 10
-2.028215482284889
 20
0.4824596336350702
 30
0.0
 11
-1.865655731163649
 21
0.8391644518186698
 31
0.0
  0
CIRCLE
  5
5B8
330
901
100
AcDbEntity
  8
Mount Holes
100
AcDbCircle
 10
-1.033141952142181
 20
1.96422569803569
 30
0.0
 40
0.089
  0
CIRCLE
  5
5B7
330
901
100
AcDbEntity
  8
Mount Holes
100
AcDbCircle
 10
-1.512187632192749
 20
2.52870797094149
 30
0.0
 40
0.089
  0
CIRCLE
  5
5B6
330
901
100
AcDbEntity
  8
Mount Holes
100
AcDbCircle
 10
-2.210945746068509
 20
0.99542322951452
 30
0.0
 40
0.089
  0
LINE
  5
5B5
330
901
100
AcDbEntity
  8
PROFILE
100
AcDbLine
 10
-1.391465764515331
 20
2.33302651892194
 30
0.0
 11
-1.341287882153928
 21
2.443131832698009
 31
0.0
  0
LINE
  5
55E
330
901
100
AcDbEntity
  8
PROFILE
100
AcDbLine
 10
-1.97940089002322
 20
0.8910011071507
 30
0.0
 11
-1.50333304745385
 21
1.93563664611697
 31
0.0
  0
LINE
  5
55D
330
901
100
AcDbEntity
  8
PROFILE
100
AcDbLine
 10
-1.295861877693998
 20
1.84108658679135
 30
0.0
 11
-1.396632335659469
 21
1.61996599796835
 31
0.0
  0
LINE
  5
55C
330
901
100
AcDbEntity
  8
PROFILE
100
AcDbLine
 10
-2.22726696959351
 20
1.485299354328379
 30
0.0
 11
-1.995038753706019
 21
1.99487766601924
 31
0.0
  0
LINE
  5
55B
330
901
100
AcDbEntity
  8
PROFILE
100
AcDbLine
 10
-2.22726696959351
 20
1.485299354328379
 30
0.0
 11
-2.42836841045723
 21
1.576946560955399
 31
0.0
  0
LINE
  5
561
330
901
100
AcDbEntity
  8
PROFILE
100
AcDbLine
 10
-1.995038753706019
 20
1.99487766601924
 30
0.0
 11
-2.196140194569729
 21
2.086524872646269
 31
0.0
  0
LINE
  5
560
330
901
100
AcDbEntity
  8
Profile ... Hidden Profile
100
AcDbLine
 10
-1.35101607896728
 20
1.72006173776477
 30
0.0
 11
-1.000680989679811
 21
1.560404839342119
 31
0.0
  0
LINE
  5
55F
330
901
100
AcDbEntity
  8
Leaf Switch
100
AcDbLine
 10
-1.55048581507471
 20
0.2647456812405391
 30
0.0
 11
-1.387926063953469
 21
0.6214504994241494
 31
0.0
  0
LINE
  5
5C1
330
901
100
AcDbEntity
  8
Leaf Switch
100
AcDbLine
 10
-0.6924854960189499
 20
2.147455550684109
 30
0.0
 11
-0.5324139043536391
 21
2.49870060124246
 31
0.0
  0
LINE
  5
5BF
330
901
100
AcDbEntity
  8
Leaf Switch
100
AcDbLine
 10
-0.5324139043536391
 20
2.49870060124246
 30
0.0
 11
-0.910047831767411
 21
2.670798296944799
 31
0.0
  0
LINE
  5
5BD
330
901
100
AcDbEntity
  8
Leaf Switch
100
AcDbLine
 10
-0.6924854960189499
 20
2.147455550684109
 30
0.0
 11
-1.070119423432718
 21
2.31955324638645
 31
0.0
  0
LINE
  5
5BB
330
901
100
AcDbEntity
  8
Leaf Switch
100
AcDbLine
 10
-1.387926063953469
 20
0.6214504994241494
 30
0.0
 11
-1.76555999136723
 21
0.7935481951264904
 31
0.0
  0
LINE
  5
55A
330
901
100
AcDbEntity
  8
Leaf Switch
100
AcDbLine
 10
-1.55048581507471
 20
0.2647456812405391
 30
0.0
 11
-1.92811974248848
 21
0.4368433769428801
 31
0.0
  0
LINE
  5
558
330
901
100
AcDbEntity
  8
Bolts
100
AcDbLine
 10
-0.6014893689313006
 20
2.105986226418489
 30
0.0
 11
-0.4414177772659897
 21
2.457231276976829
 31
0.0
  0
LINE
  5
5C3
330
901
100
AcDbEntity
  8
Bolts
100
AcDbLine
 10
-1.459489687987048
 20
0.2232763569749192
 30
0.0
 11
-1.296929936865808
 21
0.5799811751585189
 31
0.0
  0
LINE
  5
56B
330
901
100
AcDbEntity
  8
Bolts
100
AcDbLine
 10
-0.4414177772659897
 20
2.457231276976829
 30
0.0
 11
-0.5324139043536391
 21
2.49870060124246
 31
0.0
  0
LINE
  5
56A
330
901
100
AcDbEntity
  8
Bolts
100
AcDbLine
 10
-0.6014893689313006
 20
2.105986226418489
 30
0.0
 11
-0.6924854960189499
 21
2.147455550684109
 31
0.0
  0
LINE
  5
569
330
901
100
AcDbEntity
  8
Bolts
100
AcDbLine
 10
-1.296929936865808
 20
0.5799811751585189
 30
0.0
 11
-1.387926063953469
 21
0.6214504994241494
 31
0.0
  0
LINE
  5
568
330
901
100
AcDbEntity
  8
Bolts
100
AcDbLine
 10
-1.459489687987048
 20
0.2232763569749192
 30
0.0
 11
-1.55048581507471
 21
0.2647456812405391
 31
0.0
  0
LINE
  5
56F
330
901
100
AcDbEntity
  8
Bolts
100
AcDbLine
 10
-1.61766383399525
 20
1.134956640591129
 30
0.0
 11
-1.267328744707779
 21
0.9752997421685095
 31
0.0
  0
POINT
  5
56E
330
901
100
AcDbEntity
  8
Bolts
100
AcDbPoint
 10
-1.44249628935151
 20
1.05512819137982
 30
0.0
  0
POINT
  5
56D
330
901
100
AcDbEntity
  8
Bolts
100
AcDbPoint
 10
-1.43794648299713
 20
1.05305472516652
 30
0.0
  0
POINT
  5
56C
330
901
100
AcDbEntity
  8
Bolts
100
AcDbPoint
 10
-1.43794648299713
 20
1.05305472516652
 30
0.0
  0
LINE
  5
564
330
901
100
AcDbEntity
  8
Bolts
100
AcDbLine
 10
-1.046297246371999
 20
1.460309099545709
 30
0.0
 11
-1.267328744707779
 21
0.9752997421685095
 31
0.0
  0
LINE
  5
563
330
901
100
AcDbEntity
  8
Bolts
100
AcDbLine
 10
-1.61766383399525
 20
1.134956640591129
 30
0.0
 11
-1.396632335659469
 21
1.61996599796835
 31
0.0
  0
LINE
  5
562
330
901
100
AcDbEntity
  8
Kicker
100
AcDbLine
 10
-3.07309363685977
 20
2.31803655713683
 30
0.0
 11
-0.8891865867560682
 21
1.322772774761869
 31
0.0
  0
LINE
  5
567
330
901
100
AcDbEntity
  8
Kicker
100
AcDbLine
 10
-0.8643049921966899
 20
1.37737045101445
 30
0.0
 11
-0.8891865867560682
 21
1.322772774761869
 31
0.0
  0
LINE
  5
566
330
901
100
AcDbEntity
  8
Kicker
100
AcDbLine
 10
-3.048212042300399
 20
2.372634233389419
 30
0.0
 11
-3.07309363685977
 21
2.31803655713683
 31
0.0
  0
LINE
  5
565
330
901
100
AcDbEntity
  8
Kicker
100
AcDbLine
 10
-0.8643049921966899
 20
1.37737045101445
 30
0.0
 11
-3.048212042300399
 21
2.372634233389419
 31
0.0
  0
LINE
  5
57B
330
901
100
AcDbEntity
  8
Plastics
100
AcDbLine
 10
-1.021908759422558
 20
1.60304732744669
 30
0.0
 11
-1.244849270787309
 21
1.704647171897479
 31
0.0
  0
LINE
  5
57A
330
901
100
AcDbEntity
  8
Plastics
100
AcDbLine
 10
-1.385844973290428
 20
1.39526033979946
 30
0.0
 11
-1.162904461925681
 21
1.293660495348689
 31
0.0
  0
LINE
  5
579
330
901
100
AcDbEntity
  8
Plastics
100
AcDbLine
 10
-1.244849270787309
 20
1.704647171897479
 30
0.0
 11
-1.385844973290428
 21
1.39526033979946
 31
0.0
  0
LINE
  5
578
330
901
100
AcDbEntity
  8
Plastics
100
AcDbLine
 10
-1.021908759422558
 20
1.60304732744669
 30
0.0
 11
-1.063378083688178
 21
1.512051200359039
 31
0.0
  0
LINE
  5
57F
330
901
100
AcDbEntity
  8
Plastics
100
AcDbLine
 10
-1.12143513766005
 20
1.38465662243634
 30
0.0
 11
-1.162904461925681
 21
1.293660495348689
 31
0.0
  0
LINE
  5
57E
330
901
100
AcDbEntity
  8
Plastics
100
AcDbLine
 10
-0.8477172624904412
 20
1.41376890184951
 30
0.0
 11
-1.063378083688178
 21
1.512051200359039
 31
0.0
  0
LINE
  5
57D
330
901
100
AcDbEntity
  8
Plastics
100
AcDbLine
 10
-1.12143513766005
 20
1.38465662243634
 30
0.0
 11
-0.9057743164623098
 21
1.286374323926809
 31
0.0
  0
LINE
  5
57C
330
901
100
AcDbEntity
  8
Plastics
100
AcDbLine
 10
-0.8477172624904412
 20
1.41376890184951
 30
0.0
 11
-0.9057743164623098
 21
1.286374323926809
 31
0.0
  0
LINE
  5
572
330
901
100
AcDbEntity
  8
Profile ... Hidden Profile
100
AcDbLine
 10
-2.94146824811175
 20
2.8624727398405
 30
0.0
 11
-2.03150697723521
 21
2.44777949718425
 31
0.0
  0
LINE
  5
571
330
901
100
AcDbEntity
  8
Profile ... Hidden Profile
100
AcDbLine
 10
-3.25248818010393
 20
2.18000178668308
 30
0.0
 11
-2.34252690922739
 21
1.765308544026849
 31
0.0
  0
LINE
  5
570
330
901
100
AcDbEntity
  8
PROFILE
100
AcDbLine
 10
-3.25248818010393
 20
2.18000178668308
 30
0.0
 11
-2.94146824811175
 21
2.8624727398405
 31
0.0
  0
LINE
  5
577
330
901
100
AcDbEntity
  8
Plastics
100
AcDbLine
 10
-3.392065564826739
 20
3.320579777735839
 30
0.0
 11
-1.936127531424269
 21
2.65707058948586
 31
0.0
  0
LINE
  5
576
330
901
100
AcDbEntity
  8
Plastics
100
AcDbLine
 10
-3.89384438844079
 20
2.21952663997522
 30
0.0
 11
-2.43790635503832
 21
1.556017451725239
 31
0.0
  0
LINE
  5
575
330
901
100
AcDbEntity
  8
Plastics
100
AcDbLine
 10
-3.89384438844079
 20
2.21952663997522
 30
0.0
 11
-3.392065564826739
 21
3.320579777735839
 31
0.0
  0
LINE
  5
574
330
901
100
AcDbEntity
  8
PROFILE
100
AcDbLine
 10
-2.83779493744769
 20
3.089963057559629
 30
0.0
 11
-1.92783366657115
 21
2.675269814903389
 31
0.0
  0
LINE
  5
58A
330
901
100
AcDbEntity
  8
PROFILE
100
AcDbLine
 10
-3.35616149076799
 20
1.95251146896395
 30
0.0
 11
-2.44620021989145
 21
1.53781822630771
 31
0.0
  0
LINE
  5
589
330
901
100
AcDbEntity
  8
PROFILE
100
AcDbLine
 10
-2.83779493744769
 20
3.089963057559629
 30
0.0
 11
-3.35616149076799
 21
1.95251146896395
 31
0.0
  0
LINE
  5
588
330
901
100
AcDbEntity
  8
Plastics ... Solder Lugs
100
AcDbLine
 10
-3.82067130314271
 20
3.41700135769914
 30
0.0
 11
-3.18369841352914
 21
3.126716087839769
 31
0.0
  0
LINE
  5
58E
330
901
100
AcDbEntity
  8
Plastics ... Solder Lugs
100
AcDbLine
 10
-4.247805343078639
 20
2.4797412486963
 30
0.0
 11
-3.61083245346507
 21
2.18945597883693
 31
0.0
  0
LINE
  5
58D
330
901
100
AcDbEntity
  8
Plastics ... Solder Lugs
100
AcDbLine
 10
-3.90153648546068
 20
3.239558909878209
 30
0.0
 11
-3.2645635958471
 21
2.94927364001884
 31
0.0
  0
LINE
  5
58C
330
901
100
AcDbEntity
  8
Plastics ... Solder Lugs
100
AcDbLine
 10
-4.16694016076068
 20
2.657183696517219
 30
0.0
 11
-3.5299672711471
 21
2.36689842665786
 31
0.0
  0
LINE
  5
58B
330
901
100
AcDbEntity
  8
Plastics ... Solder Lugs
100
AcDbLine
 10
-3.2645635958471
 20
2.94927364001884
 30
0.0
 11
-3.18369841352914
 21
3.126716087839769
 31
0.0
  0
LINE
  5
583
330
901
100
AcDbEntity
  8
Plastics ... Solder Lugs
100
AcDbLine
 10
-3.2645635958471
 20
2.94927364001884
 30
0.0
 11
-3.2645635958471
 21
2.94927364001884
 31
0.0
  0
LINE
  5
582
330
901
100
AcDbEntity
  8
Plastics ... Solder Lugs
100
AcDbLine
 10
-3.61083245346507
 20
2.18945597883693
 30
0.0
 11
-3.5299672711471
 21
2.366898426657849
 31
0.0
  0
LINE
  5
581
330
901
100
AcDbEntity
  8
Plastics ... Solder Lugs
100
AcDbLine
 10
-3.90153648546068
 20
3.239558909878209
 30
0.0
 11
-3.82067130314271
 21
3.41700135769914
 31
0.0
  0
LINE
  5
580
330
901
100
AcDbEntity
  8
Plastics ... Solder Lugs
100
AcDbLine
 10
-4.247805343078639
 20
2.4797412486963
 30
0.0
 11
-4.16694016076068
 21
2.657183696517219
 31
0.0
  0
LINE
  5
587
330
901
100
AcDbEntity
  8
Profile ... Hidden Profile
100
AcDbLine
 10
-2.09604445477331
 20
2.040908615954079
 30
0.0
 11
-1.65439615134442
 21
3.0100173694376
 31
0.0
  0
LINE
  5
586
330
901
100
AcDbEntity
  8
Profile ... Hidden Profile
100
AcDbLine
 10
-2.672468062065489
 20
0.77606244943569
 30
0.0
 11
-2.328272670660809
 21
1.531330304263209
 31
0.0
  0
LINE
  5
585
330
901
100
AcDbEntity
  8
PROFILE
100
AcDbLine
 10
-2.328272670660809
 20
1.531330304263209
 30
0.0
 11
-2.09604445477331
 21
2.040908615954079
 31
0.0
  0
LINE
  5
584
330
901
100
AcDbEntity
  8
Bolts
100
AcDbLine
 10
-0.5324139043536391
 20
2.49870060124246
 30
0.0
 11
-0.6924854960189499
 21
2.147455550684109
 31
0.0
  0
LINE
  5
592
330
901
100
AcDbEntity
  8
Bolts
100
AcDbLine
 10
-1.046297246371999
 20
1.460309099545709
 30
0.0
 11
-1.396632335659469
 21
1.61996599796835
 31
0.0
  0
LINE
  5
591
330
901
100
AcDbEntity
  8
Bolts
100
AcDbLine
 10
-1.55048581507471
 20
0.2647456812405391
 30
0.0
 11
-1.387926063953469
 21
0.6214504994241494
 31
0.0
  0
LINE
  5
590
330
901
100
AcDbEntity
  8
Leaf Switch
100
AcDbLine
 10
-0.910047831767411
 20
2.670798296944799
 30
0.0
 11
-1.070119423432718
 21
2.31955324638645
 31
0.0
  0
LINE
  5
58F
330
901
100
AcDbEntity
  8
Leaf Switch
100
AcDbLine
 10
-1.76555999136723
 20
0.7935481951264904
 30
0.0
 11
-1.92811974248848
 21
0.4368433769428801
 31
0.0
  0
LINE
  5
596
330
901
100
AcDbEntity
  8
Plastics
100
AcDbLine
 10
-1.936127531424269
 20
2.65707058948586
 30
0.0
 11
-2.43790635503832
 21
1.556017451725239
 31
0.0
  0
CIRCLE
  5
595
330
901
100
AcDbEntity
  8
Playfield Cutout ... Slingshot
100
AcDbCircle
 10
-0.2201084691816497
 20
3.148945722548399
 30
0.0
 40
0.0825
  0
CIRCLE
  5
594
330
901
100
AcDbEntity
  8
Playfield Cutout ... Slingshot
100
AcDbCircle
 10
-1.80459583925205
 20
-0.3278944876314611
 30
0.0
 40
0.0825
  0
CIRCLE
  5
593
330
901
100
AcDbEntity
  8
Playfield Cutout ... Slingshot
100
AcDbCircle
 10
-0.2197904242630884
 20
0.4489948664929688
 30
0.0
 40
0.0825
  0
ENDBLK
  5
903
330
901
100
AcDbEntity
  8
0
100
AcDbBlockEnd
  0
ENDSEC
  0
SECTION
  2
ENTITIES
  0
LINE
  5
7C
330
81A
100
AcDbEntity
  8
Playfield
  6
Continuous
100
AcDbLine
 10
0.0
 20
0.0
 30
0.0
 11
22.0
 21
0.0
 31
0.0
  0
LINE
  5
7D
330
81A
100
AcDbEntity
  8
Playfield
  6
Continuous
100
AcDbLine
 10
24.0
 20
4.169999999999996
 30
0.0
 11
24.0
 21
49.45
 31
0.0
  0
LINE
  5
7E
330
81A
100
AcDbEntity
  8
Playfield
  6
Continuous
100
AcDbLine
 10
24.0
 20
49.45
 30
0.0
 11
0.0
 21
49.45
 31
0.0
  0
LINE
  5
7F
330
81A
100
AcDbEntity
  8
Playfield
  6
Continuous
100
AcDbLine
 10
0.0
 20
49.45
 30
0.0
 11
0.0
 21
0.0
 31
0.0
  0
LINE
  5
80
330
81A
100
AcDbEntity
  8
GUIDELINES
  6
Continuous
100
AcDbLine
 10
12.0
 20
49.45
 30
0.0
 11
12.0
 21
2.750000000000007
 31
0.0
  0
LINE
  5
81
330
81A
100
AcDbEntity
  8
GUIDELINES
  6
Continuous
100
AcDbLine
 10
8.749999999999998
 20
49.45
 30
0.0
 11
8.749999999999998
 21
2.750000000000007
 31
0.0
  0
LINE
  5
82
330
81A
100
AcDbEntity
  8
GUIDELINES
  6
Continuous
100
AcDbLine
 10
15.25
 20
49.45
 30
0.0
 11
15.25
 21
0.0
 31
0.0
  0
LINE
  5
83
330
81A
100
AcDbEntity
  8
GUIDELINES
  6
Continuous
100
AcDbLine
 10
0.0
 20
7.149999999999999
 30
0.0
 11
24.0
 21
7.149999999999999
 31
0.0
  0
CIRCLE
  5
84
330
81A
100
AcDbEntity
  8
FLIPPERS
  6
Continuous
100
AcDbCircle
 10
8.749999999999998
 20
7.150000000000006
 30
0.0
 40
0.25
  0
CIRCLE
  5
85
330
81A
100
AcDbEntity
  8
FLIPPERS
  6
Continuous
100
AcDbCircle
 10
15.25
 20
7.150000000000006
 30
0.0
 40
0.25
  0
LINE
  5
86
330
81A
100
AcDbEntity
  8
Playfield
  6
Continuous
100
AcDbLine
 10
24.0
 20
4.17
 30
0.0
 11
22.0
 21
4.17
 31
0.0
  0
LINE
  5
87
330
81A
100
AcDbEntity
  8
Playfield
  6
Continuous
100
AcDbLine
 10
22.0
 20
4.169999999999996
 30
0.0
 11
22.0
 21
0.0
 31
0.0
  0
LINE
  5
88
330
81A
100
AcDbEntity
  8
PLUNGER_TROUGH
  6
Continuous
100
AcDbLine
 10
22.81
 20
12.17
 30
0.0
 11
22.81
 21
4.169999999999996
 31
0.0
  0
LINE
  5
89
330
81A
100
AcDbEntity
  8
SPARE_PARTS
  6
Continuous
100
AcDbLine
 10
38.64456692913386
 20
13.11023622047244
 30
0.0
 11
38.64456692913386
 21
14.81023622047244
 31
0.0
  0
LINE
  5
8A
330
81A
100
AcDbEntity
  8
SPARE_PARTS
  6
Continuous
100
AcDbLine
 10
38.46456692913386
 20
14.81023622047244
 30
0.0
 11
38.46456692913386
 21
13.11023622047244
 31
0.0
  0
ARC
  5
8B
330
81A
100
AcDbEntity
  8
SPARE_PARTS
  6
Continuous
100
AcDbCircle
 10
38.55456692913386
 20
14.81023622047244
 30
0.0
 40
0.09
100
AcDbArc
 50
0.0
 51
180.0
  0
ARC
  5
8C
330
81A
100
AcDbEntity
  8
SPARE_PARTS
  6
Continuous
100
AcDbCircle
 10
38.55456692913386
 20
13.11023622047244
 30
0.0
 40
0.09
100
AcDbArc
 50
180.0
 51
0.0
  0
LINE
  5
91
330
81A
100
AcDbEntity
  8
PLUNGER_TROUGH
  6
Continuous
100
AcDbLine
 10
22.81
 20
12.17
 30
0.0
 11
22.4975
 21
4.17
 31
0.0
  0
LINE
  5
92
330
81A
100
AcDbEntity
  8
PLUNGER_TROUGH
  6
Continuous
100
AcDbLine
 10
22.81
 20
12.17
 30
0.0
 11
23.1225
 21
4.17
 31
0.0
  0
LINE
  5
93
330
81A
100
AcDbEntity
  8
GUIDELINES
  6
Continuous
100
AcDbLine
 10
1.12
 20
49.45
 30
0.0
 11
1.12
 21
0.0
 31
0.0
  0
LINE
  5
94
330
81A
100
AcDbEntity
  8
GUIDELINES
  6
Continuous
100
AcDbLine
 10
2.77
 20
49.45
 30
0.0
 11
2.77
 21
0.0
 31
0.0
  0
LINE
  5
95
330
81A
100
AcDbEntity
  8
GUIDELINES
  6
Continuous
100
AcDbLine
 10
22.0
 20
13.19
 30
0.0
 11
0.0
 21
13.19
 31
0.0
  0
ARC
  5
96
330
81A
100
AcDbEntity
  8
LANE_SLOTS
  6
Continuous
100
AcDbCircle
 10
4.109735281663604
 20
13.17021225004645
 30
0.0
 40
0.09
100
AcDbArc
 50
0.0
 51
180.0
  0
LINE
  5
97
330
81A
100
AcDbEntity
  8
LANE_SLOTS
  6
Continuous
100
AcDbLine
 10
4.199735281663607
 20
11.47021225004645
 30
0.0
 11
4.199735281663607
 21
13.17021225004645
 31
0.0
  0
ARC
  5
98
330
81A
100
AcDbEntity
  8
LANE_SLOTS
  6
Continuous
100
AcDbCircle
 10
4.109735281663604
 20
11.47021225004645
 30
0.0
 40
0.09
100
AcDbArc
 50
180.0
 51
0.0
  0
LINE
  5
99
330
81A
100
AcDbEntity
  8
LANE_SLOTS
  6
Continuous
100
AcDbLine
 10
4.019735281663607
 20
13.17021225004645
 30
0.0
 11
4.019735281663607
 21
11.47021225004645
 31
0.0
  0
ARC
  5
9A
330
81A
100
AcDbEntity
  8
LANE_SLOTS
  6
Continuous
100
AcDbCircle
 10
5.469735281663604
 20
13.17021225004645
 30
0.0
 40
0.09
100
AcDbArc
 50
0.0
 51
180.0
  0
LINE
  5
9B
330
81A
100
AcDbEntity
  8
LANE_SLOTS
  6
Continuous
100
AcDbLine
 10
5.559735281663607
 20
11.47021225004645
 30
0.0
 11
5.559735281663607
 21
13.17021225004645
 31
0.0
  0
LINE
  5
430
330
81A
100
AcDbEntity
  8
Center Locations
100
AcDbLine
 10
8.74835410041721
 20
11.8230371799669
 30
0.0
 11
8.6745387032244
 21
11.98501028618293
 31
0.0
  0
LINE
  5
5C2
330
81A
100
AcDbEntity
  8
Center Locations
100
AcDbLine
 10
15.25164589958279
 20
11.8230371799669
 30
0.0
 11
15.3254612967756
 21
11.9850102861829
 31
0.0
  0
ARC
  5
9C
330
81A
100
AcDbEntity
  8
LANE_SLOTS
  6
Continuous
100
AcDbCircle
 10
5.469735281663604
 20
11.47021225004645
 30
0.0
 40
0.09
100
AcDbArc
 50
180.0
 51
0.0
  0
LINE
  5
431
330
81A
100
AcDbEntity
  8
Center Locations
100
AcDbLine
 10
8.049595986541448
 20
13.35632192139388
 30
0.0
 11
7.975780589348634
 21
13.51829502760991
 31
0.0
  0
LINE
  5
5C0
330
81A
100
AcDbEntity
  8
Center Locations
100
AcDbLine
 10
15.95040401345855
 20
13.35632192139387
 30
0.0
 11
16.02421941065137
 21
13.5182950276099
 31
0.0
  0
LINE
  5
9D
330
81A
100
AcDbEntity
  8
LANE_SLOTS
  6
Continuous
100
AcDbLine
 10
5.379735281663607
 20
13.17021225004645
 30
0.0
 11
5.379735281663607
 21
11.47021225004645
 31
0.0
  0
LINE
  5
432
330
81A
100
AcDbEntity
  8
Center Locations
100
AcDbLine
 10
7.496734909298068
 20
12.95381275470411
 30
0.0
 11
7.57055030649088
 21
12.79183964848808
 31
0.0
  0
LINE
  5
5B4
330
81A
100
AcDbEntity
  8
Center Locations
100
AcDbLine
 10
16.50326509070193
 20
12.9538127547041
 30
0.0
 11
16.42944969350912
 21
12.79183964848808
 31
0.0
  0
LINE
  5
9E
330
81A
100
AcDbEntity
  8
GUIDELINES
  6
Continuous
100
AcDbLine
 10
1.945
 20
49.45
 30
0.0
 11
1.945
 21
0.0
 31
0.0
  0
LINE
  5
433
330
81A
100
AcDbEntity
  8
Center Locations
100
AcDbLine
 10
8.630459848712793
 20
11.86711603447851
 30
0.0
 11
8.792432954928818
 21
11.94093143167132
 31
0.0
  0
LINE
  5
5B3
330
81A
100
AcDbEntity
  8
Center Locations
100
AcDbLine
 10
15.36954015128721
 20
11.8671160344785
 30
0.0
 11
15.20756704507118
 21
11.9409314316713
 31
0.0
  0
LINE
  5
434
330
81A
100
AcDbEntity
  8
Center Locations
100
AcDbLine
 10
8.093674841053055
 20
13.47421617309829
 30
0.0
 11
7.931701734837031
 21
13.40040077590548
 31
0.0
  0
LINE
  5
5B2
330
81A
100
AcDbEntity
  8
Center Locations
100
AcDbLine
 10
15.90632515894695
 20
13.47421617309829
 30
0.0
 11
16.06829826516297
 21
13.40040077590548
 31
0.0
  0
LINE
  5
435
330
81A
100
AcDbEntity
  8
Center Locations
100
AcDbLine
 10
7.614629161002487
 20
12.9097339001925
 30
0.0
 11
7.452656054786461
 21
12.83591850299969
 31
0.0
  0
LINE
  5
5B1
330
81A
100
AcDbEntity
  8
Center Locations
100
AcDbLine
 10
16.38537083899751
 20
12.9097339001925
 30
0.0
 11
16.54734394521354
 21
12.8359185029997
 31
0.0
  0
MTEXT
  5
B3
330
81A
100
AcDbEntity
  8
SPARE_PARTS
100
AcDbMText
 10
38.57090266670768
 20
12.57907416876846
 30
0.0
 40
0.1968503937007874
 41
0.0
 46
0.0
 71
     1
 72
     1
  1
Lane slot\p\p
  7
textstyle11
 73
     1
 44
1.0
  0
LINE
  5
462
330
81A
100
AcDbEntity
  8
Reference
100
AcDbLine
 10
9.501022975147219
 20
13.38588028310063
 30
0.0
 11
8.687517598983588
 21
13.01514452416595
 31
0.0
  0
LINE
  5
573
330
81A
100
AcDbEntity
  8
Reference
100
AcDbLine
 10
14.49897702485278
 20
13.38588028310063
 30
0.0
 11
15.31248240101641
 21
13.01514452416595
 31
0.0
  0
LINE
  5
D3
330
81A
100
AcDbEntity
  8
LANE_GUIDES
  6
Continuous
100
AcDbLine
 10
4.789735281663606
 20
9.863066806920619
 30
0.0
 11
7.958023159074613
 21
7.69256122552008
 31
0.0
  0
LINE
  5
D4
330
81A
100
AcDbEntity
  8
LANE_GUIDES
  6
Continuous
100
AcDbLine
 10
16.04197684092539
 20
7.692561225520082
 30
0.0
 11
19.21026471833639
 21
9.863066806920619
 31
0.0
  0
POINT
  5
D6
330
81A
100
AcDbEntity
  8
LANE_GUIDES
100
AcDbPoint
 10
7.958023159074613
 20
7.69256122552008
 30
0.0
  0
POINT
  5
D7
330
81A
100
AcDbEntity
  8
LANE_GUIDES
100
AcDbPoint
 10
16.04197684092539
 20
7.692561225520082
 30
0.0
  0
LINE
  5
D9
330
81A
100
AcDbEntity
  8
LANE_GUIDES
  6
Continuous
100
AcDbLine
 10
4.789735281663605
 20
13.79021225004645
 30
0.0
 11
4.789735281663605
 21
9.863066806920619
 31
0.0
  0
LINE
  5
DA
330
81A
100
AcDbEntity
  8
LANE_GUIDES
  6
Continuous
100
AcDbLine
 10
19.21026471833639
 20
13.79021225004645
 30
0.0
 11
19.21026471833639
 21
9.863066806920619
 31
0.0
  0
LINE
  5
DB
330
81A
100
AcDbEntity
  8
Playfield ... WOOD_SIDE
  6
Continuous
100
AcDbLine
 10
0.5
 20
48.95
 30
0.0
 11
0.5
 21
4.169999999999996
 31
0.0
  0
LINE
  5
DC
330
81A
100
AcDbEntity
  8
Playfield ... WOOD_SIDE
  6
Continuous
100
AcDbLine
 10
23.5
 20
48.95
 30
0.0
 11
23.5
 21
4.169999999999996
 31
0.0
  0
LINE
  5
DD
330
81A
100
AcDbEntity
  8
Playfield ... WOOD_SIDE
  6
Continuous
100
AcDbLine
 10
23.5
 20
48.95
 30
0.0
 11
0.5000000000000018
 21
48.95
 31
0.0
  0
LINE
  5
DE
330
81A
100
AcDbEntity
  8
Playfield ... WOOD_SIDE
  6
Continuous
100
AcDbLine
 10
0.5
 20
4.169999999999996
 30
0.0
 11
0.0
 21
4.169999999999996
 31
0.0
  0
ARC
  5
DF
330
81A
100
AcDbEntity
  8
LANE_SLOTS
  6
Continuous
100
AcDbCircle
 10
18.53026471833639
 20
13.17021225004645
 30
0.0
 40
0.09
100
AcDbArc
 50
0.0
 51
180.0
  0
LINE
  5
E0
330
81A
100
AcDbEntity
  8
LANE_SLOTS
  6
Continuous
100
AcDbLine
 10
18.62026471833639
 20
11.47021225004645
 30
0.0
 11
18.62026471833639
 21
13.17021225004645
 31
0.0
  0
LINE
  5
E1
330
81A
100
AcDbEntity
  8
LANE_SLOTS
  6
Continuous
100
AcDbLine
 10
18.44026471833639
 20
13.17021225004645
 30
0.0
 11
18.44026471833639
 21
11.47021225004645
 31
0.0
  0
ARC
  5
E2
330
81A
100
AcDbEntity
  8
LANE_SLOTS
  6
Continuous
100
AcDbCircle
 10
19.89026471833639
 20
13.17021225004645
 30
0.0
 40
0.09
100
AcDbArc
 50
0.0
 51
180.0
  0
LINE
  5
E3
330
81A
100
AcDbEntity
  8
LANE_SLOTS
  6
Continuous
100
AcDbLine
 10
19.98026471833639
 20
11.47021225004645
 30
0.0
 11
19.98026471833639
 21
13.17021225004645
 31
0.0
  0
LINE
  5
E4
330
81A
100
AcDbEntity
  8
LANE_SLOTS
  6
Continuous
100
AcDbLine
 10
19.80026471833639
 20
13.17021225004645
 30
0.0
 11
19.80026471833639
 21
11.47021225004645
 31
0.0
  0
ARC
  5
E5
330
81A
100
AcDbEntity
  8
LANE_SLOTS
  6
Continuous
100
AcDbCircle
 10
18.53026471833639
 20
11.47021225004645
 30
0.0
 40
0.09
100
AcDbArc
 50
180.0
 51
0.0
  0
ARC
  5
E6
330
81A
100
AcDbEntity
  8
LANE_SLOTS
  6
Continuous
100
AcDbCircle
 10
19.89026471833639
 20
11.47021225004645
 30
0.0
 40
0.09
100
AcDbArc
 50
180.0
 51
0.0
  0
POINT
  5
E7
330
81A
100
AcDbEntity
  8
PROFILE
100
AcDbPoint
 10
4.789735281663605
 20
13.79021225004645
 30
0.0
  0
POINT
  5
E8
330
81A
100
AcDbEntity
  8
PROFILE
100
AcDbPoint
 10
19.21026471833639
 20
13.79021225004645
 30
0.0
  0
POINT
  5
E9
330
81A
100
AcDbEntity
  8
PROFILE
100
AcDbPoint
 10
4.789735281663605
 20
9.863066806920619
 30
0.0
  0
POINT
  5
EA
330
81A
100
AcDbEntity
  8
PROFILE
100
AcDbPoint
 10
19.21026471833639
 20
9.863066806920619
 30
0.0
  0
POINT
  5
EB
330
81A
100
AcDbEntity
  8
LANE_GUIDES
100
AcDbPoint
 10
4.789735281663605
 20
13.79021225004645
 30
0.0
  0
POINT
  5
EC
330
81A
100
AcDbEntity
  8
LANE_GUIDES
100
AcDbPoint
 10
19.21026471833639
 20
13.79021225004645
 30
0.0
  0
LINE
  5
109
330
81A
100
AcDbEntity
  8
LANE_GUIDES
  6
Continuous
100
AcDbLine
 10
3.429735281663604
 20
13.79021225004645
 30
0.0
 11
3.429735281663604
 21
9.863066806920619
 31
0.0
  0
LINE
  5
10A
330
81A
100
AcDbEntity
  8
LANE_GUIDES
  6
Continuous
100
AcDbLine
 10
20.57026471833639
 20
13.79021225004645
 30
0.0
 11
20.57026471833639
 21
9.863066806920619
 31
0.0
  0
LINE
  5
557
330
81A
100
AcDbEntity
  8
Reference
100
AcDbLine
 10
12.0
 20
49.45
 30
0.0
 11
12.0
 21
-0.0000000000000029
 31
0.0
  0
INSERT
  5
7E7
330
81A
100
AcDbEntity
  8
Ball Trough
100
AcDbBlockReference
  2
BallTrough
 10
13.0
 20
1.0
 30
0.0
 50
350.0
  0
INSERT
  5
7E9
330
81A
100
AcDbEntity
  8
Ball Trough
100
AcDbBlockReference
  2
LeftSlingshot
 10
6.296313099386436
 20
11.09302234683778
 30
0.0
  0
INSERT
  5
7EB
330
81A
100
AcDbEntity
  8
Ball Trough
100
AcDbBlockReference
  2
RightSlingshot
 10
17.49949934424771
 20
10.9086005035604
 30
0.0
  0
INSERT
  5
7ED
330
81A
100
AcDbEntity
  8
Ball Trough
100
AcDbBlockReference
  2
DropTarget
 10
1.117206857583248
 20
29.37554275921842
 30
0.0
  0
INSERT
  5
7EF
330
81A
100
AcDbEntity
  8
Ball Trough
100
AcDbBlockReference
  2
PopBumper1
 10
10.2
 20
39.0625
 30
0.0
  0
INSERT
  5
7F1
330
81A
100
AcDbEntity
  8
Ball Trough
100
AcDbBlockReference
  2
PopBumper2
 10
8.2625
 20
43.0
 30
0.0
  0
INSERT
  5
7F3
330
81A
100
AcDbEntity
  8
Ball Trough
100
AcDbBlockReference
  2
PopBumper3
 10
13.64897276885153
 20
42.63817733217495
 30
0.0
  0
CIRCLE
  5
7F6
330
81A
100
AcDbEntity
  8
Reference
100
AcDbCircle
 10
8.749999999999996
 20
7.149999999999999
 30
0.0
 40
2.5
  0
CIRCLE
  5
7F7
330
81A
100
AcDbEntity
  8
Reference
100
AcDbCircle
 10
15.25
 20
7.149999999999999
 30
0.0
 40
2.500000000000001
  0
LINE
  5
7F8
330
81A
100
AcDbEntity
  8
Reference
100
AcDbLine
 10
7.958023159074613
 20
7.69256122552008
 30
0.0
 11
12.0
 21
5.0
 31
0.0
  0
CIRCLE
  5
7F9
330
81A
100
AcDbEntity
  8
Playfield Cutout
100
AcDbCircle
 10
12.0
 20
4.999999999999998
 30
0.0
 40
0.125
  0
LINE
  5
7FA
330
81A
100
AcDbEntity
  8
Reference
100
AcDbLine
 10
22.11426849736982
 20
1.883819010968332
 30
0.0
 11
21.8
 21
1.9
 31
0.0
  0
INSERT
  5
7FC
330
81A
100
AcDbEntity
  8
Reference
100
AcDbBlockReference
  2
AutoLauncher
 10
22.11426849736982
 20
1.883819010968332
 30
0.0
  0
VIEWPORT
  5
8EA
330
816
100
AcDbEntity
 67
     1
  8
0
100
AcDbViewport
 10
5.25
 20
4.0
 30
0.0
 40
11.638
 41
8.993
 68
     1
 69
     1
 12
5.25
 22
4.0
 13
0.0
 23
0.0
 14
0.5
 24
0.5
 15
0.5
 25
0.5
 16
0.0
 26
0.0
 36
1.0
 17
0.0
 27
0.0
 37
0.0
 42
50.0
 43
0.0
 44
0.0
 45
8.993
 50
0.0
 51
0.0
 72
   100
 90
   557152
  1

281
     0
 71
     1
 74
     0
110
0.0
120
0.0
130
0.0
111
1.0
121
0.0
131
0.0
112
0.0
122
1.0
132
0.0
 79
     0
146
0.0
170
     0
 61
     5
348
82A
292
     1
282
     1
141
0.0
142
0.0
 63
   256
361
8EB
  0
ENDSEC
  0
SECTION
  2
OBJECTS
  0
DICTIONARY
  5
808
330
0
100
AcDbDictionary
281
     1
  3
ACAD_DETAILVIEWSTYLE
350
90C
  3
ACAD_GROUP
350
809
  3
ACAD_LAYOUT
350
815
  3
ACAD_MATERIAL
350
83E
  3
ACAD_MLEADERSTYLE
350
856
  3
ACAD_MLINESTYLE
350
812
  3
ACAD_PLOTSETTINGS
350
814
  3
ACAD_PLOTSTYLENAME
350
80A
  3
ACAD_SCALELIST
350
842
  3
ACAD_SECTIONVIEWSTYLE
350
90D
  3
ACAD_TABLESTYLE
350
854
  3
ACAD_VISUALSTYLE
350
825
  3
ACDB_RECOMPOSE_DATA
350
909
  3
AcDbVariableDictionary
350
905
  3
QCAD_OBJECTS
350
85A
  0
SUN
  5
858
330
824
100
AcDbSun
 90
        1
290
     0
 63
     7
421
 16777215
 40
1.0
291
     1
 91
  2455826
 92
 54000000
292
     0
 70
     2
 71
   256
280
     1
  0
SUN
  5
8EB
330
8EA
100
AcDbSun
 90
        1
290
     0
 63
     7
421
 16777215
 40
1.0
291
     1
 91
  2455826
 92
 54000000
292
     0
 70
     2
 71
   256
280
     1
  0
DICTIONARY
  5
90C
102
{ACAD_REACTORS
330
808
102
}
330
808
100
AcDbDictionary
281
     1
  0
DICTIONARY
  5
809
102
{ACAD_REACTORS
330
808
102
}
330
808
100
AcDbDictionary
281
     1
  0
DICTIONARY
  5
815
102
{ACAD_REACTORS
330
808
102
}
330
808
100
AcDbDictionary
281
     1
  3
Layout1
350
819
  3
Model
350
81D
  0
DICTIONARY
  5
83E
102
{ACAD_REACTORS
330
808
102
}
330
808
100
AcDbDictionary
281
     1
  3
ByBlock
350
840
  3
ByLayer
350
83F
  3
Global
350
841
  0
DICTIONARY
  5
856
102
{ACAD_REACTORS
330
808
102
}
330
808
100
AcDbDictionary
281
     1
  3
Standard
350
857
  0
DICTIONARY
  5
812
102
{ACAD_REACTORS
330
808
102
}
330
808
100
AcDbDictionary
281
     1
  3
Standard
350
813
  0
DICTIONARY
  5
814
102
{ACAD_REACTORS
330
808
102
}
330
808
100
AcDbDictionary
281
     1
  0
ACDBDICTIONARYWDFLT
  5
80A
102
{ACAD_REACTORS
330
808
102
}
330
808
100
AcDbDictionary
281
     1
  3
Normal
350
80B
100
AcDbDictionaryWithDefault
340
80B
  0
DICTIONARY
  5
842
102
{ACAD_REACTORS
330
808
102
}
330
808
100
AcDbDictionary
281
     1
  3
A0
350
843
  3
A1
350
844
  3
A2
350
845
  3
A3
350
846
  3
A4
350
847
  3
A5
350
848
  3
A6
350
849
  3
A7
350
84A
  3
A8
350
84B
  3
A9
350
84C
  3
B1
350
84D
  3
B2
350
84E
  3
B3
350
84F
  3
B4
350
850
  3
B5
350
851
  3
B6
350
852
  3
B7
350
853
  0
DICTIONARY
  5
90D
102
{ACAD_REACTORS
330
808
102
}
330
808
100
AcDbDictionary
281
     1
  0
DICTIONARY
  5
854
102
{ACAD_REACTORS
330
808
102
}
330
808
100
AcDbDictionary
281
     1
  3
Standard
350
855
  0
DICTIONARY
  5
825
102
{ACAD_REACTORS
330
808
102
}
330
808
100
AcDbDictionary
281
     1
  3
2dWireframe
350
82A
  3
Basic
350
82D
  3
Brighten
350
831
  3
ColorChange
350
835
  3
Conceptual
350
82F
  3
Dim
350
830
  3
EdgeColorOff
350
838
  3
Facepattern
350
834
  3
Flat
350
826
  3
FlatWithEdges
350
827
  3
Gouraud
350
828
  3
GouraudWithEdges
350
829
  3
Hidden
350
82C
  3
JitterOff
350
836
  3
Linepattern
350
833
  3
OverhangOff
350
837
  3
Realistic
350
82E
  3
Shaded
350
83D
  3
Shaded with edges
350
83C
  3
Shades of Gray
350
839
  3
Sketchy
350
83A
  3
Thicken
350
832
  3
Wireframe
350
82B
  3
X-Ray
350
83B
  0
XRECORD
  5
909
102
{ACAD_REACTORS
330
808
102
}
330
808
100
AcDbXrecord
280
     1
 90
        1
330
855
  0
DICTIONARY
  5
905
102
{ACAD_REACTORS
330
808
102
}
330
808
100
AcDbDictionary
281
     1
  3
CANNOSCALE
350
906
  3
CMLEADERSTYLE
350
90B
  3
CTABLESTYLE
350
90A
  0
DICTIONARY
  5
85A
102
{ACAD_REACTORS
330
808
102
}
330
808
100
AcDbDictionary
281
     1
  3
ColorSettings/BackgroundColor
350
85C
  3
ColorSettings/ColorMode
350
85D
  3
Grid/DisplayGrid00
350
85E
  3
Grid/DisplayGrid01
350
85F
  3
Grid/DisplayGrid02
350
860
  3
Grid/DisplayGrid03
350
861
  3
Grid/GridSpacingX00
350
862
  3
Grid/GridSpacingX01
350
863
  3
Grid/GridSpacingX02
350
864
  3
Grid/GridSpacingX03
350
865
  3
Grid/GridSpacingY00
350
866
  3
Grid/GridSpacingY01
350
867
  3
Grid/GridSpacingY02
350
868
  3
Grid/GridSpacingY03
350
869
  3
Grid/IsometricGrid00
350
86A
  3
Grid/IsometricGrid01
350
86B
  3
Grid/IsometricGrid02
350
86C
  3
Grid/IsometricGrid03
350
86D
  3
Grid/IsometricProjection00
350
86E
  3
Grid/IsometricProjection01
350
86F
  3
Grid/IsometricProjection02
350
870
  3
Grid/IsometricProjection03
350
871
  3
Grid/MetaGridSpacingX00
350
872
  3
Grid/MetaGridSpacingX01
350
873
  3
Grid/MetaGridSpacingX02
350
874
  3
Grid/MetaGridSpacingX03
350
875
  3
Grid/MetaGridSpacingY00
350
876
  3
Grid/MetaGridSpacingY01
350
877
  3
Grid/MetaGridSpacingY02
350
878
  3
Grid/MetaGridSpacingY03
350
879
  3
MultiPageSettings/Columns
350
87A
  3
MultiPageSettings/GlueMarginsBottom
350
87B
  3
MultiPageSettings/GlueMarginsLeft
350
87C
  3
MultiPageSettings/GlueMarginsRight
350
87D
  3
MultiPageSettings/GlueMarginsTop
350
87E
  3
MultiPageSettings/PrintCropMarks
350
87F
  3
MultiPageSettings/Rows
350
880
  3
PageSettings/OffsetX
350
881
  3
PageSettings/OffsetY
350
882
  3
PageSettings/PageOrientation
350
883
  3
PageSettings/PaperHeight
350
884
  3
PageSettings/PaperWidth
350
885
  3
PageSettings/Scale
350
886
  3
PageSettings/ShowPaperBorders
350
887
  3
PageTagSettings/EnablePageTags
350
888
  3
PageTagSettings/TagAlignment
350
889
  3
PageTagSettings/TagFont
350
88A
  3
PageTagSettings/TagPosition
350
88B
  3
QCADVersion
350
88C
  3
UnitSettings/PaperUnit
350
88D
  3
ViewportCenter
350
88E
  3
ViewportHeight
350
88F
  3
ViewportWidth
350
890
  0
LAYOUT
  5
819
102
{ACAD_REACTORS
330
815
102
}
330
815
100
AcDbPlotSettings
  1

  2
none_device
  4
Letter_(8.50_x_11.00_Inches)
  6

 40
6.35
 41
6.35
 42
6.35001
 43
6.35001
 44
215.9
 45
279.4
 46
0.0
 47
0.0
 48
0.0
 49
0.0
140
0.0
141
0.0
142
1.0
143
1.0
 70
   688
 72
     0
 73
     1
 74
     5
  7

 75
    16
 76
     0
 77
     2
 78
   300
147
1.0
148
0.0
149
0.0
100
AcDbLayout
  1
Layout1
 70
     1
 71
     1
 10
-0.25
 20
-0.25
 11
10.75
 21
8.25
 12
0.0
 22
0.0
 32
0.0
 14
1.000000000000000E+20
 24
1.000000000000000E+20
 34
1.000000000000000E+20
 15
-1.000000000000000E+20
 25
-1.000000000000000E+20
 35
-1.000000000000000E+20
146
0.0
 13
0.0
 23
0.0
 33
0.0
 16
1.0
 26
0.0
 36
0.0
 17
0.0
 27
1.0
 37
0.0
 76
     0
330
816
331
8EA
  0
LAYOUT
  5
81D
102
{ACAD_REACTORS
330
815
102
}
330
815
100
AcDbPlotSettings
  1

  2
none_device
  4
Letter_(8.50_x_11.00_Inches)
  6

 40
6.35
 41
6.35
 42
6.35000508
 43
6.35000508
 44
215.9
 45
279.4
 46
0.0
 47
0.0
 48
0.0
 49
0.0
140
0.0
141
0.0
142
1.0
143
1.0
 70
  1712
 72
     0
 73
     0
 74
     0
  7

 75
     0
 76
     0
 77
     2
 78
   300
147
1.0
148
0.0
149
0.0
100
AcDbLayout
  1
Model
 70
     1
 71
     0
 10
0.0
 20
0.0
 11
12.0
 21
9.0
 12
0.0
 22
0.0
 32
0.0
 14
0.0
 24
-0.0000000000000029
 34
0.0
 15
39.66725490608409
 25
49.45
 35
0.0
146
0.0
 13
0.0
 23
0.0
 33
0.0
 16
1.0
 26
0.0
 36
0.0
 17
0.0
 27
1.0
 37
0.0
 76
     0
330
81A
331
824
  0
MATERIAL
  5
840
102
{ACAD_REACTORS
330
83E
102
}
330
83E
100
AcDbMaterial
  1
ByBlock
 72
     1
 94
      127
  0
MATERIAL
  5
83F
102
{ACAD_REACTORS
330
83E
102
}
330
83E
100
AcDbMaterial
  1
ByLayer
 72
     1
 94
      127
  0
MATERIAL
  5
841
102
{ACAD_REACTORS
330
83E
102
}
330
83E
100
AcDbMaterial
  1
Global
 72
     1
 94
      127
  0
MLEADERSTYLE
  5
857
102
{ACAD_REACTORS
330
856
102
}
330
856
100
AcDbMLeaderStyle
179
     2
170
     2
171
     1
172
     0
 90
        2
 40
0.0
 41
0.0
173
     1
 91
-1056964608
340
80F
 92
       -2
290
     1
 42
0.09
291
     1
 43
0.36
  3
Standard
341
0
 44
0.18
300

342
80D
174
     1
178
     6
175
     1
176
     0
 93
-1056964608
 45
0.18
292
     0
297
     0
 46
0.18
343
0
 94
-1056964608
 47
1.0
 49
1.0
140
1.0
293
     1
141
0.0
294
     1
177
     0
142
1.0
295
     0
296
     0
143
0.125
271
     0
272
     9
273
     9
298
     0
  0
MLINESTYLE
  5
813
102
{ACAD_REACTORS
330
812
102
}
330
812
100
AcDbMlineStyle
  2
Standard
 70
     0
  3

 62
   256
 51
90.0
 52
90.0
 71
     2
 49
0.5
 62
   256
  6
BYLAYER
 49
-0.5
 62
   256
  6
BYLAYER
  0
ACDBPLACEHOLDER
  5
80B
102
{ACAD_REACTORS
330
80A
102
}
330
80A
  0
SCALE
  5
843
102
{ACAD_REACTORS
330
842
102
}
330
842
100
AcDbScale
 70
     0
300
1:1
140
1.0
141
1.0
290
     1
  0
SCALE
  5
844
102
{ACAD_REACTORS
330
842
102
}
330
842
100
AcDbScale
 70
     0
300
1/128" = 1'-0"
140
0.0078125
141
12.0
290
     0
  0
SCALE
  5
845
102
{ACAD_REACTORS
330
842
102
}
330
842
100
AcDbScale
 70
     0
300
1/64" = 1'-0"
140
0.015625
141
12.0
290
     0
  0
SCALE
  5
846
102
{ACAD_REACTORS
330
842
102
}
330
842
100
AcDbScale
 70
     0
300
1/32" = 1'-0"
140
0.03125
141
12.0
290
     0
  0
SCALE
  5
847
102
{ACAD_REACTORS
330
842
102
}
330
842
100
AcDbScale
 70
     0
300
1/16" = 1'-0"
140
0.0625
141
12.0
290
     0
  0
SCALE
  5
848
102
{ACAD_REACTORS
330
842
102
}
330
842
100
AcDbScale
 70
     0
300
3/32" = 1'-0"
140
0.09375
141
12.0
290
     0
  0
SCALE
  5
849
102
{ACAD_REACTORS
330
842
102
}
330
842
100
AcDbScale
 70
     0
300
1/8" = 1'-0"
140
0.125
141
12.0
290
     0
  0
SCALE
  5
84A
102
{ACAD_REACTORS
330
842
102
}
330
842
100
AcDbScale
 70
     0
300
3/16" = 1'-0"
140
0.1875
141
12.0
290
     0
  0
SCALE
  5
84B
102
{ACAD_REACTORS
330
842
102
}
330
842
100
AcDbScale
 70
     0
300
1/4" = 1'-0"
140
0.25
141
12.0
290
     0
  0
SCALE
  5
84C
102
{ACAD_REACTORS
330
842
102
}
330
842
100
AcDbScale
 70
     0
300
3/8" = 1'-0"
140
0.375
141
12.0
290
     0
  0
SCALE
  5
84D
102
{ACAD_REACTORS
330
842
102
}
330
842
100
AcDbScale
 70
     0
300
1/2" = 1'-0"
140
0.5
141
12.0
290
     0
  0
SCALE
  5
84E
102
{ACAD_REACTORS
330
842
102
}
330
842
100
AcDbScale
 70
     0
300
3/4" = 1'-0"
140
0.75
141
12.0
290
     0
  0
SCALE
  5
84F
102
{ACAD_REACTORS
330
842
102
}
330
842
100
AcDbScale
 70
     0
300
1" = 1'-0"
140
1.0
141
12.0
290
     0
  0
SCALE
  5
850
102
{ACAD_REACTORS
330
842
102
}
330
842
100
AcDbScale
 70
     0
300
1-1/2" = 1'-0"
140
1.5
141
12.0
290
     0
  0
SCALE
  5
851
102
{ACAD_REACTORS
330
842
102
}
330
842
100
AcDbScale
 70
     0
300
3" = 1'-0"
140
3.0
141
12.0
290
     0
  0
SCALE
  5
852
102
{ACAD_REACTORS
330
842
102
}
330
842
100
AcDbScale
 70
     0
300
6" = 1'-0"
140
6.0
141
12.0
290
     0
  0
SCALE
  5
853
102
{ACAD_REACTORS
330
842
102
}
330
842
100
AcDbScale
 70
     0
300
1'-0" = 1'-0"
140
12.0
141
12.0
290
     0
  0
TABLESTYLE
  5
855
102
{ACAD_REACTORS
330
854
102
}
102
{ACAD_XDICTIONARY
360
907
102
}
330
854
100
AcDbTableStyle
  3
Standard
 70
     0
 71
     0
 40
0.06
 41
0.06
280
     0
281
     0
  7
Standard
140
0.18
170
     2
 62
     0
 63
   257
283
     0
 90
        4
 91
        0
  1

274
    -2
284
     1
 64
     0
275
    -2
285
     1
 65
     0
276
    -2
286
     1
 66
     0
277
    -2
287
     1
 67
     0
278
    -2
288
     1
 68
     0
279
    -2
289
     1
 69
     0
  7
Standard
140
0.25
170
     5
 62
     0
 63
   257
283
     0
 90
        4
 91
        0
  1

274
    -2
284
     1
 64
     0
275
    -2
285
     1
 65
     0
276
    -2
286
     1
 66
     0
277
    -2
287
     1
 67
     0
278
    -2
288
     1
 68
     0
279
    -2
289
     1
 69
     0
  7
Standard
140
0.18
170
     5
 62
     0
 63
   257
283
     0
 90
        4
 91
        0
  1

274
    -2
284
     1
 64
     0
275
    -2
285
     1
 65
     0
276
    -2
286
     1
 66
     0
277
    -2
287
     1
 67
     0
278
    -2
288
     1
 68
     0
279
    -2
289
     1
 69
     0
  0
VISUALSTYLE
  5
82A
102
{ACAD_REACTORS
330
825
102
}
330
825
100
AcDbVisualStyle
  2
2dWireframe
 70
     4
177
     3
291
     0
 70
    58
 90
        0
176
     1
 90
        2
176
     1
 90
        0
176
     1
 90
        0
176
     1
 40
0.6
176
     1
 40
30.0
176
     1
 62
     7
420
 16777215
176
     1
 90
        1
176
     1
 90
        4
176
     1
 62
     7
176
     1
 62
   257
176
     1
 90
        1
176
     1
 90
        1
176
     1
 40
1.0
176
     1
 90
        0
176
     1
 62
   257
176
     1
 40
1.0
176
     1
 90
        1
176
     1
 90
        6
176
     1
 90
        2
176
     1
 62
     7
176
     1
 90
        5
176
     1
 90
        0
176
     1
 90
        0
176
     1
290
     0
176
     1
 90
        1
176
     1
 40
0.0
176
     1
 90
        0
176
     1
290
     1
176
     1
290
     1
176
     1
290
     0
176
     1
290
     0
176
     1
290
     0
176
     1
290
     0
176
     1
290
     0
176
     1
290
     0
176
     1
290
     0
176
     1
 90
       50
176
     1
 40
0.0
176
     1
 40
1.0
176
     1
 90
        0
176
     1
 62
    18
420
        0
176
     1
 90
       50
176
     1
 90
        3
176
     1
 62
     5
420
      255
176
     1
290
     0
176
     1
 90
       50
176
     1
 90
       50
176
     1
 90
       50
176
     1
290
     0
176
     1
 90
       50
176
     1
 62
   256
176
     0
 40
1.0
176
     0
 90
        2
176
     1
  1
strokes_ogs.tif
176
     1
290
     0
176
     1
 40
1.0
176
     1
 40
1.0
176
     1
  0
VISUALSTYLE
  5
82D
102
{ACAD_REACTORS
330
825
102
}
330
825
100
AcDbVisualStyle
  2
Basic
 70
     7
177
     3
291
     1
 70
    58
 90
        1
176
     1
 90
        0
176
     1
 90
        1
176
     1
 90
        0
176
     1
 40
0.6
176
     1
 40
30.0
176
     1
 62
     7
420
 16777215
176
     1
 90
        0
176
     1
 90
        4
176
     1
 62
     7
176
     1
 62
   257
176
     1
 90
        1
176
     1
 90
        1
176
     1
 40
1.0
176
     1
 90
        8
176
     1
 62
     7
176
     1
 40
1.0
176
     1
 90
        1
176
     1
 90
        6
176
     1
 90
        2
176
     1
 62
     7
176
     1
 90
        5
176
     1
 90
        0
176
     1
 90
        0
176
     1
290
     0
176
     1
 90
        1
176
     1
 40
0.0
176
     1
 90
        0
176
     1
290
     0
176
     1
290
     1
176
     1
290
     1
176
     1
290
     0
176
     1
290
     0
176
     1
290
     0
176
     1
290
     0
176
     1
290
     0
176
     1
290
     0
176
     1
 90
       50
176
     1
 40
0.0
176
     1
 40
1.0
176
     1
 90
        0
176
     1
 62
    18
420
        0
176
     1
 90
       50
176
     1
 90
        3
176
     1
 62
     5
420
      255
176
     1
290
     0
176
     1
 90
       50
176
     1
 90
       50
176
     1
 90
       50
176
     1
290
     0
176
     1
 90
       50
176
     1
 62
   256
176
     0
 40
1.0
176
     0
 90
        2
176
     1
  1
strokes_ogs.tif
176
     1
290
     0
176
     1
 40
1.0
176
     1
 40
1.0
176
     1
  0
VISUALSTYLE
  5
831
102
{ACAD_REACTORS
330
825
102
}
330
825
100
AcDbVisualStyle
  2
Brighten
 70
    12
177
     3
291
     1
 70
    58
 90
        2
176
     1
 90
        2
176
     1
 90
        0
176
     1
 90
        0
176
     1
 40
0.6
176
     1
 40
30.0
176
     1
 62
     7
420
 16777215
176
     1
 90
        1
176
     1
 90
        4
176
     1
 62
     7
176
     1
 62
   257
176
     1
 90
        1
176
     1
 90
        1
176
     1
 40
1.0
176
     1
 90
        8
176
     1
 62
     7
176
     1
 40
1.0
176
     1
 90
        1
176
     1
 90
        6
176
     1
 90
        2
176
     1
 62
     7
176
     1
 90
        5
176
     1
 90
        0
176
     1
 90
        0
176
     1
290
     0
176
     1
 90
        1
176
     1
 40
50.0
176
     1
 90
        0
176
     1
290
     0
176
     1
290
     1
176
     1
290
     1
176
     1
290
     0
176
     1
290
     0
176
     1
290
     0
176
     1
290
     0
176
     1
290
     0
176
     1
290
     0
176
     1
 90
       50
176
     1
 40
0.0
176
     1
 40
1.0
176
     1
 90
        0
176
     1
 62
    18
420
        0
176
     1
 90
       50
176
     1
 90
        3
176
     1
 62
     5
420
      255
176
     1
290
     0
176
     1
 90
       50
176
     1
 90
       50
176
     1
 90
       50
176
     1
290
     0
176
     1
 90
       50
176
     1
 62
   256
176
     0
 40
1.0
176
     0
 90
        2
176
     1
  1
strokes_ogs.tif
176
     1
290
     0
176
     1
 40
1.0
176
     1
 40
1.0
176
     1
  0
VISUALSTYLE
  5
835
102
{ACAD_REACTORS
330
825
102
}
330
825
100
AcDbVisualStyle
  2
ColorChange
 70
    16
177
     3
291
     1
 70
    58
 90
        2
176
     1
 90
        2
176
     1
 90
        3
176
     1
 90
        0
176
     1
 40
0.6
176
     1
 40
30.0
176
     1
 62
     8
420
  8421504
176
     1
 90
        1
176
     1
 90
        4
176
     1
 62
     7
176
     1
 62
   257
176
     1
 90
        1
176
     1
 90
        1
176
     1
 40
1.0
176
     1
 90
        8
176
     1
 62
     8
420
  8421504
176
     1
 40
1.0
176
     1
 90
        1
176
     1
 90
        6
176
     1
 90
        2
176
     1
 62
     7
176
     1
 90
        5
176
     1
 90
        0
176
     1
 90
        0
176
     1
290
     0
176
     1
 90
        1
176
     1
 40
0.0
176
     1
 90
        0
176
     1
290
     0
176
     1
290
     1
176
     1
290
     1
176
     1
290
     0
176
     1
290
     0
176
     1
290
     0
176
     1
290
     0
176
     1
290
     0
176
     1
290
     0
176
     1
 90
       50
176
     1
 40
0.0
176
     1
 40
1.0
176
     1
 90
        0
176
     1
 62
    18
420
        0
176
     1
 90
       50
176
     1
 90
        3
176
     1
 62
     5
420
      255
176
     1
290
     0
176
     1
 90
       50
176
     1
 90
       50
176
     1
 90
       50
176
     1
290
     0
176
     1
 90
       50
176
     1
 62
   256
176
     0
 40
1.0
176
     0
 90
        2
176
     1
  1
strokes_ogs.tif
176
     1
290
     0
176
     1
 40
1.0
176
     1
 40
1.0
176
     1
  0
VISUALSTYLE
  5
82F
102
{ACAD_REACTORS
330
825
102
}
330
825
100
AcDbVisualStyle
  2
Conceptual
 70
     9
177
     3
291
     0
 70
    58
 90
        3
176
     1
 90
        2
176
     1
 90
        0
176
     1
 90
        0
176
     1
 40
0.6
176
     1
 40
30.0
176
     1
 62
     7
420
 16777215
176
     1
 90
        2
176
     1
 90
        2
176
     1
 62
     7
176
     1
 62
   257
176
     1
 90
        1
176
     1
 90
        1
176
     1
 40
179.0
176
     1
 90
        8
176
     1
 62
     7
176
     1
 40
1.0
176
     1
 90
        1
176
     1
 90
        6
176
     1
 90
        2
176
     1
 62
     7
176
     1
 90
        3
176
     1
 90
        0
176
     1
 90
        0
176
     1
290
     0
176
     1
 90
        1
176
     1
 40
0.0
176
     1
 90
        0
176
     1
290
     0
176
     1
290
     1
176
     1
290
     1
176
     1
290
     0
176
     1
290
     0
176
     1
290
     0
176
     1
290
     0
176
     1
290
     0
176
     1
290
     0
176
     1
 90
       50
176
     1
 40
0.0
176
     1
 40
1.0
176
     1
 90
        0
176
     1
 62
    18
420
        0
176
     1
 90
       50
176
     1
 90
        3
176
     1
 62
     5
420
      255
176
     1
290
     0
176
     1
 90
       50
176
     1
 90
       50
176
     1
 90
       50
176
     1
290
     0
176
     1
 90
       50
176
     1
 62
   256
176
     0
 40
1.0
176
     0
 90
        2
176
     1
  1
strokes_ogs.tif
176
     1
290
     0
176
     1
 40
1.0
176
     1
 40
1.0
176
     1
  0
VISUALSTYLE
  5
830
102
{ACAD_REACTORS
330
825
102
}
330
825
100
AcDbVisualStyle
  2
Dim
 70
    11
177
     3
291
     1
 70
    58
 90
        2
176
     1
 90
        2
176
     1
 90
        0
176
     1
 90
        0
176
     1
 40
0.6
176
     1
 40
30.0
176
     1
 62
     7
420
 16777215
176
     1
 90
        1
176
     1
 90
        4
176
     1
 62
     7
176
     1
 62
   257
176
     1
 90
        1
176
     1
 90
        1
176
     1
 40
1.0
176
     1
 90
        8
176
     1
 62
     7
176
     1
 40
1.0
176
     1
 90
        1
176
     1
 90
        6
176
     1
 90
        2
176
     1
 62
     7
176
     1
 90
        5
176
     1
 90
        0
176
     1
 90
        0
176
     1
290
     0
176
     1
 90
        1
176
     1
 40
-50.0
176
     1
 90
        0
176
     1
290
     0
176
     1
290
     1
176
     1
290
     1
176
     1
290
     0
176
     1
290
     0
176
     1
290
     0
176
     1
290
     0
176
     1
290
     0
176
     1
290
     0
176
     1
 90
       50
176
     1
 40
0.0
176
     1
 40
1.0
176
     1
 90
        0
176
     1
 62
    18
420
        0
176
     1
 90
       50
176
     1
 90
        3
176
     1
 62
     5
420
      255
176
     1
290
     0
176
     1
 90
       50
176
     1
 90
       50
176
     1
 90
       50
176
     1
290
     0
176
     1
 90
       50
176
     1
 62
   256
176
     0
 40
1.0
176
     0
 90
        2
176
     1
  1
strokes_ogs.tif
176
     1
290
     0
176
     1
 40
1.0
176
     1
 40
1.0
176
     1
  0
VISUALSTYLE
  5
838
102
{ACAD_REACTORS
330
825
102
}
330
825
100
AcDbVisualStyle
  2
EdgeColorOff
 70
    22
177
     3
291
     1
 70
    58
 90
        2
176
     0
 90
        2
176
     0
 90
        0
176
     0
 90
        0
176
     0
 40
0.6
176
     0
 40
30.0
176
     0
 62
     7
420
 16777215
176
     0
 90
        1
176
     0
 90
        4
176
     0
 62
     7
176
     0
 62
   257
176
     0
 90
        1
176
     0
 90
        1
176
     0
 40
1.0
176
     0
 90
        8
176
     2
 62
     7
176
     0
 40
1.0
176
     0
 90
        1
176
     0
 90
        6
176
     0
 90
        2
176
     0
 62
     7
176
     0
 90
        5
176
     0
 90
        0
176
     0
 90
        0
176
     0
290
     0
176
     0
 90
        1
176
     0
 40
0.0
176
     0
 90
        0
176
     0
290
     0
176
     0
290
     1
176
     0
290
     1
176
     0
290
     0
176
     0
290
     0
176
     0
290
     0
176
     0
290
     0
176
     0
290
     0
176
     0
290
     0
176
     0
 90
       50
176
     0
 40
0.0
176
     0
 40
1.0
176
     0
 90
        0
176
     0
 62
    18
420
        0
176
     0
 90
       50
176
     0
 90
        3
176
     0
 62
     5
420
      255
176
     0
290
     0
176
     0
 90
       50
176
     0
 90
       50
176
     0
 90
       50
176
     0
290
     0
176
     0
 90
       50
176
     0
 62
   256
176
     0
 40
1.0
176
     0
 90
        2
176
     0
  1
strokes_ogs.tif
176
     0
290
     0
176
     0
 40
1.0
176
     0
 40
1.0
176
     0
  0
VISUALSTYLE
  5
834
102
{ACAD_REACTORS
330
825
102
}
330
825
100
AcDbVisualStyle
  2
Facepattern
 70
    15
177
     3
291
     1
 70
    58
 90
        2
176
     1
 90
        2
176
     1
 90
        0
176
     1
 90
        0
176
     1
 40
0.6
176
     1
 40
30.0
176
     1
 62
     7
420
 16777215
176
     1
 90
        1
176
     1
 90
        4
176
     1
 62
     7
176
     1
 62
   257
176
     1
 90
        1
176
     1
 90
        1
176
     1
 40
1.0
176
     1
 90
        8
176
     1
 62
     7
176
     1
 40
1.0
176
     1
 90
        1
176
     1
 90
        6
176
     1
 90
        2
176
     1
 62
     7
176
     1
 90
        5
176
     1
 90
        0
176
     1
 90
        0
176
     1
290
     0
176
     1
 90
        1
176
     1
 40
0.0
176
     1
 90
        0
176
     1
290
     0
176
     1
290
     1
176
     1
290
     1
176
     1
290
     0
176
     1
290
     0
176
     1
290
     0
176
     1
290
     0
176
     1
290
     0
176
     1
290
     0
176
     1
 90
       50
176
     1
 40
0.0
176
     1
 40
1.0
176
     1
 90
        0
176
     1
 62
    18
420
        0
176
     1
 90
       50
176
     1
 90
        3
176
     1
 62
     5
420
      255
176
     1
290
     0
176
     1
 90
       50
176
     1
 90
       50
176
     1
 90
       50
176
     1
290
     0
176
     1
 90
       50
176
     1
 62
   256
176
     0
 40
1.0
176
     0
 90
        2
176
     1
  1
strokes_ogs.tif
176
     1
290
     0
176
     1
 40
1.0
176
     1
 40
1.0
176
     1
  0
VISUALSTYLE
  5
826
102
{ACAD_REACTORS
330
825
102
}
330
825
100
AcDbVisualStyle
  2
Flat
 70
     0
177
     3
291
     1
 70
    58
 90
        2
176
     1
 90
        1
176
     1
 90
        1
176
     1
 90
        2
176
     1
 40
0.6
176
     1
 40
30.0
176
     1
 62
     7
420
 16777215
176
     1
 90
        0
176
     1
 90
        0
176
     1
 62
     7
176
     1
 62
   257
176
     1
 90
        1
176
     1
 90
        1
176
     1
 40
1.0
176
     1
 90
        8
176
     1
 62
     7
176
     1
 40
1.0
176
     1
 90
        1
176
     1
 90
        6
176
     1
 90
        2
176
     1
 62
     7
176
     1
 90
        5
176
     1
 90
        0
176
     1
 90
        0
176
     1
290
     0
176
     1
 90
       13
176
     1
 40
0.0
176
     1
 90
        0
176
     1
290
     0
176
     1
290
     1
176
     1
290
     1
176
     1
290
     0
176
     1
290
     0
176
     1
290
     0
176
     1
290
     0
176
     1
290
     0
176
     1
290
     0
176
     1
 90
       50
176
     1
 40
0.0
176
     1
 40
1.0
176
     1
 90
        0
176
     1
 62
    18
420
        0
176
     1
 90
       50
176
     1
 90
        3
176
     1
 62
     5
420
      255
176
     1
290
     0
176
     1
 90
       50
176
     1
 90
       50
176
     1
 90
       50
176
     1
290
     0
176
     1
 90
       50
176
     1
 62
   256
176
     0
 40
1.0
176
     0
 90
        2
176
     1
  1
strokes_ogs.tif
176
     1
290
     0
176
     1
 40
1.0
176
     1
 40
1.0
176
     1
  0
VISUALSTYLE
  5
827
102
{ACAD_REACTORS
330
825
102
}
330
825
100
AcDbVisualStyle
  2
FlatWithEdges
 70
     1
177
     3
291
     1
 70
    58
 90
        2
176
     1
 90
        1
176
     1
 90
        1
176
     1
 90
        2
176
     1
 40
0.6
176
     1
 40
30.0
176
     1
 62
     7
420
 16777215
176
     1
 90
        1
176
     1
 90
        0
176
     1
 62
     7
176
     1
 62
   257
176
     1
 90
        1
176
     1
 90
        1
176
     1
 40
1.0
176
     1
 90
        0
176
     1
 62
   257
176
     1
 40
1.0
176
     1
 90
        1
176
     1
 90
        6
176
     1
 90
        2
176
     1
 62
     7
176
     1
 90
        5
176
     1
 90
        0
176
     1
 90
        0
176
     1
290
     0
176
     1
 90
       13
176
     1
 40
0.0
176
     1
 90
        0
176
     1
290
     0
176
     1
290
     1
176
     1
290
     1
176
     1
290
     0
176
     1
290
     0
176
     1
290
     0
176
     1
290
     0
176
     1
290
     0
176
     1
290
     0
176
     1
 90
       50
176
     1
 40
0.0
176
     1
 40
1.0
176
     1
 90
        0
176
     1
 62
    18
420
        0
176
     1
 90
       50
176
     1
 90
        3
176
     1
 62
     5
420
      255
176
     1
290
     0
176
     1
 90
       50
176
     1
 90
       50
176
     1
 90
       50
176
     1
290
     0
176
     1
 90
       50
176
     1
 62
   256
176
     0
 40
1.0
176
     0
 90
        2
176
     1
  1
strokes_ogs.tif
176
     1
290
     0
176
     1
 40
1.0
176
     1
 40
1.0
176
     1
  0
VISUALSTYLE
  5
828
102
{ACAD_REACTORS
330
825
102
}
330
825
100
AcDbVisualStyle
  2
Gouraud
 70
     2
177
     3
291
     1
 70
    58
 90
        2
176
     1
 90
        2
176
     1
 90
        1
176
     1
 90
        2
176
     1
 40
0.6
176
     1
 40
30.0
176
     1
 62
     7
420
 16777215
176
     1
 90
        0
176
     1
 90
        0
176
     1
 62
     7
176
     1
 62
   257
176
     1
 90
        1
176
     1
 90
        1
176
     1
 40
1.0
176
     1
 90
        0
176
     1
 62
     7
176
     1
 40
1.0
176
     1
 90
        1
176
     1
 90
        6
176
     1
 90
        2
176
     1
 62
     7
176
     1
 90
        5
176
     1
 90
        0
176
     1
 90
        0
176
     1
290
     0
176
     1
 90
       13
176
     1
 40
0.0
176
     1
 90
        0
176
     1
290
     0
176
     1
290
     1
176
     1
290
     1
176
     1
290
     0
176
     1
290
     0
176
     1
290
     0
176
     1
290
     0
176
     1
290
     0
176
     1
290
     0
176
     1
 90
       50
176
     1
 40
0.0
176
     1
 40
1.0
176
     1
 90
        0
176
     1
 62
    18
420
        0
176
     1
 90
       50
176
     1
 90
        3
176
     1
 62
     5
420
      255
176
     1
290
     0
176
     1
 90
       50
176
     1
 90
       50
176
     1
 90
       50
176
     1
290
     0
176
     1
 90
       50
176
     1
 62
   256
176
     0
 40
1.0
176
     0
 90
        2
176
     1
  1
strokes_ogs.tif
176
     1
290
     0
176
     1
 40
1.0
176
     1
 40
1.0
176
     1
  0
VISUALSTYLE
  5
829
102
{ACAD_REACTORS
330
825
102
}
330
825
100
AcDbVisualStyle
  2
GouraudWithEdges
 70
     3
177
     3
291
     1
 70
    58
 90
        2
176
     1
 90
        2
176
     1
 90
        1
176
     1
 90
        2
176
     1
 40
0.6
176
     1
 40
30.0
176
     1
 62
     7
420
 16777215
176
     1
 90
        1
176
     1
 90
        0
176
     1
 62
     7
176
     1
 62
   257
176
     1
 90
        1
176
     1
 90
        1
176
     1
 40
1.0
176
     1
 90
        0
176
     1
 62
   257
176
     1
 40
1.0
176
     1
 90
        1
176
     1
 90
        6
176
     1
 90
        2
176
     1
 62
     7
176
     1
 90
        5
176
     1
 90
        0
176
     1
 90
        0
176
     1
290
     0
176
     1
 90
       13
176
     1
 40
0.0
176
     1
 90
        0
176
     1
290
     0
176
     1
290
     1
176
     1
290
     1
176
     1
290
     0
176
     1
290
     0
176
     1
290
     0
176
     1
290
     0
176
     1
290
     0
176
     1
290
     0
176
     1
 90
       50
176
     1
 40
0.0
176
     1
 40
1.0
176
     1
 90
        0
176
     1
 62
    18
420
        0
176
     1
 90
       50
176
     1
 90
        3
176
     1
 62
     5
420
      255
176
     1
290
     0
176
     1
 90
       50
176
     1
 90
       50
176
     1
 90
       50
176
     1
290
     0
176
     1
 90
       50
176
     1
 62
   256
176
     0
 40
1.0
176
     0
 90
        2
176
     1
  1
strokes_ogs.tif
176
     1
290
     0
176
     1
 40
1.0
176
     1
 40
1.0
176
     1
  0
VISUALSTYLE
  5
82C
102
{ACAD_REACTORS
330
825
102
}
330
825
100
AcDbVisualStyle
  2
Hidden
 70
     6
177
     3
291
     0
 70
    58
 90
        1
176
     1
 90
        2
176
     1
 90
        2
176
     1
 90
        0
176
     1
 40
0.6
176
     1
 40
30.0
176
     1
 62
     7
420
 16777215
176
     1
 90
        2
176
     1
 90
        2
176
     1
 62
     7
176
     1
 62
   257
176
     1
 90
        2
176
     1
 90
        1
176
     1
 40
40.0
176
     1
 90
        0
176
     1
 62
   257
176
     1
 40
1.0
176
     1
 90
        1
176
     1
 90
        6
176
     1
 90
        2
176
     1
 62
     7
176
     1
 90
        3
176
     1
 90
        0
176
     1
 90
        0
176
     1
290
     0
176
     1
 90
        1
176
     1
 40
0.0
176
     1
 90
        0
176
     1
290
     0
176
     1
290
     1
176
     1
290
     1
176
     1
290
     0
176
     1
290
     0
176
     1
290
     0
176
     1
290
     0
176
     1
290
     0
176
     1
290
     0
176
     1
 90
       50
176
     1
 40
0.0
176
     1
 40
1.0
176
     1
 90
        0
176
     1
 62
    18
420
        0
176
     1
 90
       50
176
     1
 90
        3
176
     1
 62
     5
420
      255
176
     1
290
     0
176
     1
 90
       50
176
     1
 90
       50
176
     1
 90
       50
176
     1
290
     0
176
     1
 90
       50
176
     1
 62
   256
176
     0
 40
1.0
176
     0
 90
        2
176
     1
  1
strokes_ogs.tif
176
     1
290
     0
176
     1
 40
1.0
176
     1
 40
1.0
176
     1
  0
VISUALSTYLE
  5
836
102
{ACAD_REACTORS
330
825
102
}
330
825
100
AcDbVisualStyle
  2
JitterOff
 70
    20
177
     3
291
     1
 70
    58
 90
        2
176
     0
 90
        2
176
     0
 90
        0
176
     0
 90
        0
176
     0
 40
0.6
176
     0
 40
30.0
176
     0
 62
     7
420
 16777215
176
     0
 90
        1
176
     0
 90
        4
176
     0
 62
     7
176
     0
 62
   257
176
     0
 90
        1
176
     0
 90
        1
176
     0
 40
1.0
176
     0
 90
       10
176
     2
 62
     7
176
     0
 40
1.0
176
     0
 90
        1
176
     0
 90
        6
176
     0
 90
        2
176
     0
 62
     7
176
     0
 90
        5
176
     0
 90
        0
176
     0
 90
        0
176
     0
290
     0
176
     0
 90
        1
176
     0
 40
0.0
176
     0
 90
        0
176
     0
290
     0
176
     0
290
     1
176
     0
290
     1
176
     0
290
     0
176
     0
290
     0
176
     0
290
     0
176
     0
290
     0
176
     0
290
     0
176
     0
290
     0
176
     0
 90
       50
176
     0
 40
0.0
176
     0
 40
1.0
176
     0
 90
        0
176
     0
 62
    18
420
        0
176
     0
 90
       50
176
     0
 90
        3
176
     0
 62
     5
420
      255
176
     0
290
     0
176
     0
 90
       50
176
     0
 90
       50
176
     0
 90
       50
176
     0
290
     0
176
     0
 90
       50
176
     0
 62
   256
176
     0
 40
1.0
176
     0
 90
        2
176
     0
  1
strokes_ogs.tif
176
     0
290
     0
176
     0
 40
1.0
176
     0
 40
1.0
176
     0
  0
VISUALSTYLE
  5
833
102
{ACAD_REACTORS
330
825
102
}
330
825
100
AcDbVisualStyle
  2
Linepattern
 70
    14
177
     3
291
     1
 70
    58
 90
        2
176
     1
 90
        2
176
     1
 90
        0
176
     1
 90
        0
176
     1
 40
0.6
176
     1
 40
30.0
176
     1
 62
     7
420
 16777215
176
     1
 90
        1
176
     1
 90
        4
176
     1
 62
     7
176
     1
 62
   257
176
     1
 90
        7
176
     1
 90
        7
176
     1
 40
1.0
176
     1
 90
        8
176
     1
 62
     7
176
     1
 40
1.0
176
     1
 90
        1
176
     1
 90
        6
176
     1
 90
        2
176
     1
 62
     7
176
     1
 90
        5
176
     1
 90
        0
176
     1
 90
        0
176
     1
290
     0
176
     1
 90
        1
176
     1
 40
0.0
176
     1
 90
        0
176
     1
290
     0
176
     1
290
     1
176
     1
290
     1
176
     1
290
     0
176
     1
290
     0
176
     1
290
     0
176
     1
290
     0
176
     1
290
     0
176
     1
290
     0
176
     1
 90
       50
176
     1
 40
0.0
176
     1
 40
1.0
176
     1
 90
        0
176
     1
 62
    18
420
        0
176
     1
 90
       50
176
     1
 90
        3
176
     1
 62
     5
420
      255
176
     1
290
     0
176
     1
 90
       50
176
     1
 90
       50
176
     1
 90
       50
176
     1
290
     0
176
     1
 90
       50
176
     1
 62
   256
176
     0
 40
1.0
176
     0
 90
        2
176
     1
  1
strokes_ogs.tif
176
     1
290
     0
176
     1
 40
1.0
176
     1
 40
1.0
176
     1
  0
VISUALSTYLE
  5
837
102
{ACAD_REACTORS
330
825
102
}
330
825
100
AcDbVisualStyle
  2
OverhangOff
 70
    21
177
     3
291
     1
 70
    58
 90
        2
176
     0
 90
        2
176
     0
 90
        0
176
     0
 90
        0
176
     0
 40
0.6
176
     0
 40
30.0
176
     0
 62
     7
420
 16777215
176
     0
 90
        1
176
     0
 90
        4
176
     0
 62
     7
176
     0
 62
   257
176
     0
 90
        1
176
     0
 90
        1
176
     0
 40
1.0
176
     0
 90
        9
176
     2
 62
     7
176
     0
 40
1.0
176
     0
 90
        1
176
     0
 90
        6
176
     0
 90
        2
176
     0
 62
     7
176
     0
 90
        5
176
     0
 90
        0
176
     0
 90
        0
176
     0
290
     0
176
     0
 90
        1
176
     0
 40
0.0
176
     0
 90
        0
176
     0
290
     0
176
     0
290
     1
176
     0
290
     1
176
     0
290
     0
176
     0
290
     0
176
     0
290
     0
176
     0
290
     0
176
     0
290
     0
176
     0
290
     0
176
     0
 90
       50
176
     0
 40
0.0
176
     0
 40
1.0
176
     0
 90
        0
176
     0
 62
    18
420
        0
176
     0
 90
       50
176
     0
 90
        3
176
     0
 62
     5
420
      255
176
     0
290
     0
176
     0
 90
       50
176
     0
 90
       50
176
     0
 90
       50
176
     0
290
     0
176
     0
 90
       50
176
     0
 62
   256
176
     0
 40
1.0
176
     0
 90
        2
176
     0
  1
strokes_ogs.tif
176
     0
290
     0
176
     0
 40
1.0
176
     0
 40
1.0
176
     0
  0
VISUALSTYLE
  5
82E
102
{ACAD_REACTORS
330
825
102
}
330
825
100
AcDbVisualStyle
  2
Realistic
 70
     8
177
     3
291
     0
 70
    58
 90
        2
176
     1
 90
        3
176
     1
 90
        0
176
     1
 90
        2
176
     1
 40
0.6
176
     1
 40
30.0
176
     1
 62
     7
420
 16777215
176
     1
 90
        0
176
     1
 90
        0
176
     1
 62
     7
176
     1
 62
   257
176
     1
 90
        1
176
     1
 90
        1
176
     1
 40
1.0
176
     1
 90
        8
176
     1
 62
   257
176
     1
 40
1.0
176
     1
 90
        1
176
     1
 90
        6
176
     1
 90
        2
176
     1
 62
     7
176
     1
 90
        3
176
     1
 90
        0
176
     1
 90
        0
176
     1
290
     0
176
     1
 90
       13
176
     1
 40
0.0
176
     1
 90
        0
176
     1
290
     0
176
     1
290
     1
176
     1
290
     1
176
     1
290
     0
176
     1
290
     0
176
     1
290
     0
176
     1
290
     0
176
     1
290
     0
176
     1
290
     0
176
     1
 90
       50
176
     1
 40
0.0
176
     1
 40
1.0
176
     1
 90
        0
176
     1
 62
    18
420
        0
176
     1
 90
       50
176
     1
 90
        3
176
     1
 62
     5
420
      255
176
     1
290
     0
176
     1
 90
       50
176
     1
 90
       50
176
     1
 90
       50
176
     1
290
     0
176
     1
 90
       50
176
     1
 62
   256
176
     0
 40
1.0
176
     0
 90
        2
176
     1
  1
strokes_ogs.tif
176
     1
290
     0
176
     1
 40
1.0
176
     1
 40
1.0
176
     1
  0
VISUALSTYLE
  5
83D
102
{ACAD_REACTORS
330
825
102
}
330
825
100
AcDbVisualStyle
  2
Shaded
 70
    27
177
     3
291
     0
 70
    58
 90
        2
176
     1
 90
        2
176
     1
 90
        1
176
     1
 90
        2
176
     1
 40
0.6
176
     1
 40
30.0
176
     1
 62
     7
420
 16777215
176
     1
 90
        0
176
     1
 90
        4
176
     1
 62
     7
176
     1
 62
   257
176
     1
 90
        1
176
     1
 90
        1
176
     1
 40
1.0
176
     1
 90
        8
176
     1
 62
   257
176
     1
 40
1.0
176
     1
 90
        1
176
     1
 90
        6
176
     1
 90
        2
176
     1
 62
     8
420
  7895160
176
     1
 90
        3
176
     1
 90
        0
176
     1
 90
        0
176
     1
290
     0
176
     1
 90
        5
176
     1
 40
0.0
176
     1
 90
        0
176
     1
290
     0
176
     1
290
     1
176
     1
290
     1
176
     1
290
     0
176
     1
290
     0
176
     1
290
     0
176
     1
290
     0
176
     1
290
     0
176
     1
290
     0
176
     1
 90
       50
176
     1
 40
0.0
176
     1
 40
1.0
176
     1
 90
        0
176
     1
 62
    18
420
        0
176
     1
 90
       50
176
     1
 90
        3
176
     1
 62
     5
420
      255
176
     1
290
     0
176
     1
 90
       50
176
     1
 90
       50
176
     1
 90
       50
176
     1
290
     0
176
     1
 90
       50
176
     1
 62
   256
176
     0
 40
1.0
176
     0
 90
        2
176
     1
  1
strokes_ogs.tif
176
     1
290
     0
176
     1
 40
1.0
176
     1
 40
1.0
176
     1
  0
VISUALSTYLE
  5
83C
102
{ACAD_REACTORS
330
825
102
}
330
825
100
AcDbVisualStyle
  2
Shaded with edges
 70
    26
177
     3
291
     0
 70
    58
 90
        2
176
     1
 90
        2
176
     1
 90
        1
176
     1
 90
        2
176
     1
 40
0.6
176
     1
 40
30.0
176
     1
 62
     7
420
 16777215
176
     1
 90
        1
176
     1
 90
       10
176
     1
 62
     7
176
     1
 62
   257
176
     1
 90
        2
176
     1
 90
        1
176
     1
 40
1.0
176
     1
 90
        8
176
     1
 62
   257
176
     1
 40
1.0
176
     1
 90
        1
176
     1
 90
        6
176
     1
 90
        2
176
     1
 62
     7
176
     1
 90
        3
176
     1
 90
        0
176
     1
 90
        0
176
     1
290
     0
176
     1
 90
        5
176
     1
 40
0.0
176
     1
 90
        0
176
     1
290
     0
176
     1
290
     1
176
     1
290
     1
176
     1
290
     0
176
     1
290
     0
176
     1
290
     0
176
     1
290
     0
176
     1
290
     0
176
     1
290
     0
176
     1
 90
       50
176
     1
 40
0.0
176
     1
 40
1.0
176
     1
 90
        0
176
     1
 62
    18
420
        0
176
     1
 90
       50
176
     1
 90
        3
176
     1
 62
     5
420
      255
176
     1
290
     0
176
     1
 90
       50
176
     1
 90
       50
176
     1
 90
       50
176
     1
290
     0
176
     1
 90
       50
176
     1
 62
   256
176
     0
 40
1.0
176
     0
 90
        2
176
     1
  1
strokes_ogs.tif
176
     1
290
     0
176
     1
 40
1.0
176
     1
 40
1.0
176
     1
  0
VISUALSTYLE
  5
839
102
{ACAD_REACTORS
330
825
102
}
330
825
100
AcDbVisualStyle
  2
Shades of Gray
 70
    23
177
     3
291
     0
 70
    58
 90
        2
176
     1
 90
        2
176
     1
 90
        3
176
     1
 90
        0
176
     1
 40
0.6
176
     1
 40
30.0
176
     1
 62
     7
420
 16777215
176
     1
 90
        2
176
     1
 90
        2
176
     1
 62
     7
176
     1
 62
     7
176
     1
 90
        1
176
     1
 90
        1
176
     1
 40
40.0
176
     1
 90
        8
176
     1
 62
     7
176
     1
 40
1.0
176
     1
 90
        1
176
     1
 90
        6
176
     1
 90
        2
176
     1
 62
     7
176
     1
 90
        3
176
     1
 90
        0
176
     1
 90
        0
176
     1
290
     0
176
     1
 90
        1
176
     1
 40
0.0
176
     1
 90
        0
176
     1
290
     0
176
     1
290
     1
176
     1
290
     1
176
     1
290
     0
176
     1
290
     0
176
     1
290
     0
176
     1
290
     0
176
     1
290
     0
176
     1
290
     0
176
     1
 90
       50
176
     1
 40
0.0
176
     1
 40
1.0
176
     1
 90
        0
176
     1
 62
    18
420
        0
176
     1
 90
       50
176
     1
 90
        3
176
     1
 62
     5
420
      255
176
     1
290
     0
176
     1
 90
       50
176
     1
 90
       50
176
     1
 90
       50
176
     1
290
     0
176
     1
 90
       50
176
     1
 62
   256
176
     0
 40
1.0
176
     0
 90
        2
176
     1
  1
strokes_ogs.tif
176
     1
290
     0
176
     1
 40
1.0
176
     1
 40
1.0
176
     1
  0
VISUALSTYLE
  5
83A
102
{ACAD_REACTORS
330
825
102
}
330
825
100
AcDbVisualStyle
  2
Sketchy
 70
    24
177
     3
291
     0
 70
    58
 90
        1
176
     1
 90
        2
176
     1
 90
        2
176
     1
 90
        0
176
     1
 40
0.6
176
     1
 40
30.0
176
     1
 62
     7
420
 16777215
176
     1
 90
        2
176
     1
 90
        2
176
     1
 62
     7
176
     1
 62
     7
176
     1
 90
        1
176
     1
 90
        1
176
     1
 40
40.0
176
     1
 90
       11
176
     1
 62
     7
176
     1
 40
1.0
176
     1
 90
        1
176
     1
 90
        6
176
     1
 90
        2
176
     1
 62
     7
176
     1
 90
        6
176
     1
 90
        0
176
     1
 90
        0
176
     1
290
     0
176
     1
 90
        1
176
     1
 40
0.0
176
     1
 90
        0
176
     1
290
     0
176
     1
290
     1
176
     1
290
     1
176
     1
290
     0
176
     1
290
     0
176
     1
290
     0
176
     1
290
     0
176
     1
290
     0
176
     1
290
     0
176
     1
 90
       50
176
     1
 40
0.0
176
     1
 40
1.0
176
     1
 90
        0
176
     1
 62
    18
420
        0
176
     1
 90
       50
176
     1
 90
        3
176
     1
 62
     5
420
      255
176
     1
290
     0
176
     1
 90
       50
176
     1
 90
       50
176
     1
 90
       50
176
     1
290
     0
176
     1
 90
       50
176
     1
 62
   256
176
     0
 40
1.0
176
     0
 90
        2
176
     1
  1
strokes_ogs.tif
176
     1
290
     0
176
     1
 40
1.0
176
     1
 40
1.0
176
     1
  0
VISUALSTYLE
  5
832
102
{ACAD_REACTORS
330
825
102
}
330
825
100
AcDbVisualStyle
  2
Thicken
 70
    13
177
     3
291
     1
 70
    58
 90
        2
176
     1
 90
        2
176
     1
 90
        0
176
     1
 90
        0
176
     1
 40
0.6
176
     1
 40
30.0
176
     1
 62
     7
420
 16777215
176
     1
 90
        1
176
     1
 90
        4
176
     1
 62
     7
176
     1
 62
   257
176
     1
 90
        1
176
     1
 90
        1
176
     1
 40
1.0
176
     1
 90
       12
176
     1
 62
     7
176
     1
 40
1.0
176
     1
 90
        1
176
     1
 90
        6
176
     1
 90
        2
176
     1
 62
     7
176
     1
 90
        5
176
     1
 90
        0
176
     1
 90
        0
176
     1
290
     0
176
     1
 90
        1
176
     1
 40
0.0
176
     1
 90
        0
176
     1
290
     0
176
     1
290
     1
176
     1
290
     1
176
     1
290
     0
176
     1
290
     0
176
     1
290
     0
176
     1
290
     0
176
     1
290
     0
176
     1
290
     0
176
     1
 90
       50
176
     1
 40
0.0
176
     1
 40
1.0
176
     1
 90
        0
176
     1
 62
    18
420
        0
176
     1
 90
       50
176
     1
 90
        3
176
     1
 62
     5
420
      255
176
     1
290
     0
176
     1
 90
       50
176
     1
 90
       50
176
     1
 90
       50
176
     1
290
     0
176
     1
 90
       50
176
     1
 62
   256
176
     0
 40
1.0
176
     0
 90
        2
176
     1
  1
strokes_ogs.tif
176
     1
290
     0
176
     1
 40
1.0
176
     1
 40
1.0
176
     1
  0
VISUALSTYLE
  5
82B
102
{ACAD_REACTORS
330
825
102
}
330
825
100
AcDbVisualStyle
  2
Wireframe
 70
     5
177
     3
291
     0
 70
    58
 90
        0
176
     1
 90
        2
176
     1
 90
        0
176
     1
 90
        0
176
     1
 40
0.6
176
     1
 40
30.0
176
     1
 62
     7
420
 16777215
176
     1
 90
        1
176
     1
 90
        4
176
     1
 62
     7
176
     1
 62
   257
176
     1
 90
        1
176
     1
 90
        1
176
     1
 40
1.0
176
     1
 90
        0
176
     1
 62
   257
176
     1
 40
1.0
176
     1
 90
        1
176
     1
 90
        6
176
     1
 90
        2
176
     1
 62
     7
176
     1
 90
        3
176
     1
 90
        0
176
     1
 90
        0
176
     1
290
     0
176
     1
 90
        1
176
     1
 40
0.0
176
     1
 90
        0
176
     1
290
     0
176
     1
290
     1
176
     1
290
     1
176
     1
290
     0
176
     1
290
     0
176
     1
290
     0
176
     1
290
     0
176
     1
290
     0
176
     1
290
     0
176
     1
 90
       50
176
     1
 40
0.0
176
     1
 40
1.0
176
     1
 90
        0
176
     1
 62
    18
420
        0
176
     1
 90
       50
176
     1
 90
        3
176
     1
 62
     5
420
      255
176
     1
290
     0
176
     1
 90
       50
176
     1
 90
       50
176
     1
 90
       50
176
     1
290
     0
176
     1
 90
       50
176
     1
 62
   256
176
     0
 40
1.0
176
     0
 90
        2
176
     1
  1
strokes_ogs.tif
176
     1
290
     0
176
     1
 40
1.0
176
     1
 40
1.0
176
     1
  0
VISUALSTYLE
  5
83B
102
{ACAD_REACTORS
330
825
102
}
330
825
100
AcDbVisualStyle
  2
X-Ray
 70
    25
177
     3
291
     0
 70
    58
 90
        2
176
     1
 90
        2
176
     1
 90
        1
176
     1
 90
        1
176
     1
 40
0.5
176
     1
 40
30.0
176
     1
 62
     7
420
 16777215
176
     1
 90
        1
176
     1
 90
        0
176
     1
 62
     7
176
     1
 62
   257
176
     1
 90
        1
176
     1
 90
        1
176
     1
 40
1.0
176
     1
 90
        8
176
     1
 62
     7
176
     1
 40
1.0
176
     1
 90
        1
176
     1
 90
        6
176
     1
 90
        2
176
     1
 62
     7
176
     1
 90
        3
176
     1
 90
        0
176
     1
 90
        0
176
     1
290
     0
176
     1
 90
       13
176
     1
 40
0.0
176
     1
 90
        0
176
     1
290
     0
176
     1
290
     1
176
     1
290
     1
176
     1
290
     0
176
     1
290
     0
176
     1
290
     0
176
     1
290
     0
176
     1
290
     0
176
     1
290
     0
176
     1
 90
       50
176
     1
 40
0.0
176
     1
 40
1.0
176
     1
 90
        0
176
     1
 62
    18
420
        0
176
     1
 90
       50
176
     1
 90
        3
176
     1
 62
     5
420
      255
176
     1
290
     0
176
     1
 90
       50
176
     1
 90
       50
176
     1
 90
       50
176
     1
290
     0
176
     1
 90
       50
176
     1
 62
   256
176
     0
 40
1.0
176
     0
 90
        2
176
     1
  1
strokes_ogs.tif
176
     1
290
     0
176
     1
 40
1.0
176
     1
 40
1.0
176
     1
  0
DICTIONARYVAR
  5
906
102
{ACAD_REACTORS
330
905
102
}
330
905
100
DictionaryVariables
280
     0
  1
1:1
  0
DICTIONARYVAR
  5
90B
102
{ACAD_REACTORS
330
905
102
}
330
905
100
DictionaryVariables
280
     0
  1
Standard
  0
DICTIONARYVAR
  5
90A
102
{ACAD_REACTORS
330
905
102
}
330
905
100
DictionaryVariables
280
     0
  1
Standard
  0
XRECORD
  5
85C
102
{ACAD_REACTORS
330
85A
102
}
330
85A
100
AcDbXrecord
280
     1
1000
#ffffff
  0
XRECORD
  5
85D
102
{ACAD_REACTORS
330
85A
102
}
330
85A
100
AcDbXrecord
280
     1
1000
FullColor
  0
XRECORD
  5
85E
102
{ACAD_REACTORS
330
85A
102
}
330
85A
100
AcDbXrecord
280
     1
290
     1
  0
XRECORD
  5
85F
102
{ACAD_REACTORS
330
85A
102
}
330
85A
100
AcDbXrecord
280
     1
290
     1
  0
XRECORD
  5
860
102
{ACAD_REACTORS
330
85A
102
}
330
85A
100
AcDbXrecord
280
     1
290
     1
  0
XRECORD
  5
861
102
{ACAD_REACTORS
330
85A
102
}
330
85A
100
AcDbXrecord
280
     1
290
     1
  0
XRECORD
  5
862
102
{ACAD_REACTORS
330
85A
102
}
330
85A
100
AcDbXrecord
280
     1
1000
auto
  0
XRECORD
  5
863
102
{ACAD_REACTORS
330
85A
102
}
330
85A
100
AcDbXrecord
280
     1
1000
auto
  0
XRECORD
  5
864
102
{ACAD_REACTORS
330
85A
102
}
330
85A
100
AcDbXrecord
280
     1
1000
auto
  0
XRECORD
  5
865
102
{ACAD_REACTORS
330
85A
102
}
330
85A
100
AcDbXrecord
280
     1
1000
auto
  0
XRECORD
  5
866
102
{ACAD_REACTORS
330
85A
102
}
330
85A
100
AcDbXrecord
280
     1
1000
auto
  0
XRECORD
  5
867
102
{ACAD_REACTORS
330
85A
102
}
330
85A
100
AcDbXrecord
280
     1
1000
auto
  0
XRECORD
  5
868
102
{ACAD_REACTORS
330
85A
102
}
330
85A
100
AcDbXrecord
280
     1
1000
auto
  0
XRECORD
  5
869
102
{ACAD_REACTORS
330
85A
102
}
330
85A
100
AcDbXrecord
280
     1
1000
auto
  0
XRECORD
  5
86A
102
{ACAD_REACTORS
330
85A
102
}
330
85A
100
AcDbXrecord
280
     1
290
     0
  0
XRECORD
  5
86B
102
{ACAD_REACTORS
330
85A
102
}
330
85A
100
AcDbXrecord
280
     1
290
     0
  0
XRECORD
  5
86C
102
{ACAD_REACTORS
330
85A
102
}
330
85A
100
AcDbXrecord
280
     1
290
     0
  0
XRECORD
  5
86D
102
{ACAD_REACTORS
330
85A
102
}
330
85A
100
AcDbXrecord
280
     1
290
     0
  0
XRECORD
  5
86E
102
{ACAD_REACTORS
330
85A
102
}
330
85A
100
AcDbXrecord
280
     1
 90
    65537
  0
XRECORD
  5
86F
102
{ACAD_REACTORS
330
85A
102
}
330
85A
100
AcDbXrecord
280
     1
 90
    65537
  0
XRECORD
  5
870
102
{ACAD_REACTORS
330
85A
102
}
330
85A
100
AcDbXrecord
280
     1
 90
    65537
  0
XRECORD
  5
871
102
{ACAD_REACTORS
330
85A
102
}
330
85A
100
AcDbXrecord
280
     1
 90
    65537
  0
XRECORD
  5
872
102
{ACAD_REACTORS
330
85A
102
}
330
85A
100
AcDbXrecord
280
     1
1000
auto
  0
XRECORD
  5
873
102
{ACAD_REACTORS
330
85A
102
}
330
85A
100
AcDbXrecord
280
     1
1000
auto
  0
XRECORD
  5
874
102
{ACAD_REACTORS
330
85A
102
}
330
85A
100
AcDbXrecord
280
     1
1000
auto
  0
XRECORD
  5
875
102
{ACAD_REACTORS
330
85A
102
}
330
85A
100
AcDbXrecord
280
     1
1000
auto
  0
XRECORD
  5
876
102
{ACAD_REACTORS
330
85A
102
}
330
85A
100
AcDbXrecord
280
     1
1000
auto
  0
XRECORD
  5
877
102
{ACAD_REACTORS
330
85A
102
}
330
85A
100
AcDbXrecord
280
     1
1000
auto
  0
XRECORD
  5
878
102
{ACAD_REACTORS
330
85A
102
}
330
85A
100
AcDbXrecord
280
     1
1000
auto
  0
XRECORD
  5
879
102
{ACAD_REACTORS
330
85A
102
}
330
85A
100
AcDbXrecord
280
     1
1000
auto
  0
XRECORD
  5
87A
102
{ACAD_REACTORS
330
85A
102
}
330
85A
100
AcDbXrecord
280
     1
 90
        1
  0
XRECORD
  5
87B
102
{ACAD_REACTORS
330
85A
102
}
330
85A
100
AcDbXrecord
280
     1
 40
0.5
  0
XRECORD
  5
87C
102
{ACAD_REACTORS
330
85A
102
}
330
85A
100
AcDbXrecord
280
     1
 40
0.5
  0
XRECORD
  5
87D
102
{ACAD_REACTORS
330
85A
102
}
330
85A
100
AcDbXrecord
280
     1
 40
0.5
  0
XRECORD
  5
87E
102
{ACAD_REACTORS
330
85A
102
}
330
85A
100
AcDbXrecord
280
     1
 40
0.5
  0
XRECORD
  5
87F
102
{ACAD_REACTORS
330
85A
102
}
330
85A
100
AcDbXrecord
280
     1
290
     0
  0
XRECORD
  5
880
102
{ACAD_REACTORS
330
85A
102
}
330
85A
100
AcDbXrecord
280
     1
 90
        1
  0
XRECORD
  5
881
102
{ACAD_REACTORS
330
85A
102
}
330
85A
100
AcDbXrecord
280
     1
 40
-2.653145033730439
  0
XRECORD
  5
882
102
{ACAD_REACTORS
330
85A
102
}
330
85A
100
AcDbXrecord
280
     1
 40
-4.375529100529096
  0
XRECORD
  5
883
102
{ACAD_REACTORS
330
85A
102
}
330
85A
100
AcDbXrecord
280
     1
1000
Portrait
  0
XRECORD
  5
884
102
{ACAD_REACTORS
330
85A
102
}
330
85A
100
AcDbXrecord
280
     1
 40
11.0
  0
XRECORD
  5
885
102
{ACAD_REACTORS
330
85A
102
}
330
85A
100
AcDbXrecord
280
     1
 40
8.5
  0
XRECORD
  5
886
102
{ACAD_REACTORS
330
85A
102
}
330
85A
100
AcDbXrecord
280
     1
1000
0.189
  0
XRECORD
  5
887
102
{ACAD_REACTORS
330
85A
102
}
330
85A
100
AcDbXrecord
280
     1
290
     1
  0
XRECORD
  5
888
102
{ACAD_REACTORS
330
85A
102
}
330
85A
100
AcDbXrecord
280
     1
290
     0
  0
XRECORD
  5
889
102
{ACAD_REACTORS
330
85A
102
}
330
85A
100
AcDbXrecord
280
     1
1000
Inside
  0
XRECORD
  5
88A
102
{ACAD_REACTORS
330
85A
102
}
330
85A
100
AcDbXrecord
280
     1
1000
Arial,10,-1,5,50,0,0,0,0,0
  0
XRECORD
  5
88B
102
{ACAD_REACTORS
330
85A
102
}
330
85A
100
AcDbXrecord
280
     1
1000
TopLeft
  0
XRECORD
  5
88C
102
{ACAD_REACTORS
330
85A
102
}
330
85A
100
AcDbXrecord
280
     1
1000
3.27.1
  0
XRECORD
  5
88D
102
{ACAD_REACTORS
330
85A
102
}
330
85A
100
AcDbXrecord
280
     1
 90
        1
  0
XRECORD
  5
88E
102
{ACAD_REACTORS
330
85A
102
}
330
85A
100
AcDbXrecord
280
     1
  0
XRECORD
  5
88F
102
{ACAD_REACTORS
330
85A
102
}
330
85A
100
AcDbXrecord
280
     1
 40
15.06969526931178
  0
XRECORD
  5
890
102
{ACAD_REACTORS
330
85A
102
}
330
85A
100
AcDbXrecord
280
     1
 40
27.07479704688117
  0
DICTIONARY
  5
907
330
855
100
AcDbDictionary
280
     1
281
     1
  3
ACAD_ROUNDTRIP_2008_TABLESTYLE_CELLSTYLEMAP
360
908
  0
CELLSTYLEMAP
  5
908
102
{ACAD_REACTORS
330
907
102
}
330
907
100
AcDbCellStyleMap
 90
        3
300
CELLSTYLE
  1
TABLEFORMAT_BEGIN
 90
        5
170
     1
 91
        0
 92
    32768
 62
   257
 93
        1
300
CONTENTFORMAT
  1
CONTENTFORMAT_BEGIN
 90
        0
 91
        0
 92
        4
 93
        0
300

 40
0.0
140
1.0
 94
        5
 62
     0
340
80D
144
0.25
309
CONTENTFORMAT_END
171
     1
301
MARGIN
  1
CELLMARGIN_BEGIN
 40
0.06
 40
0.06
 40
0.06
 40
0.06
 40
0.06
 40
0.06
309
CELLMARGIN_END
 94
        6
 95
        1
302
GRIDFORMAT
  1
GRIDFORMAT_BEGIN
 90
        0
 91
        1
 62
     0
 92
       -2
340
80F
 93
        0
 40
0.045
309
GRIDFORMAT_END
 95
        2
302
GRIDFORMAT
  1
GRIDFORMAT_BEGIN
 90
        0
 91
        1
 62
     0
 92
       -2
340
80F
 93
        0
 40
0.045
309
GRIDFORMAT_END
 95
        4
302
GRIDFORMAT
  1
GRIDFORMAT_BEGIN
 90
        0
 91
        1
 62
     0
 92
       -2
340
80F
 93
        0
 40
0.045
309
GRIDFORMAT_END
 95
        8
302
GRIDFORMAT
  1
GRIDFORMAT_BEGIN
 90
        0
 91
        1
 62
     0
 92
       -2
340
80F
 93
        0
 40
0.045
309
GRIDFORMAT_END
 95
       16
302
GRIDFORMAT
  1
GRIDFORMAT_BEGIN
 90
        0
 91
        1
 62
     0
 92
       -2
340
80F
 93
        0
 40
0.045
309
GRIDFORMAT_END
 95
       32
302
GRIDFORMAT
  1
GRIDFORMAT_BEGIN
 90
        0
 91
        1
 62
     0
 92
       -2
340
80F
 93
        0
 40
0.045
309
GRIDFORMAT_END
309
TABLEFORMAT_END
  1
CELLSTYLE_BEGIN
 90
        1
 91
        1
300
_TITLE
309
CELLSTYLE_END
300
CELLSTYLE
  1
TABLEFORMAT_BEGIN
 90
        5
170
     1
 91
        0
 92
        0
 62
   257
 93
        1
300
CONTENTFORMAT
  1
CONTENTFORMAT_BEGIN
 90
        0
 91
        0
 92
        4
 93
        0
300

 40
0.0
140
1.0
 94
        5
 62
     0
340
80D
144
0.18
309
CONTENTFORMAT_END
171
     1
301
MARGIN
  1
CELLMARGIN_BEGIN
 40
0.06
 40
0.06
 40
0.06
 40
0.06
 40
0.06
 40
0.06
309
CELLMARGIN_END
 94
        6
 95
        1
302
GRIDFORMAT
  1
GRIDFORMAT_BEGIN
 90
        0
 91
        1
 62
     0
 92
       -2
340
80F
 93
        0
 40
0.045
309
GRIDFORMAT_END
 95
        2
302
GRIDFORMAT
  1
GRIDFORMAT_BEGIN
 90
        0
 91
        1
 62
     0
 92
       -2
340
80F
 93
        0
 40
0.045
309
GRIDFORMAT_END
 95
        4
302
GRIDFORMAT
  1
GRIDFORMAT_BEGIN
 90
        0
 91
        1
 62
     0
 92
       -2
340
80F
 93
        0
 40
0.045
309
GRIDFORMAT_END
 95
        8
302
GRIDFORMAT
  1
GRIDFORMAT_BEGIN
 90
        0
 91
        1
 62
     0
 92
       -2
340
80F
 93
        0
 40
0.045
309
GRIDFORMAT_END
 95
       16
302
GRIDFORMAT
  1
GRIDFORMAT_BEGIN
 90
        0
 91
        1
 62
     0
 92
       -2
340
80F
 93
        0
 40
0.045
309
GRIDFORMAT_END
 95
       32
302
GRIDFORMAT
  1
GRIDFORMAT_BEGIN
 90
        0
 91
        1
 62
     0
 92
       -2
340
80F
 93
        0
 40
0.045
309
GRIDFORMAT_END
309
TABLEFORMAT_END
  1
CELLSTYLE_BEGIN
 90
        2
 91
        1
300
_HEADER
309
CELLSTYLE_END
300
CELLSTYLE
  1
TABLEFORMAT_BEGIN
 90
        5
170
     1
 91
        0
 92
        0
 62
   257
 93
        1
300
CONTENTFORMAT
  1
CONTENTFORMAT_BEGIN
 90
        0
 91
        0
 92
        4
 93
        0
300

 40
0.0
140
1.0
 94
        2
 62
     0
340
80D
144
0.18
309
CONTENTFORMAT_END
171
     1
301
MARGIN
  1
CELLMARGIN_BEGIN
 40
0.06
 40
0.06
 40
0.06
 40
0.06
 40
0.06
 40
0.06
309
CELLMARGIN_END
 94
        6
 95
        1
302
GRIDFORMAT
  1
GRIDFORMAT_BEGIN
 90
        0
 91
        1
 62
     0
 92
       -2
340
80F
 93
        0
 40
0.045
309
GRIDFORMAT_END
 95
        2
302
GRIDFORMAT
  1
GRIDFORMAT_BEGIN
 90
        0
 91
        1
 62
     0
 92
       -2
340
80F
 93
        0
 40
0.045
309
GRIDFORMAT_END
 95
        4
302
GRIDFORMAT
  1
GRIDFORMAT_BEGIN
 90
        0
 91
        1
 62
     0
 92
       -2
340
80F
 93
        0
 40
0.045
309
GRIDFORMAT_END
 95
        8
302
GRIDFORMAT
  1
GRIDFORMAT_BEGIN
 90
        0
 91
        1
 62
     0
 92
       -2
340
80F
 93
        0
 40
0.045
309
GRIDFORMAT_END
 95
       16
302
GRIDFORMAT
  1
GRIDFORMAT_BEGIN
 90
        0
 91
        1
 62
     0
 92
       -2
340
80F
 93
        0
 40
0.045
309
GRIDFORMAT_END
 95
       32
302
GRIDFORMAT
  1
GRIDFORMAT_BEGIN
 90
        0
 91
        1
 62
     0
 92
       -2
340
80F
 93
        0
 40
0.045
309
GRIDFORMAT_END
309
TABLEFORMAT_END
  1
CELLSTYLE_BEGIN
 90
        3
 91
        2
300
_DATA
309
CELLSTYLE_END
  0
ENDSEC
  0
EOF
