  0
SECTION
  2
HEADER
  9
$ACADVER
  1
AC1015
  9
$ACADMAINTVER
 70
   20
  9
$DWGCODEPAGE
  3
ANSI_1252
  9
$INSBASE
 10
0.0000
 20
0.0000
 30
0.0000
  9
$EXTMIN
 10
0.0000
 20
0.0000
 30
0.0000
  9
$EXTMAX
 10
1.2701
 20
1.3255
 30
0.0000
  9
$LIMMIN
 10
0.0000
 20
0.0000
  9
$LIMMAX
 10
1.2701
 20
1.3255
  9
$ORTHOMODE
 70
     0
  9
$REGENMODE
 70
     1
  9
$FILLMODE
 70
     1
  9
$QTEXTMODE
 70
     0
  9
$MIRRTEXT
 70
     0
  9
$LTSCALE
 40
1.0
  9
$ATTMODE
 70
     1
  9
$TEXTSIZE
 40
0.2
  9
$TRACEWID
 40
0.05
  9
$TEXTSTYLE
  7
Standard
  9
$CLAYER
  8
0
  9
$CELTYPE
  6
ByLayer
  9
$CECOLOR
 62
   256
  9
$CELTSCALE
 40
1.0
  9
$DISPSILH
 70
     0
  9
$DIMSCALE
 40
1.0
  9
$DIMASZ
 40
0.18
  9
$DIMEXO
 40
0.0625
  9
$DIMDLI
 40
0.38
  9
$DIMRND
 40
0.0
  9
$DIMDLE
 40
0.0
  9
$DIMEXE
 40
0.18
  9
$DIMTP
 40
0.0
  9
$DIMTM
 40
0.0
  9
$DIMTXT
 40
0.18
  9
$DIMCEN
 40
0.09
  9
$DIMTSZ
 40
0.0
  9
$DIMTOL
 70
     0
  9
$DIMLIM
 70
     0
  9
$DIMTIH
 70
     1
  9
$DIMTOH
 70
     1
  9
$DIMSE1
 70
     0
  9
$DIMSE2
 70
     0
  9
$DIMTAD
 70
     0
  9
$DIMZIN
 70
     0
  9
$DIMBLK
  1

  9
$DIMASO
 70
     1
  9
$DIMSHO
 70
     1
  9
$DIMPOST
  1

  9
$DIMAPOST
  1

  9
$DIMALT
 70
     0
  9
$DIMALTD
 70
     2
  9
$DIMALTF
 40
25.4
  9
$DIMLFAC
 40
1.0
  9
$DIMTOFL
 70
     0
  9
$DIMTVP
 40
0.0
  9
$DIMTIX
 70
     0
  9
$DIMSOXD
 70
     0
  9
$DIMSAH
 70
     0
  9
$DIMBLK1
  1

  9
$DIMBLK2
  1

  9
$DIMSTYLE
  2
Standard
  9
$DIMCLRD
 70
     0
  9
$DIMCLRE
 70
     0
  9
$DIMCLRT
 70
     0
  9
$DIMTFAC
 40
1.0
  9
$DIMGAP
 40
0.09
  9
$DIMJUST
 70
     0
  9
$DIMSD1
 70
     0
  9
$DIMSD2
 70
     0
  9
$DIMTOLJ
 70
     1
  9
$DIMTZIN
 70
     0
  9
$DIMALTZ
 70
     0
  9
$DIMALTTZ
 70
     0
  9
$DIMUPT
 70
     0
  9
$DIMDEC
 70
     4
  9
$DIMTDEC
 70
     4
  9
$DIMALTU
 70
     2
  9
$DIMALTTD
 70
     2
  9
$DIMTXSTY
  7
Standard
  9
$DIMAUNIT
 70
     0
  9
$DIMADEC
 70
     0
  9
$DIMALTRND
 40
0.0
  9
$DIMAZIN
 70
     0
  9
$DIMDSEP
 70
    46
  9
$DIMATFIT
 70
     3
  9
$DIMFRAC
 70
     0
  9
$DIMLDRBLK
  1

  9
$DIMLUNIT
 70
     2
  9
$DIMLWD
 70
    -2
  9
$DIMLWE
 70
    -2
  9
$DIMTMOVE
 70
     0
  9
$LUNITS
 70
     2
  9
$LUPREC
 70
     4
  9
$SKETCHINC
 40
0.1
  9
$FILLETRAD
 40
0.0
  9
$AUNITS
 70
     0
  9
$AUPREC
 70
     0
  9
$MENU
  1
.
  9
$ELEVATION
 40
0.0
  9
$PELEVATION
 40
0.0
  9
$THICKNESS
 40
0.0
  9
$LIMCHECK
 70
     0
  9
$CHAMFERA
 40
0.0
  9
$CHAMFERB
 40
0.0
  9
$CHAMFERC
 40
0.0
  9
$CHAMFERD
 40
0.0
  9
$SKPOLY
 70
     0
  9
$TDCREATE
 40
2453411.634212141
  9
$TDUCREATE
 40
2453411.592545474
  9
$TDUPDATE
 40
2453762.434476216
  9
$TDUUPDATE
 40
2453762.392809549
  9
$TDINDWG
 40
0.0136127315
  9
$TDUSRTIMER
 40
0.0136120023
  9
$USRTIMER
 70
     1
  9
$ANGBASE
 50
0.0
  9
$ANGDIR
 70
     0
  9
$PDMODE
 70
     0
  9
$PDSIZE
 40
0.0
  9
$PLINEWID
 40
0.0
  9
$SPLFRAME
 70
     0
  9
$SPLINETYPE
 70
     6
  9
$SPLINESEGS
 70
     8
  9
$HANDSEED
  5
1FFF0038
  9
$SURFTAB1
 70
     6
  9
$SURFTAB2
 70
     6
  9
$SURFTYPE
 70
     6
  9
$SURFU
 70
     6
  9
$SURFV
 70
     6
  9
$UCSBASE
  2

  9
$UCSNAME
  2

  9
$UCSORG
 10
0.0
 20
0.0
 30
0.0
  9
$UCSXDIR
 10
1.0
 20
0.0
 30
0.0
  9
$UCSYDIR
 10
0.0
 20
1.0
 30
0.0
  9
$UCSORTHOREF
  2

  9
$UCSORTHOVIEW
 70
     0
  9
$UCSORGTOP
 10
0.0
 20
0.0
 30
0.0
  9
$UCSORGBOTTOM
 10
0.0
 20
0.0
 30
0.0
  9
$UCSORGLEFT
 10
0.0
 20
0.0
 30
0.0
  9
$UCSORGRIGHT
 10
0.0
 20
0.0
 30
0.0
  9
$UCSORGFRONT
 10
0.0
 20
0.0
 30
0.0
  9
$UCSORGBACK
 10
0.0
 20
0.0
 30
0.0
  9
$PUCSBASE
  2

  9
$PUCSNAME
  2

  9
$PUCSORG
 10
0.0
 20
0.0
 30
0.0
  9
$PUCSXDIR
 10
1.0
 20
0.0
 30
0.0
  9
$PUCSYDIR
 10
0.0
 20
1.0
 30
0.0
  9
$PUCSORTHOREF
  2

  9
$PUCSORTHOVIEW
 70
     0
  9
$PUCSORGTOP
 10
0.0
 20
0.0
 30
0.0
  9
$PUCSORGBOTTOM
 10
0.0
 20
0.0
 30
0.0
  9
$PUCSORGLEFT
 10
0.0
 20
0.0
 30
0.0
  9
$PUCSORGRIGHT
 10
0.0
 20
0.0
 30
0.0
  9
$PUCSORGFRONT
 10
0.0
 20
0.0
 30
0.0
  9
$PUCSORGBACK
 10
0.0
 20
0.0
 30
0.0
  9
$USERI1
 70
     0
  9
$USERI2
 70
     0
  9
$USERI3
 70
     0
  9
$USERI4
 70
     0
  9
$USERI5
 70
     0
  9
$USERR1
 40
0.0
  9
$USERR2
 40
0.0
  9
$USERR3
 40
0.0
  9
$USERR4
 40
0.0
  9
$USERR5
 40
0.0
  9
$WORLDVIEW
 70
     1
  9
$SHADEDGE
 70
     3
  9
$SHADEDIF
 70
    70
  9
$TILEMODE
 70
     1
  9
$MAXACTVP
 70
    64
  9
$PINSBASE
 10
0.0
 20
0.0
 30
0.0
  9
$PLIMCHECK
 70
     0
  9
$PEXTMIN
 10
0.0
 20
0.0
 30
0.0
  9
$PEXTMAX
 10
0.0
 20
0.0
 30
0.0
  9
$PLIMMIN
 10
0.0
 20
0.0
  9
$PLIMMAX
 10
12.0
 20
9.0
  9
$UNITMODE
 70
     0
  9
$VISRETAIN
 70
     1
  9
$PLINEGEN
 70
     0
  9
$PSLTSCALE
 70
     1
  9
$TREEDEPTH
 70
  3020
  9
$CMLSTYLE
  2
Standard
  9
$CMLJUST
 70
     0
  9
$CMLSCALE
 40
1.0
  9
$PROXYGRAPHICS
 70
     1
  9
$MEASUREMENT
 70
     0
  9
$CELWEIGHT
370
    -1
  9
$ENDCAPS
280
     0
  9
$JOINSTYLE
280
     0
  9
$LWDISPLAY
290
     0
  9
$INSUNITS
 70
     1
  9
$HYPERLINKBASE
  1

  9
$STYLESHEET
  1

  9
$XEDIT
290
     1
  9
$CEPSNTYPE
380
     0
  9
$PSTYLEMODE
290
     1
  9
$FINGERPRINTGUID
  2
{FDEAD576-A652-11D2-9A35-0060089B3A3F}
  9
$VERSIONGUID
  2
{572C4CD7-C9A6-45E8-922E-30EFA218C16C}
  9
$EXTNAMES
290
     1
  9
$PSVPSCALE
 40
0.0
  9
$OLESTARTUP
290
     0
  0
ENDSEC
  0
SECTION
  2
CLASSES
  0
CLASS
  1
ACDBDICTIONARYWDFLT
  2
AcDbDictionaryWithDefault
  3
ObjectDBX Classes
 90
        0
280
     0
281
     0
  0
CLASS
  1
ACDBPLACEHOLDER
  2
AcDbPlaceHolder
  3
ObjectDBX Classes
 90
        0
280
     0
281
     0
  0
CLASS
  1
LAYOUT
  2
AcDbLayout
  3
ObjectDBX Classes
 90
        0
280
     0
281
     0
  0
CLASS
  1
DICTIONARYVAR
  2
AcDbDictionaryVar
  3
ObjectDBX Classes
 90
        0
280
     0
281
     0
  0
CLASS
  1
TABLESTYLE
  2
AcDbTableStyle
  3
ObjectDBX Classes
 90
     2047
280
     0
281
     0
  0
ENDSEC
  0
SECTION
  2
TABLES
  0
TABLE
  2
VPORT
  5
8
330
0
100
AcDbSymbolTable
 70
     7
  0
VPORT
  5
1FFF002F
330
8
100
AcDbSymbolTableRecord
100
AcDbViewportTableRecord
  2
*Active
 70
     0
 10
0.0
 20
0.0
 11
1.0
 21
1.0
 12
200.7453373884358
 22
139.2151531518496
 13
0.0
 23
0.0
 14
0.5
 24
0.5
 15
0.5
 25
0.5
 16
0.0
 26
0.0
 36
1.0
 17
0.0
 27
0.0
 37
0.0
 40
36.21467441628658
 41
1.848534201954397
 42
50.0
 43
0.0
 44
0.0
 50
0.0
 51
0.0
 71
     0
 72
  1000
 73
     1
 74
     3
 75
     0
 76
     0
 77
     0
 78
     0
281
     0
 65
     1
110
0.0
120
0.0
130
0.0
111
1.0
121
0.0
131
0.0
112
0.0
122
1.0
132
0.0
 79
     0
146
0.0
  0
ENDTAB
  0
TABLE
  2
LTYPE
  5
5
330
0
100
AcDbSymbolTable
 70
     9
  0
LTYPE
  5
14
330
5
100
AcDbSymbolTableRecord
100
AcDbLinetypeTableRecord
  2
ByBlock
 70
     0
  3

 72
    65
 73
     0
 40
0.0
  0
LTYPE
  5
15
330
5
100
AcDbSymbolTableRecord
100
AcDbLinetypeTableRecord
  2
ByLayer
 70
     0
  3

 72
    65
 73
     0
 40
0.0
  0
LTYPE
  5
16
330
5
100
AcDbSymbolTableRecord
100
AcDbLinetypeTableRecord
  2
Continuous
 70
     0
  3
Solid line
 72
    65
 73
     0
 40
0.0
  0
LTYPE
  5
1FFF0009
330
5
100
AcDbSymbolTableRecord
100
AcDbLinetypeTableRecord
  2
DOT
 70
     0
  3
ISO dot . . . . . . . . . . . . . . . . . . . .
 72
    65
 73
     2
 40
3.0
 49
0.0
 74
     0
 49
-3.0
 74
     0
  0
LTYPE
  5
1FFF000A
330
5
100
AcDbSymbolTableRecord
100
AcDbLinetypeTableRecord
  2
DASH
 70
     0
  3
ISO dash __ __ __ __ __ __ __ __ __ __ __ __ __
 72
    65
 73
     2
 40
15.0
 49
12.0
 74
     0
 49
-3.0
 74
     0
  0
LTYPE
  5
1FFF000B
330
5
100
AcDbSymbolTableRecord
100
AcDbLinetypeTableRecord
  2
LONGDASH
 70
     0
  3
Dashed (2x) ____  ____  ____  ____  ____  ___
 72
    65
 73
     2
 40
1.5
 49
1.0
 74
     0
 49
-0.5
 74
     0
  0
LTYPE
  5
1FFF000C
330
5
100
AcDbSymbolTableRecord
100
AcDbLinetypeTableRecord
  2
DASHDOT
 70
     0
  3
ISO dash dot __ . __ . __ . __ . __ . __ . __ .
 72
    65
 73
     4
 40
18.0
 49
12.0
 74
     0
 49
-3.0
 74
     0
 49
0.0
 74
     0
 49
-3.0
 74
     0
  0
LTYPE
  5
1FFF000D
330
5
100
AcDbSymbolTableRecord
100
AcDbLinetypeTableRecord
  2
LONGDASHDASH
 70
     0
  3
ISO long-dash short-dash ____ __ ____ __ ____ _
 72
    65
 73
     4
 40
36.0
 49
24.0
 74
     0
 49
-3.0
 74
     0
 49
6.0
 74
     0
 49
-3.0
 74
     0
  0
LTYPE
  5
1FFF000E
330
5
100
AcDbSymbolTableRecord
100
AcDbLinetypeTableRecord
  2
LONGDASHDASHDASH
 70
     0
  3
ISO long-dash double-short-dash ____ __ __ ____
 72
    65
 73
     6
 40
45.0
 49
24.0
 74
     0
 49
-3.0
 74
     0
 49
6.0
 74
     0
 49
-3.0
 74
     0
 49
6.0
 74
     0
 49
-3.0
 74
     0
  0
LTYPE
  5
1FFF000F
330
5
100
AcDbSymbolTableRecord
100
AcDbLinetypeTableRecord
  2
DASHDOTDOT
 70
     0
  3
ISO dash double-dot __ . . __ . . __ . . __ . .
 72
    65
 73
     6
 40
21.0
 49
12.0
 74
     0
 49
-3.0
 74
     0
 49
0.0
 74
     0
 49
-3.0
 74
     0
 49
0.0
 74
     0
 49
-3.0
 74
     0
  0
LTYPE
  5
1FFF0012
330
5
100
AcDbSymbolTableRecord
100
AcDbLinetypeTableRecord
  2
DASHDOTDASHDOT
 70
     0
  3
ISO double-dash dot __ __ . __ __ . __ __ . __ 
 72
    65
 73
     6
 40
33.0
 49
12.0
 74
     0
 49
-3.0
 74
     0
 49
12.0
 74
     0
 49
-3.0
 74
     0
 49
0.0
 74
     0
 49
-3.0
 74
     0
  0
ENDTAB
  0
TABLE
  2
LAYER
  5
2
330
0
100
AcDbSymbolTable
 70
   258
  0
LAYER
  5
10
330
2
100
AcDbSymbolTableRecord
100
AcDbLayerTableRecord
  2
0
 70
     0
 62
     7
  6
Continuous
370
    -3
390
F
  0
ENDTAB
  0
TABLE
  2
STYLE
  5
3
330
0
100
AcDbSymbolTable
 70
     2
  0
STYLE
  5
11
330
3
100
AcDbSymbolTableRecord
100
AcDbTextStyleTableRecord
  2
Standard
 70
     0
 40
0.0
 41
1.0
 50
0.0
 71
     0
 42
0.2
  3
txt
  4

  0
STYLE
  5
1FFF0008
330
3
100
AcDbSymbolTableRecord
100
AcDbTextStyleTableRecord
  2

 70
     1
 40
0.0
 41
1.0
 50
0.0
 71
     0
 42
0.2
  3
ltypeshp.shx
  4

  0
ENDTAB
  0
TABLE
  2
VIEW
  5
6
330
0
100
AcDbSymbolTable
 70
     0
  0
ENDTAB
  0
TABLE
  2
UCS
  5
7
330
0
100
AcDbSymbolTable
 70
     0
  0
ENDTAB
  0
TABLE
  2
APPID
  5
9
330
0
100
AcDbSymbolTable
 70
     1
  0
APPID
  5
12
330
9
100
AcDbSymbolTableRecord
100
AcDbRegAppTableRecord
  2
ACAD
 70
     0
  0
ENDTAB
  0
TABLE
  2
DIMSTYLE
  5
A
330
0
100
AcDbSymbolTable
 70
     1
100
AcDbDimStyleTable
 71
     0
  0
DIMSTYLE
105
27
330
A
100
AcDbSymbolTableRecord
100
AcDbDimStyleTableRecord
  2
Standard
 70
     0
340
11
  0
ENDTAB
  0
TABLE
  2
BLOCK_RECORD
  5
1
330
0
100
AcDbSymbolTable
 70
     1
  0
BLOCK_RECORD
  5
1F
330
1
100
AcDbSymbolTableRecord
100
AcDbBlockTableRecord
  2
*Model_Space
340
22
  0
BLOCK_RECORD
  5
58
330
1
100
AcDbSymbolTableRecord
100
AcDbBlockTableRecord
  2
*Paper_Space
340
59
  0
BLOCK_RECORD
  5
5D
330
1
100
AcDbSymbolTableRecord
100
AcDbBlockTableRecord
  2
*Paper_Space0
340
5E
  0
ENDTAB
  0
ENDSEC
  0
SECTION
  2
BLOCKS
  0
BLOCK
  5
20
330
1F
100
AcDbEntity
  8
0
100
AcDbBlockBegin
  2
*Model_Space
 70
     0
 10
0.0
 20
0.0
 30
0.0
  3
*Model_Space
  1

  0
ENDBLK
  5
21
330
1F
100
AcDbEntity
  8
0
100
AcDbBlockEnd
  0
BLOCK
  5
5A
330
58
100
AcDbEntity
 67
     1
  8
0
100
AcDbBlockBegin
  2
*Paper_Space
 70
     0
 10
0.0
 20
0.0
 30
0.0
  3
*Paper_Space
  1

  0
ENDBLK
  5
5B
330
58
100
AcDbEntity
 67
     1
  8
0
100
AcDbBlockEnd
  0
BLOCK
  5
5F
330
5D
100
AcDbEntity
 67
     1
  8
0
100
AcDbBlockBegin
  2
*Paper_Space0
 70
     0
 10
0.0
 20
0.0
 30
0.0
  3
*Paper_Space0
  1

  0
ENDBLK
  5
60
330
5D
100
AcDbEntity
 67
     1
  8
0
100
AcDbBlockEnd
  0
ENDSEC
  0
SECTION
  2
ENTITIES
  0
SOLID
 62
222
 5
196
100
AcDbEntity
 8
0
100
AcDbTrace
 10
0.7512
 20
0.6196
 11
0.8332
 21
0.6196
 12
0.7512
 22
0.7016
 13
0.8332
 23
0.7016
  0
LWPOLYLINE
 62
222
 5
197
100
AcDbEntity
 8
0
100
AcDbPolyline
 90
  3
 10
0.6717
 20
0.6606
 42
1.0
 40
0.0410
 41
0.0410
 10
0.7127
 20
0.6606
 42
1.0
 40
0.0410
 41
0.0410
 10
0.6717
 20
0.6606
 40
0.0410
 41
0.0410
  0
LWPOLYLINE
 62
222
 5
198
100
AcDbEntity
 8
0
100
AcDbPolyline
 90
  3
 10
0.5717
 20
0.6606
 42
1.0
 40
0.0410
 41
0.0410
 10
0.6127
 20
0.6606
 42
1.0
 40
0.0410
 41
0.0410
 10
0.5717
 20
0.6606
 40
0.0410
 41
0.0410
  0
LWPOLYLINE
 62
222
 5
199
100
AcDbEntity
 8
0
100
AcDbPolyline
 90
  3
 10
0.4717
 20
0.6606
 42
1.0
 40
0.0410
 41
0.0410
 10
0.5127
 20
0.6606
 42
1.0
 40
0.0410
 41
0.0410
 10
0.4717
 20
0.6606
 40
0.0410
 41
0.0410
  0
HATCH
 62
222
 5
19A
100
AcDbEntity
 8
0
100
AcDbHatch
 10
0.0000
 20
0.0000
 210
0.0000
 220
0.0000
 230
1.0000
 2
SOLID
 70
1
 71
0
 91
1
 92
1
 93
4
 72
1
 10
1.1233
 20
1.1378
 11
1.1572
 21
1.0894
 72
1
 10
1.1572
 20
1.0894
 11
1.1249
 21
1.0668
 72
1
 10
1.1249
 20
1.0668
 11
1.0910
 21
1.1152
 72
1
 10
1.0910
 20
1.1152
 11
1.1233
 21
1.1378
 97
  0
 75
  0
 76
  1
 98
  1
 10
0.0000
 20
0.0000
  0
LWPOLYLINE
 62
222
 5
19B
100
AcDbEntity
 8
0
100
AcDbPolyline
 90
  5
 10
1.1233
 20
1.1378
 10
1.1572
 20
1.0894
 10
1.1249
 20
1.0668
 10
1.0910
 20
1.1152
 10
1.1233
 20
1.1378
  0
HATCH
 62
222
 5
19C
100
AcDbEntity
 8
0
100
AcDbHatch
 10
0.0000
 20
0.0000
 210
0.0000
 220
0.0000
 230
1.0000
 2
SOLID
 70
1
 71
0
 91
1
 92
1
 93
4
 72
1
 10
1.0266
 20
1.0700
 11
1.0604
 21
1.0216
 72
1
 10
1.0604
 20
1.0216
 11
1.0282
 21
0.9991
 72
1
 10
1.0282
 20
0.9991
 11
0.9943
 21
1.0474
 72
1
 10
0.9943
 20
1.0474
 11
1.0266
 21
1.0700
 97
  0
 75
  0
 76
  1
 98
  1
 10
0.0000
 20
0.0000
  0
LWPOLYLINE
 62
222
 5
19D
100
AcDbEntity
 8
0
100
AcDbPolyline
 90
  5
 10
1.0266
 20
1.0700
 10
1.0604
 20
1.0216
 10
1.0282
 20
0.9991
 10
0.9943
 20
1.0474
 10
1.0266
 20
1.0700
  0
HATCH
 62
222
 5
19E
100
AcDbEntity
 8
0
100
AcDbHatch
 10
0.0000
 20
0.0000
 210
0.0000
 220
0.0000
 230
1.0000
 2
SOLID
 70
1
 71
0
 91
1
 92
1
 93
4
 72
1
 10
1.1395
 20
0.9087
 11
1.1733
 21
0.8604
 72
1
 10
1.1733
 20
0.8604
 11
1.1411
 21
0.8378
 72
1
 10
1.1411
 20
0.8378
 11
1.1072
 21
0.8862
 72
1
 10
1.1072
 20
0.8862
 11
1.1395
 21
0.9087
 97
  0
 75
  0
 76
  1
 98
  1
 10
0.0000
 20
0.0000
  0
LWPOLYLINE
 62
222
 5
19F
100
AcDbEntity
 8
0
100
AcDbPolyline
 90
  5
 10
1.1395
 20
0.9087
 10
1.1733
 20
0.8604
 10
1.1411
 20
0.8378
 10
1.1072
 20
0.8862
 10
1.1395
 20
0.9087
  0
HATCH
 62
222
 5
1A0
100
AcDbEntity
 8
0
100
AcDbHatch
 10
0.0000
 20
0.0000
 210
0.0000
 220
0.0000
 230
1.0000
 2
SOLID
 70
1
 71
0
 91
1
 92
1
 93
4
 72
1
 10
1.2362
 20
0.9765
 11
1.2701
 21
0.9281
 72
1
 10
1.2701
 20
0.9281
 11
1.2378
 21
0.9056
 72
1
 10
1.2378
 20
0.9056
 11
1.2040
 21
0.9539
 72
1
 10
1.2040
 20
0.9539
 11
1.2362
 21
0.9765
 97
  0
 75
  0
 76
  1
 98
  1
 10
0.0000
 20
0.0000
  0
LWPOLYLINE
 62
222
 5
1A1
100
AcDbEntity
 8
0
100
AcDbPolyline
 90
  5
 10
1.2362
 20
0.9765
 10
1.2701
 20
0.9281
 10
1.2378
 20
0.9056
 10
1.2040
 20
0.9539
 10
1.2362
 20
0.9765
  0
HATCH
 62
222
 5
1A2
100
AcDbEntity
 8
0
100
AcDbHatch
 10
0.0000
 20
0.0000
 210
0.0000
 220
0.0000
 230
1.0000
 2
SOLID
 70
1
 71
0
 91
1
 92
1
 93
4
 72
1
 10
0.7490
 20
1.3255
 11
0.8045
 21
1.3053
 72
1
 10
0.8045
 20
1.3053
 11
0.7910
 21
1.2683
 72
1
 10
0.7910
 20
1.2683
 11
0.7355
 21
1.2885
 72
1
 10
0.7355
 20
1.2885
 11
0.7490
 21
1.3255
 97
  0
 75
  0
 76
  1
 98
  1
 10
0.0000
 20
0.0000
  0
LWPOLYLINE
 62
222
 5
1A3
100
AcDbEntity
 8
0
100
AcDbPolyline
 90
  5
 10
0.7490
 20
1.3255
 10
0.8045
 20
1.3053
 10
0.7910
 20
1.2683
 10
0.7355
 20
1.2885
 10
0.7490
 20
1.3255
  0
HATCH
 62
222
 5
1A4
100
AcDbEntity
 8
0
100
AcDbHatch
 10
0.0000
 20
0.0000
 210
0.0000
 220
0.0000
 230
1.0000
 2
SOLID
 70
1
 71
0
 91
1
 92
1
 93
4
 72
1
 10
0.7086
 20
1.2145
 11
0.7641
 21
1.1943
 72
1
 10
0.7641
 20
1.1943
 11
0.7507
 21
1.1573
 72
1
 10
0.7507
 20
1.1573
 11
0.6951
 21
1.1775
 72
1
 10
0.6951
 20
1.1775
 11
0.7086
 21
1.2145
 97
  0
 75
  0
 76
  1
 98
  1
 10
0.0000
 20
0.0000
  0
LWPOLYLINE
 62
222
 5
1A5
100
AcDbEntity
 8
0
100
AcDbPolyline
 90
  5
 10
0.7086
 20
1.2145
 10
0.7641
 20
1.1943
 10
0.7507
 20
1.1573
 10
0.6951
 20
1.1775
 10
0.7086
 20
1.2145
  0
HATCH
 62
222
 5
1A6
100
AcDbEntity
 8
0
100
AcDbHatch
 10
0.0000
 20
0.0000
 210
0.0000
 220
0.0000
 230
1.0000
 2
SOLID
 70
1
 71
0
 91
1
 92
1
 93
4
 72
1
 10
0.8936
 20
1.1471
 11
0.9490
 21
1.1269
 72
1
 10
0.9490
 20
1.1269
 11
0.9355
 21
1.0900
 72
1
 10
0.9355
 20
1.0900
 11
0.8801
 21
1.1101
 72
1
 10
0.8801
 20
1.1101
 11
0.8936
 21
1.1471
 97
  0
 75
  0
 76
  1
 98
  1
 10
0.0000
 20
0.0000
  0
LWPOLYLINE
 62
222
 5
1A7
100
AcDbEntity
 8
0
100
AcDbPolyline
 90
  5
 10
0.8936
 20
1.1471
 10
0.9490
 20
1.1269
 10
0.9355
 20
1.0900
 10
0.8801
 20
1.1101
 10
0.8936
 20
1.1471
  0
HATCH
 62
222
 5
1A8
100
AcDbEntity
 8
0
100
AcDbHatch
 10
0.0000
 20
0.0000
 210
0.0000
 220
0.0000
 230
1.0000
 2
SOLID
 70
1
 71
0
 91
1
 92
1
 93
4
 72
1
 10
0.9340
 20
1.2581
 11
0.9895
 21
1.2380
 72
1
 10
0.9895
 20
1.2380
 11
0.9760
 21
1.2009
 72
1
 10
0.9760
 20
1.2009
 11
0.9205
 21
1.2211
 72
1
 10
0.9205
 20
1.2211
 11
0.9340
 21
1.2581
 97
  0
 75
  0
 76
  1
 98
  1
 10
0.0000
 20
0.0000
  0
LWPOLYLINE
 62
222
 5
1A9
100
AcDbEntity
 8
0
100
AcDbPolyline
 90
  5
 10
0.9340
 20
1.2581
 10
0.9895
 20
1.2380
 10
0.9760
 20
1.2009
 10
0.9205
 20
1.2211
 10
0.9340
 20
1.2581
  0
HATCH
 62
222
 5
1AA
100
AcDbEntity
 8
0
100
AcDbHatch
 10
0.0000
 20
0.0000
 210
0.0000
 220
0.0000
 230
1.0000
 2
SOLID
 70
1
 71
0
 91
1
 92
1
 93
4
 72
1
 10
0.2851
 20
1.2380
 11
0.3406
 21
1.2581
 72
1
 10
0.3406
 20
1.2581
 11
0.3540
 21
1.2211
 72
1
 10
0.3540
 20
1.2211
 11
0.2986
 21
1.2009
 72
1
 10
0.2986
 20
1.2009
 11
0.2851
 21
1.2380
 97
  0
 75
  0
 76
  1
 98
  1
 10
0.0000
 20
0.0000
  0
LWPOLYLINE
 62
222
 5
1AB
100
AcDbEntity
 8
0
100
AcDbPolyline
 90
  5
 10
0.2851
 20
1.2380
 10
0.3406
 20
1.2581
 10
0.3540
 20
1.2211
 10
0.2986
 20
1.2009
 10
0.2851
 20
1.2380
  0
HATCH
 62
222
 5
1AC
100
AcDbEntity
 8
0
100
AcDbHatch
 10
0.0000
 20
0.0000
 210
0.0000
 220
0.0000
 230
1.0000
 2
SOLID
 70
1
 71
0
 91
1
 92
1
 93
4
 72
1
 10
0.3255
 20
1.1269
 11
0.3810
 21
1.1472
 72
1
 10
0.3810
 20
1.1472
 11
0.3945
 21
1.1102
 72
1
 10
0.3945
 20
1.1102
 11
0.3390
 21
1.0900
 72
1
 10
0.3390
 20
1.0900
 11
0.3255
 21
1.1269
 97
  0
 75
  0
 76
  1
 98
  1
 10
0.0000
 20
0.0000
  0
LWPOLYLINE
 62
222
 5
1AD
100
AcDbEntity
 8
0
100
AcDbPolyline
 90
  5
 10
0.3255
 20
1.1269
 10
0.3810
 20
1.1472
 10
0.3945
 20
1.1102
 10
0.3390
 20
1.0900
 10
0.3255
 20
1.1269
  0
HATCH
 62
222
 5
1AE
100
AcDbEntity
 8
0
100
AcDbHatch
 10
0.0000
 20
0.0000
 210
0.0000
 220
0.0000
 230
1.0000
 2
SOLID
 70
1
 71
0
 91
1
 92
1
 93
4
 72
1
 10
0.5105
 20
1.1943
 11
0.5659
 21
1.2145
 72
1
 10
0.5659
 20
1.2145
 11
0.5795
 21
1.1775
 72
1
 10
0.5795
 20
1.1775
 11
0.5240
 21
1.1573
 72
1
 10
0.5240
 20
1.1573
 11
0.5105
 21
1.1943
 97
  0
 75
  0
 76
  1
 98
  1
 10
0.0000
 20
0.0000
  0
LWPOLYLINE
 62
222
 5
1AF
100
AcDbEntity
 8
0
100
AcDbPolyline
 90
  5
 10
0.5105
 20
1.1943
 10
0.5659
 20
1.2145
 10
0.5795
 20
1.1775
 10
0.5240
 20
1.1573
 10
0.5105
 20
1.1943
  0
HATCH
 62
222
 5
1B0
100
AcDbEntity
 8
0
100
AcDbHatch
 10
0.0000
 20
0.0000
 210
0.0000
 220
0.0000
 230
1.0000
 2
SOLID
 70
1
 71
0
 91
1
 92
1
 93
4
 72
1
 10
0.4701
 20
1.3053
 11
0.5256
 21
1.3255
 72
1
 10
0.5256
 20
1.3255
 11
0.5390
 21
1.2885
 72
1
 10
0.5390
 20
1.2885
 11
0.4836
 21
1.2682
 72
1
 10
0.4836
 20
1.2682
 11
0.4701
 21
1.3053
 97
  0
 75
  0
 76
  1
 98
  1
 10
0.0000
 20
0.0000
  0
LWPOLYLINE
 62
222
 5
1B1
100
AcDbEntity
 8
0
100
AcDbPolyline
 90
  5
 10
0.4701
 20
1.3053
 10
0.5256
 20
1.3255
 10
0.5390
 20
1.2885
 10
0.4836
 20
1.2682
 10
0.4701
 20
1.3053
  0
HATCH
 62
222
 5
1B2
100
AcDbEntity
 8
0
100
AcDbHatch
 10
0.0000
 20
0.0000
 210
0.0000
 220
0.0000
 230
1.0000
 2
SOLID
 70
1
 71
0
 91
1
 92
1
 93
4
 72
1
 10
0.0143
 20
0.9281
 11
0.0482
 21
0.9765
 72
1
 10
0.0482
 20
0.9765
 11
0.0805
 21
0.9539
 72
1
 10
0.0805
 20
0.9539
 11
0.0466
 21
0.9055
 72
1
 10
0.0466
 20
0.9055
 11
0.0143
 21
0.9281
 97
  0
 75
  0
 76
  1
 98
  1
 10
0.0000
 20
0.0000
  0
LWPOLYLINE
 62
222
 5
1B3
100
AcDbEntity
 8
0
100
AcDbPolyline
 90
  5
 10
0.0143
 20
0.9281
 10
0.0482
 20
0.9765
 10
0.0805
 20
0.9539
 10
0.0466
 20
0.9055
 10
0.0143
 20
0.9281
  0
HATCH
 62
222
 5
1B4
100
AcDbEntity
 8
0
100
AcDbHatch
 10
0.0000
 20
0.0000
 210
0.0000
 220
0.0000
 230
1.0000
 2
SOLID
 70
1
 71
0
 91
1
 92
1
 93
4
 72
1
 10
0.1111
 20
0.8604
 11
0.1449
 21
0.9088
 72
1
 10
0.1449
 20
0.9088
 11
0.1771
 21
0.8862
 72
1
 10
0.1771
 20
0.8862
 11
0.1434
 21
0.8378
 72
1
 10
0.1434
 20
0.8378
 11
0.1111
 21
0.8604
 97
  0
 75
  0
 76
  1
 98
  1
 10
0.0000
 20
0.0000
  0
LWPOLYLINE
 62
222
 5
1B5
100
AcDbEntity
 8
0
100
AcDbPolyline
 90
  5
 10
0.1111
 20
0.8604
 10
0.1449
 20
0.9088
 10
0.1771
 20
0.8862
 10
0.1434
 20
0.8378
 10
0.1111
 20
0.8604
  0
HATCH
 62
222
 5
1B6
100
AcDbEntity
 8
0
100
AcDbHatch
 10
0.0000
 20
0.0000
 210
0.0000
 220
0.0000
 230
1.0000
 2
SOLID
 70
1
 71
0
 91
1
 92
1
 93
4
 72
1
 10
0.2240
 20
1.0217
 11
0.2578
 21
1.0700
 72
1
 10
0.2578
 20
1.0700
 11
0.2901
 21
1.0474
 72
1
 10
0.2901
 20
1.0474
 11
0.2562
 21
0.9991
 72
1
 10
0.2562
 20
0.9991
 11
0.2240
 21
1.0217
 97
  0
 75
  0
 76
  1
 98
  1
 10
0.0000
 20
0.0000
  0
LWPOLYLINE
 62
222
 5
1B7
100
AcDbEntity
 8
0
100
AcDbPolyline
 90
  5
 10
0.2240
 20
1.0217
 10
0.2578
 20
1.0700
 10
0.2901
 20
1.0474
 10
0.2562
 20
0.9991
 10
0.2240
 20
1.0217
  0
HATCH
 62
222
 5
1B8
100
AcDbEntity
 8
0
100
AcDbHatch
 10
0.0000
 20
0.0000
 210
0.0000
 220
0.0000
 230
1.0000
 2
SOLID
 70
1
 71
0
 91
1
 92
1
 93
4
 72
1
 10
0.1272
 20
1.0893
 11
0.1611
 21
1.1378
 72
1
 10
0.1611
 20
1.1378
 11
0.1933
 21
1.1152
 72
1
 10
0.1933
 20
1.1152
 11
0.1595
 21
1.0668
 72
1
 10
0.1595
 20
1.0668
 11
0.1272
 21
1.0893
 97
  0
 75
  0
 76
  1
 98
  1
 10
0.0000
 20
0.0000
  0
LWPOLYLINE
 62
222
 5
1B9
100
AcDbEntity
 8
0
100
AcDbPolyline
 90
  5
 10
0.1272
 20
1.0893
 10
0.1611
 20
1.1378
 10
0.1933
 20
1.1152
 10
0.1595
 20
1.0668
 10
0.1272
 20
1.0893
  0
HATCH
 62
222
 5
1BA
100
AcDbEntity
 8
0
100
AcDbHatch
 10
0.0000
 20
0.0000
 210
0.0000
 220
0.0000
 230
1.0000
 2
SOLID
 70
1
 71
0
 91
1
 92
1
 93
4
 72
1
 10
0.1280
 20
0.2276
 11
0.0985
 21
0.2788
 72
1
 10
0.0985
 20
0.2788
 11
0.1326
 21
0.2985
 72
1
 10
0.1326
 20
0.2985
 11
0.1621
 21
0.2473
 72
1
 10
0.1621
 20
0.2473
 11
0.1280
 21
0.2276
 97
  0
 75
  0
 76
  1
 98
  1
 10
0.0000
 20
0.0000
  0
LWPOLYLINE
 62
222
 5
1BB
100
AcDbEntity
 8
0
100
AcDbPolyline
 90
  5
 10
0.1280
 20
0.2276
 10
0.0985
 20
0.2788
 10
0.1326
 20
0.2985
 10
0.1621
 20
0.2473
 10
0.1280
 20
0.2276
  0
HATCH
 62
222
 5
1BC
100
AcDbEntity
 8
0
100
AcDbHatch
 10
0.0000
 20
0.0000
 210
0.0000
 220
0.0000
 230
1.0000
 2
SOLID
 70
1
 71
0
 91
1
 92
1
 93
4
 72
1
 10
0.2303
 20
0.2866
 11
0.2007
 21
0.3378
 72
1
 10
0.2007
 20
0.3378
 11
0.2348
 21
0.3574
 72
1
 10
0.2348
 20
0.3574
 11
0.2644
 21
0.3063
 72
1
 10
0.2644
 20
0.3063
 11
0.2303
 21
0.2866
 97
  0
 75
  0
 76
  1
 98
  1
 10
0.0000
 20
0.0000
  0
LWPOLYLINE
 62
222
 5
1BD
100
AcDbEntity
 8
0
100
AcDbPolyline
 90
  5
 10
0.2303
 20
0.2866
 10
0.2007
 20
0.3378
 10
0.2348
 20
0.3574
 10
0.2644
 20
0.3063
 10
0.2303
 20
0.2866
  0
HATCH
 62
222
 5
1BE
100
AcDbEntity
 8
0
100
AcDbHatch
 10
0.0000
 20
0.0000
 210
0.0000
 220
0.0000
 230
1.0000
 2
SOLID
 70
1
 71
0
 91
1
 92
1
 93
4
 72
1
 10
0.1318
 20
0.4572
 11
0.1023
 21
0.5083
 72
1
 10
0.1023
 20
0.5083
 11
0.1364
 21
0.5280
 72
1
 10
0.1364
 20
0.5280
 11
0.1660
 21
0.4768
 72
1
 10
0.1660
 20
0.4768
 11
0.1318
 21
0.4572
 97
  0
 75
  0
 76
  1
 98
  1
 10
0.0000
 20
0.0000
  0
LWPOLYLINE
 62
222
 5
1BF
100
AcDbEntity
 8
0
100
AcDbPolyline
 90
  5
 10
0.1318
 20
0.4572
 10
0.1023
 20
0.5083
 10
0.1364
 20
0.5280
 10
0.1660
 20
0.4768
 10
0.1318
 20
0.4572
  0
HATCH
 62
222
 5
1C0
100
AcDbEntity
 8
0
100
AcDbHatch
 10
0.0000
 20
0.0000
 210
0.0000
 220
0.0000
 230
1.0000
 2
SOLID
 70
1
 71
0
 91
1
 92
1
 93
4
 72
1
 10
0.0296
 20
0.3981
 11
0.0000
 21
0.4493
 72
1
 10
0.0000
 20
0.4493
 11
0.0342
 21
0.4689
 72
1
 10
0.0342
 20
0.4689
 11
0.0637
 21
0.4178
 72
1
 10
0.0637
 20
0.4178
 11
0.0296
 21
0.3981
 97
  0
 75
  0
 76
  1
 98
  1
 10
0.0000
 20
0.0000
  0
LWPOLYLINE
 62
222
 5
1C1
100
AcDbEntity
 8
0
100
AcDbPolyline
 90
  5
 10
0.0296
 20
0.3981
 10
0.0000
 20
0.4493
 10
0.0342
 20
0.4689
 10
0.0637
 20
0.4178
 10
0.0296
 20
0.3981
  0
HATCH
 62
222
 5
1C2
100
AcDbEntity
 8
0
100
AcDbHatch
 10
0.0000
 20
0.0000
 210
0.0000
 220
0.0000
 230
1.0000
 2
SOLID
 70
1
 71
0
 91
1
 92
1
 93
4
 72
1
 10
0.5255
 20
0.0000
 11
0.4700
 21
0.0202
 72
1
 10
0.4700
 20
0.0202
 11
0.4836
 21
0.0571
 72
1
 10
0.4836
 20
0.0571
 11
0.5390
 21
0.0369
 72
1
 10
0.5390
 20
0.0369
 11
0.5255
 21
0.0000
 97
  0
 75
  0
 76
  1
 98
  1
 10
0.0000
 20
0.0000
  0
LWPOLYLINE
 62
222
 5
1C3
100
AcDbEntity
 8
0
100
AcDbPolyline
 90
  5
 10
0.5255
 20
0.0000
 10
0.4700
 20
0.0202
 10
0.4836
 20
0.0571
 10
0.5390
 20
0.0369
 10
0.5255
 20
0.0000
  0
HATCH
 62
222
 5
1C4
100
AcDbEntity
 8
0
100
AcDbHatch
 10
0.0000
 20
0.0000
 210
0.0000
 220
0.0000
 230
1.0000
 2
SOLID
 70
1
 71
0
 91
1
 92
1
 93
4
 72
1
 10
0.5659
 20
0.1110
 11
0.5105
 21
0.1312
 72
1
 10
0.5105
 20
0.1312
 11
0.5240
 21
0.1681
 72
1
 10
0.5240
 20
0.1681
 11
0.5795
 21
0.1480
 72
1
 10
0.5795
 20
0.1480
 11
0.5659
 21
0.1110
 97
  0
 75
  0
 76
  1
 98
  1
 10
0.0000
 20
0.0000
  0
LWPOLYLINE
 62
222
 5
1C5
100
AcDbEntity
 8
0
100
AcDbPolyline
 90
  5
 10
0.5659
 20
0.1110
 10
0.5105
 20
0.1312
 10
0.5240
 20
0.1681
 10
0.5795
 20
0.1480
 10
0.5659
 20
0.1110
  0
HATCH
 62
222
 5
1C6
100
AcDbEntity
 8
0
100
AcDbHatch
 10
0.0000
 20
0.0000
 210
0.0000
 220
0.0000
 230
1.0000
 2
SOLID
 70
1
 71
0
 91
1
 92
1
 93
4
 72
1
 10
0.3810
 20
0.1783
 11
0.3255
 21
0.1985
 72
1
 10
0.3255
 20
0.1985
 11
0.3390
 21
0.2355
 72
1
 10
0.3390
 20
0.2355
 11
0.3945
 21
0.2153
 72
1
 10
0.3945
 20
0.2153
 11
0.3810
 21
0.1783
 97
  0
 75
  0
 76
  1
 98
  1
 10
0.0000
 20
0.0000
  0
LWPOLYLINE
 62
222
 5
1C7
100
AcDbEntity
 8
0
100
AcDbPolyline
 90
  5
 10
0.3810
 20
0.1783
 10
0.3255
 20
0.1985
 10
0.3390
 20
0.2355
 10
0.3945
 20
0.2153
 10
0.3810
 20
0.1783
  0
HATCH
 62
222
 5
1C8
100
AcDbEntity
 8
0
100
AcDbHatch
 10
0.0000
 20
0.0000
 210
0.0000
 220
0.0000
 230
1.0000
 2
SOLID
 70
1
 71
0
 91
1
 92
1
 93
4
 72
1
 10
0.3407
 20
0.0673
 11
0.2851
 21
0.0875
 72
1
 10
0.2851
 20
0.0875
 11
0.2986
 21
0.1245
 72
1
 10
0.2986
 20
0.1245
 11
0.3541
 21
0.1043
 72
1
 10
0.3541
 20
0.1043
 11
0.3407
 21
0.0673
 97
  0
 75
  0
 76
  1
 98
  1
 10
0.0000
 20
0.0000
  0
LWPOLYLINE
 62
222
 5
1C9
100
AcDbEntity
 8
0
100
AcDbPolyline
 90
  5
 10
0.3407
 20
0.0673
 10
0.2851
 20
0.0875
 10
0.2986
 20
0.1245
 10
0.3541
 20
0.1043
 10
0.3407
 20
0.0673
  0
HATCH
 62
222
 5
1CA
100
AcDbEntity
 8
0
100
AcDbHatch
 10
0.0000
 20
0.0000
 210
0.0000
 220
0.0000
 230
1.0000
 2
SOLID
 70
1
 71
0
 91
1
 92
1
 93
4
 72
1
 10
0.9894
 20
0.0876
 11
0.9338
 21
0.0673
 72
1
 10
0.9338
 20
0.0673
 11
0.9204
 21
0.1043
 72
1
 10
0.9204
 20
0.1043
 11
0.9759
 21
0.1246
 72
1
 10
0.9759
 20
0.1246
 11
0.9894
 21
0.0876
 97
  0
 75
  0
 76
  1
 98
  1
 10
0.0000
 20
0.0000
  0
LWPOLYLINE
 62
222
 5
1CB
100
AcDbEntity
 8
0
100
AcDbPolyline
 90
  5
 10
0.9894
 20
0.0876
 10
0.9338
 20
0.0673
 10
0.9204
 20
0.1043
 10
0.9759
 20
0.1246
 10
0.9894
 20
0.0876
  0
HATCH
 62
222
 5
1CC
100
AcDbEntity
 8
0
100
AcDbHatch
 10
0.0000
 20
0.0000
 210
0.0000
 220
0.0000
 230
1.0000
 2
SOLID
 70
1
 71
0
 91
1
 92
1
 93
4
 72
1
 10
0.9490
 20
0.1985
 11
0.8934
 21
0.1783
 72
1
 10
0.8934
 20
0.1783
 11
0.8800
 21
0.2154
 72
1
 10
0.8800
 20
0.2154
 11
0.9355
 21
0.2355
 72
1
 10
0.9355
 20
0.2355
 11
0.9490
 21
0.1985
 97
  0
 75
  0
 76
  1
 98
  1
 10
0.0000
 20
0.0000
  0
LWPOLYLINE
 62
222
 5
1CD
100
AcDbEntity
 8
0
100
AcDbPolyline
 90
  5
 10
0.9490
 20
0.1985
 10
0.8934
 20
0.1783
 10
0.8800
 20
0.2154
 10
0.9355
 20
0.2355
 10
0.9490
 20
0.1985
  0
HATCH
 62
222
 5
1CE
100
AcDbEntity
 8
0
100
AcDbHatch
 10
0.0000
 20
0.0000
 210
0.0000
 220
0.0000
 230
1.0000
 2
SOLID
 70
1
 71
0
 91
1
 92
1
 93
4
 72
1
 10
0.7640
 20
0.1313
 11
0.7085
 21
0.1110
 72
1
 10
0.7085
 20
0.1110
 11
0.6950
 21
0.1480
 72
1
 10
0.6950
 20
0.1480
 11
0.7505
 21
0.1682
 72
1
 10
0.7505
 20
0.1682
 11
0.7640
 21
0.1313
 97
  0
 75
  0
 76
  1
 98
  1
 10
0.0000
 20
0.0000
  0
LWPOLYLINE
 62
222
 5
1CF
100
AcDbEntity
 8
0
100
AcDbPolyline
 90
  5
 10
0.7640
 20
0.1313
 10
0.7085
 20
0.1110
 10
0.6950
 20
0.1480
 10
0.7505
 20
0.1682
 10
0.7640
 20
0.1313
  0
HATCH
 62
222
 5
1D0
100
AcDbEntity
 8
0
100
AcDbHatch
 10
0.0000
 20
0.0000
 210
0.0000
 220
0.0000
 230
1.0000
 2
SOLID
 70
1
 71
0
 91
1
 92
1
 93
4
 72
1
 10
0.8044
 20
0.0202
 11
0.7489
 21
0.0000
 72
1
 10
0.7489
 20
0.0000
 11
0.7354
 21
0.0370
 72
1
 10
0.7354
 20
0.0370
 11
0.7909
 21
0.0572
 72
1
 10
0.7909
 20
0.0572
 11
0.8044
 21
0.0202
 97
  0
 75
  0
 76
  1
 98
  1
 10
0.0000
 20
0.0000
  0
LWPOLYLINE
 62
222
 5
1D1
100
AcDbEntity
 8
0
100
AcDbPolyline
 90
  5
 10
0.8044
 20
0.0202
 10
0.7489
 20
0.0000
 10
0.7354
 20
0.0370
 10
0.7909
 20
0.0572
 10
0.8044
 20
0.0202
  0
HATCH
 62
222
 5
1D2
100
AcDbEntity
 8
0
100
AcDbHatch
 10
0.0000
 20
0.0000
 210
0.0000
 220
0.0000
 230
1.0000
 2
SOLID
 70
1
 71
0
 91
1
 92
1
 93
4
 72
1
 10
1.2644
 20
0.4291
 11
1.2349
 21
0.3780
 72
1
 10
1.2349
 20
0.3780
 11
1.2008
 21
0.3977
 72
1
 10
1.2008
 20
0.3977
 11
1.2303
 21
0.4489
 72
1
 10
1.2303
 20
0.4489
 11
1.2644
 21
0.4291
 97
  0
 75
  0
 76
  1
 98
  1
 10
0.0000
 20
0.0000
  0
LWPOLYLINE
 62
222
 5
1D3
100
AcDbEntity
 8
0
100
AcDbPolyline
 90
  5
 10
1.2644
 20
0.4291
 10
1.2349
 20
0.3780
 10
1.2008
 20
0.3977
 10
1.2303
 20
0.4489
 10
1.2644
 20
0.4291
  0
HATCH
 62
222
 5
1D4
100
AcDbEntity
 8
0
100
AcDbHatch
 10
0.0000
 20
0.0000
 210
0.0000
 220
0.0000
 230
1.0000
 2
SOLID
 70
1
 71
0
 91
1
 92
1
 93
4
 72
1
 10
1.1621
 20
0.4883
 11
1.1326
 21
0.4371
 72
1
 10
1.1326
 20
0.4371
 11
1.0985
 21
0.4567
 72
1
 10
1.0985
 20
0.4567
 11
1.1281
 21
0.5079
 72
1
 10
1.1281
 20
0.5079
 11
1.1621
 21
0.4883
 97
  0
 75
  0
 76
  1
 98
  1
 10
0.0000
 20
0.0000
  0
LWPOLYLINE
 62
222
 5
1D5
100
AcDbEntity
 8
0
100
AcDbPolyline
 90
  5
 10
1.1621
 20
0.4883
 10
1.1326
 20
0.4371
 10
1.0985
 20
0.4567
 10
1.1281
 20
0.5079
 10
1.1621
 20
0.4883
  0
HATCH
 62
222
 5
1D6
100
AcDbEntity
 8
0
100
AcDbHatch
 10
0.0000
 20
0.0000
 210
0.0000
 220
0.0000
 230
1.0000
 2
SOLID
 70
1
 71
0
 91
1
 92
1
 93
4
 72
1
 10
1.0637
 20
0.3178
 11
1.0342
 21
0.2666
 72
1
 10
1.0342
 20
0.2666
 11
1.0001
 21
0.2863
 72
1
 10
1.0001
 20
0.2863
 11
1.0296
 21
0.3374
 72
1
 10
1.0296
 20
0.3374
 11
1.0637
 21
0.3178
 97
  0
 75
  0
 76
  1
 98
  1
 10
0.0000
 20
0.0000
  0
LWPOLYLINE
 62
222
 5
1D7
100
AcDbEntity
 8
0
100
AcDbPolyline
 90
  5
 10
1.0637
 20
0.3178
 10
1.0342
 20
0.2666
 10
1.0001
 20
0.2863
 10
1.0296
 20
0.3374
 10
1.0637
 20
0.3178
  0
HATCH
 62
222
 5
1D8
100
AcDbEntity
 8
0
100
AcDbHatch
 10
0.0000
 20
0.0000
 210
0.0000
 220
0.0000
 230
1.0000
 2
SOLID
 70
1
 71
0
 91
1
 92
1
 93
4
 72
1
 10
1.1660
 20
0.2587
 11
1.1365
 21
0.2075
 72
1
 10
1.1365
 20
0.2075
 11
1.1024
 21
0.2272
 72
1
 10
1.1024
 20
0.2272
 11
1.1319
 21
0.2784
 72
1
 10
1.1319
 20
0.2784
 11
1.1660
 21
0.2587
 97
  0
 75
  0
 76
  1
 98
  1
 10
0.0000
 20
0.0000
  0
LWPOLYLINE
 62
222
 5
1D9
100
AcDbEntity
 8
0
100
AcDbPolyline
 90
  5
 10
1.1660
 20
0.2587
 10
1.1365
 20
0.2075
 10
1.1024
 20
0.2272
 10
1.1319
 20
0.2784
 10
1.1660
 20
0.2587
  0
SOLID
 62
222
 5
1DA
100
AcDbEntity
 8
0
100
AcDbTrace
 10
0.5204
 20
0.9732
 11
0.5874
 21
0.9732
 12
0.5204
 22
1.0205
 13
0.5874
 23
1.0205
  0
SOLID
 62
222
 5
1DB
100
AcDbEntity
 8
0
100
AcDbTrace
 10
0.5204
 20
0.8551
 11
0.5874
 21
0.8551
 12
0.5204
 22
0.9024
 13
0.5874
 23
0.9024
  0
SOLID
 62
222
 5
1DC
100
AcDbEntity
 8
0
100
AcDbTrace
 10
0.7172
 20
0.8551
 11
0.7842
 21
0.8551
 12
0.7172
 22
0.9024
 13
0.7842
 23
0.9024
  0
SOLID
 62
222
 5
1DD
100
AcDbEntity
 8
0
100
AcDbTrace
 10
0.7172
 20
0.9732
 11
0.7842
 21
0.9732
 12
0.7172
 22
1.0205
 13
0.7842
 23
1.0205
  0
SOLID
 62
222
 5
1DE
100
AcDbEntity
 8
0
100
AcDbTrace
 10
0.2296
 20
0.5358
 11
0.2769
 21
0.5358
 12
0.2296
 22
0.6028
 13
0.2769
 23
0.6028
  0
SOLID
 62
222
 5
1DF
100
AcDbEntity
 8
0
100
AcDbTrace
 10
0.3477
 20
0.5358
 11
0.3950
 21
0.5358
 12
0.3477
 22
0.6028
 13
0.3950
 23
0.6028
  0
SOLID
 62
222
 5
1E0
100
AcDbEntity
 8
0
100
AcDbTrace
 10
0.3477
 20
0.7327
 11
0.3950
 21
0.7327
 12
0.3477
 22
0.7997
 13
0.3950
 23
0.7997
  0
SOLID
 62
222
 5
1E1
100
AcDbEntity
 8
0
100
AcDbTrace
 10
0.2296
 20
0.7327
 11
0.2769
 21
0.7327
 12
0.2296
 22
0.7997
 13
0.2769
 23
0.7997
  0
SOLID
 62
222
 5
1E2
100
AcDbEntity
 8
0
100
AcDbTrace
 10
0.7172
 20
0.3051
 11
0.7842
 21
0.3051
 12
0.7172
 22
0.3524
 13
0.7842
 23
0.3524
  0
SOLID
 62
222
 5
1E3
100
AcDbEntity
 8
0
100
AcDbTrace
 10
0.7172
 20
0.4232
 11
0.7842
 21
0.4232
 12
0.7172
 22
0.4705
 13
0.7842
 23
0.4705
  0
SOLID
 62
222
 5
1E4
100
AcDbEntity
 8
0
100
AcDbTrace
 10
0.5203
 20
0.4232
 11
0.5873
 21
0.4232
 12
0.5203
 22
0.4705
 13
0.5873
 23
0.4705
  0
SOLID
 62
222
 5
1E5
100
AcDbEntity
 8
0
100
AcDbTrace
 10
0.5203
 20
0.3051
 11
0.5873
 21
0.3051
 12
0.5203
 22
0.3524
 13
0.5873
 23
0.3524
  0
SOLID
 62
222
 5
1E6
100
AcDbEntity
 8
0
100
AcDbTrace
 10
1.0077
 20
0.7427
 11
1.0550
 21
0.7427
 12
1.0077
 22
0.8097
 13
1.0550
 23
0.8097
  0
SOLID
 62
222
 5
1E7
100
AcDbEntity
 8
0
100
AcDbTrace
 10
0.8896
 20
0.7427
 11
0.9369
 21
0.7427
 12
0.8896
 22
0.8097
 13
0.9369
 23
0.8097
  0
SOLID
 62
222
 5
1E8
100
AcDbEntity
 8
0
100
AcDbTrace
 10
0.8896
 20
0.5458
 11
0.9369
 21
0.5458
 12
0.8896
 22
0.6128
 13
0.9369
 23
0.6128
  0
SOLID
 62
222
 5
1E9
100
AcDbEntity
 8
0
100
AcDbTrace
 10
1.0077
 20
0.5458
 11
1.0550
 21
0.5458
 12
1.0077
 22
0.6128
 13
1.0550
 23
0.6128
  0
SOLID
 62
222
 5
1EA
100
AcDbEntity
 8
0
100
AcDbTrace
 10
1.0077
 20
0.5458
 11
1.0550
 21
0.5458
 12
1.0077
 22
0.6128
 13
1.0550
 23
0.6128
0
ENDSEC
  0
SECTION
  2
OBJECTS
  0
DICTIONARY
  5
C
330
0
100
AcDbDictionary
281
     1
  3
ACAD_COLOR
350
73
  3
ACAD_GROUP
350
D
  3
ACAD_LAYOUT
350
1A
  3
ACAD_MATERIAL
350
72
  3
ACAD_MLINESTYLE
350
17
  3
ACAD_PLOTSETTINGS
350
19
  3
ACAD_PLOTSTYLENAME
350
E
  3
ACAD_TABLESTYLE
350
1FFF0003
  3
ACDBHEADERROUNDTRIPXREC
350
1FFF0031
  3
AcDbVariableDictionary
350
66
  3
DWGPROPS
350
1FFF0030
  0
DICTIONARY
  5
73
102
{ACAD_REACTORS
330
C
102
}
330
C
100
AcDbDictionary
281
     1
  0
DICTIONARY
  5
D
102
{ACAD_REACTORS
330
C
102
}
330
C
100
AcDbDictionary
281
     1
  0
DICTIONARY
  5
1A
102
{ACAD_REACTORS
330
C
102
}
330
C
100
AcDbDictionary
281
     1
  3
Layout1
350
59
  3
Layout2
350
5E
  3
Model
350
22
  0
DICTIONARY
  5
72
102
{ACAD_REACTORS
330
C
102
}
330
C
100
AcDbDictionary
281
     1
  0
DICTIONARY
  5
17
102
{ACAD_REACTORS
330
C
102
}
330
C
100
AcDbDictionary
281
     1
  3
Standard
350
18
  0
DICTIONARY
  5
19
102
{ACAD_REACTORS
330
C
102
}
330
C
100
AcDbDictionary
281
     1
  0
ACDBDICTIONARYWDFLT
  5
E
102
{ACAD_REACTORS
330
C
102
}
330
C
100
AcDbDictionary
281
     1
  3
Normal
350
F
100
AcDbDictionaryWithDefault
340
F
  0
DICTIONARY
  5
1FFF0003
102
{ACAD_REACTORS
330
C
102
}
330
C
100
AcDbDictionary
281
     1
  3
Standard
350
1FFF0004
  0
DICTIONARY
  5
1FFF0031
102
{ACAD_REACTORS
330
C
102
}
330
C
100
AcDbDictionary
281
     1
  0
DICTIONARY
  5
66
102
{ACAD_REACTORS
330
C
102
}
330
C
100
AcDbDictionary
281
     1
  3
CTABLESTYLE
350
1FFF0011
  3
DIMASSOC
350
67
  3
HIDETEXT
350
6B
  3
PROJECTNAME
350
18B
  0
XRECORD
  5
1FFF0030
102
{ACAD_REACTORS
330
C
102
}
330
C
100
AcDbXrecord
280
     1
  1
DWGPROPS COOKIE
  2

  3

  4

  6

  7

  8
Terje
  9

300
=
301
=
302
=
303
=
304
=
305
=
306
=
307
=
308
=
309
=
 40
0.0136125462962963
 41
2453411.634212141
 42
2453762.434476216
  1

 90
        0
  0
LAYOUT
  5
59
102
{ACAD_XDICTIONARY
360
1FFF0034
102
}
102
{ACAD_REACTORS
330
1A
102
}
330
1A
100
AcDbPlotSettings
  1

  2
None
  4

  6

 40
0.0
 41
0.0
 42
0.0
 43
0.0
 44
0.0
 45
0.0
 46
0.0
 47
0.0
 48
0.0
 49
0.0
140
0.0
141
0.0
142
1.0
143
1.0
 70
   688
 72
     0
 73
     0
 74
     5
  7

 75
    16
147
1.0
148
0.0
149
0.0
100
AcDbLayout
  1
Layout1
 70
     1
 71
     1
 10
0.0
 20
0.0
 11
12.0
 21
9.0
 12
0.0
 22
0.0
 32
0.0
 14
0.0
 24
0.0
 34
0.0
 15
0.0
 25
0.0
 35
0.0
146
0.0
 13
0.0
 23
0.0
 33
0.0
 16
1.0
 26
0.0
 36
0.0
 17
0.0
 27
1.0
 37
0.0
 76
     0
330
58
  0
LAYOUT
  5
5E
102
{ACAD_XDICTIONARY
360
1FFF0036
102
}
102
{ACAD_REACTORS
330
1A
102
}
330
1A
100
AcDbPlotSettings
  1

  2
None
  4

  6

 40
0.0
 41
0.0
 42
0.0
 43
0.0
 44
0.0
 45
0.0
 46
0.0
 47
0.0
 48
0.0
 49
0.0
140
0.0
141
0.0
142
1.0
143
1.0
 70
   688
 72
     0
 73
     0
 74
     5
  7

 75
    16
147
1.0
148
0.0
149
0.0
100
AcDbLayout
  1
Layout2
 70
     1
 71
     2
 10
0.0
 20
0.0
 11
12.0
 21
9.0
 12
0.0
 22
0.0
 32
0.0
 14
0.0
 24
0.0
 34
0.0
 15
0.0
 25
0.0
 35
0.0
146
0.0
 13
0.0
 23
0.0
 33
0.0
 16
1.0
 26
0.0
 36
0.0
 17
0.0
 27
1.0
 37
0.0
 76
     0
330
5D
  0
LAYOUT
  5
22
102
{ACAD_XDICTIONARY
360
1FFF0032
102
}
102
{ACAD_REACTORS
330
1A
102
}
330
1A
100
AcDbPlotSettings
  1

  2
none_device
  4
ANSI_A_(8.50_x_11.00_Inches)
  6

 40
6.349999904632567
 41
19.04999923706055
 42
6.350006103515625
 43
19.04998779296875
 44
215.8999938964844
 45
279.3999938964844
 46
0.0
 47
0.0
 48
0.0
 49
0.0
140
0.0
141
0.0
142
1.0
143
2.584895464708373
 70
 11952
 72
     0
 73
     1
 74
     0
  7

 75
     0
147
0.3868628397755418
148
0.0
149
0.0
100
AcDbLayout
  1
Model
 70
     1
 71
     0
 10
0.0
 20
0.0
 11
12.0
 21
9.0
 12
0.0
 22
0.0
 32
0.0
 14
0.0
 24
0.0
 34
0.0
 15
0.0
 25
0.0
 35
0.0
146
0.0
 13
0.0
 23
0.0
 33
0.0
 16
1.0
 26
0.0
 36
0.0
 17
0.0
 27
1.0
 37
0.0
 76
     0
330
1F
  0
MLINESTYLE
  5
18
102
{ACAD_REACTORS
330
17
102
}
330
17
100
AcDbMlineStyle
  2
STANDARD
 70
     0
  3

 62
   256
 51
90.0
 52
90.0
 71
     2
 49
0.5
 62
   256
  6
BYLAYER
 49
-0.5
 62
   256
  6
BYLAYER
  0
ACDBPLACEHOLDER
  5
F
102
{ACAD_REACTORS
330
E
102
}
330
E
  0
TABLESTYLE
  5
1FFF0004
102
{ACAD_REACTORS
330
1FFF0003
102
}
330
1FFF0003
100
AcDbTableStyle
  3
Standard
 70
     0
 71
     0
 40
0.06
 41
0.06
280
     0
281
     0
  7
Standard
140
0.18
170
     2
 62
     0
 63
     7
283
     0
274
    -2
284
     1
 64
     0
275
    -2
285
     1
 65
     0
276
    -2
286
     1
 66
     0
277
    -2
287
     1
 67
     0
278
    -2
288
     1
 68
     0
279
    -2
289
     1
 69
     0
  7
Standard
140
0.25
170
     5
 62
     0
 63
     7
283
     0
274
    -2
284
     1
 64
     0
275
    -2
285
     1
 65
     0
276
    -2
286
     1
 66
     0
277
    -2
287
     1
 67
     0
278
    -2
288
     1
 68
     0
279
    -2
289
     1
 69
     0
  7
Standard
140
0.18
170
     5
 62
     0
 63
     7
283
     0
274
    -2
284
     1
 64
     0
275
    -2
285
     1
 65
     0
276
    -2
286
     1
 66
     0
277
    -2
287
     1
 67
     0
278
    -2
288
     1
 68
     0
279
    -2
289
     1
 69
     0
  0
DICTIONARYVAR
  5
1FFF0011
102
{ACAD_REACTORS
330
66
102
}
330
66
100
DictionaryVariables
280
     0
  1
STANDARD
  0
DICTIONARYVAR
  5
67
102
{ACAD_REACTORS
330
66
102
}
330
66
100
DictionaryVariables
280
     0
  1
2
  0
DICTIONARYVAR
  5
6B
102
{ACAD_REACTORS
330
66
102
}
330
66
100
DictionaryVariables
280
     0
  1
1
  0
DICTIONARYVAR
  5
18B
102
{ACAD_REACTORS
330
66
102
}
330
66
100
DictionaryVariables
280
     0
  1

  0
DICTIONARY
  5
1FFF0034
330
59
100
AcDbDictionary
280
     1
281
     1
  3
ACAD_XREC_ROUNDTRIP
360
1FFF0035
  0
DICTIONARY
  5
1FFF0036
330
5E
100
AcDbDictionary
280
     1
281
     1
  3
ACAD_XREC_ROUNDTRIP
360
1FFF0037
  0
DICTIONARY
  5
1FFF0032
330
22
100
AcDbDictionary
280
     1
281
     1
  3
ACAD_XREC_ROUNDTRIP
360
1FFF0033
  0
XRECORD
  5
1FFF0035
102
{ACAD_REACTORS
330
1FFF0034
102
}
330
1FFF0034
100
AcDbXrecord
280
     1
102
SHADEPLOT
 70
     0
102
SHADEPLOTRESLEVEL
 70
     2
102
SHADEPLOTCUSTOMDPI
 70
   300
  0
XRECORD
  5
1FFF0037
102
{ACAD_REACTORS
330
1FFF0036
102
}
330
1FFF0036
100
AcDbXrecord
280
     1
102
SHADEPLOT
 70
     0
102
SHADEPLOTRESLEVEL
 70
     2
102
SHADEPLOTCUSTOMDPI
 70
   300
  0
XRECORD
  5
1FFF0033
102
{ACAD_REACTORS
330
1FFF0032
102
}
330
1FFF0032
100
AcDbXrecord
280
     1
102
SHADEPLOT
 70
     0
102
SHADEPLOTRESLEVEL
 70
     2
102
SHADEPLOTCUSTOMDPI
 70
   300
  0
ENDSEC
  0
EOF
