  0
SECTION
  2
HEADER
  9
$ACADVER
  1
AC1015
  9
$ACADMAINTVER
 70
   20
  9
$DWGCODEPAGE
  3
ANSI_1252
  9
$INSBASE
 10
0.0000
 20
0.0000
 30
0.0000
  9
$EXTMIN
 10
0.0000
 20
0.0000
 30
0.0000
  9
$EXTMAX
 10
0.9844
 20
1.0062
 30
0.0000
  9
$LIMMIN
 10
0.0000
 20
0.0000
  9
$LIMMAX
 10
0.9844
 20
1.0062
  9
$ORTHOMODE
 70
     0
  9
$REGENMODE
 70
     1
  9
$FILLMODE
 70
     1
  9
$QTEXTMODE
 70
     0
  9
$MIRRTEXT
 70
     0
  9
$LTSCALE
 40
1.0
  9
$ATTMODE
 70
     1
  9
$TEXTSIZE
 40
0.2
  9
$TRACEWID
 40
0.05
  9
$TEXTSTYLE
  7
Standard
  9
$CLAYER
  8
0
  9
$CELTYPE
  6
ByLayer
  9
$CECOLOR
 62
   256
  9
$CELTSCALE
 40
1.0
  9
$DISPSILH
 70
     0
  9
$DIMSCALE
 40
1.0
  9
$DIMASZ
 40
0.18
  9
$DIMEXO
 40
0.0625
  9
$DIMDLI
 40
0.38
  9
$DIMRND
 40
0.0
  9
$DIMDLE
 40
0.0
  9
$DIMEXE
 40
0.18
  9
$DIMTP
 40
0.0
  9
$DIMTM
 40
0.0
  9
$DIMTXT
 40
0.18
  9
$DIMCEN
 40
0.09
  9
$DIMTSZ
 40
0.0
  9
$DIMTOL
 70
     0
  9
$DIMLIM
 70
     0
  9
$DIMTIH
 70
     1
  9
$DIMTOH
 70
     1
  9
$DIMSE1
 70
     0
  9
$DIMSE2
 70
     0
  9
$DIMTAD
 70
     0
  9
$DIMZIN
 70
     0
  9
$DIMBLK
  1

  9
$DIMASO
 70
     1
  9
$DIMSHO
 70
     1
  9
$DIMPOST
  1

  9
$DIMAPOST
  1

  9
$DIMALT
 70
     0
  9
$DIMALTD
 70
     2
  9
$DIMALTF
 40
25.4
  9
$DIMLFAC
 40
1.0
  9
$DIMTOFL
 70
     0
  9
$DIMTVP
 40
0.0
  9
$DIMTIX
 70
     0
  9
$DIMSOXD
 70
     0
  9
$DIMSAH
 70
     0
  9
$DIMBLK1
  1

  9
$DIMBLK2
  1

  9
$DIMSTYLE
  2
Standard
  9
$DIMCLRD
 70
     0
  9
$DIMCLRE
 70
     0
  9
$DIMCLRT
 70
     0
  9
$DIMTFAC
 40
1.0
  9
$DIMGAP
 40
0.09
  9
$DIMJUST
 70
     0
  9
$DIMSD1
 70
     0
  9
$DIMSD2
 70
     0
  9
$DIMTOLJ
 70
     1
  9
$DIMTZIN
 70
     0
  9
$DIMALTZ
 70
     0
  9
$DIMALTTZ
 70
     0
  9
$DIMUPT
 70
     0
  9
$DIMDEC
 70
     4
  9
$DIMTDEC
 70
     4
  9
$DIMALTU
 70
     2
  9
$DIMALTTD
 70
     2
  9
$DIMTXSTY
  7
Standard
  9
$DIMAUNIT
 70
     0
  9
$DIMADEC
 70
     0
  9
$DIMALTRND
 40
0.0
  9
$DIMAZIN
 70
     0
  9
$DIMDSEP
 70
    46
  9
$DIMATFIT
 70
     3
  9
$DIMFRAC
 70
     0
  9
$DIMLDRBLK
  1

  9
$DIMLUNIT
 70
     2
  9
$DIMLWD
 70
    -2
  9
$DIMLWE
 70
    -2
  9
$DIMTMOVE
 70
     0
  9
$LUNITS
 70
     2
  9
$LUPREC
 70
     4
  9
$SKETCHINC
 40
0.1
  9
$FILLETRAD
 40
0.0
  9
$AUNITS
 70
     0
  9
$AUPREC
 70
     0
  9
$MENU
  1
.
  9
$ELEVATION
 40
0.0
  9
$PELEVATION
 40
0.0
  9
$THICKNESS
 40
0.0
  9
$LIMCHECK
 70
     0
  9
$CHAMFERA
 40
0.0
  9
$CHAMFERB
 40
0.0
  9
$CHAMFERC
 40
0.0
  9
$CHAMFERD
 40
0.0
  9
$SKPOLY
 70
     0
  9
$TDCREATE
 40
2453411.634212141
  9
$TDUCREATE
 40
2453411.592545474
  9
$TDUPDATE
 40
2453762.434476216
  9
$TDUUPDATE
 40
2453762.392809549
  9
$TDINDWG
 40
0.0136127315
  9
$TDUSRTIMER
 40
0.0136120023
  9
$USRTIMER
 70
     1
  9
$ANGBASE
 50
0.0
  9
$ANGDIR
 70
     0
  9
$PDMODE
 70
     0
  9
$PDSIZE
 40
0.0
  9
$PLINEWID
 40
0.0
  9
$SPLFRAME
 70
     0
  9
$SPLINETYPE
 70
     6
  9
$SPLINESEGS
 70
     8
  9
$HANDSEED
  5
1FFF0038
  9
$SURFTAB1
 70
     6
  9
$SURFTAB2
 70
     6
  9
$SURFTYPE
 70
     6
  9
$SURFU
 70
     6
  9
$SURFV
 70
     6
  9
$UCSBASE
  2

  9
$UCSNAME
  2

  9
$UCSORG
 10
0.0
 20
0.0
 30
0.0
  9
$UCSXDIR
 10
1.0
 20
0.0
 30
0.0
  9
$UCSYDIR
 10
0.0
 20
1.0
 30
0.0
  9
$UCSORTHOREF
  2

  9
$UCSORTHOVIEW
 70
     0
  9
$UCSORGTOP
 10
0.0
 20
0.0
 30
0.0
  9
$UCSORGBOTTOM
 10
0.0
 20
0.0
 30
0.0
  9
$UCSORGLEFT
 10
0.0
 20
0.0
 30
0.0
  9
$UCSORGRIGHT
 10
0.0
 20
0.0
 30
0.0
  9
$UCSORGFRONT
 10
0.0
 20
0.0
 30
0.0
  9
$UCSORGBACK
 10
0.0
 20
0.0
 30
0.0
  9
$PUCSBASE
  2

  9
$PUCSNAME
  2

  9
$PUCSORG
 10
0.0
 20
0.0
 30
0.0
  9
$PUCSXDIR
 10
1.0
 20
0.0
 30
0.0
  9
$PUCSYDIR
 10
0.0
 20
1.0
 30
0.0
  9
$PUCSORTHOREF
  2

  9
$PUCSORTHOVIEW
 70
     0
  9
$PUCSORGTOP
 10
0.0
 20
0.0
 30
0.0
  9
$PUCSORGBOTTOM
 10
0.0
 20
0.0
 30
0.0
  9
$PUCSORGLEFT
 10
0.0
 20
0.0
 30
0.0
  9
$PUCSORGRIGHT
 10
0.0
 20
0.0
 30
0.0
  9
$PUCSORGFRONT
 10
0.0
 20
0.0
 30
0.0
  9
$PUCSORGBACK
 10
0.0
 20
0.0
 30
0.0
  9
$USERI1
 70
     0
  9
$USERI2
 70
     0
  9
$USERI3
 70
     0
  9
$USERI4
 70
     0
  9
$USERI5
 70
     0
  9
$USERR1
 40
0.0
  9
$USERR2
 40
0.0
  9
$USERR3
 40
0.0
  9
$USERR4
 40
0.0
  9
$USERR5
 40
0.0
  9
$WORLDVIEW
 70
     1
  9
$SHADEDGE
 70
     3
  9
$SHADEDIF
 70
    70
  9
$TILEMODE
 70
     1
  9
$MAXACTVP
 70
    64
  9
$PINSBASE
 10
0.0
 20
0.0
 30
0.0
  9
$PLIMCHECK
 70
     0
  9
$PEXTMIN
 10
0.0
 20
0.0
 30
0.0
  9
$PEXTMAX
 10
0.0
 20
0.0
 30
0.0
  9
$PLIMMIN
 10
0.0
 20
0.0
  9
$PLIMMAX
 10
12.0
 20
9.0
  9
$UNITMODE
 70
     0
  9
$VISRETAIN
 70
     1
  9
$PLINEGEN
 70
     0
  9
$PSLTSCALE
 70
     1
  9
$TREEDEPTH
 70
  3020
  9
$CMLSTYLE
  2
Standard
  9
$CMLJUST
 70
     0
  9
$CMLSCALE
 40
1.0
  9
$PROXYGRAPHICS
 70
     1
  9
$MEASUREMENT
 70
     0
  9
$CELWEIGHT
370
    -1
  9
$ENDCAPS
280
     0
  9
$JOINSTYLE
280
     0
  9
$LWDISPLAY
290
     0
  9
$INSUNITS
 70
     1
  9
$HYPERLINKBASE
  1

  9
$STYLESHEET
  1

  9
$XEDIT
290
     1
  9
$CEPSNTYPE
380
     0
  9
$PSTYLEMODE
290
     1
  9
$FINGERPRINTGUID
  2
{FDEAD576-A652-11D2-9A35-0060089B3A3F}
  9
$VERSIONGUID
  2
{572C4CD7-C9A6-45E8-922E-30EFA218C16C}
  9
$EXTNAMES
290
     1
  9
$PSVPSCALE
 40
0.0
  9
$OLESTARTUP
290
     0
  0
ENDSEC
  0
SECTION
  2
CLASSES
  0
CLASS
  1
ACDBDICTIONARYWDFLT
  2
AcDbDictionaryWithDefault
  3
ObjectDBX Classes
 90
        0
280
     0
281
     0
  0
CLASS
  1
ACDBPLACEHOLDER
  2
AcDbPlaceHolder
  3
ObjectDBX Classes
 90
        0
280
     0
281
     0
  0
CLASS
  1
LAYOUT
  2
AcDbLayout
  3
ObjectDBX Classes
 90
        0
280
     0
281
     0
  0
CLASS
  1
DICTIONARYVAR
  2
AcDbDictionaryVar
  3
ObjectDBX Classes
 90
        0
280
     0
281
     0
  0
CLASS
  1
TABLESTYLE
  2
AcDbTableStyle
  3
ObjectDBX Classes
 90
     2047
280
     0
281
     0
  0
ENDSEC
  0
SECTION
  2
TABLES
  0
TABLE
  2
VPORT
  5
8
330
0
100
AcDbSymbolTable
 70
     7
  0
VPORT
  5
1FFF002F
330
8
100
AcDbSymbolTableRecord
100
AcDbViewportTableRecord
  2
*Active
 70
     0
 10
0.0
 20
0.0
 11
1.0
 21
1.0
 12
200.7453373884358
 22
139.2151531518496
 13
0.0
 23
0.0
 14
0.5
 24
0.5
 15
0.5
 25
0.5
 16
0.0
 26
0.0
 36
1.0
 17
0.0
 27
0.0
 37
0.0
 40
36.21467441628658
 41
1.848534201954397
 42
50.0
 43
0.0
 44
0.0
 50
0.0
 51
0.0
 71
     0
 72
  1000
 73
     1
 74
     3
 75
     0
 76
     0
 77
     0
 78
     0
281
     0
 65
     1
110
0.0
120
0.0
130
0.0
111
1.0
121
0.0
131
0.0
112
0.0
122
1.0
132
0.0
 79
     0
146
0.0
  0
ENDTAB
  0
TABLE
  2
LTYPE
  5
5
330
0
100
AcDbSymbolTable
 70
     9
  0
LTYPE
  5
14
330
5
100
AcDbSymbolTableRecord
100
AcDbLinetypeTableRecord
  2
ByBlock
 70
     0
  3

 72
    65
 73
     0
 40
0.0
  0
LTYPE
  5
15
330
5
100
AcDbSymbolTableRecord
100
AcDbLinetypeTableRecord
  2
ByLayer
 70
     0
  3

 72
    65
 73
     0
 40
0.0
  0
LTYPE
  5
16
330
5
100
AcDbSymbolTableRecord
100
AcDbLinetypeTableRecord
  2
Continuous
 70
     0
  3
Solid line
 72
    65
 73
     0
 40
0.0
  0
LTYPE
  5
1FFF0009
330
5
100
AcDbSymbolTableRecord
100
AcDbLinetypeTableRecord
  2
DOT
 70
     0
  3
ISO dot . . . . . . . . . . . . . . . . . . . .
 72
    65
 73
     2
 40
3.0
 49
0.0
 74
     0
 49
-3.0
 74
     0
  0
LTYPE
  5
1FFF000A
330
5
100
AcDbSymbolTableRecord
100
AcDbLinetypeTableRecord
  2
DASH
 70
     0
  3
ISO dash __ __ __ __ __ __ __ __ __ __ __ __ __
 72
    65
 73
     2
 40
15.0
 49
12.0
 74
     0
 49
-3.0
 74
     0
  0
LTYPE
  5
1FFF000B
330
5
100
AcDbSymbolTableRecord
100
AcDbLinetypeTableRecord
  2
LONGDASH
 70
     0
  3
Dashed (2x) ____  ____  ____  ____  ____  ___
 72
    65
 73
     2
 40
1.5
 49
1.0
 74
     0
 49
-0.5
 74
     0
  0
LTYPE
  5
1FFF000C
330
5
100
AcDbSymbolTableRecord
100
AcDbLinetypeTableRecord
  2
DASHDOT
 70
     0
  3
ISO dash dot __ . __ . __ . __ . __ . __ . __ .
 72
    65
 73
     4
 40
18.0
 49
12.0
 74
     0
 49
-3.0
 74
     0
 49
0.0
 74
     0
 49
-3.0
 74
     0
  0
LTYPE
  5
1FFF000D
330
5
100
AcDbSymbolTableRecord
100
AcDbLinetypeTableRecord
  2
LONGDASHDASH
 70
     0
  3
ISO long-dash short-dash ____ __ ____ __ ____ _
 72
    65
 73
     4
 40
36.0
 49
24.0
 74
     0
 49
-3.0
 74
     0
 49
6.0
 74
     0
 49
-3.0
 74
     0
  0
LTYPE
  5
1FFF000E
330
5
100
AcDbSymbolTableRecord
100
AcDbLinetypeTableRecord
  2
LONGDASHDASHDASH
 70
     0
  3
ISO long-dash double-short-dash ____ __ __ ____
 72
    65
 73
     6
 40
45.0
 49
24.0
 74
     0
 49
-3.0
 74
     0
 49
6.0
 74
     0
 49
-3.0
 74
     0
 49
6.0
 74
     0
 49
-3.0
 74
     0
  0
LTYPE
  5
1FFF000F
330
5
100
AcDbSymbolTableRecord
100
AcDbLinetypeTableRecord
  2
DASHDOTDOT
 70
     0
  3
ISO dash double-dot __ . . __ . . __ . . __ . .
 72
    65
 73
     6
 40
21.0
 49
12.0
 74
     0
 49
-3.0
 74
     0
 49
0.0
 74
     0
 49
-3.0
 74
     0
 49
0.0
 74
     0
 49
-3.0
 74
     0
  0
LTYPE
  5
1FFF0012
330
5
100
AcDbSymbolTableRecord
100
AcDbLinetypeTableRecord
  2
DASHDOTDASHDOT
 70
     0
  3
ISO double-dash dot __ __ . __ __ . __ __ . __ 
 72
    65
 73
     6
 40
33.0
 49
12.0
 74
     0
 49
-3.0
 74
     0
 49
12.0
 74
     0
 49
-3.0
 74
     0
 49
0.0
 74
     0
 49
-3.0
 74
     0
  0
ENDTAB
  0
TABLE
  2
LAYER
  5
2
330
0
100
AcDbSymbolTable
 70
   258
  0
LAYER
  5
10
330
2
100
AcDbSymbolTableRecord
100
AcDbLayerTableRecord
  2
0
 70
     0
 62
     7
  6
Continuous
370
    -3
390
F
  0
ENDTAB
  0
TABLE
  2
STYLE
  5
3
330
0
100
AcDbSymbolTable
 70
     2
  0
STYLE
  5
11
330
3
100
AcDbSymbolTableRecord
100
AcDbTextStyleTableRecord
  2
Standard
 70
     0
 40
0.0
 41
1.0
 50
0.0
 71
     0
 42
0.2
  3
txt
  4

  0
STYLE
  5
1FFF0008
330
3
100
AcDbSymbolTableRecord
100
AcDbTextStyleTableRecord
  2

 70
     1
 40
0.0
 41
1.0
 50
0.0
 71
     0
 42
0.2
  3
ltypeshp.shx
  4

  0
ENDTAB
  0
TABLE
  2
VIEW
  5
6
330
0
100
AcDbSymbolTable
 70
     0
  0
ENDTAB
  0
TABLE
  2
UCS
  5
7
330
0
100
AcDbSymbolTable
 70
     0
  0
ENDTAB
  0
TABLE
  2
APPID
  5
9
330
0
100
AcDbSymbolTable
 70
     1
  0
APPID
  5
12
330
9
100
AcDbSymbolTableRecord
100
AcDbRegAppTableRecord
  2
ACAD
 70
     0
  0
ENDTAB
  0
TABLE
  2
DIMSTYLE
  5
A
330
0
100
AcDbSymbolTable
 70
     1
100
AcDbDimStyleTable
 71
     0
  0
DIMSTYLE
105
27
330
A
100
AcDbSymbolTableRecord
100
AcDbDimStyleTableRecord
  2
Standard
 70
     0
340
11
  0
ENDTAB
  0
TABLE
  2
BLOCK_RECORD
  5
1
330
0
100
AcDbSymbolTable
 70
     1
  0
BLOCK_RECORD
  5
1F
330
1
100
AcDbSymbolTableRecord
100
AcDbBlockTableRecord
  2
*Model_Space
340
22
  0
BLOCK_RECORD
  5
58
330
1
100
AcDbSymbolTableRecord
100
AcDbBlockTableRecord
  2
*Paper_Space
340
59
  0
BLOCK_RECORD
  5
5D
330
1
100
AcDbSymbolTableRecord
100
AcDbBlockTableRecord
  2
*Paper_Space0
340
5E
  0
ENDTAB
  0
ENDSEC
  0
SECTION
  2
BLOCKS
  0
BLOCK
  5
20
330
1F
100
AcDbEntity
  8
0
100
AcDbBlockBegin
  2
*Model_Space
 70
     0
 10
0.0
 20
0.0
 30
0.0
  3
*Model_Space
  1

  0
ENDBLK
  5
21
330
1F
100
AcDbEntity
  8
0
100
AcDbBlockEnd
  0
BLOCK
  5
5A
330
58
100
AcDbEntity
 67
     1
  8
0
100
AcDbBlockBegin
  2
*Paper_Space
 70
     0
 10
0.0
 20
0.0
 30
0.0
  3
*Paper_Space
  1

  0
ENDBLK
  5
5B
330
58
100
AcDbEntity
 67
     1
  8
0
100
AcDbBlockEnd
  0
BLOCK
  5
5F
330
5D
100
AcDbEntity
 67
     1
  8
0
100
AcDbBlockBegin
  2
*Paper_Space0
 70
     0
 10
0.0
 20
0.0
 30
0.0
  3
*Paper_Space0
  1

  0
ENDBLK
  5
60
330
5D
100
AcDbEntity
 67
     1
  8
0
100
AcDbBlockEnd
  0
ENDSEC
  0
SECTION
  2
ENTITIES
  0
HATCH
 62
60
 5
196
100
AcDbEntity
 8
0
100
AcDbHatch
 10
0.0000
 20
0.0000
 210
0.0000
 220
0.0000
 230
1.0000
 2
SOLID
 70
1
 71
0
 91
1
 92
1
 93
4
 72
1
 10
0.9647
 20
0.7224
 11
0.9272
 21
0.7007
 72
1
 10
0.9272
 20
0.7007
 11
0.9469
 21
0.6666
 72
1
 10
0.9469
 20
0.6666
 11
0.9844
 21
0.6883
 72
1
 10
0.9844
 20
0.6883
 11
0.9647
 21
0.7224
 97
  0
 75
  0
 76
  1
 98
  1
 10
0.0000
 20
0.0000
  0
LWPOLYLINE
 62
60
 5
197
100
AcDbEntity
 8
0
100
AcDbPolyline
 90
  5
 10
0.9647
 20
0.7224
 10
0.9272
 20
0.7007
 10
0.9469
 20
0.6666
 10
0.9844
 20
0.6883
 10
0.9647
 20
0.7224
  0
HATCH
 62
60
 5
198
100
AcDbEntity
 8
0
100
AcDbHatch
 10
0.0000
 20
0.0000
 210
0.0000
 220
0.0000
 230
1.0000
 2
SOLID
 70
1
 71
0
 91
1
 92
1
 93
4
 72
1
 10
0.9075
 20
0.6894
 11
0.8700
 21
0.6677
 72
1
 10
0.8700
 20
0.6677
 11
0.8897
 21
0.6336
 72
1
 10
0.8897
 20
0.6336
 11
0.9272
 21
0.6553
 72
1
 10
0.9272
 20
0.6553
 11
0.9075
 21
0.6894
 97
  0
 75
  0
 76
  1
 98
  1
 10
0.0000
 20
0.0000
  0
LWPOLYLINE
 62
60
 5
199
100
AcDbEntity
 8
0
100
AcDbPolyline
 90
  5
 10
0.9075
 20
0.6894
 10
0.8700
 20
0.6677
 10
0.8897
 20
0.6336
 10
0.9272
 20
0.6553
 10
0.9075
 20
0.6894
  0
HATCH
 62
60
 5
19A
100
AcDbEntity
 8
0
100
AcDbHatch
 10
0.0000
 20
0.0000
 210
0.0000
 220
0.0000
 230
1.0000
 2
SOLID
 70
1
 71
0
 91
1
 92
1
 93
4
 72
1
 10
0.6075
 20
0.9861
 11
0.5927
 21
0.9454
 72
1
 10
0.5927
 20
0.9454
 11
0.6297
 21
0.9319
 72
1
 10
0.6297
 20
0.9319
 11
0.6445
 21
0.9726
 72
1
 10
0.6445
 20
0.9726
 11
0.6075
 21
0.9861
 97
  0
 75
  0
 76
  1
 98
  1
 10
0.0000
 20
0.0000
  0
LWPOLYLINE
 62
60
 5
19B
100
AcDbEntity
 8
0
100
AcDbPolyline
 90
  5
 10
0.6075
 20
0.9861
 10
0.5927
 20
0.9454
 10
0.6297
 20
0.9319
 10
0.6445
 20
0.9726
 10
0.6075
 20
0.9861
  0
HATCH
 62
60
 5
19C
100
AcDbEntity
 8
0
100
AcDbHatch
 10
0.0000
 20
0.0000
 210
0.0000
 220
0.0000
 230
1.0000
 2
SOLID
 70
1
 71
0
 91
1
 92
1
 93
4
 72
1
 10
0.5849
 20
0.9240
 11
0.5701
 21
0.8833
 72
1
 10
0.5701
 20
0.8833
 11
0.6071
 21
0.8699
 72
1
 10
0.6071
 20
0.8699
 11
0.6220
 21
0.9106
 72
1
 10
0.6220
 20
0.9106
 11
0.5849
 21
0.9240
 97
  0
 75
  0
 76
  1
 98
  1
 10
0.0000
 20
0.0000
  0
LWPOLYLINE
 62
60
 5
19D
100
AcDbEntity
 8
0
100
AcDbPolyline
 90
  5
 10
0.5849
 20
0.9240
 10
0.5701
 20
0.8833
 10
0.6071
 20
0.8699
 10
0.6220
 20
0.9106
 10
0.5849
 20
0.9240
  0
HATCH
 62
60
 5
19E
100
AcDbEntity
 8
0
100
AcDbHatch
 10
0.0000
 20
0.0000
 210
0.0000
 220
0.0000
 230
1.0000
 2
SOLID
 70
1
 71
0
 91
1
 92
1
 93
4
 72
1
 10
0.3700
 20
0.9927
 11
0.3849
 21
0.9520
 72
1
 10
0.3849
 20
0.9520
 11
0.4219
 21
0.9655
 72
1
 10
0.4219
 20
0.9655
 11
0.4071
 21
1.0062
 72
1
 10
0.4071
 20
1.0062
 11
0.3700
 21
0.9927
 97
  0
 75
  0
 76
  1
 98
  1
 10
0.0000
 20
0.0000
  0
LWPOLYLINE
 62
60
 5
19F
100
AcDbEntity
 8
0
100
AcDbPolyline
 90
  5
 10
0.3700
 20
0.9927
 10
0.3849
 20
0.9520
 10
0.4219
 20
0.9655
 10
0.4071
 20
1.0062
 10
0.3700
 20
0.9927
  0
HATCH
 62
60
 5
1A0
100
AcDbEntity
 8
0
100
AcDbHatch
 10
0.0000
 20
0.0000
 210
0.0000
 220
0.0000
 230
1.0000
 2
SOLID
 70
1
 71
0
 91
1
 92
1
 93
4
 72
1
 10
0.3926
 20
0.9307
 11
0.4074
 21
0.8900
 72
1
 10
0.4074
 20
0.8900
 11
0.4444
 21
0.9035
 72
1
 10
0.4444
 20
0.9035
 11
0.4296
 21
0.9442
 72
1
 10
0.4296
 20
0.9442
 11
0.3926
 21
0.9307
 97
  0
 75
  0
 76
  1
 98
  1
 10
0.0000
 20
0.0000
  0
LWPOLYLINE
 62
60
 5
1A1
100
AcDbEntity
 8
0
100
AcDbPolyline
 90
  5
 10
0.3926
 20
0.9307
 10
0.4074
 20
0.8900
 10
0.4444
 20
0.9035
 10
0.4296
 20
0.9442
 10
0.3926
 20
0.9307
  0
HATCH
 62
60
 5
1A2
100
AcDbEntity
 8
0
100
AcDbHatch
 10
0.0000
 20
0.0000
 210
0.0000
 220
0.0000
 230
1.0000
 2
SOLID
 70
1
 71
0
 91
1
 92
1
 93
4
 72
1
 10
0.0412
 20
0.7133
 11
0.0766
 21
0.6884
 72
1
 10
0.0766
 20
0.6884
 11
0.0992
 21
0.7207
 72
1
 10
0.0992
 20
0.7207
 11
0.0638
 21
0.7455
 72
1
 10
0.0638
 20
0.7455
 11
0.0412
 21
0.7133
 97
  0
 75
  0
 76
  1
 98
  1
 10
0.0000
 20
0.0000
  0
LWPOLYLINE
 62
60
 5
1A3
100
AcDbEntity
 8
0
100
AcDbPolyline
 90
  5
 10
0.0412
 20
0.7133
 10
0.0766
 20
0.6884
 10
0.0992
 20
0.7207
 10
0.0638
 20
0.7455
 10
0.0412
 20
0.7133
  0
HATCH
 62
60
 5
1A4
100
AcDbEntity
 8
0
100
AcDbHatch
 10
0.0000
 20
0.0000
 210
0.0000
 220
0.0000
 230
1.0000
 2
SOLID
 70
1
 71
0
 91
1
 92
1
 93
4
 72
1
 10
0.0952
 20
0.6754
 11
0.1307
 21
0.6507
 72
1
 10
0.1307
 20
0.6507
 11
0.1533
 21
0.6829
 72
1
 10
0.1533
 20
0.6829
 11
0.1178
 21
0.7077
 72
1
 10
0.1178
 20
0.7077
 11
0.0952
 21
0.6754
 97
  0
 75
  0
 76
  1
 98
  1
 10
0.0000
 20
0.0000
  0
LWPOLYLINE
 62
60
 5
1A5
100
AcDbEntity
 8
0
100
AcDbPolyline
 90
  5
 10
0.0952
 20
0.6754
 10
0.1307
 20
0.6507
 10
0.1533
 20
0.6829
 10
0.1178
 20
0.7077
 10
0.0952
 20
0.6754
  0
HATCH
 62
60
 5
1A6
100
AcDbEntity
 8
0
100
AcDbHatch
 10
0.0000
 20
0.0000
 210
0.0000
 220
0.0000
 230
1.0000
 2
SOLID
 70
1
 71
0
 91
1
 92
1
 93
4
 72
1
 10
0.0197
 20
0.3337
 11
0.0572
 21
0.3553
 72
1
 10
0.0572
 20
0.3553
 11
0.0375
 21
0.3896
 72
1
 10
0.0375
 20
0.3896
 11
0.0000
 21
0.3678
 72
1
 10
0.0000
 20
0.3678
 11
0.0197
 21
0.3337
 97
  0
 75
  0
 76
  1
 98
  1
 10
0.0000
 20
0.0000
  0
LWPOLYLINE
 62
60
 5
1A7
100
AcDbEntity
 8
0
100
AcDbPolyline
 90
  5
 10
0.0197
 20
0.3337
 10
0.0572
 20
0.3553
 10
0.0375
 20
0.3896
 10
0.0000
 20
0.3678
 10
0.0197
 20
0.3337
  0
HATCH
 62
60
 5
1A8
100
AcDbEntity
 8
0
100
AcDbHatch
 10
0.0000
 20
0.0000
 210
0.0000
 220
0.0000
 230
1.0000
 2
SOLID
 70
1
 71
0
 91
1
 92
1
 93
4
 72
1
 10
0.0769
 20
0.3667
 11
0.1144
 21
0.3883
 72
1
 10
0.1144
 20
0.3883
 11
0.0947
 21
0.4225
 72
1
 10
0.0947
 20
0.4225
 11
0.0572
 21
0.4008
 72
1
 10
0.0572
 20
0.4008
 11
0.0769
 21
0.3667
 97
  0
 75
  0
 76
  1
 98
  1
 10
0.0000
 20
0.0000
  0
LWPOLYLINE
 62
60
 5
1A9
100
AcDbEntity
 8
0
100
AcDbPolyline
 90
  5
 10
0.0769
 20
0.3667
 10
0.1144
 20
0.3883
 10
0.0947
 20
0.4225
 10
0.0572
 20
0.4008
 10
0.0769
 20
0.3667
  0
HATCH
 62
60
 5
1AA
100
AcDbEntity
 8
0
100
AcDbHatch
 10
0.0000
 20
0.0000
 210
0.0000
 220
0.0000
 230
1.0000
 2
SOLID
 70
1
 71
0
 91
1
 92
1
 93
4
 72
1
 10
0.3870
 20
0.0000
 11
0.4018
 21
0.0407
 72
1
 10
0.4018
 20
0.0407
 11
0.3648
 21
0.0542
 72
1
 10
0.3648
 20
0.0542
 11
0.3500
 21
0.0135
 72
1
 10
0.3500
 20
0.0135
 11
0.3870
 21
0.0000
 97
  0
 75
  0
 76
  1
 98
  1
 10
0.0000
 20
0.0000
  0
LWPOLYLINE
 62
60
 5
1AB
100
AcDbEntity
 8
0
100
AcDbPolyline
 90
  5
 10
0.3870
 20
0.0000
 10
0.4018
 20
0.0407
 10
0.3648
 20
0.0542
 10
0.3500
 20
0.0135
 10
0.3870
 20
0.0000
  0
HATCH
 62
60
 5
1AC
100
AcDbEntity
 8
0
100
AcDbHatch
 10
0.0000
 20
0.0000
 210
0.0000
 220
0.0000
 230
1.0000
 2
SOLID
 70
1
 71
0
 91
1
 92
1
 93
4
 72
1
 10
0.4096
 20
0.0620
 11
0.4244
 21
0.1027
 72
1
 10
0.4244
 20
0.1027
 11
0.3874
 21
0.1162
 72
1
 10
0.3874
 20
0.1162
 11
0.3726
 21
0.0755
 72
1
 10
0.3726
 20
0.0755
 11
0.4096
 21
0.0620
 97
  0
 75
  0
 76
  1
 98
  1
 10
0.0000
 20
0.0000
  0
LWPOLYLINE
 62
60
 5
1AD
100
AcDbEntity
 8
0
100
AcDbPolyline
 90
  5
 10
0.4096
 20
0.0620
 10
0.4244
 20
0.1027
 10
0.3874
 20
0.1162
 10
0.3726
 20
0.0755
 10
0.4096
 20
0.0620
  0
HATCH
 62
60
 5
1AE
100
AcDbEntity
 8
0
100
AcDbHatch
 10
0.0000
 20
0.0000
 210
0.0000
 220
0.0000
 230
1.0000
 2
SOLID
 70
1
 71
0
 91
1
 92
1
 93
4
 72
1
 10
0.7344
 20
0.0434
 11
0.7196
 21
0.0841
 72
1
 10
0.7196
 20
0.0841
 11
0.6826
 21
0.0706
 72
1
 10
0.6826
 20
0.0706
 11
0.6974
 21
0.0299
 72
1
 10
0.6974
 20
0.0299
 11
0.7344
 21
0.0434
 97
  0
 75
  0
 76
  1
 98
  1
 10
0.0000
 20
0.0000
  0
LWPOLYLINE
 62
60
 5
1AF
100
AcDbEntity
 8
0
100
AcDbPolyline
 90
  5
 10
0.7344
 20
0.0434
 10
0.7196
 20
0.0841
 10
0.6826
 20
0.0706
 10
0.6974
 20
0.0299
 10
0.7344
 20
0.0434
  0
HATCH
 62
60
 5
1B0
100
AcDbEntity
 8
0
100
AcDbHatch
 10
0.0000
 20
0.0000
 210
0.0000
 220
0.0000
 230
1.0000
 2
SOLID
 70
1
 71
0
 91
1
 92
1
 93
4
 72
1
 10
0.7119
 20
0.1054
 11
0.6971
 21
0.1461
 72
1
 10
0.6971
 20
0.1461
 11
0.6600
 21
0.1326
 72
1
 10
0.6600
 20
0.1326
 11
0.6748
 21
0.0919
 72
1
 10
0.6748
 20
0.0919
 11
0.7119
 21
0.1054
 97
  0
 75
  0
 76
  1
 98
  1
 10
0.0000
 20
0.0000
  0
LWPOLYLINE
 62
60
 5
1B1
100
AcDbEntity
 8
0
100
AcDbPolyline
 90
  5
 10
0.7119
 20
0.1054
 10
0.6971
 20
0.1461
 10
0.6600
 20
0.1326
 10
0.6748
 20
0.0919
 10
0.7119
 20
0.1054
  0
HATCH
 62
60
 5
1B2
100
AcDbEntity
 8
0
100
AcDbHatch
 10
0.0000
 20
0.0000
 210
0.0000
 220
0.0000
 230
1.0000
 2
SOLID
 70
1
 71
0
 91
1
 92
1
 93
4
 72
1
 10
0.8844
 20
0.1677
 11
0.8469
 21
0.1894
 72
1
 10
0.8469
 20
0.1894
 11
0.8272
 21
0.1552
 72
1
 10
0.8272
 20
0.1552
 11
0.8647
 21
0.1336
 72
1
 10
0.8647
 20
0.1336
 11
0.8844
 21
0.1677
 97
  0
 75
  0
 76
  1
 98
  1
 10
0.0000
 20
0.0000
  0
LWPOLYLINE
 62
60
 5
1B3
100
AcDbEntity
 8
0
100
AcDbPolyline
 90
  5
 10
0.8844
 20
0.1677
 10
0.8469
 20
0.1894
 10
0.8272
 20
0.1552
 10
0.8647
 20
0.1336
 10
0.8844
 20
0.1677
  0
HATCH
 62
60
 5
1B4
100
AcDbEntity
 8
0
100
AcDbHatch
 10
0.0000
 20
0.0000
 210
0.0000
 220
0.0000
 230
1.0000
 2
SOLID
 70
1
 71
0
 91
1
 92
1
 93
4
 72
1
 10
0.8273
 20
0.2007
 11
0.7898
 21
0.2224
 72
1
 10
0.7898
 20
0.2224
 11
0.7701
 21
0.1882
 72
1
 10
0.7701
 20
0.1882
 11
0.8076
 21
0.1666
 72
1
 10
0.8076
 20
0.1666
 11
0.8273
 21
0.2007
 97
  0
 75
  0
 76
  1
 98
  1
 10
0.0000
 20
0.0000
  0
LWPOLYLINE
 62
60
 5
1B5
100
AcDbEntity
 8
0
100
AcDbPolyline
 90
  5
 10
0.8273
 20
0.2007
 10
0.7898
 20
0.2224
 10
0.7701
 20
0.1882
 10
0.8076
 20
0.1666
 10
0.8273
 20
0.2007
  0
SOLID
 62
60
 5
1B6
100
AcDbEntity
 8
0
100
AcDbTrace
 10
0.4877
 20
0.7894
 11
0.5271
 21
0.7894
 12
0.4877
 22
0.8327
 13
0.5271
 23
0.8327
  0
SOLID
 62
60
 5
1B7
100
AcDbEntity
 8
0
100
AcDbTrace
 10
0.4877
 20
0.7234
 11
0.5271
 21
0.7234
 12
0.4877
 22
0.7667
 13
0.5271
 23
0.7667
  0
SOLID
 62
60
 5
1B8
100
AcDbEntity
 8
0
100
AcDbTrace
 10
0.1127
 20
0.4784
 11
0.1560
 21
0.4784
 12
0.1127
 22
0.5178
 13
0.1560
 23
0.5178
  0
SOLID
 62
60
 5
1B9
100
AcDbEntity
 8
0
100
AcDbTrace
 10
0.1787
 20
0.4784
 11
0.2220
 21
0.4784
 12
0.1787
 22
0.5178
 13
0.2220
 23
0.5178
  0
SOLID
 62
60
 5
1BA
100
AcDbEntity
 8
0
100
AcDbTrace
 10
0.4876
 20
0.1635
 11
0.5270
 21
0.1635
 12
0.4876
 22
0.2068
 13
0.5270
 23
0.2068
  0
SOLID
 62
60
 5
1BB
100
AcDbEntity
 8
0
100
AcDbTrace
 10
0.4876
 20
0.2294
 11
0.5270
 21
0.2294
 12
0.4876
 22
0.2727
 13
0.5270
 23
0.2727
  0
SOLID
 62
60
 5
1BC
100
AcDbEntity
 8
0
100
AcDbTrace
 10
0.8387
 20
0.4883
 11
0.8820
 21
0.4883
 12
0.8387
 22
0.5277
 13
0.8820
 23
0.5277
  0
SOLID
 62
60
 5
1BD
100
AcDbEntity
 8
0
100
AcDbTrace
 10
0.7726
 20
0.4883
 11
0.8159
 21
0.4883
 12
0.7726
 22
0.5277
 13
0.8159
 23
0.5277
  0
SOLID
 62
60
 5
1BE
100
AcDbEntity
 8
0
100
AcDbTrace
 10
0.7726
 20
0.4883
 11
0.8159
 21
0.4883
 12
0.7726
 22
0.5277
 13
0.8159
 23
0.5277
0
ENDSEC
  0
SECTION
  2
OBJECTS
  0
DICTIONARY
  5
C
330
0
100
AcDbDictionary
281
     1
  3
ACAD_COLOR
350
73
  3
ACAD_GROUP
350
D
  3
ACAD_LAYOUT
350
1A
  3
ACAD_MATERIAL
350
72
  3
ACAD_MLINESTYLE
350
17
  3
ACAD_PLOTSETTINGS
350
19
  3
ACAD_PLOTSTYLENAME
350
E
  3
ACAD_TABLESTYLE
350
1FFF0003
  3
ACDBHEADERROUNDTRIPXREC
350
1FFF0031
  3
AcDbVariableDictionary
350
66
  3
DWGPROPS
350
1FFF0030
  0
DICTIONARY
  5
73
102
{ACAD_REACTORS
330
C
102
}
330
C
100
AcDbDictionary
281
     1
  0
DICTIONARY
  5
D
102
{ACAD_REACTORS
330
C
102
}
330
C
100
AcDbDictionary
281
     1
  0
DICTIONARY
  5
1A
102
{ACAD_REACTORS
330
C
102
}
330
C
100
AcDbDictionary
281
     1
  3
Layout1
350
59
  3
Layout2
350
5E
  3
Model
350
22
  0
DICTIONARY
  5
72
102
{ACAD_REACTORS
330
C
102
}
330
C
100
AcDbDictionary
281
     1
  0
DICTIONARY
  5
17
102
{ACAD_REACTORS
330
C
102
}
330
C
100
AcDbDictionary
281
     1
  3
Standard
350
18
  0
DICTIONARY
  5
19
102
{ACAD_REACTORS
330
C
102
}
330
C
100
AcDbDictionary
281
     1
  0
ACDBDICTIONARYWDFLT
  5
E
102
{ACAD_REACTORS
330
C
102
}
330
C
100
AcDbDictionary
281
     1
  3
Normal
350
F
100
AcDbDictionaryWithDefault
340
F
  0
DICTIONARY
  5
1FFF0003
102
{ACAD_REACTORS
330
C
102
}
330
C
100
AcDbDictionary
281
     1
  3
Standard
350
1FFF0004
  0
DICTIONARY
  5
1FFF0031
102
{ACAD_REACTORS
330
C
102
}
330
C
100
AcDbDictionary
281
     1
  0
DICTIONARY
  5
66
102
{ACAD_REACTORS
330
C
102
}
330
C
100
AcDbDictionary
281
     1
  3
CTABLESTYLE
350
1FFF0011
  3
DIMASSOC
350
67
  3
HIDETEXT
350
6B
  3
PROJECTNAME
350
18B
  0
XRECORD
  5
1FFF0030
102
{ACAD_REACTORS
330
C
102
}
330
C
100
AcDbXrecord
280
     1
  1
DWGPROPS COOKIE
  2

  3

  4

  6

  7

  8
Terje
  9

300
=
301
=
302
=
303
=
304
=
305
=
306
=
307
=
308
=
309
=
 40
0.0136125462962963
 41
2453411.634212141
 42
2453762.434476216
  1

 90
        0
  0
LAYOUT
  5
59
102
{ACAD_XDICTIONARY
360
1FFF0034
102
}
102
{ACAD_REACTORS
330
1A
102
}
330
1A
100
AcDbPlotSettings
  1

  2
None
  4

  6

 40
0.0
 41
0.0
 42
0.0
 43
0.0
 44
0.0
 45
0.0
 46
0.0
 47
0.0
 48
0.0
 49
0.0
140
0.0
141
0.0
142
1.0
143
1.0
 70
   688
 72
     0
 73
     0
 74
     5
  7

 75
    16
147
1.0
148
0.0
149
0.0
100
AcDbLayout
  1
Layout1
 70
     1
 71
     1
 10
0.0
 20
0.0
 11
12.0
 21
9.0
 12
0.0
 22
0.0
 32
0.0
 14
0.0
 24
0.0
 34
0.0
 15
0.0
 25
0.0
 35
0.0
146
0.0
 13
0.0
 23
0.0
 33
0.0
 16
1.0
 26
0.0
 36
0.0
 17
0.0
 27
1.0
 37
0.0
 76
     0
330
58
  0
LAYOUT
  5
5E
102
{ACAD_XDICTIONARY
360
1FFF0036
102
}
102
{ACAD_REACTORS
330
1A
102
}
330
1A
100
AcDbPlotSettings
  1

  2
None
  4

  6

 40
0.0
 41
0.0
 42
0.0
 43
0.0
 44
0.0
 45
0.0
 46
0.0
 47
0.0
 48
0.0
 49
0.0
140
0.0
141
0.0
142
1.0
143
1.0
 70
   688
 72
     0
 73
     0
 74
     5
  7

 75
    16
147
1.0
148
0.0
149
0.0
100
AcDbLayout
  1
Layout2
 70
     1
 71
     2
 10
0.0
 20
0.0
 11
12.0
 21
9.0
 12
0.0
 22
0.0
 32
0.0
 14
0.0
 24
0.0
 34
0.0
 15
0.0
 25
0.0
 35
0.0
146
0.0
 13
0.0
 23
0.0
 33
0.0
 16
1.0
 26
0.0
 36
0.0
 17
0.0
 27
1.0
 37
0.0
 76
     0
330
5D
  0
LAYOUT
  5
22
102
{ACAD_XDICTIONARY
360
1FFF0032
102
}
102
{ACAD_REACTORS
330
1A
102
}
330
1A
100
AcDbPlotSettings
  1

  2
none_device
  4
ANSI_A_(8.50_x_11.00_Inches)
  6

 40
6.349999904632567
 41
19.04999923706055
 42
6.350006103515625
 43
19.04998779296875
 44
215.8999938964844
 45
279.3999938964844
 46
0.0
 47
0.0
 48
0.0
 49
0.0
140
0.0
141
0.0
142
1.0
143
2.584895464708373
 70
 11952
 72
     0
 73
     1
 74
     0
  7

 75
     0
147
0.3868628397755418
148
0.0
149
0.0
100
AcDbLayout
  1
Model
 70
     1
 71
     0
 10
0.0
 20
0.0
 11
12.0
 21
9.0
 12
0.0
 22
0.0
 32
0.0
 14
0.0
 24
0.0
 34
0.0
 15
0.0
 25
0.0
 35
0.0
146
0.0
 13
0.0
 23
0.0
 33
0.0
 16
1.0
 26
0.0
 36
0.0
 17
0.0
 27
1.0
 37
0.0
 76
     0
330
1F
  0
MLINESTYLE
  5
18
102
{ACAD_REACTORS
330
17
102
}
330
17
100
AcDbMlineStyle
  2
STANDARD
 70
     0
  3

 62
   256
 51
90.0
 52
90.0
 71
     2
 49
0.5
 62
   256
  6
BYLAYER
 49
-0.5
 62
   256
  6
BYLAYER
  0
ACDBPLACEHOLDER
  5
F
102
{ACAD_REACTORS
330
E
102
}
330
E
  0
TABLESTYLE
  5
1FFF0004
102
{ACAD_REACTORS
330
1FFF0003
102
}
330
1FFF0003
100
AcDbTableStyle
  3
Standard
 70
     0
 71
     0
 40
0.06
 41
0.06
280
     0
281
     0
  7
Standard
140
0.18
170
     2
 62
     0
 63
     7
283
     0
274
    -2
284
     1
 64
     0
275
    -2
285
     1
 65
     0
276
    -2
286
     1
 66
     0
277
    -2
287
     1
 67
     0
278
    -2
288
     1
 68
     0
279
    -2
289
     1
 69
     0
  7
Standard
140
0.25
170
     5
 62
     0
 63
     7
283
     0
274
    -2
284
     1
 64
     0
275
    -2
285
     1
 65
     0
276
    -2
286
     1
 66
     0
277
    -2
287
     1
 67
     0
278
    -2
288
     1
 68
     0
279
    -2
289
     1
 69
     0
  7
Standard
140
0.18
170
     5
 62
     0
 63
     7
283
     0
274
    -2
284
     1
 64
     0
275
    -2
285
     1
 65
     0
276
    -2
286
     1
 66
     0
277
    -2
287
     1
 67
     0
278
    -2
288
     1
 68
     0
279
    -2
289
     1
 69
     0
  0
DICTIONARYVAR
  5
1FFF0011
102
{ACAD_REACTORS
330
66
102
}
330
66
100
DictionaryVariables
280
     0
  1
STANDARD
  0
DICTIONARYVAR
  5
67
102
{ACAD_REACTORS
330
66
102
}
330
66
100
DictionaryVariables
280
     0
  1
2
  0
DICTIONARYVAR
  5
6B
102
{ACAD_REACTORS
330
66
102
}
330
66
100
DictionaryVariables
280
     0
  1
1
  0
DICTIONARYVAR
  5
18B
102
{ACAD_REACTORS
330
66
102
}
330
66
100
DictionaryVariables
280
     0
  1

  0
DICTIONARY
  5
1FFF0034
330
59
100
AcDbDictionary
280
     1
281
     1
  3
ACAD_XREC_ROUNDTRIP
360
1FFF0035
  0
DICTIONARY
  5
1FFF0036
330
5E
100
AcDbDictionary
280
     1
281
     1
  3
ACAD_XREC_ROUNDTRIP
360
1FFF0037
  0
DICTIONARY
  5
1FFF0032
330
22
100
AcDbDictionary
280
     1
281
     1
  3
ACAD_XREC_ROUNDTRIP
360
1FFF0033
  0
XRECORD
  5
1FFF0035
102
{ACAD_REACTORS
330
1FFF0034
102
}
330
1FFF0034
100
AcDbXrecord
280
     1
102
SHADEPLOT
 70
     0
102
SHADEPLOTRESLEVEL
 70
     2
102
SHADEPLOTCUSTOMDPI
 70
   300
  0
XRECORD
  5
1FFF0037
102
{ACAD_REACTORS
330
1FFF0036
102
}
330
1FFF0036
100
AcDbXrecord
280
     1
102
SHADEPLOT
 70
     0
102
SHADEPLOTRESLEVEL
 70
     2
102
SHADEPLOTCUSTOMDPI
 70
   300
  0
XRECORD
  5
1FFF0033
102
{ACAD_REACTORS
330
1FFF0032
102
}
330
1FFF0032
100
AcDbXrecord
280
     1
102
SHADEPLOT
 70
     0
102
SHADEPLOTRESLEVEL
 70
     2
102
SHADEPLOTCUSTOMDPI
 70
   300
  0
ENDSEC
  0
EOF
